<?xml version="1.0" encoding="utf-8" standalone="no"?>
<!DOCTYPE svg PUBLIC "-//W3C//DTD SVG 1.1//EN"
  "http://www.w3.org/Graphics/SVG/1.1/DTD/svg11.dtd">
<!-- Created with matplotlib (https://matplotlib.org/) -->
<svg height="288pt" version="1.1" viewBox="0 0 432 288" width="432pt" xmlns="http://www.w3.org/2000/svg" xmlns:xlink="http://www.w3.org/1999/xlink">
 <defs>
  <style type="text/css">
*{stroke-linecap:butt;stroke-linejoin:round;}
  </style>
 </defs>
 <g id="figure_1">
  <g id="patch_1">
   <path d="M 0 288 
L 432 288 
L 432 0 
L 0 0 
z
" style="fill:#ffffff;"/>
  </g>
  <g id="axes_1">
   <g id="patch_2">
    <path d="M 65.7932 230.88 
L 417.48 230.88 
L 417.48 14.52 
L 65.7932 14.52 
z
" style="fill:#ffffff;"/>
   </g>
   <g id="matplotlib.axis_1">
    <g id="xtick_1">
     <g id="line2d_1">
      <defs>
       <path d="M 0 0 
L 0 3.5 
" id="mc2b6875741" style="stroke:#000000;stroke-width:0.8;"/>
      </defs>
      <g>
       <use style="stroke:#000000;stroke-width:0.8;" x="145.685703" xlink:href="#mc2b6875741" y="230.88"/>
      </g>
     </g>
     <g id="text_1">
      <!-- $20$ -->
      <defs>
       <path d="M 41.703125 15.453125 
L 39.90625 15.453125 
C 38.90625 8.375 38.09375 7.171875 37.703125 6.5625 
C 37.203125 5.765625 30 5.765625 28.59375 5.765625 
L 9.40625 5.765625 
C 13 9.671875 20 16.75 28.5 24.953125 
C 34.59375 30.734375 41.703125 37.53125 41.703125 47.421875 
C 41.703125 59.21875 32.296875 66 21.796875 66 
C 10.796875 66 4.09375 56.3125 4.09375 47.34375 
C 4.09375 43.4375 7 42.9375 8.203125 42.9375 
C 9.203125 42.9375 12.203125 43.546875 12.203125 47.03125 
C 12.203125 50.109375 9.59375 51 8.203125 51 
C 7.59375 51 7 50.90625 6.59375 50.703125 
C 8.5 59.21875 14.296875 63.40625 20.40625 63.40625 
C 29.09375 63.40625 34.796875 56.515625 34.796875 47.421875 
C 34.796875 38.734375 29.703125 31.25 24 24.75 
L 4.09375 2.28125 
L 4.09375 0 
L 39.296875 0 
z
" id="CMR17-50"/>
       <path d="M 42 31.640625 
C 42 37.75 41.90625 48.125 37.703125 56.109375 
C 34 63.109375 28.09375 65.59375 22.90625 65.59375 
C 18.09375 65.59375 12 63.40625 8.203125 56.203125 
C 4.203125 48.71875 3.796875 39.4375 3.796875 31.640625 
C 3.796875 25.953125 3.90625 17.28125 7 9.671875 
C 11.296875 -0.609375 19 -2 22.90625 -2 
C 27.5 -2 34.5 -0.109375 38.59375 9.375 
C 41.59375 16.28125 42 24.359375 42 31.640625 
z
M 22.90625 -0.40625 
C 16.5 -0.40625 12.703125 5.078125 11.296875 12.6875 
C 10.203125 18.5625 10.203125 27.15625 10.203125 32.75 
C 10.203125 40.4375 10.203125 46.828125 11.5 52.921875 
C 13.40625 61.390625 19 64 22.90625 64 
C 27 64 32.296875 61.296875 34.203125 53.125 
C 35.5 47.4375 35.59375 40.734375 35.59375 32.75 
C 35.59375 26.25 35.59375 18.265625 34.40625 12.375 
C 32.296875 1.484375 26.40625 -0.40625 22.90625 -0.40625 
z
" id="CMR17-48"/>
      </defs>
      <g transform="translate(137.430578 251.21795)scale(0.18 -0.18)">
       <use transform="scale(0.996264)" xlink:href="#CMR17-50"/>
       <use transform="translate(45.690477 0)scale(0.996264)" xlink:href="#CMR17-48"/>
      </g>
     </g>
    </g>
    <g id="xtick_2">
     <g id="line2d_2">
      <g>
       <use style="stroke:#000000;stroke-width:0.8;" x="225.578207" xlink:href="#mc2b6875741" y="230.88"/>
      </g>
     </g>
     <g id="text_2">
      <!-- $40$ -->
      <defs>
       <path d="M 33.59375 64.40625 
C 33.59375 66.5 33.5 66.5 31.703125 66.5 
L 2 19.59375 
L 2 17 
L 27.796875 17 
L 27.796875 7.140625 
C 27.796875 3.5 27.59375 2.5 20.59375 2.5 
L 18.703125 2.5 
L 18.703125 0 
C 21.90625 0 27.296875 0 30.703125 0 
C 34.09375 0 39.5 0 42.703125 0 
L 42.703125 2.5 
L 40.796875 2.5 
C 33.796875 2.5 33.59375 3.5 33.59375 7.140625 
L 33.59375 17 
L 43.796875 17 
L 43.796875 19.59375 
L 33.59375 19.59375 
z
M 28.09375 57.859375 
L 28.09375 19.59375 
L 4 19.59375 
z
" id="CMR17-52"/>
      </defs>
      <g transform="translate(217.323082 251.21795)scale(0.18 -0.18)">
       <use transform="scale(0.996264)" xlink:href="#CMR17-52"/>
       <use transform="translate(45.690477 0)scale(0.996264)" xlink:href="#CMR17-48"/>
      </g>
     </g>
    </g>
    <g id="xtick_3">
     <g id="line2d_3">
      <g>
       <use style="stroke:#000000;stroke-width:0.8;" x="305.47071" xlink:href="#mc2b6875741" y="230.88"/>
      </g>
     </g>
     <g id="text_3">
      <!-- $60$ -->
      <defs>
       <path d="M 10.59375 34 
C 10.59375 57.65625 21.796875 63 28.296875 63 
C 30.40625 63 35.5 62.640625 37.5 59 
C 35.90625 59 32.90625 59 32.90625 55.515625 
C 32.90625 52.828125 35.09375 51.921875 36.5 51.921875 
C 37.40625 51.921875 40.09375 52.3125 40.09375 55.625 
C 40.09375 61.78125 35.09375 65.296875 28.203125 65.296875 
C 16.296875 65.296875 3.796875 52.96875 3.796875 31 
C 3.796875 3.953125 15.09375 -2 23.09375 -2 
C 32.796875 -2 42 6.671875 42 20.046875 
C 42 32.515625 33.90625 41.59375 23.703125 41.59375 
C 17.59375 41.59375 13.09375 37.609375 10.59375 30.625 
z
M 23.09375 0.390625 
C 10.796875 0.390625 10.796875 18.75 10.796875 22.4375 
C 10.796875 29.625 14.203125 40 23.5 40 
C 25.203125 40 30.09375 40 33.40625 33.125 
C 35.203125 29.21875 35.203125 25.140625 35.203125 20.140625 
C 35.203125 14.75 35.203125 10.78125 33.09375 6.78125 
C 30.90625 2.671875 27.703125 0.390625 23.09375 0.390625 
z
" id="CMR17-54"/>
      </defs>
      <g transform="translate(297.215585 251.21795)scale(0.18 -0.18)">
       <use transform="scale(0.996264)" xlink:href="#CMR17-54"/>
       <use transform="translate(45.690477 0)scale(0.996264)" xlink:href="#CMR17-48"/>
      </g>
     </g>
    </g>
    <g id="xtick_4">
     <g id="line2d_4">
      <g>
       <use style="stroke:#000000;stroke-width:0.8;" x="385.363214" xlink:href="#mc2b6875741" y="230.88"/>
      </g>
     </g>
     <g id="text_4">
      <!-- $80$ -->
      <defs>
       <path d="M 27.203125 35.375 
C 33.5 38.546875 39.90625 43.328125 39.90625 50.984375 
C 39.90625 60.015625 31.09375 65.296875 23 65.296875 
C 13.90625 65.296875 5.90625 58.734375 5.90625 49.6875 
C 5.90625 47.203125 6.5 42.921875 10.40625 39.140625 
C 11.40625 38.15625 15.59375 35.171875 18.296875 33.28125 
C 13.796875 30.984375 3.296875 25.53125 3.296875 14.59375 
C 3.296875 4.359375 13.09375 -2 22.796875 -2 
C 33.5 -2 42.5 5.65625 42.5 15.78125 
C 42.5 24.84375 36.40625 29.015625 32.40625 31.703125 
z
M 14.09375 44.09375 
C 13.296875 44.59375 9.296875 47.671875 9.296875 52.359375 
C 9.296875 58.421875 15.59375 63 22.796875 63 
C 30.703125 63 36.5 57.4375 36.5 50.96875 
C 36.5 41.703125 26.09375 36.421875 25.59375 36.421875 
C 25.5 36.421875 25.40625 36.421875 24.59375 37.03125 
z
M 32.5 23.734375 
C 34 22.640625 38.796875 19.375 38.796875 13.296875 
C 38.796875 5.953125 31.40625 0.390625 23 0.390625 
C 13.90625 0.390625 7 6.84375 7 14.6875 
C 7 22.546875 13.09375 29.09375 20 32.1875 
z
" id="CMR17-56"/>
      </defs>
      <g transform="translate(377.108089 251.21795)scale(0.18 -0.18)">
       <use transform="scale(0.996264)" xlink:href="#CMR17-56"/>
       <use transform="translate(45.690477 0)scale(0.996264)" xlink:href="#CMR17-48"/>
      </g>
     </g>
    </g>
    <g id="text_5">
     <!-- Time -->
     <defs>
      <path d="M 63.296875 72 
L 3.40625 72 
L 1.90625 44.265625 
L 6.203125 44.265625 
C 6.90625 49.25 7.796875 53.046875 8.90625 56.234375 
C 11.5 63.515625 16.296875 67.3125 23.09375 67.3125 
C 26.40625 67.3125 27.796875 66.203125 27.796875 63.71875 
L 27.796875 12.28125 
L 27.796875 9.375 
C 27.796875 5.1875 26.90625 4.6875 18.796875 4.6875 
L 16.203125 4.6875 
L 16.203125 0 
L 50.5 0 
L 50.5 4.6875 
L 47.90625 4.6875 
C 39.90625 4.6875 39 5.1875 39 9.375 
L 39 12.28125 
L 39 63.71875 
C 39 66.203125 40.40625 67.3125 43.703125 67.3125 
C 49.796875 67.3125 54.703125 63.90625 57.203125 57.921875 
C 58.703125 54.25 59.703125 49.953125 60.5 44.265625 
L 64.796875 44.265625 
z
" id="Century_Schoolbook_L_Roman-84"/>
      <path d="M 20.59375 46 
L 1.796875 46 
L 1.796875 41.21875 
L 6.90625 41.21875 
C 10.59375 41.21875 11.203125 40.515625 11.203125 36.203125 
L 11.203125 12.296875 
L 11.203125 8.296875 
C 11.203125 4.296875 10.09375 3.59375 3.703125 3.59375 
L 3 3.59375 
L 3 0 
L 28.90625 0 
L 28.90625 3.59375 
L 28.203125 3.59375 
C 21.703125 3.59375 20.59375 4.28125 20.59375 8.21875 
L 20.59375 12.171875 
z
M 15.90625 71.578125 
C 12.703125 71.578125 10.09375 68.984375 10.09375 65.796875 
C 10.09375 62.703125 12.703125 60 15.796875 60 
C 19.09375 60 21.703125 62.59375 21.703125 65.796875 
C 21.703125 68.984375 19.09375 71.578125 15.90625 71.578125 
z
" id="Century_Schoolbook_L_Roman-105"/>
      <path d="M 20.09375 46 
L 2.296875 46 
L 2.296875 41.21875 
L 6.40625 41.21875 
C 10.09375 41.21875 10.703125 40.515625 10.703125 36.203125 
L 10.703125 12.296875 
L 10.703125 8.40625 
C 10.703125 4.296875 9.59375 3.59375 3.203125 3.59375 
L 2.796875 3.59375 
L 2.796875 0 
L 28 0 
L 28 3.59375 
L 27.59375 3.59375 
C 21.203125 3.59375 20.09375 4.296875 20.09375 8.390625 
L 20.09375 12.28125 
L 20.09375 26.453125 
C 20.09375 35.328125 25 41.921875 31.5 41.921875 
C 34.09375 41.921875 36.90625 40.515625 38.09375 38.625 
C 39.5 36.734375 40.09375 33.828125 40.09375 29.734375 
L 40.09375 12.28125 
L 40.09375 8.28125 
C 40.09375 4.296875 39 3.59375 32.5 3.59375 
L 32.09375 3.59375 
L 32.09375 0 
L 57.40625 0 
L 57.40625 3.59375 
L 57 3.59375 
C 50.59375 3.59375 49.5 4.296875 49.5 8.28125 
L 49.5 12.28125 
L 49.5 25.546875 
C 49.5 35.53125 54 41.921875 61 41.921875 
C 64.296875 41.921875 67 40.015625 68.296875 36.921875 
C 69.203125 34.734375 69.5 32.53125 69.5 28.640625 
L 69.5 12.28125 
L 69.5 8.28125 
C 69.5 4.296875 68.40625 3.59375 61.90625 3.59375 
L 61.5 3.59375 
L 61.5 0 
L 86.796875 0 
L 86.796875 3.59375 
L 86.40625 3.59375 
C 80 3.59375 78.90625 4.296875 78.90625 8.390625 
L 78.90625 12.28125 
L 78.90625 30.640625 
C 78.90625 36.828125 78.296875 38.921875 75.703125 42.3125 
C 72.796875 46.015625 68.703125 48 63.90625 48 
C 57.40625 48 52.59375 44.9375 48.296875 38.109375 
C 46.59375 44.046875 41.203125 48 34.5 48 
C 28.5 48 24 45.140625 20.09375 38.921875 
z
" id="Century_Schoolbook_L_Roman-109"/>
      <path d="M 46.5 23 
C 46.59375 37.8125 38.09375 48.28125 25.90625 48.28125 
C 13.09375 48.28125 3.5 37.25 3.5 22.34375 
C 3.5 8.4375 12.59375 -1 26.09375 -1 
C 35.59375 -1 42.40625 3.6875 46.5 13.1875 
L 43 15.09375 
C 38.90625 7.390625 34.703125 4.390625 28 4.390625 
C 22.90625 4.390625 19.203125 6.59375 16.59375 11 
C 14.796875 14 14 17.5 14.09375 23 
z
M 14.203125 27.296875 
C 14.203125 30.34375 14.59375 32.5 15.59375 35.25 
C 17.703125 41.140625 20.90625 44 25.703125 44 
C 31.796875 44 35.796875 38.78125 35.796875 30.921875 
C 35.796875 28.078125 34.90625 27.296875 31.703125 27.296875 
z
" id="Century_Schoolbook_L_Roman-101"/>
     </defs>
     <g transform="translate(220.297855 273.24577)scale(0.18 -0.18)">
      <use transform="translate(0 0.343476)scale(0.996264)" xlink:href="#Century_Schoolbook_L_Roman-84"/>
      <use transform="translate(66.450031 0.343476)scale(0.996264)" xlink:href="#Century_Schoolbook_L_Roman-105"/>
      <use transform="translate(97.831344 0.343476)scale(0.996264)" xlink:href="#Century_Schoolbook_L_Roman-109"/>
      <use transform="translate(186.398251 0.343476)scale(0.996264)" xlink:href="#Century_Schoolbook_L_Roman-101"/>
     </g>
    </g>
   </g>
   <g id="matplotlib.axis_2">
    <g id="ytick_1">
     <g id="line2d_5">
      <defs>
       <path d="M 0 0 
L -3.5 0 
" id="mc1fab0e4fc" style="stroke:#000000;stroke-width:0.8;"/>
      </defs>
      <g>
       <use style="stroke:#000000;stroke-width:0.8;" x="65.7932" xlink:href="#mc1fab0e4fc" y="230.88"/>
      </g>
     </g>
     <g id="text_6">
      <!-- $0$ -->
      <g transform="translate(50.53807 237.548975)scale(0.18 -0.18)">
       <use transform="scale(0.996264)" xlink:href="#CMR17-48"/>
      </g>
     </g>
    </g>
    <g id="ytick_2">
     <g id="line2d_6">
      <g>
       <use style="stroke:#000000;stroke-width:0.8;" x="65.7932" xlink:href="#mc1fab0e4fc" y="170.528536"/>
      </g>
     </g>
     <g id="text_7">
      <!-- $100$ -->
      <defs>
       <path d="M 26.59375 63.40625 
C 26.59375 65.5 26.5 65.5 25.09375 65.5 
C 21.203125 61.1875 15.296875 59.796875 9.703125 59.796875 
C 9.40625 59.796875 8.90625 59.796875 8.796875 59.5 
C 8.703125 59.296875 8.703125 59.09375 8.703125 57 
C 11.796875 57 17 57.59375 21 59.984375 
L 21 7.203125 
C 21 3.6875 20.796875 2.5 12.203125 2.5 
L 9.203125 2.5 
L 9.203125 0 
C 14 0 19 0 23.796875 0 
C 28.59375 0 33.59375 0 38.40625 0 
L 38.40625 2.5 
L 35.40625 2.5 
C 26.796875 2.5 26.59375 3.59375 26.59375 7.15625 
z
" id="CMR17-49"/>
      </defs>
      <g transform="translate(34.02782 177.197511)scale(0.18 -0.18)">
       <use transform="scale(0.996264)" xlink:href="#CMR17-49"/>
       <use transform="translate(45.690477 0)scale(0.996264)" xlink:href="#CMR17-48"/>
       <use transform="translate(91.380954 0)scale(0.996264)" xlink:href="#CMR17-48"/>
      </g>
     </g>
    </g>
    <g id="ytick_3">
     <g id="line2d_7">
      <g>
       <use style="stroke:#000000;stroke-width:0.8;" x="65.7932" xlink:href="#mc1fab0e4fc" y="110.177071"/>
      </g>
     </g>
     <g id="text_8">
      <!-- $200$ -->
      <g transform="translate(34.02782 116.846046)scale(0.18 -0.18)">
       <use transform="scale(0.996264)" xlink:href="#CMR17-50"/>
       <use transform="translate(45.690477 0)scale(0.996264)" xlink:href="#CMR17-48"/>
       <use transform="translate(91.380954 0)scale(0.996264)" xlink:href="#CMR17-48"/>
      </g>
     </g>
    </g>
    <g id="ytick_4">
     <g id="line2d_8">
      <g>
       <use style="stroke:#000000;stroke-width:0.8;" x="65.7932" xlink:href="#mc1fab0e4fc" y="49.825607"/>
      </g>
     </g>
     <g id="text_9">
      <!-- $300$ -->
      <defs>
       <path d="M 22.09375 33.703125 
C 31 33.703125 34.90625 25.96875 34.90625 17.03125 
C 34.90625 5 28.5 0.390625 22.703125 0.390625 
C 17.40625 0.390625 8.796875 3.03125 6.09375 10.828125 
C 6.59375 10.625 7.09375 10.625 7.59375 10.625 
C 10 10.625 11.796875 12.21875 11.796875 14.8125 
C 11.796875 17.703125 9.59375 19 7.59375 19 
C 5.90625 19 3.296875 18.203125 3.296875 14.46875 
C 3.296875 5.234375 12.296875 -2 22.90625 -2 
C 34 -2 42.5 6.71875 42.5 16.953125 
C 42.5 26.671875 34.5 33.703125 25 34.796875 
C 32.59375 36.375 39.90625 43.0625 39.90625 52.015625 
C 39.90625 59.6875 32 65.296875 23 65.296875 
C 13.90625 65.296875 5.90625 59.828125 5.90625 52.015625 
C 5.90625 48.59375 8.5 48 9.796875 48 
C 11.90625 48 13.703125 49.296875 13.703125 51.890625 
C 13.703125 54.46875 11.90625 55.765625 9.796875 55.765625 
C 9.40625 55.765625 8.90625 55.765625 8.5 55.578125 
C 11.40625 61.859375 19.296875 63 22.796875 63 
C 26.296875 63 32.90625 61.328125 32.90625 51.875 
C 32.90625 49.109375 32.5 44.1875 29.09375 39.84375 
C 26.09375 36 22.703125 36 19.40625 35.6875 
C 18.90625 35.6875 16.59375 35.453125 16.203125 35.453125 
C 15.5 35.359375 15.09375 35.265625 15.09375 34.5 
C 15.09375 33.796875 15.203125 33.703125 17.203125 33.703125 
z
" id="CMR17-51"/>
      </defs>
      <g transform="translate(34.02782 56.494582)scale(0.18 -0.18)">
       <use transform="scale(0.996264)" xlink:href="#CMR17-51"/>
       <use transform="translate(45.690477 0)scale(0.996264)" xlink:href="#CMR17-48"/>
       <use transform="translate(91.380954 0)scale(0.996264)" xlink:href="#CMR17-48"/>
      </g>
     </g>
    </g>
    <g id="text_10">
     <!-- Spindle Load -->
     <defs>
      <path d="M 54.59375 72 
L 50.90625 72 
L 46.90625 66.09375 
C 42.203125 70.59375 35.796875 73 28.703125 73 
C 15.59375 73 6.796875 64.609375 6.796875 52.15625 
C 6.796875 41.28125 12.203125 35.890625 26.90625 32.109375 
L 36.40625 29.703125 
C 43.796875 27.828125 44.5 27.625 46.59375 26.03125 
C 49.59375 23.734375 51.203125 20.4375 51.203125 16.546875 
C 51.203125 12.5625 49.703125 9.28125 46.703125 6.59375 
C 43.40625 3.6875 40.09375 2.59375 34.59375 2.59375 
C 27.203125 2.59375 21.90625 4.875 17.203125 10.03125 
C 13 14.703125 10.90625 19.375 9.40625 27 
L 5.09375 27 
L 5.5 -1.4375 
L 9.40625 -1.4375 
L 13.90625 5.46875 
C 20.59375 0 26.203125 -2 34.90625 -2 
C 49.59375 -2 59 6.59375 59 19.9375 
C 59 26.109375 56.90625 31.40625 53 35.203125 
C 50.296875 37.796875 46.40625 39.484375 38.40625 41.484375 
L 27.703125 44.171875 
C 18.796875 46.46875 14.59375 50.359375 14.59375 56.4375 
C 14.59375 63.40625 20.296875 68.203125 28.796875 68.203125 
C 35.796875 68.203125 41.5 65.1875 45.5 59.484375 
C 48.40625 55.375 50.203125 51.15625 51.5 46.046875 
L 55.796875 46.046875 
z
" id="Century_Schoolbook_L_Roman-83"/>
      <path d="M 20.09375 46 
L 2.796875 46 
L 2.796875 41.21875 
L 6.40625 41.21875 
C 10.09375 41.21875 10.703125 40.515625 10.703125 36.21875 
L 10.703125 -7.75 
L 10.703125 -11.71875 
C 10.703125 -15.71875 9.59375 -16.40625 3.203125 -16.40625 
L 2.796875 -16.40625 
L 2.796875 -20 
L 28.796875 -20 
L 28.796875 -16.40625 
L 27.703125 -16.40625 
C 21.203125 -16.40625 20.09375 -15.71875 20.09375 -11.734375 
L 20.09375 -7.75 
L 20.09375 6.6875 
C 23.40625 0.90625 27.203125 -1.390625 33.296875 -1.390625 
C 44.90625 -1.390625 53.5 9.265625 53.5 23.5 
C 53.5 37.265625 44.90625 48 33.90625 48 
C 27.703125 48 23.59375 45.4375 20.09375 39.515625 
z
M 32.09375 42.609375 
C 39 42.609375 43 35.75 43 24.09375 
C 43 11.265625 38.90625 4 31.796875 4 
C 24.703125 4 20 11.375 20 22.8125 
C 20 35.140625 24.5 42.609375 32.09375 42.609375 
z
" id="Century_Schoolbook_L_Roman-112"/>
      <path d="M 20 46 
L 2.703125 46 
L 2.703125 41.21875 
L 6.296875 41.21875 
C 10 41.21875 10.59375 40.515625 10.59375 36.203125 
L 10.59375 12.296875 
L 10.59375 8.296875 
C 10.59375 4.296875 9.5 3.59375 3.09375 3.59375 
L 2.703125 3.59375 
L 2.703125 0 
L 28 0 
L 28 3.59375 
L 27.59375 3.59375 
C 21.09375 3.59375 20 4.296875 20 8.28125 
L 20 12.28125 
L 20 22.65625 
C 20 27.546875 20.703125 32.03125 21.796875 34.328125 
C 23.90625 38.828125 28.40625 41.921875 32.703125 41.921875 
C 35.296875 41.921875 38.296875 40.421875 39.796875 38.421875 
C 41.296875 36.328125 42 33.234375 42 28.4375 
L 42 12.28125 
L 42 8.28125 
C 42 4.296875 40.90625 3.59375 34.40625 3.59375 
L 34 3.59375 
L 34 0 
L 59.296875 0 
L 59.296875 3.59375 
L 58.90625 3.59375 
C 52.5 3.59375 51.40625 4.296875 51.40625 8.28125 
L 51.40625 12.28125 
L 51.40625 27.953125 
C 51.40625 35.125 51.09375 36.921875 49.296875 40.328125 
C 46.796875 45.109375 41.703125 48 35.796875 48 
C 29.40625 48 24.40625 45.046875 20 38.515625 
z
" id="Century_Schoolbook_L_Roman-110"/>
      <path d="M 38 0 
L 55.40625 0 
L 55.40625 4.703125 
L 53.59375 4.703125 
C 48.203125 4.703125 47.40625 5.703125 47.40625 11.96875 
L 47.40625 73.78125 
L 27.796875 73.78125 
L 27.796875 69 
L 33.703125 69 
C 37.296875 69 38 68.28125 38 63.921875 
L 38 41 
C 34.296875 46.09375 30 48.390625 24.203125 48.390625 
C 12.90625 48.390625 4.296875 37.546875 4.296875 23.203125 
C 4.296875 9.0625 12.59375 -1 24.203125 -1 
C 30.5 -1 34.796875 1.671875 38 7.59375 
z
M 26.203125 43 
C 30.296875 43 34.203125 40.03125 36 35.4375 
C 37.203125 32.453125 37.90625 28.28125 37.90625 23.515625 
C 37.90625 11.96875 33.296875 4.390625 26.09375 4.390625 
C 19.09375 4.390625 14.796875 10.96875 14.796875 22.015625 
C 14.796875 27.890625 15.40625 32.359375 16.703125 35.734375 
C 18.40625 40.125 22.09375 43 26.203125 43 
z
" id="Century_Schoolbook_L_Roman-100"/>
      <path d="M 20.40625 73 
L 1.90625 73 
L 1.90625 68.21875 
L 6.796875 68.21875 
C 10.40625 68.21875 11 67.515625 11 63.21875 
L 11 12.28125 
L 11 8.28125 
C 11 4.296875 9.90625 3.59375 3.5 3.59375 
L 2.796875 3.59375 
L 2.796875 0 
L 28.703125 0 
L 28.703125 3.59375 
L 28 3.59375 
C 21.5 3.59375 20.40625 4.296875 20.40625 8.25 
L 20.40625 12.21875 
z
" id="Century_Schoolbook_L_Roman-108"/>
      <path d="M 64.59375 27.328125 
L 60.203125 27.328125 
C 59.203125 20.546875 56.796875 13.765625 54.203125 10.484375 
C 51.09375 6.59375 45.296875 4.6875 36.90625 4.6875 
L 32.703125 4.6875 
C 29.703125 4.6875 27.203125 5.296875 26.296875 6.1875 
C 25.59375 6.78125 25.5 7.390625 25.5 9.484375 
L 25.5 59.734375 
L 25.5 62.609375 
C 25.5 66.8125 26.40625 67.3125 34.5 67.3125 
L 36.296875 67.3125 
L 36.296875 72 
L 3.5 72 
L 3.5 67.3125 
L 5.296875 67.3125 
C 13.40625 67.3125 14.296875 66.8125 14.296875 62.609375 
L 14.296875 59.734375 
L 14.296875 12.28125 
L 14.296875 9.375 
C 14.296875 5.1875 13.40625 4.6875 5.296875 4.6875 
L 3.5 4.6875 
L 3.5 0 
L 62.5 0 
z
" id="Century_Schoolbook_L_Roman-76"/>
      <path d="M 25.203125 48.28125 
C 13 48.28125 3.40625 37.453125 3.40625 23.546875 
C 3.40625 9.9375 13 -1 25 -1 
C 37 -1 46.59375 9.9375 46.59375 23.640625 
C 46.59375 37.25 37 48.28125 25.203125 48.28125 
z
M 25.203125 44 
C 32.203125 44 36.09375 36.75 36.09375 23.640625 
C 36.09375 10.453125 32.203125 3.296875 25 3.296875 
C 17.796875 3.296875 13.90625 10.453125 13.90625 23.546875 
C 13.90625 37.046875 17.703125 44 25.203125 44 
z
" id="Century_Schoolbook_L_Roman-111"/>
      <path d="M 45.203125 32.578125 
C 45.203125 38.796875 44.09375 41.96875 41.203125 44.34375 
C 37.90625 46.90625 33 48.28125 26.59375 48.28125 
C 15.40625 48.28125 7.09375 43.046875 7.09375 35.921875 
C 7.09375 32.15625 9.40625 29.78125 12.90625 29.78125 
C 16 29.78125 18.296875 31.859375 18.296875 34.8125 
C 18.296875 36.109375 17.796875 37.484375 16.796875 38.875 
C 16.203125 39.546875 16.09375 39.84375 16.09375 40.15625 
C 16.09375 42.21875 20.203125 44 25 44 
C 28.09375 44 31.59375 43.015625 33.203125 41.53125 
C 35.09375 39.953125 35.796875 37.578125 35.796875 33.125 
L 35.796875 29.28125 
C 25.296875 27.484375 22.09375 26.6875 17.203125 24.8125 
C 8.59375 21.609375 4.40625 16.9375 4.40625 10.65625 
C 4.40625 3.578125 10.09375 -1 18.90625 -1 
C 25.796875 -1 32 1.859375 36.296875 7.0625 
C 37.90625 1.984375 40.40625 0 45.09375 0 
C 49.59375 0 54.296875 2.890625 54.296875 5.78125 
C 54.296875 6.46875 53.796875 6.96875 53.296875 6.96875 
C 52.90625 6.96875 52.5 6.875 51.796875 6.578125 
C 50.203125 6 49.796875 5.890625 49 5.890625 
C 46.203125 5.890625 45.203125 7.78125 45.203125 12.71875 
z
M 35.796875 20.46875 
C 35.796875 14.46875 35.5 13.078125 33.796875 10.484375 
C 31.296875 6.78125 26.703125 4.296875 22.40625 4.296875 
C 17.90625 4.296875 14.5 7.59375 14.5 12.078125 
C 14.5 16.265625 16.59375 19.265625 21 21.359375 
C 24.09375 22.75 28 23.75 35.796875 25.046875 
z
" id="Century_Schoolbook_L_Roman-97"/>
     </defs>
     <g transform="translate(25.33795 177.5455)rotate(-90)scale(0.18 -0.18)">
      <use transform="translate(0 -1.570628)scale(0.996264)" xlink:href="#Century_Schoolbook_L_Roman-83"/>
      <use transform="translate(62.763979 -1.570628)scale(0.996264)" xlink:href="#Century_Schoolbook_L_Roman-112"/>
      <use transform="translate(119.949466 -1.570628)scale(0.996264)" xlink:href="#Century_Schoolbook_L_Roman-105"/>
      <use transform="translate(151.330779 -1.570628)scale(0.996264)" xlink:href="#Century_Schoolbook_L_Roman-110"/>
      <use transform="translate(212.20241 -1.570628)scale(0.996264)" xlink:href="#Century_Schoolbook_L_Roman-100"/>
      <use transform="translate(269.387897 -1.570628)scale(0.996264)" xlink:href="#Century_Schoolbook_L_Roman-108"/>
      <use transform="translate(300.76921 -1.570628)scale(0.996264)" xlink:href="#Century_Schoolbook_L_Roman-101"/>
      <use transform="translate(378.27758 -1.570628)scale(0.996264)" xlink:href="#Century_Schoolbook_L_Roman-76"/>
      <use transform="translate(444.727611 -1.570628)scale(0.996264)" xlink:href="#Century_Schoolbook_L_Roman-111"/>
      <use transform="translate(494.540812 -1.570628)scale(0.996264)" xlink:href="#Century_Schoolbook_L_Roman-97"/>
      <use transform="translate(549.932489 -1.570628)scale(0.996264)" xlink:href="#Century_Schoolbook_L_Roman-100"/>
     </g>
    </g>
   </g>
   <g id="line2d_9">
    <path clip-path="url(#pe209d6077e)" d="M 65.7932 230.88 
L 66.672018 230.88 
L 66.871749 175.356653 
L 67.07148 175.356653 
L 67.231265 86.64 
L 69.028846 86.64 
L 69.148685 95.69272 
L 69.388363 95.69272 
L 69.548148 176.563682 
L 69.787825 176.563682 
L 69.907664 218.809707 
L 70.147341 218.809707 
L 70.307126 228.465941 
L 70.90632 228.465941 
L 71.026159 227.258912 
L 71.345729 227.258912 
L 71.465568 226.051883 
L 72.783794 226.051883 
L 73.023472 225.448368 
L 73.582719 225.448368 
L 73.742504 226.051883 
L 74.381644 226.051883 
L 74.541429 225.448368 
L 75.140623 225.448368 
L 75.300408 224.844854 
L 75.500139 224.844854 
L 75.659924 225.448368 
L 77.457505 225.448368 
L 77.577344 226.051883 
L 77.817022 226.051883 
L 77.976807 225.448368 
L 81.252399 225.448368 
L 81.412184 226.051883 
L 82.370894 226.051883 
L 82.530679 225.448368 
L 83.209766 225.448368 
L 83.329604 226.051883 
L 83.928798 226.051883 
L 84.088583 225.448368 
L 85.047293 225.448368 
L 85.207078 226.051883 
L 85.886165 226.051883 
L 86.006003 225.448368 
L 87.044606 225.448368 
L 87.204391 226.051883 
L 87.803585 226.051883 
L 87.96337 225.448368 
L 88.562563 225.448368 
L 88.722348 226.051883 
L 89.681059 226.051883 
L 89.840844 225.448368 
L 90.479984 225.448368 
L 90.639769 226.051883 
L 91.638425 226.051883 
L 91.758264 225.448368 
L 92.43735 225.448368 
L 92.557189 226.051883 
L 93.555845 226.051883 
L 93.71563 225.448368 
L 94.314824 225.448368 
L 94.434662 226.051883 
L 95.433319 226.051883 
L 95.553158 225.448368 
L 96.232244 225.448368 
L 96.392029 226.051883 
L 97.350739 226.051883 
L 97.510524 225.448368 
L 98.109718 225.448368 
L 98.269503 226.051883 
L 99.308105 226.051883 
L 99.427944 225.448368 
L 100.027138 225.448368 
L 100.186923 226.051883 
L 101.225525 226.051883 
L 101.38531 225.448368 
L 101.984504 225.448368 
L 102.104343 226.051883 
L 102.743483 226.051883 
L 102.863322 225.448368 
L 103.542408 225.448368 
L 103.702193 226.051883 
L 104.660903 226.051883 
L 104.820688 225.448368 
L 105.779398 225.448368 
L 105.939183 226.051883 
L 106.538377 226.051883 
L 106.698162 225.448368 
L 107.337302 225.448368 
L 107.497087 226.051883 
L 108.895206 226.051883 
L 109.054991 225.448368 
L 109.294668 225.448368 
L 109.414507 226.051883 
L 110.413163 226.051883 
L 110.533002 225.448368 
L 111.172142 225.448368 
L 111.291981 226.051883 
L 112.330583 226.051883 
L 112.490368 225.448368 
L 113.089562 225.448368 
L 113.249347 226.051883 
L 114.28795 226.051883 
L 114.407788 225.448368 
L 115.006982 225.448368 
L 115.166767 226.051883 
L 116.165423 226.051883 
L 116.285262 225.448368 
L 116.84451 225.448368 
L 117.044241 226.051883 
L 118.082843 226.051883 
L 118.242628 225.448368 
L 118.841822 225.448368 
L 118.961661 226.051883 
L 120.000264 226.051883 
L 120.160049 225.448368 
L 120.399726 225.448368 
L 120.519565 226.051883 
L 121.95763 226.051883 
L 122.077469 225.448368 
L 122.2772 225.448368 
L 122.397039 226.051883 
L 123.835104 226.051883 
L 123.954942 225.448368 
L 124.274512 225.448368 
L 124.394351 226.051883 
L 125.393008 226.051883 
L 125.512846 225.448368 
L 126.151986 225.448368 
L 126.271825 226.051883 
L 129.587364 226.051883 
L 129.707203 225.448368 
L 129.94688 225.448368 
L 130.066719 226.051883 
L 131.145268 226.051883 
L 131.265107 225.448368 
L 131.504784 225.448368 
L 131.664569 226.051883 
L 132.982795 226.051883 
L 133.14258 225.448368 
L 133.821667 225.448368 
L 133.941505 226.051883 
L 134.940162 226.051883 
L 135.06 225.448368 
L 135.739087 225.448368 
L 135.898872 226.051883 
L 136.857582 226.051883 
L 137.017367 225.448368 
L 137.616561 225.448368 
L 137.776346 226.051883 
L 142.609842 226.051883 
L 142.769627 225.448368 
L 142.969358 225.448368 
L 143.129143 226.051883 
L 144.567208 226.051883 
L 144.687047 225.448368 
L 144.846832 225.448368 
L 145.126456 226.051883 
L 146.04522 226.051883 
L 146.205005 225.448368 
L 146.404736 225.448368 
L 146.564521 226.051883 
L 151.837426 226.051883 
L 151.997211 225.448368 
L 152.236889 225.448368 
L 152.356727 226.051883 
L 156.031783 226.051883 
L 156.191568 225.448368 
L 156.471191 225.448368 
L 156.670923 226.051883 
L 163.341947 226.051883 
L 163.461785 225.448368 
L 163.701463 225.448368 
L 163.861248 226.051883 
L 165.259367 226.051883 
L 165.419152 225.448368 
L 165.658829 225.448368 
L 165.778668 226.051883 
L 172.569531 226.051883 
L 172.769262 225.448368 
L 172.929047 225.448368 
L 173.088832 226.051883 
L 176.683995 226.051883 
L 176.883726 225.448368 
L 177.123403 225.448368 
L 177.283189 226.051883 
L 182.116685 226.051883 
L 182.27647 225.448368 
L 182.516147 225.448368 
L 182.635986 226.051883 
L 188.548031 226.051883 
L 188.747763 226.655397 
L 189.067333 226.655397 
L 189.187172 226.051883 
L 197.495992 226.051883 
L 197.615831 225.448368 
L 197.855508 225.448368 
L 197.975347 226.051883 
L 222.742023 226.051883 
L 222.901808 226.655397 
L 223.181432 226.655397 
L 223.341217 226.051883 
L 241.556707 226.051883 
L 241.676546 226.655397 
L 241.916224 226.655397 
L 242.076009 226.051883 
L 243.474128 226.051883 
L 243.633913 226.655397 
L 243.833644 226.655397 
L 243.993429 226.051883 
L 248.826925 226.051883 
L 248.98671 226.655397 
L 249.226388 226.655397 
L 249.346227 226.051883 
L 253.021282 226.051883 
L 253.181067 226.655397 
L 253.460691 226.655397 
L 253.620476 226.051883 
L 260.331446 226.051883 
L 260.491231 226.655397 
L 260.770855 226.655397 
L 260.890693 226.051883 
L 262.248866 226.051883 
L 262.408651 226.655397 
L 262.648328 226.655397 
L 262.768167 226.051883 
L 269.55903 226.051883 
L 269.718815 226.655397 
L 269.958492 226.655397 
L 270.078331 226.051883 
L 273.39387 226.051883 
L 273.513709 226.655397 
L 273.753386 226.655397 
L 273.873225 226.051883 
L 277.22871 226.051883 
L 277.388495 226.655397 
L 277.628173 226.655397 
L 277.748012 226.051883 
L 280.664088 226.051883 
L 280.823873 226.655397 
L 281.423067 226.655397 
L 281.582852 226.051883 
L 282.980971 226.051883 
L 283.140756 226.655397 
L 283.380433 226.655397 
L 283.500272 226.051883 
L 288.373714 226.051883 
L 288.493553 226.655397 
L 288.733231 226.655397 
L 288.85307 226.051883 
L 290.291135 226.051883 
L 290.45092 226.655397 
L 290.650651 226.655397 
L 290.810436 226.051883 
L 294.086028 226.051883 
L 294.245813 226.655397 
L 294.485491 226.655397 
L 294.60533 226.051883 
L 301.755709 226.051883 
L 301.915494 226.655397 
L 302.155171 226.655397 
L 302.27501 226.051883 
L 303.713075 226.051883 
L 303.832914 226.655397 
L 304.072591 226.655397 
L 304.232376 226.051883 
L 307.148453 226.051883 
L 307.268292 226.655397 
L 307.907432 226.655397 
L 308.02727 226.051883 
L 311.023239 226.051883 
L 311.143078 226.655397 
L 311.342809 226.655397 
L 311.462648 226.051883 
L 314.458617 226.051883 
L 314.578456 226.655397 
L 315.177649 226.655397 
L 315.337434 226.051883 
L 316.695607 226.051883 
L 316.815446 226.655397 
L 317.135016 226.655397 
L 317.254854 226.051883 
L 317.494532 226.051883 
L 317.654317 224.844854 
L 317.893995 224.844854 
L 318.013833 224.241339 
L 318.253511 224.241339 
L 318.413296 223.637824 
L 320.170931 223.637824 
L 320.330716 224.241339 
L 321.329372 224.241339 
L 321.449211 223.637824 
L 322.128297 223.637824 
L 322.248136 224.241339 
L 323.246792 224.241339 
L 323.406577 223.637824 
L 323.606308 223.637824 
L 323.766094 224.241339 
L 329.718085 224.241339 
L 329.87787 224.844854 
L 330.556956 224.844854 
L 330.676795 224.241339 
L 331.315935 224.241339 
L 331.435774 224.844854 
L 332.43443 224.844854 
L 332.554269 224.241339 
L 332.873839 224.241339 
L 332.993678 224.844854 
L 334.35185 224.844854 
L 334.511635 224.241339 
L 334.791259 224.241339 
L 334.951044 224.844854 
L 340.903035 224.844854 
L 341.06282 225.448368 
L 342.021531 225.448368 
L 342.181316 224.844854 
L 342.780509 224.844854 
L 342.940294 225.448368 
L 343.539488 225.448368 
L 343.659327 224.844854 
L 344.697929 224.844854 
L 344.857714 225.448368 
L 350.45019 225.448368 
L 350.609975 226.051883 
L 350.849652 226.051883 
L 350.969491 225.448368 
L 352.287717 225.448368 
L 352.527395 226.051883 
L 353.206481 226.051883 
L 353.366266 225.448368 
L 353.885567 225.448368 
L 354.045352 226.051883 
L 355.083955 226.051883 
L 355.203794 225.448368 
L 355.842934 225.448368 
L 355.962772 226.051883 
L 357.001375 226.051883 
L 357.16116 225.448368 
L 357.760354 225.448368 
L 357.920139 226.051883 
L 358.958741 226.051883 
L 359.07858 225.448368 
L 359.637828 225.448368 
L 359.757666 226.051883 
L 363.113151 226.051883 
L 363.272936 225.448368 
L 363.512614 225.448368 
L 363.632453 226.051883 
L 368.426003 226.051883 
L 368.625734 225.448368 
L 368.865412 225.448368 
L 369.025197 226.051883 
L 376.934555 226.051883 
L 377.054393 226.655397 
L 377.254125 226.655397 
L 377.453856 226.051883 
L 378.851975 226.051883 
L 379.01176 226.655397 
L 379.251437 226.655397 
L 379.371276 226.051883 
L 380.809341 226.051883 
L 380.92918 226.655397 
L 381.168857 226.655397 
L 381.328642 226.051883 
L 382.726761 226.051883 
L 382.886546 226.655397 
L 383.046331 226.655397 
L 383.16617 226.051883 
L 384.604235 226.051883 
L 384.803966 226.655397 
L 384.963751 226.655397 
L 385.123536 226.051883 
L 386.162139 226.051883 
L 386.321924 226.655397 
L 386.521655 226.655397 
L 386.68144 226.051883 
L 417.48 226.051883 
L 417.48 226.051883 
" style="fill:none;stroke:#e41a1c;stroke-linecap:square;stroke-width:2;"/>
   </g>
   <g id="line2d_10">
    <path clip-path="url(#pe209d6077e)" d="M 65.7932 230.88 
L 97.430631 230.88 
L 97.590416 127.678996 
L 97.790148 127.678996 
L 98.029825 86.64 
L 99.747514 86.64 
L 99.867353 115.005188 
L 100.10703 115.005188 
L 100.266815 195.876151 
L 100.506493 195.876151 
L 100.626331 224.241339 
L 100.866009 224.241339 
L 101.025794 229.069456 
L 101.305418 229.069456 
L 101.425257 227.862427 
L 101.624988 227.862427 
L 101.744827 226.655397 
L 102.783429 226.655397 
L 102.943214 226.051883 
L 103.182892 226.051883 
L 103.30273 225.448368 
L 104.301387 225.448368 
L 104.421225 226.051883 
L 104.740795 226.051883 
L 104.860634 225.448368 
L 105.100312 225.448368 
L 105.260097 224.844854 
L 105.85929 224.844854 
L 106.019075 225.448368 
L 107.776711 225.448368 
L 107.936496 226.051883 
L 108.176173 226.051883 
L 108.296012 225.448368 
L 110.093593 225.448368 
L 110.253378 226.051883 
L 110.493056 226.051883 
L 110.612894 225.448368 
L 111.611551 225.448368 
L 111.731389 226.051883 
L 112.769992 226.051883 
L 112.929777 225.448368 
L 113.528971 225.448368 
L 113.688756 226.051883 
L 114.327896 226.051883 
L 114.487681 225.448368 
L 115.486337 225.448368 
L 115.606176 226.051883 
L 116.20537 226.051883 
L 116.365155 225.448368 
L 117.403757 225.448368 
L 117.563542 226.051883 
L 118.162736 226.051883 
L 118.282575 225.448368 
L 118.921715 225.448368 
L 119.041554 226.051883 
L 120.399726 226.051883 
L 120.559511 225.448368 
L 120.839135 225.448368 
L 120.99892 226.051883 
L 121.95763 226.051883 
L 122.117415 225.448368 
L 122.716609 225.448368 
L 122.836447 226.051883 
L 123.914996 226.051883 
L 124.034835 225.448368 
L 124.634029 225.448368 
L 124.793814 226.051883 
L 125.712578 226.051883 
L 125.912309 225.448368 
L 128.908278 225.448368 
L 129.108009 226.051883 
L 129.267794 226.051883 
L 129.387633 225.448368 
L 133.502097 225.448368 
L 133.661882 224.844854 
L 133.821667 224.844854 
L 133.981452 225.448368 
L 134.261075 225.448368 
L 134.380914 226.051883 
L 135.020054 226.051883 
L 135.139893 225.448368 
L 135.818979 225.448368 
L 135.978764 226.051883 
L 136.937474 226.051883 
L 137.097259 225.448368 
L 137.296991 225.448368 
L 137.456776 226.051883 
L 143.80823 226.051883 
L 143.968015 226.655397 
L 144.247638 226.655397 
L 144.367477 226.051883 
L 146.924037 226.051883 
L 147.083822 225.448368 
L 147.283553 225.448368 
L 147.443338 226.051883 
L 148.441995 226.051883 
L 148.561834 225.448368 
L 148.801511 225.448368 
L 148.961296 226.051883 
L 154.154309 226.051883 
L 154.314094 225.448368 
L 154.553771 225.448368 
L 154.67361 226.051883 
L 154.99318 226.051883 
L 155.113019 226.655397 
L 155.712213 226.655397 
L 155.871998 226.051883 
L 162.66286 226.051883 
L 162.782699 226.655397 
L 162.98243 226.655397 
L 163.182162 226.051883 
L 164.540334 226.051883 
L 164.660173 226.655397 
L 164.979743 226.655397 
L 165.099582 226.051883 
L 169.134153 226.051883 
L 169.293938 225.448368 
L 169.533616 225.448368 
L 169.653454 226.051883 
L 170.292594 226.127322 
L 170.692057 226.655397 
L 170.851842 226.051883 
L 172.968993 226.051883 
L 173.088832 225.448368 
L 173.408402 225.448368 
L 173.528241 226.051883 
L 175.645392 226.051883 
L 175.765231 226.655397 
L 176.444317 226.655397 
L 176.604102 226.051883 
L 177.562812 226.051883 
L 177.722597 226.655397 
L 178.401684 226.655397 
L 178.521522 226.051883 
L 179.520179 226.051883 
L 179.640017 226.655397 
L 179.879695 226.655397 
L 180.03948 226.051883 
L 181.437599 226.051883 
L 181.597384 226.655397 
L 182.196577 226.655397 
L 182.316416 226.051883 
L 183.315073 226.051883 
L 183.474858 226.655397 
L 183.754481 226.655397 
L 183.914266 226.051883 
L 185.232493 226.051883 
L 185.392278 226.655397 
L 185.631955 226.655397 
L 185.751794 226.051883 
L 186.75045 226.051883 
L 186.910235 226.655397 
L 187.509429 226.655397 
L 187.70916 226.051883 
L 189.107279 226.051883 
L 189.267064 226.655397 
L 189.426849 226.655397 
L 189.586634 226.051883 
L 190.984753 226.051883 
L 191.144538 226.655397 
L 191.384215 226.655397 
L 191.504054 226.051883 
L 193.301635 226.051883 
L 193.46142 224.241339 
L 193.661152 224.241339 
L 193.820937 221.82728 
L 194.10056 221.82728 
L 194.260345 220.620251 
L 194.42013 220.620251 
L 194.579915 220.016736 
L 194.819593 220.016736 
L 194.939432 219.413222 
L 195.618518 219.413222 
L 195.738357 218.809707 
L 195.978034 218.809707 
L 196.137819 219.413222 
L 196.377497 219.413222 
L 196.497336 220.016736 
L 197.096529 220.016736 
L 197.256314 219.413222 
L 197.935401 219.413222 
L 198.055239 220.016736 
L 198.294917 220.016736 
L 198.454702 220.620251 
L 198.654433 220.620251 
L 198.814218 220.016736 
L 199.413412 220.016736 
L 199.613143 219.413222 
L 199.812874 219.413222 
L 199.932713 220.016736 
L 201.730295 220.016736 
L 201.930026 220.620251 
L 202.84879 220.620251 
L 203.008575 220.016736 
L 203.288198 220.016736 
L 203.447983 220.620251 
L 204.047177 220.620251 
L 204.167016 221.223766 
L 205.844758 221.223766 
L 206.04449 221.82728 
L 206.36406 221.82728 
L 206.483899 221.223766 
L 207.083092 221.223766 
L 207.242877 221.82728 
L 209.399975 221.82728 
L 209.55976 222.430795 
L 210.51847 222.430795 
L 210.678255 221.82728 
L 210.917932 221.82728 
L 211.037771 222.430795 
L 215.152235 222.430795 
L 215.272074 223.03431 
L 216.350623 223.03431 
L 216.470461 222.430795 
L 216.710139 222.430795 
L 216.869924 223.03431 
L 218.947129 223.03431 
L 219.106914 223.637824 
L 219.786 223.637824 
L 219.905839 223.03431 
L 220.944442 223.03431 
L 221.104227 223.637824 
L 221.70342 223.637824 
L 221.863205 223.03431 
L 222.462399 223.03431 
L 222.582238 223.637824 
L 224.259981 223.637824 
L 224.459712 224.241339 
L 225.138798 224.241339 
L 225.258637 223.637824 
L 226.257293 223.637824 
L 226.417078 224.241339 
L 227.455681 224.241339 
L 227.575519 223.637824 
L 228.174713 223.637824 
L 228.334498 224.241339 
L 230.13208 224.241339 
L 230.251918 224.844854 
L 230.891058 224.844854 
L 231.010897 224.241339 
L 232.0495 224.241339 
L 232.209285 224.844854 
L 233.167995 224.844854 
L 233.32778 224.241339 
L 233.567457 224.241339 
L 233.687296 224.844854 
L 237.761814 224.844854 
L 237.881652 225.448368 
L 238.560739 225.448368 
L 238.680577 224.844854 
L 239.679234 224.844854 
L 239.839019 225.448368 
L 240.877621 225.448368 
L 240.99746 224.844854 
L 241.237137 224.844854 
L 241.396922 225.448368 
L 242.355633 225.448368 
L 242.515418 224.844854 
L 243.154558 224.844854 
L 243.314343 225.448368 
L 243.55402 225.448368 
L 243.673859 226.051883 
L 243.913536 226.051883 
L 244.073321 225.448368 
L 245.47144 225.448368 
L 245.631225 226.051883 
L 245.870903 226.051883 
L 246.11058 225.448368 
L 247.348914 225.448368 
L 247.508699 226.051883 
L 247.748377 226.051883 
L 247.868215 225.448368 
L 248.906818 225.448368 
L 249.066603 226.051883 
L 249.545958 226.051883 
L 249.825582 225.448368 
L 250.864184 225.448368 
L 250.984023 226.051883 
L 251.583217 226.051883 
L 251.743002 225.448368 
L 252.741658 225.448368 
L 252.861497 226.051883 
L 253.900099 226.051883 
L 254.059884 225.448368 
L 254.299562 225.448368 
L 254.419401 226.051883 
L 255.418057 226.051883 
L 255.537896 225.448368 
L 256.216982 225.448368 
L 256.376767 226.051883 
L 257.335477 226.051883 
L 257.495262 225.448368 
L 257.734939 225.448368 
L 257.854778 226.051883 
L 259.65236 226.051883 
L 259.812145 225.448368 
L 260.011876 225.448368 
L 260.171661 226.051883 
L 261.210263 226.051883 
L 261.370048 225.448368 
L 261.969242 225.448368 
L 262.168973 226.051883 
L 263.087737 226.051883 
L 263.207576 225.448368 
L 263.846716 225.448368 
L 263.966555 226.051883 
L 264.645641 226.051883 
L 264.805426 224.844854 
L 265.005157 224.844854 
L 265.164942 221.223766 
L 265.40462 221.223766 
L 265.524459 218.206192 
L 265.764136 218.206192 
L 265.923921 215.792134 
L 266.203545 215.792134 
L 266.36333 213.98159 
L 266.523115 213.98159 
L 266.642954 212.774561 
L 266.962524 212.774561 
L 267.082362 211.567531 
L 267.32204 211.567531 
L 267.481825 210.964017 
L 268.081019 210.964017 
L 268.200857 211.567531 
L 268.440535 211.567531 
L 268.60032 210.964017 
L 269.638922 210.964017 
L 269.798707 211.567531 
L 271.516396 211.567531 
L 271.636235 212.171046 
L 272.315321 212.171046 
L 272.475106 211.567531 
L 273.0743 211.567531 
L 273.194139 212.171046 
L 273.833279 212.171046 
L 274.072956 212.774561 
L 274.192795 212.774561 
L 274.35258 212.171046 
L 275.391183 212.171046 
L 275.511021 212.774561 
L 277.308603 212.774561 
L 277.468388 213.378075 
L 279.186077 213.378075 
L 279.345862 213.98159 
L 279.945055 213.98159 
L 280.064894 213.378075 
L 280.74398 213.378075 
L 280.903765 213.98159 
L 281.103497 213.98159 
L 281.263282 214.585105 
L 281.502959 214.585105 
L 281.622798 213.98159 
L 282.701347 213.98159 
L 282.821186 214.585105 
L 284.538874 214.585105 
L 284.698659 215.188619 
L 286.056832 215.188619 
L 286.176671 214.585105 
L 286.496241 214.585105 
L 286.616079 215.188619 
L 286.855757 215.188619 
L 287.015542 215.792134 
L 287.694628 215.792134 
L 287.814467 215.188619 
L 288.054144 215.188619 
L 288.173983 215.792134 
L 288.813123 215.792134 
L 288.932962 216.395649 
L 289.17264 216.395649 
L 289.332425 215.792134 
L 289.931618 215.792134 
L 290.051457 216.395649 
L 290.690597 216.395649 
L 290.810436 216.999163 
L 291.09006 216.999163 
L 291.249845 216.395649 
L 291.849038 216.395649 
L 292.008823 216.999163 
L 294.165921 216.999163 
L 294.325706 217.602678 
L 296.043395 217.602678 
L 296.163234 218.206192 
L 297.601299 218.206192 
L 297.761084 218.809707 
L 299.918181 218.809707 
L 300.03802 219.413222 
L 300.67716 219.413222 
L 300.796999 218.809707 
L 301.396193 218.809707 
L 301.555978 219.413222 
L 301.835601 219.413222 
L 301.995386 220.016736 
L 302.59458 220.016736 
L 302.754365 219.413222 
L 303.273666 219.413222 
L 303.473398 220.016736 
L 303.792968 220.016736 
L 303.912806 220.620251 
L 304.152484 220.620251 
L 304.312269 220.016736 
L 305.270979 220.016736 
L 305.430764 220.620251 
L 307.228345 220.620251 
L 307.348184 221.223766 
L 309.065873 221.223766 
L 309.225658 221.82728 
L 310.26426 221.82728 
L 310.424045 221.223766 
L 310.663723 221.223766 
L 310.863454 221.82728 
L 311.382755 221.82728 
L 311.54254 222.430795 
L 311.822164 222.430795 
L 311.981949 221.82728 
L 312.581143 221.82728 
L 312.740928 222.430795 
L 313.340122 222.430795 
L 313.459961 223.03431 
L 313.699638 223.03431 
L 313.859423 222.430795 
L 314.458617 222.430795 
L 314.578456 223.03431 
L 316.775499 223.03431 
L 316.895338 223.637824 
L 318.69292 223.637824 
L 318.852705 224.241339 
L 320.250823 224.241339 
L 320.410608 224.844854 
L 321.009802 224.844854 
L 321.129641 225.448368 
L 321.369318 225.448368 
L 321.529103 224.844854 
L 322.128297 224.844854 
L 322.288082 225.448368 
L 323.326685 225.448368 
L 323.446523 224.844854 
L 323.686201 224.844854 
L 323.845986 225.448368 
L 325.643567 225.448368 
L 325.763406 224.844854 
L 326.003084 224.844854 
L 326.122922 225.448368 
L 328.240074 225.448368 
L 328.399859 226.051883 
L 328.679482 226.051883 
L 328.839267 225.448368 
L 329.797978 225.448368 
L 329.957763 226.051883 
L 330.996365 226.051883 
L 331.116204 225.448368 
L 331.355881 225.448368 
L 331.515666 226.051883 
L 332.913785 226.051883 
L 333.07357 225.448368 
L 333.233355 225.448368 
L 333.39314 226.051883 
L 334.431743 226.051883 
L 334.551581 225.448368 
L 335.190721 225.448368 
L 335.31056 226.051883 
L 335.989647 226.051883 
L 336.109485 226.655397 
L 336.349163 226.655397 
L 336.508948 226.051883 
L 337.467658 226.051883 
L 337.627443 226.655397 
L 338.306529 226.655397 
L 338.426368 226.051883 
L 342.021531 226.051883 
L 342.181316 225.448368 
L 342.860402 225.448368 
L 342.980241 226.051883 
L 343.978897 226.051883 
L 344.098736 225.448368 
L 344.777822 225.448368 
L 344.937607 226.051883 
L 345.177284 226.051883 
L 345.297123 224.844854 
L 345.616693 224.844854 
L 345.816424 222.430795 
L 345.896317 222.430795 
L 346.056102 219.413222 
L 346.335726 219.413222 
L 346.495511 216.999163 
L 346.655296 216.999163 
L 346.815081 214.585105 
L 347.094704 214.585105 
L 347.25449 212.774561 
L 347.454221 212.774561 
L 347.614006 210.964017 
L 347.853683 210.964017 
L 348.053415 209.756987 
L 348.2132 209.756987 
L 348.372985 208.549958 
L 349.731157 208.549958 
L 349.930888 207.946444 
L 350.170566 207.946444 
L 350.290405 208.549958 
L 350.530082 208.549958 
L 350.689867 209.153473 
L 351.648577 209.153473 
L 351.808362 208.549958 
L 352.008093 208.549958 
L 352.167878 209.153473 
L 352.407556 209.153473 
L 352.607287 209.756987 
L 353.206481 209.756987 
L 353.366266 209.153473 
L 353.96546 209.153473 
L 354.085299 209.756987 
L 354.764385 209.756987 
L 354.92417 210.360502 
L 355.083955 210.360502 
L 355.24374 209.756987 
L 355.88288 209.756987 
L 356.042665 210.360502 
L 357.760354 210.360502 
L 357.920139 210.964017 
L 359.757666 210.964017 
L 359.917451 211.567531 
L 361.595194 211.567531 
L 361.834871 212.171046 
L 363.592506 212.171046 
L 363.712345 212.774561 
L 365.869443 212.774561 
L 366.029228 213.378075 
L 367.3874 213.378075 
L 367.507239 213.98159 
L 369.30482 213.98159 
L 369.464605 214.585105 
L 371.262187 214.585105 
L 371.382026 215.188619 
L 373.139661 215.188619 
L 373.259499 215.792134 
L 373.938586 215.792134 
L 374.058424 215.188619 
L 374.298102 215.188619 
L 374.457887 215.792134 
L 375.057081 215.792134 
L 375.216866 216.395649 
L 376.614985 216.395649 
L 376.77477 216.999163 
L 378.851975 216.999163 
L 379.01176 217.602678 
L 380.809341 217.602678 
L 380.92918 218.206192 
L 381.967782 218.206192 
L 382.127567 217.602678 
L 382.367245 217.602678 
L 382.487084 218.206192 
L 383.126224 218.206192 
L 383.246062 218.809707 
L 383.48574 218.809707 
L 383.645525 218.206192 
L 384.244719 218.206192 
L 384.364557 218.809707 
L 384.684127 218.809707 
L 384.803966 219.413222 
L 384.963751 219.413222 
L 385.203429 218.809707 
L 386.242031 218.809707 
L 386.36187 219.413222 
L 386.561601 219.413222 
L 386.68144 220.016736 
L 386.961064 220.016736 
L 387.120849 219.413222 
L 387.720042 219.413222 
L 387.879827 220.016736 
L 388.479021 220.016736 
L 388.638806 220.620251 
L 388.838538 220.620251 
L 388.998323 220.016736 
L 389.677409 220.016736 
L 389.87714 220.620251 
L 391.554883 220.620251 
L 391.674721 221.223766 
L 393.791873 221.223766 
L 394.03155 221.82728 
L 395.389723 221.82728 
L 395.549508 222.430795 
L 397.706605 222.430795 
L 397.86639 223.03431 
L 399.584079 223.03431 
L 399.743864 223.637824 
L 400.343058 223.637824 
L 400.462897 223.03431 
L 401.141983 223.03431 
L 401.301768 223.637824 
L 401.541446 223.637824 
L 401.661284 224.241339 
L 402.340371 224.241339 
L 402.460209 223.637824 
L 402.699887 223.637824 
L 402.859672 224.241339 
L 403.099349 224.241339 
L 403.219188 224.844854 
L 405.376286 224.844854 
L 405.536071 225.448368 
L 406.135265 225.448368 
L 406.29505 224.844854 
L 406.894243 224.844854 
L 407.014082 225.448368 
L 410.76903 225.448368 
L 410.888868 226.051883 
L 411.887525 226.051883 
L 412.007364 225.448368 
L 412.207095 225.448368 
L 412.406826 226.051883 
L 416.52129 226.051883 
L 416.641129 226.655397 
L 416.880806 226.655397 
L 417.000645 226.051883 
L 417.48 226.051883 
L 417.48 226.051883 
" style="fill:none;stroke:#377eb8;stroke-dasharray:7.4,3.2;stroke-dashoffset:0;stroke-linecap:round;stroke-width:2;"/>
   </g>
   <g id="patch_3">
    <path d="M 65.7932 230.88 
L 65.7932 14.52 
" style="fill:none;stroke:#000000;stroke-linecap:square;stroke-linejoin:miter;stroke-width:0.8;"/>
   </g>
   <g id="patch_4">
    <path d="M 417.48 230.88 
L 417.48 14.52 
" style="fill:none;"/>
   </g>
   <g id="patch_5">
    <path d="M 65.7932 230.88 
L 417.48 230.88 
" style="fill:none;stroke:#000000;stroke-linecap:square;stroke-linejoin:miter;stroke-width:0.8;"/>
   </g>
   <g id="patch_6">
    <path d="M 65.7932 14.52 
L 417.48 14.52 
" style="fill:none;"/>
   </g>
   <g id="legend_1">
    <g id="patch_7">
     <path d="M 138.60155 44.05585 
L 412.68 44.05585 
Q 415.88 44.05585 415.88 40.85585 
L 415.88 19.32 
Q 415.88 16.12 412.68 16.12 
L 138.60155 16.12 
Q 135.40155 16.12 135.40155 19.32 
L 135.40155 40.85585 
Q 135.40155 44.05585 138.60155 44.05585 
z
" style="fill:#ffffff;stroke:#000000;stroke-linejoin:miter;"/>
    </g>
    <g id="line2d_11">
     <path d="M 141.80155 28.77596 
L 173.80155 28.77596 
" style="fill:none;stroke:#e41a1c;stroke-linecap:square;stroke-width:2;"/>
    </g>
    <g id="line2d_12"/>
    <g id="text_11">
     <!-- Not Cutting -->
     <defs>
      <path d="M 22.5 72 
L 1.90625 72 
L 1.90625 67.3125 
L 4.40625 67.3125 
C 9.5 67.3125 11.796875 66.5 13.59375 64.015625 
L 13.59375 21.5 
C 13.59375 7.78125 11.59375 4.890625 2 4.890625 
L 2 0 
L 30.5 0 
L 30.5 4.890625 
C 21 4.890625 19 7.796875 19 21.5 
L 19 58.640625 
L 63.59375 -1.6875 
L 67.796875 -1.6875 
L 67.796875 50.59375 
C 67.796875 64.390625 69.796875 67.3125 79.40625 67.3125 
L 79.40625 72 
L 50.90625 72 
L 50.90625 67.3125 
C 60.40625 67.3125 62.40625 64.40625 62.40625 50.625 
L 62.40625 19.046875 
z
" id="Century_Schoolbook_L_Roman-78"/>
      <path d="M 19.40625 47 
L 19.40625 67 
L 15.296875 67 
C 14.296875 53.875 9.90625 47.1875 1.796875 46.59375 
L 1.796875 42.703125 
L 10 42.703125 
L 10 17.265625 
C 10 10.28125 10.203125 7.78125 11.203125 5.484375 
C 12.796875 1.296875 16.796875 -1 22.59375 -1 
C 26.5 -1 29.90625 0.203125 32.203125 2.390625 
C 35.5 5.59375 37.40625 10.875 37.40625 16.375 
C 37.40625 16.96875 37.40625 17.671875 37.296875 18.671875 
L 33.09375 18.671875 
C 32.796875 9.6875 30.203125 5.09375 25.296875 5.09375 
C 23 5.09375 21 6.28125 20.296875 7.984375 
C 19.703125 9.375 19.40625 11.875 19.40625 15.46875 
L 19.40625 42.703125 
L 34.09375 42.703125 
L 34.09375 47 
z
" id="Century_Schoolbook_L_Roman-116"/>
      <path d="M 63.90625 72 
L 60.09375 72 
L 56.09375 66.015625 
C 49 71.203125 45.09375 72.703125 38.40625 72.703125 
C 28.703125 72.703125 20.703125 68.8125 13.90625 60.78125 
C 7.5 53.234375 4.5 44.890625 4.5 34.65625 
C 4.5 13.296875 18.59375 -2 38.296875 -2 
C 54.296875 -2 64.5 7.34375 66.796875 24.015625 
L 62.09375 24.8125 
C 61.09375 19.546875 59.90625 15.984375 58.09375 13.015625 
C 54 6.171875 47.59375 2.6875 39.5 2.6875 
C 24.703125 2.6875 17.703125 12.90625 17.703125 34.265625 
C 17.703125 45.46875 19.203125 53.015625 22.59375 58.96875 
C 25.703125 64.53125 31.90625 68 38.296875 68 
C 45.296875 68 51.5 64.328125 55.296875 57.96875 
C 57.203125 54.6875 58.703125 50.8125 61 43.171875 
L 65.40625 43.171875 
z
" id="Century_Schoolbook_L_Roman-67"/>
      <path d="M 41.203125 0 
L 59.40625 0 
L 59.40625 4.703125 
L 56.90625 4.703125 
C 51.40625 4.703125 50.59375 5.59375 50.59375 11.953125 
L 50.59375 46.78125 
L 31.796875 46.78125 
L 31.796875 42 
L 36.90625 42 
C 40.59375 42 41.203125 41.296875 41.203125 36.953125 
L 41.203125 24.5625 
C 41.203125 18.8125 40.59375 15.484375 39.09375 12.15625 
C 37 7.71875 33 5.09375 28.09375 5.09375 
C 25 5.09375 22.40625 6.1875 21.09375 8.171875 
C 19.796875 10.046875 19.59375 11.046875 19.59375 16.5 
L 19.59375 46.78125 
L 2.09375 46.78125 
L 2.09375 42 
L 5.90625 42 
C 9.59375 42 10.203125 41.296875 10.203125 36.953125 
L 10.203125 15.21875 
C 10.203125 10.078125 10.59375 7.765625 12.09375 5.453125 
C 14.796875 1.3125 19.59375 -1 25.59375 -1 
C 32.203125 -1 36.796875 1.71875 41.203125 8.125 
z
" id="Century_Schoolbook_L_Roman-117"/>
      <path d="M 19.59375 7.59375 
C 14.09375 7.59375 13.796875 7.703125 12.59375 8.46875 
C 11.90625 8.90625 11.40625 10.109375 11.40625 11.296875 
C 11.40625 14.578125 14.09375 16 20.796875 16 
C 30.296875 16 31.796875 16.203125 35.09375 17.6875 
C 41.09375 20.359375 44.5 25.484375 44.5 31.984375 
C 44.5 35.921875 43.59375 38.390625 40.796875 41.640625 
C 42.5 43.40625 43.40625 44 44.203125 44 
C 44.703125 44 45 43.6875 45.203125 42.625 
C 45.59375 40.265625 47.203125 39 49.703125 39 
C 52.203125 39 54.203125 41.09375 54.203125 43.78125 
C 54.203125 47.1875 51.5 49.578125 47.59375 49.578125 
C 44.40625 49.578125 42.59375 48.5625 38 44.296875 
C 33.796875 47.09375 30.59375 48.078125 25.59375 48.078125 
C 13.703125 48.078125 5.90625 41.625 5.90625 31.8125 
C 5.90625 26.03125 9.09375 21.03125 14.296875 18.6875 
C 7.59375 17.15625 4.796875 14.09375 4.796875 8.46875 
C 4.796875 3.984375 6.796875 1.328125 11.5 -0.296875 
C 5.296875 -2.484375 2.296875 -5.671875 2.296875 -9.75 
C 2.296875 -16.3125 10 -20 23.40625 -20 
C 40.09375 -20 48.5 -14.71875 48.5 -4.25 
C 48.5 0.71875 46.203125 4.6875 42.5 6.1875 
C 39.90625 7.1875 36.703125 7.59375 29.796875 7.59375 
z
M 25.5 44 
C 31.796875 44 35.296875 39.671875 35.296875 32.09375 
C 35.296875 24.421875 31.5 19.78125 25.09375 19.78125 
C 18.90625 19.78125 15 24.421875 15 31.796875 
C 15 39.5625 18.796875 44 25.5 44 
z
M 24.59375 -1 
C 32.90625 -1 33.5 -1 35 -1.1875 
C 39 -1.59375 41.5 -3.78125 41.5 -6.953125 
C 41.5 -12.625 35 -15.90625 23.796875 -15.90625 
C 15.40625 -15.90625 10.59375 -13.421875 10.59375 -8.953125 
C 10.59375 -5.671875 12.40625 -3.46875 17.203125 -1 
z
" id="Century_Schoolbook_L_Roman-103"/>
     </defs>
     <g transform="translate(186.60155 34.37596)scale(0.16 -0.16)">
      <use transform="translate(0 -1.570628)scale(0.996264)" xlink:href="#Century_Schoolbook_L_Roman-78"/>
      <use transform="translate(81.194513 -1.570628)scale(0.996264)" xlink:href="#Century_Schoolbook_L_Roman-111"/>
      <use transform="translate(131.007714 -1.570628)scale(0.996264)" xlink:href="#Century_Schoolbook_L_Roman-116"/>
      <use transform="translate(197.45659 -1.570628)scale(0.996264)" xlink:href="#Century_Schoolbook_L_Roman-67"/>
      <use transform="translate(269.386575 -1.570628)scale(0.996264)" xlink:href="#Century_Schoolbook_L_Roman-117"/>
      <use transform="translate(330.258205 -1.570628)scale(0.996264)" xlink:href="#Century_Schoolbook_L_Roman-116"/>
      <use transform="translate(369.011912 -1.570628)scale(0.996264)" xlink:href="#Century_Schoolbook_L_Roman-116"/>
      <use transform="translate(407.765618 -1.570628)scale(0.996264)" xlink:href="#Century_Schoolbook_L_Roman-105"/>
      <use transform="translate(439.146931 -1.570628)scale(0.996264)" xlink:href="#Century_Schoolbook_L_Roman-110"/>
      <use transform="translate(500.018561 -1.570628)scale(0.996264)" xlink:href="#Century_Schoolbook_L_Roman-103"/>
     </g>
    </g>
    <g id="line2d_13">
     <path d="M 307.49654 28.77596 
L 339.49654 28.77596 
" style="fill:none;stroke:#377eb8;stroke-dasharray:7.4,3.2;stroke-dashoffset:0;stroke-linecap:round;stroke-width:2;"/>
    </g>
    <g id="line2d_14"/>
    <g id="text_12">
     <!-- Cutting -->
     <g transform="translate(352.29654 34.37596)scale(0.16 -0.16)">
      <use transform="translate(0 -1.570628)scale(0.996264)" xlink:href="#Century_Schoolbook_L_Roman-67"/>
      <use transform="translate(71.929985 -1.570628)scale(0.996264)" xlink:href="#Century_Schoolbook_L_Roman-117"/>
      <use transform="translate(132.801616 -1.570628)scale(0.996264)" xlink:href="#Century_Schoolbook_L_Roman-116"/>
      <use transform="translate(171.555322 -1.570628)scale(0.996264)" xlink:href="#Century_Schoolbook_L_Roman-116"/>
      <use transform="translate(210.309028 -1.570628)scale(0.996264)" xlink:href="#Century_Schoolbook_L_Roman-105"/>
      <use transform="translate(241.690341 -1.570628)scale(0.996264)" xlink:href="#Century_Schoolbook_L_Roman-110"/>
      <use transform="translate(302.561972 -1.570628)scale(0.996264)" xlink:href="#Century_Schoolbook_L_Roman-103"/>
     </g>
    </g>
   </g>
  </g>
 </g>
 <defs>
  <clipPath id="pe209d6077e">
   <rect height="216.36" width="351.6868" x="65.7932" y="14.52"/>
  </clipPath>
 </defs>
</svg>
