<?xml version="1.0" encoding="utf-8" standalone="no"?>
<!DOCTYPE svg PUBLIC "-//W3C//DTD SVG 1.1//EN"
  "http://www.w3.org/Graphics/SVG/1.1/DTD/svg11.dtd">
<!-- Created with matplotlib (https://matplotlib.org/) -->
<svg height="288pt" version="1.1" viewBox="0 0 432 288" width="432pt" xmlns="http://www.w3.org/2000/svg" xmlns:xlink="http://www.w3.org/1999/xlink">
 <defs>
  <style type="text/css">
*{stroke-linecap:butt;stroke-linejoin:round;}
  </style>
 </defs>
 <g id="figure_1">
  <g id="patch_1">
   <path d="M 0 288 
L 432 288 
L 432 0 
L 0 0 
z
" style="fill:#ffffff;"/>
  </g>
  <g id="axes_1">
   <g id="patch_2">
    <path d="M 71.0703 230.88 
L 417.48 230.88 
L 417.48 14.52 
L 71.0703 14.52 
z
" style="fill:#ffffff;"/>
   </g>
   <g id="matplotlib.axis_1">
    <g id="xtick_1">
     <g id="line2d_1">
      <defs>
       <path d="M 0 0 
L 0 3.5 
" id="m880513c716" style="stroke:#000000;stroke-width:0.8;"/>
      </defs>
      <g>
       <use style="stroke:#000000;stroke-width:0.8;" x="149.764007" xlink:href="#m880513c716" y="230.88"/>
      </g>
     </g>
     <g id="text_1">
      <!-- $20$ -->
      <defs>
       <path d="M 41.703125 15.453125 
L 39.90625 15.453125 
C 38.90625 8.375 38.09375 7.171875 37.703125 6.5625 
C 37.203125 5.765625 30 5.765625 28.59375 5.765625 
L 9.40625 5.765625 
C 13 9.671875 20 16.75 28.5 24.953125 
C 34.59375 30.734375 41.703125 37.53125 41.703125 47.421875 
C 41.703125 59.21875 32.296875 66 21.796875 66 
C 10.796875 66 4.09375 56.3125 4.09375 47.34375 
C 4.09375 43.4375 7 42.9375 8.203125 42.9375 
C 9.203125 42.9375 12.203125 43.546875 12.203125 47.03125 
C 12.203125 50.109375 9.59375 51 8.203125 51 
C 7.59375 51 7 50.90625 6.59375 50.703125 
C 8.5 59.21875 14.296875 63.40625 20.40625 63.40625 
C 29.09375 63.40625 34.796875 56.515625 34.796875 47.421875 
C 34.796875 38.734375 29.703125 31.25 24 24.75 
L 4.09375 2.28125 
L 4.09375 0 
L 39.296875 0 
z
" id="CMR17-50"/>
       <path d="M 42 31.640625 
C 42 37.75 41.90625 48.125 37.703125 56.109375 
C 34 63.109375 28.09375 65.59375 22.90625 65.59375 
C 18.09375 65.59375 12 63.40625 8.203125 56.203125 
C 4.203125 48.71875 3.796875 39.4375 3.796875 31.640625 
C 3.796875 25.953125 3.90625 17.28125 7 9.671875 
C 11.296875 -0.609375 19 -2 22.90625 -2 
C 27.5 -2 34.5 -0.109375 38.59375 9.375 
C 41.59375 16.28125 42 24.359375 42 31.640625 
z
M 22.90625 -0.40625 
C 16.5 -0.40625 12.703125 5.078125 11.296875 12.6875 
C 10.203125 18.5625 10.203125 27.15625 10.203125 32.75 
C 10.203125 40.4375 10.203125 46.828125 11.5 52.921875 
C 13.40625 61.390625 19 64 22.90625 64 
C 27 64 32.296875 61.296875 34.203125 53.125 
C 35.5 47.4375 35.59375 40.734375 35.59375 32.75 
C 35.59375 26.25 35.59375 18.265625 34.40625 12.375 
C 32.296875 1.484375 26.40625 -0.40625 22.90625 -0.40625 
z
" id="CMR17-48"/>
      </defs>
      <g transform="translate(141.508882 251.21795)scale(0.18 -0.18)">
       <use transform="scale(0.996264)" xlink:href="#CMR17-50"/>
       <use transform="translate(45.690477 0)scale(0.996264)" xlink:href="#CMR17-48"/>
      </g>
     </g>
    </g>
    <g id="xtick_2">
     <g id="line2d_2">
      <g>
       <use style="stroke:#000000;stroke-width:0.8;" x="228.457715" xlink:href="#m880513c716" y="230.88"/>
      </g>
     </g>
     <g id="text_2">
      <!-- $40$ -->
      <defs>
       <path d="M 33.59375 64.40625 
C 33.59375 66.5 33.5 66.5 31.703125 66.5 
L 2 19.59375 
L 2 17 
L 27.796875 17 
L 27.796875 7.140625 
C 27.796875 3.5 27.59375 2.5 20.59375 2.5 
L 18.703125 2.5 
L 18.703125 0 
C 21.90625 0 27.296875 0 30.703125 0 
C 34.09375 0 39.5 0 42.703125 0 
L 42.703125 2.5 
L 40.796875 2.5 
C 33.796875 2.5 33.59375 3.5 33.59375 7.140625 
L 33.59375 17 
L 43.796875 17 
L 43.796875 19.59375 
L 33.59375 19.59375 
z
M 28.09375 57.859375 
L 28.09375 19.59375 
L 4 19.59375 
z
" id="CMR17-52"/>
      </defs>
      <g transform="translate(220.20259 251.21795)scale(0.18 -0.18)">
       <use transform="scale(0.996264)" xlink:href="#CMR17-52"/>
       <use transform="translate(45.690477 0)scale(0.996264)" xlink:href="#CMR17-48"/>
      </g>
     </g>
    </g>
    <g id="xtick_3">
     <g id="line2d_3">
      <g>
       <use style="stroke:#000000;stroke-width:0.8;" x="307.151422" xlink:href="#m880513c716" y="230.88"/>
      </g>
     </g>
     <g id="text_3">
      <!-- $60$ -->
      <defs>
       <path d="M 10.59375 34 
C 10.59375 57.65625 21.796875 63 28.296875 63 
C 30.40625 63 35.5 62.640625 37.5 59 
C 35.90625 59 32.90625 59 32.90625 55.515625 
C 32.90625 52.828125 35.09375 51.921875 36.5 51.921875 
C 37.40625 51.921875 40.09375 52.3125 40.09375 55.625 
C 40.09375 61.78125 35.09375 65.296875 28.203125 65.296875 
C 16.296875 65.296875 3.796875 52.96875 3.796875 31 
C 3.796875 3.953125 15.09375 -2 23.09375 -2 
C 32.796875 -2 42 6.671875 42 20.046875 
C 42 32.515625 33.90625 41.59375 23.703125 41.59375 
C 17.59375 41.59375 13.09375 37.609375 10.59375 30.625 
z
M 23.09375 0.390625 
C 10.796875 0.390625 10.796875 18.75 10.796875 22.4375 
C 10.796875 29.625 14.203125 40 23.5 40 
C 25.203125 40 30.09375 40 33.40625 33.125 
C 35.203125 29.21875 35.203125 25.140625 35.203125 20.140625 
C 35.203125 14.75 35.203125 10.78125 33.09375 6.78125 
C 30.90625 2.671875 27.703125 0.390625 23.09375 0.390625 
z
" id="CMR17-54"/>
      </defs>
      <g transform="translate(298.896297 251.21795)scale(0.18 -0.18)">
       <use transform="scale(0.996264)" xlink:href="#CMR17-54"/>
       <use transform="translate(45.690477 0)scale(0.996264)" xlink:href="#CMR17-48"/>
      </g>
     </g>
    </g>
    <g id="xtick_4">
     <g id="line2d_4">
      <g>
       <use style="stroke:#000000;stroke-width:0.8;" x="385.84513" xlink:href="#m880513c716" y="230.88"/>
      </g>
     </g>
     <g id="text_4">
      <!-- $80$ -->
      <defs>
       <path d="M 27.203125 35.375 
C 33.5 38.546875 39.90625 43.328125 39.90625 50.984375 
C 39.90625 60.015625 31.09375 65.296875 23 65.296875 
C 13.90625 65.296875 5.90625 58.734375 5.90625 49.6875 
C 5.90625 47.203125 6.5 42.921875 10.40625 39.140625 
C 11.40625 38.15625 15.59375 35.171875 18.296875 33.28125 
C 13.796875 30.984375 3.296875 25.53125 3.296875 14.59375 
C 3.296875 4.359375 13.09375 -2 22.796875 -2 
C 33.5 -2 42.5 5.65625 42.5 15.78125 
C 42.5 24.84375 36.40625 29.015625 32.40625 31.703125 
z
M 14.09375 44.09375 
C 13.296875 44.59375 9.296875 47.671875 9.296875 52.359375 
C 9.296875 58.421875 15.59375 63 22.796875 63 
C 30.703125 63 36.5 57.4375 36.5 50.96875 
C 36.5 41.703125 26.09375 36.421875 25.59375 36.421875 
C 25.5 36.421875 25.40625 36.421875 24.59375 37.03125 
z
M 32.5 23.734375 
C 34 22.640625 38.796875 19.375 38.796875 13.296875 
C 38.796875 5.953125 31.40625 0.390625 23 0.390625 
C 13.90625 0.390625 7 6.84375 7 14.6875 
C 7 22.546875 13.09375 29.09375 20 32.1875 
z
" id="CMR17-56"/>
      </defs>
      <g transform="translate(377.590005 251.21795)scale(0.18 -0.18)">
       <use transform="scale(0.996264)" xlink:href="#CMR17-56"/>
       <use transform="translate(45.690477 0)scale(0.996264)" xlink:href="#CMR17-48"/>
      </g>
     </g>
    </g>
    <g id="text_5">
     <!-- Time -->
     <defs>
      <path d="M 63.296875 72 
L 3.40625 72 
L 1.90625 44.265625 
L 6.203125 44.265625 
C 6.90625 49.25 7.796875 53.046875 8.90625 56.234375 
C 11.5 63.515625 16.296875 67.3125 23.09375 67.3125 
C 26.40625 67.3125 27.796875 66.203125 27.796875 63.71875 
L 27.796875 12.28125 
L 27.796875 9.375 
C 27.796875 5.1875 26.90625 4.6875 18.796875 4.6875 
L 16.203125 4.6875 
L 16.203125 0 
L 50.5 0 
L 50.5 4.6875 
L 47.90625 4.6875 
C 39.90625 4.6875 39 5.1875 39 9.375 
L 39 12.28125 
L 39 63.71875 
C 39 66.203125 40.40625 67.3125 43.703125 67.3125 
C 49.796875 67.3125 54.703125 63.90625 57.203125 57.921875 
C 58.703125 54.25 59.703125 49.953125 60.5 44.265625 
L 64.796875 44.265625 
z
" id="Century_Schoolbook_L_Roman-84"/>
      <path d="M 20.59375 46 
L 1.796875 46 
L 1.796875 41.21875 
L 6.90625 41.21875 
C 10.59375 41.21875 11.203125 40.515625 11.203125 36.203125 
L 11.203125 12.296875 
L 11.203125 8.296875 
C 11.203125 4.296875 10.09375 3.59375 3.703125 3.59375 
L 3 3.59375 
L 3 0 
L 28.90625 0 
L 28.90625 3.59375 
L 28.203125 3.59375 
C 21.703125 3.59375 20.59375 4.28125 20.59375 8.21875 
L 20.59375 12.171875 
z
M 15.90625 71.578125 
C 12.703125 71.578125 10.09375 68.984375 10.09375 65.796875 
C 10.09375 62.703125 12.703125 60 15.796875 60 
C 19.09375 60 21.703125 62.59375 21.703125 65.796875 
C 21.703125 68.984375 19.09375 71.578125 15.90625 71.578125 
z
" id="Century_Schoolbook_L_Roman-105"/>
      <path d="M 20.09375 46 
L 2.296875 46 
L 2.296875 41.21875 
L 6.40625 41.21875 
C 10.09375 41.21875 10.703125 40.515625 10.703125 36.203125 
L 10.703125 12.296875 
L 10.703125 8.40625 
C 10.703125 4.296875 9.59375 3.59375 3.203125 3.59375 
L 2.796875 3.59375 
L 2.796875 0 
L 28 0 
L 28 3.59375 
L 27.59375 3.59375 
C 21.203125 3.59375 20.09375 4.296875 20.09375 8.390625 
L 20.09375 12.28125 
L 20.09375 26.453125 
C 20.09375 35.328125 25 41.921875 31.5 41.921875 
C 34.09375 41.921875 36.90625 40.515625 38.09375 38.625 
C 39.5 36.734375 40.09375 33.828125 40.09375 29.734375 
L 40.09375 12.28125 
L 40.09375 8.28125 
C 40.09375 4.296875 39 3.59375 32.5 3.59375 
L 32.09375 3.59375 
L 32.09375 0 
L 57.40625 0 
L 57.40625 3.59375 
L 57 3.59375 
C 50.59375 3.59375 49.5 4.296875 49.5 8.28125 
L 49.5 12.28125 
L 49.5 25.546875 
C 49.5 35.53125 54 41.921875 61 41.921875 
C 64.296875 41.921875 67 40.015625 68.296875 36.921875 
C 69.203125 34.734375 69.5 32.53125 69.5 28.640625 
L 69.5 12.28125 
L 69.5 8.28125 
C 69.5 4.296875 68.40625 3.59375 61.90625 3.59375 
L 61.5 3.59375 
L 61.5 0 
L 86.796875 0 
L 86.796875 3.59375 
L 86.40625 3.59375 
C 80 3.59375 78.90625 4.296875 78.90625 8.390625 
L 78.90625 12.28125 
L 78.90625 30.640625 
C 78.90625 36.828125 78.296875 38.921875 75.703125 42.3125 
C 72.796875 46.015625 68.703125 48 63.90625 48 
C 57.40625 48 52.59375 44.9375 48.296875 38.109375 
C 46.59375 44.046875 41.203125 48 34.5 48 
C 28.5 48 24 45.140625 20.09375 38.921875 
z
" id="Century_Schoolbook_L_Roman-109"/>
      <path d="M 46.5 23 
C 46.59375 37.8125 38.09375 48.28125 25.90625 48.28125 
C 13.09375 48.28125 3.5 37.25 3.5 22.34375 
C 3.5 8.4375 12.59375 -1 26.09375 -1 
C 35.59375 -1 42.40625 3.6875 46.5 13.1875 
L 43 15.09375 
C 38.90625 7.390625 34.703125 4.390625 28 4.390625 
C 22.90625 4.390625 19.203125 6.59375 16.59375 11 
C 14.796875 14 14 17.5 14.09375 23 
z
M 14.203125 27.296875 
C 14.203125 30.34375 14.59375 32.5 15.59375 35.25 
C 17.703125 41.140625 20.90625 44 25.703125 44 
C 31.796875 44 35.796875 38.78125 35.796875 30.921875 
C 35.796875 28.078125 34.90625 27.296875 31.703125 27.296875 
z
" id="Century_Schoolbook_L_Roman-101"/>
     </defs>
     <g transform="translate(222.936405 273.24577)scale(0.18 -0.18)">
      <use transform="translate(0 0.343476)scale(0.996264)" xlink:href="#Century_Schoolbook_L_Roman-84"/>
      <use transform="translate(66.450031 0.343476)scale(0.996264)" xlink:href="#Century_Schoolbook_L_Roman-105"/>
      <use transform="translate(97.831344 0.343476)scale(0.996264)" xlink:href="#Century_Schoolbook_L_Roman-109"/>
      <use transform="translate(186.398251 0.343476)scale(0.996264)" xlink:href="#Century_Schoolbook_L_Roman-101"/>
     </g>
    </g>
   </g>
   <g id="matplotlib.axis_2">
    <g id="ytick_1">
     <g id="line2d_5">
      <defs>
       <path d="M 0 0 
L -3.5 0 
" id="m40bec5053c" style="stroke:#000000;stroke-width:0.8;"/>
      </defs>
      <g>
       <use style="stroke:#000000;stroke-width:0.8;" x="71.0703" xlink:href="#m40bec5053c" y="230.88"/>
      </g>
     </g>
     <g id="text_6">
      <!-- $-50$ -->
      <defs>
       <path d="M 65.90625 23 
C 67.59375 23 69.40625 23 69.40625 25 
C 69.40625 27 67.59375 27 65.90625 27 
L 11.796875 27 
C 10.09375 27 8.296875 27 8.296875 25 
C 8.296875 23 10.09375 23 11.796875 23 
z
" id="CMSY10-0"/>
       <path d="M 11.40625 57.6875 
C 12.40625 57.28125 16.5 56 20.703125 56 
C 30 56 35.09375 61.109375 38 64.0625 
C 38 64.953125 38 65.5 37.40625 65.5 
C 37.296875 65.5 37.09375 65.5 36.296875 65.046875 
C 32.796875 63.40625 28.703125 62.078125 23.703125 62.078125 
C 20.703125 62.078125 16.203125 62.484375 11.296875 64.671875 
C 10.203125 65.171875 10 65.171875 9.90625 65.171875 
C 9.40625 65.171875 9.296875 65.0625 9.296875 63.078125 
L 9.296875 34.421875 
C 9.296875 32.640625 9.296875 32.140625 10.296875 32.140625 
C 10.796875 32.140625 11 32.34375 11.5 33.03125 
C 14.703125 37.515625 19.09375 39.40625 24.09375 39.40625 
C 27.59375 39.40625 35.09375 37.21875 35.09375 20.140625 
C 35.09375 16.953125 35.09375 11.171875 32.09375 6.578125 
C 29.59375 2.484375 25.703125 0.390625 21.40625 0.390625 
C 14.796875 0.390625 8.09375 5 6.296875 12.71875 
C 6.703125 12.609375 7.5 12.421875 7.90625 12.421875 
C 9.203125 12.421875 11.703125 13.125 11.703125 16.21875 
C 11.703125 18.90625 9.796875 20 7.90625 20 
C 5.59375 20 4.09375 18.59375 4.09375 15.796875 
C 4.09375 7.09375 11 -2 21.59375 -2 
C 31.90625 -2 41.703125 6.875 41.703125 19.75 
C 41.703125 31.71875 33.90625 41 24.203125 41 
C 19.09375 41 14.796875 39.109375 11.40625 35.53125 
z
" id="CMR17-53"/>
      </defs>
      <g transform="translate(33.56 237.548975)scale(0.18 -0.18)">
       <use transform="translate(0 -0.031134)scale(0.996264)" xlink:href="#CMSY10-0"/>
       <use transform="translate(77.487468 -0.031134)scale(0.996264)" xlink:href="#CMR17-53"/>
       <use transform="translate(123.177945 -0.031134)scale(0.996264)" xlink:href="#CMR17-48"/>
      </g>
     </g>
    </g>
    <g id="ytick_2">
     <g id="line2d_6">
      <g>
       <use style="stroke:#000000;stroke-width:0.8;" x="71.0703" xlink:href="#m40bec5053c" y="196.135653"/>
      </g>
     </g>
     <g id="text_7">
      <!-- $0$ -->
      <g transform="translate(55.81517 202.804628)scale(0.18 -0.18)">
       <use transform="scale(0.996264)" xlink:href="#CMR17-48"/>
      </g>
     </g>
    </g>
    <g id="ytick_3">
     <g id="line2d_7">
      <g>
       <use style="stroke:#000000;stroke-width:0.8;" x="71.0703" xlink:href="#m40bec5053c" y="161.391305"/>
      </g>
     </g>
     <g id="text_8">
      <!-- $50$ -->
      <g transform="translate(47.56005 168.06028)scale(0.18 -0.18)">
       <use transform="scale(0.996264)" xlink:href="#CMR17-53"/>
       <use transform="translate(45.690477 0)scale(0.996264)" xlink:href="#CMR17-48"/>
      </g>
     </g>
    </g>
    <g id="ytick_4">
     <g id="line2d_8">
      <g>
       <use style="stroke:#000000;stroke-width:0.8;" x="71.0703" xlink:href="#m40bec5053c" y="126.646958"/>
      </g>
     </g>
     <g id="text_9">
      <!-- $100$ -->
      <defs>
       <path d="M 26.59375 63.40625 
C 26.59375 65.5 26.5 65.5 25.09375 65.5 
C 21.203125 61.1875 15.296875 59.796875 9.703125 59.796875 
C 9.40625 59.796875 8.90625 59.796875 8.796875 59.5 
C 8.703125 59.296875 8.703125 59.09375 8.703125 57 
C 11.796875 57 17 57.59375 21 59.984375 
L 21 7.203125 
C 21 3.6875 20.796875 2.5 12.203125 2.5 
L 9.203125 2.5 
L 9.203125 0 
C 14 0 19 0 23.796875 0 
C 28.59375 0 33.59375 0 38.40625 0 
L 38.40625 2.5 
L 35.40625 2.5 
C 26.796875 2.5 26.59375 3.59375 26.59375 7.15625 
z
" id="CMR17-49"/>
      </defs>
      <g transform="translate(39.30492 133.315933)scale(0.18 -0.18)">
       <use transform="scale(0.996264)" xlink:href="#CMR17-49"/>
       <use transform="translate(45.690477 0)scale(0.996264)" xlink:href="#CMR17-48"/>
       <use transform="translate(91.380954 0)scale(0.996264)" xlink:href="#CMR17-48"/>
      </g>
     </g>
    </g>
    <g id="ytick_5">
     <g id="line2d_9">
      <g>
       <use style="stroke:#000000;stroke-width:0.8;" x="71.0703" xlink:href="#m40bec5053c" y="91.90261"/>
      </g>
     </g>
     <g id="text_10">
      <!-- $150$ -->
      <g transform="translate(39.30492 98.571585)scale(0.18 -0.18)">
       <use transform="scale(0.996264)" xlink:href="#CMR17-49"/>
       <use transform="translate(45.690477 0)scale(0.996264)" xlink:href="#CMR17-53"/>
       <use transform="translate(91.380954 0)scale(0.996264)" xlink:href="#CMR17-48"/>
      </g>
     </g>
    </g>
    <g id="ytick_6">
     <g id="line2d_10">
      <g>
       <use style="stroke:#000000;stroke-width:0.8;" x="71.0703" xlink:href="#m40bec5053c" y="57.158263"/>
      </g>
     </g>
     <g id="text_11">
      <!-- $200$ -->
      <g transform="translate(39.30492 63.827238)scale(0.18 -0.18)">
       <use transform="scale(0.996264)" xlink:href="#CMR17-50"/>
       <use transform="translate(45.690477 0)scale(0.996264)" xlink:href="#CMR17-48"/>
       <use transform="translate(91.380954 0)scale(0.996264)" xlink:href="#CMR17-48"/>
      </g>
     </g>
    </g>
    <g id="ytick_7">
     <g id="line2d_11">
      <g>
       <use style="stroke:#000000;stroke-width:0.8;" x="71.0703" xlink:href="#m40bec5053c" y="22.413916"/>
      </g>
     </g>
     <g id="text_12">
      <!-- $250$ -->
      <g transform="translate(39.30492 29.082891)scale(0.18 -0.18)">
       <use transform="scale(0.996264)" xlink:href="#CMR17-50"/>
       <use transform="translate(45.690477 0)scale(0.996264)" xlink:href="#CMR17-53"/>
       <use transform="translate(91.380954 0)scale(0.996264)" xlink:href="#CMR17-48"/>
      </g>
     </g>
    </g>
    <g id="text_13">
     <!-- X Coordinate -->
     <defs>
      <path d="M 38.90625 39.890625 
L 52.203125 57.9375 
C 57.796875 65.40625 60.59375 67.3125 65.90625 67.3125 
L 67.5 67.3125 
L 67.5 72 
L 40 72 
L 40 67.3125 
L 41.40625 67.3125 
C 46.203125 67.3125 48.296875 66.109375 48.296875 63.40625 
C 48.296875 62.3125 48 61.609375 46.90625 60.03125 
L 36.09375 44.375 
L 22.796875 63.515625 
C 22.09375 64.515625 21.703125 65.515625 21.703125 66.015625 
C 21.703125 67 22.703125 67.3125 26.5 67.3125 
L 30.296875 67.3125 
L 30.296875 72 
L -0.59375 72 
L -0.59375 67.3125 
L 1.09375 67.3125 
C 6 67.3125 7.203125 66.8125 9.5 63.515625 
L 29.203125 35.109375 
L 13 12.671875 
C 9.09375 7.09375 5 4.6875 -0.09375 4.6875 
L -0.5 4.6875 
L -0.5 0 
L 27.90625 0 
L 27.90625 4.6875 
L 25.40625 4.6875 
C 21.40625 4.6875 18.90625 6.484375 18.90625 9.484375 
C 18.90625 10.78125 19.5 12.359375 20.5 13.859375 
L 32.09375 30.609375 
L 47 9.40625 
C 47.796875 8.203125 48.296875 7.09375 48.296875 6.296875 
C 48.296875 4.6875 47.90625 4.6875 41.59375 4.6875 
L 38.796875 4.6875 
L 38.796875 0 
L 71.59375 0 
L 71.59375 4.6875 
L 70.40625 4.6875 
C 64 4.6875 63.296875 4.984375 59.90625 9.875 
z
" id="Century_Schoolbook_L_Roman-88"/>
      <path d="M 63.90625 72 
L 60.09375 72 
L 56.09375 66.015625 
C 49 71.203125 45.09375 72.703125 38.40625 72.703125 
C 28.703125 72.703125 20.703125 68.8125 13.90625 60.78125 
C 7.5 53.234375 4.5 44.890625 4.5 34.65625 
C 4.5 13.296875 18.59375 -2 38.296875 -2 
C 54.296875 -2 64.5 7.34375 66.796875 24.015625 
L 62.09375 24.8125 
C 61.09375 19.546875 59.90625 15.984375 58.09375 13.015625 
C 54 6.171875 47.59375 2.6875 39.5 2.6875 
C 24.703125 2.6875 17.703125 12.90625 17.703125 34.265625 
C 17.703125 45.46875 19.203125 53.015625 22.59375 58.96875 
C 25.703125 64.53125 31.90625 68 38.296875 68 
C 45.296875 68 51.5 64.328125 55.296875 57.96875 
C 57.203125 54.6875 58.703125 50.8125 61 43.171875 
L 65.40625 43.171875 
z
" id="Century_Schoolbook_L_Roman-67"/>
      <path d="M 25.203125 48.28125 
C 13 48.28125 3.40625 37.453125 3.40625 23.546875 
C 3.40625 9.9375 13 -1 25 -1 
C 37 -1 46.59375 9.9375 46.59375 23.640625 
C 46.59375 37.25 37 48.28125 25.203125 48.28125 
z
M 25.203125 44 
C 32.203125 44 36.09375 36.75 36.09375 23.640625 
C 36.09375 10.453125 32.203125 3.296875 25 3.296875 
C 17.796875 3.296875 13.90625 10.453125 13.90625 23.546875 
C 13.90625 37.046875 17.703125 44 25.203125 44 
z
" id="Century_Schoolbook_L_Roman-111"/>
      <path d="M 19.796875 46 
L 2.09375 46 
L 2.09375 41.21875 
L 6.203125 41.21875 
C 9.90625 41.21875 10.5 40.515625 10.5 36.203125 
L 10.5 12.296875 
L 10.5 8.296875 
C 10.5 4.296875 9.40625 3.59375 2.90625 3.59375 
L 2.5 3.59375 
L 2.5 0 
L 29.203125 0 
L 29.203125 3.59375 
L 27.296875 3.59375 
C 20.90625 3.59375 19.796875 4.296875 19.796875 8.296875 
L 19.796875 12.296875 
L 19.796875 13.296875 
C 19.796875 20.8125 21.203125 28.40625 23.703125 34.109375 
C 26.09375 39.703125 29.5 42.8125 33.703125 43.3125 
C 32.296875 41.703125 31.90625 40.6875 31.90625 38.765625 
C 31.90625 35.546875 34.203125 33.234375 37.40625 33.234375 
C 41 33.234375 43.5 35.9375 43.5 40.015625 
C 43.5 44.8125 40.09375 48 34.796875 48 
C 28.5 48 23 42.921875 19.796875 34.140625 
z
" id="Century_Schoolbook_L_Roman-114"/>
      <path d="M 38 0 
L 55.40625 0 
L 55.40625 4.703125 
L 53.59375 4.703125 
C 48.203125 4.703125 47.40625 5.703125 47.40625 11.96875 
L 47.40625 73.78125 
L 27.796875 73.78125 
L 27.796875 69 
L 33.703125 69 
C 37.296875 69 38 68.28125 38 63.921875 
L 38 41 
C 34.296875 46.09375 30 48.390625 24.203125 48.390625 
C 12.90625 48.390625 4.296875 37.546875 4.296875 23.203125 
C 4.296875 9.0625 12.59375 -1 24.203125 -1 
C 30.5 -1 34.796875 1.671875 38 7.59375 
z
M 26.203125 43 
C 30.296875 43 34.203125 40.03125 36 35.4375 
C 37.203125 32.453125 37.90625 28.28125 37.90625 23.515625 
C 37.90625 11.96875 33.296875 4.390625 26.09375 4.390625 
C 19.09375 4.390625 14.796875 10.96875 14.796875 22.015625 
C 14.796875 27.890625 15.40625 32.359375 16.703125 35.734375 
C 18.40625 40.125 22.09375 43 26.203125 43 
z
" id="Century_Schoolbook_L_Roman-100"/>
      <path d="M 20 46 
L 2.703125 46 
L 2.703125 41.21875 
L 6.296875 41.21875 
C 10 41.21875 10.59375 40.515625 10.59375 36.203125 
L 10.59375 12.296875 
L 10.59375 8.296875 
C 10.59375 4.296875 9.5 3.59375 3.09375 3.59375 
L 2.703125 3.59375 
L 2.703125 0 
L 28 0 
L 28 3.59375 
L 27.59375 3.59375 
C 21.09375 3.59375 20 4.296875 20 8.28125 
L 20 12.28125 
L 20 22.65625 
C 20 27.546875 20.703125 32.03125 21.796875 34.328125 
C 23.90625 38.828125 28.40625 41.921875 32.703125 41.921875 
C 35.296875 41.921875 38.296875 40.421875 39.796875 38.421875 
C 41.296875 36.328125 42 33.234375 42 28.4375 
L 42 12.28125 
L 42 8.28125 
C 42 4.296875 40.90625 3.59375 34.40625 3.59375 
L 34 3.59375 
L 34 0 
L 59.296875 0 
L 59.296875 3.59375 
L 58.90625 3.59375 
C 52.5 3.59375 51.40625 4.296875 51.40625 8.28125 
L 51.40625 12.28125 
L 51.40625 27.953125 
C 51.40625 35.125 51.09375 36.921875 49.296875 40.328125 
C 46.796875 45.109375 41.703125 48 35.796875 48 
C 29.40625 48 24.40625 45.046875 20 38.515625 
z
" id="Century_Schoolbook_L_Roman-110"/>
      <path d="M 45.203125 32.578125 
C 45.203125 38.796875 44.09375 41.96875 41.203125 44.34375 
C 37.90625 46.90625 33 48.28125 26.59375 48.28125 
C 15.40625 48.28125 7.09375 43.046875 7.09375 35.921875 
C 7.09375 32.15625 9.40625 29.78125 12.90625 29.78125 
C 16 29.78125 18.296875 31.859375 18.296875 34.8125 
C 18.296875 36.109375 17.796875 37.484375 16.796875 38.875 
C 16.203125 39.546875 16.09375 39.84375 16.09375 40.15625 
C 16.09375 42.21875 20.203125 44 25 44 
C 28.09375 44 31.59375 43.015625 33.203125 41.53125 
C 35.09375 39.953125 35.796875 37.578125 35.796875 33.125 
L 35.796875 29.28125 
C 25.296875 27.484375 22.09375 26.6875 17.203125 24.8125 
C 8.59375 21.609375 4.40625 16.9375 4.40625 10.65625 
C 4.40625 3.578125 10.09375 -1 18.90625 -1 
C 25.796875 -1 32 1.859375 36.296875 7.0625 
C 37.90625 1.984375 40.40625 0 45.09375 0 
C 49.59375 0 54.296875 2.890625 54.296875 5.78125 
C 54.296875 6.46875 53.796875 6.96875 53.296875 6.96875 
C 52.90625 6.96875 52.5 6.875 51.796875 6.578125 
C 50.203125 6 49.796875 5.890625 49 5.890625 
C 46.203125 5.890625 45.203125 7.78125 45.203125 12.71875 
z
M 35.796875 20.46875 
C 35.796875 14.46875 35.5 13.078125 33.796875 10.484375 
C 31.296875 6.78125 26.703125 4.296875 22.40625 4.296875 
C 17.90625 4.296875 14.5 7.59375 14.5 12.078125 
C 14.5 16.265625 16.59375 19.265625 21 21.359375 
C 24.09375 22.75 28 23.75 35.796875 25.046875 
z
" id="Century_Schoolbook_L_Roman-97"/>
      <path d="M 19.40625 47 
L 19.40625 67 
L 15.296875 67 
C 14.296875 53.875 9.90625 47.1875 1.796875 46.59375 
L 1.796875 42.703125 
L 10 42.703125 
L 10 17.265625 
C 10 10.28125 10.203125 7.78125 11.203125 5.484375 
C 12.796875 1.296875 16.796875 -1 22.59375 -1 
C 26.5 -1 29.90625 0.203125 32.203125 2.390625 
C 35.5 5.59375 37.40625 10.875 37.40625 16.375 
C 37.40625 16.96875 37.40625 17.671875 37.296875 18.671875 
L 33.09375 18.671875 
C 32.796875 9.6875 30.203125 5.09375 25.296875 5.09375 
C 23 5.09375 21 6.28125 20.296875 7.984375 
C 19.703125 9.375 19.40625 11.875 19.40625 15.46875 
L 19.40625 42.703125 
L 34.09375 42.703125 
L 34.09375 47 
z
" id="Century_Schoolbook_L_Roman-116"/>
     </defs>
     <g transform="translate(24.87013 177.536485)rotate(-90)scale(0.18 -0.18)">
      <use transform="translate(0 0.343476)scale(0.996264)" xlink:href="#Century_Schoolbook_L_Roman-88"/>
      <use transform="translate(97.831344 0.343476)scale(0.996264)" xlink:href="#Century_Schoolbook_L_Roman-67"/>
      <use transform="translate(169.761329 0.343476)scale(0.996264)" xlink:href="#Century_Schoolbook_L_Roman-111"/>
      <use transform="translate(219.574529 0.343476)scale(0.996264)" xlink:href="#Century_Schoolbook_L_Roman-111"/>
      <use transform="translate(269.38773 0.343476)scale(0.996264)" xlink:href="#Century_Schoolbook_L_Roman-114"/>
      <use transform="translate(313.621299 0.343476)scale(0.996264)" xlink:href="#Century_Schoolbook_L_Roman-100"/>
      <use transform="translate(370.806786 0.343476)scale(0.996264)" xlink:href="#Century_Schoolbook_L_Roman-105"/>
      <use transform="translate(402.188099 0.343476)scale(0.996264)" xlink:href="#Century_Schoolbook_L_Roman-110"/>
      <use transform="translate(463.05973 0.343476)scale(0.996264)" xlink:href="#Century_Schoolbook_L_Roman-97"/>
      <use transform="translate(518.451407 0.343476)scale(0.996264)" xlink:href="#Century_Schoolbook_L_Roman-116"/>
      <use transform="translate(557.205113 0.343476)scale(0.996264)" xlink:href="#Century_Schoolbook_L_Roman-101"/>
     </g>
    </g>
   </g>
   <g id="line2d_12">
    <path clip-path="url(#pccccf9cae4)" d="M 71.0703 75.12804 
L 82.244806 75.12804 
L 82.441541 82.536229 
L 82.638275 92.172227 
L 82.95305 98.101697 
L 83.228478 99.657549 
L 83.385865 99.879218 
L 84.44823 99.953339 
L 84.723658 100.471261 
L 85.038433 102.509017 
L 85.392555 104.361239 
L 85.589289 105.843085 
L 86.061451 108.436751 
L 86.218839 109.362687 
L 86.494267 111.030069 
L 86.769695 112.69745 
L 87.045123 114.364831 
L 87.320551 115.939445 
L 87.674672 118.254808 
L 88.540303 153.81669 
L 94.245597 157.167782 
L 94.914493 157.559699 
L 95.150574 157.727861 
L 95.544043 157.933548 
L 96.016205 158.233044 
L 97.07857 158.849409 
L 97.511386 159.111381 
L 98.298323 159.578345 
L 98.731138 159.839623 
L 99.596769 160.344805 
L 99.83285 160.494206 
L 100.226319 160.727341 
L 100.58044 160.923646 
L 100.816521 161.073047 
L 101.249337 161.335019 
L 102.233008 161.914555 
L 102.626477 162.14769 
L 102.941251 162.334614 
L 104.121657 163.05417 
L 104.515126 163.259856 
L 104.751207 163.409257 
L 105.184022 163.671229 
L 106.049653 164.156955 
L 106.246387 164.296975 
L 107.269405 164.904654 
L 107.58418 165.091578 
L 108.016996 165.352856 
L 109.000667 165.913629 
L 109.236748 166.081792 
L 109.551523 166.268717 
L 110.613888 166.89481 
L 110.928663 167.072353 
L 111.83364 167.614018 
L 114.745308 169.343244 
L 115.020736 169.502026 
L 115.492898 169.800827 
L 115.886366 170.006514 
L 116.122447 170.174676 
L 116.437222 170.361601 
L 117.538934 170.996728 
L 117.932403 171.230557 
L 118.286524 171.426863 
L 118.522606 171.576263 
L 118.994768 171.875065 
L 120.057133 172.510886 
L 120.371908 172.679049 
L 120.765376 172.912183 
L 121.119498 173.108489 
L 121.316232 173.230094 
L 121.552313 173.398257 
L 122.614678 174.014969 
L 122.890106 174.173751 
L 123.362269 174.473247 
L 123.677043 174.659477 
L 124.070512 174.846401 
L 124.267246 175.00553 
L 124.542674 175.182726 
L 124.857449 175.332822 
L 125.09353 175.482223 
L 125.919814 175.996092 
L 126.942832 176.603075 
L 127.257607 176.771238 
L 127.651076 176.995687 
L 128.556053 177.537698 
L 128.949522 177.771528 
L 129.22495 177.930309 
L 129.461031 178.098472 
L 129.775806 178.266635 
L 130.169274 178.500464 
L 130.523396 178.69677 
L 130.759477 178.84617 
L 131.192292 179.107448 
L 132.175964 179.686984 
L 132.569432 179.920813 
L 132.884207 180.10739 
L 133.985919 180.761626 
L 134.261347 180.920408 
L 134.497428 181.088571 
L 134.890897 181.294257 
L 135.126978 181.443658 
L 136.110649 182.023194 
L 136.582811 182.321995 
L 136.97628 182.527682 
L 137.448442 182.845245 
L 137.841911 183.050931 
L 138.707542 183.583562 
L 139.691213 184.163098 
L 140.045335 184.340642 
L 140.281416 184.508804 
L 141.265087 185.087645 
L 142.445493 185.79782 
L 143.547205 186.414879 
L 143.783286 186.601804 
L 144.09806 186.788728 
L 145.278466 187.461379 
L 145.750628 187.76018 
L 146.065403 187.947105 
L 147.049075 188.507879 
L 147.285156 188.657279 
L 148.465561 189.367454 
L 149.449233 189.946989 
L 149.882048 190.208267 
L 150.865719 190.769041 
L 151.1018 190.937203 
L 151.416575 191.124128 
L 152.400247 191.684902 
L 152.636328 191.834302 
L 155.744729 193.684786 
L 156.728401 194.26409 
L 157.121869 194.506838 
L 157.397297 194.684381 
L 158.380968 195.254536 
L 159.36464 195.843105 
L 160.23027 196.341339 
L 160.308964 196.344119 
L 160.387658 195.973744 
L 160.977861 154.467104 
L 161.135248 154.461198 
L 161.568064 154.722475 
L 162.551735 155.302011 
L 163.023897 155.600812 
L 163.378019 155.797465 
L 164.479731 156.44232 
L 165.384708 156.984332 
L 165.856871 157.283134 
L 166.919236 157.881431 
L 167.155317 158.049594 
L 168.020948 158.53532 
L 168.257029 158.703483 
L 168.571803 158.886377 
L 170.263718 159.890002 
L 170.539146 160.030022 
L 170.775227 160.180117 
L 171.680205 160.722129 
L 172.899957 161.450371 
L 173.883629 162.039287 
L 175.024687 162.721319 
L 176.008359 163.282093 
L 176.205093 163.393969 
L 176.99203 163.88039 
L 177.385499 164.113525 
L 177.73962 164.30983 
L 178.211783 164.609327 
L 179.352841 165.291358 
L 179.706963 165.487664 
L 180.37586 165.898574 
L 180.769328 166.12279 
L 181.792346 166.721088 
L 182.028427 166.870489 
L 183.051446 167.477473 
L 184.035117 168.057008 
L 184.310545 168.234552 
L 185.254869 168.785945 
L 185.608991 168.98225 
L 186.081153 169.281052 
L 187.025478 169.823063 
L 187.261559 169.972464 
L 187.733721 170.27196 
L 188.048496 170.45819 
L 188.363271 170.645115 
L 189.346942 171.237158 
L 191.943835 172.756876 
L 192.809465 173.289854 
L 193.911177 173.93471 
L 194.973542 174.560455 
L 196.075254 175.213024 
L 197.806516 176.233396 
L 198.711493 176.784788 
L 199.734512 177.391772 
L 200.049286 177.559935 
L 200.521449 177.878193 
L 200.87557 178.06477 
L 201.780548 178.588367 
L 202.016629 178.737768 
L 202.410098 178.961869 
L 203.157688 179.429181 
L 204.220053 180.045545 
L 205.085684 180.550033 
L 205.321765 180.718891 
L 205.675887 180.905468 
L 206.50217 181.391541 
L 206.738252 181.540942 
L 207.76127 182.148273 
L 209.020369 182.905005 
L 210.00404 183.484541 
L 210.436856 183.745818 
L 211.499221 184.372259 
L 212.561586 184.998005 
L 213.584604 185.596302 
L 214.056766 185.895104 
L 214.922397 186.381525 
L 215.079785 186.48402 
L 215.355213 186.661564 
L 216.220843 187.166052 
L 216.456924 187.315453 
L 217.519289 187.932512 
L 217.991452 188.231314 
L 218.306227 188.418238 
L 219.368592 189.044331 
L 220.50965 189.72671 
L 220.824425 189.913635 
L 221.690056 190.399361 
L 221.926137 190.567524 
L 222.240912 190.754448 
L 223.381971 191.417718 
L 224.562376 192.137273 
L 224.877151 192.324198 
L 226.01821 192.987467 
L 227.119922 193.641703 
L 227.39535 193.804168 
L 229.244652 194.902923 
L 230.110283 195.408106 
L 230.346364 195.576269 
L 230.661139 195.744431 
L 231.054607 195.977566 
L 231.330035 196.155109 
L 231.684157 196.344119 
L 231.841544 195.232994 
L 232.077625 179.677255 
L 232.235013 161.343705 
L 232.471094 154.442436 
L 232.707175 154.545279 
L 233.76954 155.161991 
L 234.044968 155.320773 
L 234.281049 155.488936 
L 234.595824 155.67586 
L 235.77623 156.348511 
L 236.209045 156.610483 
L 237.192716 157.190019 
L 237.625532 157.460677 
L 237.979653 157.656983 
L 238.215735 157.825145 
L 238.530509 157.993308 
L 239.002672 158.292109 
L 239.39614 158.497796 
L 239.632221 158.665959 
L 239.946996 158.834121 
L 240.419158 159.133618 
L 240.77328 159.320195 
L 241.717605 159.880621 
L 242.89801 160.590795 
L 243.960375 161.217236 
L 245.180128 161.955553 
L 246.045758 162.441279 
L 246.28184 162.609442 
L 247.383551 163.244569 
L 247.855714 163.544065 
L 248.918079 164.16043 
L 249.78371 164.664918 
L 250.019791 164.83308 
L 250.334565 165.001243 
L 250.806728 165.300739 
L 251.200196 165.506426 
L 251.947786 165.954628 
L 252.380602 166.225634 
L 252.65603 166.40283 
L 253.049498 166.608516 
L 253.482314 166.870489 
L 254.465985 167.431263 
L 254.741413 167.636949 
L 255.803778 168.253314 
L 256.826796 168.860992 
L 257.102224 169.019774 
L 257.495693 169.252909 
L 257.849815 169.449214 
L 258.321977 169.748711 
L 259.226954 170.290722 
L 260.328666 170.93523 
L 260.604094 171.094012 
L 261.076257 171.392813 
L 262.138622 172.009873 
L 262.610784 172.308674 
L 263.004252 172.514361 
L 266.03396 174.31794 
L 266.309388 174.495483 
L 267.253713 175.037495 
L 267.489794 175.186896 
L 268.355424 175.691384 
L 268.591506 175.859546 
L 268.90628 176.027709 
L 269.378443 176.32651 
L 269.771911 176.532197 
L 270.007992 176.681598 
L 270.401461 176.915427 
L 270.676889 177.08359 
L 271.66056 177.653744 
L 272.604885 178.214518 
L 273.077047 178.51332 
L 273.391822 178.700244 
L 274.375493 179.27978 
L 274.808308 179.541474 
L 275.79198 180.101831 
L 276.028061 180.269994 
L 276.342836 180.456918 
L 277.405201 181.083012 
L 278.506913 181.727867 
L 279.490584 182.307402 
L 279.923399 182.578061 
L 280.277521 182.774366 
L 280.749683 183.073168 
L 281.143152 183.278854 
L 281.379233 183.428255 
L 282.323558 183.99841 
L 283.307229 184.577945 
L 283.661351 184.774251 
L 284.133513 185.073052 
L 285.156531 185.680731 
L 285.510653 185.877037 
L 286.022162 186.203981 
L 286.41563 186.406309 
L 290.389663 188.782706 
L 290.665091 188.941488 
L 291.058559 189.175318 
L 291.333987 189.352861 
L 292.396352 189.969226 
L 292.868514 190.268722 
L 293.261983 190.474409 
L 293.498064 190.623809 
L 293.891533 190.857291 
L 294.16696 191.01642 
L 295.308019 191.698452 
L 295.583447 191.875996 
L 296.449078 192.380484 
L 296.685159 192.529884 
L 296.999934 192.716809 
L 298.062299 193.342902 
L 299.242705 194.043695 
L 300.187029 194.604122 
L 301.367435 195.314296 
L 302.4298 195.940737 
L 303.17739 196.344119 
L 303.216737 196.344119 
L 303.334777 194.12187 
L 303.610205 167.454889 
L 303.649552 165.97339 
L 303.80694 155.602897 
L 303.964327 154.442436 
L 304.003674 154.442436 
L 304.200408 146.664566 
L 304.711917 88.489673 
L 304.751264 87.007132 
L 304.908652 76.624131 
L 305.144733 75.12804 
L 310.338517 75.12804 
L 310.535252 78.831787 
L 311.361536 153.691263 
L 311.833698 153.990759 
L 312.817369 154.578981 
L 313.80104 155.158517 
L 314.155162 155.354822 
L 314.391243 155.504223 
L 315.256874 156.008711 
L 315.492955 156.158112 
L 316.515973 156.76579 
L 317.696379 157.485346 
L 318.050501 157.681651 
L 364.597829 185.302018 
L 364.873257 185.479561 
L 365.738887 185.984744 
L 365.974969 186.134145 
L 366.997987 186.732095 
L 367.430802 186.99372 
L 368.611208 187.703894 
L 369.004676 187.909581 
L 369.240757 188.07149 
L 372.034384 189.722194 
L 372.978708 190.28262 
L 374.119767 190.964999 
L 374.355848 191.124128 
L 375.45756 191.740493 
L 375.693641 191.908655 
L 376.677313 192.488191 
L 377.070781 192.72202 
L 377.424903 192.917631 
L 377.660984 193.067727 
L 378.093799 193.329004 
L 379.077471 193.90854 
L 379.549633 194.207341 
L 379.943102 194.413028 
L 380.415264 194.711829 
L 380.808732 194.917516 
L 381.280895 195.235079 
L 381.595669 195.385175 
L 381.831751 195.553337 
L 382.146525 195.740262 
L 382.894116 196.135653 
L 382.972809 194.839341 
L 383.051503 190.580031 
L 383.287584 170.764983 
L 383.523665 154.653681 
L 383.681053 152.636425 
L 383.759746 150.043801 
L 384.113868 107.436113 
L 384.546683 76.299619 
L 384.664724 75.12804 
L 417.48 75.12804 
L 417.48 75.12804 
" style="fill:none;stroke:#e41a1c;stroke-linecap:square;stroke-width:2;"/>
   </g>
   <g id="line2d_13">
    <path clip-path="url(#pccccf9cae4)" d="M 71.0703 75.12804 
L 115.374857 75.12804 
L 115.532245 78.831787 
L 115.728979 91.80081 
L 115.96506 107.55077 
L 116.397875 131.638678 
L 116.476569 135.34451 
L 116.830691 153.505381 
L 116.988078 153.775344 
L 118.601299 154.270799 
L 119.112808 154.486561 
L 120.489948 155.055326 
L 121.552313 155.528544 
L 122.142516 155.838464 
L 122.9688 156.279717 
L 123.204881 156.447879 
L 124.070512 156.952367 
L 124.306593 157.101768 
L 125.172224 157.606256 
L 125.408305 157.756352 
L 125.72308 157.943276 
L 126.667404 158.494322 
L 127.926504 159.251053 
L 128.949522 159.858732 
L 130.011887 160.484478 
L 130.956211 161.02649 
L 131.192292 161.194652 
L 131.507067 161.362815 
L 131.900536 161.596644 
L 132.175964 161.774188 
L 133.317023 162.440585 
L 136.268037 164.194132 
L 136.543465 164.371675 
L 137.527136 164.932449 
L 137.763217 165.08185 
L 138.786235 165.689181 
L 139.887947 166.343417 
L 140.202722 166.530342 
L 141.343781 167.212373 
L 142.209411 167.716861 
L 142.445493 167.866262 
L 142.838961 168.09071 
L 143.743939 168.61396 
L 143.98002 168.782123 
L 144.294795 168.969047 
L 144.72761 169.23102 
L 145.593241 169.716746 
L 145.829322 169.884908 
L 146.812993 170.464444 
L 147.245809 170.725722 
L 148.22948 171.305257 
L 148.622949 171.529358 
L 149.567273 172.089785 
L 150.747679 172.799959 
L 151.61331 173.304447 
L 151.849391 173.454543 
L 152.754368 173.996554 
L 153.816733 174.612919 
L 154.682364 175.136169 
L 155.11518 175.398141 
L 156.059504 175.949187 
L 157.23991 176.649633 
L 158.144887 177.201373 
L 159.285946 177.883752 
L 159.600721 178.033153 
L 159.836802 178.201315 
L 160.151577 178.38824 
L 161.135248 178.948319 
L 161.371329 179.117176 
L 161.725451 179.303754 
L 162.551735 179.789827 
L 162.787816 179.95799 
L 163.102591 180.144914 
L 164.164956 180.77066 
L 165.227321 181.3971 
L 166.250339 181.994703 
L 166.643808 182.228533 
L 166.919236 182.387314 
L 167.391398 182.686116 
L 168.414416 183.284413 
L 169.319394 183.807663 
L 169.555475 183.957064 
L 170.421106 184.461552 
L 170.657187 184.629715 
L 170.971962 184.816639 
L 172.034327 185.44308 
L 173.017998 186.021921 
L 173.37212 186.218226 
L 173.568854 186.330798 
L 174.355791 186.816524 
L 175.300115 187.386679 
L 176.283787 187.956486 
L 177.228111 188.516912 
L 178.251129 189.11521 
L 179.234801 189.703779 
L 180.415206 190.40492 
L 181.477571 191.021285 
L 181.910387 191.302019 
L 182.225162 191.470182 
L 182.461243 191.619582 
L 183.680995 192.348519 
L 184.62532 192.909293 
L 185.018788 193.133046 
L 186.00246 193.721963 
L 187.182865 194.441518 
L 187.536987 194.637824 
L 188.520658 195.216665 
L 188.796086 195.394208 
L 189.858451 196.011268 
L 190.291267 196.272545 
L 190.448654 196.344119 
L 190.527348 195.973744 
L 190.763429 179.677255 
L 191.117551 154.491773 
L 191.314285 154.461198 
L 192.494691 155.171372 
L 193.478362 155.750908 
L 193.950524 156.049709 
L 195.012889 156.648007 
L 195.24897 156.81617 
L 195.524398 156.974951 
L 196.62611 157.62884 
L 196.980232 157.824451 
L 197.216313 157.973851 
L 198.160637 158.515168 
L 198.396719 158.683331 
L 199.459084 159.309424 
L 200.639489 160.00987 
L 201.465773 160.495596 
L 201.701854 160.645692 
L 202.016629 160.831921 
L 203.078994 161.430219 
L 203.315075 161.598382 
L 204.298747 162.177222 
L 204.731562 162.439195 
L 205.715233 163.01873 
L 206.148049 163.280008 
L 207.249761 163.896373 
L 207.485842 164.083297 
L 207.800617 164.25146 
L 208.194085 164.485289 
L 208.548207 164.681595 
L 209.020369 164.980396 
L 209.689266 165.373007 
L 210.869671 166.083182 
L 211.932036 166.699547 
L 212.364852 166.9709 
L 212.64028 167.129682 
L 213.348523 167.559122 
L 214.450235 168.194943 
L 214.843703 168.428078 
L 215.119131 168.605622 
L 216.181496 169.231715 
L 217.361902 169.932508 
L 218.188186 170.418582 
L 218.424267 170.567982 
L 219.368592 171.109994 
L 219.604673 171.259395 
L 220.037488 171.520672 
L 221.021159 172.100208 
L 221.257241 172.249609 
L 221.572015 172.436533 
L 222.63438 173.062626 
L 223.814786 173.76342 
L 224.837804 174.36137 
L 225.309967 174.660172 
L 226.451025 175.323789 
L 227.631431 176.024582 
L 228.457715 176.510655 
L 228.693796 176.660056 
L 229.716814 177.267387 
L 230.936567 177.995976 
L 231.211995 178.17352 
L 233.494112 179.500754 
L 233.76954 179.678298 
L 234.910599 180.360329 
L 235.89427 180.939865 
L 236.327086 181.201142 
L 237.389451 181.827235 
L 238.491163 182.472091 
L 239.474834 183.051626 
L 239.907649 183.322285 
L 240.261771 183.51859 
L 241.127402 184.04184 
L 241.560217 184.303118 
L 242.622582 184.929558 
L 243.724294 185.583447 
L 244.078416 185.779752 
L 244.314497 185.929153 
L 245.180128 186.452403 
L 245.573596 186.686232 
L 245.927718 186.882538 
L 246.163799 187.031939 
L 246.635961 187.33074 
L 247.77702 187.994357 
L 248.839385 188.611069 
L 249.114813 188.769851 
L 249.350894 188.938014 
L 249.665669 189.124938 
L 250.728034 189.751031 
L 251.790399 190.367744 
L 252.065827 190.545287 
L 253.128192 191.17138 
L 254.229904 191.816235 
L 255.213575 192.395771 
L 255.646391 192.66643 
L 255.961166 192.853354 
L 257.102224 193.535386 
L 257.416999 193.72231 
L 258.518711 194.357437 
L 258.754792 194.507533 
L 259.069567 194.694457 
L 260.053238 195.273298 
L 261.076257 195.880977 
L 261.351685 196.039758 
L 261.587766 196.189159 
L 261.941887 196.344119 
L 262.138622 188.566249 
L 262.53209 155.232522 
L 262.689478 154.442436 
L 263.082946 154.648122 
L 263.515761 154.918781 
L 263.869883 155.115086 
L 264.105964 155.264487 
L 265.28637 155.974661 
L 266.270041 156.535435 
L 266.506122 156.684836 
L 267.371753 157.188629 
L 267.607834 157.356792 
L 267.922609 157.543438 
L 269.063668 158.205596 
L 270.126033 158.831342 
L 271.070357 159.391421 
L 271.463826 159.615869 
L 272.29011 160.120357 
L 272.722925 160.381635 
L 273.706597 160.941713 
L 273.942678 161.109876 
L 275.005043 161.726241 
L 275.241124 161.875641 
L 276.224795 162.455177 
L 276.657611 162.716455 
L 277.641282 163.29599 
L 278.03475 163.529125 
L 278.388872 163.72543 
L 278.821688 163.986708 
L 279.805359 164.566244 
L 280.04144 164.715644 
L 280.434909 164.948779 
L 280.78903 165.145085 
L 281.025111 165.294485 
L 281.457927 165.556458 
L 282.126823 165.948374 
L 282.362904 166.116536 
L 282.756373 166.322223 
L 283.54331 166.789187 
L 283.779391 166.943278 
L 325.801831 191.874953 
L 326.116606 192.061878 
L 327.336358 192.800195 
L 328.359376 193.398493 
L 328.831539 193.697294 
L 329.933251 194.341802 
L 330.995616 194.968243 
L 331.93994 195.510254 
L 332.176021 195.678417 
L 333.159693 196.257258 
L 333.395774 196.344119 
L 333.592508 188.566249 
L 333.789242 164.677078 
L 334.418792 140.923758 
L 334.69422 111.836832 
L 334.890954 87.007132 
L 335.166382 75.138463 
L 336.07136 75.12804 
L 340.596248 75.12804 
L 340.714288 76.239164 
L 340.911023 88.46153 
L 341.107757 115.880727 
L 341.147104 117.733643 
L 341.304491 137.930532 
L 341.343838 139.598261 
L 341.501225 151.833135 
L 341.658613 153.75693 
L 342.012735 153.953235 
L 342.878365 154.457723 
L 343.114447 154.613378 
L 343.783343 155.018497 
L 344.098118 155.18666 
L 344.334199 155.33606 
L 345.278523 155.878072 
L 345.514605 156.027473 
L 345.986767 156.326274 
L 346.931091 156.867591 
L 347.167172 157.016992 
L 348.229537 157.632662 
L 348.662353 157.893939 
L 349.44929 158.360208 
L 349.685371 158.509609 
L 350.000146 158.696534 
L 350.432961 158.957811 
L 351.416633 159.51789 
L 351.652714 159.686053 
L 351.967489 159.872977 
L 353.029854 160.498723 
L 354.013525 161.077564 
L 354.367647 161.273869 
L 354.603728 161.42327 
L 355.548052 161.965282 
L 355.82348 162.170274 
L 356.216949 162.37596 
L 356.689111 162.674761 
L 357.751476 163.291126 
L 358.184291 163.553099 
L 359.167963 164.131939 
L 359.600778 164.393217 
L 360.70249 165.028344 
L 360.938571 165.177744 
L 361.882896 165.747899 
L 362.905914 166.354883 
L 363.220689 166.541807 
L 363.614157 166.765908 
L 364.558482 167.326335 
L 365.5815 167.933318 
L 365.896275 168.120243 
L 367.07668 168.839798 
L 367.470149 169.04479 
L 368.139045 169.456163 
L 368.33578 169.549278 
L 368.807942 169.866841 
L 369.122717 170.053766 
L 370.185082 170.679859 
L 371.326141 171.361543 
L 371.640915 171.548468 
L 372.624587 172.109242 
L 372.860668 172.277404 
L 373.254136 172.482396 
L 374.119767 173.015027 
L 375.142785 173.622705 
L 375.45756 173.808935 
L 376.519925 174.435028 
L 377.660984 175.117407 
L 377.975759 175.303637 
L 378.95943 175.864411 
L 379.195511 176.032573 
L 379.510286 176.219498 
L 380.572651 176.845244 
L 381.556323 177.424779 
L 381.910444 177.621085 
L 382.382606 177.913632 
L 383.012156 178.274973 
L 384.271255 179.031358 
L 384.625377 179.227663 
L 384.900805 179.43335 
L 385.294274 179.620275 
L 385.530355 179.779056 
L 386.002517 180.057219 
L 387.655085 181.031242 
L 387.930513 181.208786 
L 388.914184 181.787627 
L 390.015896 182.441516 
L 390.330671 182.62844 
L 390.763486 182.890413 
L 391.747158 183.469253 
L 392.140626 183.703083 
L 392.494748 183.899388 
L 392.96691 184.216952 
L 393.281685 184.366352 
L 393.517766 184.534515 
L 393.832541 184.72144 
L 394.894906 185.319737 
L 395.130987 185.4879 
L 396.193352 186.113646 
L 397.334411 186.795677 
L 398.47547 187.459294 
L 399.734569 188.216026 
L 400.6002 188.720514 
L 400.836281 188.87061 
L 401.898646 189.486974 
L 405.164435 191.439954 
L 405.518556 191.63626 
L 405.951372 191.898232 
L 409.295854 193.888041 
L 409.571282 194.046822 
L 410.279526 194.476957 
L 411.302544 195.075255 
L 411.538625 195.224656 
L 412.561643 195.831987 
L 413.151846 196.135653 
L 413.269887 192.431905 
L 413.702702 159.098178 
L 414.135517 137.080685 
L 414.450292 96.318617 
L 414.765067 76.113389 
L 414.883108 75.12804 
L 417.48 75.12804 
L 417.48 75.12804 
" style="fill:none;stroke:#377eb8;stroke-dasharray:7.4,3.2;stroke-dashoffset:0;stroke-linecap:round;stroke-width:2;"/>
   </g>
   <g id="patch_3">
    <path d="M 71.0703 230.88 
L 71.0703 14.52 
" style="fill:none;stroke:#000000;stroke-linecap:square;stroke-linejoin:miter;stroke-width:0.8;"/>
   </g>
   <g id="patch_4">
    <path d="M 417.48 230.88 
L 417.48 14.52 
" style="fill:none;"/>
   </g>
   <g id="patch_5">
    <path d="M 71.0703 230.88 
L 417.48 230.88 
" style="fill:none;stroke:#000000;stroke-linecap:square;stroke-linejoin:miter;stroke-width:0.8;"/>
   </g>
   <g id="patch_6">
    <path d="M 71.0703 14.52 
L 417.48 14.52 
" style="fill:none;"/>
   </g>
   <g id="legend_1">
    <g id="patch_7">
     <path d="M 138.60155 44.05585 
L 412.68 44.05585 
Q 415.88 44.05585 415.88 40.85585 
L 415.88 19.32 
Q 415.88 16.12 412.68 16.12 
L 138.60155 16.12 
Q 135.40155 16.12 135.40155 19.32 
L 135.40155 40.85585 
Q 135.40155 44.05585 138.60155 44.05585 
z
" style="fill:#ffffff;stroke:#000000;stroke-linejoin:miter;"/>
    </g>
    <g id="line2d_14">
     <path d="M 141.80155 28.77596 
L 173.80155 28.77596 
" style="fill:none;stroke:#e41a1c;stroke-linecap:square;stroke-width:2;"/>
    </g>
    <g id="line2d_15"/>
    <g id="text_14">
     <!-- Not Cutting -->
     <defs>
      <path d="M 22.5 72 
L 1.90625 72 
L 1.90625 67.3125 
L 4.40625 67.3125 
C 9.5 67.3125 11.796875 66.5 13.59375 64.015625 
L 13.59375 21.5 
C 13.59375 7.78125 11.59375 4.890625 2 4.890625 
L 2 0 
L 30.5 0 
L 30.5 4.890625 
C 21 4.890625 19 7.796875 19 21.5 
L 19 58.640625 
L 63.59375 -1.6875 
L 67.796875 -1.6875 
L 67.796875 50.59375 
C 67.796875 64.390625 69.796875 67.3125 79.40625 67.3125 
L 79.40625 72 
L 50.90625 72 
L 50.90625 67.3125 
C 60.40625 67.3125 62.40625 64.40625 62.40625 50.625 
L 62.40625 19.046875 
z
" id="Century_Schoolbook_L_Roman-78"/>
      <path d="M 41.203125 0 
L 59.40625 0 
L 59.40625 4.703125 
L 56.90625 4.703125 
C 51.40625 4.703125 50.59375 5.59375 50.59375 11.953125 
L 50.59375 46.78125 
L 31.796875 46.78125 
L 31.796875 42 
L 36.90625 42 
C 40.59375 42 41.203125 41.296875 41.203125 36.953125 
L 41.203125 24.5625 
C 41.203125 18.8125 40.59375 15.484375 39.09375 12.15625 
C 37 7.71875 33 5.09375 28.09375 5.09375 
C 25 5.09375 22.40625 6.1875 21.09375 8.171875 
C 19.796875 10.046875 19.59375 11.046875 19.59375 16.5 
L 19.59375 46.78125 
L 2.09375 46.78125 
L 2.09375 42 
L 5.90625 42 
C 9.59375 42 10.203125 41.296875 10.203125 36.953125 
L 10.203125 15.21875 
C 10.203125 10.078125 10.59375 7.765625 12.09375 5.453125 
C 14.796875 1.3125 19.59375 -1 25.59375 -1 
C 32.203125 -1 36.796875 1.71875 41.203125 8.125 
z
" id="Century_Schoolbook_L_Roman-117"/>
      <path d="M 19.59375 7.59375 
C 14.09375 7.59375 13.796875 7.703125 12.59375 8.46875 
C 11.90625 8.90625 11.40625 10.109375 11.40625 11.296875 
C 11.40625 14.578125 14.09375 16 20.796875 16 
C 30.296875 16 31.796875 16.203125 35.09375 17.6875 
C 41.09375 20.359375 44.5 25.484375 44.5 31.984375 
C 44.5 35.921875 43.59375 38.390625 40.796875 41.640625 
C 42.5 43.40625 43.40625 44 44.203125 44 
C 44.703125 44 45 43.6875 45.203125 42.625 
C 45.59375 40.265625 47.203125 39 49.703125 39 
C 52.203125 39 54.203125 41.09375 54.203125 43.78125 
C 54.203125 47.1875 51.5 49.578125 47.59375 49.578125 
C 44.40625 49.578125 42.59375 48.5625 38 44.296875 
C 33.796875 47.09375 30.59375 48.078125 25.59375 48.078125 
C 13.703125 48.078125 5.90625 41.625 5.90625 31.8125 
C 5.90625 26.03125 9.09375 21.03125 14.296875 18.6875 
C 7.59375 17.15625 4.796875 14.09375 4.796875 8.46875 
C 4.796875 3.984375 6.796875 1.328125 11.5 -0.296875 
C 5.296875 -2.484375 2.296875 -5.671875 2.296875 -9.75 
C 2.296875 -16.3125 10 -20 23.40625 -20 
C 40.09375 -20 48.5 -14.71875 48.5 -4.25 
C 48.5 0.71875 46.203125 4.6875 42.5 6.1875 
C 39.90625 7.1875 36.703125 7.59375 29.796875 7.59375 
z
M 25.5 44 
C 31.796875 44 35.296875 39.671875 35.296875 32.09375 
C 35.296875 24.421875 31.5 19.78125 25.09375 19.78125 
C 18.90625 19.78125 15 24.421875 15 31.796875 
C 15 39.5625 18.796875 44 25.5 44 
z
M 24.59375 -1 
C 32.90625 -1 33.5 -1 35 -1.1875 
C 39 -1.59375 41.5 -3.78125 41.5 -6.953125 
C 41.5 -12.625 35 -15.90625 23.796875 -15.90625 
C 15.40625 -15.90625 10.59375 -13.421875 10.59375 -8.953125 
C 10.59375 -5.671875 12.40625 -3.46875 17.203125 -1 
z
" id="Century_Schoolbook_L_Roman-103"/>
     </defs>
     <g transform="translate(186.60155 34.37596)scale(0.16 -0.16)">
      <use transform="translate(0 -1.570628)scale(0.996264)" xlink:href="#Century_Schoolbook_L_Roman-78"/>
      <use transform="translate(81.194513 -1.570628)scale(0.996264)" xlink:href="#Century_Schoolbook_L_Roman-111"/>
      <use transform="translate(131.007714 -1.570628)scale(0.996264)" xlink:href="#Century_Schoolbook_L_Roman-116"/>
      <use transform="translate(197.45659 -1.570628)scale(0.996264)" xlink:href="#Century_Schoolbook_L_Roman-67"/>
      <use transform="translate(269.386575 -1.570628)scale(0.996264)" xlink:href="#Century_Schoolbook_L_Roman-117"/>
      <use transform="translate(330.258205 -1.570628)scale(0.996264)" xlink:href="#Century_Schoolbook_L_Roman-116"/>
      <use transform="translate(369.011912 -1.570628)scale(0.996264)" xlink:href="#Century_Schoolbook_L_Roman-116"/>
      <use transform="translate(407.765618 -1.570628)scale(0.996264)" xlink:href="#Century_Schoolbook_L_Roman-105"/>
      <use transform="translate(439.146931 -1.570628)scale(0.996264)" xlink:href="#Century_Schoolbook_L_Roman-110"/>
      <use transform="translate(500.018561 -1.570628)scale(0.996264)" xlink:href="#Century_Schoolbook_L_Roman-103"/>
     </g>
    </g>
    <g id="line2d_16">
     <path d="M 307.49654 28.77596 
L 339.49654 28.77596 
" style="fill:none;stroke:#377eb8;stroke-dasharray:7.4,3.2;stroke-dashoffset:0;stroke-linecap:round;stroke-width:2;"/>
    </g>
    <g id="line2d_17"/>
    <g id="text_15">
     <!-- Cutting -->
     <g transform="translate(352.29654 34.37596)scale(0.16 -0.16)">
      <use transform="translate(0 -1.570628)scale(0.996264)" xlink:href="#Century_Schoolbook_L_Roman-67"/>
      <use transform="translate(71.929985 -1.570628)scale(0.996264)" xlink:href="#Century_Schoolbook_L_Roman-117"/>
      <use transform="translate(132.801616 -1.570628)scale(0.996264)" xlink:href="#Century_Schoolbook_L_Roman-116"/>
      <use transform="translate(171.555322 -1.570628)scale(0.996264)" xlink:href="#Century_Schoolbook_L_Roman-116"/>
      <use transform="translate(210.309028 -1.570628)scale(0.996264)" xlink:href="#Century_Schoolbook_L_Roman-105"/>
      <use transform="translate(241.690341 -1.570628)scale(0.996264)" xlink:href="#Century_Schoolbook_L_Roman-110"/>
      <use transform="translate(302.561972 -1.570628)scale(0.996264)" xlink:href="#Century_Schoolbook_L_Roman-103"/>
     </g>
    </g>
   </g>
  </g>
 </g>
 <defs>
  <clipPath id="pccccf9cae4">
   <rect height="216.36" width="346.4097" x="71.0703" y="14.52"/>
  </clipPath>
 </defs>
</svg>
