<?xml version="1.0" encoding="utf-8" standalone="no"?>
<!DOCTYPE svg PUBLIC "-//W3C//DTD SVG 1.1//EN"
  "http://www.w3.org/Graphics/SVG/1.1/DTD/svg11.dtd">
<!-- Created with matplotlib (https://matplotlib.org/) -->
<svg height="288pt" version="1.1" viewBox="0 0 432 288" width="432pt" xmlns="http://www.w3.org/2000/svg" xmlns:xlink="http://www.w3.org/1999/xlink">
 <defs>
  <style type="text/css">
*{stroke-linecap:butt;stroke-linejoin:round;}
  </style>
 </defs>
 <g id="figure_1">
  <g id="patch_1">
   <path d="M 0 288 
L 432 288 
L 432 0 
L 0 0 
z
" style="fill:#ffffff;"/>
  </g>
  <g id="axes_1">
   <g id="patch_2">
    <path d="M 65.32538 230.88 
L 417.48 230.88 
L 417.48 14.52 
L 65.32538 14.52 
z
" style="fill:#ffffff;"/>
   </g>
   <g id="matplotlib.axis_1">
    <g id="xtick_1">
     <g id="line2d_1">
      <defs>
       <path d="M 0 0 
L 0 3.5 
" id="m84dfc961ef" style="stroke:#000000;stroke-width:0.8;"/>
      </defs>
      <g>
       <use style="stroke:#000000;stroke-width:0.8;" x="145.324158" xlink:href="#m84dfc961ef" y="230.88"/>
      </g>
     </g>
     <g id="text_1">
      <!-- $20$ -->
      <defs>
       <path d="M 41.703125 15.453125 
L 39.90625 15.453125 
C 38.90625 8.375 38.09375 7.171875 37.703125 6.5625 
C 37.203125 5.765625 30 5.765625 28.59375 5.765625 
L 9.40625 5.765625 
C 13 9.671875 20 16.75 28.5 24.953125 
C 34.59375 30.734375 41.703125 37.53125 41.703125 47.421875 
C 41.703125 59.21875 32.296875 66 21.796875 66 
C 10.796875 66 4.09375 56.3125 4.09375 47.34375 
C 4.09375 43.4375 7 42.9375 8.203125 42.9375 
C 9.203125 42.9375 12.203125 43.546875 12.203125 47.03125 
C 12.203125 50.109375 9.59375 51 8.203125 51 
C 7.59375 51 7 50.90625 6.59375 50.703125 
C 8.5 59.21875 14.296875 63.40625 20.40625 63.40625 
C 29.09375 63.40625 34.796875 56.515625 34.796875 47.421875 
C 34.796875 38.734375 29.703125 31.25 24 24.75 
L 4.09375 2.28125 
L 4.09375 0 
L 39.296875 0 
z
" id="CMR17-50"/>
       <path d="M 42 31.640625 
C 42 37.75 41.90625 48.125 37.703125 56.109375 
C 34 63.109375 28.09375 65.59375 22.90625 65.59375 
C 18.09375 65.59375 12 63.40625 8.203125 56.203125 
C 4.203125 48.71875 3.796875 39.4375 3.796875 31.640625 
C 3.796875 25.953125 3.90625 17.28125 7 9.671875 
C 11.296875 -0.609375 19 -2 22.90625 -2 
C 27.5 -2 34.5 -0.109375 38.59375 9.375 
C 41.59375 16.28125 42 24.359375 42 31.640625 
z
M 22.90625 -0.40625 
C 16.5 -0.40625 12.703125 5.078125 11.296875 12.6875 
C 10.203125 18.5625 10.203125 27.15625 10.203125 32.75 
C 10.203125 40.4375 10.203125 46.828125 11.5 52.921875 
C 13.40625 61.390625 19 64 22.90625 64 
C 27 64 32.296875 61.296875 34.203125 53.125 
C 35.5 47.4375 35.59375 40.734375 35.59375 32.75 
C 35.59375 26.25 35.59375 18.265625 34.40625 12.375 
C 32.296875 1.484375 26.40625 -0.40625 22.90625 -0.40625 
z
" id="CMR17-48"/>
      </defs>
      <g transform="translate(137.069033 251.21795)scale(0.18 -0.18)">
       <use transform="scale(0.996264)" xlink:href="#CMR17-50"/>
       <use transform="translate(45.690477 0)scale(0.996264)" xlink:href="#CMR17-48"/>
      </g>
     </g>
    </g>
    <g id="xtick_2">
     <g id="line2d_2">
      <g>
       <use style="stroke:#000000;stroke-width:0.8;" x="225.322936" xlink:href="#m84dfc961ef" y="230.88"/>
      </g>
     </g>
     <g id="text_2">
      <!-- $40$ -->
      <defs>
       <path d="M 33.59375 64.40625 
C 33.59375 66.5 33.5 66.5 31.703125 66.5 
L 2 19.59375 
L 2 17 
L 27.796875 17 
L 27.796875 7.140625 
C 27.796875 3.5 27.59375 2.5 20.59375 2.5 
L 18.703125 2.5 
L 18.703125 0 
C 21.90625 0 27.296875 0 30.703125 0 
C 34.09375 0 39.5 0 42.703125 0 
L 42.703125 2.5 
L 40.796875 2.5 
C 33.796875 2.5 33.59375 3.5 33.59375 7.140625 
L 33.59375 17 
L 43.796875 17 
L 43.796875 19.59375 
L 33.59375 19.59375 
z
M 28.09375 57.859375 
L 28.09375 19.59375 
L 4 19.59375 
z
" id="CMR17-52"/>
      </defs>
      <g transform="translate(217.067811 251.21795)scale(0.18 -0.18)">
       <use transform="scale(0.996264)" xlink:href="#CMR17-52"/>
       <use transform="translate(45.690477 0)scale(0.996264)" xlink:href="#CMR17-48"/>
      </g>
     </g>
    </g>
    <g id="xtick_3">
     <g id="line2d_3">
      <g>
       <use style="stroke:#000000;stroke-width:0.8;" x="305.321713" xlink:href="#m84dfc961ef" y="230.88"/>
      </g>
     </g>
     <g id="text_3">
      <!-- $60$ -->
      <defs>
       <path d="M 10.59375 34 
C 10.59375 57.65625 21.796875 63 28.296875 63 
C 30.40625 63 35.5 62.640625 37.5 59 
C 35.90625 59 32.90625 59 32.90625 55.515625 
C 32.90625 52.828125 35.09375 51.921875 36.5 51.921875 
C 37.40625 51.921875 40.09375 52.3125 40.09375 55.625 
C 40.09375 61.78125 35.09375 65.296875 28.203125 65.296875 
C 16.296875 65.296875 3.796875 52.96875 3.796875 31 
C 3.796875 3.953125 15.09375 -2 23.09375 -2 
C 32.796875 -2 42 6.671875 42 20.046875 
C 42 32.515625 33.90625 41.59375 23.703125 41.59375 
C 17.59375 41.59375 13.09375 37.609375 10.59375 30.625 
z
M 23.09375 0.390625 
C 10.796875 0.390625 10.796875 18.75 10.796875 22.4375 
C 10.796875 29.625 14.203125 40 23.5 40 
C 25.203125 40 30.09375 40 33.40625 33.125 
C 35.203125 29.21875 35.203125 25.140625 35.203125 20.140625 
C 35.203125 14.75 35.203125 10.78125 33.09375 6.78125 
C 30.90625 2.671875 27.703125 0.390625 23.09375 0.390625 
z
" id="CMR17-54"/>
      </defs>
      <g transform="translate(297.066588 251.21795)scale(0.18 -0.18)">
       <use transform="scale(0.996264)" xlink:href="#CMR17-54"/>
       <use transform="translate(45.690477 0)scale(0.996264)" xlink:href="#CMR17-48"/>
      </g>
     </g>
    </g>
    <g id="xtick_4">
     <g id="line2d_4">
      <g>
       <use style="stroke:#000000;stroke-width:0.8;" x="385.320491" xlink:href="#m84dfc961ef" y="230.88"/>
      </g>
     </g>
     <g id="text_4">
      <!-- $80$ -->
      <defs>
       <path d="M 27.203125 35.375 
C 33.5 38.546875 39.90625 43.328125 39.90625 50.984375 
C 39.90625 60.015625 31.09375 65.296875 23 65.296875 
C 13.90625 65.296875 5.90625 58.734375 5.90625 49.6875 
C 5.90625 47.203125 6.5 42.921875 10.40625 39.140625 
C 11.40625 38.15625 15.59375 35.171875 18.296875 33.28125 
C 13.796875 30.984375 3.296875 25.53125 3.296875 14.59375 
C 3.296875 4.359375 13.09375 -2 22.796875 -2 
C 33.5 -2 42.5 5.65625 42.5 15.78125 
C 42.5 24.84375 36.40625 29.015625 32.40625 31.703125 
z
M 14.09375 44.09375 
C 13.296875 44.59375 9.296875 47.671875 9.296875 52.359375 
C 9.296875 58.421875 15.59375 63 22.796875 63 
C 30.703125 63 36.5 57.4375 36.5 50.96875 
C 36.5 41.703125 26.09375 36.421875 25.59375 36.421875 
C 25.5 36.421875 25.40625 36.421875 24.59375 37.03125 
z
M 32.5 23.734375 
C 34 22.640625 38.796875 19.375 38.796875 13.296875 
C 38.796875 5.953125 31.40625 0.390625 23 0.390625 
C 13.90625 0.390625 7 6.84375 7 14.6875 
C 7 22.546875 13.09375 29.09375 20 32.1875 
z
" id="CMR17-56"/>
      </defs>
      <g transform="translate(377.065366 251.21795)scale(0.18 -0.18)">
       <use transform="scale(0.996264)" xlink:href="#CMR17-56"/>
       <use transform="translate(45.690477 0)scale(0.996264)" xlink:href="#CMR17-48"/>
      </g>
     </g>
    </g>
    <g id="text_5">
     <!-- Time -->
     <defs>
      <path d="M 63.296875 72 
L 3.40625 72 
L 1.90625 44.265625 
L 6.203125 44.265625 
C 6.90625 49.25 7.796875 53.046875 8.90625 56.234375 
C 11.5 63.515625 16.296875 67.3125 23.09375 67.3125 
C 26.40625 67.3125 27.796875 66.203125 27.796875 63.71875 
L 27.796875 12.28125 
L 27.796875 9.375 
C 27.796875 5.1875 26.90625 4.6875 18.796875 4.6875 
L 16.203125 4.6875 
L 16.203125 0 
L 50.5 0 
L 50.5 4.6875 
L 47.90625 4.6875 
C 39.90625 4.6875 39 5.1875 39 9.375 
L 39 12.28125 
L 39 63.71875 
C 39 66.203125 40.40625 67.3125 43.703125 67.3125 
C 49.796875 67.3125 54.703125 63.90625 57.203125 57.921875 
C 58.703125 54.25 59.703125 49.953125 60.5 44.265625 
L 64.796875 44.265625 
z
" id="Century_Schoolbook_L_Roman-84"/>
      <path d="M 20.59375 46 
L 1.796875 46 
L 1.796875 41.21875 
L 6.90625 41.21875 
C 10.59375 41.21875 11.203125 40.515625 11.203125 36.203125 
L 11.203125 12.296875 
L 11.203125 8.296875 
C 11.203125 4.296875 10.09375 3.59375 3.703125 3.59375 
L 3 3.59375 
L 3 0 
L 28.90625 0 
L 28.90625 3.59375 
L 28.203125 3.59375 
C 21.703125 3.59375 20.59375 4.28125 20.59375 8.21875 
L 20.59375 12.171875 
z
M 15.90625 71.578125 
C 12.703125 71.578125 10.09375 68.984375 10.09375 65.796875 
C 10.09375 62.703125 12.703125 60 15.796875 60 
C 19.09375 60 21.703125 62.59375 21.703125 65.796875 
C 21.703125 68.984375 19.09375 71.578125 15.90625 71.578125 
z
" id="Century_Schoolbook_L_Roman-105"/>
      <path d="M 20.09375 46 
L 2.296875 46 
L 2.296875 41.21875 
L 6.40625 41.21875 
C 10.09375 41.21875 10.703125 40.515625 10.703125 36.203125 
L 10.703125 12.296875 
L 10.703125 8.40625 
C 10.703125 4.296875 9.59375 3.59375 3.203125 3.59375 
L 2.796875 3.59375 
L 2.796875 0 
L 28 0 
L 28 3.59375 
L 27.59375 3.59375 
C 21.203125 3.59375 20.09375 4.296875 20.09375 8.390625 
L 20.09375 12.28125 
L 20.09375 26.453125 
C 20.09375 35.328125 25 41.921875 31.5 41.921875 
C 34.09375 41.921875 36.90625 40.515625 38.09375 38.625 
C 39.5 36.734375 40.09375 33.828125 40.09375 29.734375 
L 40.09375 12.28125 
L 40.09375 8.28125 
C 40.09375 4.296875 39 3.59375 32.5 3.59375 
L 32.09375 3.59375 
L 32.09375 0 
L 57.40625 0 
L 57.40625 3.59375 
L 57 3.59375 
C 50.59375 3.59375 49.5 4.296875 49.5 8.28125 
L 49.5 12.28125 
L 49.5 25.546875 
C 49.5 35.53125 54 41.921875 61 41.921875 
C 64.296875 41.921875 67 40.015625 68.296875 36.921875 
C 69.203125 34.734375 69.5 32.53125 69.5 28.640625 
L 69.5 12.28125 
L 69.5 8.28125 
C 69.5 4.296875 68.40625 3.59375 61.90625 3.59375 
L 61.5 3.59375 
L 61.5 0 
L 86.796875 0 
L 86.796875 3.59375 
L 86.40625 3.59375 
C 80 3.59375 78.90625 4.296875 78.90625 8.390625 
L 78.90625 12.28125 
L 78.90625 30.640625 
C 78.90625 36.828125 78.296875 38.921875 75.703125 42.3125 
C 72.796875 46.015625 68.703125 48 63.90625 48 
C 57.40625 48 52.59375 44.9375 48.296875 38.109375 
C 46.59375 44.046875 41.203125 48 34.5 48 
C 28.5 48 24 45.140625 20.09375 38.921875 
z
" id="Century_Schoolbook_L_Roman-109"/>
      <path d="M 46.5 23 
C 46.59375 37.8125 38.09375 48.28125 25.90625 48.28125 
C 13.09375 48.28125 3.5 37.25 3.5 22.34375 
C 3.5 8.4375 12.59375 -1 26.09375 -1 
C 35.59375 -1 42.40625 3.6875 46.5 13.1875 
L 43 15.09375 
C 38.90625 7.390625 34.703125 4.390625 28 4.390625 
C 22.90625 4.390625 19.203125 6.59375 16.59375 11 
C 14.796875 14 14 17.5 14.09375 23 
z
M 14.203125 27.296875 
C 14.203125 30.34375 14.59375 32.5 15.59375 35.25 
C 17.703125 41.140625 20.90625 44 25.703125 44 
C 31.796875 44 35.796875 38.78125 35.796875 30.921875 
C 35.796875 28.078125 34.90625 27.296875 31.703125 27.296875 
z
" id="Century_Schoolbook_L_Roman-101"/>
     </defs>
     <g transform="translate(220.063945 273.24577)scale(0.18 -0.18)">
      <use transform="translate(0 0.343476)scale(0.996264)" xlink:href="#Century_Schoolbook_L_Roman-84"/>
      <use transform="translate(66.450031 0.343476)scale(0.996264)" xlink:href="#Century_Schoolbook_L_Roman-105"/>
      <use transform="translate(97.831344 0.343476)scale(0.996264)" xlink:href="#Century_Schoolbook_L_Roman-109"/>
      <use transform="translate(186.398251 0.343476)scale(0.996264)" xlink:href="#Century_Schoolbook_L_Roman-101"/>
     </g>
    </g>
   </g>
   <g id="matplotlib.axis_2">
    <g id="ytick_1">
     <g id="line2d_5">
      <defs>
       <path d="M 0 0 
L -3.5 0 
" id="m8575fef175" style="stroke:#000000;stroke-width:0.8;"/>
      </defs>
      <g>
       <use style="stroke:#000000;stroke-width:0.8;" x="65.32538" xlink:href="#m8575fef175" y="230.88"/>
      </g>
     </g>
     <g id="text_6">
      <!-- $0$ -->
      <g transform="translate(50.07025 237.548975)scale(0.18 -0.18)">
       <use transform="scale(0.996264)" xlink:href="#CMR17-48"/>
      </g>
     </g>
    </g>
    <g id="ytick_2">
     <g id="line2d_6">
      <g>
       <use style="stroke:#000000;stroke-width:0.8;" x="65.32538" xlink:href="#m8575fef175" y="163.16169"/>
      </g>
     </g>
     <g id="text_7">
      <!-- $100$ -->
      <defs>
       <path d="M 26.59375 63.40625 
C 26.59375 65.5 26.5 65.5 25.09375 65.5 
C 21.203125 61.1875 15.296875 59.796875 9.703125 59.796875 
C 9.40625 59.796875 8.90625 59.796875 8.796875 59.5 
C 8.703125 59.296875 8.703125 59.09375 8.703125 57 
C 11.796875 57 17 57.59375 21 59.984375 
L 21 7.203125 
C 21 3.6875 20.796875 2.5 12.203125 2.5 
L 9.203125 2.5 
L 9.203125 0 
C 14 0 19 0 23.796875 0 
C 28.59375 0 33.59375 0 38.40625 0 
L 38.40625 2.5 
L 35.40625 2.5 
C 26.796875 2.5 26.59375 3.59375 26.59375 7.15625 
z
" id="CMR17-49"/>
      </defs>
      <g transform="translate(33.56 169.830665)scale(0.18 -0.18)">
       <use transform="scale(0.996264)" xlink:href="#CMR17-49"/>
       <use transform="translate(45.690477 0)scale(0.996264)" xlink:href="#CMR17-48"/>
       <use transform="translate(91.380954 0)scale(0.996264)" xlink:href="#CMR17-48"/>
      </g>
     </g>
    </g>
    <g id="ytick_3">
     <g id="line2d_7">
      <g>
       <use style="stroke:#000000;stroke-width:0.8;" x="65.32538" xlink:href="#m8575fef175" y="95.44338"/>
      </g>
     </g>
     <g id="text_8">
      <!-- $200$ -->
      <g transform="translate(33.56 102.112355)scale(0.18 -0.18)">
       <use transform="scale(0.996264)" xlink:href="#CMR17-50"/>
       <use transform="translate(45.690477 0)scale(0.996264)" xlink:href="#CMR17-48"/>
       <use transform="translate(91.380954 0)scale(0.996264)" xlink:href="#CMR17-48"/>
      </g>
     </g>
    </g>
    <g id="ytick_4">
     <g id="line2d_8">
      <g>
       <use style="stroke:#000000;stroke-width:0.8;" x="65.32538" xlink:href="#m8575fef175" y="27.72507"/>
      </g>
     </g>
     <g id="text_9">
      <!-- $300$ -->
      <defs>
       <path d="M 22.09375 33.703125 
C 31 33.703125 34.90625 25.96875 34.90625 17.03125 
C 34.90625 5 28.5 0.390625 22.703125 0.390625 
C 17.40625 0.390625 8.796875 3.03125 6.09375 10.828125 
C 6.59375 10.625 7.09375 10.625 7.59375 10.625 
C 10 10.625 11.796875 12.21875 11.796875 14.8125 
C 11.796875 17.703125 9.59375 19 7.59375 19 
C 5.90625 19 3.296875 18.203125 3.296875 14.46875 
C 3.296875 5.234375 12.296875 -2 22.90625 -2 
C 34 -2 42.5 6.71875 42.5 16.953125 
C 42.5 26.671875 34.5 33.703125 25 34.796875 
C 32.59375 36.375 39.90625 43.0625 39.90625 52.015625 
C 39.90625 59.6875 32 65.296875 23 65.296875 
C 13.90625 65.296875 5.90625 59.828125 5.90625 52.015625 
C 5.90625 48.59375 8.5 48 9.796875 48 
C 11.90625 48 13.703125 49.296875 13.703125 51.890625 
C 13.703125 54.46875 11.90625 55.765625 9.796875 55.765625 
C 9.40625 55.765625 8.90625 55.765625 8.5 55.578125 
C 11.40625 61.859375 19.296875 63 22.796875 63 
C 26.296875 63 32.90625 61.328125 32.90625 51.875 
C 32.90625 49.109375 32.5 44.1875 29.09375 39.84375 
C 26.09375 36 22.703125 36 19.40625 35.6875 
C 18.90625 35.6875 16.59375 35.453125 16.203125 35.453125 
C 15.5 35.359375 15.09375 35.265625 15.09375 34.5 
C 15.09375 33.796875 15.203125 33.703125 17.203125 33.703125 
z
" id="CMR17-51"/>
      </defs>
      <g transform="translate(33.56 34.394045)scale(0.18 -0.18)">
       <use transform="scale(0.996264)" xlink:href="#CMR17-51"/>
       <use transform="translate(45.690477 0)scale(0.996264)" xlink:href="#CMR17-48"/>
       <use transform="translate(91.380954 0)scale(0.996264)" xlink:href="#CMR17-48"/>
      </g>
     </g>
    </g>
    <g id="text_10">
     <!-- X Load -->
     <defs>
      <path d="M 38.90625 39.890625 
L 52.203125 57.9375 
C 57.796875 65.40625 60.59375 67.3125 65.90625 67.3125 
L 67.5 67.3125 
L 67.5 72 
L 40 72 
L 40 67.3125 
L 41.40625 67.3125 
C 46.203125 67.3125 48.296875 66.109375 48.296875 63.40625 
C 48.296875 62.3125 48 61.609375 46.90625 60.03125 
L 36.09375 44.375 
L 22.796875 63.515625 
C 22.09375 64.515625 21.703125 65.515625 21.703125 66.015625 
C 21.703125 67 22.703125 67.3125 26.5 67.3125 
L 30.296875 67.3125 
L 30.296875 72 
L -0.59375 72 
L -0.59375 67.3125 
L 1.09375 67.3125 
C 6 67.3125 7.203125 66.8125 9.5 63.515625 
L 29.203125 35.109375 
L 13 12.671875 
C 9.09375 7.09375 5 4.6875 -0.09375 4.6875 
L -0.5 4.6875 
L -0.5 0 
L 27.90625 0 
L 27.90625 4.6875 
L 25.40625 4.6875 
C 21.40625 4.6875 18.90625 6.484375 18.90625 9.484375 
C 18.90625 10.78125 19.5 12.359375 20.5 13.859375 
L 32.09375 30.609375 
L 47 9.40625 
C 47.796875 8.203125 48.296875 7.09375 48.296875 6.296875 
C 48.296875 4.6875 47.90625 4.6875 41.59375 4.6875 
L 38.796875 4.6875 
L 38.796875 0 
L 71.59375 0 
L 71.59375 4.6875 
L 70.40625 4.6875 
C 64 4.6875 63.296875 4.984375 59.90625 9.875 
z
" id="Century_Schoolbook_L_Roman-88"/>
      <path d="M 64.59375 27.328125 
L 60.203125 27.328125 
C 59.203125 20.546875 56.796875 13.765625 54.203125 10.484375 
C 51.09375 6.59375 45.296875 4.6875 36.90625 4.6875 
L 32.703125 4.6875 
C 29.703125 4.6875 27.203125 5.296875 26.296875 6.1875 
C 25.59375 6.78125 25.5 7.390625 25.5 9.484375 
L 25.5 59.734375 
L 25.5 62.609375 
C 25.5 66.8125 26.40625 67.3125 34.5 67.3125 
L 36.296875 67.3125 
L 36.296875 72 
L 3.5 72 
L 3.5 67.3125 
L 5.296875 67.3125 
C 13.40625 67.3125 14.296875 66.8125 14.296875 62.609375 
L 14.296875 59.734375 
L 14.296875 12.28125 
L 14.296875 9.375 
C 14.296875 5.1875 13.40625 4.6875 5.296875 4.6875 
L 3.5 4.6875 
L 3.5 0 
L 62.5 0 
z
" id="Century_Schoolbook_L_Roman-76"/>
      <path d="M 25.203125 48.28125 
C 13 48.28125 3.40625 37.453125 3.40625 23.546875 
C 3.40625 9.9375 13 -1 25 -1 
C 37 -1 46.59375 9.9375 46.59375 23.640625 
C 46.59375 37.25 37 48.28125 25.203125 48.28125 
z
M 25.203125 44 
C 32.203125 44 36.09375 36.75 36.09375 23.640625 
C 36.09375 10.453125 32.203125 3.296875 25 3.296875 
C 17.796875 3.296875 13.90625 10.453125 13.90625 23.546875 
C 13.90625 37.046875 17.703125 44 25.203125 44 
z
" id="Century_Schoolbook_L_Roman-111"/>
      <path d="M 45.203125 32.578125 
C 45.203125 38.796875 44.09375 41.96875 41.203125 44.34375 
C 37.90625 46.90625 33 48.28125 26.59375 48.28125 
C 15.40625 48.28125 7.09375 43.046875 7.09375 35.921875 
C 7.09375 32.15625 9.40625 29.78125 12.90625 29.78125 
C 16 29.78125 18.296875 31.859375 18.296875 34.8125 
C 18.296875 36.109375 17.796875 37.484375 16.796875 38.875 
C 16.203125 39.546875 16.09375 39.84375 16.09375 40.15625 
C 16.09375 42.21875 20.203125 44 25 44 
C 28.09375 44 31.59375 43.015625 33.203125 41.53125 
C 35.09375 39.953125 35.796875 37.578125 35.796875 33.125 
L 35.796875 29.28125 
C 25.296875 27.484375 22.09375 26.6875 17.203125 24.8125 
C 8.59375 21.609375 4.40625 16.9375 4.40625 10.65625 
C 4.40625 3.578125 10.09375 -1 18.90625 -1 
C 25.796875 -1 32 1.859375 36.296875 7.0625 
C 37.90625 1.984375 40.40625 0 45.09375 0 
C 49.59375 0 54.296875 2.890625 54.296875 5.78125 
C 54.296875 6.46875 53.796875 6.96875 53.296875 6.96875 
C 52.90625 6.96875 52.5 6.875 51.796875 6.578125 
C 50.203125 6 49.796875 5.890625 49 5.890625 
C 46.203125 5.890625 45.203125 7.78125 45.203125 12.71875 
z
M 35.796875 20.46875 
C 35.796875 14.46875 35.5 13.078125 33.796875 10.484375 
C 31.296875 6.78125 26.703125 4.296875 22.40625 4.296875 
C 17.90625 4.296875 14.5 7.59375 14.5 12.078125 
C 14.5 16.265625 16.59375 19.265625 21 21.359375 
C 24.09375 22.75 28 23.75 35.796875 25.046875 
z
" id="Century_Schoolbook_L_Roman-97"/>
      <path d="M 38 0 
L 55.40625 0 
L 55.40625 4.703125 
L 53.59375 4.703125 
C 48.203125 4.703125 47.40625 5.703125 47.40625 11.96875 
L 47.40625 73.78125 
L 27.796875 73.78125 
L 27.796875 69 
L 33.703125 69 
C 37.296875 69 38 68.28125 38 63.921875 
L 38 41 
C 34.296875 46.09375 30 48.390625 24.203125 48.390625 
C 12.90625 48.390625 4.296875 37.546875 4.296875 23.203125 
C 4.296875 9.0625 12.59375 -1 24.203125 -1 
C 30.5 -1 34.796875 1.671875 38 7.59375 
z
M 26.203125 43 
C 30.296875 43 34.203125 40.03125 36 35.4375 
C 37.203125 32.453125 37.90625 28.28125 37.90625 23.515625 
C 37.90625 11.96875 33.296875 4.390625 26.09375 4.390625 
C 19.09375 4.390625 14.796875 10.96875 14.796875 22.015625 
C 14.796875 27.890625 15.40625 32.359375 16.703125 35.734375 
C 18.40625 40.125 22.09375 43 26.203125 43 
z
" id="Century_Schoolbook_L_Roman-100"/>
     </defs>
     <g transform="translate(24.87013 152.2107)rotate(-90)scale(0.18 -0.18)">
      <use transform="translate(0 0.343476)scale(0.996264)" xlink:href="#Century_Schoolbook_L_Roman-88"/>
      <use transform="translate(97.831344 0.343476)scale(0.996264)" xlink:href="#Century_Schoolbook_L_Roman-76"/>
      <use transform="translate(164.281375 0.343476)scale(0.996264)" xlink:href="#Century_Schoolbook_L_Roman-111"/>
      <use transform="translate(214.094576 0.343476)scale(0.996264)" xlink:href="#Century_Schoolbook_L_Roman-97"/>
      <use transform="translate(269.486253 0.343476)scale(0.996264)" xlink:href="#Century_Schoolbook_L_Roman-100"/>
     </g>
    </g>
   </g>
   <g id="line2d_9">
    <path clip-path="url(#p1003b234ba)" d="M 65.32538 230.88 
L 77.005202 230.88 
L 77.1252 222.753803 
L 77.365196 222.753803 
L 77.525194 207.855775 
L 77.76519 207.855775 
L 77.885188 199.052394 
L 78.005186 199.052394 
L 78.325181 222.302347 
L 78.645177 225.462535 
L 78.885173 225.462535 
L 79.08517 224.785352 
L 79.245167 224.785352 
L 79.405165 230.202817 
L 79.685161 230.202817 
L 79.845158 227.494085 
L 80.045155 227.494085 
L 80.205153 228.848451 
L 80.445149 228.848451 
L 80.565147 230.88 
L 80.805144 230.88 
L 80.965141 230.202817 
L 81.205137 230.202817 
L 81.325136 229.525634 
L 81.925126 229.525634 
L 82.085124 228.848451 
L 82.36512 228.848451 
L 82.525117 230.88 
L 82.765114 230.88 
L 82.885112 178.059718 
L 83.125108 178.059718 
L 83.285106 205.824225 
L 83.485103 205.824225 
L 83.6451 197.698028 
L 83.885096 197.698028 
L 84.005095 227.494085 
L 84.605085 227.494085 
L 84.765083 228.171268 
L 85.445073 228.171268 
L 85.565071 228.848451 
L 85.805067 228.848451 
L 85.965065 229.525634 
L 86.205061 229.525634 
L 86.325059 230.202817 
L 87.005049 230.202817 
L 87.125047 230.88 
L 88.925019 230.88 
L 89.085017 230.202817 
L 89.685008 230.202817 
L 89.845005 230.88 
L 90.444996 230.88 
L 90.564994 230.202817 
L 91.564979 230.202817 
L 91.684977 230.88 
L 92.004972 230.88 
L 92.124971 230.202817 
L 92.324968 230.202817 
L 92.444966 230.88 
L 92.764961 230.88 
L 92.884959 230.202817 
L 94.684931 230.202817 
L 94.844929 229.525634 
L 95.004927 229.525634 
L 95.124925 228.848451 
L 99.604856 228.848451 
L 99.764854 228.171268 
L 100.04485 228.171268 
L 100.204847 228.848451 
L 104.60478 228.848451 
L 104.764777 229.525634 
L 106.924744 229.525634 
L 107.084742 230.202817 
L 107.324738 230.202817 
L 107.444737 229.525634 
L 108.044727 229.525634 
L 108.204725 230.202817 
L 108.484721 230.202817 
L 108.644718 229.525634 
L 111.204679 229.525634 
L 111.324677 230.202817 
L 112.684656 230.202817 
L 112.844654 229.525634 
L 113.044651 229.525634 
L 113.204649 230.202817 
L 116.204603 230.202817 
L 116.324601 229.525634 
L 121.884516 229.525634 
L 122.004514 228.848451 
L 126.924439 228.848451 
L 127.084436 229.525634 
L 128.044422 229.525634 
L 128.204419 228.848451 
L 128.364417 228.848451 
L 128.564414 229.525634 
L 129.204404 229.525634 
L 129.324402 228.848451 
L 130.004392 228.848451 
L 130.12439 229.525634 
L 130.76438 229.525634 
L 130.884378 228.848451 
L 131.124375 228.848451 
L 131.284372 229.525634 
L 132.324356 229.525634 
L 132.444355 230.202817 
L 132.604352 230.202817 
L 132.76435 229.525634 
L 133.444339 229.525634 
L 133.564337 230.202817 
L 138.044269 230.202817 
L 138.284265 230.88 
L 138.804257 230.88 
L 138.964255 230.202817 
L 139.564246 230.202817 
L 139.684244 230.88 
L 140.004239 230.88 
L 140.124237 230.202817 
L 140.364234 230.202817 
L 140.564231 230.88 
L 140.764227 230.88 
L 140.884226 230.202817 
L 141.484216 230.202817 
L 141.644214 230.88 
L 141.88421 230.88 
L 142.004209 230.202817 
L 142.244205 230.202817 
L 142.404202 230.88 
L 142.604199 230.88 
L 142.764197 230.202817 
L 143.444187 230.202817 
L 143.564185 229.525634 
L 144.204175 229.525634 
L 144.324173 228.848451 
L 149.924088 228.848451 
L 150.084085 228.171268 
L 150.684076 228.171268 
L 150.844073 228.848451 
L 151.124069 228.848451 
L 151.284067 228.171268 
L 151.484064 228.171268 
L 151.644061 228.848451 
L 153.00404 228.848451 
L 153.124039 229.525634 
L 153.764029 229.525634 
L 153.884027 228.848451 
L 154.204022 228.848451 
L 154.32402 229.525634 
L 156.483987 229.525634 
L 156.643985 149.618028 
L 156.883981 149.618028 
L 157.003979 209.887324 
L 157.243976 209.887324 
L 157.403973 196.343662 
L 157.60397 196.343662 
L 157.763968 226.139718 
L 158.003964 226.139718 
L 158.123962 227.494085 
L 158.363959 227.494085 
L 158.523956 228.171268 
L 158.763953 228.171268 
L 158.883951 229.525634 
L 159.123947 229.525634 
L 159.283945 230.202817 
L 159.483942 230.202817 
L 159.643939 230.88 
L 160.683923 230.88 
L 160.843921 230.202817 
L 164.203869 230.202817 
L 164.323868 230.88 
L 164.363867 230.88 
L 164.643863 230.202817 
L 167.243823 230.202817 
L 167.403821 229.525634 
L 167.603817 229.525634 
L 167.763815 228.848451 
L 172.603741 228.848451 
L 172.763739 228.171268 
L 173.003735 228.171268 
L 173.123733 228.848451 
L 177.563665 228.848451 
L 177.683663 229.525634 
L 178.363653 229.525634 
L 178.523651 228.848451 
L 178.763647 228.848451 
L 178.883645 229.525634 
L 181.803601 229.525634 
L 181.963598 228.848451 
L 182.203594 228.848451 
L 182.323593 229.525634 
L 184.48356 229.525634 
L 184.643557 230.202817 
L 185.243548 230.202817 
L 185.403546 229.525634 
L 185.683541 229.525634 
L 185.843539 230.202817 
L 186.363531 230.202817 
L 186.523528 229.525634 
L 186.803524 229.525634 
L 186.963522 230.202817 
L 187.203518 230.202817 
L 187.323516 229.525634 
L 187.563513 229.525634 
L 187.683511 230.202817 
L 188.763494 230.202817 
L 188.883492 229.525634 
L 194.483407 229.525634 
L 194.643404 228.848451 
L 195.243395 228.848451 
L 195.403393 229.525634 
L 195.56339 229.525634 
L 195.763387 228.848451 
L 199.48333 228.848451 
L 199.643328 229.525634 
L 200.203319 229.525634 
L 200.443316 228.848451 
L 202.203289 228.848451 
L 202.323287 229.525634 
L 202.563283 229.525634 
L 202.683282 228.848451 
L 202.923278 228.848451 
L 203.083275 229.525634 
L 205.603237 229.525634 
L 205.763234 230.202817 
L 206.003231 230.202817 
L 206.123229 229.525634 
L 206.363225 229.525634 
L 206.523223 230.202817 
L 209.883172 230.202817 
L 210.00317 230.88 
L 210.243166 230.88 
L 210.403164 230.202817 
L 213.323119 230.202817 
L 213.443117 230.88 
L 213.683113 230.88 
L 213.843111 230.202817 
L 214.043108 230.202817 
L 214.203106 230.88 
L 214.483101 230.88 
L 214.643099 230.202817 
L 214.883095 230.202817 
L 215.003093 230.88 
L 215.24309 230.88 
L 215.403087 230.202817 
L 216.003078 230.202817 
L 216.123076 229.525634 
L 216.243074 229.525634 
L 216.52307 228.848451 
L 222.122985 228.848451 
L 222.282982 228.171268 
L 222.482979 228.171268 
L 222.642977 228.848451 
L 226.002925 228.848451 
L 226.202922 229.525634 
L 226.36292 229.525634 
L 226.522917 228.848451 
L 226.762914 228.848451 
L 226.882912 229.525634 
L 229.042879 229.525634 
L 229.202876 179.414085 
L 229.442873 179.414085 
L 229.562871 161.130141 
L 229.802867 161.130141 
L 229.962865 176.705352 
L 230.202861 176.705352 
L 230.322859 227.494085 
L 230.562856 227.494085 
L 230.682854 229.525634 
L 231.762837 229.525634 
L 231.882835 230.202817 
L 232.122832 230.202817 
L 232.282829 230.88 
L 233.242815 230.88 
L 233.402812 230.202817 
L 233.682808 230.202817 
L 233.842805 230.88 
L 234.042802 230.88 
L 234.2028 230.202817 
L 239.44272 230.202817 
L 239.562718 229.525634 
L 240.202708 229.525634 
L 240.322706 228.848451 
L 244.362645 228.848451 
L 244.562642 228.171268 
L 245.202632 228.171268 
L 245.32263 228.848451 
L 250.56255 228.848451 
L 250.682548 229.525634 
L 254.002498 229.525634 
L 254.122496 228.848451 
L 254.362492 228.848451 
L 254.52249 229.525634 
L 257.882438 229.525634 
L 258.002436 230.202817 
L 259.002421 230.202817 
L 259.122419 229.525634 
L 259.76241 229.525634 
L 259.882408 230.202817 
L 261.68238 230.202817 
L 261.842378 229.525634 
L 267.442292 229.525634 
L 267.56229 228.848451 
L 272.80221 228.848451 
L 272.962208 229.525634 
L 273.202204 229.525634 
L 273.322202 228.848451 
L 273.922193 228.848451 
L 274.082191 229.525634 
L 274.362186 229.525634 
L 274.522184 228.848451 
L 276.242158 228.848451 
L 276.402155 229.525634 
L 278.562122 229.525634 
L 278.68212 230.202817 
L 279.322111 230.202817 
L 279.442109 229.525634 
L 279.762104 229.525634 
L 279.882102 230.202817 
L 286.601999 230.202817 
L 286.761997 230.88 
L 287.001993 230.88 
L 287.121992 230.202817 
L 288.201975 230.202817 
L 288.321973 229.525634 
L 289.321958 229.525634 
L 289.441956 228.848451 
L 294.761875 228.848451 
L 294.881873 228.171268 
L 295.041871 228.171268 
L 295.201868 228.848451 
L 299.321805 228.848451 
L 299.441803 229.525634 
L 301.60177 229.525634 
L 301.761768 205.824225 
L 302.001764 205.824225 
L 302.121762 117.790423 
L 302.361759 117.790423 
L 302.521756 167.901972 
L 302.761753 167.901972 
L 302.881751 86.64 
L 303.201746 86.64 
L 303.321744 226.816901 
L 303.56174 226.816901 
L 303.681739 168.579155 
L 303.921735 168.579155 
L 304.081732 212.596056 
L 304.321729 212.596056 
L 304.441727 213.950423 
L 304.681723 213.950423 
L 304.841721 214.627606 
L 307.001688 214.627606 
L 307.121686 215.304789 
L 308.921658 215.304789 
L 309.081656 223.430986 
L 309.321652 223.430986 
L 309.441651 115.08169 
L 309.681647 115.08169 
L 309.841644 191.60338 
L 310.041641 191.60338 
L 310.201639 154.35831 
L 310.441635 154.35831 
L 310.561633 227.494085 
L 310.881629 227.494085 
L 311.001627 228.171268 
L 312.361606 228.171268 
L 312.521603 228.848451 
L 313.121594 228.848451 
L 313.281592 229.525634 
L 313.921582 229.525634 
L 314.08158 230.202817 
L 314.321576 230.202817 
L 314.441574 230.88 
L 317.36153 230.88 
L 317.521527 230.202817 
L 318.121518 230.202817 
L 318.281515 230.88 
L 319.3215 230.88 
L 319.441498 230.202817 
L 321.201471 230.202817 
L 321.321469 229.525634 
L 322.361453 229.525634 
L 322.521451 228.848451 
L 330.801324 228.848451 
L 330.961322 229.525634 
L 331.201318 229.525634 
L 331.321316 228.848451 
L 331.561313 228.848451 
L 331.681311 229.525634 
L 338.881201 229.525634 
L 339.001199 230.202817 
L 340.801171 230.202817 
L 340.961169 229.525634 
L 341.201165 229.525634 
L 341.321164 230.202817 
L 343.441131 230.202817 
L 343.561129 229.525634 
L 345.801095 229.525634 
L 345.961093 230.202817 
L 346.12109 230.202817 
L 346.281088 229.525634 
L 348.801049 229.525634 
L 348.961047 228.848451 
L 349.241043 228.848451 
L 349.40104 229.525634 
L 349.601037 229.525634 
L 349.761035 228.848451 
L 350.001031 228.848451 
L 350.121029 229.525634 
L 350.361025 229.525634 
L 350.521023 228.848451 
L 353.440978 228.848451 
L 353.560977 229.525634 
L 356.920925 229.525634 
L 357.080923 228.848451 
L 357.320919 228.848451 
L 357.440917 229.525634 
L 359.560885 229.525634 
L 359.680883 230.202817 
L 363.80082 230.202817 
L 363.960818 230.88 
L 364.560808 230.88 
L 364.680807 230.202817 
L 367.320766 230.202817 
L 367.440764 230.88 
L 368.040755 230.88 
L 368.200753 230.202817 
L 370.000725 230.202817 
L 370.120724 229.525634 
L 371.120708 229.525634 
L 371.280706 228.848451 
L 377.680608 228.848451 
L 377.840606 228.171268 
L 378.000603 228.171268 
L 378.120601 228.848451 
L 379.560579 228.848451 
L 379.680577 229.525634 
L 382.680532 229.525634 
L 382.840529 205.824225 
L 383.000527 205.824225 
L 383.120525 117.790423 
L 383.360521 117.790423 
L 383.520519 198.375211 
L 383.800515 198.375211 
L 383.960512 111.018592 
L 384.200508 111.018592 
L 384.320507 188.217465 
L 384.560503 188.217465 
L 384.7605 201.083944 
L 384.920497 201.083944 
L 385.080495 213.273239 
L 385.320491 213.273239 
L 385.440489 215.304789 
L 417.48 215.304789 
L 417.48 215.304789 
" style="fill:none;stroke:#e41a1c;stroke-linecap:square;stroke-width:2;"/>
   </g>
   <g id="line2d_10">
    <path clip-path="url(#p1003b234ba)" d="M 65.32538 230.88 
L 110.804685 230.88 
L 110.964683 171.287887 
L 111.204679 171.287887 
L 111.324677 222.07662 
L 111.564674 222.07662 
L 111.724671 226.816901 
L 111.924668 226.816901 
L 112.084666 224.785352 
L 112.364661 224.785352 
L 112.524659 175.350986 
L 112.764655 175.350986 
L 112.884653 227.494085 
L 113.12465 227.494085 
L 113.284647 228.848451 
L 114.684626 228.848451 
L 114.844623 229.525634 
L 115.08462 229.525634 
L 115.204618 230.202817 
L 115.804609 230.202817 
L 115.964606 230.88 
L 117.764579 230.88 
L 117.884577 230.202817 
L 118.124573 230.202817 
L 118.284571 230.88 
L 118.524567 230.88 
L 118.644565 230.202817 
L 121.564521 230.202817 
L 121.724518 230.88 
L 121.924515 230.88 
L 122.084513 230.202817 
L 122.324509 230.202817 
L 122.444507 230.88 
L 122.684504 230.88 
L 122.844501 230.202817 
L 123.124497 230.202817 
L 123.284495 230.88 
L 123.524491 230.88 
L 123.644489 230.202817 
L 125.084467 230.202817 
L 125.204465 229.525634 
L 125.324463 229.525634 
L 125.52446 228.848451 
L 128.884409 228.848451 
L 129.004407 228.171268 
L 129.244403 228.171268 
L 129.404401 228.848451 
L 135.004315 228.848451 
L 135.164313 229.525634 
L 135.444309 229.525634 
L 135.604306 228.848451 
L 135.764304 228.848451 
L 135.884302 229.525634 
L 142.324204 229.525634 
L 142.444202 230.202817 
L 144.644168 230.202817 
L 144.764166 229.525634 
L 145.004163 229.525634 
L 145.16416 230.202817 
L 146.924133 230.202817 
L 147.084131 229.525634 
L 153.084039 229.525634 
L 153.204037 228.848451 
L 158.083963 228.848451 
L 158.203961 229.525634 
L 159.203946 229.525634 
L 159.323944 228.848451 
L 161.52391 228.848451 
L 161.643909 229.525634 
L 163.803876 229.525634 
L 163.963873 230.202817 
L 164.203869 230.202817 
L 164.323868 229.525634 
L 164.643863 229.525634 
L 164.763861 230.202817 
L 165.763846 230.202817 
L 165.883844 229.525634 
L 166.12384 229.525634 
L 166.283838 230.202817 
L 173.803723 230.202817 
L 173.96372 229.525634 
L 174.563711 229.525634 
L 174.723709 228.848451 
L 177.643664 228.848451 
L 177.763662 228.171268 
L 178.443652 228.171268 
L 178.603649 228.848451 
L 179.563635 228.848451 
L 179.723632 228.171268 
L 180.243624 228.171268 
L 180.443621 228.848451 
L 183.763571 228.848451 
L 183.883569 229.525634 
L 184.203564 229.525634 
L 184.323562 228.848451 
L 184.563558 228.848451 
L 184.723556 229.525634 
L 187.203518 229.525634 
L 187.403515 106.27831 
L 187.643511 106.27831 
L 187.763509 187.540282 
L 188.003506 187.540282 
L 188.163503 220.04507 
L 188.3635 220.04507 
L 188.523498 226.816901 
L 188.803494 226.816901 
L 188.963491 227.494085 
L 189.123489 227.494085 
L 189.283486 228.171268 
L 189.523483 228.171268 
L 189.72348 229.525634 
L 189.923476 229.525634 
L 190.083474 230.202817 
L 190.32347 230.202817 
L 190.443469 230.88 
L 192.243441 230.88 
L 192.403439 230.202817 
L 192.563436 230.202817 
L 192.723434 230.88 
L 193.003429 230.88 
L 193.163427 229.525634 
L 193.363424 229.525634 
L 193.523421 230.88 
L 193.803417 230.88 
L 193.963415 229.525634 
L 194.123412 229.525634 
L 194.28341 228.848451 
L 194.523406 228.848451 
L 194.643404 229.525634 
L 194.9234 229.525634 
L 195.083398 228.171268 
L 195.323394 228.171268 
L 195.443392 230.202817 
L 195.683388 230.202817 
L 195.843386 228.171268 
L 196.083382 228.171268 
L 196.203381 230.202817 
L 196.443377 230.202817 
L 196.603374 227.494085 
L 196.803371 227.494085 
L 196.963369 229.525634 
L 197.243365 229.525634 
L 197.403362 228.171268 
L 197.643359 228.171268 
L 197.763357 229.525634 
L 198.003353 229.525634 
L 198.163351 227.494085 
L 198.363348 227.494085 
L 198.523345 228.171268 
L 198.763341 228.171268 
L 198.88334 227.494085 
L 199.52333 227.494085 
L 199.643328 228.171268 
L 199.883324 228.171268 
L 200.003322 226.816901 
L 200.323318 226.816901 
L 200.443316 228.848451 
L 200.683312 228.848451 
L 200.84331 226.139718 
L 201.083306 226.139718 
L 201.203304 228.171268 
L 201.4433 228.171268 
L 201.643297 226.816901 
L 201.803295 226.816901 
L 201.963293 228.171268 
L 202.203289 228.171268 
L 202.323287 226.816901 
L 202.563283 226.816901 
L 202.723281 228.171268 
L 203.003277 228.171268 
L 203.163274 227.494085 
L 203.763265 227.494085 
L 203.883263 228.171268 
L 204.12326 228.171268 
L 204.283257 226.816901 
L 204.523253 226.816901 
L 204.643252 228.848451 
L 204.923247 228.848451 
L 205.083245 226.816901 
L 205.243242 226.816901 
L 205.40324 228.848451 
L 205.563238 228.848451 
L 205.763234 226.816901 
L 206.08323 226.816901 
L 206.203228 228.171268 
L 206.443224 228.171268 
L 206.603222 227.494085 
L 207.203212 227.494085 
L 207.323211 228.848451 
L 207.563207 228.848451 
L 207.723205 227.494085 
L 208.0032 227.494085 
L 208.163198 228.848451 
L 208.363195 228.848451 
L 208.523192 227.494085 
L 208.763189 227.494085 
L 208.883187 229.525634 
L 209.123183 229.525634 
L 209.283181 228.171268 
L 209.523177 228.171268 
L 209.643175 229.525634 
L 209.883172 229.525634 
L 210.00317 228.171268 
L 210.243166 228.171268 
L 210.403164 228.848451 
L 211.443148 228.848451 
L 211.603145 229.525634 
L 211.803142 229.525634 
L 211.96314 228.848451 
L 212.203136 228.848451 
L 212.323134 229.525634 
L 212.643129 229.525634 
L 212.763128 228.171268 
L 213.003124 228.171268 
L 213.163121 229.525634 
L 213.363118 229.525634 
L 213.523116 228.171268 
L 213.763112 228.171268 
L 213.88311 229.525634 
L 214.123107 229.525634 
L 214.283104 228.848451 
L 214.523101 228.848451 
L 214.643099 229.525634 
L 214.883095 229.525634 
L 215.003093 228.848451 
L 215.683083 228.848451 
L 215.84308 229.525634 
L 216.083077 229.525634 
L 216.203075 228.848451 
L 216.443071 228.848451 
L 216.603069 230.202817 
L 216.803066 230.202817 
L 216.963063 228.848451 
L 217.20306 228.848451 
L 217.323058 229.525634 
L 217.563054 229.525634 
L 217.763051 228.848451 
L 217.923049 228.848451 
L 218.083046 229.525634 
L 218.363042 229.525634 
L 218.52304 228.848451 
L 218.683037 228.848451 
L 218.843035 229.525634 
L 219.523024 229.525634 
L 219.643022 228.848451 
L 219.883019 228.848451 
L 220.003017 229.525634 
L 220.243013 229.525634 
L 220.403011 228.848451 
L 220.683007 228.848451 
L 220.843004 229.525634 
L 221.003002 229.525634 
L 221.162999 228.848451 
L 221.442995 228.848451 
L 221.602992 229.525634 
L 221.682991 229.525634 
L 221.962987 228.848451 
L 222.202983 228.848451 
L 222.322981 229.525634 
L 222.562978 229.525634 
L 222.722975 228.848451 
L 222.922972 228.848451 
L 223.08297 229.525634 
L 223.322966 229.525634 
L 223.442964 228.848451 
L 223.762959 228.848451 
L 223.882958 229.525634 
L 224.522948 229.525634 
L 224.642946 228.848451 
L 225.242937 228.848451 
L 225.402934 228.171268 
L 225.642931 228.171268 
L 225.762929 228.848451 
L 226.002925 228.848451 
L 226.162923 228.171268 
L 226.442919 228.171268 
L 226.602916 228.848451 
L 226.762914 228.848451 
L 226.882912 228.171268 
L 227.202907 228.171268 
L 227.322905 228.848451 
L 227.562901 228.848451 
L 227.722899 228.171268 
L 228.682884 228.171268 
L 228.842882 228.848451 
L 234.88279 228.848451 
L 235.002788 229.525634 
L 237.522749 229.525634 
L 237.642747 230.202817 
L 237.922743 230.202817 
L 238.082741 229.525634 
L 238.322737 229.525634 
L 238.442735 230.202817 
L 238.682732 230.202817 
L 238.842729 229.525634 
L 239.882713 229.525634 
L 240.002711 230.202817 
L 246.362614 230.202817 
L 246.522612 229.525634 
L 246.762608 229.525634 
L 246.882606 228.848451 
L 249.88256 228.848451 
L 250.002559 228.171268 
L 250.202556 228.171268 
L 250.322554 228.848451 
L 251.002543 228.848451 
L 251.162541 228.171268 
L 252.52252 228.171268 
L 252.642518 228.848451 
L 252.882515 228.848451 
L 253.002513 228.171268 
L 253.242509 228.171268 
L 253.402507 228.848451 
L 253.682502 228.848451 
L 253.8425 228.171268 
L 254.082496 228.171268 
L 254.202494 228.848451 
L 257.522444 228.848451 
L 257.642442 229.525634 
L 258.242433 229.525634 
L 258.40243 228.848451 
L 259.002421 228.848451 
L 259.202418 229.525634 
L 259.802409 229.525634 
L 259.962406 134.72 
L 260.202403 134.72 
L 260.322401 230.88 
L 260.562397 230.88 
L 260.722395 203.792676 
L 261.002391 203.792676 
L 261.162388 228.848451 
L 262.522367 228.848451 
L 262.642366 229.525634 
L 262.882362 229.525634 
L 263.00236 230.202817 
L 263.322355 230.202817 
L 263.442353 230.88 
L 264.442338 230.88 
L 264.602336 230.202817 
L 264.802333 230.202817 
L 264.96233 229.525634 
L 265.202326 229.525634 
L 265.322325 228.848451 
L 265.562321 228.848451 
L 265.722318 228.171268 
L 266.002314 228.171268 
L 266.162312 227.494085 
L 266.322309 227.494085 
L 266.442307 226.816901 
L 266.762303 226.816901 
L 266.882301 226.139718 
L 268.24228 226.139718 
L 268.402278 225.462535 
L 268.642274 225.462535 
L 268.762272 226.139718 
L 269.082267 226.139718 
L 269.202265 225.462535 
L 270.562245 225.462535 
L 270.722242 224.785352 
L 270.922239 224.785352 
L 271.082237 224.108169 
L 275.202174 224.108169 
L 275.322172 224.785352 
L 275.562168 224.785352 
L 275.722166 224.108169 
L 276.682151 224.108169 
L 276.842149 224.785352 
L 279.762104 224.785352 
L 279.882102 225.462535 
L 280.202097 225.462535 
L 280.322095 224.785352 
L 280.562092 224.785352 
L 280.722089 225.462535 
L 283.242051 225.462535 
L 283.402048 226.139718 
L 283.642045 226.139718 
L 283.762043 225.462535 
L 284.002039 225.462535 
L 284.162037 226.139718 
L 284.362034 226.139718 
L 284.522031 225.462535 
L 284.802027 225.462535 
L 284.962025 226.139718 
L 285.122022 226.139718 
L 285.28202 225.462535 
L 285.562015 225.462535 
L 285.722013 226.139718 
L 285.88201 226.139718 
L 286.002009 225.462535 
L 286.322004 225.462535 
L 286.442002 226.139718 
L 289.761951 226.139718 
L 289.881949 226.816901 
L 290.121946 226.816901 
L 290.281943 226.139718 
L 290.52194 226.139718 
L 290.641938 226.816901 
L 292.081916 226.816901 
L 292.201914 226.139718 
L 292.521909 226.139718 
L 292.641907 226.816901 
L 292.801905 226.816901 
L 292.961902 226.139718 
L 293.241898 226.139718 
L 293.401896 226.816901 
L 293.641892 226.816901 
L 293.76189 226.139718 
L 294.001886 226.139718 
L 294.161884 226.816901 
L 294.361881 226.816901 
L 294.521878 226.139718 
L 294.761875 226.139718 
L 294.881873 226.816901 
L 297.801828 226.816901 
L 297.961826 226.139718 
L 298.241822 226.139718 
L 298.401819 226.816901 
L 298.561817 226.816901 
L 298.721814 226.139718 
L 299.361805 226.139718 
L 299.521802 226.816901 
L 300.521787 226.816901 
L 300.641785 226.139718 
L 300.921781 226.139718 
L 301.081778 226.816901 
L 304.361728 226.816901 
L 304.521726 227.494085 
L 308.201669 227.494085 
L 308.321668 228.171268 
L 309.761646 228.171268 
L 309.881644 228.848451 
L 310.12164 228.848451 
L 310.281638 228.171268 
L 311.681616 228.171268 
L 311.841614 228.848451 
L 315.121564 228.848451 
L 315.281561 229.525634 
L 315.521558 229.525634 
L 315.641556 228.848451 
L 316.241547 228.848451 
L 316.401544 229.525634 
L 316.641541 229.525634 
L 316.761539 228.848451 
L 317.001535 228.848451 
L 317.161533 229.525634 
L 317.801523 229.525634 
L 317.96152 228.848451 
L 318.201517 228.848451 
L 318.321515 229.525634 
L 318.921506 229.525634 
L 319.081503 228.848451 
L 319.3215 228.848451 
L 319.441498 228.171268 
L 327.761371 228.171268 
L 327.881369 228.848451 
L 332.001306 228.848451 
L 332.161303 229.525634 
L 332.3613 229.525634 
L 332.521298 166.547606 
L 332.801294 166.547606 
L 332.961291 183.477183 
L 333.121289 183.477183 
L 333.281286 230.88 
L 333.521283 230.88 
L 333.761279 108.987042 
L 333.921277 108.987042 
L 334.081274 189.571831 
L 334.32127 189.571831 
L 334.441269 200.406761 
L 334.681265 200.406761 
L 334.841263 212.596056 
L 335.081259 212.596056 
L 335.201257 213.950423 
L 335.441253 213.950423 
L 335.601251 214.627606 
L 337.64122 214.627606 
L 337.881216 215.304789 
L 339.681189 215.304789 
L 339.841186 210.564507 
L 340.081182 210.564507 
L 340.201181 123.88507 
L 340.521176 123.88507 
L 340.641174 173.99662 
L 340.88117 173.99662 
L 341.001168 165.870423 
L 341.241165 165.870423 
L 341.401162 228.171268 
L 341.921154 228.171268 
L 342.081152 228.848451 
L 342.761142 228.848451 
L 342.88114 228.171268 
L 343.121136 228.171268 
L 343.281134 228.848451 
L 344.681112 228.848451 
L 344.84111 230.202817 
L 345.081106 230.202817 
L 345.201104 230.88 
L 345.801095 230.88 
L 345.961093 230.202817 
L 346.241088 230.202817 
L 346.401086 228.848451 
L 346.561083 228.848451 
L 346.721081 228.171268 
L 347.001077 228.171268 
L 347.161074 227.494085 
L 347.361071 227.494085 
L 347.521069 226.816901 
L 347.761065 226.816901 
L 347.961062 226.139718 
L 348.521054 226.139718 
L 348.641052 225.462535 
L 348.881048 225.462535 
L 349.001046 226.139718 
L 349.241043 226.139718 
L 349.40104 225.462535 
L 351.201013 225.462535 
L 351.321011 224.785352 
L 351.921002 224.785352 
L 352.080999 224.108169 
L 353.120983 224.108169 
L 353.280981 223.430986 
L 354.680959 223.430986 
L 354.840957 224.108169 
L 355.000955 224.108169 
L 355.160952 223.430986 
L 356.200936 223.430986 
L 356.320934 224.108169 
L 356.920925 224.108169 
L 357.080923 223.430986 
L 357.360918 223.430986 
L 357.520916 224.108169 
L 357.680914 224.108169 
L 357.840911 223.430986 
L 358.120907 223.430986 
L 358.280904 224.108169 
L 361.520855 224.108169 
L 361.760851 224.785352 
L 364.240813 224.785352 
L 364.400811 225.462535 
L 364.640807 225.462535 
L 364.760805 224.785352 
L 365.000802 224.785352 
L 365.160799 225.462535 
L 365.80079 225.462535 
L 365.960787 224.785352 
L 366.920772 224.785352 
L 367.08077 225.462535 
L 367.320766 225.462535 
L 367.440764 224.785352 
L 367.76076 224.785352 
L 367.880758 225.462535 
L 368.880742 225.462535 
L 369.000741 226.139718 
L 369.240737 226.139718 
L 369.400735 225.462535 
L 370.440719 225.462535 
L 370.600716 226.139718 
L 375.000649 226.139718 
L 375.160647 225.462535 
L 375.360643 225.462535 
L 375.520641 226.139718 
L 378.080602 226.139718 
L 378.2006 226.816901 
L 378.440596 226.816901 
L 378.600594 226.139718 
L 378.800591 226.139718 
L 378.960588 226.816901 
L 379.240584 226.816901 
L 379.400582 226.139718 
L 382.320537 226.139718 
L 382.440535 226.816901 
L 382.680532 226.816901 
L 382.840529 226.139718 
L 383.080526 226.139718 
L 383.200524 226.816901 
L 384.640502 226.816901 
L 384.7605 227.494085 
L 384.920497 227.494085 
L 385.160494 226.816901 
L 386.920467 226.816901 
L 387.080464 227.494085 
L 387.320461 227.494085 
L 387.440459 226.816901 
L 387.680455 226.816901 
L 387.840453 227.494085 
L 390.00042 227.494085 
L 390.160417 228.171268 
L 393.080373 228.171268 
L 393.200371 228.848451 
L 398.080296 228.848451 
L 398.200295 229.525634 
L 399.560274 229.525634 
L 399.720271 228.848451 
L 400.760255 228.848451 
L 400.880254 228.171268 
L 409.200126 228.171268 
L 409.320125 228.848451 
L 409.560121 228.848451 
L 409.720119 228.171268 
L 410.000114 228.171268 
L 410.160112 228.848451 
L 413.440062 228.848451 
L 413.600059 194.989296 
L 413.760057 194.989296 
L 413.880055 136.751549 
L 414.20005 136.751549 
L 414.320048 220.722254 
L 414.560045 220.722254 
L 414.720042 121.853521 
L 414.920039 121.853521 
L 415.080037 176.028169 
L 415.360032 176.028169 
L 415.52003 211.24169 
L 415.680027 211.24169 
L 415.840025 213.273239 
L 416.120021 213.273239 
L 416.280018 215.304789 
L 417.48 215.304789 
L 417.48 215.304789 
" style="fill:none;stroke:#377eb8;stroke-dasharray:7.4,3.2;stroke-dashoffset:0;stroke-linecap:round;stroke-width:2;"/>
   </g>
   <g id="patch_3">
    <path d="M 65.32538 230.88 
L 65.32538 14.52 
" style="fill:none;stroke:#000000;stroke-linecap:square;stroke-linejoin:miter;stroke-width:0.8;"/>
   </g>
   <g id="patch_4">
    <path d="M 417.48 230.88 
L 417.48 14.52 
" style="fill:none;"/>
   </g>
   <g id="patch_5">
    <path d="M 65.32538 230.88 
L 417.48 230.88 
" style="fill:none;stroke:#000000;stroke-linecap:square;stroke-linejoin:miter;stroke-width:0.8;"/>
   </g>
   <g id="patch_6">
    <path d="M 65.32538 14.52 
L 417.48 14.52 
" style="fill:none;"/>
   </g>
   <g id="legend_1">
    <g id="patch_7">
     <path d="M 138.60155 44.05585 
L 412.68 44.05585 
Q 415.88 44.05585 415.88 40.85585 
L 415.88 19.32 
Q 415.88 16.12 412.68 16.12 
L 138.60155 16.12 
Q 135.40155 16.12 135.40155 19.32 
L 135.40155 40.85585 
Q 135.40155 44.05585 138.60155 44.05585 
z
" style="fill:#ffffff;stroke:#000000;stroke-linejoin:miter;"/>
    </g>
    <g id="line2d_11">
     <path d="M 141.80155 28.77596 
L 173.80155 28.77596 
" style="fill:none;stroke:#e41a1c;stroke-linecap:square;stroke-width:2;"/>
    </g>
    <g id="line2d_12"/>
    <g id="text_11">
     <!-- Not Cutting -->
     <defs>
      <path d="M 22.5 72 
L 1.90625 72 
L 1.90625 67.3125 
L 4.40625 67.3125 
C 9.5 67.3125 11.796875 66.5 13.59375 64.015625 
L 13.59375 21.5 
C 13.59375 7.78125 11.59375 4.890625 2 4.890625 
L 2 0 
L 30.5 0 
L 30.5 4.890625 
C 21 4.890625 19 7.796875 19 21.5 
L 19 58.640625 
L 63.59375 -1.6875 
L 67.796875 -1.6875 
L 67.796875 50.59375 
C 67.796875 64.390625 69.796875 67.3125 79.40625 67.3125 
L 79.40625 72 
L 50.90625 72 
L 50.90625 67.3125 
C 60.40625 67.3125 62.40625 64.40625 62.40625 50.625 
L 62.40625 19.046875 
z
" id="Century_Schoolbook_L_Roman-78"/>
      <path d="M 19.40625 47 
L 19.40625 67 
L 15.296875 67 
C 14.296875 53.875 9.90625 47.1875 1.796875 46.59375 
L 1.796875 42.703125 
L 10 42.703125 
L 10 17.265625 
C 10 10.28125 10.203125 7.78125 11.203125 5.484375 
C 12.796875 1.296875 16.796875 -1 22.59375 -1 
C 26.5 -1 29.90625 0.203125 32.203125 2.390625 
C 35.5 5.59375 37.40625 10.875 37.40625 16.375 
C 37.40625 16.96875 37.40625 17.671875 37.296875 18.671875 
L 33.09375 18.671875 
C 32.796875 9.6875 30.203125 5.09375 25.296875 5.09375 
C 23 5.09375 21 6.28125 20.296875 7.984375 
C 19.703125 9.375 19.40625 11.875 19.40625 15.46875 
L 19.40625 42.703125 
L 34.09375 42.703125 
L 34.09375 47 
z
" id="Century_Schoolbook_L_Roman-116"/>
      <path d="M 63.90625 72 
L 60.09375 72 
L 56.09375 66.015625 
C 49 71.203125 45.09375 72.703125 38.40625 72.703125 
C 28.703125 72.703125 20.703125 68.8125 13.90625 60.78125 
C 7.5 53.234375 4.5 44.890625 4.5 34.65625 
C 4.5 13.296875 18.59375 -2 38.296875 -2 
C 54.296875 -2 64.5 7.34375 66.796875 24.015625 
L 62.09375 24.8125 
C 61.09375 19.546875 59.90625 15.984375 58.09375 13.015625 
C 54 6.171875 47.59375 2.6875 39.5 2.6875 
C 24.703125 2.6875 17.703125 12.90625 17.703125 34.265625 
C 17.703125 45.46875 19.203125 53.015625 22.59375 58.96875 
C 25.703125 64.53125 31.90625 68 38.296875 68 
C 45.296875 68 51.5 64.328125 55.296875 57.96875 
C 57.203125 54.6875 58.703125 50.8125 61 43.171875 
L 65.40625 43.171875 
z
" id="Century_Schoolbook_L_Roman-67"/>
      <path d="M 41.203125 0 
L 59.40625 0 
L 59.40625 4.703125 
L 56.90625 4.703125 
C 51.40625 4.703125 50.59375 5.59375 50.59375 11.953125 
L 50.59375 46.78125 
L 31.796875 46.78125 
L 31.796875 42 
L 36.90625 42 
C 40.59375 42 41.203125 41.296875 41.203125 36.953125 
L 41.203125 24.5625 
C 41.203125 18.8125 40.59375 15.484375 39.09375 12.15625 
C 37 7.71875 33 5.09375 28.09375 5.09375 
C 25 5.09375 22.40625 6.1875 21.09375 8.171875 
C 19.796875 10.046875 19.59375 11.046875 19.59375 16.5 
L 19.59375 46.78125 
L 2.09375 46.78125 
L 2.09375 42 
L 5.90625 42 
C 9.59375 42 10.203125 41.296875 10.203125 36.953125 
L 10.203125 15.21875 
C 10.203125 10.078125 10.59375 7.765625 12.09375 5.453125 
C 14.796875 1.3125 19.59375 -1 25.59375 -1 
C 32.203125 -1 36.796875 1.71875 41.203125 8.125 
z
" id="Century_Schoolbook_L_Roman-117"/>
      <path d="M 20 46 
L 2.703125 46 
L 2.703125 41.21875 
L 6.296875 41.21875 
C 10 41.21875 10.59375 40.515625 10.59375 36.203125 
L 10.59375 12.296875 
L 10.59375 8.296875 
C 10.59375 4.296875 9.5 3.59375 3.09375 3.59375 
L 2.703125 3.59375 
L 2.703125 0 
L 28 0 
L 28 3.59375 
L 27.59375 3.59375 
C 21.09375 3.59375 20 4.296875 20 8.28125 
L 20 12.28125 
L 20 22.65625 
C 20 27.546875 20.703125 32.03125 21.796875 34.328125 
C 23.90625 38.828125 28.40625 41.921875 32.703125 41.921875 
C 35.296875 41.921875 38.296875 40.421875 39.796875 38.421875 
C 41.296875 36.328125 42 33.234375 42 28.4375 
L 42 12.28125 
L 42 8.28125 
C 42 4.296875 40.90625 3.59375 34.40625 3.59375 
L 34 3.59375 
L 34 0 
L 59.296875 0 
L 59.296875 3.59375 
L 58.90625 3.59375 
C 52.5 3.59375 51.40625 4.296875 51.40625 8.28125 
L 51.40625 12.28125 
L 51.40625 27.953125 
C 51.40625 35.125 51.09375 36.921875 49.296875 40.328125 
C 46.796875 45.109375 41.703125 48 35.796875 48 
C 29.40625 48 24.40625 45.046875 20 38.515625 
z
" id="Century_Schoolbook_L_Roman-110"/>
      <path d="M 19.59375 7.59375 
C 14.09375 7.59375 13.796875 7.703125 12.59375 8.46875 
C 11.90625 8.90625 11.40625 10.109375 11.40625 11.296875 
C 11.40625 14.578125 14.09375 16 20.796875 16 
C 30.296875 16 31.796875 16.203125 35.09375 17.6875 
C 41.09375 20.359375 44.5 25.484375 44.5 31.984375 
C 44.5 35.921875 43.59375 38.390625 40.796875 41.640625 
C 42.5 43.40625 43.40625 44 44.203125 44 
C 44.703125 44 45 43.6875 45.203125 42.625 
C 45.59375 40.265625 47.203125 39 49.703125 39 
C 52.203125 39 54.203125 41.09375 54.203125 43.78125 
C 54.203125 47.1875 51.5 49.578125 47.59375 49.578125 
C 44.40625 49.578125 42.59375 48.5625 38 44.296875 
C 33.796875 47.09375 30.59375 48.078125 25.59375 48.078125 
C 13.703125 48.078125 5.90625 41.625 5.90625 31.8125 
C 5.90625 26.03125 9.09375 21.03125 14.296875 18.6875 
C 7.59375 17.15625 4.796875 14.09375 4.796875 8.46875 
C 4.796875 3.984375 6.796875 1.328125 11.5 -0.296875 
C 5.296875 -2.484375 2.296875 -5.671875 2.296875 -9.75 
C 2.296875 -16.3125 10 -20 23.40625 -20 
C 40.09375 -20 48.5 -14.71875 48.5 -4.25 
C 48.5 0.71875 46.203125 4.6875 42.5 6.1875 
C 39.90625 7.1875 36.703125 7.59375 29.796875 7.59375 
z
M 25.5 44 
C 31.796875 44 35.296875 39.671875 35.296875 32.09375 
C 35.296875 24.421875 31.5 19.78125 25.09375 19.78125 
C 18.90625 19.78125 15 24.421875 15 31.796875 
C 15 39.5625 18.796875 44 25.5 44 
z
M 24.59375 -1 
C 32.90625 -1 33.5 -1 35 -1.1875 
C 39 -1.59375 41.5 -3.78125 41.5 -6.953125 
C 41.5 -12.625 35 -15.90625 23.796875 -15.90625 
C 15.40625 -15.90625 10.59375 -13.421875 10.59375 -8.953125 
C 10.59375 -5.671875 12.40625 -3.46875 17.203125 -1 
z
" id="Century_Schoolbook_L_Roman-103"/>
     </defs>
     <g transform="translate(186.60155 34.37596)scale(0.16 -0.16)">
      <use transform="translate(0 -1.570628)scale(0.996264)" xlink:href="#Century_Schoolbook_L_Roman-78"/>
      <use transform="translate(81.194513 -1.570628)scale(0.996264)" xlink:href="#Century_Schoolbook_L_Roman-111"/>
      <use transform="translate(131.007714 -1.570628)scale(0.996264)" xlink:href="#Century_Schoolbook_L_Roman-116"/>
      <use transform="translate(197.45659 -1.570628)scale(0.996264)" xlink:href="#Century_Schoolbook_L_Roman-67"/>
      <use transform="translate(269.386575 -1.570628)scale(0.996264)" xlink:href="#Century_Schoolbook_L_Roman-117"/>
      <use transform="translate(330.258205 -1.570628)scale(0.996264)" xlink:href="#Century_Schoolbook_L_Roman-116"/>
      <use transform="translate(369.011912 -1.570628)scale(0.996264)" xlink:href="#Century_Schoolbook_L_Roman-116"/>
      <use transform="translate(407.765618 -1.570628)scale(0.996264)" xlink:href="#Century_Schoolbook_L_Roman-105"/>
      <use transform="translate(439.146931 -1.570628)scale(0.996264)" xlink:href="#Century_Schoolbook_L_Roman-110"/>
      <use transform="translate(500.018561 -1.570628)scale(0.996264)" xlink:href="#Century_Schoolbook_L_Roman-103"/>
     </g>
    </g>
    <g id="line2d_13">
     <path d="M 307.49654 28.77596 
L 339.49654 28.77596 
" style="fill:none;stroke:#377eb8;stroke-dasharray:7.4,3.2;stroke-dashoffset:0;stroke-linecap:round;stroke-width:2;"/>
    </g>
    <g id="line2d_14"/>
    <g id="text_12">
     <!-- Cutting -->
     <g transform="translate(352.29654 34.37596)scale(0.16 -0.16)">
      <use transform="translate(0 -1.570628)scale(0.996264)" xlink:href="#Century_Schoolbook_L_Roman-67"/>
      <use transform="translate(71.929985 -1.570628)scale(0.996264)" xlink:href="#Century_Schoolbook_L_Roman-117"/>
      <use transform="translate(132.801616 -1.570628)scale(0.996264)" xlink:href="#Century_Schoolbook_L_Roman-116"/>
      <use transform="translate(171.555322 -1.570628)scale(0.996264)" xlink:href="#Century_Schoolbook_L_Roman-116"/>
      <use transform="translate(210.309028 -1.570628)scale(0.996264)" xlink:href="#Century_Schoolbook_L_Roman-105"/>
      <use transform="translate(241.690341 -1.570628)scale(0.996264)" xlink:href="#Century_Schoolbook_L_Roman-110"/>
      <use transform="translate(302.561972 -1.570628)scale(0.996264)" xlink:href="#Century_Schoolbook_L_Roman-103"/>
     </g>
    </g>
   </g>
  </g>
 </g>
 <defs>
  <clipPath id="p1003b234ba">
   <rect height="216.36" width="352.15462" x="65.32538" y="14.52"/>
  </clipPath>
 </defs>
</svg>
