<?xml version="1.0" encoding="utf-8" standalone="no"?>
<!DOCTYPE svg PUBLIC "-//W3C//DTD SVG 1.1//EN"
  "http://www.w3.org/Graphics/SVG/1.1/DTD/svg11.dtd">
<!-- Created with matplotlib (https://matplotlib.org/) -->
<svg height="288pt" version="1.1" viewBox="0 0 432 288" width="432pt" xmlns="http://www.w3.org/2000/svg" xmlns:xlink="http://www.w3.org/1999/xlink">
 <defs>
  <style type="text/css">
*{stroke-linecap:butt;stroke-linejoin:round;}
  </style>
 </defs>
 <g id="figure_1">
  <g id="patch_1">
   <path d="M 0 288 
L 432 288 
L 432 0 
L 0 0 
z
" style="fill:#ffffff;"/>
  </g>
  <g id="axes_1">
   <g id="patch_2">
    <path d="M 65.32538 230.88 
L 417.48 230.88 
L 417.48 14.52 
L 65.32538 14.52 
z
" style="fill:#ffffff;"/>
   </g>
   <g id="matplotlib.axis_1">
    <g id="xtick_1">
     <g id="line2d_1">
      <defs>
       <path d="M 0 0 
L 0 3.5 
" id="m2e8ac96c2d" style="stroke:#000000;stroke-width:0.8;"/>
      </defs>
      <g>
       <use style="stroke:#000000;stroke-width:0.8;" x="145.324158" xlink:href="#m2e8ac96c2d" y="230.88"/>
      </g>
     </g>
     <g id="text_1">
      <!-- $20$ -->
      <defs>
       <path d="M 41.703125 15.453125 
L 39.90625 15.453125 
C 38.90625 8.375 38.09375 7.171875 37.703125 6.5625 
C 37.203125 5.765625 30 5.765625 28.59375 5.765625 
L 9.40625 5.765625 
C 13 9.671875 20 16.75 28.5 24.953125 
C 34.59375 30.734375 41.703125 37.53125 41.703125 47.421875 
C 41.703125 59.21875 32.296875 66 21.796875 66 
C 10.796875 66 4.09375 56.3125 4.09375 47.34375 
C 4.09375 43.4375 7 42.9375 8.203125 42.9375 
C 9.203125 42.9375 12.203125 43.546875 12.203125 47.03125 
C 12.203125 50.109375 9.59375 51 8.203125 51 
C 7.59375 51 7 50.90625 6.59375 50.703125 
C 8.5 59.21875 14.296875 63.40625 20.40625 63.40625 
C 29.09375 63.40625 34.796875 56.515625 34.796875 47.421875 
C 34.796875 38.734375 29.703125 31.25 24 24.75 
L 4.09375 2.28125 
L 4.09375 0 
L 39.296875 0 
z
" id="CMR17-50"/>
       <path d="M 42 31.640625 
C 42 37.75 41.90625 48.125 37.703125 56.109375 
C 34 63.109375 28.09375 65.59375 22.90625 65.59375 
C 18.09375 65.59375 12 63.40625 8.203125 56.203125 
C 4.203125 48.71875 3.796875 39.4375 3.796875 31.640625 
C 3.796875 25.953125 3.90625 17.28125 7 9.671875 
C 11.296875 -0.609375 19 -2 22.90625 -2 
C 27.5 -2 34.5 -0.109375 38.59375 9.375 
C 41.59375 16.28125 42 24.359375 42 31.640625 
z
M 22.90625 -0.40625 
C 16.5 -0.40625 12.703125 5.078125 11.296875 12.6875 
C 10.203125 18.5625 10.203125 27.15625 10.203125 32.75 
C 10.203125 40.4375 10.203125 46.828125 11.5 52.921875 
C 13.40625 61.390625 19 64 22.90625 64 
C 27 64 32.296875 61.296875 34.203125 53.125 
C 35.5 47.4375 35.59375 40.734375 35.59375 32.75 
C 35.59375 26.25 35.59375 18.265625 34.40625 12.375 
C 32.296875 1.484375 26.40625 -0.40625 22.90625 -0.40625 
z
" id="CMR17-48"/>
      </defs>
      <g transform="translate(137.069033 251.21795)scale(0.18 -0.18)">
       <use transform="scale(0.996264)" xlink:href="#CMR17-50"/>
       <use transform="translate(45.690477 0)scale(0.996264)" xlink:href="#CMR17-48"/>
      </g>
     </g>
    </g>
    <g id="xtick_2">
     <g id="line2d_2">
      <g>
       <use style="stroke:#000000;stroke-width:0.8;" x="225.322936" xlink:href="#m2e8ac96c2d" y="230.88"/>
      </g>
     </g>
     <g id="text_2">
      <!-- $40$ -->
      <defs>
       <path d="M 33.59375 64.40625 
C 33.59375 66.5 33.5 66.5 31.703125 66.5 
L 2 19.59375 
L 2 17 
L 27.796875 17 
L 27.796875 7.140625 
C 27.796875 3.5 27.59375 2.5 20.59375 2.5 
L 18.703125 2.5 
L 18.703125 0 
C 21.90625 0 27.296875 0 30.703125 0 
C 34.09375 0 39.5 0 42.703125 0 
L 42.703125 2.5 
L 40.796875 2.5 
C 33.796875 2.5 33.59375 3.5 33.59375 7.140625 
L 33.59375 17 
L 43.796875 17 
L 43.796875 19.59375 
L 33.59375 19.59375 
z
M 28.09375 57.859375 
L 28.09375 19.59375 
L 4 19.59375 
z
" id="CMR17-52"/>
      </defs>
      <g transform="translate(217.067811 251.21795)scale(0.18 -0.18)">
       <use transform="scale(0.996264)" xlink:href="#CMR17-52"/>
       <use transform="translate(45.690477 0)scale(0.996264)" xlink:href="#CMR17-48"/>
      </g>
     </g>
    </g>
    <g id="xtick_3">
     <g id="line2d_3">
      <g>
       <use style="stroke:#000000;stroke-width:0.8;" x="305.321713" xlink:href="#m2e8ac96c2d" y="230.88"/>
      </g>
     </g>
     <g id="text_3">
      <!-- $60$ -->
      <defs>
       <path d="M 10.59375 34 
C 10.59375 57.65625 21.796875 63 28.296875 63 
C 30.40625 63 35.5 62.640625 37.5 59 
C 35.90625 59 32.90625 59 32.90625 55.515625 
C 32.90625 52.828125 35.09375 51.921875 36.5 51.921875 
C 37.40625 51.921875 40.09375 52.3125 40.09375 55.625 
C 40.09375 61.78125 35.09375 65.296875 28.203125 65.296875 
C 16.296875 65.296875 3.796875 52.96875 3.796875 31 
C 3.796875 3.953125 15.09375 -2 23.09375 -2 
C 32.796875 -2 42 6.671875 42 20.046875 
C 42 32.515625 33.90625 41.59375 23.703125 41.59375 
C 17.59375 41.59375 13.09375 37.609375 10.59375 30.625 
z
M 23.09375 0.390625 
C 10.796875 0.390625 10.796875 18.75 10.796875 22.4375 
C 10.796875 29.625 14.203125 40 23.5 40 
C 25.203125 40 30.09375 40 33.40625 33.125 
C 35.203125 29.21875 35.203125 25.140625 35.203125 20.140625 
C 35.203125 14.75 35.203125 10.78125 33.09375 6.78125 
C 30.90625 2.671875 27.703125 0.390625 23.09375 0.390625 
z
" id="CMR17-54"/>
      </defs>
      <g transform="translate(297.066588 251.21795)scale(0.18 -0.18)">
       <use transform="scale(0.996264)" xlink:href="#CMR17-54"/>
       <use transform="translate(45.690477 0)scale(0.996264)" xlink:href="#CMR17-48"/>
      </g>
     </g>
    </g>
    <g id="xtick_4">
     <g id="line2d_4">
      <g>
       <use style="stroke:#000000;stroke-width:0.8;" x="385.320491" xlink:href="#m2e8ac96c2d" y="230.88"/>
      </g>
     </g>
     <g id="text_4">
      <!-- $80$ -->
      <defs>
       <path d="M 27.203125 35.375 
C 33.5 38.546875 39.90625 43.328125 39.90625 50.984375 
C 39.90625 60.015625 31.09375 65.296875 23 65.296875 
C 13.90625 65.296875 5.90625 58.734375 5.90625 49.6875 
C 5.90625 47.203125 6.5 42.921875 10.40625 39.140625 
C 11.40625 38.15625 15.59375 35.171875 18.296875 33.28125 
C 13.796875 30.984375 3.296875 25.53125 3.296875 14.59375 
C 3.296875 4.359375 13.09375 -2 22.796875 -2 
C 33.5 -2 42.5 5.65625 42.5 15.78125 
C 42.5 24.84375 36.40625 29.015625 32.40625 31.703125 
z
M 14.09375 44.09375 
C 13.296875 44.59375 9.296875 47.671875 9.296875 52.359375 
C 9.296875 58.421875 15.59375 63 22.796875 63 
C 30.703125 63 36.5 57.4375 36.5 50.96875 
C 36.5 41.703125 26.09375 36.421875 25.59375 36.421875 
C 25.5 36.421875 25.40625 36.421875 24.59375 37.03125 
z
M 32.5 23.734375 
C 34 22.640625 38.796875 19.375 38.796875 13.296875 
C 38.796875 5.953125 31.40625 0.390625 23 0.390625 
C 13.90625 0.390625 7 6.84375 7 14.6875 
C 7 22.546875 13.09375 29.09375 20 32.1875 
z
" id="CMR17-56"/>
      </defs>
      <g transform="translate(377.065366 251.21795)scale(0.18 -0.18)">
       <use transform="scale(0.996264)" xlink:href="#CMR17-56"/>
       <use transform="translate(45.690477 0)scale(0.996264)" xlink:href="#CMR17-48"/>
      </g>
     </g>
    </g>
    <g id="text_5">
     <!-- Time -->
     <defs>
      <path d="M 63.296875 72 
L 3.40625 72 
L 1.90625 44.265625 
L 6.203125 44.265625 
C 6.90625 49.25 7.796875 53.046875 8.90625 56.234375 
C 11.5 63.515625 16.296875 67.3125 23.09375 67.3125 
C 26.40625 67.3125 27.796875 66.203125 27.796875 63.71875 
L 27.796875 12.28125 
L 27.796875 9.375 
C 27.796875 5.1875 26.90625 4.6875 18.796875 4.6875 
L 16.203125 4.6875 
L 16.203125 0 
L 50.5 0 
L 50.5 4.6875 
L 47.90625 4.6875 
C 39.90625 4.6875 39 5.1875 39 9.375 
L 39 12.28125 
L 39 63.71875 
C 39 66.203125 40.40625 67.3125 43.703125 67.3125 
C 49.796875 67.3125 54.703125 63.90625 57.203125 57.921875 
C 58.703125 54.25 59.703125 49.953125 60.5 44.265625 
L 64.796875 44.265625 
z
" id="Century_Schoolbook_L_Roman-84"/>
      <path d="M 20.59375 46 
L 1.796875 46 
L 1.796875 41.21875 
L 6.90625 41.21875 
C 10.59375 41.21875 11.203125 40.515625 11.203125 36.203125 
L 11.203125 12.296875 
L 11.203125 8.296875 
C 11.203125 4.296875 10.09375 3.59375 3.703125 3.59375 
L 3 3.59375 
L 3 0 
L 28.90625 0 
L 28.90625 3.59375 
L 28.203125 3.59375 
C 21.703125 3.59375 20.59375 4.28125 20.59375 8.21875 
L 20.59375 12.171875 
z
M 15.90625 71.578125 
C 12.703125 71.578125 10.09375 68.984375 10.09375 65.796875 
C 10.09375 62.703125 12.703125 60 15.796875 60 
C 19.09375 60 21.703125 62.59375 21.703125 65.796875 
C 21.703125 68.984375 19.09375 71.578125 15.90625 71.578125 
z
" id="Century_Schoolbook_L_Roman-105"/>
      <path d="M 20.09375 46 
L 2.296875 46 
L 2.296875 41.21875 
L 6.40625 41.21875 
C 10.09375 41.21875 10.703125 40.515625 10.703125 36.203125 
L 10.703125 12.296875 
L 10.703125 8.40625 
C 10.703125 4.296875 9.59375 3.59375 3.203125 3.59375 
L 2.796875 3.59375 
L 2.796875 0 
L 28 0 
L 28 3.59375 
L 27.59375 3.59375 
C 21.203125 3.59375 20.09375 4.296875 20.09375 8.390625 
L 20.09375 12.28125 
L 20.09375 26.453125 
C 20.09375 35.328125 25 41.921875 31.5 41.921875 
C 34.09375 41.921875 36.90625 40.515625 38.09375 38.625 
C 39.5 36.734375 40.09375 33.828125 40.09375 29.734375 
L 40.09375 12.28125 
L 40.09375 8.28125 
C 40.09375 4.296875 39 3.59375 32.5 3.59375 
L 32.09375 3.59375 
L 32.09375 0 
L 57.40625 0 
L 57.40625 3.59375 
L 57 3.59375 
C 50.59375 3.59375 49.5 4.296875 49.5 8.28125 
L 49.5 12.28125 
L 49.5 25.546875 
C 49.5 35.53125 54 41.921875 61 41.921875 
C 64.296875 41.921875 67 40.015625 68.296875 36.921875 
C 69.203125 34.734375 69.5 32.53125 69.5 28.640625 
L 69.5 12.28125 
L 69.5 8.28125 
C 69.5 4.296875 68.40625 3.59375 61.90625 3.59375 
L 61.5 3.59375 
L 61.5 0 
L 86.796875 0 
L 86.796875 3.59375 
L 86.40625 3.59375 
C 80 3.59375 78.90625 4.296875 78.90625 8.390625 
L 78.90625 12.28125 
L 78.90625 30.640625 
C 78.90625 36.828125 78.296875 38.921875 75.703125 42.3125 
C 72.796875 46.015625 68.703125 48 63.90625 48 
C 57.40625 48 52.59375 44.9375 48.296875 38.109375 
C 46.59375 44.046875 41.203125 48 34.5 48 
C 28.5 48 24 45.140625 20.09375 38.921875 
z
" id="Century_Schoolbook_L_Roman-109"/>
      <path d="M 46.5 23 
C 46.59375 37.8125 38.09375 48.28125 25.90625 48.28125 
C 13.09375 48.28125 3.5 37.25 3.5 22.34375 
C 3.5 8.4375 12.59375 -1 26.09375 -1 
C 35.59375 -1 42.40625 3.6875 46.5 13.1875 
L 43 15.09375 
C 38.90625 7.390625 34.703125 4.390625 28 4.390625 
C 22.90625 4.390625 19.203125 6.59375 16.59375 11 
C 14.796875 14 14 17.5 14.09375 23 
z
M 14.203125 27.296875 
C 14.203125 30.34375 14.59375 32.5 15.59375 35.25 
C 17.703125 41.140625 20.90625 44 25.703125 44 
C 31.796875 44 35.796875 38.78125 35.796875 30.921875 
C 35.796875 28.078125 34.90625 27.296875 31.703125 27.296875 
z
" id="Century_Schoolbook_L_Roman-101"/>
     </defs>
     <g transform="translate(220.063945 273.24577)scale(0.18 -0.18)">
      <use transform="translate(0 0.343476)scale(0.996264)" xlink:href="#Century_Schoolbook_L_Roman-84"/>
      <use transform="translate(66.450031 0.343476)scale(0.996264)" xlink:href="#Century_Schoolbook_L_Roman-105"/>
      <use transform="translate(97.831344 0.343476)scale(0.996264)" xlink:href="#Century_Schoolbook_L_Roman-109"/>
      <use transform="translate(186.398251 0.343476)scale(0.996264)" xlink:href="#Century_Schoolbook_L_Roman-101"/>
     </g>
    </g>
   </g>
   <g id="matplotlib.axis_2">
    <g id="ytick_1">
     <g id="line2d_5">
      <defs>
       <path d="M 0 0 
L -3.5 0 
" id="m5dbb05c9a6" style="stroke:#000000;stroke-width:0.8;"/>
      </defs>
      <g>
       <use style="stroke:#000000;stroke-width:0.8;" x="65.32538" xlink:href="#m5dbb05c9a6" y="230.88"/>
      </g>
     </g>
     <g id="text_6">
      <!-- $0$ -->
      <g transform="translate(50.07025 237.548975)scale(0.18 -0.18)">
       <use transform="scale(0.996264)" xlink:href="#CMR17-48"/>
      </g>
     </g>
    </g>
    <g id="ytick_2">
     <g id="line2d_6">
      <g>
       <use style="stroke:#000000;stroke-width:0.8;" x="65.32538" xlink:href="#m5dbb05c9a6" y="187.434217"/>
      </g>
     </g>
     <g id="text_7">
      <!-- $50$ -->
      <defs>
       <path d="M 11.40625 57.6875 
C 12.40625 57.28125 16.5 56 20.703125 56 
C 30 56 35.09375 61.109375 38 64.0625 
C 38 64.953125 38 65.5 37.40625 65.5 
C 37.296875 65.5 37.09375 65.5 36.296875 65.046875 
C 32.796875 63.40625 28.703125 62.078125 23.703125 62.078125 
C 20.703125 62.078125 16.203125 62.484375 11.296875 64.671875 
C 10.203125 65.171875 10 65.171875 9.90625 65.171875 
C 9.40625 65.171875 9.296875 65.0625 9.296875 63.078125 
L 9.296875 34.421875 
C 9.296875 32.640625 9.296875 32.140625 10.296875 32.140625 
C 10.796875 32.140625 11 32.34375 11.5 33.03125 
C 14.703125 37.515625 19.09375 39.40625 24.09375 39.40625 
C 27.59375 39.40625 35.09375 37.21875 35.09375 20.140625 
C 35.09375 16.953125 35.09375 11.171875 32.09375 6.578125 
C 29.59375 2.484375 25.703125 0.390625 21.40625 0.390625 
C 14.796875 0.390625 8.09375 5 6.296875 12.71875 
C 6.703125 12.609375 7.5 12.421875 7.90625 12.421875 
C 9.203125 12.421875 11.703125 13.125 11.703125 16.21875 
C 11.703125 18.90625 9.796875 20 7.90625 20 
C 5.59375 20 4.09375 18.59375 4.09375 15.796875 
C 4.09375 7.09375 11 -2 21.59375 -2 
C 31.90625 -2 41.703125 6.875 41.703125 19.75 
C 41.703125 31.71875 33.90625 41 24.203125 41 
C 19.09375 41 14.796875 39.109375 11.40625 35.53125 
z
" id="CMR17-53"/>
      </defs>
      <g transform="translate(41.81513 194.103192)scale(0.18 -0.18)">
       <use transform="scale(0.996264)" xlink:href="#CMR17-53"/>
       <use transform="translate(45.690477 0)scale(0.996264)" xlink:href="#CMR17-48"/>
      </g>
     </g>
    </g>
    <g id="ytick_3">
     <g id="line2d_7">
      <g>
       <use style="stroke:#000000;stroke-width:0.8;" x="65.32538" xlink:href="#m5dbb05c9a6" y="143.988434"/>
      </g>
     </g>
     <g id="text_8">
      <!-- $100$ -->
      <defs>
       <path d="M 26.59375 63.40625 
C 26.59375 65.5 26.5 65.5 25.09375 65.5 
C 21.203125 61.1875 15.296875 59.796875 9.703125 59.796875 
C 9.40625 59.796875 8.90625 59.796875 8.796875 59.5 
C 8.703125 59.296875 8.703125 59.09375 8.703125 57 
C 11.796875 57 17 57.59375 21 59.984375 
L 21 7.203125 
C 21 3.6875 20.796875 2.5 12.203125 2.5 
L 9.203125 2.5 
L 9.203125 0 
C 14 0 19 0 23.796875 0 
C 28.59375 0 33.59375 0 38.40625 0 
L 38.40625 2.5 
L 35.40625 2.5 
C 26.796875 2.5 26.59375 3.59375 26.59375 7.15625 
z
" id="CMR17-49"/>
      </defs>
      <g transform="translate(33.56 150.657409)scale(0.18 -0.18)">
       <use transform="scale(0.996264)" xlink:href="#CMR17-49"/>
       <use transform="translate(45.690477 0)scale(0.996264)" xlink:href="#CMR17-48"/>
       <use transform="translate(91.380954 0)scale(0.996264)" xlink:href="#CMR17-48"/>
      </g>
     </g>
    </g>
    <g id="ytick_4">
     <g id="line2d_8">
      <g>
       <use style="stroke:#000000;stroke-width:0.8;" x="65.32538" xlink:href="#m5dbb05c9a6" y="100.542651"/>
      </g>
     </g>
     <g id="text_9">
      <!-- $150$ -->
      <g transform="translate(33.56 107.211626)scale(0.18 -0.18)">
       <use transform="scale(0.996264)" xlink:href="#CMR17-49"/>
       <use transform="translate(45.690477 0)scale(0.996264)" xlink:href="#CMR17-53"/>
       <use transform="translate(91.380954 0)scale(0.996264)" xlink:href="#CMR17-48"/>
      </g>
     </g>
    </g>
    <g id="ytick_5">
     <g id="line2d_9">
      <g>
       <use style="stroke:#000000;stroke-width:0.8;" x="65.32538" xlink:href="#m5dbb05c9a6" y="57.096867"/>
      </g>
     </g>
     <g id="text_10">
      <!-- $200$ -->
      <g transform="translate(33.56 63.765842)scale(0.18 -0.18)">
       <use transform="scale(0.996264)" xlink:href="#CMR17-50"/>
       <use transform="translate(45.690477 0)scale(0.996264)" xlink:href="#CMR17-48"/>
       <use transform="translate(91.380954 0)scale(0.996264)" xlink:href="#CMR17-48"/>
      </g>
     </g>
    </g>
    <g id="text_11">
     <!-- Z Load -->
     <defs>
      <path d="M 56.90625 72 
L 7.296875 72 
L 5.296875 46.78125 
L 9.796875 46.78125 
C 13 63.40625 16.90625 67.3125 30.296875 67.3125 
L 43.296875 67.3125 
L 2.40625 3.59375 
L 2.40625 0 
L 55.703125 0 
L 57.5 27.734375 
L 52.796875 27.734375 
C 51.40625 18.453125 49.703125 13.46875 46.796875 9.875 
C 44.296875 6.59375 38.90625 4.6875 32.40625 4.6875 
L 15.796875 4.6875 
L 56.90625 68.40625 
z
" id="Century_Schoolbook_L_Roman-90"/>
      <path d="M 64.59375 27.328125 
L 60.203125 27.328125 
C 59.203125 20.546875 56.796875 13.765625 54.203125 10.484375 
C 51.09375 6.59375 45.296875 4.6875 36.90625 4.6875 
L 32.703125 4.6875 
C 29.703125 4.6875 27.203125 5.296875 26.296875 6.1875 
C 25.59375 6.78125 25.5 7.390625 25.5 9.484375 
L 25.5 59.734375 
L 25.5 62.609375 
C 25.5 66.8125 26.40625 67.3125 34.5 67.3125 
L 36.296875 67.3125 
L 36.296875 72 
L 3.5 72 
L 3.5 67.3125 
L 5.296875 67.3125 
C 13.40625 67.3125 14.296875 66.8125 14.296875 62.609375 
L 14.296875 59.734375 
L 14.296875 12.28125 
L 14.296875 9.375 
C 14.296875 5.1875 13.40625 4.6875 5.296875 4.6875 
L 3.5 4.6875 
L 3.5 0 
L 62.5 0 
z
" id="Century_Schoolbook_L_Roman-76"/>
      <path d="M 25.203125 48.28125 
C 13 48.28125 3.40625 37.453125 3.40625 23.546875 
C 3.40625 9.9375 13 -1 25 -1 
C 37 -1 46.59375 9.9375 46.59375 23.640625 
C 46.59375 37.25 37 48.28125 25.203125 48.28125 
z
M 25.203125 44 
C 32.203125 44 36.09375 36.75 36.09375 23.640625 
C 36.09375 10.453125 32.203125 3.296875 25 3.296875 
C 17.796875 3.296875 13.90625 10.453125 13.90625 23.546875 
C 13.90625 37.046875 17.703125 44 25.203125 44 
z
" id="Century_Schoolbook_L_Roman-111"/>
      <path d="M 45.203125 32.578125 
C 45.203125 38.796875 44.09375 41.96875 41.203125 44.34375 
C 37.90625 46.90625 33 48.28125 26.59375 48.28125 
C 15.40625 48.28125 7.09375 43.046875 7.09375 35.921875 
C 7.09375 32.15625 9.40625 29.78125 12.90625 29.78125 
C 16 29.78125 18.296875 31.859375 18.296875 34.8125 
C 18.296875 36.109375 17.796875 37.484375 16.796875 38.875 
C 16.203125 39.546875 16.09375 39.84375 16.09375 40.15625 
C 16.09375 42.21875 20.203125 44 25 44 
C 28.09375 44 31.59375 43.015625 33.203125 41.53125 
C 35.09375 39.953125 35.796875 37.578125 35.796875 33.125 
L 35.796875 29.28125 
C 25.296875 27.484375 22.09375 26.6875 17.203125 24.8125 
C 8.59375 21.609375 4.40625 16.9375 4.40625 10.65625 
C 4.40625 3.578125 10.09375 -1 18.90625 -1 
C 25.796875 -1 32 1.859375 36.296875 7.0625 
C 37.90625 1.984375 40.40625 0 45.09375 0 
C 49.59375 0 54.296875 2.890625 54.296875 5.78125 
C 54.296875 6.46875 53.796875 6.96875 53.296875 6.96875 
C 52.90625 6.96875 52.5 6.875 51.796875 6.578125 
C 50.203125 6 49.796875 5.890625 49 5.890625 
C 46.203125 5.890625 45.203125 7.78125 45.203125 12.71875 
z
M 35.796875 20.46875 
C 35.796875 14.46875 35.5 13.078125 33.796875 10.484375 
C 31.296875 6.78125 26.703125 4.296875 22.40625 4.296875 
C 17.90625 4.296875 14.5 7.59375 14.5 12.078125 
C 14.5 16.265625 16.59375 19.265625 21 21.359375 
C 24.09375 22.75 28 23.75 35.796875 25.046875 
z
" id="Century_Schoolbook_L_Roman-97"/>
      <path d="M 38 0 
L 55.40625 0 
L 55.40625 4.703125 
L 53.59375 4.703125 
C 48.203125 4.703125 47.40625 5.703125 47.40625 11.96875 
L 47.40625 73.78125 
L 27.796875 73.78125 
L 27.796875 69 
L 33.703125 69 
C 37.296875 69 38 68.28125 38 63.921875 
L 38 41 
C 34.296875 46.09375 30 48.390625 24.203125 48.390625 
C 12.90625 48.390625 4.296875 37.546875 4.296875 23.203125 
C 4.296875 9.0625 12.59375 -1 24.203125 -1 
C 30.5 -1 34.796875 1.671875 38 7.59375 
z
M 26.203125 43 
C 30.296875 43 34.203125 40.03125 36 35.4375 
C 37.203125 32.453125 37.90625 28.28125 37.90625 23.515625 
C 37.90625 11.96875 33.296875 4.390625 26.09375 4.390625 
C 19.09375 4.390625 14.796875 10.96875 14.796875 22.015625 
C 14.796875 27.890625 15.40625 32.359375 16.703125 35.734375 
C 18.40625 40.125 22.09375 43 26.203125 43 
z
" id="Century_Schoolbook_L_Roman-100"/>
     </defs>
     <g transform="translate(24.87013 151.37376)rotate(-90)scale(0.18 -0.18)">
      <use transform="translate(0 0.343476)scale(0.996264)" xlink:href="#Century_Schoolbook_L_Roman-90"/>
      <use transform="translate(88.5668 0.343476)scale(0.996264)" xlink:href="#Century_Schoolbook_L_Roman-76"/>
      <use transform="translate(155.016831 0.343476)scale(0.996264)" xlink:href="#Century_Schoolbook_L_Roman-111"/>
      <use transform="translate(204.830032 0.343476)scale(0.996264)" xlink:href="#Century_Schoolbook_L_Roman-97"/>
      <use transform="translate(260.221709 0.343476)scale(0.996264)" xlink:href="#Century_Schoolbook_L_Roman-100"/>
     </g>
    </g>
   </g>
   <g id="line2d_10">
    <path clip-path="url(#paebe629879)" d="M 65.32538 230.88 
L 68.565331 230.88 
L 68.685329 229.142169 
L 68.925325 229.142169 
L 69.085323 208.288193 
L 69.325319 208.288193 
L 69.445317 222.190843 
L 70.045308 222.190843 
L 70.205305 223.059759 
L 71.605284 223.059759 
L 71.765282 198.73012 
L 72.005278 198.73012 
L 72.125276 214.370602 
L 72.325273 214.370602 
L 72.565269 217.846265 
L 73.125261 217.846265 
L 73.285258 218.715181 
L 73.565254 218.715181 
L 73.685252 190.040964 
L 73.925249 190.040964 
L 74.085246 215.239518 
L 75.445225 215.239518 
L 75.565224 230.88 
L 76.205214 230.88 
L 76.325212 219.584096 
L 76.44521 219.584096 
L 76.685206 191.778795 
L 77.005202 191.778795 
L 77.1252 183.958554 
L 77.365196 183.958554 
L 77.525194 228.273253 
L 78.005186 228.273253 
L 78.285182 229.142169 
L 78.885173 229.142169 
L 79.08517 228.273253 
L 79.245167 228.273253 
L 79.405165 229.142169 
L 156.483987 229.142169 
L 156.643985 221.321928 
L 156.883981 221.321928 
L 157.003979 219.584096 
L 157.243976 219.584096 
L 157.403973 225.666506 
L 157.60397 225.666506 
L 157.763968 224.79759 
L 159.123947 224.79759 
L 159.283945 225.666506 
L 172.603741 225.666506 
L 172.763739 224.79759 
L 172.923736 224.79759 
L 173.083734 225.666506 
L 229.042879 225.666506 
L 229.202876 224.79759 
L 229.442873 224.79759 
L 229.562871 219.584096 
L 229.802867 219.584096 
L 229.962865 226.535422 
L 230.202861 226.535422 
L 230.322859 224.79759 
L 230.562856 224.79759 
L 230.682854 223.059759 
L 231.002849 223.059759 
L 231.122847 223.928675 
L 301.60177 223.928675 
L 301.761768 226.535422 
L 302.001764 226.535422 
L 302.121762 221.321928 
L 302.361759 221.321928 
L 302.521756 225.666506 
L 302.761753 225.666506 
L 302.881751 228.273253 
L 303.201746 228.273253 
L 303.321744 223.059759 
L 303.56174 223.059759 
L 303.681739 174.400482 
L 303.921735 174.400482 
L 304.081732 126.61012 
L 304.321729 126.61012 
L 304.441727 209.157108 
L 304.681723 209.157108 
L 304.841721 210.026024 
L 305.481711 210.026024 
L 305.641709 210.89494 
L 305.801706 210.89494 
L 306.001703 228.273253 
L 306.241699 228.273253 
L 306.401697 119.658795 
L 306.601694 119.658795 
L 306.761691 86.64 
L 307.001688 86.64 
L 307.121686 210.89494 
L 307.761676 210.89494 
L 307.881674 211.763855 
L 308.201669 211.763855 
L 308.321668 210.89494 
L 308.481665 210.89494 
L 308.641663 212.632771 
L 308.921658 212.632771 
L 309.081656 123.134458 
L 309.321652 123.134458 
L 309.441651 225.666506 
L 309.681647 225.666506 
L 309.841644 228.273253 
L 310.041641 228.273253 
L 310.201639 226.535422 
L 310.881629 226.535422 
L 311.001627 227.404337 
L 311.601618 227.404337 
L 311.761615 228.273253 
L 312.801599 228.273253 
L 312.961597 227.404337 
L 313.121594 227.404337 
L 313.281592 228.273253 
L 313.561588 228.273253 
L 313.681586 227.404337 
L 315.801553 227.404337 
L 315.961551 228.273253 
L 317.001535 228.273253 
L 317.121533 227.404337 
L 326.601388 227.404337 
L 326.761386 228.273253 
L 327.761371 228.273253 
L 327.881369 227.404337 
L 328.881354 227.404337 
L 329.001352 228.273253 
L 329.241348 228.273253 
L 329.401346 227.404337 
L 330.801324 227.404337 
L 330.961322 228.273253 
L 331.201318 228.273253 
L 331.321316 227.404337 
L 335.761248 227.404337 
L 335.881247 228.273253 
L 336.921231 228.273253 
L 337.081228 227.404337 
L 337.361224 227.404337 
L 337.521222 228.273253 
L 337.681219 228.273253 
L 337.841217 227.404337 
L 338.441208 227.404337 
L 338.641204 228.273253 
L 338.881201 228.273253 
L 339.001199 227.404337 
L 339.241195 227.404337 
L 339.401193 228.273253 
L 340.001184 228.273253 
L 340.121182 227.404337 
L 340.801171 227.404337 
L 340.961169 228.273253 
L 341.201165 228.273253 
L 341.321164 227.404337 
L 341.56116 227.404337 
L 341.681158 228.273253 
L 343.121136 228.273253 
L 343.281134 227.404337 
L 344.241119 227.404337 
L 344.401116 228.273253 
L 346.921078 228.273253 
L 347.081076 227.404337 
L 348.041061 227.404337 
L 348.201058 228.273253 
L 348.481054 228.273253 
L 348.641052 227.404337 
L 349.241043 227.404337 
L 349.40104 228.273253 
L 350.001031 228.273253 
L 350.121029 227.404337 
L 350.361025 227.404337 
L 350.521023 228.273253 
L 353.120983 228.273253 
L 353.280981 227.404337 
L 353.440978 227.404337 
L 353.560977 228.273253 
L 353.800973 228.273253 
L 353.96097 227.404337 
L 354.240966 227.404337 
L 354.400964 228.273253 
L 358.440902 228.273253 
L 358.5609 227.404337 
L 359.24089 227.404337 
L 359.400887 228.273253 
L 361.440856 228.273253 
L 361.640853 227.404337 
L 361.880849 227.404337 
L 362.080846 228.273253 
L 372.240691 228.273253 
L 372.400689 227.404337 
L 372.480687 227.404337 
L 372.760683 228.273253 
L 382.680532 228.273253 
L 382.840529 223.928675 
L 383.000527 223.928675 
L 383.120525 223.059759 
L 383.800515 223.059759 
L 383.960512 224.79759 
L 384.560503 224.79759 
L 384.7605 99.673735 
L 384.920497 99.673735 
L 385.080495 188.303133 
L 385.320491 188.303133 
L 385.440489 210.026024 
L 386.120479 210.026024 
L 386.280477 210.89494 
L 386.480474 210.89494 
L 386.640471 210.026024 
L 417.48 210.026024 
L 417.48 210.026024 
" style="fill:none;stroke:#e41a1c;stroke-linecap:square;stroke-width:2;"/>
   </g>
   <g id="line2d_11">
    <path clip-path="url(#paebe629879)" d="M 65.32538 230.88 
L 74.565239 218.715181 
L 99.324861 218.715181 
L 99.444859 227.404337 
L 99.684855 227.404337 
L 99.844853 211.763855 
L 100.084849 211.763855 
L 100.204847 222.190843 
L 100.884837 222.190843 
L 101.004835 223.059759 
L 102.364814 223.059759 
L 102.524812 222.190843 
L 102.764808 222.190843 
L 102.884806 223.059759 
L 105.88476 223.059759 
L 106.004759 222.190843 
L 106.204755 222.190843 
L 106.324754 223.059759 
L 107.004743 223.059759 
L 107.164741 198.73012 
L 107.364738 198.73012 
L 107.524735 215.239518 
L 107.764732 215.239518 
L 107.88473 218.715181 
L 108.124726 218.715181 
L 108.284724 190.90988 
L 108.52472 190.90988 
L 108.644718 216.108434 
L 108.924714 216.108434 
L 109.084711 215.239518 
L 109.324708 215.239518 
L 109.524705 216.108434 
L 110.084696 216.108434 
L 110.204694 215.239518 
L 110.444691 215.239518 
L 110.604688 217.846265 
L 110.804685 217.846265 
L 110.964683 175.269398 
L 111.204679 175.269398 
L 111.324677 227.404337 
L 111.564674 227.404337 
L 111.724671 228.273253 
L 115.444614 228.273253 
L 115.604612 229.142169 
L 115.804609 229.142169 
L 115.964606 228.273253 
L 116.204603 228.273253 
L 116.324601 229.142169 
L 122.684504 229.142169 
L 122.844501 228.273253 
L 126.20445 228.273253 
L 126.324448 229.142169 
L 126.564444 229.142169 
L 126.724442 228.273253 
L 127.324433 228.273253 
L 127.444431 229.142169 
L 127.764426 229.142169 
L 127.884424 228.273253 
L 128.124421 228.273253 
L 128.284418 229.142169 
L 128.444416 229.142169 
L 128.604413 228.273253 
L 128.884409 228.273253 
L 129.004407 229.142169 
L 186.803524 229.142169 
L 186.963522 230.011084 
L 187.203518 230.011084 
L 187.403515 219.584096 
L 187.643511 219.584096 
L 187.763509 224.79759 
L 188.003506 224.79759 
L 188.163503 223.928675 
L 188.3635 223.928675 
L 188.523498 224.79759 
L 189.523483 224.79759 
L 189.72348 225.666506 
L 189.923476 225.666506 
L 190.083474 224.79759 
L 191.523452 224.79759 
L 191.64345 225.666506 
L 192.243441 225.666506 
L 192.403439 224.79759 
L 192.563436 224.79759 
L 192.723434 225.666506 
L 194.523406 225.666506 
L 194.643404 224.79759 
L 214.523101 224.79759 
L 214.643099 225.666506 
L 215.24309 225.666506 
L 215.403087 224.79759 
L 220.243013 224.79759 
L 220.403011 225.666506 
L 221.003002 225.666506 
L 221.162999 224.79759 
L 222.562978 224.79759 
L 222.722975 225.666506 
L 222.922972 225.666506 
L 223.08297 224.79759 
L 225.242937 224.79759 
L 225.402934 225.666506 
L 225.642931 225.666506 
L 225.762929 224.79759 
L 230.642854 224.79759 
L 230.762853 225.666506 
L 231.002849 225.666506 
L 231.162846 224.79759 
L 259.802409 224.79759 
L 259.962406 219.584096 
L 260.202403 219.584096 
L 260.322401 220.453012 
L 260.562397 220.453012 
L 260.722395 222.190843 
L 261.002391 222.190843 
L 261.162388 223.059759 
L 261.322386 223.059759 
L 261.442384 223.928675 
L 264.442338 223.928675 
L 264.602336 224.79759 
L 264.802333 224.79759 
L 264.96233 223.928675 
L 268.642274 223.928675 
L 268.762272 223.059759 
L 269.802256 223.059759 
L 269.962254 223.928675 
L 270.562245 223.928675 
L 270.722242 223.059759 
L 272.522215 223.059759 
L 272.642213 223.928675 
L 272.882209 223.928675 
L 273.002207 223.059759 
L 275.202174 223.059759 
L 275.322172 223.928675 
L 276.322157 223.928675 
L 276.442155 223.059759 
L 276.682151 223.059759 
L 276.842149 223.928675 
L 277.522138 223.928675 
L 277.642136 223.059759 
L 278.242127 223.059759 
L 278.402125 223.928675 
L 278.642121 223.928675 
L 278.762119 223.059759 
L 279.002116 223.059759 
L 279.162113 223.928675 
L 279.36211 223.928675 
L 279.522108 223.059759 
L 279.762104 223.059759 
L 279.882102 223.928675 
L 280.202097 223.928675 
L 280.322095 223.059759 
L 281.682075 223.059759 
L 281.842072 223.928675 
L 282.082069 223.928675 
L 282.202067 223.059759 
L 283.642045 223.059759 
L 283.762043 223.928675 
L 286.322004 223.928675 
L 286.442002 223.059759 
L 287.081992 223.059759 
L 287.20199 223.928675 
L 287.521985 223.928675 
L 287.641984 223.059759 
L 288.241974 223.059759 
L 288.401972 223.928675 
L 289.001963 223.928675 
L 289.16196 223.059759 
L 290.121946 223.059759 
L 290.281943 223.928675 
L 291.321927 223.928675 
L 291.441926 223.059759 
L 292.801905 223.059759 
L 292.961902 223.928675 
L 293.641892 223.928675 
L 293.76189 223.059759 
L 294.361881 223.059759 
L 294.521878 223.928675 
L 294.761875 223.928675 
L 294.881873 223.059759 
L 295.881858 223.059759 
L 296.001856 223.928675 
L 296.681845 223.928675 
L 296.841843 223.059759 
L 297.441834 223.059759 
L 297.601831 223.928675 
L 299.00181 223.928675 
L 299.161808 223.059759 
L 300.121793 223.059759 
L 300.28179 223.928675 
L 300.921781 223.928675 
L 301.081778 223.059759 
L 301.241776 223.059759 
L 301.401773 223.928675 
L 302.081763 223.928675 
L 302.201761 223.059759 
L 302.801752 223.059759 
L 302.96175 223.928675 
L 304.001734 223.928675 
L 304.161731 223.059759 
L 304.361728 223.059759 
L 304.521726 223.928675 
L 304.761722 223.928675 
L 304.88172 223.059759 
L 305.121717 223.059759 
L 305.281714 223.928675 
L 305.441712 223.928675 
L 305.641709 223.059759 
L 307.081687 223.059759 
L 307.201685 223.928675 
L 307.441681 223.928675 
L 307.601679 223.059759 
L 307.801676 223.059759 
L 307.961673 223.928675 
L 308.201669 223.928675 
L 308.321668 223.059759 
L 308.641663 223.059759 
L 308.761661 223.928675 
L 309.321652 223.928675 
L 309.441651 223.059759 
L 310.521634 223.059759 
L 310.721631 223.928675 
L 311.681616 223.928675 
L 311.841614 223.059759 
L 312.801599 223.059759 
L 312.961597 223.928675 
L 314.321576 223.928675 
L 314.441574 223.059759 
L 314.68157 223.059759 
L 314.841568 223.928675 
L 315.121564 223.928675 
L 315.281561 223.059759 
L 315.521558 223.059759 
L 315.641556 223.928675 
L 317.001535 223.928675 
L 317.161533 223.059759 
L 317.801523 223.059759 
L 317.96152 223.928675 
L 318.561511 223.928675 
L 318.721509 223.059759 
L 319.3215 223.059759 
L 319.441498 223.928675 
L 320.121487 223.928675 
L 320.281485 223.059759 
L 320.521481 223.059759 
L 320.641479 223.928675 
L 322.801446 223.928675 
L 322.961444 223.059759 
L 323.561435 223.059759 
L 323.721432 223.928675 
L 326.241394 223.928675 
L 326.401391 223.059759 
L 326.641388 223.059759 
L 326.761386 223.928675 
L 327.001382 223.928675 
L 327.16138 223.059759 
L 327.361377 223.059759 
L 327.521374 223.928675 
L 332.001306 223.928675 
L 332.161303 223.059759 
L 332.801294 223.059759 
L 332.961291 219.584096 
L 333.121289 219.584096 
L 333.281286 223.928675 
L 333.921277 223.928675 
L 334.081274 223.059759 
L 334.32127 223.059759 
L 334.441269 116.183133 
L 334.681265 116.183133 
L 334.841263 176.138313 
L 335.081259 176.138313 
L 335.201257 209.157108 
L 335.441253 209.157108 
L 335.601251 210.026024 
L 335.881247 210.026024 
L 336.001245 209.157108 
L 336.241241 209.157108 
L 336.401239 210.026024 
L 336.521237 210.026024 
L 336.721234 195.254458 
L 337.00123 195.254458 
L 337.161227 142.250602 
L 337.361224 142.250602 
L 337.521222 92.72241 
L 337.64122 92.72241 
L 337.881216 210.026024 
L 338.201211 210.026024 
L 338.321209 211.763855 
L 338.9212 211.763855 
L 339.081198 210.89494 
L 339.321194 210.89494 
L 339.441192 213.501687 
L 339.681189 213.501687 
L 339.841186 117.052048 
L 340.081182 117.052048 
L 340.201181 230.88 
L 340.521176 230.88 
L 340.641174 228.273253 
L 340.88117 228.273253 
L 341.001168 226.535422 
L 341.641159 226.535422 
L 341.761157 228.273253 
L 346.201089 228.273253 
L 346.321087 227.404337 
L 346.561083 227.404337 
L 346.721081 225.666506 
L 347.001077 225.666506 
L 347.161074 224.79759 
L 347.761065 224.79759 
L 347.961062 223.928675 
L 348.12106 223.928675 
L 348.281057 223.059759 
L 358.120907 223.059759 
L 358.280904 223.928675 
L 358.520901 223.928675 
L 358.640899 223.059759 
L 358.880895 223.059759 
L 359.000893 223.928675 
L 359.24089 223.928675 
L 359.400887 223.059759 
L 359.680883 223.059759 
L 359.840881 223.928675 
L 360.080877 223.928675 
L 360.200875 223.059759 
L 361.920849 223.059759 
L 362.080846 223.928675 
L 362.320843 223.928675 
L 362.440841 223.059759 
L 363.080831 223.059759 
L 363.200829 223.928675 
L 364.240813 223.928675 
L 364.400811 223.059759 
L 364.640807 223.059759 
L 364.760805 223.928675 
L 406.520167 223.928675 
L 406.640166 224.79759 
L 407.64015 224.79759 
L 407.760148 223.928675 
L 408.080144 223.928675 
L 408.200142 224.79759 
L 413.760057 224.79759 
L 413.880055 222.190843 
L 414.20005 222.190843 
L 414.320048 225.666506 
L 414.560045 225.666506 
L 414.720042 227.404337 
L 415.360032 227.404337 
L 415.52003 88.377831 
L 415.680027 88.377831 
L 415.840025 198.73012 
L 416.120021 198.73012 
L 416.280018 210.026024 
L 417.240004 210.026024 
L 417.400001 209.157108 
L 417.48 209.157108 
L 417.48 209.157108 
" style="fill:none;stroke:#377eb8;stroke-dasharray:7.4,3.2;stroke-dashoffset:0;stroke-linecap:round;stroke-width:2;"/>
   </g>
   <g id="patch_3">
    <path d="M 65.32538 230.88 
L 65.32538 14.52 
" style="fill:none;stroke:#000000;stroke-linecap:square;stroke-linejoin:miter;stroke-width:0.8;"/>
   </g>
   <g id="patch_4">
    <path d="M 417.48 230.88 
L 417.48 14.52 
" style="fill:none;"/>
   </g>
   <g id="patch_5">
    <path d="M 65.32538 230.88 
L 417.48 230.88 
" style="fill:none;stroke:#000000;stroke-linecap:square;stroke-linejoin:miter;stroke-width:0.8;"/>
   </g>
   <g id="patch_6">
    <path d="M 65.32538 14.52 
L 417.48 14.52 
" style="fill:none;"/>
   </g>
   <g id="legend_1">
    <g id="patch_7">
     <path d="M 138.60155 44.05585 
L 412.68 44.05585 
Q 415.88 44.05585 415.88 40.85585 
L 415.88 19.32 
Q 415.88 16.12 412.68 16.12 
L 138.60155 16.12 
Q 135.40155 16.12 135.40155 19.32 
L 135.40155 40.85585 
Q 135.40155 44.05585 138.60155 44.05585 
z
" style="fill:#ffffff;stroke:#000000;stroke-linejoin:miter;"/>
    </g>
    <g id="line2d_12">
     <path d="M 141.80155 28.77596 
L 173.80155 28.77596 
" style="fill:none;stroke:#e41a1c;stroke-linecap:square;stroke-width:2;"/>
    </g>
    <g id="line2d_13"/>
    <g id="text_12">
     <!-- Not Cutting -->
     <defs>
      <path d="M 22.5 72 
L 1.90625 72 
L 1.90625 67.3125 
L 4.40625 67.3125 
C 9.5 67.3125 11.796875 66.5 13.59375 64.015625 
L 13.59375 21.5 
C 13.59375 7.78125 11.59375 4.890625 2 4.890625 
L 2 0 
L 30.5 0 
L 30.5 4.890625 
C 21 4.890625 19 7.796875 19 21.5 
L 19 58.640625 
L 63.59375 -1.6875 
L 67.796875 -1.6875 
L 67.796875 50.59375 
C 67.796875 64.390625 69.796875 67.3125 79.40625 67.3125 
L 79.40625 72 
L 50.90625 72 
L 50.90625 67.3125 
C 60.40625 67.3125 62.40625 64.40625 62.40625 50.625 
L 62.40625 19.046875 
z
" id="Century_Schoolbook_L_Roman-78"/>
      <path d="M 19.40625 47 
L 19.40625 67 
L 15.296875 67 
C 14.296875 53.875 9.90625 47.1875 1.796875 46.59375 
L 1.796875 42.703125 
L 10 42.703125 
L 10 17.265625 
C 10 10.28125 10.203125 7.78125 11.203125 5.484375 
C 12.796875 1.296875 16.796875 -1 22.59375 -1 
C 26.5 -1 29.90625 0.203125 32.203125 2.390625 
C 35.5 5.59375 37.40625 10.875 37.40625 16.375 
C 37.40625 16.96875 37.40625 17.671875 37.296875 18.671875 
L 33.09375 18.671875 
C 32.796875 9.6875 30.203125 5.09375 25.296875 5.09375 
C 23 5.09375 21 6.28125 20.296875 7.984375 
C 19.703125 9.375 19.40625 11.875 19.40625 15.46875 
L 19.40625 42.703125 
L 34.09375 42.703125 
L 34.09375 47 
z
" id="Century_Schoolbook_L_Roman-116"/>
      <path d="M 63.90625 72 
L 60.09375 72 
L 56.09375 66.015625 
C 49 71.203125 45.09375 72.703125 38.40625 72.703125 
C 28.703125 72.703125 20.703125 68.8125 13.90625 60.78125 
C 7.5 53.234375 4.5 44.890625 4.5 34.65625 
C 4.5 13.296875 18.59375 -2 38.296875 -2 
C 54.296875 -2 64.5 7.34375 66.796875 24.015625 
L 62.09375 24.8125 
C 61.09375 19.546875 59.90625 15.984375 58.09375 13.015625 
C 54 6.171875 47.59375 2.6875 39.5 2.6875 
C 24.703125 2.6875 17.703125 12.90625 17.703125 34.265625 
C 17.703125 45.46875 19.203125 53.015625 22.59375 58.96875 
C 25.703125 64.53125 31.90625 68 38.296875 68 
C 45.296875 68 51.5 64.328125 55.296875 57.96875 
C 57.203125 54.6875 58.703125 50.8125 61 43.171875 
L 65.40625 43.171875 
z
" id="Century_Schoolbook_L_Roman-67"/>
      <path d="M 41.203125 0 
L 59.40625 0 
L 59.40625 4.703125 
L 56.90625 4.703125 
C 51.40625 4.703125 50.59375 5.59375 50.59375 11.953125 
L 50.59375 46.78125 
L 31.796875 46.78125 
L 31.796875 42 
L 36.90625 42 
C 40.59375 42 41.203125 41.296875 41.203125 36.953125 
L 41.203125 24.5625 
C 41.203125 18.8125 40.59375 15.484375 39.09375 12.15625 
C 37 7.71875 33 5.09375 28.09375 5.09375 
C 25 5.09375 22.40625 6.1875 21.09375 8.171875 
C 19.796875 10.046875 19.59375 11.046875 19.59375 16.5 
L 19.59375 46.78125 
L 2.09375 46.78125 
L 2.09375 42 
L 5.90625 42 
C 9.59375 42 10.203125 41.296875 10.203125 36.953125 
L 10.203125 15.21875 
C 10.203125 10.078125 10.59375 7.765625 12.09375 5.453125 
C 14.796875 1.3125 19.59375 -1 25.59375 -1 
C 32.203125 -1 36.796875 1.71875 41.203125 8.125 
z
" id="Century_Schoolbook_L_Roman-117"/>
      <path d="M 20 46 
L 2.703125 46 
L 2.703125 41.21875 
L 6.296875 41.21875 
C 10 41.21875 10.59375 40.515625 10.59375 36.203125 
L 10.59375 12.296875 
L 10.59375 8.296875 
C 10.59375 4.296875 9.5 3.59375 3.09375 3.59375 
L 2.703125 3.59375 
L 2.703125 0 
L 28 0 
L 28 3.59375 
L 27.59375 3.59375 
C 21.09375 3.59375 20 4.296875 20 8.28125 
L 20 12.28125 
L 20 22.65625 
C 20 27.546875 20.703125 32.03125 21.796875 34.328125 
C 23.90625 38.828125 28.40625 41.921875 32.703125 41.921875 
C 35.296875 41.921875 38.296875 40.421875 39.796875 38.421875 
C 41.296875 36.328125 42 33.234375 42 28.4375 
L 42 12.28125 
L 42 8.28125 
C 42 4.296875 40.90625 3.59375 34.40625 3.59375 
L 34 3.59375 
L 34 0 
L 59.296875 0 
L 59.296875 3.59375 
L 58.90625 3.59375 
C 52.5 3.59375 51.40625 4.296875 51.40625 8.28125 
L 51.40625 12.28125 
L 51.40625 27.953125 
C 51.40625 35.125 51.09375 36.921875 49.296875 40.328125 
C 46.796875 45.109375 41.703125 48 35.796875 48 
C 29.40625 48 24.40625 45.046875 20 38.515625 
z
" id="Century_Schoolbook_L_Roman-110"/>
      <path d="M 19.59375 7.59375 
C 14.09375 7.59375 13.796875 7.703125 12.59375 8.46875 
C 11.90625 8.90625 11.40625 10.109375 11.40625 11.296875 
C 11.40625 14.578125 14.09375 16 20.796875 16 
C 30.296875 16 31.796875 16.203125 35.09375 17.6875 
C 41.09375 20.359375 44.5 25.484375 44.5 31.984375 
C 44.5 35.921875 43.59375 38.390625 40.796875 41.640625 
C 42.5 43.40625 43.40625 44 44.203125 44 
C 44.703125 44 45 43.6875 45.203125 42.625 
C 45.59375 40.265625 47.203125 39 49.703125 39 
C 52.203125 39 54.203125 41.09375 54.203125 43.78125 
C 54.203125 47.1875 51.5 49.578125 47.59375 49.578125 
C 44.40625 49.578125 42.59375 48.5625 38 44.296875 
C 33.796875 47.09375 30.59375 48.078125 25.59375 48.078125 
C 13.703125 48.078125 5.90625 41.625 5.90625 31.8125 
C 5.90625 26.03125 9.09375 21.03125 14.296875 18.6875 
C 7.59375 17.15625 4.796875 14.09375 4.796875 8.46875 
C 4.796875 3.984375 6.796875 1.328125 11.5 -0.296875 
C 5.296875 -2.484375 2.296875 -5.671875 2.296875 -9.75 
C 2.296875 -16.3125 10 -20 23.40625 -20 
C 40.09375 -20 48.5 -14.71875 48.5 -4.25 
C 48.5 0.71875 46.203125 4.6875 42.5 6.1875 
C 39.90625 7.1875 36.703125 7.59375 29.796875 7.59375 
z
M 25.5 44 
C 31.796875 44 35.296875 39.671875 35.296875 32.09375 
C 35.296875 24.421875 31.5 19.78125 25.09375 19.78125 
C 18.90625 19.78125 15 24.421875 15 31.796875 
C 15 39.5625 18.796875 44 25.5 44 
z
M 24.59375 -1 
C 32.90625 -1 33.5 -1 35 -1.1875 
C 39 -1.59375 41.5 -3.78125 41.5 -6.953125 
C 41.5 -12.625 35 -15.90625 23.796875 -15.90625 
C 15.40625 -15.90625 10.59375 -13.421875 10.59375 -8.953125 
C 10.59375 -5.671875 12.40625 -3.46875 17.203125 -1 
z
" id="Century_Schoolbook_L_Roman-103"/>
     </defs>
     <g transform="translate(186.60155 34.37596)scale(0.16 -0.16)">
      <use transform="translate(0 -1.570628)scale(0.996264)" xlink:href="#Century_Schoolbook_L_Roman-78"/>
      <use transform="translate(81.194513 -1.570628)scale(0.996264)" xlink:href="#Century_Schoolbook_L_Roman-111"/>
      <use transform="translate(131.007714 -1.570628)scale(0.996264)" xlink:href="#Century_Schoolbook_L_Roman-116"/>
      <use transform="translate(197.45659 -1.570628)scale(0.996264)" xlink:href="#Century_Schoolbook_L_Roman-67"/>
      <use transform="translate(269.386575 -1.570628)scale(0.996264)" xlink:href="#Century_Schoolbook_L_Roman-117"/>
      <use transform="translate(330.258205 -1.570628)scale(0.996264)" xlink:href="#Century_Schoolbook_L_Roman-116"/>
      <use transform="translate(369.011912 -1.570628)scale(0.996264)" xlink:href="#Century_Schoolbook_L_Roman-116"/>
      <use transform="translate(407.765618 -1.570628)scale(0.996264)" xlink:href="#Century_Schoolbook_L_Roman-105"/>
      <use transform="translate(439.146931 -1.570628)scale(0.996264)" xlink:href="#Century_Schoolbook_L_Roman-110"/>
      <use transform="translate(500.018561 -1.570628)scale(0.996264)" xlink:href="#Century_Schoolbook_L_Roman-103"/>
     </g>
    </g>
    <g id="line2d_14">
     <path d="M 307.49654 28.77596 
L 339.49654 28.77596 
" style="fill:none;stroke:#377eb8;stroke-dasharray:7.4,3.2;stroke-dashoffset:0;stroke-linecap:round;stroke-width:2;"/>
    </g>
    <g id="line2d_15"/>
    <g id="text_13">
     <!-- Cutting -->
     <g transform="translate(352.29654 34.37596)scale(0.16 -0.16)">
      <use transform="translate(0 -1.570628)scale(0.996264)" xlink:href="#Century_Schoolbook_L_Roman-67"/>
      <use transform="translate(71.929985 -1.570628)scale(0.996264)" xlink:href="#Century_Schoolbook_L_Roman-117"/>
      <use transform="translate(132.801616 -1.570628)scale(0.996264)" xlink:href="#Century_Schoolbook_L_Roman-116"/>
      <use transform="translate(171.555322 -1.570628)scale(0.996264)" xlink:href="#Century_Schoolbook_L_Roman-116"/>
      <use transform="translate(210.309028 -1.570628)scale(0.996264)" xlink:href="#Century_Schoolbook_L_Roman-105"/>
      <use transform="translate(241.690341 -1.570628)scale(0.996264)" xlink:href="#Century_Schoolbook_L_Roman-110"/>
      <use transform="translate(302.561972 -1.570628)scale(0.996264)" xlink:href="#Century_Schoolbook_L_Roman-103"/>
     </g>
    </g>
   </g>
  </g>
 </g>
 <defs>
  <clipPath id="paebe629879">
   <rect height="216.36" width="352.15462" x="65.32538" y="14.52"/>
  </clipPath>
 </defs>
</svg>
