<?xml version="1.0" encoding="utf-8" standalone="no"?>
<!DOCTYPE svg PUBLIC "-//W3C//DTD SVG 1.1//EN"
  "http://www.w3.org/Graphics/SVG/1.1/DTD/svg11.dtd">
<!-- Created with matplotlib (https://matplotlib.org/) -->
<svg height="288pt" version="1.1" viewBox="0 0 432 288" width="432pt" xmlns="http://www.w3.org/2000/svg" xmlns:xlink="http://www.w3.org/1999/xlink">
 <defs>
  <style type="text/css">
*{stroke-linecap:butt;stroke-linejoin:round;}
  </style>
 </defs>
 <g id="figure_1">
  <g id="patch_1">
   <path d="M 0 288 
L 432 288 
L 432 0 
L 0 0 
z
" style="fill:#ffffff;"/>
  </g>
  <g id="axes_1">
   <g id="patch_2">
    <path d="M 79.79325 230.88 
L 417.48 230.88 
L 417.48 14.52 
L 79.79325 14.52 
z
" style="fill:#ffffff;"/>
   </g>
   <g id="matplotlib.axis_1">
    <g id="xtick_1">
     <g id="line2d_1">
      <defs>
       <path d="M 0 0 
L 0 3.5 
" id="m71a4cb1fd2" style="stroke:#000000;stroke-width:0.8;"/>
      </defs>
      <g>
       <use style="stroke:#000000;stroke-width:0.8;" x="158.207431" xlink:href="#m71a4cb1fd2" y="230.88"/>
      </g>
     </g>
     <g id="text_1">
      <!-- $20$ -->
      <defs>
       <path d="M 41.703125 15.453125 
L 39.90625 15.453125 
C 38.90625 8.375 38.09375 7.171875 37.703125 6.5625 
C 37.203125 5.765625 30 5.765625 28.59375 5.765625 
L 9.40625 5.765625 
C 13 9.671875 20 16.75 28.5 24.953125 
C 34.59375 30.734375 41.703125 37.53125 41.703125 47.421875 
C 41.703125 59.21875 32.296875 66 21.796875 66 
C 10.796875 66 4.09375 56.3125 4.09375 47.34375 
C 4.09375 43.4375 7 42.9375 8.203125 42.9375 
C 9.203125 42.9375 12.203125 43.546875 12.203125 47.03125 
C 12.203125 50.109375 9.59375 51 8.203125 51 
C 7.59375 51 7 50.90625 6.59375 50.703125 
C 8.5 59.21875 14.296875 63.40625 20.40625 63.40625 
C 29.09375 63.40625 34.796875 56.515625 34.796875 47.421875 
C 34.796875 38.734375 29.703125 31.25 24 24.75 
L 4.09375 2.28125 
L 4.09375 0 
L 39.296875 0 
z
" id="CMR17-50"/>
       <path d="M 42 31.640625 
C 42 37.75 41.90625 48.125 37.703125 56.109375 
C 34 63.109375 28.09375 65.59375 22.90625 65.59375 
C 18.09375 65.59375 12 63.40625 8.203125 56.203125 
C 4.203125 48.71875 3.796875 39.4375 3.796875 31.640625 
C 3.796875 25.953125 3.90625 17.28125 7 9.671875 
C 11.296875 -0.609375 19 -2 22.90625 -2 
C 27.5 -2 34.5 -0.109375 38.59375 9.375 
C 41.59375 16.28125 42 24.359375 42 31.640625 
z
M 22.90625 -0.40625 
C 16.5 -0.40625 12.703125 5.078125 11.296875 12.6875 
C 10.203125 18.5625 10.203125 27.15625 10.203125 32.75 
C 10.203125 40.4375 10.203125 46.828125 11.5 52.921875 
C 13.40625 61.390625 19 64 22.90625 64 
C 27 64 32.296875 61.296875 34.203125 53.125 
C 35.5 47.4375 35.59375 40.734375 35.59375 32.75 
C 35.59375 26.25 35.59375 18.265625 34.40625 12.375 
C 32.296875 1.484375 26.40625 -0.40625 22.90625 -0.40625 
z
" id="CMR17-48"/>
      </defs>
      <g transform="translate(149.952306 251.21795)scale(0.18 -0.18)">
       <use transform="scale(0.996264)" xlink:href="#CMR17-50"/>
       <use transform="translate(45.690477 0)scale(0.996264)" xlink:href="#CMR17-48"/>
      </g>
     </g>
    </g>
    <g id="xtick_2">
     <g id="line2d_2">
      <g>
       <use style="stroke:#000000;stroke-width:0.8;" x="236.621612" xlink:href="#m71a4cb1fd2" y="230.88"/>
      </g>
     </g>
     <g id="text_2">
      <!-- $40$ -->
      <defs>
       <path d="M 33.59375 64.40625 
C 33.59375 66.5 33.5 66.5 31.703125 66.5 
L 2 19.59375 
L 2 17 
L 27.796875 17 
L 27.796875 7.140625 
C 27.796875 3.5 27.59375 2.5 20.59375 2.5 
L 18.703125 2.5 
L 18.703125 0 
C 21.90625 0 27.296875 0 30.703125 0 
C 34.09375 0 39.5 0 42.703125 0 
L 42.703125 2.5 
L 40.796875 2.5 
C 33.796875 2.5 33.59375 3.5 33.59375 7.140625 
L 33.59375 17 
L 43.796875 17 
L 43.796875 19.59375 
L 33.59375 19.59375 
z
M 28.09375 57.859375 
L 28.09375 19.59375 
L 4 19.59375 
z
" id="CMR17-52"/>
      </defs>
      <g transform="translate(228.366487 251.21795)scale(0.18 -0.18)">
       <use transform="scale(0.996264)" xlink:href="#CMR17-52"/>
       <use transform="translate(45.690477 0)scale(0.996264)" xlink:href="#CMR17-48"/>
      </g>
     </g>
    </g>
    <g id="xtick_3">
     <g id="line2d_3">
      <g>
       <use style="stroke:#000000;stroke-width:0.8;" x="315.035793" xlink:href="#m71a4cb1fd2" y="230.88"/>
      </g>
     </g>
     <g id="text_3">
      <!-- $60$ -->
      <defs>
       <path d="M 10.59375 34 
C 10.59375 57.65625 21.796875 63 28.296875 63 
C 30.40625 63 35.5 62.640625 37.5 59 
C 35.90625 59 32.90625 59 32.90625 55.515625 
C 32.90625 52.828125 35.09375 51.921875 36.5 51.921875 
C 37.40625 51.921875 40.09375 52.3125 40.09375 55.625 
C 40.09375 61.78125 35.09375 65.296875 28.203125 65.296875 
C 16.296875 65.296875 3.796875 52.96875 3.796875 31 
C 3.796875 3.953125 15.09375 -2 23.09375 -2 
C 32.796875 -2 42 6.671875 42 20.046875 
C 42 32.515625 33.90625 41.59375 23.703125 41.59375 
C 17.59375 41.59375 13.09375 37.609375 10.59375 30.625 
z
M 23.09375 0.390625 
C 10.796875 0.390625 10.796875 18.75 10.796875 22.4375 
C 10.796875 29.625 14.203125 40 23.5 40 
C 25.203125 40 30.09375 40 33.40625 33.125 
C 35.203125 29.21875 35.203125 25.140625 35.203125 20.140625 
C 35.203125 14.75 35.203125 10.78125 33.09375 6.78125 
C 30.90625 2.671875 27.703125 0.390625 23.09375 0.390625 
z
" id="CMR17-54"/>
      </defs>
      <g transform="translate(306.780668 251.21795)scale(0.18 -0.18)">
       <use transform="scale(0.996264)" xlink:href="#CMR17-54"/>
       <use transform="translate(45.690477 0)scale(0.996264)" xlink:href="#CMR17-48"/>
      </g>
     </g>
    </g>
    <g id="xtick_4">
     <g id="line2d_4">
      <g>
       <use style="stroke:#000000;stroke-width:0.8;" x="393.449974" xlink:href="#m71a4cb1fd2" y="230.88"/>
      </g>
     </g>
     <g id="text_4">
      <!-- $80$ -->
      <defs>
       <path d="M 27.203125 35.375 
C 33.5 38.546875 39.90625 43.328125 39.90625 50.984375 
C 39.90625 60.015625 31.09375 65.296875 23 65.296875 
C 13.90625 65.296875 5.90625 58.734375 5.90625 49.6875 
C 5.90625 47.203125 6.5 42.921875 10.40625 39.140625 
C 11.40625 38.15625 15.59375 35.171875 18.296875 33.28125 
C 13.796875 30.984375 3.296875 25.53125 3.296875 14.59375 
C 3.296875 4.359375 13.09375 -2 22.796875 -2 
C 33.5 -2 42.5 5.65625 42.5 15.78125 
C 42.5 24.84375 36.40625 29.015625 32.40625 31.703125 
z
M 14.09375 44.09375 
C 13.296875 44.59375 9.296875 47.671875 9.296875 52.359375 
C 9.296875 58.421875 15.59375 63 22.796875 63 
C 30.703125 63 36.5 57.4375 36.5 50.96875 
C 36.5 41.703125 26.09375 36.421875 25.59375 36.421875 
C 25.5 36.421875 25.40625 36.421875 24.59375 37.03125 
z
M 32.5 23.734375 
C 34 22.640625 38.796875 19.375 38.796875 13.296875 
C 38.796875 5.953125 31.40625 0.390625 23 0.390625 
C 13.90625 0.390625 7 6.84375 7 14.6875 
C 7 22.546875 13.09375 29.09375 20 32.1875 
z
" id="CMR17-56"/>
      </defs>
      <g transform="translate(385.194849 251.21795)scale(0.18 -0.18)">
       <use transform="scale(0.996264)" xlink:href="#CMR17-56"/>
       <use transform="translate(45.690477 0)scale(0.996264)" xlink:href="#CMR17-48"/>
      </g>
     </g>
    </g>
    <g id="text_5">
     <!-- Time (s) -->
     <defs>
      <path d="M 63.296875 72 
L 3.40625 72 
L 1.90625 44.265625 
L 6.203125 44.265625 
C 6.90625 49.25 7.796875 53.046875 8.90625 56.234375 
C 11.5 63.515625 16.296875 67.3125 23.09375 67.3125 
C 26.40625 67.3125 27.796875 66.203125 27.796875 63.71875 
L 27.796875 12.28125 
L 27.796875 9.375 
C 27.796875 5.1875 26.90625 4.6875 18.796875 4.6875 
L 16.203125 4.6875 
L 16.203125 0 
L 50.5 0 
L 50.5 4.6875 
L 47.90625 4.6875 
C 39.90625 4.6875 39 5.1875 39 9.375 
L 39 12.28125 
L 39 63.71875 
C 39 66.203125 40.40625 67.3125 43.703125 67.3125 
C 49.796875 67.3125 54.703125 63.90625 57.203125 57.921875 
C 58.703125 54.25 59.703125 49.953125 60.5 44.265625 
L 64.796875 44.265625 
z
" id="Century_Schoolbook_L_Roman-84"/>
      <path d="M 20.59375 46 
L 1.796875 46 
L 1.796875 41.21875 
L 6.90625 41.21875 
C 10.59375 41.21875 11.203125 40.515625 11.203125 36.203125 
L 11.203125 12.296875 
L 11.203125 8.296875 
C 11.203125 4.296875 10.09375 3.59375 3.703125 3.59375 
L 3 3.59375 
L 3 0 
L 28.90625 0 
L 28.90625 3.59375 
L 28.203125 3.59375 
C 21.703125 3.59375 20.59375 4.28125 20.59375 8.21875 
L 20.59375 12.171875 
z
M 15.90625 71.578125 
C 12.703125 71.578125 10.09375 68.984375 10.09375 65.796875 
C 10.09375 62.703125 12.703125 60 15.796875 60 
C 19.09375 60 21.703125 62.59375 21.703125 65.796875 
C 21.703125 68.984375 19.09375 71.578125 15.90625 71.578125 
z
" id="Century_Schoolbook_L_Roman-105"/>
      <path d="M 20.09375 46 
L 2.296875 46 
L 2.296875 41.21875 
L 6.40625 41.21875 
C 10.09375 41.21875 10.703125 40.515625 10.703125 36.203125 
L 10.703125 12.296875 
L 10.703125 8.40625 
C 10.703125 4.296875 9.59375 3.59375 3.203125 3.59375 
L 2.796875 3.59375 
L 2.796875 0 
L 28 0 
L 28 3.59375 
L 27.59375 3.59375 
C 21.203125 3.59375 20.09375 4.296875 20.09375 8.390625 
L 20.09375 12.28125 
L 20.09375 26.453125 
C 20.09375 35.328125 25 41.921875 31.5 41.921875 
C 34.09375 41.921875 36.90625 40.515625 38.09375 38.625 
C 39.5 36.734375 40.09375 33.828125 40.09375 29.734375 
L 40.09375 12.28125 
L 40.09375 8.28125 
C 40.09375 4.296875 39 3.59375 32.5 3.59375 
L 32.09375 3.59375 
L 32.09375 0 
L 57.40625 0 
L 57.40625 3.59375 
L 57 3.59375 
C 50.59375 3.59375 49.5 4.296875 49.5 8.28125 
L 49.5 12.28125 
L 49.5 25.546875 
C 49.5 35.53125 54 41.921875 61 41.921875 
C 64.296875 41.921875 67 40.015625 68.296875 36.921875 
C 69.203125 34.734375 69.5 32.53125 69.5 28.640625 
L 69.5 12.28125 
L 69.5 8.28125 
C 69.5 4.296875 68.40625 3.59375 61.90625 3.59375 
L 61.5 3.59375 
L 61.5 0 
L 86.796875 0 
L 86.796875 3.59375 
L 86.40625 3.59375 
C 80 3.59375 78.90625 4.296875 78.90625 8.390625 
L 78.90625 12.28125 
L 78.90625 30.640625 
C 78.90625 36.828125 78.296875 38.921875 75.703125 42.3125 
C 72.796875 46.015625 68.703125 48 63.90625 48 
C 57.40625 48 52.59375 44.9375 48.296875 38.109375 
C 46.59375 44.046875 41.203125 48 34.5 48 
C 28.5 48 24 45.140625 20.09375 38.921875 
z
" id="Century_Schoolbook_L_Roman-109"/>
      <path d="M 46.5 23 
C 46.59375 37.8125 38.09375 48.28125 25.90625 48.28125 
C 13.09375 48.28125 3.5 37.25 3.5 22.34375 
C 3.5 8.4375 12.59375 -1 26.09375 -1 
C 35.59375 -1 42.40625 3.6875 46.5 13.1875 
L 43 15.09375 
C 38.90625 7.390625 34.703125 4.390625 28 4.390625 
C 22.90625 4.390625 19.203125 6.59375 16.59375 11 
C 14.796875 14 14 17.5 14.09375 23 
z
M 14.203125 27.296875 
C 14.203125 30.34375 14.59375 32.5 15.59375 35.25 
C 17.703125 41.140625 20.90625 44 25.703125 44 
C 31.796875 44 35.796875 38.78125 35.796875 30.921875 
C 35.796875 28.078125 34.90625 27.296875 31.703125 27.296875 
z
" id="Century_Schoolbook_L_Roman-101"/>
      <path d="M 27.90625 73.453125 
C 21.90625 69.765625 18.703125 67.171875 15.296875 63.171875 
C 7.703125 54.1875 3.59375 42.71875 3.59375 30.640625 
C 3.59375 19.265625 7.203125 8.578125 13.90625 -0.296875 
C 17.703125 -5.09375 21.09375 -8.078125 27.90625 -12.28125 
L 27.90625 -8.578125 
C 17.90625 0.203125 13.90625 11.484375 13.90625 30.640625 
C 13.90625 49.796875 17.90625 60.984375 27.90625 69.765625 
z
" id="Century_Schoolbook_L_Roman-40"/>
      <path d="M 39 48 
L 35.5 48 
L 32.59375 44.40625 
C 29 47.203125 25.40625 48.390625 20.40625 48.390625 
C 11.59375 48.390625 5.796875 42.625 5.796875 33.953125 
C 5.796875 30.078125 7.09375 26.78125 9.296875 24.8125 
C 11.59375 22.703125 13.90625 21.71875 19.90625 20.3125 
L 25.203125 19.125 
C 33.09375 17.234375 35.90625 15.234375 35.90625 11.265625 
C 35.90625 6.578125 31.796875 3.296875 25.90625 3.296875 
C 17.5 3.296875 11.5 8.765625 9.09375 18.875 
L 5.09375 18.875 
L 5.09375 0 
L 8.59375 0 
L 12.09375 3.90625 
C 16.203125 0.59375 20.796875 -1 25.796875 -1 
C 35.59375 -1 42.09375 5.078125 42.09375 14.34375 
C 42.09375 18.71875 40.703125 22.09375 37.90625 24.390625 
C 35.5 26.484375 33.5 27.28125 27.40625 28.5625 
L 22.40625 29.671875 
C 16.90625 30.859375 16.90625 30.859375 15.09375 31.859375 
C 12.90625 32.859375 11.59375 34.9375 11.59375 37.140625 
C 11.59375 41.109375 15.40625 44 20.90625 44 
C 24.703125 44 27.796875 42.703125 30.59375 40.015625 
C 32.796875 37.8125 33.90625 35.828125 35.5 31.234375 
L 39 31.234375 
z
" id="Century_Schoolbook_L_Roman-115"/>
      <path d="M 5.40625 -12.28125 
C 11.40625 -8.578125 14.59375 -5.984375 18 -1.890625 
C 25.59375 6.984375 29.703125 18.5625 29.703125 30.640625 
C 29.703125 42.015625 26.09375 52.703125 19.40625 61.484375 
C 15.59375 66.375 12.203125 69.359375 5.40625 73.453125 
L 5.40625 69.765625 
C 15.40625 60.984375 19.40625 49.796875 19.40625 30.640625 
C 19.40625 11.375 15.40625 0.203125 5.40625 -8.578125 
z
" id="Century_Schoolbook_L_Roman-41"/>
     </defs>
     <g transform="translate(214.63516 273.24577)scale(0.18 -0.18)">
      <use transform="translate(0 -0.29235)scale(0.996264)" xlink:href="#Century_Schoolbook_L_Roman-84"/>
      <use transform="translate(66.450031 -0.29235)scale(0.996264)" xlink:href="#Century_Schoolbook_L_Roman-105"/>
      <use transform="translate(97.831344 -0.29235)scale(0.996264)" xlink:href="#Century_Schoolbook_L_Roman-109"/>
      <use transform="translate(186.398251 -0.29235)scale(0.996264)" xlink:href="#Century_Schoolbook_L_Roman-101"/>
      <use transform="translate(263.906621 -0.29235)scale(0.996264)" xlink:href="#Century_Schoolbook_L_Roman-40"/>
      <use transform="translate(297.081851 -0.29235)scale(0.996264)" xlink:href="#Century_Schoolbook_L_Roman-115"/>
      <use transform="translate(343.207661 -0.29235)scale(0.996264)" xlink:href="#Century_Schoolbook_L_Roman-41"/>
     </g>
    </g>
   </g>
   <g id="matplotlib.axis_2">
    <g id="ytick_1">
     <g id="line2d_5">
      <defs>
       <path d="M 0 0 
L -3.5 0 
" id="m3c16b935b8" style="stroke:#000000;stroke-width:0.8;"/>
      </defs>
      <g>
       <use style="stroke:#000000;stroke-width:0.8;" x="79.79325" xlink:href="#m3c16b935b8" y="230.88"/>
      </g>
     </g>
     <g id="text_6">
      <!-- $-200$ -->
      <defs>
       <path d="M 65.90625 23 
C 67.59375 23 69.40625 23 69.40625 25 
C 69.40625 27 67.59375 27 65.90625 27 
L 11.796875 27 
C 10.09375 27 8.296875 27 8.296875 25 
C 8.296875 23 10.09375 23 11.796875 23 
z
" id="CMSY10-0"/>
      </defs>
      <g transform="translate(34.02782 237.548975)scale(0.18 -0.18)">
       <use transform="translate(0 -0.031134)scale(0.996264)" xlink:href="#CMSY10-0"/>
       <use transform="translate(77.487468 -0.031134)scale(0.996264)" xlink:href="#CMR17-50"/>
       <use transform="translate(123.177945 -0.031134)scale(0.996264)" xlink:href="#CMR17-48"/>
       <use transform="translate(168.868422 -0.031134)scale(0.996264)" xlink:href="#CMR17-48"/>
      </g>
     </g>
    </g>
    <g id="ytick_2">
     <g id="line2d_6">
      <g>
       <use style="stroke:#000000;stroke-width:0.8;" x="79.79325" xlink:href="#m3c16b935b8" y="183.283484"/>
      </g>
     </g>
     <g id="text_7">
      <!-- $0$ -->
      <g transform="translate(64.53812 189.952459)scale(0.18 -0.18)">
       <use transform="scale(0.996264)" xlink:href="#CMR17-48"/>
      </g>
     </g>
    </g>
    <g id="ytick_3">
     <g id="line2d_7">
      <g>
       <use style="stroke:#000000;stroke-width:0.8;" x="79.79325" xlink:href="#m3c16b935b8" y="135.686968"/>
      </g>
     </g>
     <g id="text_8">
      <!-- $200$ -->
      <g transform="translate(48.02787 142.355943)scale(0.18 -0.18)">
       <use transform="scale(0.996264)" xlink:href="#CMR17-50"/>
       <use transform="translate(45.690477 0)scale(0.996264)" xlink:href="#CMR17-48"/>
       <use transform="translate(91.380954 0)scale(0.996264)" xlink:href="#CMR17-48"/>
      </g>
     </g>
    </g>
    <g id="ytick_4">
     <g id="line2d_8">
      <g>
       <use style="stroke:#000000;stroke-width:0.8;" x="79.79325" xlink:href="#m3c16b935b8" y="88.090452"/>
      </g>
     </g>
     <g id="text_9">
      <!-- $400$ -->
      <g transform="translate(48.02787 94.759427)scale(0.18 -0.18)">
       <use transform="scale(0.996264)" xlink:href="#CMR17-52"/>
       <use transform="translate(45.690477 0)scale(0.996264)" xlink:href="#CMR17-48"/>
       <use transform="translate(91.380954 0)scale(0.996264)" xlink:href="#CMR17-48"/>
      </g>
     </g>
    </g>
    <g id="ytick_5">
     <g id="line2d_9">
      <g>
       <use style="stroke:#000000;stroke-width:0.8;" x="79.79325" xlink:href="#m3c16b935b8" y="40.493935"/>
      </g>
     </g>
     <g id="text_10">
      <!-- $600$ -->
      <g transform="translate(48.02787 47.16291)scale(0.18 -0.18)">
       <use transform="scale(0.996264)" xlink:href="#CMR17-54"/>
       <use transform="translate(45.690477 0)scale(0.996264)" xlink:href="#CMR17-48"/>
       <use transform="translate(91.380954 0)scale(0.996264)" xlink:href="#CMR17-48"/>
      </g>
     </g>
    </g>
    <g id="text_11">
     <!-- Surface Speed -->
     <defs>
      <path d="M 54.59375 72 
L 50.90625 72 
L 46.90625 66.09375 
C 42.203125 70.59375 35.796875 73 28.703125 73 
C 15.59375 73 6.796875 64.609375 6.796875 52.15625 
C 6.796875 41.28125 12.203125 35.890625 26.90625 32.109375 
L 36.40625 29.703125 
C 43.796875 27.828125 44.5 27.625 46.59375 26.03125 
C 49.59375 23.734375 51.203125 20.4375 51.203125 16.546875 
C 51.203125 12.5625 49.703125 9.28125 46.703125 6.59375 
C 43.40625 3.6875 40.09375 2.59375 34.59375 2.59375 
C 27.203125 2.59375 21.90625 4.875 17.203125 10.03125 
C 13 14.703125 10.90625 19.375 9.40625 27 
L 5.09375 27 
L 5.5 -1.4375 
L 9.40625 -1.4375 
L 13.90625 5.46875 
C 20.59375 0 26.203125 -2 34.90625 -2 
C 49.59375 -2 59 6.59375 59 19.9375 
C 59 26.109375 56.90625 31.40625 53 35.203125 
C 50.296875 37.796875 46.40625 39.484375 38.40625 41.484375 
L 27.703125 44.171875 
C 18.796875 46.46875 14.59375 50.359375 14.59375 56.4375 
C 14.59375 63.40625 20.296875 68.203125 28.796875 68.203125 
C 35.796875 68.203125 41.5 65.1875 45.5 59.484375 
C 48.40625 55.375 50.203125 51.15625 51.5 46.046875 
L 55.796875 46.046875 
z
" id="Century_Schoolbook_L_Roman-83"/>
      <path d="M 41.203125 0 
L 59.40625 0 
L 59.40625 4.703125 
L 56.90625 4.703125 
C 51.40625 4.703125 50.59375 5.59375 50.59375 11.953125 
L 50.59375 46.78125 
L 31.796875 46.78125 
L 31.796875 42 
L 36.90625 42 
C 40.59375 42 41.203125 41.296875 41.203125 36.953125 
L 41.203125 24.5625 
C 41.203125 18.8125 40.59375 15.484375 39.09375 12.15625 
C 37 7.71875 33 5.09375 28.09375 5.09375 
C 25 5.09375 22.40625 6.1875 21.09375 8.171875 
C 19.796875 10.046875 19.59375 11.046875 19.59375 16.5 
L 19.59375 46.78125 
L 2.09375 46.78125 
L 2.09375 42 
L 5.90625 42 
C 9.59375 42 10.203125 41.296875 10.203125 36.953125 
L 10.203125 15.21875 
C 10.203125 10.078125 10.59375 7.765625 12.09375 5.453125 
C 14.796875 1.3125 19.59375 -1 25.59375 -1 
C 32.203125 -1 36.796875 1.71875 41.203125 8.125 
z
" id="Century_Schoolbook_L_Roman-117"/>
      <path d="M 19.796875 46 
L 2.09375 46 
L 2.09375 41.21875 
L 6.203125 41.21875 
C 9.90625 41.21875 10.5 40.515625 10.5 36.203125 
L 10.5 12.296875 
L 10.5 8.296875 
C 10.5 4.296875 9.40625 3.59375 2.90625 3.59375 
L 2.5 3.59375 
L 2.5 0 
L 29.203125 0 
L 29.203125 3.59375 
L 27.296875 3.59375 
C 20.90625 3.59375 19.796875 4.296875 19.796875 8.296875 
L 19.796875 12.296875 
L 19.796875 13.296875 
C 19.796875 20.8125 21.203125 28.40625 23.703125 34.109375 
C 26.09375 39.703125 29.5 42.8125 33.703125 43.3125 
C 32.296875 41.703125 31.90625 40.6875 31.90625 38.765625 
C 31.90625 35.546875 34.203125 33.234375 37.40625 33.234375 
C 41 33.234375 43.5 35.9375 43.5 40.015625 
C 43.5 44.8125 40.09375 48 34.796875 48 
C 28.5 48 23 42.921875 19.796875 34.140625 
z
" id="Century_Schoolbook_L_Roman-114"/>
      <path d="M 20.09375 46.296875 
L 20.09375 52.140625 
C 20.09375 57.265625 20.40625 60.65625 21.203125 62.71875 
C 22.796875 67.234375 26.296875 70 30.296875 70 
C 32.40625 70 33.703125 69.390625 33.703125 68.25 
C 33.703125 67.921875 33.59375 67.734375 33.09375 66.90625 
C 32.5 65.890625 32.203125 64.75 32.203125 63.625 
C 32.203125 60.546875 34.59375 58.203125 37.703125 58.203125 
C 41 58.203125 43.296875 60.734375 43.296875 64.40625 
C 43.296875 70.328125 38.296875 74 30.203125 74 
C 23.296875 74 18.296875 71.53125 14.703125 66.4375 
C 11.703125 62.140625 10.703125 57.734375 10.703125 49.46875 
L 10.703125 46.296875 
L 1.90625 46.296875 
L 1.90625 42 
L 10.703125 42 
L 10.703125 12.234375 
L 10.703125 8.25 
C 10.703125 4.296875 9.59375 3.59375 3.203125 3.59375 
L 2.796875 3.59375 
L 2.796875 0 
L 29.5 0 
L 29.5 3.59375 
L 27.703125 3.59375 
C 21.203125 3.59375 20.09375 4.296875 20.09375 8.25 
L 20.09375 12.234375 
L 20.09375 42 
L 31.09375 42 
L 31.09375 46.296875 
z
" id="Century_Schoolbook_L_Roman-102"/>
      <path d="M 45.203125 32.578125 
C 45.203125 38.796875 44.09375 41.96875 41.203125 44.34375 
C 37.90625 46.90625 33 48.28125 26.59375 48.28125 
C 15.40625 48.28125 7.09375 43.046875 7.09375 35.921875 
C 7.09375 32.15625 9.40625 29.78125 12.90625 29.78125 
C 16 29.78125 18.296875 31.859375 18.296875 34.8125 
C 18.296875 36.109375 17.796875 37.484375 16.796875 38.875 
C 16.203125 39.546875 16.09375 39.84375 16.09375 40.15625 
C 16.09375 42.21875 20.203125 44 25 44 
C 28.09375 44 31.59375 43.015625 33.203125 41.53125 
C 35.09375 39.953125 35.796875 37.578125 35.796875 33.125 
L 35.796875 29.28125 
C 25.296875 27.484375 22.09375 26.6875 17.203125 24.8125 
C 8.59375 21.609375 4.40625 16.9375 4.40625 10.65625 
C 4.40625 3.578125 10.09375 -1 18.90625 -1 
C 25.796875 -1 32 1.859375 36.296875 7.0625 
C 37.90625 1.984375 40.40625 0 45.09375 0 
C 49.59375 0 54.296875 2.890625 54.296875 5.78125 
C 54.296875 6.46875 53.796875 6.96875 53.296875 6.96875 
C 52.90625 6.96875 52.5 6.875 51.796875 6.578125 
C 50.203125 6 49.796875 5.890625 49 5.890625 
C 46.203125 5.890625 45.203125 7.78125 45.203125 12.71875 
z
M 35.796875 20.46875 
C 35.796875 14.46875 35.5 13.078125 33.796875 10.484375 
C 31.296875 6.78125 26.703125 4.296875 22.40625 4.296875 
C 17.90625 4.296875 14.5 7.59375 14.5 12.078125 
C 14.5 16.265625 16.59375 19.265625 21 21.359375 
C 24.09375 22.75 28 23.75 35.796875 25.046875 
z
" id="Century_Schoolbook_L_Roman-97"/>
      <path d="M 38.703125 15.125 
C 35.5 7.96875 32.09375 5.09375 26.90625 5.09375 
C 18.90625 5.09375 13.90625 12.328125 13.90625 23.9375 
C 13.90625 35.953125 18.796875 44 26.203125 44 
C 29.203125 44 31.796875 42.59375 31.796875 41.015625 
C 31.796875 40.71875 31.59375 40.421875 31.203125 39.8125 
C 29.59375 37.9375 29.203125 36.9375 29.203125 35.265625 
C 29.203125 31.984375 31.703125 29.703125 35.203125 29.703125 
C 38.703125 29.703125 41.296875 32.484375 41.296875 36.453125 
C 41.296875 43.109375 34.59375 48.28125 25.703125 48.28125 
C 12.703125 48.28125 3.40625 37.65625 3.40625 22.84375 
C 3.40625 8.734375 11.90625 -1 24.296875 -1 
C 33.203125 -1 38.296875 3.078125 42.59375 13.625 
z
" id="Century_Schoolbook_L_Roman-99"/>
      <path d="M 20.09375 46 
L 2.796875 46 
L 2.796875 41.21875 
L 6.40625 41.21875 
C 10.09375 41.21875 10.703125 40.515625 10.703125 36.21875 
L 10.703125 -7.75 
L 10.703125 -11.71875 
C 10.703125 -15.71875 9.59375 -16.40625 3.203125 -16.40625 
L 2.796875 -16.40625 
L 2.796875 -20 
L 28.796875 -20 
L 28.796875 -16.40625 
L 27.703125 -16.40625 
C 21.203125 -16.40625 20.09375 -15.71875 20.09375 -11.734375 
L 20.09375 -7.75 
L 20.09375 6.6875 
C 23.40625 0.90625 27.203125 -1.390625 33.296875 -1.390625 
C 44.90625 -1.390625 53.5 9.265625 53.5 23.5 
C 53.5 37.265625 44.90625 48 33.90625 48 
C 27.703125 48 23.59375 45.4375 20.09375 39.515625 
z
M 32.09375 42.609375 
C 39 42.609375 43 35.75 43 24.09375 
C 43 11.265625 38.90625 4 31.796875 4 
C 24.703125 4 20 11.375 20 22.8125 
C 20 35.140625 24.5 42.609375 32.09375 42.609375 
z
" id="Century_Schoolbook_L_Roman-112"/>
      <path d="M 38 0 
L 55.40625 0 
L 55.40625 4.703125 
L 53.59375 4.703125 
C 48.203125 4.703125 47.40625 5.703125 47.40625 11.96875 
L 47.40625 73.78125 
L 27.796875 73.78125 
L 27.796875 69 
L 33.703125 69 
C 37.296875 69 38 68.28125 38 63.921875 
L 38 41 
C 34.296875 46.09375 30 48.390625 24.203125 48.390625 
C 12.90625 48.390625 4.296875 37.546875 4.296875 23.203125 
C 4.296875 9.0625 12.59375 -1 24.203125 -1 
C 30.5 -1 34.796875 1.671875 38 7.59375 
z
M 26.203125 43 
C 30.296875 43 34.203125 40.03125 36 35.4375 
C 37.203125 32.453125 37.90625 28.28125 37.90625 23.515625 
C 37.90625 11.96875 33.296875 4.390625 26.09375 4.390625 
C 19.09375 4.390625 14.796875 10.96875 14.796875 22.015625 
C 14.796875 27.890625 15.40625 32.359375 16.703125 35.734375 
C 18.40625 40.125 22.09375 43 26.203125 43 
z
" id="Century_Schoolbook_L_Roman-100"/>
     </defs>
     <g transform="translate(25.33795 181.86556)rotate(-90)scale(0.18 -0.18)">
      <use transform="translate(0 -1.570628)scale(0.996264)" xlink:href="#Century_Schoolbook_L_Roman-83"/>
      <use transform="translate(62.763979 -1.570628)scale(0.996264)" xlink:href="#Century_Schoolbook_L_Roman-117"/>
      <use transform="translate(123.63561 -1.570628)scale(0.996264)" xlink:href="#Century_Schoolbook_L_Roman-114"/>
      <use transform="translate(167.869178 -1.570628)scale(0.996264)" xlink:href="#Century_Schoolbook_L_Roman-102"/>
      <use transform="translate(201.044408 -1.570628)scale(0.996264)" xlink:href="#Century_Schoolbook_L_Roman-97"/>
      <use transform="translate(256.436085 -1.570628)scale(0.996264)" xlink:href="#Century_Schoolbook_L_Roman-99"/>
      <use transform="translate(300.669654 -1.570628)scale(0.996264)" xlink:href="#Century_Schoolbook_L_Roman-101"/>
      <use transform="translate(378.178024 -1.570628)scale(0.996264)" xlink:href="#Century_Schoolbook_L_Roman-83"/>
      <use transform="translate(440.942003 -1.570628)scale(0.996264)" xlink:href="#Century_Schoolbook_L_Roman-112"/>
      <use transform="translate(498.12749 -1.570628)scale(0.996264)" xlink:href="#Century_Schoolbook_L_Roman-101"/>
      <use transform="translate(547.940691 -1.570628)scale(0.996264)" xlink:href="#Century_Schoolbook_L_Roman-101"/>
      <use transform="translate(597.753891 -1.570628)scale(0.996264)" xlink:href="#Century_Schoolbook_L_Roman-100"/>
     </g>
    </g>
   </g>
   <g id="line2d_10">
    <path clip-path="url(#p46a1fd98bd)" d="M 79.79325 183.283484 
L 84.415766 183.283484 
L 84.533387 176.64355 
L 84.651009 176.64355 
L 84.764709 160.629592 
L 84.807837 160.629592 
L 84.921537 149.042256 
L 85.003872 149.042256 
L 85.117573 145.526997 
L 85.160701 145.526997 
L 85.274401 144.745828 
L 85.317529 144.745828 
L 85.43123 144.615633 
L 85.43515 144.615633 
L 85.548851 145.136412 
L 85.591979 145.136412 
L 85.7096 145.787386 
L 85.748807 145.787386 
L 85.862508 146.177971 
L 85.866428 146.177971 
L 85.98405 146.43836 
L 86.062464 146.43836 
L 86.187926 146.959139 
L 86.297706 146.959139 
L 86.415328 147.219529 
L 86.65057 147.219529 
L 86.764271 147.349724 
L 87.86599 147.349724 
L 87.979691 147.219529 
L 87.983611 147.219529 
L 88.097312 147.349724 
L 88.493303 147.349724 
L 88.607004 147.219529 
L 88.610925 147.219529 
L 88.724625 147.349724 
L 89.199031 147.349724 
L 89.277445 147.219529 
L 89.308811 147.349724 
L 89.355859 147.349724 
L 89.46956 147.219529 
L 89.943966 147.219529 
L 90.057666 147.349724 
L 90.100794 147.349724 
L 90.214495 147.219529 
L 90.218415 147.219529 
L 90.332116 147.349724 
L 90.336037 147.349724 
L 90.449737 147.219529 
L 90.845729 147.219529 
L 90.959429 147.349724 
L 91.002557 147.349724 
L 91.116258 147.219529 
L 91.747492 147.219529 
L 91.861192 147.349724 
L 91.982734 147.349724 
L 92.061149 147.219529 
L 92.092514 147.349724 
L 92.649255 147.349724 
L 92.727669 147.219529 
L 92.759035 147.349724 
L 92.923705 147.349724 
L 93.037405 147.219529 
L 93.198154 147.219529 
L 93.311855 147.349724 
L 93.551018 147.349724 
L 93.664719 147.219529 
L 93.747054 147.219529 
L 93.825468 147.349724 
L 93.856833 147.219529 
L 94.06071 147.219529 
L 94.174411 147.349724 
L 94.178332 147.349724 
L 94.292032 147.219529 
L 94.413574 147.219529 
L 94.452781 147.349724 
L 94.523354 147.219529 
L 95.080095 147.219529 
L 95.193795 147.349724 
L 96.138686 147.349724 
L 96.2171 147.219529 
L 96.248466 147.349724 
L 96.413136 147.349724 
L 96.526836 147.219529 
L 96.648378 147.219529 
L 96.762079 147.349724 
L 97.079656 147.349724 
L 97.118863 147.219529 
L 97.189436 147.349724 
L 97.314899 147.349724 
L 97.428599 147.219529 
L 97.589348 147.219529 
L 97.703049 147.349724 
L 97.942212 147.349724 
L 98.055913 147.219529 
L 98.530319 147.219529 
L 98.644019 147.349724 
L 99.58891 147.349724 
L 99.628117 147.219529 
L 99.69869 147.349724 
L 99.86336 147.349724 
L 99.97706 147.219529 
L 100.098602 147.219529 
L 100.212303 147.349724 
L 100.52988 147.349724 
L 100.643581 147.219529 
L 100.686709 147.219529 
L 100.725916 147.349724 
L 100.796488 147.219529 
L 100.882744 147.219529 
L 100.996445 147.349724 
L 101.235608 147.349724 
L 101.274815 147.219529 
L 101.345388 147.349724 
L 101.431643 147.349724 
L 101.545344 147.219529 
L 101.980543 147.219529 
L 102.094243 147.349724 
L 103.313584 147.349724 
L 103.427284 147.219529 
L 103.588033 147.219529 
L 103.701734 147.349724 
L 103.940897 147.349724 
L 104.054598 147.219529 
L 104.136933 147.219529 
L 104.17614 147.349724 
L 104.246712 147.219529 
L 104.332968 147.219529 
L 104.411382 147.349724 
L 104.442748 147.219529 
L 104.607418 147.219529 
L 104.721118 147.349724 
L 104.881867 147.349724 
L 104.995568 147.219529 
L 105.430766 147.219529 
L 105.544467 147.349724 
L 105.587595 147.349724 
L 105.666009 147.219529 
L 105.697375 147.349724 
L 105.822837 147.349724 
L 105.901252 147.219529 
L 105.932617 147.349724 
L 106.489358 147.349724 
L 106.603059 147.219529 
L 106.920636 147.219529 
L 107.034336 147.349724 
L 107.038257 147.349724 
L 107.116671 147.219529 
L 107.148037 147.349724 
L 107.2735 147.349724 
L 107.3872 147.219529 
L 107.391121 147.219529 
L 107.430328 147.349724 
L 107.500901 147.274824 
L 107.587156 147.329912 
L 107.700857 147.550885 
L 107.743985 147.661268 
L 107.861606 147.882034 
L 107.865527 147.809725 
L 108.018434 147.848788 
L 108.057642 147.960176 
L 108.132135 147.945148 
L 108.410505 147.893004 
L 108.524206 147.68157 
L 109.547511 147.70333 
L 109.669053 148.086466 
L 109.704339 148.086466 
L 109.743546 148.208804 
L 109.814119 148.103439 
L 109.821961 148.103439 
L 109.939582 148.38377 
L 109.978789 148.285181 
L 110.021917 148.440034 
L 110.045441 148.440034 
L 110.057203 148.440034 
L 110.09641 148.2366 
L 110.166983 148.400621 
L 110.174824 148.400621 
L 110.214032 148.203725 
L 110.288525 148.247245 
L 110.292446 148.247245 
L 110.37086 148.424418 
L 110.374781 148.237486 
L 110.402226 148.237486 
L 110.410067 148.237486 
L 110.449274 148.369635 
L 110.519847 148.243918 
L 110.723724 148.232393 
L 110.762931 148.369475 
L 110.806059 148.17919 
L 110.829583 148.17919 
L 110.841345 148.17919 
L 110.880552 148.318663 
L 110.951125 148.243562 
L 110.998173 148.243562 
L 111.03738 148.385293 
L 111.080508 148.227034 
L 111.107953 148.227034 
L 111.115795 148.227034 
L 111.229495 148.371134 
L 111.233416 148.371134 
L 111.272623 148.237985 
L 111.276544 148.385428 
L 111.347116 148.251109 
L 111.390244 148.269296 
L 111.429451 148.41913 
L 111.433372 148.199661 
L 111.500024 148.22793 
L 111.547073 148.22793 
L 111.58628 148.38084 
L 111.656852 148.299105 
L 111.860729 148.266515 
L 111.899936 148.425913 
L 111.970509 148.302771 
L 111.978351 148.302771 
L 112.017558 148.464959 
L 112.021478 148.286543 
L 112.08813 148.361354 
L 112.135179 148.357083 
L 112.213593 148.523654 
L 112.244959 148.359189 
L 112.292007 148.367988 
L 112.331214 148.537747 
L 112.401787 148.404085 
L 112.409629 148.404085 
L 112.488043 148.577031 
L 112.491963 148.387242 
L 112.519408 148.387242 
L 112.605664 148.428406 
L 112.644871 148.606533 
L 112.648792 148.399105 
L 112.715444 148.453821 
L 112.723285 148.453821 
L 112.762492 148.635534 
L 112.833065 148.507941 
L 112.840907 148.507941 
L 112.954607 148.695887 
L 112.958528 148.695887 
L 112.997735 148.517219 
L 113.040863 148.725449 
L 113.068308 148.725449 
L 113.076149 148.725449 
L 113.115356 148.487142 
L 113.185929 148.716137 
L 113.19377 148.716137 
L 113.307471 148.542224 
L 113.311392 148.542224 
L 113.425092 148.802305 
L 113.46822 148.802305 
L 113.507427 148.599055 
L 113.550555 148.834164 
L 113.578 148.834164 
L 113.625048 148.863659 
L 113.738749 148.671332 
L 113.74267 148.671332 
L 113.781877 148.888519 
L 113.85245 148.732465 
L 113.860291 148.732465 
L 113.899498 148.954426 
L 113.970071 148.774625 
L 114.056326 148.812234 
L 114.095534 149.042564 
L 114.166106 148.863324 
L 114.173948 148.863324 
L 114.252362 149.117456 
L 114.283728 148.90535 
L 114.330776 148.90535 
L 114.369983 149.148489 
L 114.440556 148.943996 
L 114.448397 148.943996 
L 114.526811 149.462948 
L 114.562098 149.151277 
L 114.566019 149.151277 
L 114.687561 147.537963 
L 114.801261 147.543506 
L 114.879675 146.765105 
L 114.914962 146.770771 
L 114.918882 146.770771 
L 115.036504 146.375482 
L 115.310953 146.474747 
L 115.432495 146.668119 
L 115.585403 146.732337 
L 115.706945 146.924794 
L 115.820645 146.994539 
L 115.934346 147.064234 
L 116.212716 147.167731 
L 116.353862 147.242911 
L 116.918444 147.334931 
L 117.032145 147.362627 
L 132.87573 147.451774 
L 132.914937 147.474515 
L 132.958065 147.433026 
L 132.981589 147.433026 
L 139.776178 147.508757 
L 139.854592 147.555611 
L 139.858513 147.495182 
L 139.885958 147.495182 
L 142.71671 147.602887 
L 142.755917 147.607081 
L 142.810807 147.541147 
L 144.284993 147.600607 
L 144.363407 147.653203 
L 144.394773 147.628733 
L 144.716271 147.703819 
L 144.755478 147.76604 
L 144.829972 147.758503 
L 146.75504 147.79962 
L 146.794247 147.881323 
L 146.837375 147.795384 
L 146.86482 147.795384 
L 147.186318 147.822912 
L 147.264732 147.922438 
L 147.296098 147.850526 
L 147.656803 147.891946 
L 147.69601 147.995272 
L 147.766583 147.936439 
L 147.852838 148.042072 
L 147.895966 147.99461 
L 147.966539 148.102575 
L 148.401738 148.191906 
L 148.515438 148.223822 
L 148.558566 148.223822 
L 148.597773 148.10007 
L 148.601694 148.248163 
L 148.672267 148.1332 
L 148.676187 148.1332 
L 148.715394 148.258846 
L 148.785967 148.147472 
L 148.872223 148.153605 
L 148.91143 148.284651 
L 148.982003 148.182608 
L 148.989844 148.182608 
L 149.068258 148.34219 
L 149.099624 148.214868 
L 149.18588 148.231128 
L 149.264294 148.378486 
L 149.295659 148.263493 
L 149.303501 148.263493 
L 149.381915 148.55516 
L 149.413281 148.429122 
L 149.734779 148.396653 
L 149.813193 148.582435 
L 149.844559 148.44257 
L 149.8524 148.44257 
L 149.966101 148.634029 
L 149.970021 148.634029 
L 150.009228 148.491152 
L 150.052356 148.691416 
L 150.07588 148.691416 
L 150.166057 148.728208 
L 150.205264 148.572463 
L 150.248392 148.782817 
L 150.271916 148.782817 
L 150.479714 148.736137 
L 150.518921 148.942733 
L 150.589493 148.823323 
L 150.597335 148.823323 
L 150.675749 149.037942 
L 150.707115 148.888555 
L 150.754163 148.952159 
L 150.867864 149.247401 
L 150.871784 149.247401 
L 150.910992 149.082647 
L 150.954119 149.251924 
L 150.981564 149.251924 
L 150.989406 149.251924 
L 151.103106 149.620572 
L 151.185441 149.664881 
L 151.263855 150.12625 
L 151.299142 150.053802 
L 151.34227 150.053802 
L 151.463811 150.779049 
L 151.499098 150.779049 
L 151.616719 151.35681 
L 151.655926 151.35681 
L 151.777468 152.378366 
L 151.812755 152.378366 
L 151.934297 153.483966 
L 152.00879 153.483966 
L 152.130332 154.800077 
L 152.165618 154.800077 
L 152.306764 155.937241 
L 152.322447 155.937241 
L 152.443989 157.432806 
L 152.479275 157.432806 
L 152.592976 157.719613 
L 152.596896 157.719613 
L 152.72628 160.958591 
L 152.792932 160.958591 
L 152.922315 162.865334 
L 152.94976 162.865334 
L 153.075223 164.388853 
L 153.106589 164.388853 
L 153.228131 166.665436 
L 153.263417 166.665436 
L 153.381038 168.169701 
L 153.420245 168.169701 
L 153.541787 170.413747 
L 153.577074 170.413747 
L 153.694695 172.257924 
L 153.733902 172.257924 
L 153.863285 174.103472 
L 153.929937 174.103472 
L 154.063242 176.30851 
L 154.125973 176.30851 
L 154.247515 178.503776 
L 154.322008 178.503776 
L 154.43963 180.330113 
L 154.572934 182.521065 
L 154.596458 182.521065 
L 154.710159 182.887569 
L 154.714079 182.887569 
L 154.792493 183.962195 
L 154.796414 180.344663 
L 154.812097 180.344663 
L 154.910115 180.344663 
L 155.027736 140.565928 
L 155.066943 140.565928 
L 155.184564 71.181589 
L 155.306106 42.968028 
L 155.341393 42.968028 
L 155.455093 33.966321 
L 155.459014 33.966321 
L 155.498221 33.241458 
L 155.568794 33.81443 
L 155.576635 33.81443 
L 155.690336 35.332148 
L 155.694257 35.332148 
L 155.807957 40.356318 
L 155.851085 40.356318 
L 155.964785 43.86277 
L 155.968706 43.86277 
L 156.082407 45.537493 
L 156.086327 45.537493 
L 156.200028 50.666333 
L 156.282363 50.666333 
L 156.396063 56.318524 
L 156.439191 56.318524 
L 156.552892 61.970715 
L 156.674434 61.970715 
L 156.799897 69.977986 
L 156.831262 69.977986 
L 156.948883 74.269464 
L 156.988091 74.269464 
L 157.101791 78.560943 
L 157.105712 78.560943 
L 157.227254 85.469177 
L 157.26254 85.469177 
L 157.376241 87.876591 
L 157.380161 87.876591 
L 157.493862 95.517516 
L 157.576197 95.517516 
L 157.689897 103.786463 
L 157.733025 103.786463 
L 157.846726 112.7881 
L 157.968268 112.7881 
L 158.081968 122.574764 
L 158.125096 122.574764 
L 158.238797 133.931482 
L 158.360339 133.931482 
L 158.474039 142.619109 
L 158.517167 142.619109 
L 158.630868 146.596577 
L 158.634788 146.596577 
L 158.75241 147.925506 
L 158.86611 148.553286 
L 158.870031 148.553286 
L 158.983731 148.77962 
L 159.183688 148.747479 
L 159.297388 148.541878 
L 159.379723 148.440973 
L 159.458137 148.186218 
L 159.497344 148.20452 
L 159.622807 147.937408 
L 159.732587 147.872113 
L 159.811001 147.691928 
L 159.846287 147.711126 
L 160.046244 147.603163 
L 160.085451 147.540179 
L 160.159944 147.547816 
L 160.438315 147.451804 
L 160.516729 147.410112 
L 160.552015 147.430227 
L 165.299994 147.450901 
L 165.413694 147.568926 
L 165.966514 147.66028 
L 166.044928 147.733362 
L 166.048849 147.576202 
L 166.072373 147.576202 
L 166.240964 147.679048 
L 166.280171 147.703761 
L 166.323299 147.507801 
L 166.554621 147.588536 
L 166.593828 147.683294 
L 166.636956 147.445602 
L 166.656559 147.445602 
L 166.82907 147.547879 
L 166.907484 147.624438 
L 166.911405 147.516532 
L 166.934929 147.516532 
L 167.142727 147.582727 
L 167.181934 147.634486 
L 167.225062 147.421531 
L 167.240745 147.421531 
L 167.37797 147.438248 
L 167.456384 147.535154 
L 167.487749 147.499442 
L 167.534798 147.52622 
L 167.574005 147.377418 
L 167.648498 147.413737 
L 167.730833 147.483832 
L 167.77004 147.563948 
L 167.773961 147.416321 
L 167.836692 147.416321 
L 167.966076 147.421116 
L 168.005283 147.535129 
L 168.079776 147.529674 
L 168.083697 147.529674 
L 168.197398 147.352278 
L 168.240526 147.379615 
L 168.354226 147.521188 
L 168.397354 147.54846 
L 168.511054 147.357972 
L 168.554182 147.441726 
L 168.593389 147.54016 
L 168.667883 147.510241 
L 168.671804 147.510241 
L 168.750218 147.381527 
L 168.781583 147.438183 
L 169.103082 147.440159 
L 169.142289 147.581621 
L 169.212861 147.51278 
L 169.299117 147.402284 
L 169.338324 147.388951 
L 169.342245 147.53098 
L 169.37361 147.53098 
L 169.53436 147.467251 
L 169.612774 147.401027 
L 169.616694 147.472293 
L 169.644139 147.472293 
L 169.769602 147.465807 
L 169.808809 147.359166 
L 169.879382 147.418733 
L 169.92643 147.519645 
L 169.965638 147.55004 
L 170.008765 147.392695 
L 170.020527 147.392695 
L 170.161673 147.442109 
L 170.279294 147.563371 
L 170.357708 147.410147 
L 170.392995 147.440999 
L 170.514537 147.5329 
L 170.553744 147.563752 
L 170.596872 147.412843 
L 170.608634 147.412843 
L 170.710572 147.506693 
L 170.749779 147.537756 
L 170.7537 147.479447 
L 170.816431 147.479447 
L 172.592513 147.558316 
L 172.63172 147.593157 
L 172.674847 147.430402 
L 172.68661 147.430402 
L 173.062998 147.517187 
L 173.102205 147.588697 
L 173.106125 147.474189 
L 173.172778 147.509739 
L 174.984145 147.542863 
L 175.062559 147.624416 
L 175.097846 147.594661 
L 179.140097 147.651401 
L 179.253797 147.708234 
L 181.296487 147.747971 
L 181.335694 147.822525 
L 181.339614 147.741648 
L 181.406267 147.76346 
L 181.766972 147.851138 
L 181.806179 147.88463 
L 181.8101 147.789769 
L 181.86891 147.789769 
L 182.237457 147.820385 
L 182.276664 147.90541 
L 182.347237 147.824328 
L 182.394285 147.91127 
L 182.433492 147.941683 
L 182.437413 147.838157 
L 182.507986 147.927037 
L 183.452877 147.949991 
L 183.531291 148.064711 
L 183.562656 147.951121 
L 183.727326 148.05682 
L 183.766533 148.075507 
L 183.809661 148.010671 
L 183.829265 148.010671 
L 183.884155 148.010671 
L 183.962569 148.139573 
L 183.993934 148.02386 
L 184.040983 148.026903 
L 184.08019 148.142903 
L 184.150763 148.066247 
L 184.197811 148.066247 
L 184.276226 148.204129 
L 184.307591 148.083394 
L 184.35464 148.10939 
L 184.393847 148.23308 
L 184.397768 148.100115 
L 184.46442 148.100115 
L 184.511468 148.115551 
L 184.589882 148.266061 
L 184.621248 148.143999 
L 184.629089 148.143999 
L 184.74279 148.289599 
L 185.060367 148.395254 
L 185.138782 148.412475 
L 185.142702 148.289492 
L 185.256403 148.322056 
L 185.29561 148.475293 
L 185.366183 148.357287 
L 185.374024 148.357287 
L 185.452438 148.538638 
L 185.483804 148.389353 
L 185.57006 148.409058 
L 185.648474 148.608302 
L 185.679839 148.460062 
L 185.726888 148.490318 
L 185.805302 148.667227 
L 185.836668 148.515203 
L 185.883716 148.550037 
L 185.997417 148.764091 
L 186.040545 148.792552 
L 186.079752 148.620599 
L 186.12288 148.867042 
L 186.146404 148.867042 
L 186.158166 148.867042 
L 186.197373 148.696813 
L 186.271866 148.753161 
L 186.275787 148.753161 
L 186.354201 149.003858 
L 186.385567 148.845269 
L 186.432616 148.912127 
L 186.550237 149.189824 
L 186.589444 149.032856 
L 186.632572 149.338495 
L 186.656096 149.338495 
L 186.863894 149.409207 
L 186.981515 149.987805 
L 187.020722 149.917396 
L 187.06385 150.403899 
L 187.06777 150.403899 
L 187.099136 150.403899 
L 187.17755 150.62376 
L 187.212837 150.587827 
L 187.216757 150.587827 
L 187.295172 151.151688 
L 187.334379 151.148271 
L 187.373586 151.148271 
L 187.487286 152.083091 
L 187.491207 152.083091 
L 187.612749 153.194085 
L 187.687242 153.25929 
L 187.800943 153.693851 
L 187.844071 153.693851 
L 187.973454 155.551816 
L 188.000899 155.551816 
L 188.11852 156.426655 
L 188.267507 158.210041 
L 188.275349 158.210041 
L 188.400811 159.609106 
L 188.432177 159.609106 
L 188.565481 161.834643 
L 188.589006 161.834643 
L 188.714468 163.35753 
L 188.745834 163.35753 
L 188.863455 165.270485 
L 188.902662 165.270485 
L 189.035966 167.540339 
L 189.059491 167.540339 
L 189.184953 169.037055 
L 189.216319 169.037055 
L 189.337861 171.271447 
L 189.373147 171.271447 
L 189.502531 173.11781 
L 189.569183 173.11781 
L 189.690725 175.32264 
L 189.726011 175.32264 
L 189.839712 176.426231 
L 189.843632 176.426231 
L 189.976937 178.622182 
L 190.039668 178.622182 
L 190.172972 180.815236 
L 190.196496 180.815236 
L 190.310197 181.545982 
L 190.314117 181.545982 
L 190.431739 183.371716 
L 190.510153 183.371716 
L 190.54936 183.962195 
L 190.553281 180.345634 
L 190.588567 180.345634 
L 190.717951 140.565928 
L 190.745395 140.565928 
L 190.870858 93.539978 
L 190.902224 93.539978 
L 191.027687 42.968028 
L 191.059052 42.968028 
L 191.172753 36.296881 
L 191.176673 36.296881 
L 191.255088 33.241458 
L 191.290374 33.81443 
L 191.294295 33.81443 
L 191.407995 35.384483 
L 191.451123 35.384483 
L 191.576586 42.135711 
L 191.647159 42.135711 
L 191.76478 45.537493 
L 191.843194 45.537493 
L 191.956895 47.264551 
L 191.960815 47.264551 
L 192.074516 54.43446 
L 192.078437 54.43446 
L 192.192137 56.318524 
L 192.196058 56.318524 
L 192.309758 61.970715 
L 192.392093 61.970715 
L 192.505794 67.936917 
L 192.548922 67.936917 
L 192.662622 74.3218 
L 192.784164 74.3218 
L 192.897865 80.863687 
L 192.940993 80.863687 
L 193.054693 87.981261 
L 193.176235 87.981261 
L 193.289936 95.622186 
L 193.333063 95.622186 
L 193.446764 103.943468 
L 193.529099 103.943468 
L 193.642799 112.945106 
L 193.685927 112.945106 
L 193.799628 122.83644 
L 193.92117 122.83644 
L 194.03487 134.193157 
L 194.077998 134.193157 
L 194.191699 142.723779 
L 194.274034 142.723779 
L 194.387734 146.648912 
L 194.391655 146.648912 
L 194.509276 147.960044 
L 194.626897 148.553286 
L 194.740598 148.77962 
L 194.979761 148.695623 
L 195.097383 148.422833 
L 195.105224 148.440973 
L 195.13659 148.440973 
L 195.215004 148.186218 
L 195.254211 148.20452 
L 195.379674 147.937408 
L 195.528661 147.956412 
L 195.642361 147.679614 
L 195.842317 147.622994 
L 195.920731 147.528424 
L 195.956018 147.547816 
L 196.195181 147.451804 
L 196.273595 147.410112 
L 196.308882 147.430227 
L 200.468754 147.535024 
L 200.582454 147.558735 
L 201.017653 147.656418 
L 201.135274 147.751529 
L 201.248975 147.685029 
L 202.350694 147.633652 
L 202.389901 147.479711 
L 202.460474 147.556078 
L 203.21325 147.512404 
L 203.252457 147.40664 
L 203.326951 147.442692 
L 207.486823 147.52927 
L 207.52603 147.555931 
L 207.529951 147.471596 
L 207.588762 147.471596 
L 210.427355 147.560909 
L 210.466562 147.605149 
L 210.470483 147.537858 
L 210.533214 147.537858 
L 213.446301 147.603809 
L 213.485508 147.65423 
L 213.560001 147.636126 
L 215.602691 147.739492 
L 215.641898 147.750063 
L 215.645819 147.672062 
L 215.700709 147.685073 
L 216.42604 147.728462 
L 216.504454 147.800724 
L 216.508375 147.7093 
L 216.53582 147.7093 
L 216.974939 147.817188 
L 217.053353 147.834563 
L 217.057274 147.751534 
L 217.072957 147.751534 
L 217.680667 147.803107 
L 217.719874 147.88402 
L 217.790447 147.806881 
L 218.229566 147.836474 
L 218.268773 147.924184 
L 218.339346 147.859803 
L 218.817672 147.909666 
L 218.856879 148.006037 
L 218.927452 147.914494 
L 218.974501 147.932474 
L 219.013708 148.032755 
L 219.084281 147.932559 
L 219.170536 148.036357 
L 219.295999 148.04399 
L 219.915471 148.050539 
L 219.954678 148.17048 
L 220.025251 148.087074 
L 220.033092 148.087074 
L 220.111506 148.20985 
L 220.142872 148.092552 
L 220.18992 148.12127 
L 220.229128 148.246987 
L 220.2997 148.137281 
L 220.385956 148.143626 
L 220.425163 148.274745 
L 220.495736 148.173057 
L 220.503577 148.173057 
L 220.581991 148.332928 
L 220.613357 148.205753 
L 220.73882 148.24573 
L 220.85252 148.401677 
L 220.856441 148.401677 
L 220.895648 148.27465 
L 220.899569 148.570204 
L 220.966221 148.431232 
L 220.974062 148.431232 
L 221.013269 148.312682 
L 221.056397 148.488751 
L 221.079921 148.488751 
L 221.366133 148.439406 
L 221.479834 148.63124 
L 221.483754 148.63124 
L 221.522962 148.488575 
L 221.566089 148.689226 
L 221.589614 148.689226 
L 221.640583 148.726324 
L 221.67979 148.570806 
L 221.722918 148.783194 
L 221.746442 148.783194 
L 221.758204 148.783194 
L 221.836618 148.626159 
L 221.840539 148.819894 
L 221.867984 148.819894 
L 221.915032 148.853784 
L 221.95424 148.698066 
L 221.997367 148.957974 
L 222.020892 148.957974 
L 222.189482 148.904301 
L 222.303183 149.194502 
L 222.307103 149.194502 
L 222.34631 149.034496 
L 222.389438 149.336054 
L 222.412963 149.336054 
L 222.503139 149.424984 
L 222.616839 149.583889 
L 222.62076 149.583889 
L 222.734461 149.948434 
L 222.777588 149.948434 
L 222.89521 150.427357 
L 223.012831 150.389741 
L 223.126532 151.482364 
L 223.130452 151.482364 
L 223.251994 152.477373 
L 223.326488 152.525672 
L 223.444109 153.219772 
L 223.612699 154.606008 
L 223.640144 154.606008 
L 223.765607 156.070104 
L 223.83618 156.070104 
L 223.965563 157.742713 
L 224.032215 157.742713 
L 224.161599 159.831332 
L 224.189044 159.831332 
L 224.314506 161.277321 
L 224.385079 161.277321 
L 224.506621 163.932141 
L 224.541908 163.932141 
L 224.671291 165.843594 
L 224.698736 165.843594 
L 224.828119 167.730538 
L 224.855564 167.730538 
L 224.984948 169.612409 
L 225.012393 169.612409 
L 225.141776 171.465684 
L 225.208428 171.465684 
L 225.32997 174.057373 
L 225.365256 174.057373 
L 225.490719 175.526589 
L 225.522085 175.526589 
L 225.647547 176.994649 
L 225.678913 176.994649 
L 225.796534 178.823666 
L 225.835742 178.823666 
L 225.949442 180.286124 
L 225.953363 180.286124 
L 226.074905 182.480076 
L 226.149398 182.480076 
L 226.267019 183.962195 
L 226.306227 183.962195 
L 226.419927 180.344663 
L 226.423848 180.344663 
L 226.537548 158.639469 
L 226.541469 158.639469 
L 226.663011 93.510311 
L 226.698297 93.510311 
L 226.815919 54.343139 
L 226.929619 35.4513 
L 227.051161 35.4513 
L 227.129575 34.294371 
L 227.133496 36.849866 
L 227.15702 36.849866 
L 227.286404 36.849866 
L 227.400104 42.083376 
L 227.404025 42.083376 
L 227.525567 47.159881 
L 227.639268 47.159881 
L 227.752968 52.498062 
L 227.756889 52.498062 
L 227.878431 58.150253 
L 228.031339 58.150253 
L 228.145039 63.854779 
L 228.188167 63.854779 
L 228.301867 69.977986 
L 228.384202 69.977986 
L 228.497903 76.415204 
L 228.580238 76.415204 
L 228.693938 83.114097 
L 228.776273 83.114097 
L 228.889974 90.388676 
L 228.933102 90.388676 
L 229.046802 98.343612 
L 229.168344 98.343612 
L 229.282045 106.821899 
L 229.325173 106.821899 
L 229.438873 116.085212 
L 229.521208 116.085212 
L 229.634909 126.395227 
L 229.678036 126.395227 
L 229.791737 137.804279 
L 229.913279 137.804279 
L 230.026979 144.398502 
L 230.0309 144.398502 
L 230.152442 147.960044 
L 230.266143 147.977733 
L 230.383764 148.570714 
L 230.501385 148.780116 
L 230.579799 148.814814 
L 230.58372 148.746136 
L 230.607244 148.746136 
L 230.697421 148.695623 
L 230.818963 148.422833 
L 230.854249 148.422833 
L 230.97187 148.186218 
L 231.128699 148.120213 
L 231.242399 147.891687 
L 231.285527 147.808069 
L 231.403148 147.679614 
L 231.559977 147.603163 
L 231.673677 147.528424 
L 232.148083 147.431746 
L 232.265704 147.378774 
L 232.304911 147.439374 
L 232.375484 147.409188 
L 235.990378 147.513136 
L 236.029585 147.559222 
L 236.072713 147.441224 
L 236.092316 147.441224 
L 236.264828 147.534915 
L 236.343242 147.697508 
L 236.374607 147.58107 
L 236.50007 147.674992 
L 236.625533 147.768342 
L 237.676283 147.668462 
L 237.71549 147.627327 
L 237.786063 147.652071 
L 238.107561 147.58697 
L 238.146768 147.522194 
L 238.217341 147.553692 
L 239.166152 147.467125 
L 239.205359 147.433331 
L 239.275932 147.46987 
L 246.34105 147.544724 
L 246.419464 147.594816 
L 246.423385 147.52927 
L 246.45083 147.52927 
L 249.046339 147.590319 
L 249.124753 147.645401 
L 249.156119 147.600448 
L 250.732244 147.657912 
L 250.771451 147.716762 
L 250.842024 147.659524 
L 252.065285 147.72398 
L 252.143699 147.791651 
L 252.175065 147.724539 
L 252.927841 147.762507 
L 253.006255 147.836999 
L 253.037621 147.759899 
L 253.437533 147.797784 
L 253.47674 147.879762 
L 253.480661 147.787037 
L 253.547313 147.802583 
L 253.986433 147.910743 
L 254.02564 147.919743 
L 254.02956 147.841168 
L 254.08053 147.854199 
L 254.300089 147.885749 
L 254.339296 147.977859 
L 254.409869 147.889151 
L 254.731367 147.990782 
L 254.770574 148.026856 
L 254.774495 147.926626 
L 254.837226 147.951118 
L 255.005817 147.966023 
L 255.045024 148.070941 
L 255.048945 147.956991 
L 255.115597 147.973403 
L 255.319474 148.002888 
L 255.358681 148.113412 
L 255.429253 148.028008 
L 255.437095 148.028008 
L 255.515509 148.140124 
L 255.546875 148.048218 
L 255.554716 148.048218 
L 255.63313 148.164015 
L 255.668417 148.150911 
L 256.142822 148.154956 
L 256.221237 148.299561 
L 256.252602 148.164829 
L 256.260444 148.164829 
L 256.338858 148.324643 
L 256.370224 148.198796 
L 256.456479 148.215227 
L 256.534893 148.379898 
L 256.566259 148.247938 
L 256.5741 148.247938 
L 256.652515 148.413819 
L 256.68388 148.29019 
L 256.691722 148.29019 
L 256.805422 148.457015 
L 256.809343 148.457015 
L 256.84855 148.325595 
L 256.891678 148.512318 
L 256.915202 148.512318 
L 256.966171 148.533911 
L 257.044586 148.401175 
L 257.079872 148.419719 
L 257.083793 148.419719 
L 257.162207 148.599037 
L 257.193573 148.466805 
L 257.240621 148.479195 
L 257.279828 148.654288 
L 257.350401 148.517888 
L 257.436656 148.575679 
L 257.475864 148.762229 
L 257.546436 148.630453 
L 257.554278 148.630453 
L 257.667978 148.857692 
L 257.671899 148.857692 
L 257.711106 148.686332 
L 257.715027 148.889155 
L 257.781679 148.889155 
L 257.828727 148.94612 
L 257.907142 149.072716 
L 257.911062 148.906751 
L 257.934587 148.906751 
L 258.024763 148.970205 
L 258.103177 149.2652 
L 258.134543 149.102202 
L 258.142384 149.102202 
L 258.256085 149.337411 
L 258.33842 149.424168 
L 258.463882 150.005345 
L 258.534455 149.945919 
L 258.655997 150.623586 
L 258.769698 150.623586 
L 258.883398 151.466173 
L 258.887319 151.466173 
L 259.008861 152.469766 
L 259.083354 152.506811 
L 259.204896 153.608023 
L 259.27939 153.707476 
L 259.400932 155.06021 
L 259.436218 155.06021 
L 259.549919 155.548804 
L 259.553839 155.548804 
L 259.675381 157.123679 
L 259.710668 157.123679 
L 259.83221 159.064922 
L 259.867496 159.064922 
L 259.992959 160.516584 
L 260.024324 160.516584 
L 260.153708 162.38256 
L 260.181153 162.38256 
L 260.310536 164.299389 
L 260.337981 164.299389 
L 260.455602 165.819611 
L 260.49481 165.819611 
L 260.616352 168.091451 
L 260.651638 168.091451 
L 260.781021 169.958161 
L 260.808466 169.958161 
L 260.933929 171.447513 
L 260.965295 171.447513 
L 261.086837 173.665668 
L 261.122123 173.665668 
L 261.243665 175.871038 
L 261.318158 175.871038 
L 261.451463 178.072606 
L 261.474987 178.072606 
L 261.596529 179.170037 
L 261.631815 179.170037 
L 261.745516 180.633371 
L 261.749436 180.633371 
L 261.863137 182.095346 
L 261.867058 182.095346 
L 261.980758 183.555058 
L 261.984679 183.555058 
L 262.063093 183.96242 
L 262.067014 182.756351 
L 262.086617 182.756351 
L 262.1023 182.756351 
L 262.231684 150.19856 
L 262.37675 150.19856 
L 262.521816 62.711226 
L 262.533578 62.711226 
L 262.647279 39.641823 
L 262.690407 39.641823 
L 262.804107 33.762095 
L 262.808028 33.762095 
L 262.925649 36.849866 
L 263.04327 36.849866 
L 263.156971 42.031041 
L 263.160892 42.031041 
L 263.282434 47.212216 
L 263.396134 47.212216 
L 263.509835 52.498062 
L 263.513756 52.498062 
L 263.635297 58.150253 
L 263.788205 58.150253 
L 263.901906 63.907114 
L 263.945033 63.907114 
L 264.058734 69.977986 
L 264.141069 69.977986 
L 264.25477 76.415204 
L 264.337104 76.415204 
L 264.450805 83.166432 
L 264.53314 83.166432 
L 264.64684 90.441011 
L 264.689968 90.441011 
L 264.803669 98.343612 
L 264.925211 98.343612 
L 265.038911 106.874234 
L 265.082039 106.874234 
L 265.19574 116.085212 
L 265.278075 116.085212 
L 265.391775 126.395227 
L 265.434903 126.395227 
L 265.548603 134.245492 
L 265.552524 134.245492 
L 265.666225 137.856615 
L 265.670145 137.856615 
L 265.783846 144.450837 
L 265.787767 144.450837 
L 265.905388 146.701247 
L 266.023009 147.977733 
L 266.13671 148.622835 
L 266.140631 148.622835 
L 266.254331 148.77962 
L 266.454287 148.746136 
L 266.532701 148.490103 
L 266.571909 148.50819 
L 266.68953 148.30411 
L 266.728737 148.322837 
L 266.732658 148.20452 
L 266.767944 148.20452 
L 266.885565 148.002922 
L 266.924772 148.021359 
L 266.9679 147.872628 
L 267.081601 147.826667 
L 267.199222 147.679095 
L 267.316843 147.603163 
L 267.35605 147.622472 
L 267.399178 147.528424 
L 267.414861 147.528424 
L 267.826535 147.430227 
L 267.90495 147.38893 
L 267.940236 147.409102 
L 271.629623 147.490819 
L 271.708037 147.559573 
L 271.739403 147.48892 
L 271.94328 147.581136 
L 272.021694 147.650731 
L 272.056981 147.62745 
L 272.256937 147.720907 
L 272.370637 147.791256 
L 272.413765 147.745488 
L 272.452972 147.676393 
L 272.527466 147.699966 
L 273.707599 147.621011 
L 273.786013 147.555887 
L 273.8213 147.561412 
L 274.334912 147.479323 
L 274.37412 147.442432 
L 274.448613 147.450695 
L 280.960911 147.525286 
L 281.039325 147.56288 
L 281.070691 147.527646 
L 284.803206 147.590319 
L 284.88162 147.644562 
L 284.912986 147.599607 
L 286.449903 147.659174 
L 286.528318 147.716762 
L 286.559683 147.658329 
L 287.626116 147.749998 
L 287.70453 147.767741 
L 287.708451 147.697363 
L 287.728055 147.697363 
L 288.292637 147.799136 
L 288.331844 147.810118 
L 288.335765 147.724254 
L 288.386734 147.73924 
L 288.802329 147.784456 
L 288.916029 147.863139 
L 290.13537 147.884757 
L 290.213784 147.982231 
L 290.24515 147.893209 
L 290.527441 147.926575 
L 290.605855 148.026293 
L 290.637221 147.927772 
L 290.684269 147.955618 
L 290.762683 148.058751 
L 290.794049 147.964817 
L 290.880305 147.972182 
L 290.994005 148.078681 
L 291.507618 148.181813 
L 291.546825 148.199119 
L 291.550746 148.077931 
L 291.597794 148.077931 
L 291.664446 148.083347 
L 291.703654 148.239047 
L 291.774226 148.128026 
L 291.782068 148.128026 
L 291.860482 148.258063 
L 291.891848 148.153605 
L 291.938896 148.16485 
L 291.978103 148.2982 
L 292.048676 148.186553 
L 292.056517 148.186553 
L 292.170218 148.33515 
L 292.174139 148.33515 
L 292.213346 148.212423 
L 292.256474 148.378486 
L 292.283919 148.378486 
L 292.29176 148.378486 
L 292.330967 148.264916 
L 292.374095 148.429122 
L 292.397619 148.429122 
L 292.409381 148.429122 
L 292.448588 148.288744 
L 292.452509 148.5895 
L 292.51524 148.5895 
L 292.527002 148.5895 
L 292.644624 148.35228 
L 292.723038 148.530922 
L 292.754404 148.39816 
L 292.762245 148.39816 
L 292.840659 148.582435 
L 292.872025 148.444105 
L 292.879866 148.444105 
L 292.993567 148.635577 
L 293.036695 148.651161 
L 293.075902 148.498255 
L 293.11903 148.713578 
L 293.142554 148.713578 
L 293.154316 148.713578 
L 293.23273 148.574071 
L 293.268017 148.595985 
L 293.271937 148.595985 
L 293.311144 148.784442 
L 293.381717 148.657041 
L 293.389558 148.657041 
L 293.503259 148.901145 
L 293.50718 148.901145 
L 293.546387 148.73783 
L 293.589515 149.014829 
L 293.613039 149.014829 
L 293.781629 148.966669 
L 293.89533 149.192996 
L 293.977665 149.261624 
L 294.11489 149.591647 
L 294.134493 149.591647 
L 294.248194 149.953056 
L 294.291322 149.953056 
L 294.369736 150.443751 
L 294.405022 150.393107 
L 294.408943 150.393107 
L 294.487357 150.924084 
L 294.526564 150.907913 
L 294.565771 150.907913 
L 294.687313 151.834334 
L 294.7226 151.834334 
L 294.844142 152.903304 
L 294.879428 152.903304 
L 294.997049 153.717343 
L 295.036256 153.717343 
L 295.161719 154.952507 
L 295.193085 154.952507 
L 295.310706 156.064032 
L 295.349913 156.064032 
L 295.475376 157.497674 
L 295.506741 157.497674 
L 295.628283 159.425041 
L 295.702777 159.425041 
L 295.836081 161.614396 
L 295.859605 161.614396 
L 295.985068 163.124896 
L 296.016434 163.124896 
L 296.141896 164.651709 
L 296.173262 164.651709 
L 296.290883 166.929748 
L 296.33009 166.929748 
L 296.463394 169.191549 
L 296.486919 169.191549 
L 296.616302 171.059113 
L 296.643747 171.059113 
L 296.757448 172.170307 
L 296.761368 172.170307 
L 296.890752 174.015781 
L 296.918197 174.015781 
L 297.031897 174.753846 
L 297.035818 174.753846 
L 297.153439 176.587073 
L 297.274981 178.78518 
L 297.310268 178.78518 
L 297.43573 180.247638 
L 297.54551 180.247638 
L 297.690576 183.536953 
L 297.741546 183.536953 
L 297.855246 183.962195 
L 297.859167 183.962195 
L 297.996392 158.639469 
L 298.015995 158.639469 
L 298.137537 93.510311 
L 298.212031 93.510311 
L 298.337493 42.777576 
L 298.368859 42.777576 
L 298.490401 34.294371 
L 298.525687 34.294371 
L 298.564894 33.762095 
L 298.568815 35.279813 
L 298.627626 35.279813 
L 298.643309 35.279813 
L 298.757009 36.902201 
L 298.76093 36.902201 
L 298.87463 42.083376 
L 298.878551 42.083376 
L 298.996172 45.537493 
L 299.03538 45.537493 
L 299.14908 47.212216 
L 299.153001 47.212216 
L 299.266701 52.550397 
L 299.309829 52.550397 
L 299.431371 58.202588 
L 299.505865 58.202588 
L 299.619565 63.959449 
L 299.741107 63.959449 
L 299.854808 70.082656 
L 299.897936 70.082656 
L 300.011636 76.519874 
L 300.093971 76.519874 
L 300.207672 83.271102 
L 300.290006 83.271102 
L 300.403707 90.545681 
L 300.486042 90.545681 
L 300.599742 98.448282 
L 300.64287 98.448282 
L 300.756571 107.031239 
L 300.878113 107.031239 
L 300.991813 116.294552 
L 301.034941 116.294552 
L 301.148642 126.709238 
L 301.230977 126.709238 
L 301.344677 138.065955 
L 301.387805 138.065955 
L 301.501506 142.93312 
L 301.544633 142.93312 
L 301.666175 147.452375 
L 301.701462 147.452375 
L 301.815162 148.361331 
L 301.819083 148.361331 
L 301.932784 148.744427 
L 302.211154 148.695125 
L 302.332696 148.389278 
L 302.485603 148.322331 
L 302.603225 148.002922 
L 302.642432 148.021359 
L 302.646353 147.90499 
L 302.693401 147.90499 
L 302.838467 147.826667 
L 302.916881 147.679095 
L 302.952168 147.69832 
L 303.07371 147.622472 
L 303.152124 147.528424 
L 303.18741 147.547816 
L 303.387367 147.513308 
L 303.465781 147.420609 
L 303.501067 147.440695 
L 307.660939 147.510925 
L 307.77464 147.650731 
L 307.856975 147.580779 
L 307.896182 147.534461 
L 307.93931 147.650939 
L 307.958913 147.650939 
L 308.288253 147.699391 
L 308.401953 147.795312 
L 309.033188 147.702376 
L 309.146888 147.663888 
L 309.738915 147.553095 
L 309.860457 147.502312 
L 319.658309 147.596813 
L 319.736723 147.623018 
L 319.77201 147.61735 
L 322.559634 147.668693 
L 322.673334 147.735789 
L 324.598403 147.834616 
L 324.63761 147.862097 
L 324.64153 147.786929 
L 324.700341 147.786929 
L 325.460959 147.836589 
L 325.500166 147.932467 
L 325.504086 147.828702 
L 325.570738 147.838937 
L 325.774615 147.861888 
L 325.853029 147.975585 
L 325.884395 147.882471 
L 326.049065 147.987928 
L 326.127479 147.997909 
L 326.166686 147.89035 
L 326.209814 148.004877 
L 326.237259 148.004877 
L 326.480343 147.954418 
L 326.51955 148.160685 
L 326.590123 148.060132 
L 327.225278 148.168847 
L 327.303692 148.197822 
L 327.307612 148.076625 
L 327.342899 148.076625 
L 327.421313 148.205652 
L 327.452679 148.110684 
L 327.499727 148.126694 
L 327.538934 148.253262 
L 327.609507 148.146131 
L 327.656556 148.152254 
L 327.73497 148.295479 
L 327.766335 148.179867 
L 327.813384 148.183791 
L 327.927085 148.352539 
L 327.931005 148.352539 
L 327.970212 148.211021 
L 328.01334 148.377074 
L 328.040785 148.377074 
L 328.048627 148.377074 
L 328.087834 148.26207 
L 328.130961 148.427688 
L 328.154486 148.427688 
L 328.166248 148.427688 
L 328.205455 148.303948 
L 328.248583 148.470503 
L 328.276028 148.470503 
L 328.323076 148.470503 
L 328.362283 148.321186 
L 328.405411 148.507873 
L 328.432856 148.507873 
L 328.715147 148.609794 
L 328.754354 148.63248 
L 328.758275 148.48959 
L 328.809244 148.511578 
L 328.832768 148.511578 
L 328.946469 148.710392 
L 329.028804 148.710392 
L 329.068011 148.570855 
L 329.138584 148.669338 
L 329.146425 148.669338 
L 329.185632 148.868241 
L 329.256205 148.749697 
L 329.264046 148.749697 
L 329.34246 148.996429 
L 329.373826 148.851365 
L 329.420875 148.851365 
L 329.499289 149.134704 
L 329.530655 148.963133 
L 329.577703 149.029136 
L 329.61691 149.258047 
L 329.691404 149.191018 
L 329.695324 149.191018 
L 329.773738 149.430681 
L 329.805104 149.303158 
L 329.812946 149.303158 
L 329.930567 149.844812 
L 329.934488 149.760354 
L 329.969774 149.760354 
L 330.091316 150.387208 
L 330.126602 150.387208 
L 330.205016 150.666423 
L 330.240303 150.638245 
L 330.244224 150.638245 
L 330.365766 151.477547 
L 330.401052 151.477547 
L 330.522594 152.479497 
L 330.597087 152.527191 
L 330.718629 153.611813 
L 330.83233 153.713052 
L 330.949951 155.069246 
L 331.071493 156.050442 
L 331.10678 156.050442 
L 331.236163 157.718594 
L 331.263608 157.718594 
L 331.38515 159.049966 
L 331.420436 159.049966 
L 331.54982 160.867302 
L 331.577265 160.867302 
L 331.702727 162.361922 
L 331.734093 162.361922 
L 331.855635 164.649421 
L 331.890921 164.649421 
L 332.008543 166.557813 
L 332.04775 166.557813 
L 332.177133 168.435009 
L 332.204578 168.435009 
L 332.337882 170.680593 
L 332.361406 170.680593 
L 332.486869 172.168037 
L 332.518235 172.168037 
L 332.651539 174.380866 
L 332.675063 174.380866 
L 332.800526 175.850643 
L 332.831892 175.850643 
L 332.953434 176.953886 
L 333.027927 176.953886 
L 333.169073 179.882015 
L 333.184755 179.882015 
L 333.298456 180.977365 
L 333.302377 180.977365 
L 333.419998 183.170365 
L 333.498412 183.170365 
L 333.612113 183.962195 
L 333.616033 183.962195 
L 333.753258 158.639469 
L 333.772862 158.639469 
L 333.886562 150.19856 
L 333.890483 150.19856 
L 334.008104 81.445083 
L 334.129646 47.295432 
L 334.164933 47.295432 
L 334.278633 34.345978 
L 334.282554 34.345978 
L 334.321761 33.18945 
L 334.392334 33.81443 
L 334.400175 33.81443 
L 334.513876 35.332148 
L 334.557004 35.332148 
L 334.670704 40.303983 
L 334.674625 40.303983 
L 334.796167 45.537493 
L 334.909867 45.537493 
L 335.023568 50.666333 
L 335.027489 50.666333 
L 335.149031 56.318524 
L 335.301938 56.318524 
L 335.415639 61.970715 
L 335.41956 61.970715 
L 335.541102 67.936917 
L 335.654802 67.936917 
L 335.768503 74.3218 
L 335.850838 74.3218 
L 335.964538 80.916023 
L 336.007666 80.916023 
L 336.121366 85.573847 
L 336.125287 85.573847 
L 336.246829 93.057766 
L 336.282116 93.057766 
L 336.395816 95.674522 
L 336.438944 95.674522 
L 336.552644 104.048138 
L 336.556565 104.048138 
L 336.678107 113.049776 
L 336.752601 113.049776 
L 336.866301 119.539329 
L 337.223086 119.539329 
L 337.340707 144.503173 
L 337.454408 146.422699 
L 337.458328 146.422699 
L 337.599474 140.806702 
L 337.615157 140.806702 
L 337.732778 133.131975 
L 337.771985 133.131975 
L 337.889606 126.636267 
L 337.928813 128.830814 
L 338.003307 128.126532 
L 338.007228 128.126532 
L 338.124849 135.297875 
L 338.164056 134.513952 
L 338.167977 138.899728 
L 338.203263 138.899728 
L 338.324805 149.302645 
L 338.399298 149.302645 
L 338.51692 153.338684 
L 338.63062 154.901021 
L 338.634541 154.901021 
L 338.712955 155.161411 
L 338.744321 154.901021 
L 338.752162 154.901021 
L 338.865863 154.640632 
L 338.869783 154.640632 
L 338.991325 152.948099 
L 339.026612 152.948099 
L 339.144233 151.906541 
L 339.18344 151.906541 
L 339.297141 150.864983 
L 339.301061 150.864983 
L 339.418683 149.563035 
L 339.45789 149.563035 
L 339.575511 148.912061 
L 339.614718 148.912061 
L 339.728419 148.521477 
L 339.732339 148.521477 
L 339.84604 148.130892 
L 339.849961 148.130892 
L 339.971503 147.740308 
L 340.085203 147.740308 
L 340.198904 147.610113 
L 340.242032 147.610113 
L 340.355732 147.479918 
L 340.359653 147.479918 
L 340.473353 147.349724 
L 341.183002 147.349724 
L 341.296702 147.219529 
L 342.084765 147.219529 
L 342.123972 147.349724 
L 342.194545 147.219529 
L 342.986528 147.219529 
L 343.025735 147.349724 
L 343.096308 147.219529 
L 343.221771 147.219529 
L 343.335471 147.349724 
L 343.731463 147.349724 
L 343.77067 147.219529 
L 343.841243 147.329912 
L 343.849084 147.329912 
L 343.974547 151.193315 
L 344.005912 151.193315 
L 344.119613 154.186462 
L 344.123534 154.186462 
L 344.260758 159.012565 
L 344.319569 158.918234 
L 344.43719 160.777877 
L 344.515605 159.208517 
L 344.550891 159.86616 
L 344.554812 159.86616 
L 344.633226 156.086239 
L 344.672433 156.289413 
L 344.790054 156.289413 
L 344.915517 146.622421 
L 344.98609 146.632236 
L 345.09979 145.283729 
L 345.142918 145.293914 
L 345.260539 144.710974 
L 346.099571 146.723479 
L 346.123095 146.723479 
L 346.236796 146.909562 
L 346.319131 146.990505 
L 346.436752 147.133572 
L 346.671995 147.242627 
L 346.789616 147.299806 
L 358.473329 147.390363 
L 358.551743 147.472109 
L 358.587029 147.436751 
L 360.041612 147.518201 
L 360.080819 147.554172 
L 360.08474 147.474301 
L 360.147472 147.485934 
L 361.805931 147.397388 
L 361.845139 147.364673 
L 361.849059 147.402713 
L 361.915711 147.402713 
L 388.858824 147.508295 
L 388.976445 147.520975 
L 388.984287 147.500273 
L 392.936361 147.530361 
L 393.014776 147.611842 
L 393.046141 147.579115 
L 397.013899 147.647814 
L 397.053106 147.706486 
L 397.057027 147.64024 
L 397.123679 147.652959 
L 398.268526 147.699487 
L 398.307733 147.766162 
L 398.378305 147.712899 
L 399.01346 147.753362 
L 399.127161 147.825764 
L 400.346501 147.852201 
L 400.385709 147.939956 
L 400.456281 147.870069 
L 400.777779 147.895953 
L 400.816987 147.990051 
L 400.887559 147.919034 
L 401.209057 147.951144 
L 401.322758 148.070937 
L 401.561921 148.005001 
L 401.601128 148.219713 
L 401.671701 148.014858 
L 401.71875 148.02634 
L 401.757957 148.137406 
L 401.828529 148.046024 
L 401.836371 148.046024 
L 401.950071 148.169392 
L 402.424477 148.158838 
L 402.502891 148.299716 
L 402.534257 148.18318 
L 402.542099 148.18318 
L 402.620513 148.323596 
L 402.651878 148.216537 
L 402.738134 148.235222 
L 402.777341 148.372497 
L 402.847914 148.277342 
L 402.894962 148.301077 
L 402.934169 148.44545 
L 403.004742 148.331109 
L 403.051791 148.367481 
L 403.130205 148.536618 
L 403.161571 148.423674 
L 403.208619 148.423674 
L 403.247826 148.576649 
L 403.318399 148.517378 
L 403.32624 148.517378 
L 403.404655 148.678352 
L 403.43602 148.57398 
L 403.483069 148.611529 
L 403.522276 148.777269 
L 403.596769 148.749472 
L 403.60069 148.749472 
L 403.714391 148.919989 
L 403.796725 148.823749 
L 403.910426 149.314264 
L 403.914347 149.314264 
L 404.039809 150.006844 
L 404.071175 150.006844 
L 404.184876 150.46669 
L 404.188796 150.46669 
L 404.3221 151.576979 
L 404.345625 151.576979 
L 404.471087 152.353153 
L 404.502453 152.353153 
L 404.627916 153.147613 
L 404.659281 153.147613 
L 404.780823 154.325425 
L 404.81611 154.325425 
L 404.937652 155.498139 
L 405.012145 155.498139 
L 405.137608 156.260766 
L 405.168974 156.260766 
L 405.286595 157.194686 
L 405.408137 158.319191 
L 405.48263 158.319191 
L 405.615934 159.433645 
L 405.639459 159.433645 
L 405.768842 160.353558 
L 405.796287 160.353558 
L 405.92175 161.09188 
L 405.953115 161.09188 
L 406.074657 162.186867 
L 406.149151 162.186867 
L 406.270693 163.281855 
L 406.305979 163.281855 
L 406.427521 163.835778 
L 406.462808 163.835778 
L 406.600032 165.113596 
L 406.619636 165.113596 
L 406.745099 165.838335 
L 406.776464 165.838335 
L 406.890165 166.385829 
L 406.894086 166.385829 
L 407.015628 167.664069 
L 407.090121 167.664069 
L 407.207742 168.580666 
L 407.246949 168.580666 
L 407.36065 169.123299 
L 407.403778 169.123299 
L 407.517478 169.489803 
L 407.521399 169.489803 
L 407.6351 170.949033 
L 407.678227 170.949033 
L 407.791928 171.679779 
L 407.835056 171.679779 
L 407.952677 172.774767 
L 408.031091 172.774767 
L 408.148712 173.869755 
L 408.18792 173.869755 
L 408.305541 174.783753 
L 408.438845 175.878741 
L 408.462369 175.878741 
L 408.57607 176.059731 
L 408.57999 176.059731 
L 408.697612 177.156981 
L 408.736819 177.156981 
L 408.85444 178.253632 
L 408.893647 178.253632 
L 409.01911 178.982715 
L 409.050476 178.982715 
L 409.168097 179.894451 
L 409.301401 180.989439 
L 409.324925 180.989439 
L 409.446467 181.536933 
L 409.481754 181.536933 
L 409.599375 182.450931 
L 409.638582 182.450931 
L 409.756203 183.283484 
L 409.79541 183.283484 
L 409.916952 179.665951 
L 409.952239 179.665951 
L 410.073781 139.873095 
L 410.109067 139.873095 
L 410.230609 70.356596 
L 410.265895 70.356596 
L 410.383517 42.163524 
L 410.422724 42.163524 
L 410.540345 29.923856 
L 410.654046 31.254496 
L 410.657966 31.254496 
L 410.771667 36.244274 
L 410.893209 36.244274 
L 411.006909 41.499466 
L 411.050037 41.499466 
L 411.163738 46.59541 
L 411.246073 46.59541 
L 411.359773 52.275264 
L 411.442108 52.275264 
L 411.56365 57.848952 
L 411.638144 57.848952 
L 411.751844 63.741137 
L 411.794972 63.741137 
L 411.908672 67.987757 
L 411.912593 67.987757 
L 412.034135 74.357687 
L 412.069422 74.357687 
L 412.183122 76.587162 
L 412.187043 76.587162 
L 412.300743 83.594085 
L 412.383078 83.594085 
L 412.496779 91.131835 
L 412.539907 91.131835 
L 412.653607 99.253495 
L 412.775149 99.253495 
L 412.88885 108.012148 
L 412.931977 108.012148 
L 413.045678 117.620126 
L 413.128013 117.620126 
L 413.241714 128.555171 
L 413.324048 128.555171 
L 413.437749 139.5433 
L 413.520084 139.5433 
L 413.633784 145.223154 
L 413.637705 145.223154 
L 413.676912 145.505835 
L 413.72004 143.713174 
L 413.727881 143.713174 
L 413.755326 143.713174 
L 413.880789 137.123736 
L 413.912155 137.123736 
L 414.033697 129.359906 
L 414.068983 129.359906 
L 414.147397 127.095184 
L 414.182684 127.269226 
L 414.186604 127.269226 
L 414.300305 131.246829 
L 414.304226 131.246829 
L 414.425768 143.087021 
L 414.461054 143.087021 
L 414.539468 142.83766 
L 414.657089 151.776346 
L 414.696297 151.776346 
L 414.813918 154.380242 
L 414.927618 154.901021 
L 414.970746 154.901021 
L 415.111892 153.859463 
L 415.127575 153.859463 
L 415.253037 152.297125 
L 415.284403 152.297125 
L 415.398103 151.646152 
L 415.480438 151.646152 
L 415.60198 149.823425 
L 415.637267 149.823425 
L 415.758809 148.781866 
L 415.794095 148.781866 
L 415.919558 148.261087 
L 415.990131 148.261087 
L 416.103831 147.870503 
L 416.146959 147.870503 
L 416.260659 147.740308 
L 416.26458 147.740308 
L 416.382201 147.479918 
L 416.578237 147.479918 
L 416.691937 147.349724 
L 417.48 147.349724 
L 417.48 147.349724 
" style="fill:none;stroke:#e41a1c;stroke-linecap:square;stroke-width:2;"/>
   </g>
   <g id="patch_3">
    <path d="M 79.79325 230.88 
L 79.79325 14.52 
" style="fill:none;stroke:#000000;stroke-linecap:square;stroke-linejoin:miter;stroke-width:0.8;"/>
   </g>
   <g id="patch_4">
    <path d="M 417.48 230.88 
L 417.48 14.52 
" style="fill:none;"/>
   </g>
   <g id="patch_5">
    <path d="M 79.79325 230.88 
L 417.48 230.88 
" style="fill:none;stroke:#000000;stroke-linecap:square;stroke-linejoin:miter;stroke-width:0.8;"/>
   </g>
   <g id="patch_6">
    <path d="M 79.79325 14.52 
L 417.48 14.52 
" style="fill:none;"/>
   </g>
   <g id="legend_1">
    <g id="patch_7">
     <path d="M 84.59325 229.28 
L 240.97652 229.28 
Q 244.17652 229.28 244.17652 226.08 
L 244.17652 204.54415 
Q 244.17652 201.34415 240.97652 201.34415 
L 84.59325 201.34415 
Q 81.39325 201.34415 81.39325 204.54415 
L 81.39325 226.08 
Q 81.39325 229.28 84.59325 229.28 
z
" style="fill:#ffffff;stroke:#000000;stroke-linejoin:miter;"/>
    </g>
    <g id="line2d_11">
     <path d="M 87.79325 214.00011 
L 119.79325 214.00011 
" style="fill:none;stroke:#e41a1c;stroke-linecap:square;stroke-width:2;"/>
    </g>
    <g id="line2d_12"/>
    <g id="text_12">
     <!-- Surface Speed -->
     <g transform="translate(132.59325 219.60011)scale(0.16 -0.16)">
      <use transform="translate(0 -1.570628)scale(0.996264)" xlink:href="#Century_Schoolbook_L_Roman-83"/>
      <use transform="translate(62.763979 -1.570628)scale(0.996264)" xlink:href="#Century_Schoolbook_L_Roman-117"/>
      <use transform="translate(123.63561 -1.570628)scale(0.996264)" xlink:href="#Century_Schoolbook_L_Roman-114"/>
      <use transform="translate(167.869178 -1.570628)scale(0.996264)" xlink:href="#Century_Schoolbook_L_Roman-102"/>
      <use transform="translate(201.044408 -1.570628)scale(0.996264)" xlink:href="#Century_Schoolbook_L_Roman-97"/>
      <use transform="translate(256.436085 -1.570628)scale(0.996264)" xlink:href="#Century_Schoolbook_L_Roman-99"/>
      <use transform="translate(300.669654 -1.570628)scale(0.996264)" xlink:href="#Century_Schoolbook_L_Roman-101"/>
      <use transform="translate(378.178024 -1.570628)scale(0.996264)" xlink:href="#Century_Schoolbook_L_Roman-83"/>
      <use transform="translate(440.942003 -1.570628)scale(0.996264)" xlink:href="#Century_Schoolbook_L_Roman-112"/>
      <use transform="translate(498.12749 -1.570628)scale(0.996264)" xlink:href="#Century_Schoolbook_L_Roman-101"/>
      <use transform="translate(547.940691 -1.570628)scale(0.996264)" xlink:href="#Century_Schoolbook_L_Roman-101"/>
      <use transform="translate(597.753891 -1.570628)scale(0.996264)" xlink:href="#Century_Schoolbook_L_Roman-100"/>
     </g>
    </g>
   </g>
  </g>
 </g>
 <defs>
  <clipPath id="p46a1fd98bd">
   <rect height="216.36" width="337.68675" x="79.79325" y="14.52"/>
  </clipPath>
 </defs>
</svg>
