<?xml version="1.0" encoding="utf-8" standalone="no"?>
<!DOCTYPE svg PUBLIC "-//W3C//DTD SVG 1.1//EN"
  "http://www.w3.org/Graphics/SVG/1.1/DTD/svg11.dtd">
<!-- Created with matplotlib (https://matplotlib.org/) -->
<svg height="288pt" version="1.1" viewBox="0 0 432 288" width="432pt" xmlns="http://www.w3.org/2000/svg" xmlns:xlink="http://www.w3.org/1999/xlink">
 <defs>
  <style type="text/css">
*{stroke-linecap:butt;stroke-linejoin:round;}
  </style>
 </defs>
 <g id="figure_1">
  <g id="patch_1">
   <path d="M 0 288 
L 432 288 
L 432 0 
L 0 0 
z
" style="fill:#ffffff;"/>
  </g>
  <g id="axes_1">
   <g id="patch_2">
    <path d="M 65.32538 230.88 
L 417.48 230.88 
L 417.48 14.52 
L 65.32538 14.52 
z
" style="fill:#ffffff;"/>
   </g>
   <g id="matplotlib.axis_1">
    <g id="xtick_1">
     <g id="line2d_1">
      <defs>
       <path d="M 0 0 
L 0 3.5 
" id="m59d8a5275a" style="stroke:#000000;stroke-width:0.8;"/>
      </defs>
      <g>
       <use style="stroke:#000000;stroke-width:0.8;" x="147.099143" xlink:href="#m59d8a5275a" y="230.88"/>
      </g>
     </g>
     <g id="text_1">
      <!-- $20$ -->
      <defs>
       <path d="M 41.703125 15.453125 
L 39.90625 15.453125 
C 38.90625 8.375 38.09375 7.171875 37.703125 6.5625 
C 37.203125 5.765625 30 5.765625 28.59375 5.765625 
L 9.40625 5.765625 
C 13 9.671875 20 16.75 28.5 24.953125 
C 34.59375 30.734375 41.703125 37.53125 41.703125 47.421875 
C 41.703125 59.21875 32.296875 66 21.796875 66 
C 10.796875 66 4.09375 56.3125 4.09375 47.34375 
C 4.09375 43.4375 7 42.9375 8.203125 42.9375 
C 9.203125 42.9375 12.203125 43.546875 12.203125 47.03125 
C 12.203125 50.109375 9.59375 51 8.203125 51 
C 7.59375 51 7 50.90625 6.59375 50.703125 
C 8.5 59.21875 14.296875 63.40625 20.40625 63.40625 
C 29.09375 63.40625 34.796875 56.515625 34.796875 47.421875 
C 34.796875 38.734375 29.703125 31.25 24 24.75 
L 4.09375 2.28125 
L 4.09375 0 
L 39.296875 0 
z
" id="CMR17-50"/>
       <path d="M 42 31.640625 
C 42 37.75 41.90625 48.125 37.703125 56.109375 
C 34 63.109375 28.09375 65.59375 22.90625 65.59375 
C 18.09375 65.59375 12 63.40625 8.203125 56.203125 
C 4.203125 48.71875 3.796875 39.4375 3.796875 31.640625 
C 3.796875 25.953125 3.90625 17.28125 7 9.671875 
C 11.296875 -0.609375 19 -2 22.90625 -2 
C 27.5 -2 34.5 -0.109375 38.59375 9.375 
C 41.59375 16.28125 42 24.359375 42 31.640625 
z
M 22.90625 -0.40625 
C 16.5 -0.40625 12.703125 5.078125 11.296875 12.6875 
C 10.203125 18.5625 10.203125 27.15625 10.203125 32.75 
C 10.203125 40.4375 10.203125 46.828125 11.5 52.921875 
C 13.40625 61.390625 19 64 22.90625 64 
C 27 64 32.296875 61.296875 34.203125 53.125 
C 35.5 47.4375 35.59375 40.734375 35.59375 32.75 
C 35.59375 26.25 35.59375 18.265625 34.40625 12.375 
C 32.296875 1.484375 26.40625 -0.40625 22.90625 -0.40625 
z
" id="CMR17-48"/>
      </defs>
      <g transform="translate(138.844018 251.21795)scale(0.18 -0.18)">
       <use transform="scale(0.996264)" xlink:href="#CMR17-50"/>
       <use transform="translate(45.690477 0)scale(0.996264)" xlink:href="#CMR17-48"/>
      </g>
     </g>
    </g>
    <g id="xtick_2">
     <g id="line2d_2">
      <g>
       <use style="stroke:#000000;stroke-width:0.8;" x="228.872905" xlink:href="#m59d8a5275a" y="230.88"/>
      </g>
     </g>
     <g id="text_2">
      <!-- $40$ -->
      <defs>
       <path d="M 33.59375 64.40625 
C 33.59375 66.5 33.5 66.5 31.703125 66.5 
L 2 19.59375 
L 2 17 
L 27.796875 17 
L 27.796875 7.140625 
C 27.796875 3.5 27.59375 2.5 20.59375 2.5 
L 18.703125 2.5 
L 18.703125 0 
C 21.90625 0 27.296875 0 30.703125 0 
C 34.09375 0 39.5 0 42.703125 0 
L 42.703125 2.5 
L 40.796875 2.5 
C 33.796875 2.5 33.59375 3.5 33.59375 7.140625 
L 33.59375 17 
L 43.796875 17 
L 43.796875 19.59375 
L 33.59375 19.59375 
z
M 28.09375 57.859375 
L 28.09375 19.59375 
L 4 19.59375 
z
" id="CMR17-52"/>
      </defs>
      <g transform="translate(220.61778 251.21795)scale(0.18 -0.18)">
       <use transform="scale(0.996264)" xlink:href="#CMR17-52"/>
       <use transform="translate(45.690477 0)scale(0.996264)" xlink:href="#CMR17-48"/>
      </g>
     </g>
    </g>
    <g id="xtick_3">
     <g id="line2d_3">
      <g>
       <use style="stroke:#000000;stroke-width:0.8;" x="310.646668" xlink:href="#m59d8a5275a" y="230.88"/>
      </g>
     </g>
     <g id="text_3">
      <!-- $60$ -->
      <defs>
       <path d="M 10.59375 34 
C 10.59375 57.65625 21.796875 63 28.296875 63 
C 30.40625 63 35.5 62.640625 37.5 59 
C 35.90625 59 32.90625 59 32.90625 55.515625 
C 32.90625 52.828125 35.09375 51.921875 36.5 51.921875 
C 37.40625 51.921875 40.09375 52.3125 40.09375 55.625 
C 40.09375 61.78125 35.09375 65.296875 28.203125 65.296875 
C 16.296875 65.296875 3.796875 52.96875 3.796875 31 
C 3.796875 3.953125 15.09375 -2 23.09375 -2 
C 32.796875 -2 42 6.671875 42 20.046875 
C 42 32.515625 33.90625 41.59375 23.703125 41.59375 
C 17.59375 41.59375 13.09375 37.609375 10.59375 30.625 
z
M 23.09375 0.390625 
C 10.796875 0.390625 10.796875 18.75 10.796875 22.4375 
C 10.796875 29.625 14.203125 40 23.5 40 
C 25.203125 40 30.09375 40 33.40625 33.125 
C 35.203125 29.21875 35.203125 25.140625 35.203125 20.140625 
C 35.203125 14.75 35.203125 10.78125 33.09375 6.78125 
C 30.90625 2.671875 27.703125 0.390625 23.09375 0.390625 
z
" id="CMR17-54"/>
      </defs>
      <g transform="translate(302.391543 251.21795)scale(0.18 -0.18)">
       <use transform="scale(0.996264)" xlink:href="#CMR17-54"/>
       <use transform="translate(45.690477 0)scale(0.996264)" xlink:href="#CMR17-48"/>
      </g>
     </g>
    </g>
    <g id="xtick_4">
     <g id="line2d_4">
      <g>
       <use style="stroke:#000000;stroke-width:0.8;" x="392.42043" xlink:href="#m59d8a5275a" y="230.88"/>
      </g>
     </g>
     <g id="text_4">
      <!-- $80$ -->
      <defs>
       <path d="M 27.203125 35.375 
C 33.5 38.546875 39.90625 43.328125 39.90625 50.984375 
C 39.90625 60.015625 31.09375 65.296875 23 65.296875 
C 13.90625 65.296875 5.90625 58.734375 5.90625 49.6875 
C 5.90625 47.203125 6.5 42.921875 10.40625 39.140625 
C 11.40625 38.15625 15.59375 35.171875 18.296875 33.28125 
C 13.796875 30.984375 3.296875 25.53125 3.296875 14.59375 
C 3.296875 4.359375 13.09375 -2 22.796875 -2 
C 33.5 -2 42.5 5.65625 42.5 15.78125 
C 42.5 24.84375 36.40625 29.015625 32.40625 31.703125 
z
M 14.09375 44.09375 
C 13.296875 44.59375 9.296875 47.671875 9.296875 52.359375 
C 9.296875 58.421875 15.59375 63 22.796875 63 
C 30.703125 63 36.5 57.4375 36.5 50.96875 
C 36.5 41.703125 26.09375 36.421875 25.59375 36.421875 
C 25.5 36.421875 25.40625 36.421875 24.59375 37.03125 
z
M 32.5 23.734375 
C 34 22.640625 38.796875 19.375 38.796875 13.296875 
C 38.796875 5.953125 31.40625 0.390625 23 0.390625 
C 13.90625 0.390625 7 6.84375 7 14.6875 
C 7 22.546875 13.09375 29.09375 20 32.1875 
z
" id="CMR17-56"/>
      </defs>
      <g transform="translate(384.165305 251.21795)scale(0.18 -0.18)">
       <use transform="scale(0.996264)" xlink:href="#CMR17-56"/>
       <use transform="translate(45.690477 0)scale(0.996264)" xlink:href="#CMR17-48"/>
      </g>
     </g>
    </g>
    <g id="text_5">
     <!-- Time (s) -->
     <defs>
      <path d="M 63.296875 72 
L 3.40625 72 
L 1.90625 44.265625 
L 6.203125 44.265625 
C 6.90625 49.25 7.796875 53.046875 8.90625 56.234375 
C 11.5 63.515625 16.296875 67.3125 23.09375 67.3125 
C 26.40625 67.3125 27.796875 66.203125 27.796875 63.71875 
L 27.796875 12.28125 
L 27.796875 9.375 
C 27.796875 5.1875 26.90625 4.6875 18.796875 4.6875 
L 16.203125 4.6875 
L 16.203125 0 
L 50.5 0 
L 50.5 4.6875 
L 47.90625 4.6875 
C 39.90625 4.6875 39 5.1875 39 9.375 
L 39 12.28125 
L 39 63.71875 
C 39 66.203125 40.40625 67.3125 43.703125 67.3125 
C 49.796875 67.3125 54.703125 63.90625 57.203125 57.921875 
C 58.703125 54.25 59.703125 49.953125 60.5 44.265625 
L 64.796875 44.265625 
z
" id="Century_Schoolbook_L_Roman-84"/>
      <path d="M 20.59375 46 
L 1.796875 46 
L 1.796875 41.21875 
L 6.90625 41.21875 
C 10.59375 41.21875 11.203125 40.515625 11.203125 36.203125 
L 11.203125 12.296875 
L 11.203125 8.296875 
C 11.203125 4.296875 10.09375 3.59375 3.703125 3.59375 
L 3 3.59375 
L 3 0 
L 28.90625 0 
L 28.90625 3.59375 
L 28.203125 3.59375 
C 21.703125 3.59375 20.59375 4.28125 20.59375 8.21875 
L 20.59375 12.171875 
z
M 15.90625 71.578125 
C 12.703125 71.578125 10.09375 68.984375 10.09375 65.796875 
C 10.09375 62.703125 12.703125 60 15.796875 60 
C 19.09375 60 21.703125 62.59375 21.703125 65.796875 
C 21.703125 68.984375 19.09375 71.578125 15.90625 71.578125 
z
" id="Century_Schoolbook_L_Roman-105"/>
      <path d="M 20.09375 46 
L 2.296875 46 
L 2.296875 41.21875 
L 6.40625 41.21875 
C 10.09375 41.21875 10.703125 40.515625 10.703125 36.203125 
L 10.703125 12.296875 
L 10.703125 8.40625 
C 10.703125 4.296875 9.59375 3.59375 3.203125 3.59375 
L 2.796875 3.59375 
L 2.796875 0 
L 28 0 
L 28 3.59375 
L 27.59375 3.59375 
C 21.203125 3.59375 20.09375 4.296875 20.09375 8.390625 
L 20.09375 12.28125 
L 20.09375 26.453125 
C 20.09375 35.328125 25 41.921875 31.5 41.921875 
C 34.09375 41.921875 36.90625 40.515625 38.09375 38.625 
C 39.5 36.734375 40.09375 33.828125 40.09375 29.734375 
L 40.09375 12.28125 
L 40.09375 8.28125 
C 40.09375 4.296875 39 3.59375 32.5 3.59375 
L 32.09375 3.59375 
L 32.09375 0 
L 57.40625 0 
L 57.40625 3.59375 
L 57 3.59375 
C 50.59375 3.59375 49.5 4.296875 49.5 8.28125 
L 49.5 12.28125 
L 49.5 25.546875 
C 49.5 35.53125 54 41.921875 61 41.921875 
C 64.296875 41.921875 67 40.015625 68.296875 36.921875 
C 69.203125 34.734375 69.5 32.53125 69.5 28.640625 
L 69.5 12.28125 
L 69.5 8.28125 
C 69.5 4.296875 68.40625 3.59375 61.90625 3.59375 
L 61.5 3.59375 
L 61.5 0 
L 86.796875 0 
L 86.796875 3.59375 
L 86.40625 3.59375 
C 80 3.59375 78.90625 4.296875 78.90625 8.390625 
L 78.90625 12.28125 
L 78.90625 30.640625 
C 78.90625 36.828125 78.296875 38.921875 75.703125 42.3125 
C 72.796875 46.015625 68.703125 48 63.90625 48 
C 57.40625 48 52.59375 44.9375 48.296875 38.109375 
C 46.59375 44.046875 41.203125 48 34.5 48 
C 28.5 48 24 45.140625 20.09375 38.921875 
z
" id="Century_Schoolbook_L_Roman-109"/>
      <path d="M 46.5 23 
C 46.59375 37.8125 38.09375 48.28125 25.90625 48.28125 
C 13.09375 48.28125 3.5 37.25 3.5 22.34375 
C 3.5 8.4375 12.59375 -1 26.09375 -1 
C 35.59375 -1 42.40625 3.6875 46.5 13.1875 
L 43 15.09375 
C 38.90625 7.390625 34.703125 4.390625 28 4.390625 
C 22.90625 4.390625 19.203125 6.59375 16.59375 11 
C 14.796875 14 14 17.5 14.09375 23 
z
M 14.203125 27.296875 
C 14.203125 30.34375 14.59375 32.5 15.59375 35.25 
C 17.703125 41.140625 20.90625 44 25.703125 44 
C 31.796875 44 35.796875 38.78125 35.796875 30.921875 
C 35.796875 28.078125 34.90625 27.296875 31.703125 27.296875 
z
" id="Century_Schoolbook_L_Roman-101"/>
      <path d="M 27.90625 73.453125 
C 21.90625 69.765625 18.703125 67.171875 15.296875 63.171875 
C 7.703125 54.1875 3.59375 42.71875 3.59375 30.640625 
C 3.59375 19.265625 7.203125 8.578125 13.90625 -0.296875 
C 17.703125 -5.09375 21.09375 -8.078125 27.90625 -12.28125 
L 27.90625 -8.578125 
C 17.90625 0.203125 13.90625 11.484375 13.90625 30.640625 
C 13.90625 49.796875 17.90625 60.984375 27.90625 69.765625 
z
" id="Century_Schoolbook_L_Roman-40"/>
      <path d="M 39 48 
L 35.5 48 
L 32.59375 44.40625 
C 29 47.203125 25.40625 48.390625 20.40625 48.390625 
C 11.59375 48.390625 5.796875 42.625 5.796875 33.953125 
C 5.796875 30.078125 7.09375 26.78125 9.296875 24.8125 
C 11.59375 22.703125 13.90625 21.71875 19.90625 20.3125 
L 25.203125 19.125 
C 33.09375 17.234375 35.90625 15.234375 35.90625 11.265625 
C 35.90625 6.578125 31.796875 3.296875 25.90625 3.296875 
C 17.5 3.296875 11.5 8.765625 9.09375 18.875 
L 5.09375 18.875 
L 5.09375 0 
L 8.59375 0 
L 12.09375 3.90625 
C 16.203125 0.59375 20.796875 -1 25.796875 -1 
C 35.59375 -1 42.09375 5.078125 42.09375 14.34375 
C 42.09375 18.71875 40.703125 22.09375 37.90625 24.390625 
C 35.5 26.484375 33.5 27.28125 27.40625 28.5625 
L 22.40625 29.671875 
C 16.90625 30.859375 16.90625 30.859375 15.09375 31.859375 
C 12.90625 32.859375 11.59375 34.9375 11.59375 37.140625 
C 11.59375 41.109375 15.40625 44 20.90625 44 
C 24.703125 44 27.796875 42.703125 30.59375 40.015625 
C 32.796875 37.8125 33.90625 35.828125 35.5 31.234375 
L 39 31.234375 
z
" id="Century_Schoolbook_L_Roman-115"/>
      <path d="M 5.40625 -12.28125 
C 11.40625 -8.578125 14.59375 -5.984375 18 -1.890625 
C 25.59375 6.984375 29.703125 18.5625 29.703125 30.640625 
C 29.703125 42.015625 26.09375 52.703125 19.40625 61.484375 
C 15.59375 66.375 12.203125 69.359375 5.40625 73.453125 
L 5.40625 69.765625 
C 15.40625 60.984375 19.40625 49.796875 19.40625 30.640625 
C 19.40625 11.375 15.40625 0.203125 5.40625 -8.578125 
z
" id="Century_Schoolbook_L_Roman-41"/>
     </defs>
     <g transform="translate(207.401225 273.24577)scale(0.18 -0.18)">
      <use transform="translate(0 -0.29235)scale(0.996264)" xlink:href="#Century_Schoolbook_L_Roman-84"/>
      <use transform="translate(66.450031 -0.29235)scale(0.996264)" xlink:href="#Century_Schoolbook_L_Roman-105"/>
      <use transform="translate(97.831344 -0.29235)scale(0.996264)" xlink:href="#Century_Schoolbook_L_Roman-109"/>
      <use transform="translate(186.398251 -0.29235)scale(0.996264)" xlink:href="#Century_Schoolbook_L_Roman-101"/>
      <use transform="translate(263.906621 -0.29235)scale(0.996264)" xlink:href="#Century_Schoolbook_L_Roman-40"/>
      <use transform="translate(297.081851 -0.29235)scale(0.996264)" xlink:href="#Century_Schoolbook_L_Roman-115"/>
      <use transform="translate(343.207661 -0.29235)scale(0.996264)" xlink:href="#Century_Schoolbook_L_Roman-41"/>
     </g>
    </g>
   </g>
   <g id="matplotlib.axis_2">
    <g id="ytick_1">
     <g id="line2d_5">
      <defs>
       <path d="M 0 0 
L -3.5 0 
" id="mc659b7396b" style="stroke:#000000;stroke-width:0.8;"/>
      </defs>
      <g>
       <use style="stroke:#000000;stroke-width:0.8;" x="65.32538" xlink:href="#mc659b7396b" y="230.88"/>
      </g>
     </g>
     <g id="text_6">
      <!-- $0$ -->
      <g transform="translate(50.07025 237.548975)scale(0.18 -0.18)">
       <use transform="scale(0.996264)" xlink:href="#CMR17-48"/>
      </g>
     </g>
    </g>
    <g id="ytick_2">
     <g id="line2d_6">
      <g>
       <use style="stroke:#000000;stroke-width:0.8;" x="65.32538" xlink:href="#mc659b7396b" y="184.048831"/>
      </g>
     </g>
     <g id="text_7">
      <!-- $50$ -->
      <defs>
       <path d="M 11.40625 57.6875 
C 12.40625 57.28125 16.5 56 20.703125 56 
C 30 56 35.09375 61.109375 38 64.0625 
C 38 64.953125 38 65.5 37.40625 65.5 
C 37.296875 65.5 37.09375 65.5 36.296875 65.046875 
C 32.796875 63.40625 28.703125 62.078125 23.703125 62.078125 
C 20.703125 62.078125 16.203125 62.484375 11.296875 64.671875 
C 10.203125 65.171875 10 65.171875 9.90625 65.171875 
C 9.40625 65.171875 9.296875 65.0625 9.296875 63.078125 
L 9.296875 34.421875 
C 9.296875 32.640625 9.296875 32.140625 10.296875 32.140625 
C 10.796875 32.140625 11 32.34375 11.5 33.03125 
C 14.703125 37.515625 19.09375 39.40625 24.09375 39.40625 
C 27.59375 39.40625 35.09375 37.21875 35.09375 20.140625 
C 35.09375 16.953125 35.09375 11.171875 32.09375 6.578125 
C 29.59375 2.484375 25.703125 0.390625 21.40625 0.390625 
C 14.796875 0.390625 8.09375 5 6.296875 12.71875 
C 6.703125 12.609375 7.5 12.421875 7.90625 12.421875 
C 9.203125 12.421875 11.703125 13.125 11.703125 16.21875 
C 11.703125 18.90625 9.796875 20 7.90625 20 
C 5.59375 20 4.09375 18.59375 4.09375 15.796875 
C 4.09375 7.09375 11 -2 21.59375 -2 
C 31.90625 -2 41.703125 6.875 41.703125 19.75 
C 41.703125 31.71875 33.90625 41 24.203125 41 
C 19.09375 41 14.796875 39.109375 11.40625 35.53125 
z
" id="CMR17-53"/>
      </defs>
      <g transform="translate(41.81513 190.717806)scale(0.18 -0.18)">
       <use transform="scale(0.996264)" xlink:href="#CMR17-53"/>
       <use transform="translate(45.690477 0)scale(0.996264)" xlink:href="#CMR17-48"/>
      </g>
     </g>
    </g>
    <g id="ytick_3">
     <g id="line2d_7">
      <g>
       <use style="stroke:#000000;stroke-width:0.8;" x="65.32538" xlink:href="#mc659b7396b" y="137.217662"/>
      </g>
     </g>
     <g id="text_8">
      <!-- $100$ -->
      <defs>
       <path d="M 26.59375 63.40625 
C 26.59375 65.5 26.5 65.5 25.09375 65.5 
C 21.203125 61.1875 15.296875 59.796875 9.703125 59.796875 
C 9.40625 59.796875 8.90625 59.796875 8.796875 59.5 
C 8.703125 59.296875 8.703125 59.09375 8.703125 57 
C 11.796875 57 17 57.59375 21 59.984375 
L 21 7.203125 
C 21 3.6875 20.796875 2.5 12.203125 2.5 
L 9.203125 2.5 
L 9.203125 0 
C 14 0 19 0 23.796875 0 
C 28.59375 0 33.59375 0 38.40625 0 
L 38.40625 2.5 
L 35.40625 2.5 
C 26.796875 2.5 26.59375 3.59375 26.59375 7.15625 
z
" id="CMR17-49"/>
      </defs>
      <g transform="translate(33.56 143.886637)scale(0.18 -0.18)">
       <use transform="scale(0.996264)" xlink:href="#CMR17-49"/>
       <use transform="translate(45.690477 0)scale(0.996264)" xlink:href="#CMR17-48"/>
       <use transform="translate(91.380954 0)scale(0.996264)" xlink:href="#CMR17-48"/>
      </g>
     </g>
    </g>
    <g id="ytick_4">
     <g id="line2d_8">
      <g>
       <use style="stroke:#000000;stroke-width:0.8;" x="65.32538" xlink:href="#mc659b7396b" y="90.386494"/>
      </g>
     </g>
     <g id="text_9">
      <!-- $150$ -->
      <g transform="translate(33.56 97.055469)scale(0.18 -0.18)">
       <use transform="scale(0.996264)" xlink:href="#CMR17-49"/>
       <use transform="translate(45.690477 0)scale(0.996264)" xlink:href="#CMR17-53"/>
       <use transform="translate(91.380954 0)scale(0.996264)" xlink:href="#CMR17-48"/>
      </g>
     </g>
    </g>
    <g id="ytick_5">
     <g id="line2d_9">
      <g>
       <use style="stroke:#000000;stroke-width:0.8;" x="65.32538" xlink:href="#mc659b7396b" y="43.555325"/>
      </g>
     </g>
     <g id="text_10">
      <!-- $200$ -->
      <g transform="translate(33.56 50.2243)scale(0.18 -0.18)">
       <use transform="scale(0.996264)" xlink:href="#CMR17-50"/>
       <use transform="translate(45.690477 0)scale(0.996264)" xlink:href="#CMR17-48"/>
       <use transform="translate(91.380954 0)scale(0.996264)" xlink:href="#CMR17-48"/>
      </g>
     </g>
    </g>
    <g id="text_11">
     <!-- X Load -->
     <defs>
      <path d="M 38.90625 39.890625 
L 52.203125 57.9375 
C 57.796875 65.40625 60.59375 67.3125 65.90625 67.3125 
L 67.5 67.3125 
L 67.5 72 
L 40 72 
L 40 67.3125 
L 41.40625 67.3125 
C 46.203125 67.3125 48.296875 66.109375 48.296875 63.40625 
C 48.296875 62.3125 48 61.609375 46.90625 60.03125 
L 36.09375 44.375 
L 22.796875 63.515625 
C 22.09375 64.515625 21.703125 65.515625 21.703125 66.015625 
C 21.703125 67 22.703125 67.3125 26.5 67.3125 
L 30.296875 67.3125 
L 30.296875 72 
L -0.59375 72 
L -0.59375 67.3125 
L 1.09375 67.3125 
C 6 67.3125 7.203125 66.8125 9.5 63.515625 
L 29.203125 35.109375 
L 13 12.671875 
C 9.09375 7.09375 5 4.6875 -0.09375 4.6875 
L -0.5 4.6875 
L -0.5 0 
L 27.90625 0 
L 27.90625 4.6875 
L 25.40625 4.6875 
C 21.40625 4.6875 18.90625 6.484375 18.90625 9.484375 
C 18.90625 10.78125 19.5 12.359375 20.5 13.859375 
L 32.09375 30.609375 
L 47 9.40625 
C 47.796875 8.203125 48.296875 7.09375 48.296875 6.296875 
C 48.296875 4.6875 47.90625 4.6875 41.59375 4.6875 
L 38.796875 4.6875 
L 38.796875 0 
L 71.59375 0 
L 71.59375 4.6875 
L 70.40625 4.6875 
C 64 4.6875 63.296875 4.984375 59.90625 9.875 
z
" id="Century_Schoolbook_L_Roman-88"/>
      <path d="M 64.59375 27.328125 
L 60.203125 27.328125 
C 59.203125 20.546875 56.796875 13.765625 54.203125 10.484375 
C 51.09375 6.59375 45.296875 4.6875 36.90625 4.6875 
L 32.703125 4.6875 
C 29.703125 4.6875 27.203125 5.296875 26.296875 6.1875 
C 25.59375 6.78125 25.5 7.390625 25.5 9.484375 
L 25.5 59.734375 
L 25.5 62.609375 
C 25.5 66.8125 26.40625 67.3125 34.5 67.3125 
L 36.296875 67.3125 
L 36.296875 72 
L 3.5 72 
L 3.5 67.3125 
L 5.296875 67.3125 
C 13.40625 67.3125 14.296875 66.8125 14.296875 62.609375 
L 14.296875 59.734375 
L 14.296875 12.28125 
L 14.296875 9.375 
C 14.296875 5.1875 13.40625 4.6875 5.296875 4.6875 
L 3.5 4.6875 
L 3.5 0 
L 62.5 0 
z
" id="Century_Schoolbook_L_Roman-76"/>
      <path d="M 25.203125 48.28125 
C 13 48.28125 3.40625 37.453125 3.40625 23.546875 
C 3.40625 9.9375 13 -1 25 -1 
C 37 -1 46.59375 9.9375 46.59375 23.640625 
C 46.59375 37.25 37 48.28125 25.203125 48.28125 
z
M 25.203125 44 
C 32.203125 44 36.09375 36.75 36.09375 23.640625 
C 36.09375 10.453125 32.203125 3.296875 25 3.296875 
C 17.796875 3.296875 13.90625 10.453125 13.90625 23.546875 
C 13.90625 37.046875 17.703125 44 25.203125 44 
z
" id="Century_Schoolbook_L_Roman-111"/>
      <path d="M 45.203125 32.578125 
C 45.203125 38.796875 44.09375 41.96875 41.203125 44.34375 
C 37.90625 46.90625 33 48.28125 26.59375 48.28125 
C 15.40625 48.28125 7.09375 43.046875 7.09375 35.921875 
C 7.09375 32.15625 9.40625 29.78125 12.90625 29.78125 
C 16 29.78125 18.296875 31.859375 18.296875 34.8125 
C 18.296875 36.109375 17.796875 37.484375 16.796875 38.875 
C 16.203125 39.546875 16.09375 39.84375 16.09375 40.15625 
C 16.09375 42.21875 20.203125 44 25 44 
C 28.09375 44 31.59375 43.015625 33.203125 41.53125 
C 35.09375 39.953125 35.796875 37.578125 35.796875 33.125 
L 35.796875 29.28125 
C 25.296875 27.484375 22.09375 26.6875 17.203125 24.8125 
C 8.59375 21.609375 4.40625 16.9375 4.40625 10.65625 
C 4.40625 3.578125 10.09375 -1 18.90625 -1 
C 25.796875 -1 32 1.859375 36.296875 7.0625 
C 37.90625 1.984375 40.40625 0 45.09375 0 
C 49.59375 0 54.296875 2.890625 54.296875 5.78125 
C 54.296875 6.46875 53.796875 6.96875 53.296875 6.96875 
C 52.90625 6.96875 52.5 6.875 51.796875 6.578125 
C 50.203125 6 49.796875 5.890625 49 5.890625 
C 46.203125 5.890625 45.203125 7.78125 45.203125 12.71875 
z
M 35.796875 20.46875 
C 35.796875 14.46875 35.5 13.078125 33.796875 10.484375 
C 31.296875 6.78125 26.703125 4.296875 22.40625 4.296875 
C 17.90625 4.296875 14.5 7.59375 14.5 12.078125 
C 14.5 16.265625 16.59375 19.265625 21 21.359375 
C 24.09375 22.75 28 23.75 35.796875 25.046875 
z
" id="Century_Schoolbook_L_Roman-97"/>
      <path d="M 38 0 
L 55.40625 0 
L 55.40625 4.703125 
L 53.59375 4.703125 
C 48.203125 4.703125 47.40625 5.703125 47.40625 11.96875 
L 47.40625 73.78125 
L 27.796875 73.78125 
L 27.796875 69 
L 33.703125 69 
C 37.296875 69 38 68.28125 38 63.921875 
L 38 41 
C 34.296875 46.09375 30 48.390625 24.203125 48.390625 
C 12.90625 48.390625 4.296875 37.546875 4.296875 23.203125 
C 4.296875 9.0625 12.59375 -1 24.203125 -1 
C 30.5 -1 34.796875 1.671875 38 7.59375 
z
M 26.203125 43 
C 30.296875 43 34.203125 40.03125 36 35.4375 
C 37.203125 32.453125 37.90625 28.28125 37.90625 23.515625 
C 37.90625 11.96875 33.296875 4.390625 26.09375 4.390625 
C 19.09375 4.390625 14.796875 10.96875 14.796875 22.015625 
C 14.796875 27.890625 15.40625 32.359375 16.703125 35.734375 
C 18.40625 40.125 22.09375 43 26.203125 43 
z
" id="Century_Schoolbook_L_Roman-100"/>
     </defs>
     <g transform="translate(24.87013 152.2107)rotate(-90)scale(0.18 -0.18)">
      <use transform="translate(0 0.343476)scale(0.996264)" xlink:href="#Century_Schoolbook_L_Roman-88"/>
      <use transform="translate(97.831344 0.343476)scale(0.996264)" xlink:href="#Century_Schoolbook_L_Roman-76"/>
      <use transform="translate(164.281375 0.343476)scale(0.996264)" xlink:href="#Century_Schoolbook_L_Roman-111"/>
      <use transform="translate(214.094576 0.343476)scale(0.996264)" xlink:href="#Century_Schoolbook_L_Roman-97"/>
      <use transform="translate(269.486253 0.343476)scale(0.996264)" xlink:href="#Century_Schoolbook_L_Roman-100"/>
     </g>
    </g>
   </g>
   <g id="line2d_10">
    <path clip-path="url(#p74cce9ce9c)" d="M 65.32538 230.88 
L 86.991338 230.88 
L 87.105822 208.401039 
L 91.325348 208.401039 
L 91.439831 209.337662 
L 92.102199 209.337662 
L 92.216682 208.401039 
L 92.919936 208.401039 
L 93.034419 209.337662 
L 93.696787 209.337662 
L 93.81127 208.401039 
L 94.105656 208.401039 
L 94.220139 209.337662 
L 94.473638 209.337662 
L 94.588121 214.020779 
L 94.882506 214.020779 
L 94.99699 220.577143 
L 95.250488 220.577143 
L 95.364972 229.006753 
L 95.659357 229.006753 
L 95.773841 230.88 
L 96.027339 230.88 
L 96.141822 229.943377 
L 96.436208 229.943377 
L 96.550691 229.006753 
L 96.845077 229.006753 
L 96.95956 222.45039 
L 97.213059 222.45039 
L 97.327542 230.88 
L 97.621928 230.88 
L 97.736411 229.943377 
L 98.071683 229.943377 
L 98.186167 228.07013 
L 98.357891 228.07013 
L 98.472375 230.88 
L 98.807647 230.88 
L 98.92213 229.943377 
L 99.175629 229.943377 
L 99.290112 228.07013 
L 99.584498 228.07013 
L 99.698981 230.88 
L 99.993367 230.88 
L 100.10785 229.943377 
L 100.443122 229.943377 
L 100.557606 229.006753 
L 100.770217 229.006753 
L 100.884701 229.943377 
L 101.547068 229.943377 
L 101.661551 228.07013 
L 101.955937 228.07013 
L 102.07042 215.894026 
L 102.323919 215.894026 
L 102.438402 222.45039 
L 102.732788 222.45039 
L 102.847271 228.07013 
L 103.10077 228.07013 
L 103.215253 229.943377 
L 103.509638 229.943377 
L 103.624122 230.88 
L 103.918507 230.88 
L 104.032991 229.943377 
L 104.695358 229.943377 
L 104.809841 229.006753 
L 109.806218 229.006753 
L 109.920701 228.07013 
L 110.133313 228.07013 
L 110.247796 229.006753 
L 113.690472 229.006753 
L 113.804955 229.943377 
L 114.099341 229.943377 
L 114.213824 229.006753 
L 114.50821 229.006753 
L 114.622693 229.943377 
L 116.061911 229.943377 
L 116.176394 230.88 
L 116.47078 230.88 
L 116.585263 229.943377 
L 116.920536 229.943377 
L 117.035019 230.88 
L 117.247631 230.88 
L 117.362114 229.943377 
L 119.210201 229.943377 
L 119.324684 230.88 
L 121.949622 230.88 
L 122.064105 229.943377 
L 122.726473 229.943377 
L 122.840956 229.006753 
L 127.469351 229.006753 
L 127.583834 229.943377 
L 128.246202 229.943377 
L 128.360685 229.006753 
L 128.614184 229.006753 
L 128.728667 229.943377 
L 129.799903 229.943377 
L 129.914386 230.88 
L 138.835904 230.88 
L 138.950387 229.943377 
L 139.612755 229.943377 
L 139.727238 229.006753 
L 140.389605 229.006753 
L 140.504089 228.07013 
L 141.943307 228.07013 
L 142.05779 229.943377 
L 143.169913 229.943377 
L 143.284397 229.006753 
L 143.905877 229.006753 
L 144.02036 138.154286 
L 144.355633 138.154286 
L 144.470116 132.534545 
L 144.764502 132.534545 
L 144.878985 143.774026 
L 145.091597 143.774026 
L 145.20608 209.337662 
L 145.582239 209.337662 
L 145.696723 210.274286 
L 147.831018 210.274286 
L 147.945501 215.894026 
L 148.280773 215.894026 
L 148.395257 228.07013 
L 149.016737 228.07013 
L 149.131221 229.006753 
L 154.945335 229.006753 
L 155.059818 228.07013 
L 155.681299 228.07013 
L 155.795782 229.006753 
L 156.090168 229.006753 
L 156.204651 228.07013 
L 156.867019 228.07013 
L 156.981502 229.006753 
L 158.052738 229.006753 
L 158.167221 229.943377 
L 158.461607 229.943377 
L 158.57609 228.07013 
L 158.829589 228.07013 
L 158.944072 229.006753 
L 160.38329 229.006753 
L 160.497774 230.88 
L 160.792159 230.88 
L 160.906642 229.006753 
L 161.977879 229.006753 
L 162.092362 230.88 
L 162.345861 230.88 
L 162.460344 228.07013 
L 163.572467 228.07013 
L 163.68695 229.006753 
L 163.940449 229.006753 
L 164.054932 228.07013 
L 166.271001 228.07013 
L 166.385485 229.006753 
L 168.274458 229.006753 
L 168.388942 229.943377 
L 169.051309 229.943377 
L 169.165792 230.88 
L 169.419291 230.88 
L 169.533774 229.943377 
L 170.196142 229.943377 
L 170.310625 230.88 
L 174.121282 230.88 
L 174.235766 229.943377 
L 174.571038 229.943377 
L 174.685521 230.88 
L 174.93902 230.88 
L 175.053503 229.943377 
L 175.715871 229.943377 
L 175.830354 230.88 
L 177.678441 230.88 
L 177.792924 229.006753 
L 178.455292 229.006753 
L 178.569775 228.07013 
L 179.232143 228.07013 
L 179.346626 229.943377 
L 179.641011 229.943377 
L 179.755495 230.88 
L 180.04988 230.88 
L 180.164364 229.943377 
L 181.2356 229.943377 
L 181.350083 139.090909 
L 181.603582 139.090909 
L 181.718065 132.534545 
L 182.012451 132.534545 
L 182.126934 143.774026 
L 182.421319 143.774026 
L 182.535803 209.337662 
L 182.830188 209.337662 
L 182.944671 210.274286 
L 185.16074 210.274286 
L 185.275224 215.894026 
L 185.528722 215.894026 
L 185.643206 223.387013 
L 186.34646 223.387013 
L 186.460943 225.26026 
L 186.714442 225.26026 
L 186.828925 227.133506 
L 187.491293 227.133506 
L 187.605776 228.07013 
L 189.862732 228.07013 
L 189.977215 229.006753 
L 191.784415 229.006753 
L 191.898898 228.07013 
L 192.602153 228.07013 
L 192.716636 226.196883 
L 192.970135 226.196883 
L 193.084618 227.133506 
L 193.41989 227.133506 
L 193.534374 226.196883 
L 193.746985 226.196883 
L 193.861469 227.133506 
L 194.973592 227.133506 
L 195.088075 228.07013 
L 195.341574 228.07013 
L 195.456057 227.133506 
L 196.118425 227.133506 
L 196.232908 228.07013 
L 196.895275 228.07013 
L 197.009759 227.133506 
L 197.304144 227.133506 
L 197.418627 228.07013 
L 197.672126 228.07013 
L 197.786609 227.133506 
L 198.244542 227.133506 
L 198.359026 228.07013 
L 199.634696 228.07013 
L 199.74918 227.133506 
L 200.043565 227.133506 
L 200.158048 226.196883 
L 202.415004 226.196883 
L 202.529488 225.26026 
L 202.782986 225.26026 
L 202.89747 226.196883 
L 204.786443 226.196883 
L 204.900927 227.133506 
L 205.604181 227.133506 
L 205.718664 228.07013 
L 206.708127 228.07013 
L 206.82261 227.133506 
L 207.116996 227.133506 
L 207.231479 228.07013 
L 208.302715 228.07013 
L 208.417199 229.006753 
L 209.447548 229.006753 
L 209.562031 228.07013 
L 210.265286 228.07013 
L 210.379769 229.006753 
L 211.410118 229.006753 
L 211.524601 228.07013 
L 212.595838 228.07013 
L 212.710321 229.006753 
L 213.781557 229.006753 
L 213.896041 229.943377 
L 214.967277 229.943377 
L 215.08176 230.88 
L 215.785015 230.88 
L 215.899498 229.006753 
L 216.152996 229.006753 
L 216.26748 230.88 
L 216.88896 230.88 
L 217.003444 229.943377 
L 217.338716 229.943377 
L 217.453199 230.88 
L 218.115567 230.88 
L 218.23005 229.943377 
L 218.524436 229.943377 
L 218.638919 155.95013 
L 218.974191 155.95013 
L 219.088675 100.689351 
L 219.301286 100.689351 
L 219.41577 128.788052 
L 219.710155 128.788052 
L 219.824638 209.337662 
L 220.487006 209.337662 
L 220.601489 210.274286 
L 222.408689 210.274286 
L 222.523173 215.894026 
L 222.817558 215.894026 
L 222.932041 223.387013 
L 223.18554 223.387013 
L 223.300023 222.45039 
L 223.594409 222.45039 
L 223.708892 224.323636 
L 224.207712 224.323636 
L 224.322195 227.133506 
L 224.780128 227.133506 
L 224.894612 228.07013 
L 225.924961 228.07013 
L 226.039444 229.006753 
L 226.742699 229.006753 
L 226.857182 228.07013 
L 227.151568 228.07013 
L 227.266051 229.006753 
L 228.705269 229.006753 
L 228.819752 228.07013 
L 229.114138 228.07013 
L 229.228621 227.133506 
L 229.48212 227.133506 
L 229.596603 226.196883 
L 232.671296 226.196883 
L 232.78578 227.133506 
L 233.489034 227.133506 
L 233.603517 226.196883 
L 234.224998 226.196883 
L 234.339481 227.133506 
L 235.083622 227.133506 
L 235.198106 226.196883 
L 235.369831 226.196883 
L 235.484314 227.133506 
L 236.964419 227.133506 
L 237.078902 225.26026 
L 239.70384 225.26026 
L 239.818323 224.323636 
L 240.112709 224.323636 
L 240.227192 225.26026 
L 241.257542 225.26026 
L 241.372025 226.196883 
L 242.85213 226.196883 
L 242.966613 227.133506 
L 243.628981 227.133506 
L 243.743464 228.07013 
L 243.996963 228.07013 
L 244.111446 227.133506 
L 244.405831 227.133506 
L 244.520315 228.07013 
L 245.959533 228.07013 
L 246.074016 229.006753 
L 246.736384 229.006753 
L 246.850867 228.07013 
L 247.922103 228.07013 
L 248.036586 229.006753 
L 248.739841 229.006753 
L 248.854324 228.07013 
L 249.92556 228.07013 
L 250.040044 229.006753 
L 251.070393 229.006753 
L 251.184876 229.943377 
L 252.256113 229.943377 
L 252.370596 230.88 
L 253.032963 230.88 
L 253.147447 229.006753 
L 253.441832 229.006753 
L 253.556315 230.88 
L 255.404403 230.88 
L 255.518886 229.943377 
L 255.772384 229.943377 
L 255.886868 156.886753 
L 256.181253 156.886753 
L 256.295737 100.689351 
L 256.590122 100.689351 
L 256.704605 128.788052 
L 256.998991 128.788052 
L 257.113474 209.337662 
L 258.143824 209.337662 
L 258.258307 210.274286 
L 258.920674 210.274286 
L 259.035158 209.337662 
L 259.329543 209.337662 
L 259.444026 210.274286 
L 259.697525 210.274286 
L 259.812008 214.957403 
L 260.106394 214.957403 
L 260.220877 223.387013 
L 260.515263 223.387013 
L 260.629746 222.45039 
L 260.883245 222.45039 
L 260.997728 224.323636 
L 261.251227 224.323636 
L 261.36571 226.196883 
L 261.700982 226.196883 
L 261.815465 227.133506 
L 262.477833 227.133506 
L 262.592316 228.07013 
L 263.745326 228.07013 
L 263.85981 229.006753 
L 264.031534 229.006753 
L 264.146018 228.07013 
L 264.440403 228.07013 
L 264.554887 229.006753 
L 265.994105 229.006753 
L 266.108588 228.07013 
L 266.362087 228.07013 
L 266.47657 227.133506 
L 266.770956 227.133506 
L 266.885439 226.196883 
L 267.547806 226.196883 
L 267.66229 225.26026 
L 268.324657 225.26026 
L 268.43914 226.196883 
L 269.551263 226.196883 
L 269.665747 227.133506 
L 269.878358 227.133506 
L 269.992842 226.196883 
L 270.736983 226.196883 
L 270.851466 227.133506 
L 271.064078 227.133506 
L 271.178561 226.196883 
L 271.513834 226.196883 
L 271.628317 227.133506 
L 274.253255 227.133506 
L 274.367738 226.196883 
L 274.621237 226.196883 
L 274.73572 225.26026 
L 275.030106 225.26026 
L 275.144589 226.196883 
L 275.438974 226.196883 
L 275.553458 225.26026 
L 277.72864 225.26026 
L 277.843123 226.196883 
L 278.137509 226.196883 
L 278.251992 225.26026 
L 278.587264 225.26026 
L 278.701747 226.196883 
L 279.732097 226.196883 
L 279.84658 227.133506 
L 281.694667 227.133506 
L 281.80915 228.07013 
L 282.103536 228.07013 
L 282.218019 227.133506 
L 282.471518 227.133506 
L 282.586001 228.07013 
L 283.248369 228.07013 
L 283.362852 229.006753 
L 284.025219 229.006753 
L 284.139703 228.07013 
L 285.210939 228.07013 
L 285.325422 229.006753 
L 285.98779 229.006753 
L 286.102273 228.07013 
L 287.214396 228.07013 
L 287.328879 229.006753 
L 287.623265 229.006753 
L 287.737748 228.07013 
L 287.991247 228.07013 
L 288.10573 229.006753 
L 288.768098 229.006753 
L 288.882581 229.943377 
L 289.13608 229.943377 
L 289.250563 230.88 
L 290.321799 230.88 
L 290.436282 229.943377 
L 290.730668 229.943377 
L 290.845151 230.88 
L 291.466632 230.88 
L 291.581115 229.943377 
L 291.916388 229.943377 
L 292.030871 230.88 
L 292.734125 230.88 
L 292.848608 229.943377 
L 293.102107 229.943377 
L 293.21659 156.886753 
L 293.470089 156.886753 
L 293.584572 100.689351 
L 293.878958 100.689351 
L 293.993441 129.724675 
L 294.287827 129.724675 
L 294.40231 209.337662 
L 296.250397 209.337662 
L 296.36488 210.274286 
L 296.986361 210.274286 
L 297.100844 214.957403 
L 297.39523 214.957403 
L 297.509713 223.387013 
L 297.804098 223.387013 
L 297.918582 222.45039 
L 298.17208 222.45039 
L 298.286564 225.26026 
L 298.540062 225.26026 
L 298.654546 226.196883 
L 298.989818 226.196883 
L 299.104301 227.133506 
L 299.398687 227.133506 
L 299.51317 228.07013 
L 300.952388 228.07013 
L 301.066872 229.006753 
L 301.32037 229.006753 
L 301.434853 228.07013 
L 302.097221 228.07013 
L 302.211704 229.006753 
L 302.50609 229.006753 
L 302.620573 228.07013 
L 303.650922 228.07013 
L 303.765406 227.133506 
L 304.059791 227.133506 
L 304.174275 226.196883 
L 304.836642 226.196883 
L 304.951125 225.26026 
L 305.613493 225.26026 
L 305.727976 226.196883 
L 306.799212 226.196883 
L 306.913696 227.133506 
L 307.248968 227.133506 
L 307.363451 226.196883 
L 308.843556 226.196883 
L 308.95804 227.133506 
L 311.133222 227.133506 
L 311.247705 226.196883 
L 311.910072 226.196883 
L 312.024556 225.26026 
L 312.686923 225.26026 
L 312.801406 224.323636 
L 313.095792 224.323636 
L 313.210275 225.26026 
L 315.017475 225.26026 
L 315.131959 226.196883 
L 315.467231 226.196883 
L 315.581714 225.26026 
L 316.244082 225.26026 
L 316.358565 226.196883 
L 317.429801 226.196883 
L 317.544285 227.133506 
L 319.760354 227.133506 
L 319.874837 228.07013 
L 320.537204 228.07013 
L 320.651688 229.006753 
L 320.946073 229.006753 
L 321.060557 228.07013 
L 322.867757 228.07013 
L 322.98224 229.006753 
L 323.358399 229.006753 
L 323.472883 228.07013 
L 324.094363 228.07013 
L 324.208846 227.133506 
L 324.503232 227.133506 
L 324.617715 228.07013 
L 325.688951 228.07013 
L 325.803435 229.943377 
L 326.056933 229.943377 
L 326.171417 229.006753 
L 326.465802 229.006753 
L 326.580285 229.943377 
L 326.833784 229.943377 
L 326.948267 230.88 
L 327.610635 230.88 
L 327.725118 229.006753 
L 328.060391 229.006753 
L 328.174874 230.88 
L 329.982074 230.88 
L 330.096557 229.943377 
L 330.390943 229.943377 
L 330.505426 180.302338 
L 330.758925 180.302338 
L 330.873408 71.654026 
L 331.167794 71.654026 
L 331.282277 122.231688 
L 331.576662 122.231688 
L 331.691146 211.210909 
L 331.944644 211.210909 
L 332.059128 209.337662 
L 332.353513 209.337662 
L 332.467996 210.274286 
L 332.721495 210.274286 
L 332.835978 209.337662 
L 333.130364 209.337662 
L 333.244847 210.274286 
L 334.275197 210.274286 
L 334.38968 181.238961 
L 334.643178 181.238961 
L 334.757662 34.189091 
L 335.092934 34.189091 
L 335.207417 182.175584 
L 335.501803 182.175584 
L 335.616286 181.238961 
L 335.869785 181.238961 
L 335.984268 206.527792 
L 336.278654 206.527792 
L 336.393137 209.337662 
L 337.50526 209.337662 
L 337.619743 210.274286 
L 338.241224 210.274286 
L 338.355707 209.337662 
L 339.018075 209.337662 
L 339.132558 210.274286 
L 340.980645 210.274286 
L 341.095128 201.844675 
L 341.348627 201.844675 
L 341.46311 81.956883 
L 341.757496 81.956883 
L 341.871979 125.041558 
L 342.125478 125.041558 
L 342.239961 167.18961 
L 342.534347 167.18961 
L 342.64883 227.133506 
L 342.943215 227.133506 
L 343.057699 228.07013 
L 343.679179 228.07013 
L 343.793663 229.006753 
L 344.088048 229.006753 
L 344.202531 229.943377 
L 344.496917 229.943377 
L 344.6114 230.88 
L 345.314654 230.88 
L 345.429138 229.943377 
L 346.827469 229.943377 
L 346.941952 229.006753 
L 349.239795 229.006753 
L 349.354278 228.07013 
L 350.384628 228.07013 
L 350.499111 229.006753 
L 350.75261 229.006753 
L 350.867093 228.07013 
L 353.941786 228.07013 
L 354.05627 229.006753 
L 354.350655 229.006753 
L 354.465139 228.07013 
L 355.086619 228.07013 
L 355.201102 229.006753 
L 355.904357 229.006753 
L 356.01884 228.07013 
L 356.681207 228.07013 
L 356.795691 227.133506 
L 357.090076 227.133506 
L 357.20456 228.07013 
L 357.458058 228.07013 
L 357.572542 227.133506 
L 362.241823 227.133506 
L 362.356307 228.07013 
L 363.345769 228.07013 
L 363.460252 227.133506 
L 363.713751 227.133506 
L 363.828234 228.07013 
L 364.163507 228.07013 
L 364.27799 227.133506 
L 366.08519 227.133506 
L 366.199673 228.07013 
L 366.534946 228.07013 
L 366.649429 227.133506 
L 366.902928 227.133506 
L 367.017411 228.07013 
L 369.23348 228.07013 
L 369.347963 229.006753 
L 369.642349 229.006753 
L 369.756832 228.07013 
L 372.340883 228.07013 
L 372.455366 227.133506 
L 372.749752 227.133506 
L 372.864235 226.196883 
L 373.158621 226.196883 
L 373.273104 227.133506 
L 373.526603 227.133506 
L 373.641086 226.196883 
L 377.451743 226.196883 
L 377.566226 227.133506 
L 377.901499 227.133506 
L 378.015982 226.196883 
L 378.269481 226.196883 
L 378.383964 227.133506 
L 378.719237 227.133506 
L 378.83372 226.196883 
L 379.4552 226.196883 
L 379.569684 227.133506 
L 380.600033 227.133506 
L 380.714516 226.196883 
L 381.008902 226.196883 
L 381.123385 227.133506 
L 383.380341 227.133506 
L 383.494824 228.07013 
L 388.082332 228.07013 
L 388.196816 229.006753 
L 391.557717 229.006753 
L 391.672201 229.943377 
L 392.007473 229.943377 
L 392.121956 229.006753 
L 396.300595 229.006753 
L 396.415079 228.07013 
L 397.895184 228.07013 
L 398.009667 229.006753 
L 400.225736 229.006753 
L 400.340219 229.943377 
L 401.820324 229.943377 
L 401.934808 230.88 
L 404.191764 230.88 
L 404.306247 229.943377 
L 405.336596 229.943377 
L 405.45108 230.88 
L 406.972072 230.88 
L 407.086555 229.943377 
L 408.443999 229.943377 
L 408.558482 230.88 
L 410.038588 230.88 
L 410.153071 60.414545 
L 410.447456 60.414545 
L 410.56194 199.034805 
L 411.224307 199.034805 
L 411.33879 208.401039 
L 412.001158 208.401039 
L 412.115641 209.337662 
L 412.410027 209.337662 
L 412.52451 208.401039 
L 412.778009 208.401039 
L 412.892492 209.337662 
L 414.004615 209.337662 
L 414.119098 72.590649 
L 414.413484 72.590649 
L 414.527967 143.774026 
L 414.740579 143.774026 
L 414.855062 115.675325 
L 415.149448 115.675325 
L 415.263931 212.147532 
L 415.558317 212.147532 
L 415.6728 208.401039 
L 415.926299 208.401039 
L 416.040782 209.337662 
L 416.335167 209.337662 
L 416.449651 210.274286 
L 417.48 210.274286 
L 417.48 210.274286 
" style="fill:none;stroke:#e41a1c;stroke-linecap:square;stroke-width:2;"/>
   </g>
   <g id="patch_3">
    <path d="M 65.32538 230.88 
L 65.32538 14.52 
" style="fill:none;stroke:#000000;stroke-linecap:square;stroke-linejoin:miter;stroke-width:0.8;"/>
   </g>
   <g id="patch_4">
    <path d="M 417.48 230.88 
L 417.48 14.52 
" style="fill:none;"/>
   </g>
   <g id="patch_5">
    <path d="M 65.32538 230.88 
L 417.48 230.88 
" style="fill:none;stroke:#000000;stroke-linecap:square;stroke-linejoin:miter;stroke-width:0.8;"/>
   </g>
   <g id="patch_6">
    <path d="M 65.32538 14.52 
L 417.48 14.52 
" style="fill:none;"/>
   </g>
   <g id="legend_1">
    <g id="patch_7">
     <path d="M 70.12538 44.05585 
L 173.78887 44.05585 
Q 176.98887 44.05585 176.98887 40.85585 
L 176.98887 19.32 
Q 176.98887 16.12 173.78887 16.12 
L 70.12538 16.12 
Q 66.92538 16.12 66.92538 19.32 
L 66.92538 40.85585 
Q 66.92538 44.05585 70.12538 44.05585 
z
" style="fill:#ffffff;stroke:#000000;stroke-linejoin:miter;"/>
    </g>
    <g id="line2d_11">
     <path d="M 73.32538 28.77596 
L 105.32538 28.77596 
" style="fill:none;stroke:#e41a1c;stroke-linecap:square;stroke-width:2;"/>
    </g>
    <g id="line2d_12"/>
    <g id="text_12">
     <!-- X Load -->
     <g transform="translate(118.12538 34.37596)scale(0.16 -0.16)">
      <use transform="translate(0 0.343476)scale(0.996264)" xlink:href="#Century_Schoolbook_L_Roman-88"/>
      <use transform="translate(97.831344 0.343476)scale(0.996264)" xlink:href="#Century_Schoolbook_L_Roman-76"/>
      <use transform="translate(164.281375 0.343476)scale(0.996264)" xlink:href="#Century_Schoolbook_L_Roman-111"/>
      <use transform="translate(214.094576 0.343476)scale(0.996264)" xlink:href="#Century_Schoolbook_L_Roman-97"/>
      <use transform="translate(269.486253 0.343476)scale(0.996264)" xlink:href="#Century_Schoolbook_L_Roman-100"/>
     </g>
    </g>
   </g>
  </g>
 </g>
 <defs>
  <clipPath id="p74cce9ce9c">
   <rect height="216.36" width="352.15462" x="65.32538" y="14.52"/>
  </clipPath>
 </defs>
</svg>
