<?xml version="1.0" encoding="utf-8" standalone="no"?>
<!DOCTYPE svg PUBLIC "-//W3C//DTD SVG 1.1//EN"
  "http://www.w3.org/Graphics/SVG/1.1/DTD/svg11.dtd">
<!-- Created with matplotlib (https://matplotlib.org/) -->
<svg height="288pt" version="1.1" viewBox="0 0 432 288" width="432pt" xmlns="http://www.w3.org/2000/svg" xmlns:xlink="http://www.w3.org/1999/xlink">
 <defs>
  <style type="text/css">
*{stroke-linecap:butt;stroke-linejoin:round;}
  </style>
 </defs>
 <g id="figure_1">
  <g id="patch_1">
   <path d="M 0 288 
L 432 288 
L 432 0 
L 0 0 
z
" style="fill:#ffffff;"/>
  </g>
  <g id="axes_1">
   <g id="patch_2">
    <path d="M 65.7932 230.88 
L 417.48 230.88 
L 417.48 15.38288 
L 65.7932 15.38288 
z
" style="fill:#ffffff;"/>
   </g>
   <g id="matplotlib.axis_1">
    <g id="xtick_1">
     <g id="line2d_1">
      <defs>
       <path d="M 0 0 
L 0 3.5 
" id="m83360a86a8" style="stroke:#000000;stroke-width:0.8;"/>
      </defs>
      <g>
       <use style="stroke:#000000;stroke-width:0.8;" x="121.449533" xlink:href="#m83360a86a8" y="230.88"/>
      </g>
     </g>
     <g id="text_1">
      <!-- $10$ -->
      <defs>
       <path d="M 26.59375 63.40625 
C 26.59375 65.5 26.5 65.5 25.09375 65.5 
C 21.203125 61.1875 15.296875 59.796875 9.703125 59.796875 
C 9.40625 59.796875 8.90625 59.796875 8.796875 59.5 
C 8.703125 59.296875 8.703125 59.09375 8.703125 57 
C 11.796875 57 17 57.59375 21 59.984375 
L 21 7.203125 
C 21 3.6875 20.796875 2.5 12.203125 2.5 
L 9.203125 2.5 
L 9.203125 0 
C 14 0 19 0 23.796875 0 
C 28.59375 0 33.59375 0 38.40625 0 
L 38.40625 2.5 
L 35.40625 2.5 
C 26.796875 2.5 26.59375 3.59375 26.59375 7.15625 
z
" id="CMR17-49"/>
       <path d="M 42 31.640625 
C 42 37.75 41.90625 48.125 37.703125 56.109375 
C 34 63.109375 28.09375 65.59375 22.90625 65.59375 
C 18.09375 65.59375 12 63.40625 8.203125 56.203125 
C 4.203125 48.71875 3.796875 39.4375 3.796875 31.640625 
C 3.796875 25.953125 3.90625 17.28125 7 9.671875 
C 11.296875 -0.609375 19 -2 22.90625 -2 
C 27.5 -2 34.5 -0.109375 38.59375 9.375 
C 41.59375 16.28125 42 24.359375 42 31.640625 
z
M 22.90625 -0.40625 
C 16.5 -0.40625 12.703125 5.078125 11.296875 12.6875 
C 10.203125 18.5625 10.203125 27.15625 10.203125 32.75 
C 10.203125 40.4375 10.203125 46.828125 11.5 52.921875 
C 13.40625 61.390625 19 64 22.90625 64 
C 27 64 32.296875 61.296875 34.203125 53.125 
C 35.5 47.4375 35.59375 40.734375 35.59375 32.75 
C 35.59375 26.25 35.59375 18.265625 34.40625 12.375 
C 32.296875 1.484375 26.40625 -0.40625 22.90625 -0.40625 
z
" id="CMR17-48"/>
      </defs>
      <g transform="translate(113.194408 251.21795)scale(0.18 -0.18)">
       <use transform="scale(0.996264)" xlink:href="#CMR17-49"/>
       <use transform="translate(45.690477 0)scale(0.996264)" xlink:href="#CMR17-48"/>
      </g>
     </g>
    </g>
    <g id="xtick_2">
     <g id="line2d_2">
      <g>
       <use style="stroke:#000000;stroke-width:0.8;" x="177.105865" xlink:href="#m83360a86a8" y="230.88"/>
      </g>
     </g>
     <g id="text_2">
      <!-- $20$ -->
      <defs>
       <path d="M 41.703125 15.453125 
L 39.90625 15.453125 
C 38.90625 8.375 38.09375 7.171875 37.703125 6.5625 
C 37.203125 5.765625 30 5.765625 28.59375 5.765625 
L 9.40625 5.765625 
C 13 9.671875 20 16.75 28.5 24.953125 
C 34.59375 30.734375 41.703125 37.53125 41.703125 47.421875 
C 41.703125 59.21875 32.296875 66 21.796875 66 
C 10.796875 66 4.09375 56.3125 4.09375 47.34375 
C 4.09375 43.4375 7 42.9375 8.203125 42.9375 
C 9.203125 42.9375 12.203125 43.546875 12.203125 47.03125 
C 12.203125 50.109375 9.59375 51 8.203125 51 
C 7.59375 51 7 50.90625 6.59375 50.703125 
C 8.5 59.21875 14.296875 63.40625 20.40625 63.40625 
C 29.09375 63.40625 34.796875 56.515625 34.796875 47.421875 
C 34.796875 38.734375 29.703125 31.25 24 24.75 
L 4.09375 2.28125 
L 4.09375 0 
L 39.296875 0 
z
" id="CMR17-50"/>
      </defs>
      <g transform="translate(168.85074 251.21795)scale(0.18 -0.18)">
       <use transform="scale(0.996264)" xlink:href="#CMR17-50"/>
       <use transform="translate(45.690477 0)scale(0.996264)" xlink:href="#CMR17-48"/>
      </g>
     </g>
    </g>
    <g id="xtick_3">
     <g id="line2d_3">
      <g>
       <use style="stroke:#000000;stroke-width:0.8;" x="232.762198" xlink:href="#m83360a86a8" y="230.88"/>
      </g>
     </g>
     <g id="text_3">
      <!-- $30$ -->
      <defs>
       <path d="M 22.09375 33.703125 
C 31 33.703125 34.90625 25.96875 34.90625 17.03125 
C 34.90625 5 28.5 0.390625 22.703125 0.390625 
C 17.40625 0.390625 8.796875 3.03125 6.09375 10.828125 
C 6.59375 10.625 7.09375 10.625 7.59375 10.625 
C 10 10.625 11.796875 12.21875 11.796875 14.8125 
C 11.796875 17.703125 9.59375 19 7.59375 19 
C 5.90625 19 3.296875 18.203125 3.296875 14.46875 
C 3.296875 5.234375 12.296875 -2 22.90625 -2 
C 34 -2 42.5 6.71875 42.5 16.953125 
C 42.5 26.671875 34.5 33.703125 25 34.796875 
C 32.59375 36.375 39.90625 43.0625 39.90625 52.015625 
C 39.90625 59.6875 32 65.296875 23 65.296875 
C 13.90625 65.296875 5.90625 59.828125 5.90625 52.015625 
C 5.90625 48.59375 8.5 48 9.796875 48 
C 11.90625 48 13.703125 49.296875 13.703125 51.890625 
C 13.703125 54.46875 11.90625 55.765625 9.796875 55.765625 
C 9.40625 55.765625 8.90625 55.765625 8.5 55.578125 
C 11.40625 61.859375 19.296875 63 22.796875 63 
C 26.296875 63 32.90625 61.328125 32.90625 51.875 
C 32.90625 49.109375 32.5 44.1875 29.09375 39.84375 
C 26.09375 36 22.703125 36 19.40625 35.6875 
C 18.90625 35.6875 16.59375 35.453125 16.203125 35.453125 
C 15.5 35.359375 15.09375 35.265625 15.09375 34.5 
C 15.09375 33.796875 15.203125 33.703125 17.203125 33.703125 
z
" id="CMR17-51"/>
      </defs>
      <g transform="translate(224.507073 251.21795)scale(0.18 -0.18)">
       <use transform="scale(0.996264)" xlink:href="#CMR17-51"/>
       <use transform="translate(45.690477 0)scale(0.996264)" xlink:href="#CMR17-48"/>
      </g>
     </g>
    </g>
    <g id="xtick_4">
     <g id="line2d_4">
      <g>
       <use style="stroke:#000000;stroke-width:0.8;" x="288.41853" xlink:href="#m83360a86a8" y="230.88"/>
      </g>
     </g>
     <g id="text_4">
      <!-- $40$ -->
      <defs>
       <path d="M 33.59375 64.40625 
C 33.59375 66.5 33.5 66.5 31.703125 66.5 
L 2 19.59375 
L 2 17 
L 27.796875 17 
L 27.796875 7.140625 
C 27.796875 3.5 27.59375 2.5 20.59375 2.5 
L 18.703125 2.5 
L 18.703125 0 
C 21.90625 0 27.296875 0 30.703125 0 
C 34.09375 0 39.5 0 42.703125 0 
L 42.703125 2.5 
L 40.796875 2.5 
C 33.796875 2.5 33.59375 3.5 33.59375 7.140625 
L 33.59375 17 
L 43.796875 17 
L 43.796875 19.59375 
L 33.59375 19.59375 
z
M 28.09375 57.859375 
L 28.09375 19.59375 
L 4 19.59375 
z
" id="CMR17-52"/>
      </defs>
      <g transform="translate(280.163405 251.21795)scale(0.18 -0.18)">
       <use transform="scale(0.996264)" xlink:href="#CMR17-52"/>
       <use transform="translate(45.690477 0)scale(0.996264)" xlink:href="#CMR17-48"/>
      </g>
     </g>
    </g>
    <g id="xtick_5">
     <g id="line2d_5">
      <g>
       <use style="stroke:#000000;stroke-width:0.8;" x="344.074863" xlink:href="#m83360a86a8" y="230.88"/>
      </g>
     </g>
     <g id="text_5">
      <!-- $50$ -->
      <defs>
       <path d="M 11.40625 57.6875 
C 12.40625 57.28125 16.5 56 20.703125 56 
C 30 56 35.09375 61.109375 38 64.0625 
C 38 64.953125 38 65.5 37.40625 65.5 
C 37.296875 65.5 37.09375 65.5 36.296875 65.046875 
C 32.796875 63.40625 28.703125 62.078125 23.703125 62.078125 
C 20.703125 62.078125 16.203125 62.484375 11.296875 64.671875 
C 10.203125 65.171875 10 65.171875 9.90625 65.171875 
C 9.40625 65.171875 9.296875 65.0625 9.296875 63.078125 
L 9.296875 34.421875 
C 9.296875 32.640625 9.296875 32.140625 10.296875 32.140625 
C 10.796875 32.140625 11 32.34375 11.5 33.03125 
C 14.703125 37.515625 19.09375 39.40625 24.09375 39.40625 
C 27.59375 39.40625 35.09375 37.21875 35.09375 20.140625 
C 35.09375 16.953125 35.09375 11.171875 32.09375 6.578125 
C 29.59375 2.484375 25.703125 0.390625 21.40625 0.390625 
C 14.796875 0.390625 8.09375 5 6.296875 12.71875 
C 6.703125 12.609375 7.5 12.421875 7.90625 12.421875 
C 9.203125 12.421875 11.703125 13.125 11.703125 16.21875 
C 11.703125 18.90625 9.796875 20 7.90625 20 
C 5.59375 20 4.09375 18.59375 4.09375 15.796875 
C 4.09375 7.09375 11 -2 21.59375 -2 
C 31.90625 -2 41.703125 6.875 41.703125 19.75 
C 41.703125 31.71875 33.90625 41 24.203125 41 
C 19.09375 41 14.796875 39.109375 11.40625 35.53125 
z
" id="CMR17-53"/>
      </defs>
      <g transform="translate(335.819738 251.21795)scale(0.18 -0.18)">
       <use transform="scale(0.996264)" xlink:href="#CMR17-53"/>
       <use transform="translate(45.690477 0)scale(0.996264)" xlink:href="#CMR17-48"/>
      </g>
     </g>
    </g>
    <g id="xtick_6">
     <g id="line2d_6">
      <g>
       <use style="stroke:#000000;stroke-width:0.8;" x="399.731196" xlink:href="#m83360a86a8" y="230.88"/>
      </g>
     </g>
     <g id="text_6">
      <!-- $60$ -->
      <defs>
       <path d="M 10.59375 34 
C 10.59375 57.65625 21.796875 63 28.296875 63 
C 30.40625 63 35.5 62.640625 37.5 59 
C 35.90625 59 32.90625 59 32.90625 55.515625 
C 32.90625 52.828125 35.09375 51.921875 36.5 51.921875 
C 37.40625 51.921875 40.09375 52.3125 40.09375 55.625 
C 40.09375 61.78125 35.09375 65.296875 28.203125 65.296875 
C 16.296875 65.296875 3.796875 52.96875 3.796875 31 
C 3.796875 3.953125 15.09375 -2 23.09375 -2 
C 32.796875 -2 42 6.671875 42 20.046875 
C 42 32.515625 33.90625 41.59375 23.703125 41.59375 
C 17.59375 41.59375 13.09375 37.609375 10.59375 30.625 
z
M 23.09375 0.390625 
C 10.796875 0.390625 10.796875 18.75 10.796875 22.4375 
C 10.796875 29.625 14.203125 40 23.5 40 
C 25.203125 40 30.09375 40 33.40625 33.125 
C 35.203125 29.21875 35.203125 25.140625 35.203125 20.140625 
C 35.203125 14.75 35.203125 10.78125 33.09375 6.78125 
C 30.90625 2.671875 27.703125 0.390625 23.09375 0.390625 
z
" id="CMR17-54"/>
      </defs>
      <g transform="translate(391.476071 251.21795)scale(0.18 -0.18)">
       <use transform="scale(0.996264)" xlink:href="#CMR17-54"/>
       <use transform="translate(45.690477 0)scale(0.996264)" xlink:href="#CMR17-48"/>
      </g>
     </g>
    </g>
    <g id="text_7">
     <!-- Time (s) -->
     <defs>
      <path d="M 63.296875 72 
L 3.40625 72 
L 1.90625 44.265625 
L 6.203125 44.265625 
C 6.90625 49.25 7.796875 53.046875 8.90625 56.234375 
C 11.5 63.515625 16.296875 67.3125 23.09375 67.3125 
C 26.40625 67.3125 27.796875 66.203125 27.796875 63.71875 
L 27.796875 12.28125 
L 27.796875 9.375 
C 27.796875 5.1875 26.90625 4.6875 18.796875 4.6875 
L 16.203125 4.6875 
L 16.203125 0 
L 50.5 0 
L 50.5 4.6875 
L 47.90625 4.6875 
C 39.90625 4.6875 39 5.1875 39 9.375 
L 39 12.28125 
L 39 63.71875 
C 39 66.203125 40.40625 67.3125 43.703125 67.3125 
C 49.796875 67.3125 54.703125 63.90625 57.203125 57.921875 
C 58.703125 54.25 59.703125 49.953125 60.5 44.265625 
L 64.796875 44.265625 
z
" id="Century_Schoolbook_L_Roman-84"/>
      <path d="M 20.59375 46 
L 1.796875 46 
L 1.796875 41.21875 
L 6.90625 41.21875 
C 10.59375 41.21875 11.203125 40.515625 11.203125 36.203125 
L 11.203125 12.296875 
L 11.203125 8.296875 
C 11.203125 4.296875 10.09375 3.59375 3.703125 3.59375 
L 3 3.59375 
L 3 0 
L 28.90625 0 
L 28.90625 3.59375 
L 28.203125 3.59375 
C 21.703125 3.59375 20.59375 4.28125 20.59375 8.21875 
L 20.59375 12.171875 
z
M 15.90625 71.578125 
C 12.703125 71.578125 10.09375 68.984375 10.09375 65.796875 
C 10.09375 62.703125 12.703125 60 15.796875 60 
C 19.09375 60 21.703125 62.59375 21.703125 65.796875 
C 21.703125 68.984375 19.09375 71.578125 15.90625 71.578125 
z
" id="Century_Schoolbook_L_Roman-105"/>
      <path d="M 20.09375 46 
L 2.296875 46 
L 2.296875 41.21875 
L 6.40625 41.21875 
C 10.09375 41.21875 10.703125 40.515625 10.703125 36.203125 
L 10.703125 12.296875 
L 10.703125 8.40625 
C 10.703125 4.296875 9.59375 3.59375 3.203125 3.59375 
L 2.796875 3.59375 
L 2.796875 0 
L 28 0 
L 28 3.59375 
L 27.59375 3.59375 
C 21.203125 3.59375 20.09375 4.296875 20.09375 8.390625 
L 20.09375 12.28125 
L 20.09375 26.453125 
C 20.09375 35.328125 25 41.921875 31.5 41.921875 
C 34.09375 41.921875 36.90625 40.515625 38.09375 38.625 
C 39.5 36.734375 40.09375 33.828125 40.09375 29.734375 
L 40.09375 12.28125 
L 40.09375 8.28125 
C 40.09375 4.296875 39 3.59375 32.5 3.59375 
L 32.09375 3.59375 
L 32.09375 0 
L 57.40625 0 
L 57.40625 3.59375 
L 57 3.59375 
C 50.59375 3.59375 49.5 4.296875 49.5 8.28125 
L 49.5 12.28125 
L 49.5 25.546875 
C 49.5 35.53125 54 41.921875 61 41.921875 
C 64.296875 41.921875 67 40.015625 68.296875 36.921875 
C 69.203125 34.734375 69.5 32.53125 69.5 28.640625 
L 69.5 12.28125 
L 69.5 8.28125 
C 69.5 4.296875 68.40625 3.59375 61.90625 3.59375 
L 61.5 3.59375 
L 61.5 0 
L 86.796875 0 
L 86.796875 3.59375 
L 86.40625 3.59375 
C 80 3.59375 78.90625 4.296875 78.90625 8.390625 
L 78.90625 12.28125 
L 78.90625 30.640625 
C 78.90625 36.828125 78.296875 38.921875 75.703125 42.3125 
C 72.796875 46.015625 68.703125 48 63.90625 48 
C 57.40625 48 52.59375 44.9375 48.296875 38.109375 
C 46.59375 44.046875 41.203125 48 34.5 48 
C 28.5 48 24 45.140625 20.09375 38.921875 
z
" id="Century_Schoolbook_L_Roman-109"/>
      <path d="M 46.5 23 
C 46.59375 37.8125 38.09375 48.28125 25.90625 48.28125 
C 13.09375 48.28125 3.5 37.25 3.5 22.34375 
C 3.5 8.4375 12.59375 -1 26.09375 -1 
C 35.59375 -1 42.40625 3.6875 46.5 13.1875 
L 43 15.09375 
C 38.90625 7.390625 34.703125 4.390625 28 4.390625 
C 22.90625 4.390625 19.203125 6.59375 16.59375 11 
C 14.796875 14 14 17.5 14.09375 23 
z
M 14.203125 27.296875 
C 14.203125 30.34375 14.59375 32.5 15.59375 35.25 
C 17.703125 41.140625 20.90625 44 25.703125 44 
C 31.796875 44 35.796875 38.78125 35.796875 30.921875 
C 35.796875 28.078125 34.90625 27.296875 31.703125 27.296875 
z
" id="Century_Schoolbook_L_Roman-101"/>
      <path d="M 27.90625 73.453125 
C 21.90625 69.765625 18.703125 67.171875 15.296875 63.171875 
C 7.703125 54.1875 3.59375 42.71875 3.59375 30.640625 
C 3.59375 19.265625 7.203125 8.578125 13.90625 -0.296875 
C 17.703125 -5.09375 21.09375 -8.078125 27.90625 -12.28125 
L 27.90625 -8.578125 
C 17.90625 0.203125 13.90625 11.484375 13.90625 30.640625 
C 13.90625 49.796875 17.90625 60.984375 27.90625 69.765625 
z
" id="Century_Schoolbook_L_Roman-40"/>
      <path d="M 39 48 
L 35.5 48 
L 32.59375 44.40625 
C 29 47.203125 25.40625 48.390625 20.40625 48.390625 
C 11.59375 48.390625 5.796875 42.625 5.796875 33.953125 
C 5.796875 30.078125 7.09375 26.78125 9.296875 24.8125 
C 11.59375 22.703125 13.90625 21.71875 19.90625 20.3125 
L 25.203125 19.125 
C 33.09375 17.234375 35.90625 15.234375 35.90625 11.265625 
C 35.90625 6.578125 31.796875 3.296875 25.90625 3.296875 
C 17.5 3.296875 11.5 8.765625 9.09375 18.875 
L 5.09375 18.875 
L 5.09375 0 
L 8.59375 0 
L 12.09375 3.90625 
C 16.203125 0.59375 20.796875 -1 25.796875 -1 
C 35.59375 -1 42.09375 5.078125 42.09375 14.34375 
C 42.09375 18.71875 40.703125 22.09375 37.90625 24.390625 
C 35.5 26.484375 33.5 27.28125 27.40625 28.5625 
L 22.40625 29.671875 
C 16.90625 30.859375 16.90625 30.859375 15.09375 31.859375 
C 12.90625 32.859375 11.59375 34.9375 11.59375 37.140625 
C 11.59375 41.109375 15.40625 44 20.90625 44 
C 24.703125 44 27.796875 42.703125 30.59375 40.015625 
C 32.796875 37.8125 33.90625 35.828125 35.5 31.234375 
L 39 31.234375 
z
" id="Century_Schoolbook_L_Roman-115"/>
      <path d="M 5.40625 -12.28125 
C 11.40625 -8.578125 14.59375 -5.984375 18 -1.890625 
C 25.59375 6.984375 29.703125 18.5625 29.703125 30.640625 
C 29.703125 42.015625 26.09375 52.703125 19.40625 61.484375 
C 15.59375 66.375 12.203125 69.359375 5.40625 73.453125 
L 5.40625 69.765625 
C 15.40625 60.984375 19.40625 49.796875 19.40625 30.640625 
C 19.40625 11.375 15.40625 0.203125 5.40625 -8.578125 
z
" id="Century_Schoolbook_L_Roman-41"/>
     </defs>
     <g transform="translate(207.635135 273.24577)scale(0.18 -0.18)">
      <use transform="translate(0 -0.29235)scale(0.996264)" xlink:href="#Century_Schoolbook_L_Roman-84"/>
      <use transform="translate(66.450031 -0.29235)scale(0.996264)" xlink:href="#Century_Schoolbook_L_Roman-105"/>
      <use transform="translate(97.831344 -0.29235)scale(0.996264)" xlink:href="#Century_Schoolbook_L_Roman-109"/>
      <use transform="translate(186.398251 -0.29235)scale(0.996264)" xlink:href="#Century_Schoolbook_L_Roman-101"/>
      <use transform="translate(263.906621 -0.29235)scale(0.996264)" xlink:href="#Century_Schoolbook_L_Roman-40"/>
      <use transform="translate(297.081851 -0.29235)scale(0.996264)" xlink:href="#Century_Schoolbook_L_Roman-115"/>
      <use transform="translate(343.207661 -0.29235)scale(0.996264)" xlink:href="#Century_Schoolbook_L_Roman-41"/>
     </g>
    </g>
   </g>
   <g id="matplotlib.axis_2">
    <g id="ytick_1">
     <g id="line2d_7">
      <defs>
       <path d="M 0 0 
L -3.5 0 
" id="m4204182be9" style="stroke:#000000;stroke-width:0.8;"/>
      </defs>
      <g>
       <use style="stroke:#000000;stroke-width:0.8;" x="65.7932" xlink:href="#m4204182be9" y="230.88"/>
      </g>
     </g>
     <g id="text_8">
      <!-- $0$ -->
      <g transform="translate(50.53807 237.548975)scale(0.18 -0.18)">
       <use transform="scale(0.996264)" xlink:href="#CMR17-48"/>
      </g>
     </g>
    </g>
    <g id="ytick_2">
     <g id="line2d_8">
      <g>
       <use style="stroke:#000000;stroke-width:0.8;" x="65.7932" xlink:href="#m4204182be9" y="194.963813"/>
      </g>
     </g>
     <g id="text_9">
      <!-- $25$ -->
      <g transform="translate(42.28295 201.632788)scale(0.18 -0.18)">
       <use transform="scale(0.996264)" xlink:href="#CMR17-50"/>
       <use transform="translate(45.690477 0)scale(0.996264)" xlink:href="#CMR17-53"/>
      </g>
     </g>
    </g>
    <g id="ytick_3">
     <g id="line2d_9">
      <g>
       <use style="stroke:#000000;stroke-width:0.8;" x="65.7932" xlink:href="#m4204182be9" y="159.047627"/>
      </g>
     </g>
     <g id="text_10">
      <!-- $50$ -->
      <g transform="translate(42.28295 165.716602)scale(0.18 -0.18)">
       <use transform="scale(0.996264)" xlink:href="#CMR17-53"/>
       <use transform="translate(45.690477 0)scale(0.996264)" xlink:href="#CMR17-48"/>
      </g>
     </g>
    </g>
    <g id="ytick_4">
     <g id="line2d_10">
      <g>
       <use style="stroke:#000000;stroke-width:0.8;" x="65.7932" xlink:href="#m4204182be9" y="123.13144"/>
      </g>
     </g>
     <g id="text_11">
      <!-- $75$ -->
      <defs>
       <path d="M 45.09375 61.578125 
L 45.09375 63.765625 
L 21.59375 63.765625 
C 9.90625 63.765625 9.703125 65.078125 9.296875 67 
L 7.5 67 
L 4.59375 48.34375 
L 6.40625 48.34375 
C 6.703125 50.234375 7.40625 55.3125 8.59375 57.203125 
C 9.203125 58 16.59375 58 18.296875 58 
L 40.296875 58 
L 29.203125 41.578125 
C 21.796875 30.53125 16.703125 15.609375 16.703125 2.578125 
C 16.703125 1.390625 16.703125 -2 20.296875 -2 
C 23.90625 -2 23.90625 1.390625 23.90625 2.671875 
L 23.90625 7.265625 
C 23.90625 23.5625 26.703125 34.3125 31.296875 41.1875 
z
" id="CMR17-55"/>
      </defs>
      <g transform="translate(42.28295 129.800415)scale(0.18 -0.18)">
       <use transform="scale(0.996264)" xlink:href="#CMR17-55"/>
       <use transform="translate(45.690477 0)scale(0.996264)" xlink:href="#CMR17-53"/>
      </g>
     </g>
    </g>
    <g id="ytick_5">
     <g id="line2d_11">
      <g>
       <use style="stroke:#000000;stroke-width:0.8;" x="65.7932" xlink:href="#m4204182be9" y="87.215253"/>
      </g>
     </g>
     <g id="text_12">
      <!-- $100$ -->
      <g transform="translate(34.02782 93.884228)scale(0.18 -0.18)">
       <use transform="scale(0.996264)" xlink:href="#CMR17-49"/>
       <use transform="translate(45.690477 0)scale(0.996264)" xlink:href="#CMR17-48"/>
       <use transform="translate(91.380954 0)scale(0.996264)" xlink:href="#CMR17-48"/>
      </g>
     </g>
    </g>
    <g id="ytick_6">
     <g id="line2d_12">
      <g>
       <use style="stroke:#000000;stroke-width:0.8;" x="65.7932" xlink:href="#m4204182be9" y="51.299067"/>
      </g>
     </g>
     <g id="text_13">
      <!-- $125$ -->
      <g transform="translate(34.02782 57.968042)scale(0.18 -0.18)">
       <use transform="scale(0.996264)" xlink:href="#CMR17-49"/>
       <use transform="translate(45.690477 0)scale(0.996264)" xlink:href="#CMR17-50"/>
       <use transform="translate(91.380954 0)scale(0.996264)" xlink:href="#CMR17-53"/>
      </g>
     </g>
    </g>
    <g id="text_14">
     <!-- Spindle Current (Volts) -->
     <defs>
      <path d="M 54.59375 72 
L 50.90625 72 
L 46.90625 66.09375 
C 42.203125 70.59375 35.796875 73 28.703125 73 
C 15.59375 73 6.796875 64.609375 6.796875 52.15625 
C 6.796875 41.28125 12.203125 35.890625 26.90625 32.109375 
L 36.40625 29.703125 
C 43.796875 27.828125 44.5 27.625 46.59375 26.03125 
C 49.59375 23.734375 51.203125 20.4375 51.203125 16.546875 
C 51.203125 12.5625 49.703125 9.28125 46.703125 6.59375 
C 43.40625 3.6875 40.09375 2.59375 34.59375 2.59375 
C 27.203125 2.59375 21.90625 4.875 17.203125 10.03125 
C 13 14.703125 10.90625 19.375 9.40625 27 
L 5.09375 27 
L 5.5 -1.4375 
L 9.40625 -1.4375 
L 13.90625 5.46875 
C 20.59375 0 26.203125 -2 34.90625 -2 
C 49.59375 -2 59 6.59375 59 19.9375 
C 59 26.109375 56.90625 31.40625 53 35.203125 
C 50.296875 37.796875 46.40625 39.484375 38.40625 41.484375 
L 27.703125 44.171875 
C 18.796875 46.46875 14.59375 50.359375 14.59375 56.4375 
C 14.59375 63.40625 20.296875 68.203125 28.796875 68.203125 
C 35.796875 68.203125 41.5 65.1875 45.5 59.484375 
C 48.40625 55.375 50.203125 51.15625 51.5 46.046875 
L 55.796875 46.046875 
z
" id="Century_Schoolbook_L_Roman-83"/>
      <path d="M 20.09375 46 
L 2.796875 46 
L 2.796875 41.21875 
L 6.40625 41.21875 
C 10.09375 41.21875 10.703125 40.515625 10.703125 36.21875 
L 10.703125 -7.75 
L 10.703125 -11.71875 
C 10.703125 -15.71875 9.59375 -16.40625 3.203125 -16.40625 
L 2.796875 -16.40625 
L 2.796875 -20 
L 28.796875 -20 
L 28.796875 -16.40625 
L 27.703125 -16.40625 
C 21.203125 -16.40625 20.09375 -15.71875 20.09375 -11.734375 
L 20.09375 -7.75 
L 20.09375 6.6875 
C 23.40625 0.90625 27.203125 -1.390625 33.296875 -1.390625 
C 44.90625 -1.390625 53.5 9.265625 53.5 23.5 
C 53.5 37.265625 44.90625 48 33.90625 48 
C 27.703125 48 23.59375 45.4375 20.09375 39.515625 
z
M 32.09375 42.609375 
C 39 42.609375 43 35.75 43 24.09375 
C 43 11.265625 38.90625 4 31.796875 4 
C 24.703125 4 20 11.375 20 22.8125 
C 20 35.140625 24.5 42.609375 32.09375 42.609375 
z
" id="Century_Schoolbook_L_Roman-112"/>
      <path d="M 20 46 
L 2.703125 46 
L 2.703125 41.21875 
L 6.296875 41.21875 
C 10 41.21875 10.59375 40.515625 10.59375 36.203125 
L 10.59375 12.296875 
L 10.59375 8.296875 
C 10.59375 4.296875 9.5 3.59375 3.09375 3.59375 
L 2.703125 3.59375 
L 2.703125 0 
L 28 0 
L 28 3.59375 
L 27.59375 3.59375 
C 21.09375 3.59375 20 4.296875 20 8.28125 
L 20 12.28125 
L 20 22.65625 
C 20 27.546875 20.703125 32.03125 21.796875 34.328125 
C 23.90625 38.828125 28.40625 41.921875 32.703125 41.921875 
C 35.296875 41.921875 38.296875 40.421875 39.796875 38.421875 
C 41.296875 36.328125 42 33.234375 42 28.4375 
L 42 12.28125 
L 42 8.28125 
C 42 4.296875 40.90625 3.59375 34.40625 3.59375 
L 34 3.59375 
L 34 0 
L 59.296875 0 
L 59.296875 3.59375 
L 58.90625 3.59375 
C 52.5 3.59375 51.40625 4.296875 51.40625 8.28125 
L 51.40625 12.28125 
L 51.40625 27.953125 
C 51.40625 35.125 51.09375 36.921875 49.296875 40.328125 
C 46.796875 45.109375 41.703125 48 35.796875 48 
C 29.40625 48 24.40625 45.046875 20 38.515625 
z
" id="Century_Schoolbook_L_Roman-110"/>
      <path d="M 38 0 
L 55.40625 0 
L 55.40625 4.703125 
L 53.59375 4.703125 
C 48.203125 4.703125 47.40625 5.703125 47.40625 11.96875 
L 47.40625 73.78125 
L 27.796875 73.78125 
L 27.796875 69 
L 33.703125 69 
C 37.296875 69 38 68.28125 38 63.921875 
L 38 41 
C 34.296875 46.09375 30 48.390625 24.203125 48.390625 
C 12.90625 48.390625 4.296875 37.546875 4.296875 23.203125 
C 4.296875 9.0625 12.59375 -1 24.203125 -1 
C 30.5 -1 34.796875 1.671875 38 7.59375 
z
M 26.203125 43 
C 30.296875 43 34.203125 40.03125 36 35.4375 
C 37.203125 32.453125 37.90625 28.28125 37.90625 23.515625 
C 37.90625 11.96875 33.296875 4.390625 26.09375 4.390625 
C 19.09375 4.390625 14.796875 10.96875 14.796875 22.015625 
C 14.796875 27.890625 15.40625 32.359375 16.703125 35.734375 
C 18.40625 40.125 22.09375 43 26.203125 43 
z
" id="Century_Schoolbook_L_Roman-100"/>
      <path d="M 20.40625 73 
L 1.90625 73 
L 1.90625 68.21875 
L 6.796875 68.21875 
C 10.40625 68.21875 11 67.515625 11 63.21875 
L 11 12.28125 
L 11 8.28125 
C 11 4.296875 9.90625 3.59375 3.5 3.59375 
L 2.796875 3.59375 
L 2.796875 0 
L 28.703125 0 
L 28.703125 3.59375 
L 28 3.59375 
C 21.5 3.59375 20.40625 4.296875 20.40625 8.25 
L 20.40625 12.21875 
z
" id="Century_Schoolbook_L_Roman-108"/>
      <path d="M 63.90625 72 
L 60.09375 72 
L 56.09375 66.015625 
C 49 71.203125 45.09375 72.703125 38.40625 72.703125 
C 28.703125 72.703125 20.703125 68.8125 13.90625 60.78125 
C 7.5 53.234375 4.5 44.890625 4.5 34.65625 
C 4.5 13.296875 18.59375 -2 38.296875 -2 
C 54.296875 -2 64.5 7.34375 66.796875 24.015625 
L 62.09375 24.8125 
C 61.09375 19.546875 59.90625 15.984375 58.09375 13.015625 
C 54 6.171875 47.59375 2.6875 39.5 2.6875 
C 24.703125 2.6875 17.703125 12.90625 17.703125 34.265625 
C 17.703125 45.46875 19.203125 53.015625 22.59375 58.96875 
C 25.703125 64.53125 31.90625 68 38.296875 68 
C 45.296875 68 51.5 64.328125 55.296875 57.96875 
C 57.203125 54.6875 58.703125 50.8125 61 43.171875 
L 65.40625 43.171875 
z
" id="Century_Schoolbook_L_Roman-67"/>
      <path d="M 41.203125 0 
L 59.40625 0 
L 59.40625 4.703125 
L 56.90625 4.703125 
C 51.40625 4.703125 50.59375 5.59375 50.59375 11.953125 
L 50.59375 46.78125 
L 31.796875 46.78125 
L 31.796875 42 
L 36.90625 42 
C 40.59375 42 41.203125 41.296875 41.203125 36.953125 
L 41.203125 24.5625 
C 41.203125 18.8125 40.59375 15.484375 39.09375 12.15625 
C 37 7.71875 33 5.09375 28.09375 5.09375 
C 25 5.09375 22.40625 6.1875 21.09375 8.171875 
C 19.796875 10.046875 19.59375 11.046875 19.59375 16.5 
L 19.59375 46.78125 
L 2.09375 46.78125 
L 2.09375 42 
L 5.90625 42 
C 9.59375 42 10.203125 41.296875 10.203125 36.953125 
L 10.203125 15.21875 
C 10.203125 10.078125 10.59375 7.765625 12.09375 5.453125 
C 14.796875 1.3125 19.59375 -1 25.59375 -1 
C 32.203125 -1 36.796875 1.71875 41.203125 8.125 
z
" id="Century_Schoolbook_L_Roman-117"/>
      <path d="M 19.796875 46 
L 2.09375 46 
L 2.09375 41.21875 
L 6.203125 41.21875 
C 9.90625 41.21875 10.5 40.515625 10.5 36.203125 
L 10.5 12.296875 
L 10.5 8.296875 
C 10.5 4.296875 9.40625 3.59375 2.90625 3.59375 
L 2.5 3.59375 
L 2.5 0 
L 29.203125 0 
L 29.203125 3.59375 
L 27.296875 3.59375 
C 20.90625 3.59375 19.796875 4.296875 19.796875 8.296875 
L 19.796875 12.296875 
L 19.796875 13.296875 
C 19.796875 20.8125 21.203125 28.40625 23.703125 34.109375 
C 26.09375 39.703125 29.5 42.8125 33.703125 43.3125 
C 32.296875 41.703125 31.90625 40.6875 31.90625 38.765625 
C 31.90625 35.546875 34.203125 33.234375 37.40625 33.234375 
C 41 33.234375 43.5 35.9375 43.5 40.015625 
C 43.5 44.8125 40.09375 48 34.796875 48 
C 28.5 48 23 42.921875 19.796875 34.140625 
z
" id="Century_Schoolbook_L_Roman-114"/>
      <path d="M 19.40625 47 
L 19.40625 67 
L 15.296875 67 
C 14.296875 53.875 9.90625 47.1875 1.796875 46.59375 
L 1.796875 42.703125 
L 10 42.703125 
L 10 17.265625 
C 10 10.28125 10.203125 7.78125 11.203125 5.484375 
C 12.796875 1.296875 16.796875 -1 22.59375 -1 
C 26.5 -1 29.90625 0.203125 32.203125 2.390625 
C 35.5 5.59375 37.40625 10.875 37.40625 16.375 
C 37.40625 16.96875 37.40625 17.671875 37.296875 18.671875 
L 33.09375 18.671875 
C 32.796875 9.6875 30.203125 5.09375 25.296875 5.09375 
C 23 5.09375 21 6.28125 20.296875 7.984375 
C 19.703125 9.375 19.40625 11.875 19.40625 15.46875 
L 19.40625 42.703125 
L 34.09375 42.703125 
L 34.09375 47 
z
" id="Century_Schoolbook_L_Roman-116"/>
      <path d="M 39.296875 15.40625 
L 21 61.8125 
C 20.5 63.015625 20.203125 64.21875 20.203125 64.8125 
C 20.203125 66.609375 21.90625 67.3125 26.40625 67.3125 
L 30.40625 67.3125 
L 30.40625 72 
L -0.796875 72 
L -0.796875 67.3125 
L 1.203125 67.3125 
C 5.703125 67.3125 7 66.3125 8.90625 61.703125 
L 34.203125 -1.6875 
L 38.203125 -1.6875 
L 61.203125 57.515625 
C 64.203125 65.3125 66.40625 67.3125 72.09375 67.3125 
L 73.09375 67.3125 
L 73.09375 72 
L 46 72 
L 46 67.3125 
L 47.90625 67.3125 
C 53 67.3125 56 65.3125 56 62.109375 
C 56 60.71875 55.5 58.421875 54.796875 56.53125 
z
" id="Century_Schoolbook_L_Roman-86"/>
      <path d="M 25.203125 48.28125 
C 13 48.28125 3.40625 37.453125 3.40625 23.546875 
C 3.40625 9.9375 13 -1 25 -1 
C 37 -1 46.59375 9.9375 46.59375 23.640625 
C 46.59375 37.25 37 48.28125 25.203125 48.28125 
z
M 25.203125 44 
C 32.203125 44 36.09375 36.75 36.09375 23.640625 
C 36.09375 10.453125 32.203125 3.296875 25 3.296875 
C 17.796875 3.296875 13.90625 10.453125 13.90625 23.546875 
C 13.90625 37.046875 17.703125 44 25.203125 44 
z
" id="Century_Schoolbook_L_Roman-111"/>
     </defs>
     <g transform="translate(25.33795 220.11432)rotate(-90)scale(0.18 -0.18)">
      <use transform="translate(0 -1.570628)scale(0.996264)" xlink:href="#Century_Schoolbook_L_Roman-83"/>
      <use transform="translate(62.763979 -1.570628)scale(0.996264)" xlink:href="#Century_Schoolbook_L_Roman-112"/>
      <use transform="translate(119.949466 -1.570628)scale(0.996264)" xlink:href="#Century_Schoolbook_L_Roman-105"/>
      <use transform="translate(151.330779 -1.570628)scale(0.996264)" xlink:href="#Century_Schoolbook_L_Roman-110"/>
      <use transform="translate(212.20241 -1.570628)scale(0.996264)" xlink:href="#Century_Schoolbook_L_Roman-100"/>
      <use transform="translate(269.387897 -1.570628)scale(0.996264)" xlink:href="#Century_Schoolbook_L_Roman-108"/>
      <use transform="translate(300.76921 -1.570628)scale(0.996264)" xlink:href="#Century_Schoolbook_L_Roman-101"/>
      <use transform="translate(378.27758 -1.570628)scale(0.996264)" xlink:href="#Century_Schoolbook_L_Roman-67"/>
      <use transform="translate(450.207565 -1.570628)scale(0.996264)" xlink:href="#Century_Schoolbook_L_Roman-117"/>
      <use transform="translate(511.079196 -1.570628)scale(0.996264)" xlink:href="#Century_Schoolbook_L_Roman-114"/>
      <use transform="translate(555.312765 -1.570628)scale(0.996264)" xlink:href="#Century_Schoolbook_L_Roman-114"/>
      <use transform="translate(599.546333 -1.570628)scale(0.996264)" xlink:href="#Century_Schoolbook_L_Roman-101"/>
      <use transform="translate(649.359534 -1.570628)scale(0.996264)" xlink:href="#Century_Schoolbook_L_Roman-110"/>
      <use transform="translate(710.231164 -1.570628)scale(0.996264)" xlink:href="#Century_Schoolbook_L_Roman-116"/>
      <use transform="translate(776.68004 -1.570628)scale(0.996264)" xlink:href="#Century_Schoolbook_L_Roman-40"/>
      <use transform="translate(809.85527 -1.570628)scale(0.996264)" xlink:href="#Century_Schoolbook_L_Roman-86"/>
      <use transform="translate(874.31329 -1.570628)scale(0.996264)" xlink:href="#Century_Schoolbook_L_Roman-111"/>
      <use transform="translate(924.12649 -1.570628)scale(0.996264)" xlink:href="#Century_Schoolbook_L_Roman-108"/>
      <use transform="translate(955.507803 -1.570628)scale(0.996264)" xlink:href="#Century_Schoolbook_L_Roman-116"/>
      <use transform="translate(994.26151 -1.570628)scale(0.996264)" xlink:href="#Century_Schoolbook_L_Roman-115"/>
      <use transform="translate(1040.38732 -1.570628)scale(0.996264)" xlink:href="#Century_Schoolbook_L_Roman-41"/>
     </g>
    </g>
   </g>
   <g id="line2d_13">
    <path clip-path="url(#p12ca70ce04)" d="M 65.7932 230.88 
L 71.408924 230.88 
L 71.41449 123.468695 
L 71.520237 125.63663 
L 71.525802 124.048357 
L 71.59259 134.377927 
L 71.609287 142.22075 
L 71.664943 121.208015 
L 71.676074 122.564423 
L 71.776256 143.930752 
L 71.80965 125.630833 
L 71.831912 122.918017 
L 71.887568 126.888699 
L 71.915397 141.090409 
L 71.971053 122.338355 
L 71.998881 128.598701 
L 72.026709 125.178697 
L 72.060103 134.609792 
L 72.082366 138.250067 
L 72.104628 127.329242 
L 72.138022 123.468695 
L 72.193678 135.409725 
L 72.221506 150.191097 
L 72.277163 121.758693 
L 72.388475 139.960069 
L 72.332819 119.498013 
L 72.410738 129.039244 
L 72.444132 125.758359 
L 72.505354 134.725724 
L 72.527616 143.35109 
L 72.577707 122.344151 
L 72.583273 121.208015 
L 72.611101 130.859381 
L 72.638929 130.859381 
L 72.666757 142.22075 
L 72.733545 126.204698 
L 72.77807 124.048357 
L 72.805898 125.758359 
L 72.833726 141.670071 
L 72.889382 123.468695 
L 72.917211 128.598701 
L 72.945039 129.149379 
L 72.972867 141.090409 
L 73.028523 125.178697 
L 73.04522 125.526494 
L 73.061917 127.120564 
L 73.139836 146.771094 
L 73.167664 128.019039 
L 73.195492 123.468695 
L 73.256714 129.717448 
L 73.306805 149.031774 
L 73.395855 147.339162 
L 73.585087 161.552466 
L 73.61848 158.810666 
L 73.724227 153.582118 
L 73.735359 157.454258 
L 73.752056 163.262468 
L 73.807712 152.451778 
L 73.846671 159.390328 
L 73.891196 161.552466 
L 73.941287 151.211302 
L 73.946853 150.191097 
L 74.008075 158.822259 
L 74.041468 161.314805 
L 74.058165 164.392808 
L 74.108256 153.924119 
L 74.113822 153.582118 
L 74.14165 156.42246 
L 74.175044 155.865985 
L 74.308619 169.493831 
L 74.31975 167.453422 
L 74.364275 163.813146 
L 74.392103 172.334173 
L 74.403235 171.882037 
L 74.503416 164.392808 
L 74.44776 172.913834 
L 74.586901 167.23315 
L 74.614729 174.623836 
L 74.709344 170.873425 
L 74.75387 173.493496 
L 74.765001 170.305357 
L 74.809526 164.392808 
L 74.859617 173.261631 
L 74.865182 173.493496 
L 74.920839 171.203832 
L 75.004323 168.943152 
L 75.037717 170.7459 
L 75.059979 175.754176 
L 75.115636 169.493831 
L 75.160161 174.391972 
L 75.19912 176.884517 
L 75.210251 174.160107 
L 75.254777 167.812812 
L 75.310433 174.623836 
L 75.315999 174.507904 
L 75.338261 174.044175 
L 75.349392 175.412176 
L 75.366089 177.464178 
L 75.421746 170.653154 
L 75.533058 175.754176 
L 75.549755 173.702174 
L 75.560886 172.334173 
L 75.588715 176.884517 
L 75.63324 176.432381 
L 75.644371 176.884517 
L 75.688896 174.281836 
L 75.727855 172.334173 
L 75.755684 179.17418 
L 75.761249 178.83218 
L 75.866996 172.913834 
L 75.81134 179.724859 
L 75.933784 174.954243 
L 75.950481 174.623836 
L 75.956046 175.986041 
L 75.978309 181.434861 
L 76.072925 177.690246 
L 76.11745 180.884182 
L 76.150843 174.281836 
L 76.173106 172.913834 
L 76.195369 178.362654 
L 76.256591 179.724859 
L 76.284419 175.174515 
L 76.29555 175.858516 
L 76.42356 182.014522 
L 76.395731 175.754176 
L 76.451388 179.17418 
L 76.479216 178.014857 
L 76.523741 180.75086 
L 76.534872 181.434861 
L 76.579397 177.690246 
L 76.618357 174.044175 
L 76.662882 180.200181 
L 76.729669 182.565201 
L 76.701841 179.724859 
L 76.768629 179.968317 
L 76.785326 178.594519 
L 76.857679 181.098657 
L 76.924467 179.17418 
L 76.974557 183.144863 
L 77.08587 156.498831 
L 82.373221 156.498831 
L 82.4901 194.506231 
L 82.545756 187.115545 
L 82.612544 191.770228 
L 82.657069 189.955887 
L 82.734988 192.796229 
L 82.740553 192.796229 
L 82.79621 187.695207 
L 82.890825 190.871752 
L 82.93535 193.926569 
L 82.979876 189.729819 
L 82.991007 188.825547 
L 83.06336 191.329685 
L 83.074491 192.245551 
L 83.146845 189.057411 
L 83.157976 188.825547 
L 83.169107 190.193548 
L 83.213632 192.245551 
L 83.24146 188.245885 
L 83.263723 188.245885 
L 83.269288 188.245885 
L 83.408429 192.796229 
L 83.430692 190.523955 
L 83.464086 189.955887 
L 83.508611 192.917958 
L 83.519742 194.506231 
L 83.575398 189.405208 
L 83.597661 190.309481 
L 83.625489 195.543825 
L 83.631055 196.795895 
L 83.703408 188.935683 
L 83.714539 187.115545 
L 83.786892 192.575958 
L 83.85368 195.636571 
L 83.825852 191.665889 
L 83.875942 192.460025 
L 83.937164 188.825547 
L 83.970558 194.732299 
L 83.992821 195.636571 
L 84.009518 192.228161 
L 84.048477 189.955887 
L 84.098568 196.453894 
L 84.104133 196.795895 
L 84.126396 192.228161 
L 84.15979 188.245885 
L 84.232143 192.112228 
L 84.298931 193.926569 
L 84.271102 191.086227 
L 84.332324 191.56155 
L 84.577212 160.422126 
L 84.638434 166.421624 
L 84.660697 172.334173 
L 84.716353 158.132462 
L 84.938978 172.913834 
L 84.95011 171.545833 
L 84.966807 169.493831 
L 85.022463 174.623836 
L 85.050291 171.203832 
L 85.161604 186.564866 
L 85.206129 184.959204 
L 85.272916 178.594519 
L 85.311876 183.938999 
L 85.328573 187.695207 
L 85.384229 175.754176 
L 85.439885 182.565201 
L 85.473279 176.101973 
L 85.718167 92.224932 
L 85.773823 230.300338 
L 85.851742 219.066495 
L 85.857308 218.388291 
L 85.912964 87.215253 
L 85.940792 225.199316 
L 85.996449 93.934934 
L 86.024277 224.619654 
L 86.130024 221.338769 
L 86.13559 221.228633 
L 86.163418 89.935268 
L 86.219074 225.199316 
L 86.246902 211.548284 
L 86.27473 134.830064 
L 86.302559 224.068976 
L 86.369346 177.580111 
L 86.469528 225.199316 
L 86.441699 128.019039 
L 86.49179 211.101944 
L 86.497356 207.577601 
L 86.525184 225.199316 
L 86.586406 221.338769 
L 86.608668 221.779312 
L 86.719981 145.640753 
L 86.664325 225.199316 
L 86.736678 193.028094 
L 86.775637 176.333838 
L 86.859122 228.61932 
L 86.914778 90.51493 
L 86.992697 109.255391 
L 86.998263 108.687323 
L 87.009394 115.283872 
L 87.165232 151.321438 
L 87.170797 149.617232 
L 87.19306 142.800411 
L 87.220888 150.741776 
L 87.276544 149.611436 
L 87.415685 162.103144 
L 87.476907 155.29212 
L 87.49917 155.29212 
L 87.526998 155.871782 
L 87.532564 154.277712 
L 87.554826 147.901434 
L 87.660573 149.031774 
L 87.666139 149.031774 
L 87.721795 145.640753 
L 87.799714 153.03144 
L 87.80528 153.03144 
L 87.860936 157.581784 
L 87.911027 153.599508 
L 87.938855 153.03144 
L 88.050167 176.786409 
L 93.448832 176.786409 
L 93.454397 168.36349 
L 93.560144 171.661765 
L 93.621366 167.23315 
L 93.593538 173.493496 
L 93.660326 172.119698 
L 93.677023 173.493496 
L 93.704851 171.203832 
L 93.754941 171.203832 
L 93.760507 171.203832 
L 93.788335 167.23315 
L 93.843992 174.044175 
L 93.87182 170.653154 
L 93.899648 171.783494 
L 93.938607 169.389491 
L 93.983132 168.36349 
L 93.999829 172.119698 
L 94.010961 174.623836 
L 94.094445 170.073492 
L 94.105576 171.441494 
L 94.122273 173.493496 
L 94.150101 170.073492 
L 94.211323 170.879222 
L 94.344899 172.334173 
L 94.350464 172.224037 
L 94.372727 171.783494 
L 94.394989 173.151496 
L 94.400555 173.493496 
L 94.489605 172.224037 
L 94.511868 171.783494 
L 94.545261 172.792105 
L 94.651008 175.174515 
L 94.62318 170.653154 
L 94.66214 173.818107 
L 94.734493 170.653154 
L 94.779018 172.566037 
L 94.790149 172.334173 
L 94.801281 173.702174 
L 94.817977 175.754176 
L 94.845806 167.812812 
L 94.895896 172.450105 
L 94.901462 172.334173 
L 94.918159 174.038378 
L 94.92929 175.174515 
L 94.996078 170.757493 
L 95.012775 166.653488 
L 95.040603 173.493496 
L 95.096259 172.913834 
L 95.179744 168.943152 
L 95.151915 174.623836 
L 95.218703 171.198036 
L 95.291056 166.10281 
L 95.307753 171.545833 
L 95.318884 175.174515 
L 95.346713 166.10281 
L 95.4135 170.531425 
L 95.485853 174.623836 
L 95.458025 168.36349 
L 95.519247 170.29956 
L 95.652822 179.724859 
L 95.736307 174.623836 
L 95.764135 168.943152 
L 95.836488 176.101973 
L 95.84762 176.333838 
L 95.853185 174.739769 
L 95.875448 168.36349 
L 95.903276 176.884517 
L 95.975629 170.305357 
L 96.014589 171.783494 
L 96.031285 167.349082 
L 96.042417 164.392808 
L 96.070245 174.044175 
L 96.120336 171.557426 
L 96.125901 171.783494 
L 96.148164 168.606948 
L 96.153729 167.812812 
L 96.214951 174.728175 
L 96.237214 177.464178 
L 96.287305 170.983561 
L 96.320698 168.943152 
L 96.342961 177.568517 
L 96.348527 179.724859 
L 96.426445 169.621356 
L 96.487667 165.523148 
L 96.50993 172.803699 
L 96.571152 175.754176 
L 96.543324 170.073492 
L 96.626808 175.174515 
L 96.654636 176.884517 
L 96.665768 172.339969 
L 96.682465 165.523148 
L 96.788212 166.328878 
L 96.793777 166.10281 
L 96.804909 169.963357 
L 96.821605 175.754176 
L 96.921787 173.035563 
L 96.960746 177.464178 
L 96.977443 167.238947 
L 96.988574 160.422126 
L 97.072059 176.884517 
L 97.183372 166.653488 
L 97.233462 167.812812 
L 97.239028 167.812812 
L 97.350341 174.044175 
L 97.361472 171.319765 
L 97.433825 166.10281 
L 97.461653 173.493496 
L 97.489481 170.073492 
L 97.539572 176.542516 
L 97.545138 178.014857 
L 97.600794 167.812812 
L 97.617491 168.821423 
L 97.65645 175.754176 
L 97.69541 167.673693 
L 97.712107 164.943487 
L 97.751066 174.954243 
L 97.767763 178.014857 
L 97.812288 167.67949 
L 97.823419 162.682806 
L 97.901338 174.96004 
L 97.906904 175.754176 
L 97.956995 167.685286 
L 97.96256 167.23315 
L 97.984823 173.586242 
L 97.990388 175.174515 
L 98.018217 166.653488 
L 98.068307 167.117218 
L 98.096135 169.969153 
L 98.129529 172.334173 
L 98.151792 164.613079 
L 98.157357 162.682806 
L 98.185186 170.073492 
L 98.246408 168.589558 
L 98.324326 174.044175 
L 98.296498 168.36349 
L 98.335458 169.267763 
L 98.379983 161.552466 
L 98.430073 172.566037 
L 98.435639 174.044175 
L 98.491295 164.392808 
L 98.507992 164.392808 
L 98.519124 164.392808 
L 98.57478 168.943152 
L 98.619305 163.482739 
L 98.630436 163.262468 
L 98.636002 164.282672 
L 98.658264 168.36349 
L 98.730618 162.561077 
L 98.741749 160.972804 
L 98.786274 170.421289 
L 98.797405 170.653154 
L 98.802971 168.606948 
L 98.825233 160.422126 
L 98.914284 167.580947 
L 98.964374 162.103144 
L 99.014465 164.392808 
L 99.125778 170.7117 
L 104.635755 170.7117 
L 104.669148 133.120062 
L 104.752633 137.670406 
L 104.780461 147.350755 
L 104.808289 129.149379 
L 104.863945 139.380408 
L 104.891774 133.120062 
L 104.94743 143.930752 
L 104.975258 137.119727 
L 105.003086 142.800411 
L 105.07544 136.093726 
L 105.114399 127.439377 
L 105.136662 136.992202 
L 105.225712 144.510413 
L 105.170055 133.699723 
L 105.242409 136.319794 
L 105.309196 128.598701 
L 105.359287 133.462062 
L 105.392681 129.729041 
L 105.437206 135.177861 
L 105.459468 137.229863 
L 105.503993 147.350755 
L 105.531821 134.279385 
L 105.565215 138.250067 
L 105.643134 126.309037 
L 105.615306 139.380408 
L 105.682094 134.603995 
L 105.69879 135.960404 
L 105.721053 130.071041 
L 105.726619 128.598701 
L 105.798972 138.713797 
L 105.810103 141.670071 
L 105.837931 129.149379 
L 105.876891 130.96372 
L 105.949244 135.960404 
L 105.921416 129.729041 
L 105.971506 130.071041 
L 106.032728 126.888699 
L 106.054991 134.609792 
L 106.088385 139.960069 
L 106.116213 134.279385 
L 106.160738 134.615589 
L 106.283182 125.178697 
L 106.199697 139.380408 
L 106.288748 127.677039 
L 106.366666 141.670071 
L 106.338838 122.918017 
L 106.40006 130.17538 
L 106.450151 124.599035 
L 106.466848 133.137452 
L 106.505807 143.35109 
L 106.561464 128.019039 
L 106.567029 129.039244 
L 106.61712 138.829729 
L 106.683908 131.775247 
L 106.756261 121.208015 
L 106.728433 133.120062 
L 106.806351 129.039244 
L 106.867573 119.498013 
L 106.839745 135.409725 
L 106.912099 129.149379 
L 106.92323 129.149379 
L 106.951058 137.119727 
L 106.978886 118.367673 
L 107.028977 127.781378 
L 107.034542 127.439377 
L 107.045674 132.215789 
L 107.062371 139.380408 
L 107.134724 124.726561 
L 107.145855 119.498013 
L 107.223774 131.659314 
L 107.22934 132.569383 
L 107.296127 127.213309 
L 107.424137 101.876298 
L 107.36848 133.120062 
L 107.446399 106.884575 
L 107.479793 124.599035 
L 107.563278 110.397325 
L 107.591106 99.615618 
L 107.646762 118.367673 
L 107.691287 103.470368 
L 107.702418 100.745958 
L 107.724681 118.924148 
L 107.730247 123.468695 
L 107.824862 112.895666 
L 107.952872 96.195614 
L 107.897216 116.078009 
L 107.964003 101.876298 
L 107.9807 110.397325 
L 108.058619 97.210022 
L 108.064185 95.615952 
L 108.119841 110.397325 
L 108.147669 113.817328 
L 108.186629 106.65271 
L 108.231154 96.775276 
L 108.28681 111.527665 
L 108.292376 109.145256 
L 108.342466 94.485612 
L 108.370294 114.947669 
L 108.392557 113.139124 
L 108.442648 101.082162 
L 108.565092 91.065608 
L 108.509435 113.237667 
L 108.570657 93.679883 
L 108.620748 110.976986 
L 108.670839 89.946861 
L 108.676404 87.674588 
L 108.732061 107.556983 
L 108.748757 103.470368 
L 108.815545 91.64527 
L 108.837808 105.278912 
L 108.89903 100.166296 
L 108.921292 204.737259 
L 108.926858 230.88 
L 108.954686 88.225266 
L 109.004777 89.946861 
L 109.03817 87.215253 
L 109.088261 98.247616 
L 109.127221 126.645241 
L 109.205139 229.169998 
L 109.227402 118.686486 
L 109.232968 91.065608 
L 109.338715 92.317678 
L 109.34428 91.065608 
L 109.399937 226.909318 
L 109.455593 105.846981 
L 109.483421 101.876298 
L 109.539077 230.300338 
L 109.566906 88.225266 
L 109.616996 225.987656 
L 109.65039 229.169998 
L 109.678218 88.225266 
L 109.761703 225.199316 
L 109.795097 222.689381 
L 109.856319 165.749216 
L 109.873015 87.215253 
L 109.950934 224.063179 
L 109.984328 230.300338 
L 110.012156 88.225266 
L 110.095641 225.778977 
L 110.123469 221.779312 
L 110.201388 225.199316 
L 110.3127 133.882317 
L 143.316906 133.882317 
L 143.405956 226.909318 
L 143.433784 221.228633 
L 143.461612 122.338355 
L 143.539531 227.471589 
L 143.545097 228.039658 
L 143.572925 225.199316 
L 143.600753 171.203832 
L 143.678672 226.567317 
L 143.684237 226.909318 
L 143.728763 223.379178 
L 143.79555 221.779312 
L 143.767722 226.909318 
L 143.823378 225.199316 
L 143.851206 228.039658 
L 143.867903 221.222837 
L 143.906863 225.199316 
L 143.945822 145.072685 
L 143.962519 134.830064 
L 143.979216 186.669205 
L 144.046004 228.039658 
L 144.10166 225.199316 
L 144.185144 208.157263 
L 144.157316 226.909318 
L 144.207407 221.790905 
L 144.268629 226.909318 
L 144.274195 210.197672 
L 144.296457 143.35109 
L 144.352113 225.199316 
L 144.379942 217.228968 
L 144.40777 226.909318 
L 144.413335 208.9514 
L 144.435598 137.119727 
L 144.491254 225.199316 
L 144.519082 225.199316 
L 144.602567 128.598701 
L 144.574739 226.909318 
L 144.624829 206.342922 
L 144.630395 225.778977 
L 144.730577 194.175824 
L 144.769536 87.215253 
L 144.797364 227.459996 
L 144.841889 180.530589 
L 144.880849 225.778977 
L 144.964333 225.199316 
L 145.047818 210.997605 
L 145.103474 114.947669 
L 145.131302 228.039658 
L 145.147999 227.361454 
L 145.242615 226.909318 
L 145.214787 228.039658 
L 145.259312 227.239725 
L 145.298271 228.039658 
L 145.326099 87.215253 
L 145.409584 226.909318 
L 145.437412 226.909318 
L 145.548725 228.039658 
L 145.576553 104.71664 
L 145.660037 221.779312 
L 145.799178 225.778977 
L 145.849269 205.409667 
L 145.938319 87.215253 
L 145.910491 227.459996 
L 145.966147 193.926569 
L 146.07746 225.778977 
L 146.088591 209.409332 
L 146.133116 182.565201 
L 146.211035 185.417136 
L 146.244429 191.665889 
L 146.34461 188.703818 
L 146.355741 187.115545 
L 146.38357 192.796229 
L 146.461488 187.805342 
L 146.494882 187.695207 
L 146.517145 188.599479 
L 146.550539 189.955887 
L 146.567235 187.225681 
L 146.661851 184.275203 
L 146.773164 225.778977 
L 146.77873 207.479059 
L 146.800992 134.279385 
L 146.82882 226.909318 
L 146.884477 224.619654 
L 146.912305 225.778977 
L 146.934567 222.579245 
L 146.967961 226.909318 
L 146.973527 203.380851 
L 146.995789 109.266984 
L 147.023617 225.199316 
L 147.079274 221.779312 
L 147.107102 226.909318 
L 147.112668 217.02029 
L 147.218415 100.745958 
L 147.162758 225.199316 
L 147.251808 156.323918 
L 147.329727 228.039658 
L 147.385384 225.778977 
L 147.413212 221.228633 
L 147.44104 226.909318 
L 147.496696 225.199316 
L 147.524524 228.039658 
L 147.61914 226.457182 
L 147.719322 221.779312 
L 147.691493 226.909318 
L 147.74715 225.199316 
L 147.774978 228.039658 
L 147.802806 225.199316 
L 147.830634 170.073492 
L 147.908553 226.68325 
L 147.914119 226.909318 
L 147.941947 225.199316 
L 148.05326 100.745958 
L 148.069956 173.36597 
L 148.108916 227.459996 
L 148.159007 120.408082 
L 148.164572 95.065274 
L 148.1924 221.779312 
L 148.242491 205.525599 
L 148.248057 221.779312 
L 148.275885 155.871782 
L 148.353804 211.565674 
L 148.415026 221.779312 
L 148.387198 137.119727 
L 148.426157 169.95756 
L 148.442854 92.224932 
L 148.49851 226.909318 
L 148.520773 222.805313 
L 148.526338 221.779312 
L 148.554167 87.215253 
L 148.643217 191.671686 
L 148.693307 226.909318 
L 148.743398 185.179475 
L 148.748964 175.174515 
L 148.826883 227.471589 
L 148.832448 228.039658 
L 148.860276 225.199316 
L 148.882539 225.199316 
L 148.993852 203.03175 
L 151.665356 203.03175 
L 151.754406 112.686988 
L 151.776668 113.127531 
L 151.793365 115.057804 
L 151.893547 126.309037 
L 151.960334 124.274425 
L 152.116172 112.107327 
L 152.004859 126.309037 
L 152.155131 116.420009 
L 152.227485 124.599035 
L 152.199656 114.368007 
L 152.299838 122.686152 
L 152.3221 124.958426 
L 152.422282 129.149379 
L 152.394454 121.758693 
L 152.433413 125.740969 
L 152.561423 114.368007 
L 152.566988 115.846144 
L 152.700563 126.888699 
L 152.706129 125.63663 
L 152.728392 120.628353 
L 152.784048 130.27972 
L 152.823007 124.048357 
L 152.839704 124.048357 
L 152.867532 130.27972 
L 152.923189 122.338355 
L 152.956582 127.908903 
L 153.090158 114.947669 
L 153.095723 116.767806 
L 153.117986 124.048357 
L 153.223733 122.91222 
L 153.312783 125.178697 
L 153.257127 114.947669 
L 153.340611 124.599035 
L 153.368439 122.338355 
L 153.390702 127.787174 
L 153.479752 131.439043 
L 153.424096 125.178697 
L 153.502015 128.70304 
L 153.535408 128.019039 
L 153.579933 131.653518 
L 153.591065 132.569383 
L 153.607762 126.082969 
L 153.702377 119.498013 
L 153.646721 130.859381 
L 153.730205 120.628353 
L 153.81369 126.888699 
L 153.785862 116.657671 
L 153.835953 120.97615 
L 153.952831 115.52733 
L 153.925003 122.338355 
L 153.958396 117.341671 
L 154.064143 117.208349 
L 154.091972 125.178697 
L 154.125365 128.140768 
L 154.258941 153.03144 
L 154.281203 150.295437 
L 154.286769 149.611436 
L 154.342425 153.582118 
L 154.38695 150.741776 
L 154.398081 150.741776 
L 154.509394 159.262802 
L 154.453738 145.061092 
L 154.531657 157.917987 
L 154.620707 156.42246 
L 154.56505 159.842464 
L 154.631838 157.790462 
L 154.676363 163.813146 
L 154.698626 154.283509 
L 154.704191 151.901099 
L 154.732019 158.712124 
L 154.804373 155.970324 
L 154.843332 160.422126 
L 154.860029 154.283509 
L 154.87116 150.191097 
L 154.898988 159.262802 
L 154.965776 155.523985 
L 154.993604 158.364327 
L 155.010301 162.103144 
L 155.038129 153.03144 
L 155.099351 157.807852 
L 155.171705 164.387011 
L 155.232926 167.23315 
L 155.205098 158.712124 
L 155.283017 164.95508 
L 155.316411 166.10281 
L 155.344239 163.262468 
L 155.377633 163.471146 
L 155.399895 162.103144 
L 155.466683 164.16674 
L 155.539036 166.10281 
L 155.511208 160.422126 
L 155.550168 162.462535 
L 155.566864 157.002122 
L 155.650349 164.392808 
L 155.672611 158.480259 
L 155.678177 157.002122 
L 155.706005 163.262468 
L 155.767227 161.430737 
L 155.872974 169.493831 
L 155.939762 167.001285 
L 156.012115 167.23315 
L 156.023246 164.045011 
L 156.039943 159.262802 
L 156.123428 164.943487 
L 156.140125 161.882873 
L 156.206912 159.262802 
L 156.229175 165.639081 
L 156.290397 167.23315 
L 156.318225 162.682806 
L 156.340487 166.323081 
L 156.429538 170.073492 
L 156.373881 164.392808 
L 156.440669 166.212946 
L 156.513022 158.132462 
L 156.563113 162.23067 
L 156.624335 161.552466 
L 156.641032 164.960876 
L 156.763476 170.653154 
L 156.679991 157.581784 
L 156.769041 168.833016 
L 156.874788 160.422126 
L 156.897051 163.134942 
L 156.902616 163.813146 
L 156.958273 157.581784 
L 156.986101 155.29212 
L 156.997232 160.752533 
L 157.097414 170.073492 
L 157.114111 166.665082 
L 157.125242 164.392808 
L 157.203161 169.279356 
L 157.230989 170.073492 
L 157.342301 143.485282 
L 157.397958 143.485282 
L 157.487008 164.943487 
L 157.50927 160.398939 
L 157.598321 153.03144 
L 157.631714 156.43985 
L 157.681805 160.972804 
L 157.731896 155.860188 
L 157.737461 155.29212 
L 157.787552 160.526465 
L 157.793118 161.552466 
L 157.871037 156.654325 
L 157.960087 150.191097 
L 157.90443 158.712124 
L 157.976784 155.63412 
L 157.987915 159.262802 
L 158.043571 153.03144 
L 158.082531 155.750053 
L 158.099228 154.741441 
L 158.12149 158.822259 
L 158.238368 163.813146 
L 158.182712 150.741776 
L 158.243934 161.882873 
L 158.294025 151.321438 
L 158.366378 157.22819 
L 158.460994 159.262802 
L 158.405337 155.871782 
L 158.466559 157.790462 
L 158.488822 151.901099 
L 158.544478 159.842464 
L 158.583438 155.981917 
L 158.600135 158.712124 
L 158.64466 148.579638 
L 158.655791 143.35109 
L 158.711447 157.002122 
L 158.744841 153.135779 
L 158.794932 159.842464 
L 158.850588 153.582118 
L 158.878416 151.321438 
L 158.900679 158.138259 
L 158.906244 159.842464 
L 158.989729 153.03144 
L 159.045385 147.350755 
L 159.078779 157.222393 
L 159.101042 160.422126 
L 159.123304 149.037571 
L 159.212354 145.061092 
L 159.156698 161.552466 
L 159.234617 148.237638 
L 159.268011 157.002122 
L 159.357061 152.22571 
L 159.379323 139.960069 
L 159.43498 154.16178 
L 159.468373 151.43737 
L 159.546292 149.611436 
L 159.601949 157.002122 
L 159.629777 143.930752 
L 159.724393 151.443167 
L 159.768918 159.842464 
L 159.796746 147.901434 
L 159.83014 149.5013 
L 159.908058 160.972804 
L 159.88023 148.481096 
L 159.947018 151.883709 
L 160.019371 143.35109 
L 160.063896 148.249231 
L 160.158512 154.16178 
L 160.164078 150.069368 
L 160.18634 133.699723 
L 160.286521 141.664274 
L 160.353309 128.019039 
L 160.381137 144.510413 
L 160.397834 140.754206 
L 160.464622 122.338355 
L 160.514712 137.11393 
L 160.520278 138.250067 
L 160.598197 133.137452 
L 160.603763 132.569383 
L 160.626025 139.386204 
L 160.631591 141.090409 
L 160.659419 134.830064 
L 160.737338 140.058612 
L 160.742903 140.510748 
L 160.7596 134.719928 
L 160.770732 130.859381 
L 160.843085 142.916344 
L 160.854216 145.640753 
L 160.882044 127.439377 
L 160.88761 127.671242 
L 160.926569 133.36352 
L 160.965529 144.510413 
L 161.004488 125.520697 
L 161.021185 123.468695 
L 161.060144 131.085449 
L 161.076841 138.250067 
L 161.132498 122.918017 
L 161.15476 125.19029 
L 161.271639 135.409725 
L 161.24381 124.048357 
L 161.288335 127.9147 
L 161.355123 122.918017 
L 161.377386 135.183657 
L 161.382951 138.250067 
L 161.46087 123.022356 
L 161.466436 121.208015 
L 161.494264 127.439377 
L 161.566617 124.732357 
L 161.605577 118.367673 
L 161.616708 125.868494 
L 161.633405 137.119727 
L 161.711324 118.245944 
L 161.716889 114.947669 
L 161.772546 131.439043 
L 161.805939 126.76697 
L 161.828202 128.598701 
L 161.844899 121.76449 
L 161.85603 117.208349 
L 161.928383 129.607312 
L 161.939515 133.699723 
L 161.989605 113.933261 
L 161.995171 110.976986 
L 162.050827 132.569383 
L 162.067524 131.195585 
L 162.106484 118.918351 
L 162.134312 114.368007 
L 162.151009 126.993038 
L 162.16214 135.409725 
L 162.240059 113.365192 
L 162.245624 112.686988 
L 162.290149 119.266148 
L 162.301281 121.758693 
L 162.329109 110.397325 
L 162.362503 111.081325 
L 162.384765 113.817328 
L 162.401462 105.626709 
L 162.412593 100.166296 
L 162.46825 123.468695 
L 162.501644 109.724917 
L 162.607391 124.048357 
L 162.618522 117.683672 
L 162.635219 108.136644 
L 162.663047 122.338355 
L 162.740966 108.478645 
L 162.746531 108.136644 
L 162.757663 112.449327 
L 162.830016 122.338355 
L 162.852278 106.872982 
L 162.885672 98.456295 
L 162.963591 106.426642 
L 163.074904 140.453796 
L 168.083974 140.453796 
L 168.200852 225.199316 
L 168.256508 135.960404 
L 168.306599 215.762424 
L 168.339993 225.199316 
L 168.401215 200.986848 
L 168.423477 133.699723 
L 168.479134 224.619654 
L 168.501396 221.906838 
L 168.53479 225.199316 
L 168.562618 207.577601 
L 168.590446 123.468695 
L 168.6628 223.611043 
L 168.673931 225.199316 
L 168.701759 222.358974 
L 168.729587 129.149379 
L 168.807506 224.405179 
L 168.813072 225.199316 
L 168.824203 215.878356 
L 168.868728 123.468695 
L 168.896556 225.199316 
L 168.924384 221.228633 
L 168.952212 221.779312 
L 168.980041 106.977321 
L 169.035697 225.199316 
L 169.057959 222.02277 
L 169.063525 221.228633 
L 169.091353 97.905616 
L 169.14701 225.199316 
L 169.174838 219.518632 
L 169.202666 107.556983 
L 169.230494 224.619654 
L 169.297282 161.998805 
L 169.341807 225.199316 
L 169.386332 159.604803 
L 169.397463 120.048691 
L 169.475382 225.773181 
L 169.480948 226.909318 
L 169.508776 221.779312 
L 169.536604 225.199316 
L 169.564432 93.934934 
L 169.642351 227.00786 
L 169.647917 227.459996 
L 169.692442 223.147314 
L 169.703573 221.779312 
L 169.731401 106.426642 
L 169.820451 189.28348 
L 169.89837 225.778977 
L 169.870542 99.615618 
L 169.93733 199.63044 
L 169.954026 167.23315 
L 170.009683 228.039658 
L 170.031945 225.767384 
L 170.043077 215.762424 
L 170.148824 149.611436 
L 170.093167 224.619654 
L 170.165521 192.912162 
L 170.260136 226.909318 
L 170.20448 100.745958 
L 170.282399 222.805313 
L 170.343621 221.228633 
L 170.315793 226.909318 
L 170.365883 225.773181 
L 170.427105 226.909318 
L 170.399277 221.779312 
L 170.449368 222.36477 
L 170.482762 226.909318 
L 170.516155 196.56403 
L 170.538418 97.905616 
L 170.566246 221.228633 
L 170.621902 206.447261 
L 170.677559 228.039658 
L 170.710953 200.41878 
L 170.733215 101.296637 
L 170.811134 227.00786 
L 170.8167 227.459996 
L 170.883487 224.637044 
L 170.900184 221.228633 
L 170.95584 225.778977 
L 170.9948 223.147314 
L 171.039325 225.778977 
L 171.08385 221.101108 
L 171.106113 215.87256 
L 171.150638 194.506231 
L 171.217425 212.35981 
L 171.289778 225.778977 
L 171.351 224.851519 
L 171.373263 225.778977 
L 171.395525 222.579245 
L 171.484576 221.228633 
L 171.456747 225.778977 
L 171.495707 222.816906 
L 171.540232 225.778977 
L 171.562494 217.594155 
L 171.595888 167.23315 
L 171.623716 230.300338 
L 171.640413 228.94393 
L 171.651545 228.039658 
L 171.679373 90.51493 
L 171.762857 221.779312 
L 171.818514 225.778977 
L 171.846342 221.779312 
L 171.929826 105.296302 
L 171.901998 226.909318 
L 171.96322 203.821394 
L 172.09123 225.199316 
L 172.096795 225.199316 
L 172.196977 136.882066 
L 172.208108 87.215253 
L 172.308289 132.673722 
L 172.430733 184.275203 
L 172.464127 178.264111 
L 172.514218 197.926235 
L 172.614399 193.381687 
L 172.653359 189.405208 
L 172.675621 196.662572 
L 172.681187 198.476913 
L 172.736843 183.144863 
L 172.770237 191.671686 
L 172.875984 179.724859 
L 172.909378 182.912998 
L 172.93164 188.825547 
L 172.981731 174.612243 
L 172.987297 174.044175 
L 173.009559 180.860996 
L 173.015125 182.565201 
L 173.042953 176.333838 
L 173.104175 177.232314 
L 173.126437 171.783494 
L 173.182094 178.014857 
L 173.226619 174.044175 
L 173.23775 174.044175 
L 173.265578 184.854864 
L 173.321235 171.203832 
L 173.354628 177.806179 
L 173.376891 179.17418 
L 173.410285 174.507904 
L 173.432547 174.044175 
L 173.449244 175.74838 
L 173.460375 176.884517 
L 173.488204 171.783494 
L 173.54386 174.623836 
L 173.571688 168.943152 
L 173.621779 180.646521 
L 173.794313 195.993498 
L 192.628416 195.993498 
L 192.633982 146.771094 
L 192.66181 227.459996 
L 192.734163 224.179111 
L 192.773123 226.909318 
L 192.778688 220.312768 
L 192.884435 105.296302 
L 192.856607 225.778977 
L 192.901132 177.23811 
L 192.995748 225.199316 
L 192.96792 173.493496 
L 193.012445 183.933202 
L 193.023576 156.42246 
L 193.079233 221.779312 
L 193.112626 193.364298 
L 193.190545 225.199316 
L 193.162717 140.510748 
L 193.212808 192.019483 
L 193.27403 163.262468 
L 193.246202 221.228633 
L 193.296292 212.811946 
L 193.357514 225.199316 
L 193.329686 91.64527 
L 193.374211 166.212946 
L 193.385342 126.888699 
L 193.413171 221.228633 
L 193.463261 212.580082 
L 193.524483 225.199316 
L 193.496655 176.884517 
L 193.574574 218.370901 
L 193.607968 225.778977 
L 193.613533 198.042167 
L 193.635796 87.215253 
L 193.741543 112.785531 
L 193.802765 121.208015 
L 193.774937 112.107327 
L 193.914078 118.918351 
L 193.941906 114.368007 
L 193.969734 124.048357 
L 194.003128 122.442694 
L 194.108875 132.569383 
L 194.131137 126.656834 
L 194.220187 117.788011 
L 194.164531 130.27972 
L 194.259147 120.738489 
L 194.359328 131.439043 
L 194.303672 120.628353 
L 194.398288 127.55531 
L 194.498469 116.078009 
L 194.520732 121.990558 
L 194.554125 121.208015 
L 194.659872 130.27972 
L 194.665438 130.27972 
L 194.776751 116.078009 
L 194.810145 118.69808 
L 194.915892 130.27972 
L 194.860235 117.788011 
L 194.965982 126.210495 
L 195.055032 116.657671 
L 195.166345 117.788011 
L 195.277658 135.960404 
L 195.29992 130.071041 
L 195.361142 122.338355 
L 195.411233 127.5727 
L 195.472455 128.598701 
L 195.444627 120.048691 
L 195.494717 122.686152 
L 195.555939 125.178697 
L 195.611596 119.498013 
L 195.667252 126.309037 
L 195.728474 120.866014 
L 195.778565 117.208349 
L 195.795262 122.668762 
L 195.806393 126.309037 
L 195.901009 122.686152 
L 195.917706 122.338355 
L 195.928837 123.926628 
L 196.00119 131.439043 
L 196.062412 128.355243 
L 196.084675 125.178697 
L 196.112503 129.729041 
L 196.140331 129.729041 
L 196.279472 153.582118 
L 196.3073 149.611436 
L 196.335128 158.712124 
L 196.351825 158.712124 
L 196.362956 158.712124 
L 196.474269 149.611436 
L 196.496531 155.523985 
L 196.502097 157.002122 
L 196.57445 149.147706 
L 196.641238 145.061092 
L 196.61341 154.16178 
L 196.6635 153.245914 
L 196.696894 156.42246 
L 196.763682 150.759166 
L 196.808207 144.510413 
L 196.852732 153.929915 
L 196.863863 156.42246 
L 196.91952 144.510413 
L 196.925085 145.414685 
L 197.030832 154.741441 
L 196.975176 143.35109 
L 197.05866 150.191097 
L 197.142145 143.930752 
L 197.114317 151.901099 
L 197.164407 150.30703 
L 197.197801 155.871782 
L 197.253458 146.191432 
L 197.264589 147.791298 
L 197.392598 155.29212 
L 197.309114 143.930752 
L 197.40373 152.335846 
L 197.476083 145.061092 
L 197.509477 152.683643 
L 197.531739 158.132462 
L 197.58183 145.861025 
L 197.587396 143.930752 
L 197.615224 153.582118 
L 197.67088 151.321438 
L 197.698708 159.262802 
L 197.754365 149.031774 
L 197.787758 154.834187 
L 197.810021 148.481096 
L 197.882374 158.35853 
L 197.893505 159.262802 
L 197.910202 152.793778 
L 197.921334 148.481096 
L 197.949162 158.712124 
L 197.999252 158.138259 
L 198.060474 160.972804 
L 198.082737 152.787982 
L 198.088303 150.741776 
L 198.166221 159.610599 
L 198.19405 160.972804 
L 198.199615 146.945572 
L 198.221878 146.945572 
L 210.828037 146.945572 
L 210.861431 160.422126 
L 210.933784 145.298753 
L 211.0284 130.859381 
L 211.000572 150.741776 
L 211.089622 139.716611 
L 211.223197 156.42246 
L 211.234328 154.613916 
L 211.390166 132.569383 
L 211.306682 154.741441 
L 211.434691 138.928271 
L 211.529307 149.611436 
L 211.573832 148.921638 
L 211.64062 160.972804 
L 211.612791 145.061092 
L 211.685145 151.443167 
L 211.835417 131.439043 
L 211.846548 132.795451 
L 212.058042 156.42246 
L 212.08587 151.321438 
L 212.169355 135.409725 
L 212.208314 143.814819 
L 212.252839 133.699723 
L 212.30293 146.550822 
L 212.336324 155.871782 
L 212.430939 151.199709 
L 212.475465 151.901099 
L 212.586777 133.120062 
L 212.753746 151.901099 
L 212.781574 151.321438 
L 212.920715 129.149379 
L 212.970806 137.687796 
L 213.087684 151.321438 
L 213.121078 145.965364 
L 213.143341 145.061092 
L 213.1823 147.455094 
L 213.226825 150.191097 
L 213.232391 146.208822 
L 213.254653 130.27972 
L 213.349269 138.012406 
L 213.505107 153.03144 
L 213.521804 149.953436 
L 213.616419 127.439377 
L 213.560763 151.321438 
L 213.716601 133.711317 
L 213.839045 144.510413 
L 213.783388 128.019039 
L 213.850176 142.458411 
L 214.033842 117.208349 
L 213.894701 145.061092 
L 214.050539 125.051171 
L 214.145155 144.510413 
L 214.184114 137.913864 
L 214.200811 136.540065 
L 214.217508 142.678682 
L 214.228639 146.771094 
L 214.27873 127.346632 
L 214.339952 121.208015 
L 214.312124 131.989721 
L 214.406739 121.770286 
L 214.423436 120.048691 
L 214.451264 127.439377 
L 214.534749 141.090409 
L 214.568143 131.085449 
L 214.618233 135.409725 
L 214.623799 131.543382 
L 214.701718 113.237667 
L 214.740677 123.706356 
L 214.840859 139.380408 
L 214.863121 131.195585 
L 214.924343 122.918017 
L 214.896515 133.120062 
L 214.974434 130.528974 
L 214.98 131.439043 
L 214.996696 120.18781 
L 215.007828 112.686988 
L 215.091312 130.27972 
L 215.146969 108.136644 
L 215.191494 130.63911 
L 215.230453 136.540065 
L 215.269412 123.022356 
L 215.341766 108.136644 
L 215.313938 130.27972 
L 215.402988 111.197258 
L 215.536563 132.569383 
L 215.564391 130.27972 
L 215.73136 103.5863 
L 215.748057 111.75953 
L 215.787016 126.888699 
L 215.864935 115.069398 
L 215.898329 125.178697 
L 215.981813 107.556983 
L 216.009642 123.468695 
L 216.065298 105.846981 
L 216.115389 120.622556 
L 216.148782 123.468695 
L 216.165479 111.869665 
L 216.287923 95.065274 
L 216.260095 120.048691 
L 216.293489 98.473684 
L 216.460458 134.783111 
L 417.48 134.783111 
L 417.48 134.783111 
" style="fill:none;stroke:#e41a1c;stroke-linecap:square;stroke-width:2;"/>
   </g>
   <g id="line2d_14">
    <path clip-path="url(#p12ca70ce04)" d="M 65.7932 230.88 
L 66.900761 230.88 
L 67.012074 176.287396 
L 67.401668 176.287396 
L 67.512981 87.215253 
L 67.902575 87.215253 
L 68.013888 189.217223 
L 68.459138 189.217223 
L 68.570451 225.13341 
L 69.516609 225.13341 
L 69.627921 229.443353 
L 70.073172 229.443353 
L 70.184485 230.88 
L 70.574079 230.88 
L 70.685392 229.443353 
L 82.874128 229.443353 
L 82.985441 223.696763 
L 83.430692 223.696763 
L 83.542004 219.38682 
L 83.987255 219.38682 
L 84.098568 223.696763 
L 85.545632 223.696763 
L 85.656945 200.710403 
L 86.102196 200.710403 
L 86.213508 127.441382 
L 86.603103 127.441382 
L 86.714415 98.708433 
L 87.215322 98.708433 
L 87.326635 213.64023 
L 87.660573 213.64023 
L 87.771886 223.696763 
L 88.217136 223.696763 
L 88.328449 228.006705 
L 88.718043 228.006705 
L 88.829356 229.443353 
L 89.274607 229.443353 
L 89.385919 225.13341 
L 89.83117 225.13341 
L 89.942483 223.696763 
L 90.88864 223.696763 
L 90.999953 222.260115 
L 93.003581 222.260115 
L 93.114894 220.823468 
L 94.617615 220.823468 
L 94.728927 219.38682 
L 96.732555 219.38682 
L 96.843868 217.950173 
L 98.402245 217.950173 
L 98.513558 216.513525 
L 99.960623 216.513525 
L 100.071935 215.076878 
L 101.018093 215.076878 
L 101.129406 213.64023 
L 101.630313 213.64023 
L 101.741625 212.203583 
L 102.632127 212.203583 
L 102.743439 210.766935 
L 103.18869 210.766935 
L 103.300003 209.330288 
L 104.24616 209.330288 
L 104.357473 207.893641 
L 105.303631 207.893641 
L 105.414943 206.456993 
L 105.860194 206.456993 
L 105.971506 203.583698 
L 106.361101 203.583698 
L 106.472413 202.147051 
L 106.917664 202.147051 
L 107.028977 199.273756 
L 107.474227 199.273756 
L 107.58554 194.963813 
L 108.030791 194.963813 
L 108.142103 190.653871 
L 108.587354 190.653871 
L 108.698667 186.343929 
L 109.032605 186.343929 
L 109.143917 180.597339 
L 109.644824 180.597339 
L 109.756137 173.414101 
L 110.145731 173.414101 
L 110.257044 164.794217 
L 110.646638 164.794217 
L 110.757951 153.301037 
L 111.203202 153.301037 
L 111.314514 140.37121 
L 111.759765 140.37121 
L 111.871078 121.694793 
L 112.260672 121.694793 
L 112.371985 98.708433 
L 112.817235 98.708433 
L 112.928548 87.215253 
L 117.60368 87.215253 
L 117.714993 203.583698 
L 118.160243 203.583698 
L 118.271556 223.696763 
L 118.716807 223.696763 
L 118.828119 228.006705 
L 119.217714 228.006705 
L 119.329026 87.215253 
L 124.004158 87.215253 
L 124.115471 183.470634 
L 124.616378 183.470634 
L 124.727691 219.38682 
L 125.061629 219.38682 
L 125.172941 212.203583 
L 125.673848 212.203583 
L 125.785161 216.513525 
L 126.119099 216.513525 
L 126.230412 219.38682 
L 126.675662 219.38682 
L 126.786975 220.823468 
L 130.460293 220.823468 
L 130.571606 219.38682 
L 130.9612 219.38682 
L 131.072512 217.950173 
L 131.517763 217.950173 
L 131.629076 216.513525 
L 132.575233 216.513525 
L 132.686546 215.076878 
L 133.131797 215.076878 
L 133.243109 216.513525 
L 134.133611 216.513525 
L 134.244923 215.076878 
L 135.246737 215.076878 
L 135.35805 213.64023 
L 136.805115 213.64023 
L 136.916427 212.203583 
L 137.918241 212.203583 
L 138.029554 210.766935 
L 138.975712 210.766935 
L 139.087024 209.330288 
L 139.532275 209.330288 
L 139.643588 207.893641 
L 140.534089 207.893641 
L 140.645402 206.456993 
L 141.090652 206.456993 
L 141.201965 203.583698 
L 141.647216 203.583698 
L 141.758528 202.147051 
L 142.315092 202.147051 
L 142.426404 200.710403 
L 142.704686 200.710403 
L 142.815999 199.273756 
L 143.261249 199.273756 
L 143.372562 196.400461 
L 143.762156 196.400461 
L 143.873469 192.090518 
L 144.374376 192.090518 
L 144.485689 186.343929 
L 144.819627 186.343929 
L 144.930939 182.033986 
L 145.431846 182.033986 
L 145.543159 174.850749 
L 145.98841 174.850749 
L 146.099722 167.667511 
L 146.489317 167.667511 
L 146.600629 156.174332 
L 146.990224 156.174332 
L 147.101536 143.244505 
L 147.546787 143.244505 
L 147.6581 126.004735 
L 148.047694 126.004735 
L 148.159007 103.018375 
L 148.604257 103.018375 
L 148.71557 87.215253 
L 153.446358 87.215253 
L 153.557671 192.090518 
L 153.947265 192.090518 
L 154.058578 222.260115 
L 154.503829 222.260115 
L 154.615141 226.570058 
L 155.116048 226.570058 
L 155.227361 87.215253 
L 159.79118 87.215253 
L 159.902493 164.794217 
L 160.347743 164.794217 
L 160.459056 220.823468 
L 160.84865 220.823468 
L 160.959963 212.203583 
L 161.405214 212.203583 
L 161.516526 215.076878 
L 161.961777 215.076878 
L 162.07309 219.38682 
L 162.462684 219.38682 
L 162.573997 220.823468 
L 165.746408 220.823468 
L 165.85772 219.38682 
L 166.191658 219.38682 
L 166.302971 216.513525 
L 166.803878 216.513525 
L 166.915191 212.203583 
L 167.304785 212.203583 
L 167.416098 207.893641 
L 167.861348 207.893641 
L 167.972661 205.020346 
L 168.918819 205.020346 
L 169.030131 206.456993 
L 169.419726 206.456993 
L 169.531038 205.020346 
L 171.033759 205.020346 
L 171.145072 203.583698 
L 172.09123 203.583698 
L 172.202542 202.147051 
L 173.705263 202.147051 
L 173.816576 200.710403 
L 175.319297 200.710403 
L 175.43061 197.837108 
L 176.376767 197.837108 
L 176.48808 196.400461 
L 176.877674 196.400461 
L 176.988987 194.963813 
L 177.990801 194.963813 
L 178.102114 193.527166 
L 178.491708 193.527166 
L 178.603021 190.653871 
L 179.103928 190.653871 
L 179.21524 186.343929 
L 179.549178 186.343929 
L 179.660491 183.470634 
L 180.161398 183.470634 
L 180.272711 179.160691 
L 180.662305 179.160691 
L 180.773617 171.977454 
L 181.274524 171.977454 
L 181.385837 166.230864 
L 181.719775 166.230864 
L 181.831088 157.610979 
L 182.276338 157.610979 
L 182.387651 147.554447 
L 182.832902 147.554447 
L 182.944214 134.62462 
L 183.333809 134.62462 
L 183.445121 120.258145 
L 183.890372 120.258145 
L 184.001685 97.271786 
L 184.446935 97.271786 
L 184.558248 87.215253 
L 189.23338 87.215253 
L 189.344693 134.62462 
L 189.734287 134.62462 
L 189.8456 225.13341 
L 190.235194 225.13341 
L 190.346507 228.006705 
L 190.847414 228.006705 
L 190.958726 87.215253 
L 195.578202 87.215253 
L 195.689515 140.37121 
L 196.190422 140.37121 
L 196.301734 220.823468 
L 196.691329 220.823468 
L 196.802641 212.203583 
L 197.247892 212.203583 
L 197.359205 215.076878 
L 197.860112 215.076878 
L 197.971424 219.38682 
L 198.249706 219.38682 
L 198.361019 220.823468 
L 201.53343 220.823468 
L 201.644742 219.38682 
L 202.034337 219.38682 
L 202.145649 212.203583 
L 202.5909 212.203583 
L 202.702213 199.273756 
L 203.091807 199.273756 
L 203.20312 192.090518 
L 203.64837 192.090518 
L 203.759683 190.653871 
L 204.149277 190.653871 
L 204.26059 192.090518 
L 204.705841 192.090518 
L 204.817153 190.653871 
L 205.763311 190.653871 
L 205.874623 192.090518 
L 206.264218 192.090518 
L 206.37553 190.653871 
L 207.878251 190.653871 
L 207.989564 189.217223 
L 210.048848 189.217223 
L 210.160161 187.780576 
L 211.106319 187.780576 
L 211.217631 186.343929 
L 212.163789 186.343929 
L 212.275102 184.907281 
L 213.221259 184.907281 
L 213.332572 183.470634 
L 213.833479 183.470634 
L 213.944792 182.033986 
L 214.334386 182.033986 
L 214.445699 179.160691 
L 214.890949 179.160691 
L 215.002262 176.287396 
L 215.391856 176.287396 
L 215.503169 171.977454 
L 215.94842 171.977454 
L 216.059732 169.104159 
L 216.449327 169.104159 
L 216.560639 163.357569 
L 217.00589 163.357569 
L 217.117203 156.174332 
L 217.506797 156.174332 
L 217.61811 148.991094 
L 218.06336 148.991094 
L 218.174673 138.934562 
L 218.619924 138.934562 
L 218.731236 127.441382 
L 219.120831 127.441382 
L 219.232143 113.074908 
L 219.621738 113.074908 
L 219.73305 92.961843 
L 220.34527 92.961843 
L 220.456583 87.215253 
L 225.521309 87.215253 
L 225.632622 217.950173 
L 226.077872 217.950173 
L 226.189185 226.570058 
L 226.578779 226.570058 
L 226.690092 150.427742 
L 227.190999 150.427742 
L 227.302312 87.215253 
L 231.977443 87.215253 
L 232.088756 212.203583 
L 232.47835 212.203583 
L 232.589663 213.64023 
L 233.535821 213.64023 
L 233.647133 217.950173 
L 234.092384 217.950173 
L 234.203697 219.38682 
L 234.593291 219.38682 
L 234.704604 222.260115 
L 235.706418 222.260115 
L 235.81773 220.823468 
L 237.264795 220.823468 
L 237.376108 217.950173 
L 237.821358 217.950173 
L 237.932671 210.766935 
L 238.322265 210.766935 
L 238.433578 197.837108 
L 238.878829 197.837108 
L 238.990141 187.780576 
L 239.491048 187.780576 
L 239.602361 184.907281 
L 239.991955 184.907281 
L 240.103268 186.343929 
L 242.106896 186.343929 
L 242.218209 187.780576 
L 242.663459 187.780576 
L 242.774772 186.343929 
L 245.83587 186.343929 
L 245.947183 184.907281 
L 247.449904 184.907281 
L 247.561217 183.470634 
L 248.507374 183.470634 
L 248.618687 182.033986 
L 249.564845 182.033986 
L 249.676157 180.597339 
L 250.121408 180.597339 
L 250.232721 179.160691 
L 250.622315 179.160691 
L 250.733628 176.287396 
L 251.234535 176.287396 
L 251.345847 173.414101 
L 251.735442 173.414101 
L 251.846754 169.104159 
L 252.292005 169.104159 
L 252.403318 164.794217 
L 252.792912 164.794217 
L 252.904225 157.610979 
L 253.349475 157.610979 
L 253.460788 151.864389 
L 253.850382 151.864389 
L 253.961695 143.244505 
L 254.406946 143.244505 
L 254.518258 131.751325 
L 254.907853 131.751325 
L 255.019165 117.38485 
L 255.464416 117.38485 
L 255.575728 98.708433 
L 256.076635 98.708433 
L 256.187948 87.215253 
L 261.363987 87.215253 
L 261.4753 192.090518 
L 261.864894 192.090518 
L 261.976207 226.570058 
L 262.421457 226.570058 
L 262.53277 228.006705 
L 262.978021 228.006705 
L 263.089333 87.215253 
L 267.764465 87.215253 
L 267.875778 187.780576 
L 268.321029 187.780576 
L 268.432341 219.38682 
L 268.821936 219.38682 
L 268.933248 213.64023 
L 269.378499 213.64023 
L 269.489812 216.513525 
L 269.879406 216.513525 
L 269.990719 220.823468 
L 270.936876 220.823468 
L 271.048189 222.260115 
L 272.050003 222.260115 
L 272.161316 220.823468 
L 273.107473 220.823468 
L 273.218786 219.38682 
L 273.60838 219.38682 
L 273.719693 213.64023 
L 274.109287 213.64023 
L 274.2206 200.710403 
L 274.665851 200.710403 
L 274.777163 190.653871 
L 275.222414 190.653871 
L 275.333727 186.343929 
L 276.836448 186.343929 
L 276.94776 187.780576 
L 277.893918 187.780576 
L 278.005231 186.343929 
L 278.450481 186.343929 
L 278.561794 187.780576 
L 279.507952 187.780576 
L 279.619264 186.343929 
L 281.066329 186.343929 
L 281.177641 184.907281 
L 281.734205 184.907281 
L 281.845517 186.343929 
L 282.736019 186.343929 
L 282.847331 184.907281 
L 283.793489 184.907281 
L 283.904802 183.470634 
L 284.850959 183.470634 
L 284.962272 182.033986 
L 285.90843 182.033986 
L 286.019742 180.597339 
L 286.464993 180.597339 
L 286.576306 177.724044 
L 286.9659 177.724044 
L 287.077213 174.850749 
L 287.522463 174.850749 
L 287.633776 170.540806 
L 288.079027 170.540806 
L 288.190339 166.230864 
L 288.579934 166.230864 
L 288.691246 160.484274 
L 289.136497 160.484274 
L 289.24781 153.301037 
L 289.637404 153.301037 
L 289.748717 146.117799 
L 290.193967 146.117799 
L 290.30528 136.061267 
L 290.694874 136.061267 
L 290.806187 123.13144 
L 291.251438 123.13144 
L 291.36275 105.89167 
L 291.808001 105.89167 
L 291.919314 87.215253 
L 297.151009 87.215253 
L 297.262322 144.681152 
L 297.707572 144.681152 
L 297.818885 226.570058 
L 298.319792 226.570058 
L 298.431105 228.006705 
L 298.765043 228.006705 
L 298.876355 87.215253 
L 303.495831 87.215253 
L 303.607144 140.37121 
L 304.108051 140.37121 
L 304.219363 95.835138 
L 304.664614 95.835138 
L 304.775927 87.215253 
L 305.165521 87.215253 
L 305.276833 192.090518 
L 306.111678 192.090518 
L 306.228557 212.203583 
L 306.779554 212.203583 
L 306.890867 220.823468 
L 307.280461 220.823468 
L 307.391774 226.570058 
L 307.837025 226.570058 
L 307.948337 228.006705 
L 308.393588 228.006705 
L 308.504901 229.443353 
L 313.180033 229.443353 
L 313.291345 220.823468 
L 313.736596 220.823468 
L 313.847909 120.258145 
L 314.237503 120.258145 
L 314.348816 87.215253 
L 314.905379 87.215253 
L 315.016692 197.837108 
L 315.294973 197.837108 
L 315.406286 219.38682 
L 315.79588 219.38682 
L 315.907193 222.260115 
L 316.352444 222.260115 
L 316.463756 229.443353 
L 317.46557 229.443353 
L 317.576883 228.006705 
L 318.022134 228.006705 
L 318.133446 226.570058 
L 332.938031 226.570058 
L 333.049343 225.13341 
L 333.995501 225.13341 
L 334.106814 223.696763 
L 334.552064 223.696763 
L 334.663377 220.823468 
L 335.108628 220.823468 
L 335.21994 219.38682 
L 335.609535 219.38682 
L 335.720847 216.513525 
L 336.166098 216.513525 
L 336.277411 213.64023 
L 336.667005 213.64023 
L 336.778318 212.203583 
L 337.223568 212.203583 
L 337.334881 210.766935 
L 337.724475 210.766935 
L 337.835788 209.330288 
L 338.281039 209.330288 
L 338.392351 207.893641 
L 340.451636 207.893641 
L 340.562948 209.330288 
L 341.008199 209.330288 
L 341.119512 207.893641 
L 342.010013 207.893641 
L 342.121326 209.330288 
L 342.566576 209.330288 
L 342.677889 207.893641 
L 348.410491 207.893641 
L 348.521804 209.330288 
L 348.967055 209.330288 
L 349.078367 207.893641 
L 350.024525 207.893641 
L 350.135838 209.330288 
L 351.137652 209.330288 
L 351.248964 207.893641 
L 351.638559 207.893641 
L 351.749871 209.330288 
L 356.981566 209.330288 
L 357.092879 207.893641 
L 357.53813 207.893641 
L 357.649442 209.330288 
L 362.324574 209.330288 
L 362.435887 207.893641 
L 363.382045 207.893641 
L 363.493357 209.330288 
L 363.938608 209.330288 
L 364.049921 207.893641 
L 364.439515 207.893641 
L 364.550828 209.330288 
L 364.996078 209.330288 
L 365.107391 207.893641 
L 371.396557 207.893641 
L 371.507869 206.456993 
L 371.95312 206.456993 
L 372.064433 207.893641 
L 372.509683 207.893641 
L 372.620996 206.456993 
L 374.068061 206.456993 
L 374.179373 205.020346 
L 375.682094 205.020346 
L 375.793407 203.583698 
L 377.296128 203.583698 
L 377.407441 202.147051 
L 378.353598 202.147051 
L 378.464911 200.710403 
L 379.411069 200.710403 
L 379.522381 199.273756 
L 380.468539 199.273756 
L 380.579851 197.837108 
L 381.581665 197.837108 
L 381.692978 196.400461 
L 382.082572 196.400461 
L 382.193885 194.963813 
L 382.583479 194.963813 
L 382.694792 193.527166 
L 383.696606 193.527166 
L 383.807919 190.653871 
L 384.197513 190.653871 
L 384.308826 189.217223 
L 385.254983 189.217223 
L 385.366296 186.343929 
L 385.811547 186.343929 
L 385.922859 184.907281 
L 386.36811 184.907281 
L 386.479423 183.470634 
L 386.869017 183.470634 
L 386.98033 180.597339 
L 387.481237 180.597339 
L 387.592549 179.160691 
L 387.926487 179.160691 
L 388.0378 176.287396 
L 388.483051 176.287396 
L 388.594363 173.414101 
L 389.039614 173.414101 
L 389.150927 170.540806 
L 389.596177 170.540806 
L 389.70749 166.230864 
L 390.152741 166.230864 
L 390.264053 161.920922 
L 390.597991 161.920922 
L 390.709304 159.047627 
L 391.210211 159.047627 
L 391.321524 153.301037 
L 391.711118 153.301037 
L 391.822431 147.554447 
L 392.212025 147.554447 
L 392.323338 140.37121 
L 392.824245 140.37121 
L 392.935557 131.751325 
L 393.325152 131.751325 
L 393.436464 123.13144 
L 393.826059 123.13144 
L 393.937371 113.074908 
L 394.326966 113.074908 
L 394.438278 100.145081 
L 394.883529 100.145081 
L 394.994842 87.215253 
L 399.224723 87.215253 
L 399.336036 101.581728 
L 399.72563 101.581728 
L 399.836943 217.950173 
L 400.282193 217.950173 
L 400.393506 226.570058 
L 400.7831 226.570058 
L 400.894413 216.513525 
L 401.339664 216.513525 
L 401.450976 207.893641 
L 401.896227 207.893641 
L 402.00754 202.147051 
L 402.397134 202.147051 
L 402.508447 199.273756 
L 402.898041 199.273756 
L 403.009354 197.837108 
L 403.454604 197.837108 
L 403.565917 199.273756 
L 403.955511 199.273756 
L 404.066824 200.710403 
L 405.068638 200.710403 
L 405.17995 202.147051 
L 406.126108 202.147051 
L 406.237421 203.583698 
L 407.740142 203.583698 
L 407.851454 136.061267 
L 408.296705 136.061267 
L 408.408018 87.215253 
L 413.08315 87.215253 
L 413.194462 150.427742 
L 413.639713 150.427742 
L 413.751026 87.215253 
L 414.14062 87.215253 
L 414.251933 154.737684 
L 414.697183 154.737684 
L 414.808496 216.513525 
L 415.253747 216.513525 
L 415.365059 210.766935 
L 415.754654 210.766935 
L 415.865966 219.38682 
L 416.311217 219.38682 
L 416.42253 225.13341 
L 416.812124 225.13341 
L 416.923437 228.006705 
L 417.48 228.006705 
L 417.48 228.006705 
" style="fill:none;stroke:#377eb8;stroke-dasharray:7.4,3.2;stroke-dashoffset:0;stroke-linecap:round;stroke-width:2;"/>
   </g>
   <g id="patch_3">
    <path d="M 65.7932 230.88 
L 65.7932 15.38288 
" style="fill:none;stroke:#000000;stroke-linecap:square;stroke-linejoin:miter;stroke-width:0.8;"/>
   </g>
   <g id="patch_4">
    <path d="M 417.48 230.88 
L 417.48 15.38288 
" style="fill:none;"/>
   </g>
   <g id="patch_5">
    <path d="M 65.7932 230.88 
L 417.48 230.88 
" style="fill:none;stroke:#000000;stroke-linecap:square;stroke-linejoin:miter;stroke-width:0.8;"/>
   </g>
   <g id="patch_6">
    <path d="M 65.7932 15.38288 
L 417.48 15.38288 
" style="fill:none;"/>
   </g>
   <g id="legend_1">
    <g id="patch_7">
     <path d="M 241.19301 68.05458 
L 412.68 68.05458 
Q 415.88 68.05458 415.88 64.85458 
L 415.88 20.18288 
Q 415.88 16.98288 412.68 16.98288 
L 241.19301 16.98288 
Q 237.99301 16.98288 237.99301 20.18288 
L 237.99301 64.85458 
Q 237.99301 68.05458 241.19301 68.05458 
z
" style="fill:#ffffff;stroke:#000000;stroke-linejoin:miter;"/>
    </g>
    <g id="line2d_15">
     <path d="M 244.39301 29.63884 
L 276.39301 29.63884 
" style="fill:none;stroke:#e41a1c;stroke-linecap:square;stroke-width:2;"/>
    </g>
    <g id="line2d_16"/>
    <g id="text_15">
     <!-- Spindle Current -->
     <g transform="translate(289.19301 35.23884)scale(0.16 -0.16)">
      <use transform="translate(0 -1.570628)scale(0.996264)" xlink:href="#Century_Schoolbook_L_Roman-83"/>
      <use transform="translate(62.763979 -1.570628)scale(0.996264)" xlink:href="#Century_Schoolbook_L_Roman-112"/>
      <use transform="translate(119.949466 -1.570628)scale(0.996264)" xlink:href="#Century_Schoolbook_L_Roman-105"/>
      <use transform="translate(151.330779 -1.570628)scale(0.996264)" xlink:href="#Century_Schoolbook_L_Roman-110"/>
      <use transform="translate(212.20241 -1.570628)scale(0.996264)" xlink:href="#Century_Schoolbook_L_Roman-100"/>
      <use transform="translate(269.387897 -1.570628)scale(0.996264)" xlink:href="#Century_Schoolbook_L_Roman-108"/>
      <use transform="translate(300.76921 -1.570628)scale(0.996264)" xlink:href="#Century_Schoolbook_L_Roman-101"/>
      <use transform="translate(378.27758 -1.570628)scale(0.996264)" xlink:href="#Century_Schoolbook_L_Roman-67"/>
      <use transform="translate(450.207565 -1.570628)scale(0.996264)" xlink:href="#Century_Schoolbook_L_Roman-117"/>
      <use transform="translate(511.079196 -1.570628)scale(0.996264)" xlink:href="#Century_Schoolbook_L_Roman-114"/>
      <use transform="translate(555.312765 -1.570628)scale(0.996264)" xlink:href="#Century_Schoolbook_L_Roman-114"/>
      <use transform="translate(599.546333 -1.570628)scale(0.996264)" xlink:href="#Century_Schoolbook_L_Roman-101"/>
      <use transform="translate(649.359534 -1.570628)scale(0.996264)" xlink:href="#Century_Schoolbook_L_Roman-110"/>
      <use transform="translate(710.231164 -1.570628)scale(0.996264)" xlink:href="#Century_Schoolbook_L_Roman-116"/>
     </g>
    </g>
    <g id="line2d_17">
     <path d="M 244.39301 52.77469 
L 276.39301 52.77469 
" style="fill:none;stroke:#377eb8;stroke-dasharray:7.4,3.2;stroke-dashoffset:0;stroke-linecap:round;stroke-width:2;"/>
    </g>
    <g id="line2d_18"/>
    <g id="text_16">
     <!-- Spindle Load -->
     <defs>
      <path d="M 64.59375 27.328125 
L 60.203125 27.328125 
C 59.203125 20.546875 56.796875 13.765625 54.203125 10.484375 
C 51.09375 6.59375 45.296875 4.6875 36.90625 4.6875 
L 32.703125 4.6875 
C 29.703125 4.6875 27.203125 5.296875 26.296875 6.1875 
C 25.59375 6.78125 25.5 7.390625 25.5 9.484375 
L 25.5 59.734375 
L 25.5 62.609375 
C 25.5 66.8125 26.40625 67.3125 34.5 67.3125 
L 36.296875 67.3125 
L 36.296875 72 
L 3.5 72 
L 3.5 67.3125 
L 5.296875 67.3125 
C 13.40625 67.3125 14.296875 66.8125 14.296875 62.609375 
L 14.296875 59.734375 
L 14.296875 12.28125 
L 14.296875 9.375 
C 14.296875 5.1875 13.40625 4.6875 5.296875 4.6875 
L 3.5 4.6875 
L 3.5 0 
L 62.5 0 
z
" id="Century_Schoolbook_L_Roman-76"/>
      <path d="M 45.203125 32.578125 
C 45.203125 38.796875 44.09375 41.96875 41.203125 44.34375 
C 37.90625 46.90625 33 48.28125 26.59375 48.28125 
C 15.40625 48.28125 7.09375 43.046875 7.09375 35.921875 
C 7.09375 32.15625 9.40625 29.78125 12.90625 29.78125 
C 16 29.78125 18.296875 31.859375 18.296875 34.8125 
C 18.296875 36.109375 17.796875 37.484375 16.796875 38.875 
C 16.203125 39.546875 16.09375 39.84375 16.09375 40.15625 
C 16.09375 42.21875 20.203125 44 25 44 
C 28.09375 44 31.59375 43.015625 33.203125 41.53125 
C 35.09375 39.953125 35.796875 37.578125 35.796875 33.125 
L 35.796875 29.28125 
C 25.296875 27.484375 22.09375 26.6875 17.203125 24.8125 
C 8.59375 21.609375 4.40625 16.9375 4.40625 10.65625 
C 4.40625 3.578125 10.09375 -1 18.90625 -1 
C 25.796875 -1 32 1.859375 36.296875 7.0625 
C 37.90625 1.984375 40.40625 0 45.09375 0 
C 49.59375 0 54.296875 2.890625 54.296875 5.78125 
C 54.296875 6.46875 53.796875 6.96875 53.296875 6.96875 
C 52.90625 6.96875 52.5 6.875 51.796875 6.578125 
C 50.203125 6 49.796875 5.890625 49 5.890625 
C 46.203125 5.890625 45.203125 7.78125 45.203125 12.71875 
z
M 35.796875 20.46875 
C 35.796875 14.46875 35.5 13.078125 33.796875 10.484375 
C 31.296875 6.78125 26.703125 4.296875 22.40625 4.296875 
C 17.90625 4.296875 14.5 7.59375 14.5 12.078125 
C 14.5 16.265625 16.59375 19.265625 21 21.359375 
C 24.09375 22.75 28 23.75 35.796875 25.046875 
z
" id="Century_Schoolbook_L_Roman-97"/>
     </defs>
     <g transform="translate(289.19301 58.37469)scale(0.16 -0.16)">
      <use transform="translate(0 -1.570628)scale(0.996264)" xlink:href="#Century_Schoolbook_L_Roman-83"/>
      <use transform="translate(62.763979 -1.570628)scale(0.996264)" xlink:href="#Century_Schoolbook_L_Roman-112"/>
      <use transform="translate(119.949466 -1.570628)scale(0.996264)" xlink:href="#Century_Schoolbook_L_Roman-105"/>
      <use transform="translate(151.330779 -1.570628)scale(0.996264)" xlink:href="#Century_Schoolbook_L_Roman-110"/>
      <use transform="translate(212.20241 -1.570628)scale(0.996264)" xlink:href="#Century_Schoolbook_L_Roman-100"/>
      <use transform="translate(269.387897 -1.570628)scale(0.996264)" xlink:href="#Century_Schoolbook_L_Roman-108"/>
      <use transform="translate(300.76921 -1.570628)scale(0.996264)" xlink:href="#Century_Schoolbook_L_Roman-101"/>
      <use transform="translate(378.27758 -1.570628)scale(0.996264)" xlink:href="#Century_Schoolbook_L_Roman-76"/>
      <use transform="translate(444.727611 -1.570628)scale(0.996264)" xlink:href="#Century_Schoolbook_L_Roman-111"/>
      <use transform="translate(494.540812 -1.570628)scale(0.996264)" xlink:href="#Century_Schoolbook_L_Roman-97"/>
      <use transform="translate(549.932489 -1.570628)scale(0.996264)" xlink:href="#Century_Schoolbook_L_Roman-100"/>
     </g>
    </g>
   </g>
  </g>
 </g>
 <defs>
  <clipPath id="p12ca70ce04">
   <rect height="215.49712" width="351.6868" x="65.7932" y="15.38288"/>
  </clipPath>
 </defs>
</svg>
