<?xml version="1.0" encoding="utf-8" standalone="no"?>
<!DOCTYPE svg PUBLIC "-//W3C//DTD SVG 1.1//EN"
  "http://www.w3.org/Graphics/SVG/1.1/DTD/svg11.dtd">
<!-- Created with matplotlib (https://matplotlib.org/) -->
<svg height="288pt" version="1.1" viewBox="0 0 432 288" width="432pt" xmlns="http://www.w3.org/2000/svg" xmlns:xlink="http://www.w3.org/1999/xlink">
 <defs>
  <style type="text/css">
*{stroke-linecap:butt;stroke-linejoin:round;}
  </style>
 </defs>
 <g id="figure_1">
  <g id="patch_1">
   <path d="M 0 288 
L 432 288 
L 432 0 
L 0 0 
z
" style="fill:#ffffff;"/>
  </g>
  <g id="axes_1">
   <g id="patch_2">
    <path d="M 79.79325 230.88 
L 417.48 230.88 
L 417.48 14.52 
L 79.79325 14.52 
z
" style="fill:#ffffff;"/>
   </g>
   <g id="matplotlib.axis_1">
    <g id="xtick_1">
     <g id="line2d_1">
      <defs>
       <path d="M 0 0 
L 0 3.5 
" id="m4eda991dc1" style="stroke:#000000;stroke-width:0.8;"/>
      </defs>
      <g>
       <use style="stroke:#000000;stroke-width:0.8;" x="133.233999" xlink:href="#m4eda991dc1" y="230.88"/>
      </g>
     </g>
     <g id="text_1">
      <!-- $10$ -->
      <defs>
       <path d="M 26.59375 63.40625 
C 26.59375 65.5 26.5 65.5 25.09375 65.5 
C 21.203125 61.1875 15.296875 59.796875 9.703125 59.796875 
C 9.40625 59.796875 8.90625 59.796875 8.796875 59.5 
C 8.703125 59.296875 8.703125 59.09375 8.703125 57 
C 11.796875 57 17 57.59375 21 59.984375 
L 21 7.203125 
C 21 3.6875 20.796875 2.5 12.203125 2.5 
L 9.203125 2.5 
L 9.203125 0 
C 14 0 19 0 23.796875 0 
C 28.59375 0 33.59375 0 38.40625 0 
L 38.40625 2.5 
L 35.40625 2.5 
C 26.796875 2.5 26.59375 3.59375 26.59375 7.15625 
z
" id="CMR17-49"/>
       <path d="M 42 31.640625 
C 42 37.75 41.90625 48.125 37.703125 56.109375 
C 34 63.109375 28.09375 65.59375 22.90625 65.59375 
C 18.09375 65.59375 12 63.40625 8.203125 56.203125 
C 4.203125 48.71875 3.796875 39.4375 3.796875 31.640625 
C 3.796875 25.953125 3.90625 17.28125 7 9.671875 
C 11.296875 -0.609375 19 -2 22.90625 -2 
C 27.5 -2 34.5 -0.109375 38.59375 9.375 
C 41.59375 16.28125 42 24.359375 42 31.640625 
z
M 22.90625 -0.40625 
C 16.5 -0.40625 12.703125 5.078125 11.296875 12.6875 
C 10.203125 18.5625 10.203125 27.15625 10.203125 32.75 
C 10.203125 40.4375 10.203125 46.828125 11.5 52.921875 
C 13.40625 61.390625 19 64 22.90625 64 
C 27 64 32.296875 61.296875 34.203125 53.125 
C 35.5 47.4375 35.59375 40.734375 35.59375 32.75 
C 35.59375 26.25 35.59375 18.265625 34.40625 12.375 
C 32.296875 1.484375 26.40625 -0.40625 22.90625 -0.40625 
z
" id="CMR17-48"/>
      </defs>
      <g transform="translate(124.978874 251.21795)scale(0.18 -0.18)">
       <use transform="scale(0.996264)" xlink:href="#CMR17-49"/>
       <use transform="translate(45.690477 0)scale(0.996264)" xlink:href="#CMR17-48"/>
      </g>
     </g>
    </g>
    <g id="xtick_2">
     <g id="line2d_2">
      <g>
       <use style="stroke:#000000;stroke-width:0.8;" x="186.674748" xlink:href="#m4eda991dc1" y="230.88"/>
      </g>
     </g>
     <g id="text_2">
      <!-- $20$ -->
      <defs>
       <path d="M 41.703125 15.453125 
L 39.90625 15.453125 
C 38.90625 8.375 38.09375 7.171875 37.703125 6.5625 
C 37.203125 5.765625 30 5.765625 28.59375 5.765625 
L 9.40625 5.765625 
C 13 9.671875 20 16.75 28.5 24.953125 
C 34.59375 30.734375 41.703125 37.53125 41.703125 47.421875 
C 41.703125 59.21875 32.296875 66 21.796875 66 
C 10.796875 66 4.09375 56.3125 4.09375 47.34375 
C 4.09375 43.4375 7 42.9375 8.203125 42.9375 
C 9.203125 42.9375 12.203125 43.546875 12.203125 47.03125 
C 12.203125 50.109375 9.59375 51 8.203125 51 
C 7.59375 51 7 50.90625 6.59375 50.703125 
C 8.5 59.21875 14.296875 63.40625 20.40625 63.40625 
C 29.09375 63.40625 34.796875 56.515625 34.796875 47.421875 
C 34.796875 38.734375 29.703125 31.25 24 24.75 
L 4.09375 2.28125 
L 4.09375 0 
L 39.296875 0 
z
" id="CMR17-50"/>
      </defs>
      <g transform="translate(178.419623 251.21795)scale(0.18 -0.18)">
       <use transform="scale(0.996264)" xlink:href="#CMR17-50"/>
       <use transform="translate(45.690477 0)scale(0.996264)" xlink:href="#CMR17-48"/>
      </g>
     </g>
    </g>
    <g id="xtick_3">
     <g id="line2d_3">
      <g>
       <use style="stroke:#000000;stroke-width:0.8;" x="240.115498" xlink:href="#m4eda991dc1" y="230.88"/>
      </g>
     </g>
     <g id="text_3">
      <!-- $30$ -->
      <defs>
       <path d="M 22.09375 33.703125 
C 31 33.703125 34.90625 25.96875 34.90625 17.03125 
C 34.90625 5 28.5 0.390625 22.703125 0.390625 
C 17.40625 0.390625 8.796875 3.03125 6.09375 10.828125 
C 6.59375 10.625 7.09375 10.625 7.59375 10.625 
C 10 10.625 11.796875 12.21875 11.796875 14.8125 
C 11.796875 17.703125 9.59375 19 7.59375 19 
C 5.90625 19 3.296875 18.203125 3.296875 14.46875 
C 3.296875 5.234375 12.296875 -2 22.90625 -2 
C 34 -2 42.5 6.71875 42.5 16.953125 
C 42.5 26.671875 34.5 33.703125 25 34.796875 
C 32.59375 36.375 39.90625 43.0625 39.90625 52.015625 
C 39.90625 59.6875 32 65.296875 23 65.296875 
C 13.90625 65.296875 5.90625 59.828125 5.90625 52.015625 
C 5.90625 48.59375 8.5 48 9.796875 48 
C 11.90625 48 13.703125 49.296875 13.703125 51.890625 
C 13.703125 54.46875 11.90625 55.765625 9.796875 55.765625 
C 9.40625 55.765625 8.90625 55.765625 8.5 55.578125 
C 11.40625 61.859375 19.296875 63 22.796875 63 
C 26.296875 63 32.90625 61.328125 32.90625 51.875 
C 32.90625 49.109375 32.5 44.1875 29.09375 39.84375 
C 26.09375 36 22.703125 36 19.40625 35.6875 
C 18.90625 35.6875 16.59375 35.453125 16.203125 35.453125 
C 15.5 35.359375 15.09375 35.265625 15.09375 34.5 
C 15.09375 33.796875 15.203125 33.703125 17.203125 33.703125 
z
" id="CMR17-51"/>
      </defs>
      <g transform="translate(231.860373 251.21795)scale(0.18 -0.18)">
       <use transform="scale(0.996264)" xlink:href="#CMR17-51"/>
       <use transform="translate(45.690477 0)scale(0.996264)" xlink:href="#CMR17-48"/>
      </g>
     </g>
    </g>
    <g id="xtick_4">
     <g id="line2d_4">
      <g>
       <use style="stroke:#000000;stroke-width:0.8;" x="293.556247" xlink:href="#m4eda991dc1" y="230.88"/>
      </g>
     </g>
     <g id="text_4">
      <!-- $40$ -->
      <defs>
       <path d="M 33.59375 64.40625 
C 33.59375 66.5 33.5 66.5 31.703125 66.5 
L 2 19.59375 
L 2 17 
L 27.796875 17 
L 27.796875 7.140625 
C 27.796875 3.5 27.59375 2.5 20.59375 2.5 
L 18.703125 2.5 
L 18.703125 0 
C 21.90625 0 27.296875 0 30.703125 0 
C 34.09375 0 39.5 0 42.703125 0 
L 42.703125 2.5 
L 40.796875 2.5 
C 33.796875 2.5 33.59375 3.5 33.59375 7.140625 
L 33.59375 17 
L 43.796875 17 
L 43.796875 19.59375 
L 33.59375 19.59375 
z
M 28.09375 57.859375 
L 28.09375 19.59375 
L 4 19.59375 
z
" id="CMR17-52"/>
      </defs>
      <g transform="translate(285.301122 251.21795)scale(0.18 -0.18)">
       <use transform="scale(0.996264)" xlink:href="#CMR17-52"/>
       <use transform="translate(45.690477 0)scale(0.996264)" xlink:href="#CMR17-48"/>
      </g>
     </g>
    </g>
    <g id="xtick_5">
     <g id="line2d_5">
      <g>
       <use style="stroke:#000000;stroke-width:0.8;" x="346.996996" xlink:href="#m4eda991dc1" y="230.88"/>
      </g>
     </g>
     <g id="text_5">
      <!-- $50$ -->
      <defs>
       <path d="M 11.40625 57.6875 
C 12.40625 57.28125 16.5 56 20.703125 56 
C 30 56 35.09375 61.109375 38 64.0625 
C 38 64.953125 38 65.5 37.40625 65.5 
C 37.296875 65.5 37.09375 65.5 36.296875 65.046875 
C 32.796875 63.40625 28.703125 62.078125 23.703125 62.078125 
C 20.703125 62.078125 16.203125 62.484375 11.296875 64.671875 
C 10.203125 65.171875 10 65.171875 9.90625 65.171875 
C 9.40625 65.171875 9.296875 65.0625 9.296875 63.078125 
L 9.296875 34.421875 
C 9.296875 32.640625 9.296875 32.140625 10.296875 32.140625 
C 10.796875 32.140625 11 32.34375 11.5 33.03125 
C 14.703125 37.515625 19.09375 39.40625 24.09375 39.40625 
C 27.59375 39.40625 35.09375 37.21875 35.09375 20.140625 
C 35.09375 16.953125 35.09375 11.171875 32.09375 6.578125 
C 29.59375 2.484375 25.703125 0.390625 21.40625 0.390625 
C 14.796875 0.390625 8.09375 5 6.296875 12.71875 
C 6.703125 12.609375 7.5 12.421875 7.90625 12.421875 
C 9.203125 12.421875 11.703125 13.125 11.703125 16.21875 
C 11.703125 18.90625 9.796875 20 7.90625 20 
C 5.59375 20 4.09375 18.59375 4.09375 15.796875 
C 4.09375 7.09375 11 -2 21.59375 -2 
C 31.90625 -2 41.703125 6.875 41.703125 19.75 
C 41.703125 31.71875 33.90625 41 24.203125 41 
C 19.09375 41 14.796875 39.109375 11.40625 35.53125 
z
" id="CMR17-53"/>
      </defs>
      <g transform="translate(338.741871 251.21795)scale(0.18 -0.18)">
       <use transform="scale(0.996264)" xlink:href="#CMR17-53"/>
       <use transform="translate(45.690477 0)scale(0.996264)" xlink:href="#CMR17-48"/>
      </g>
     </g>
    </g>
    <g id="xtick_6">
     <g id="line2d_6">
      <g>
       <use style="stroke:#000000;stroke-width:0.8;" x="400.437745" xlink:href="#m4eda991dc1" y="230.88"/>
      </g>
     </g>
     <g id="text_6">
      <!-- $60$ -->
      <defs>
       <path d="M 10.59375 34 
C 10.59375 57.65625 21.796875 63 28.296875 63 
C 30.40625 63 35.5 62.640625 37.5 59 
C 35.90625 59 32.90625 59 32.90625 55.515625 
C 32.90625 52.828125 35.09375 51.921875 36.5 51.921875 
C 37.40625 51.921875 40.09375 52.3125 40.09375 55.625 
C 40.09375 61.78125 35.09375 65.296875 28.203125 65.296875 
C 16.296875 65.296875 3.796875 52.96875 3.796875 31 
C 3.796875 3.953125 15.09375 -2 23.09375 -2 
C 32.796875 -2 42 6.671875 42 20.046875 
C 42 32.515625 33.90625 41.59375 23.703125 41.59375 
C 17.59375 41.59375 13.09375 37.609375 10.59375 30.625 
z
M 23.09375 0.390625 
C 10.796875 0.390625 10.796875 18.75 10.796875 22.4375 
C 10.796875 29.625 14.203125 40 23.5 40 
C 25.203125 40 30.09375 40 33.40625 33.125 
C 35.203125 29.21875 35.203125 25.140625 35.203125 20.140625 
C 35.203125 14.75 35.203125 10.78125 33.09375 6.78125 
C 30.90625 2.671875 27.703125 0.390625 23.09375 0.390625 
z
" id="CMR17-54"/>
      </defs>
      <g transform="translate(392.18262 251.21795)scale(0.18 -0.18)">
       <use transform="scale(0.996264)" xlink:href="#CMR17-54"/>
       <use transform="translate(45.690477 0)scale(0.996264)" xlink:href="#CMR17-48"/>
      </g>
     </g>
    </g>
    <g id="text_7">
     <!-- Time (s) -->
     <defs>
      <path d="M 63.296875 72 
L 3.40625 72 
L 1.90625 44.265625 
L 6.203125 44.265625 
C 6.90625 49.25 7.796875 53.046875 8.90625 56.234375 
C 11.5 63.515625 16.296875 67.3125 23.09375 67.3125 
C 26.40625 67.3125 27.796875 66.203125 27.796875 63.71875 
L 27.796875 12.28125 
L 27.796875 9.375 
C 27.796875 5.1875 26.90625 4.6875 18.796875 4.6875 
L 16.203125 4.6875 
L 16.203125 0 
L 50.5 0 
L 50.5 4.6875 
L 47.90625 4.6875 
C 39.90625 4.6875 39 5.1875 39 9.375 
L 39 12.28125 
L 39 63.71875 
C 39 66.203125 40.40625 67.3125 43.703125 67.3125 
C 49.796875 67.3125 54.703125 63.90625 57.203125 57.921875 
C 58.703125 54.25 59.703125 49.953125 60.5 44.265625 
L 64.796875 44.265625 
z
" id="Century_Schoolbook_L_Roman-84"/>
      <path d="M 20.59375 46 
L 1.796875 46 
L 1.796875 41.21875 
L 6.90625 41.21875 
C 10.59375 41.21875 11.203125 40.515625 11.203125 36.203125 
L 11.203125 12.296875 
L 11.203125 8.296875 
C 11.203125 4.296875 10.09375 3.59375 3.703125 3.59375 
L 3 3.59375 
L 3 0 
L 28.90625 0 
L 28.90625 3.59375 
L 28.203125 3.59375 
C 21.703125 3.59375 20.59375 4.28125 20.59375 8.21875 
L 20.59375 12.171875 
z
M 15.90625 71.578125 
C 12.703125 71.578125 10.09375 68.984375 10.09375 65.796875 
C 10.09375 62.703125 12.703125 60 15.796875 60 
C 19.09375 60 21.703125 62.59375 21.703125 65.796875 
C 21.703125 68.984375 19.09375 71.578125 15.90625 71.578125 
z
" id="Century_Schoolbook_L_Roman-105"/>
      <path d="M 20.09375 46 
L 2.296875 46 
L 2.296875 41.21875 
L 6.40625 41.21875 
C 10.09375 41.21875 10.703125 40.515625 10.703125 36.203125 
L 10.703125 12.296875 
L 10.703125 8.40625 
C 10.703125 4.296875 9.59375 3.59375 3.203125 3.59375 
L 2.796875 3.59375 
L 2.796875 0 
L 28 0 
L 28 3.59375 
L 27.59375 3.59375 
C 21.203125 3.59375 20.09375 4.296875 20.09375 8.390625 
L 20.09375 12.28125 
L 20.09375 26.453125 
C 20.09375 35.328125 25 41.921875 31.5 41.921875 
C 34.09375 41.921875 36.90625 40.515625 38.09375 38.625 
C 39.5 36.734375 40.09375 33.828125 40.09375 29.734375 
L 40.09375 12.28125 
L 40.09375 8.28125 
C 40.09375 4.296875 39 3.59375 32.5 3.59375 
L 32.09375 3.59375 
L 32.09375 0 
L 57.40625 0 
L 57.40625 3.59375 
L 57 3.59375 
C 50.59375 3.59375 49.5 4.296875 49.5 8.28125 
L 49.5 12.28125 
L 49.5 25.546875 
C 49.5 35.53125 54 41.921875 61 41.921875 
C 64.296875 41.921875 67 40.015625 68.296875 36.921875 
C 69.203125 34.734375 69.5 32.53125 69.5 28.640625 
L 69.5 12.28125 
L 69.5 8.28125 
C 69.5 4.296875 68.40625 3.59375 61.90625 3.59375 
L 61.5 3.59375 
L 61.5 0 
L 86.796875 0 
L 86.796875 3.59375 
L 86.40625 3.59375 
C 80 3.59375 78.90625 4.296875 78.90625 8.390625 
L 78.90625 12.28125 
L 78.90625 30.640625 
C 78.90625 36.828125 78.296875 38.921875 75.703125 42.3125 
C 72.796875 46.015625 68.703125 48 63.90625 48 
C 57.40625 48 52.59375 44.9375 48.296875 38.109375 
C 46.59375 44.046875 41.203125 48 34.5 48 
C 28.5 48 24 45.140625 20.09375 38.921875 
z
" id="Century_Schoolbook_L_Roman-109"/>
      <path d="M 46.5 23 
C 46.59375 37.8125 38.09375 48.28125 25.90625 48.28125 
C 13.09375 48.28125 3.5 37.25 3.5 22.34375 
C 3.5 8.4375 12.59375 -1 26.09375 -1 
C 35.59375 -1 42.40625 3.6875 46.5 13.1875 
L 43 15.09375 
C 38.90625 7.390625 34.703125 4.390625 28 4.390625 
C 22.90625 4.390625 19.203125 6.59375 16.59375 11 
C 14.796875 14 14 17.5 14.09375 23 
z
M 14.203125 27.296875 
C 14.203125 30.34375 14.59375 32.5 15.59375 35.25 
C 17.703125 41.140625 20.90625 44 25.703125 44 
C 31.796875 44 35.796875 38.78125 35.796875 30.921875 
C 35.796875 28.078125 34.90625 27.296875 31.703125 27.296875 
z
" id="Century_Schoolbook_L_Roman-101"/>
      <path d="M 27.90625 73.453125 
C 21.90625 69.765625 18.703125 67.171875 15.296875 63.171875 
C 7.703125 54.1875 3.59375 42.71875 3.59375 30.640625 
C 3.59375 19.265625 7.203125 8.578125 13.90625 -0.296875 
C 17.703125 -5.09375 21.09375 -8.078125 27.90625 -12.28125 
L 27.90625 -8.578125 
C 17.90625 0.203125 13.90625 11.484375 13.90625 30.640625 
C 13.90625 49.796875 17.90625 60.984375 27.90625 69.765625 
z
" id="Century_Schoolbook_L_Roman-40"/>
      <path d="M 39 48 
L 35.5 48 
L 32.59375 44.40625 
C 29 47.203125 25.40625 48.390625 20.40625 48.390625 
C 11.59375 48.390625 5.796875 42.625 5.796875 33.953125 
C 5.796875 30.078125 7.09375 26.78125 9.296875 24.8125 
C 11.59375 22.703125 13.90625 21.71875 19.90625 20.3125 
L 25.203125 19.125 
C 33.09375 17.234375 35.90625 15.234375 35.90625 11.265625 
C 35.90625 6.578125 31.796875 3.296875 25.90625 3.296875 
C 17.5 3.296875 11.5 8.765625 9.09375 18.875 
L 5.09375 18.875 
L 5.09375 0 
L 8.59375 0 
L 12.09375 3.90625 
C 16.203125 0.59375 20.796875 -1 25.796875 -1 
C 35.59375 -1 42.09375 5.078125 42.09375 14.34375 
C 42.09375 18.71875 40.703125 22.09375 37.90625 24.390625 
C 35.5 26.484375 33.5 27.28125 27.40625 28.5625 
L 22.40625 29.671875 
C 16.90625 30.859375 16.90625 30.859375 15.09375 31.859375 
C 12.90625 32.859375 11.59375 34.9375 11.59375 37.140625 
C 11.59375 41.109375 15.40625 44 20.90625 44 
C 24.703125 44 27.796875 42.703125 30.59375 40.015625 
C 32.796875 37.8125 33.90625 35.828125 35.5 31.234375 
L 39 31.234375 
z
" id="Century_Schoolbook_L_Roman-115"/>
      <path d="M 5.40625 -12.28125 
C 11.40625 -8.578125 14.59375 -5.984375 18 -1.890625 
C 25.59375 6.984375 29.703125 18.5625 29.703125 30.640625 
C 29.703125 42.015625 26.09375 52.703125 19.40625 61.484375 
C 15.59375 66.375 12.203125 69.359375 5.40625 73.453125 
L 5.40625 69.765625 
C 15.40625 60.984375 19.40625 49.796875 19.40625 30.640625 
C 19.40625 11.375 15.40625 0.203125 5.40625 -8.578125 
z
" id="Century_Schoolbook_L_Roman-41"/>
     </defs>
     <g transform="translate(214.63516 273.24577)scale(0.18 -0.18)">
      <use transform="translate(0 -0.29235)scale(0.996264)" xlink:href="#Century_Schoolbook_L_Roman-84"/>
      <use transform="translate(66.450031 -0.29235)scale(0.996264)" xlink:href="#Century_Schoolbook_L_Roman-105"/>
      <use transform="translate(97.831344 -0.29235)scale(0.996264)" xlink:href="#Century_Schoolbook_L_Roman-109"/>
      <use transform="translate(186.398251 -0.29235)scale(0.996264)" xlink:href="#Century_Schoolbook_L_Roman-101"/>
      <use transform="translate(263.906621 -0.29235)scale(0.996264)" xlink:href="#Century_Schoolbook_L_Roman-40"/>
      <use transform="translate(297.081851 -0.29235)scale(0.996264)" xlink:href="#Century_Schoolbook_L_Roman-115"/>
      <use transform="translate(343.207661 -0.29235)scale(0.996264)" xlink:href="#Century_Schoolbook_L_Roman-41"/>
     </g>
    </g>
   </g>
   <g id="matplotlib.axis_2">
    <g id="ytick_1">
     <g id="line2d_7">
      <defs>
       <path d="M 0 0 
L -3.5 0 
" id="me40c0f1a6f" style="stroke:#000000;stroke-width:0.8;"/>
      </defs>
      <g>
       <use style="stroke:#000000;stroke-width:0.8;" x="79.79325" xlink:href="#me40c0f1a6f" y="230.88"/>
      </g>
     </g>
     <g id="text_8">
      <!-- $-200$ -->
      <defs>
       <path d="M 65.90625 23 
C 67.59375 23 69.40625 23 69.40625 25 
C 69.40625 27 67.59375 27 65.90625 27 
L 11.796875 27 
C 10.09375 27 8.296875 27 8.296875 25 
C 8.296875 23 10.09375 23 11.796875 23 
z
" id="CMSY10-0"/>
      </defs>
      <g transform="translate(34.02782 237.548975)scale(0.18 -0.18)">
       <use transform="translate(0 -0.031134)scale(0.996264)" xlink:href="#CMSY10-0"/>
       <use transform="translate(77.487468 -0.031134)scale(0.996264)" xlink:href="#CMR17-50"/>
       <use transform="translate(123.177945 -0.031134)scale(0.996264)" xlink:href="#CMR17-48"/>
       <use transform="translate(168.868422 -0.031134)scale(0.996264)" xlink:href="#CMR17-48"/>
      </g>
     </g>
    </g>
    <g id="ytick_2">
     <g id="line2d_8">
      <g>
       <use style="stroke:#000000;stroke-width:0.8;" x="79.79325" xlink:href="#me40c0f1a6f" y="183.014369"/>
      </g>
     </g>
     <g id="text_9">
      <!-- $0$ -->
      <g transform="translate(64.53812 189.683344)scale(0.18 -0.18)">
       <use transform="scale(0.996264)" xlink:href="#CMR17-48"/>
      </g>
     </g>
    </g>
    <g id="ytick_3">
     <g id="line2d_9">
      <g>
       <use style="stroke:#000000;stroke-width:0.8;" x="79.79325" xlink:href="#me40c0f1a6f" y="135.148738"/>
      </g>
     </g>
     <g id="text_10">
      <!-- $200$ -->
      <g transform="translate(48.02787 141.817713)scale(0.18 -0.18)">
       <use transform="scale(0.996264)" xlink:href="#CMR17-50"/>
       <use transform="translate(45.690477 0)scale(0.996264)" xlink:href="#CMR17-48"/>
       <use transform="translate(91.380954 0)scale(0.996264)" xlink:href="#CMR17-48"/>
      </g>
     </g>
    </g>
    <g id="ytick_4">
     <g id="line2d_10">
      <g>
       <use style="stroke:#000000;stroke-width:0.8;" x="79.79325" xlink:href="#me40c0f1a6f" y="87.283106"/>
      </g>
     </g>
     <g id="text_11">
      <!-- $400$ -->
      <g transform="translate(48.02787 93.952081)scale(0.18 -0.18)">
       <use transform="scale(0.996264)" xlink:href="#CMR17-52"/>
       <use transform="translate(45.690477 0)scale(0.996264)" xlink:href="#CMR17-48"/>
       <use transform="translate(91.380954 0)scale(0.996264)" xlink:href="#CMR17-48"/>
      </g>
     </g>
    </g>
    <g id="ytick_5">
     <g id="line2d_11">
      <g>
       <use style="stroke:#000000;stroke-width:0.8;" x="79.79325" xlink:href="#me40c0f1a6f" y="39.417475"/>
      </g>
     </g>
     <g id="text_12">
      <!-- $600$ -->
      <g transform="translate(48.02787 46.08645)scale(0.18 -0.18)">
       <use transform="scale(0.996264)" xlink:href="#CMR17-54"/>
       <use transform="translate(45.690477 0)scale(0.996264)" xlink:href="#CMR17-48"/>
       <use transform="translate(91.380954 0)scale(0.996264)" xlink:href="#CMR17-48"/>
      </g>
     </g>
    </g>
    <g id="text_13">
     <!-- Surface Speed -->
     <defs>
      <path d="M 54.59375 72 
L 50.90625 72 
L 46.90625 66.09375 
C 42.203125 70.59375 35.796875 73 28.703125 73 
C 15.59375 73 6.796875 64.609375 6.796875 52.15625 
C 6.796875 41.28125 12.203125 35.890625 26.90625 32.109375 
L 36.40625 29.703125 
C 43.796875 27.828125 44.5 27.625 46.59375 26.03125 
C 49.59375 23.734375 51.203125 20.4375 51.203125 16.546875 
C 51.203125 12.5625 49.703125 9.28125 46.703125 6.59375 
C 43.40625 3.6875 40.09375 2.59375 34.59375 2.59375 
C 27.203125 2.59375 21.90625 4.875 17.203125 10.03125 
C 13 14.703125 10.90625 19.375 9.40625 27 
L 5.09375 27 
L 5.5 -1.4375 
L 9.40625 -1.4375 
L 13.90625 5.46875 
C 20.59375 0 26.203125 -2 34.90625 -2 
C 49.59375 -2 59 6.59375 59 19.9375 
C 59 26.109375 56.90625 31.40625 53 35.203125 
C 50.296875 37.796875 46.40625 39.484375 38.40625 41.484375 
L 27.703125 44.171875 
C 18.796875 46.46875 14.59375 50.359375 14.59375 56.4375 
C 14.59375 63.40625 20.296875 68.203125 28.796875 68.203125 
C 35.796875 68.203125 41.5 65.1875 45.5 59.484375 
C 48.40625 55.375 50.203125 51.15625 51.5 46.046875 
L 55.796875 46.046875 
z
" id="Century_Schoolbook_L_Roman-83"/>
      <path d="M 41.203125 0 
L 59.40625 0 
L 59.40625 4.703125 
L 56.90625 4.703125 
C 51.40625 4.703125 50.59375 5.59375 50.59375 11.953125 
L 50.59375 46.78125 
L 31.796875 46.78125 
L 31.796875 42 
L 36.90625 42 
C 40.59375 42 41.203125 41.296875 41.203125 36.953125 
L 41.203125 24.5625 
C 41.203125 18.8125 40.59375 15.484375 39.09375 12.15625 
C 37 7.71875 33 5.09375 28.09375 5.09375 
C 25 5.09375 22.40625 6.1875 21.09375 8.171875 
C 19.796875 10.046875 19.59375 11.046875 19.59375 16.5 
L 19.59375 46.78125 
L 2.09375 46.78125 
L 2.09375 42 
L 5.90625 42 
C 9.59375 42 10.203125 41.296875 10.203125 36.953125 
L 10.203125 15.21875 
C 10.203125 10.078125 10.59375 7.765625 12.09375 5.453125 
C 14.796875 1.3125 19.59375 -1 25.59375 -1 
C 32.203125 -1 36.796875 1.71875 41.203125 8.125 
z
" id="Century_Schoolbook_L_Roman-117"/>
      <path d="M 19.796875 46 
L 2.09375 46 
L 2.09375 41.21875 
L 6.203125 41.21875 
C 9.90625 41.21875 10.5 40.515625 10.5 36.203125 
L 10.5 12.296875 
L 10.5 8.296875 
C 10.5 4.296875 9.40625 3.59375 2.90625 3.59375 
L 2.5 3.59375 
L 2.5 0 
L 29.203125 0 
L 29.203125 3.59375 
L 27.296875 3.59375 
C 20.90625 3.59375 19.796875 4.296875 19.796875 8.296875 
L 19.796875 12.296875 
L 19.796875 13.296875 
C 19.796875 20.8125 21.203125 28.40625 23.703125 34.109375 
C 26.09375 39.703125 29.5 42.8125 33.703125 43.3125 
C 32.296875 41.703125 31.90625 40.6875 31.90625 38.765625 
C 31.90625 35.546875 34.203125 33.234375 37.40625 33.234375 
C 41 33.234375 43.5 35.9375 43.5 40.015625 
C 43.5 44.8125 40.09375 48 34.796875 48 
C 28.5 48 23 42.921875 19.796875 34.140625 
z
" id="Century_Schoolbook_L_Roman-114"/>
      <path d="M 20.09375 46.296875 
L 20.09375 52.140625 
C 20.09375 57.265625 20.40625 60.65625 21.203125 62.71875 
C 22.796875 67.234375 26.296875 70 30.296875 70 
C 32.40625 70 33.703125 69.390625 33.703125 68.25 
C 33.703125 67.921875 33.59375 67.734375 33.09375 66.90625 
C 32.5 65.890625 32.203125 64.75 32.203125 63.625 
C 32.203125 60.546875 34.59375 58.203125 37.703125 58.203125 
C 41 58.203125 43.296875 60.734375 43.296875 64.40625 
C 43.296875 70.328125 38.296875 74 30.203125 74 
C 23.296875 74 18.296875 71.53125 14.703125 66.4375 
C 11.703125 62.140625 10.703125 57.734375 10.703125 49.46875 
L 10.703125 46.296875 
L 1.90625 46.296875 
L 1.90625 42 
L 10.703125 42 
L 10.703125 12.234375 
L 10.703125 8.25 
C 10.703125 4.296875 9.59375 3.59375 3.203125 3.59375 
L 2.796875 3.59375 
L 2.796875 0 
L 29.5 0 
L 29.5 3.59375 
L 27.703125 3.59375 
C 21.203125 3.59375 20.09375 4.296875 20.09375 8.25 
L 20.09375 12.234375 
L 20.09375 42 
L 31.09375 42 
L 31.09375 46.296875 
z
" id="Century_Schoolbook_L_Roman-102"/>
      <path d="M 45.203125 32.578125 
C 45.203125 38.796875 44.09375 41.96875 41.203125 44.34375 
C 37.90625 46.90625 33 48.28125 26.59375 48.28125 
C 15.40625 48.28125 7.09375 43.046875 7.09375 35.921875 
C 7.09375 32.15625 9.40625 29.78125 12.90625 29.78125 
C 16 29.78125 18.296875 31.859375 18.296875 34.8125 
C 18.296875 36.109375 17.796875 37.484375 16.796875 38.875 
C 16.203125 39.546875 16.09375 39.84375 16.09375 40.15625 
C 16.09375 42.21875 20.203125 44 25 44 
C 28.09375 44 31.59375 43.015625 33.203125 41.53125 
C 35.09375 39.953125 35.796875 37.578125 35.796875 33.125 
L 35.796875 29.28125 
C 25.296875 27.484375 22.09375 26.6875 17.203125 24.8125 
C 8.59375 21.609375 4.40625 16.9375 4.40625 10.65625 
C 4.40625 3.578125 10.09375 -1 18.90625 -1 
C 25.796875 -1 32 1.859375 36.296875 7.0625 
C 37.90625 1.984375 40.40625 0 45.09375 0 
C 49.59375 0 54.296875 2.890625 54.296875 5.78125 
C 54.296875 6.46875 53.796875 6.96875 53.296875 6.96875 
C 52.90625 6.96875 52.5 6.875 51.796875 6.578125 
C 50.203125 6 49.796875 5.890625 49 5.890625 
C 46.203125 5.890625 45.203125 7.78125 45.203125 12.71875 
z
M 35.796875 20.46875 
C 35.796875 14.46875 35.5 13.078125 33.796875 10.484375 
C 31.296875 6.78125 26.703125 4.296875 22.40625 4.296875 
C 17.90625 4.296875 14.5 7.59375 14.5 12.078125 
C 14.5 16.265625 16.59375 19.265625 21 21.359375 
C 24.09375 22.75 28 23.75 35.796875 25.046875 
z
" id="Century_Schoolbook_L_Roman-97"/>
      <path d="M 38.703125 15.125 
C 35.5 7.96875 32.09375 5.09375 26.90625 5.09375 
C 18.90625 5.09375 13.90625 12.328125 13.90625 23.9375 
C 13.90625 35.953125 18.796875 44 26.203125 44 
C 29.203125 44 31.796875 42.59375 31.796875 41.015625 
C 31.796875 40.71875 31.59375 40.421875 31.203125 39.8125 
C 29.59375 37.9375 29.203125 36.9375 29.203125 35.265625 
C 29.203125 31.984375 31.703125 29.703125 35.203125 29.703125 
C 38.703125 29.703125 41.296875 32.484375 41.296875 36.453125 
C 41.296875 43.109375 34.59375 48.28125 25.703125 48.28125 
C 12.703125 48.28125 3.40625 37.65625 3.40625 22.84375 
C 3.40625 8.734375 11.90625 -1 24.296875 -1 
C 33.203125 -1 38.296875 3.078125 42.59375 13.625 
z
" id="Century_Schoolbook_L_Roman-99"/>
      <path d="M 20.09375 46 
L 2.796875 46 
L 2.796875 41.21875 
L 6.40625 41.21875 
C 10.09375 41.21875 10.703125 40.515625 10.703125 36.21875 
L 10.703125 -7.75 
L 10.703125 -11.71875 
C 10.703125 -15.71875 9.59375 -16.40625 3.203125 -16.40625 
L 2.796875 -16.40625 
L 2.796875 -20 
L 28.796875 -20 
L 28.796875 -16.40625 
L 27.703125 -16.40625 
C 21.203125 -16.40625 20.09375 -15.71875 20.09375 -11.734375 
L 20.09375 -7.75 
L 20.09375 6.6875 
C 23.40625 0.90625 27.203125 -1.390625 33.296875 -1.390625 
C 44.90625 -1.390625 53.5 9.265625 53.5 23.5 
C 53.5 37.265625 44.90625 48 33.90625 48 
C 27.703125 48 23.59375 45.4375 20.09375 39.515625 
z
M 32.09375 42.609375 
C 39 42.609375 43 35.75 43 24.09375 
C 43 11.265625 38.90625 4 31.796875 4 
C 24.703125 4 20 11.375 20 22.8125 
C 20 35.140625 24.5 42.609375 32.09375 42.609375 
z
" id="Century_Schoolbook_L_Roman-112"/>
      <path d="M 38 0 
L 55.40625 0 
L 55.40625 4.703125 
L 53.59375 4.703125 
C 48.203125 4.703125 47.40625 5.703125 47.40625 11.96875 
L 47.40625 73.78125 
L 27.796875 73.78125 
L 27.796875 69 
L 33.703125 69 
C 37.296875 69 38 68.28125 38 63.921875 
L 38 41 
C 34.296875 46.09375 30 48.390625 24.203125 48.390625 
C 12.90625 48.390625 4.296875 37.546875 4.296875 23.203125 
C 4.296875 9.0625 12.59375 -1 24.203125 -1 
C 30.5 -1 34.796875 1.671875 38 7.59375 
z
M 26.203125 43 
C 30.296875 43 34.203125 40.03125 36 35.4375 
C 37.203125 32.453125 37.90625 28.28125 37.90625 23.515625 
C 37.90625 11.96875 33.296875 4.390625 26.09375 4.390625 
C 19.09375 4.390625 14.796875 10.96875 14.796875 22.015625 
C 14.796875 27.890625 15.40625 32.359375 16.703125 35.734375 
C 18.40625 40.125 22.09375 43 26.203125 43 
z
" id="Century_Schoolbook_L_Roman-100"/>
     </defs>
     <g transform="translate(25.33795 181.86556)rotate(-90)scale(0.18 -0.18)">
      <use transform="translate(0 -1.570628)scale(0.996264)" xlink:href="#Century_Schoolbook_L_Roman-83"/>
      <use transform="translate(62.763979 -1.570628)scale(0.996264)" xlink:href="#Century_Schoolbook_L_Roman-117"/>
      <use transform="translate(123.63561 -1.570628)scale(0.996264)" xlink:href="#Century_Schoolbook_L_Roman-114"/>
      <use transform="translate(167.869178 -1.570628)scale(0.996264)" xlink:href="#Century_Schoolbook_L_Roman-102"/>
      <use transform="translate(201.044408 -1.570628)scale(0.996264)" xlink:href="#Century_Schoolbook_L_Roman-97"/>
      <use transform="translate(256.436085 -1.570628)scale(0.996264)" xlink:href="#Century_Schoolbook_L_Roman-99"/>
      <use transform="translate(300.669654 -1.570628)scale(0.996264)" xlink:href="#Century_Schoolbook_L_Roman-101"/>
      <use transform="translate(378.178024 -1.570628)scale(0.996264)" xlink:href="#Century_Schoolbook_L_Roman-83"/>
      <use transform="translate(440.942003 -1.570628)scale(0.996264)" xlink:href="#Century_Schoolbook_L_Roman-112"/>
      <use transform="translate(498.12749 -1.570628)scale(0.996264)" xlink:href="#Century_Schoolbook_L_Roman-101"/>
      <use transform="translate(547.940691 -1.570628)scale(0.996264)" xlink:href="#Century_Schoolbook_L_Roman-101"/>
      <use transform="translate(597.753891 -1.570628)scale(0.996264)" xlink:href="#Century_Schoolbook_L_Roman-100"/>
     </g>
    </g>
   </g>
   <g id="line2d_12">
    <path clip-path="url(#pc996414706)" d="M 79.79325 183.014369 
L 80.696399 183.014369 
L 80.813968 176.991547 
L 80.856721 176.991547 
L 80.968946 172.539896 
L 81.070484 172.539896 
L 81.188054 154.995153 
L 81.284247 154.995153 
L 81.401817 145.699058 
L 81.444569 145.699058 
L 81.556795 144.913472 
L 81.604891 144.913472 
L 81.722461 144.127887 
L 81.765214 144.127887 
L 81.877439 143.996956 
L 81.925536 143.996956 
L 82.04845 144.389749 
L 82.085858 144.389749 
L 82.208772 144.782541 
L 82.24618 144.782541 
L 82.36375 145.306265 
L 82.406503 145.306265 
L 82.518728 145.437196 
L 82.566825 145.437196 
L 82.684395 145.96092 
L 82.780588 145.96092 
L 82.898158 146.222781 
L 82.94091 146.222781 
L 83.05848 146.484643 
L 83.208114 146.484643 
L 83.325684 146.746505 
L 83.63564 146.746505 
L 83.747865 146.877436 
L 85.506066 146.877436 
L 85.618292 146.746505 
L 85.77327 146.746505 
L 85.885495 146.877436 
L 86.468 146.877436 
L 86.580225 146.746505 
L 86.735203 146.746505 
L 86.847429 146.877436 
L 87.162729 146.877436 
L 87.21617 146.746505 
L 87.269611 146.877436 
L 87.376492 146.877436 
L 87.488718 146.746505 
L 88.124663 146.746505 
L 88.236888 146.877436 
L 88.338426 146.877436 
L 88.450651 146.746505 
L 88.60563 146.746505 
L 88.65907 146.877436 
L 88.712511 146.746505 
L 88.926274 146.746505 
L 89.0385 146.877436 
L 89.086596 146.877436 
L 89.198822 146.746505 
L 89.300359 146.746505 
L 89.412585 146.877436 
L 89.514122 146.877436 
L 89.626348 146.746505 
L 90.689819 146.746505 
L 90.802044 146.877436 
L 90.850141 146.877436 
L 90.903582 146.746505 
L 90.957023 146.877436 
L 91.010463 146.877436 
L 91.063904 146.746505 
L 91.117345 146.877436 
L 91.277667 146.877436 
L 91.331108 146.746505 
L 91.384548 146.877436 
L 91.865515 146.877436 
L 91.918956 146.746505 
L 91.972397 146.877436 
L 92.18616 146.877436 
L 92.298385 146.746505 
L 92.827449 146.746505 
L 92.939674 146.877436 
L 93.148093 146.877436 
L 93.260319 146.746505 
L 93.308415 146.746505 
L 93.361856 146.877436 
L 93.415297 146.746505 
L 93.62906 146.746505 
L 93.741286 146.877436 
L 93.789382 146.877436 
L 93.901608 146.746505 
L 94.163467 146.746505 
L 94.275693 146.877436 
L 94.32379 146.877436 
L 94.436015 146.746505 
L 94.484112 146.746505 
L 94.596338 146.877436 
L 94.804756 146.877436 
L 94.916982 146.746505 
L 95.446045 146.746505 
L 95.563615 146.988042 
L 95.606368 146.988042 
L 95.723937 148.412236 
L 95.820131 148.412236 
L 95.873571 148.634458 
L 95.927012 148.498036 
L 96.044582 147.927176 
L 96.194216 147.853364 
L 96.301097 147.416441 
L 96.311786 147.47506 
L 96.46142 147.411949 
L 96.578989 147.164176 
L 96.995827 147.105367 
L 97.049268 147.047063 
L 97.102709 147.10789 
L 97.337848 147.126226 
L 97.797438 147.167129 
L 97.920352 147.944017 
L 98.011201 147.944017 
L 98.155491 149.621133 
L 98.171524 149.621133 
L 98.305126 151.667006 
L 98.331846 151.667006 
L 98.470792 152.540086 
L 98.492168 152.540086 
L 98.59905 154.523976 
L 98.609738 154.369295 
L 98.65249 154.369295 
L 98.759372 156.30982 
L 98.77006 155.980989 
L 98.812813 155.980989 
L 98.919694 157.613129 
L 98.925038 156.688422 
L 99.026576 156.688422 
L 99.555639 147.287597 
L 99.560983 147.287597 
L 99.673209 146.247713 
L 99.721305 146.247713 
L 99.838875 144.852467 
L 100.148831 144.925183 
L 100.271745 145.130836 
L 100.362594 145.130836 
L 100.485508 145.569202 
L 100.576357 145.593931 
L 100.699271 145.90057 
L 100.73668 145.90057 
L 100.854249 146.181661 
L 100.950443 146.205582 
L 101.073356 146.480869 
L 101.217646 146.528507 
L 101.335216 146.675476 
L 101.591732 146.770618 
L 101.714645 146.889545 
L 102.981191 146.982731 
L 103.034632 147.010186 
L 103.093417 146.993292 
L 109.287199 147.063575 
L 109.394081 147.104465 
L 109.511651 147.049547 
L 110.409455 147.126157 
L 110.516337 147.171636 
L 110.521681 147.13071 
L 115.112241 147.183784 
L 115.165682 147.243212 
L 115.171026 147.157313 
L 115.219123 147.157313 
L 115.379445 147.227673 
L 115.432886 147.179803 
L 115.486326 147.192503 
L 115.539767 147.253466 
L 115.598552 147.20668 
L 117.623956 147.248897 
L 117.677397 147.321413 
L 117.736182 147.280848 
L 118.906534 147.388533 
L 118.959975 147.399318 
L 118.965319 147.329557 
L 118.997384 147.329557 
L 119.387501 147.364788 
L 119.494383 147.451331 
L 119.547823 147.36125 
L 119.601264 147.388897 
L 119.654705 147.478053 
L 119.708146 147.390525 
L 119.975349 147.502459 
L 120.02879 147.393388 
L 120.082231 147.486696 
L 120.135672 147.502443 
L 120.141016 147.425785 
L 120.178424 147.425785 
L 120.509757 147.439667 
L 120.621982 147.545806 
L 121.578572 147.539869 
L 121.632013 147.76768 
L 121.685453 147.677098 
L 121.738894 147.56231 
L 121.797679 147.567715 
L 121.845776 147.567715 
L 121.952657 147.696665 
L 121.958001 147.590812 
L 122.059539 147.584752 
L 122.112979 147.706893 
L 122.171764 147.636297 
L 122.219861 147.636297 
L 122.273302 147.762151 
L 122.326742 147.645672 
L 122.433624 147.659651 
L 122.540505 147.810049 
L 122.593946 147.67993 
L 122.652731 147.710295 
L 122.700828 147.710295 
L 122.754268 147.84509 
L 122.807709 147.836627 
L 122.86115 147.718837 
L 122.914591 147.743225 
L 123.021472 147.884535 
L 123.074913 147.751066 
L 123.080257 147.912709 
L 123.133698 147.788295 
L 123.288676 147.816626 
L 123.395557 147.982674 
L 123.400901 147.851451 
L 123.448998 147.851451 
L 123.561224 148.037247 
L 123.60932 148.037247 
L 123.662761 147.894488 
L 123.668105 148.080613 
L 123.721546 147.927479 
L 123.876524 147.947158 
L 123.929965 148.115714 
L 123.98875 148.012335 
L 124.036846 148.012335 
L 124.143728 148.218566 
L 124.149072 148.055883 
L 124.250609 148.055883 
L 124.357491 148.269757 
L 124.362835 148.102078 
L 124.464372 148.131936 
L 124.517813 148.32563 
L 124.576598 148.208164 
L 124.624694 148.208164 
L 124.731576 148.444575 
L 124.73692 148.279084 
L 124.838457 148.279084 
L 124.956027 148.572362 
L 124.99878 148.572362 
L 125.105661 148.382553 
L 125.111005 148.428882 
L 125.159102 148.428882 
L 125.276672 148.765927 
L 125.479746 148.83753 
L 125.533187 148.894413 
L 125.538531 148.691416 
L 125.57594 148.691416 
L 125.640069 148.766991 
L 125.757638 149.127373 
L 125.800391 149.127373 
L 125.853832 148.936566 
L 125.859176 149.223853 
L 125.907272 149.223853 
L 125.960713 149.3291 
L 125.966057 149.14024 
L 126.014154 149.14024 
L 126.067595 149.14024 
L 126.174476 149.913369 
L 126.201197 149.779696 
L 126.227917 149.779696 
L 126.345487 150.246837 
L 126.388239 150.246837 
L 126.495121 150.518476 
L 126.500465 150.475773 
L 126.548561 150.475773 
L 126.660787 150.829848 
L 126.762324 150.829848 
L 126.895926 152.34273 
L 126.922647 152.34273 
L 127.040216 153.294804 
L 127.082969 153.294804 
L 127.200539 153.936306 
L 127.243291 153.936306 
L 127.360861 155.085189 
L 127.403613 155.085189 
L 127.526527 156.81028 
L 127.563936 156.81028 
L 127.692193 157.734058 
L 127.724258 157.734058 
L 127.847172 159.222686 
L 127.938021 159.222686 
L 128.071623 161.324203 
L 128.098343 161.324203 
L 128.215913 162.522553 
L 128.258665 162.522553 
L 128.376235 164.330649 
L 128.418988 164.330649 
L 128.536557 165.825202 
L 128.632751 165.825202 
L 128.75032 168.890345 
L 128.793073 168.890345 
L 128.921331 171.094706 
L 128.953395 171.094706 
L 129.076309 172.781915 
L 129.167158 172.781915 
L 129.306104 176.193089 
L 129.32748 176.193089 
L 129.455738 178.456629 
L 129.487803 178.456629 
L 129.610716 180.148175 
L 129.648125 180.148175 
L 129.776383 182.392909 
L 129.808447 182.392909 
L 129.931361 183.701204 
L 130.02221 183.701204 
L 130.155812 165.437559 
L 130.182532 165.437559 
L 130.300102 139.899069 
L 130.342855 139.899069 
L 130.476457 92.49493 
L 130.503177 92.49493 
L 130.620747 61.557074 
L 130.663499 61.557074 
L 130.781069 34.740463 
L 130.823821 34.740463 
L 130.946735 32.767669 
L 130.984144 32.767669 
L 131.037584 32.173893 
L 131.042928 33.700192 
L 131.085681 33.700192 
L 131.091025 33.700192 
L 131.203251 35.384385 
L 131.251347 35.384385 
L 131.363573 37.068577 
L 131.41167 37.068577 
L 131.529239 43.910608 
L 131.625433 43.910608 
L 131.743002 47.384255 
L 131.892636 47.384255 
L 132.010206 53.015773 
L 132.106399 53.015773 
L 132.218625 56.699944 
L 132.320162 56.699944 
L 132.432388 58.59466 
L 132.480485 58.59466 
L 132.598054 66.541943 
L 132.747688 66.541943 
L 132.865258 72.857664 
L 133.014892 72.857664 
L 133.132462 79.489171 
L 133.228655 79.489171 
L 133.346225 86.594358 
L 133.495859 86.594358 
L 133.613429 94.331116 
L 133.763063 94.331116 
L 133.880632 102.646816 
L 134.030266 102.646816 
L 134.147836 111.646719 
L 134.29747 111.646719 
L 134.41504 121.541349 
L 134.564674 121.541349 
L 134.682243 133.014909 
L 134.831878 133.014909 
L 134.949447 141.856919 
L 135.045641 141.856919 
L 135.16321 146.014769 
L 135.205963 146.014769 
L 135.323532 147.361128 
L 135.366285 147.361128 
L 135.483855 148.099051 
L 135.526607 148.099051 
L 135.644177 148.361931 
L 135.954133 148.261955 
L 136.077047 148.13854 
L 136.114456 148.13854 
L 136.221337 148.011302 
L 136.226681 148.038789 
L 136.328219 147.93953 
L 136.451132 147.71515 
L 136.541982 147.743518 
L 136.659551 147.454791 
L 136.916067 147.367331 
L 136.969508 147.244424 
L 137.028292 147.282798 
L 137.236711 147.282798 
L 137.354281 147.087874 
L 137.931441 147.036953 
L 137.984882 146.967958 
L 138.043667 147.012619 
L 142.046379 147.032782 
L 142.099819 147.144759 
L 142.158604 147.09114 
L 148.833354 147.152837 
L 148.940235 147.209041 
L 149.047117 147.116513 
L 149.052461 147.155388 
L 150.383136 147.209476 
L 150.436576 147.272239 
L 150.44192 147.194808 
L 150.490017 147.194808 
L 150.543458 147.181127 
L 150.548802 147.244384 
L 150.58621 147.244384 
L 152.413884 147.34748 
L 152.467325 147.368628 
L 152.472669 147.283307 
L 152.510077 147.283307 
L 153.53614 147.321354 
L 153.643021 147.423353 
L 153.696462 147.327769 
L 153.755247 147.349166 
L 154.177429 147.459137 
L 154.23087 147.464074 
L 154.236214 147.381146 
L 154.252246 147.381146 
L 154.337751 147.381146 
L 154.391192 147.563184 
L 154.444633 147.482967 
L 154.498073 147.402719 
L 154.551514 147.417123 
L 154.658396 147.530357 
L 154.711836 147.427806 
L 154.765277 147.523489 
L 155.994414 147.62049 
L 156.047855 147.639846 
L 156.053199 147.548752 
L 156.085264 147.548752 
L 156.208177 147.5493 
L 156.315059 147.69796 
L 156.320403 147.588837 
L 156.42194 147.603578 
L 156.475381 147.724863 
L 156.480725 147.597609 
L 156.528822 147.597609 
L 156.635703 147.620828 
L 156.747929 147.75075 
L 157.330433 147.732524 
L 157.448003 147.909695 
L 157.544196 147.909695 
L 157.597637 147.782016 
L 157.651077 147.803582 
L 157.757959 147.96029 
L 157.8114 147.824343 
L 157.86484 147.84517 
L 157.971722 148.000647 
L 158.025163 147.874646 
L 158.030507 148.050634 
L 158.083948 147.913494 
L 158.132044 147.913494 
L 158.249614 148.110729 
L 158.292366 148.110729 
L 158.345807 147.964769 
L 158.351151 148.133325 
L 158.399248 148.133325 
L 158.452689 148.14515 
L 158.506129 147.989176 
L 158.511474 148.166084 
L 158.55957 148.166084 
L 158.826774 148.122051 
L 158.880215 148.312465 
L 158.939 148.174721 
L 158.987096 148.174721 
L 159.093978 148.373191 
L 159.147418 148.211082 
L 159.200859 148.239762 
L 159.307741 148.494894 
L 159.313085 148.302593 
L 159.468063 148.356142 
L 159.574944 148.614607 
L 159.580289 148.436192 
L 159.681826 148.48384 
L 159.799396 148.774464 
L 159.842148 148.774464 
L 159.94903 148.579365 
L 160.066599 148.951768 
L 160.269674 148.936215 
L 160.376556 149.222133 
L 160.3819 149.048782 
L 160.536878 149.141857 
L 160.665136 149.678819 
L 160.6972 149.678819 
L 160.81477 150.170464 
L 160.857522 150.170464 
L 160.964404 150.515339 
L 160.969748 150.475349 
L 161.017845 150.475349 
L 161.146102 151.519561 
L 161.231608 151.554679 
L 161.349177 152.419812 
L 161.39193 152.419812 
L 161.5095 153.308927 
L 161.605693 153.409665 
L 161.728607 154.944998 
L 161.766015 154.944998 
L 161.899617 155.728579 
L 161.926337 155.728579 
L 162.049251 157.053709 
L 162.08666 157.053709 
L 162.209573 158.491235 
L 162.246982 158.491235 
L 162.369896 159.736959 
L 162.407304 159.736959 
L 162.524874 161.356256 
L 162.567626 161.356256 
L 162.685196 162.569757 
L 162.727949 162.569757 
L 162.850862 164.925015 
L 162.941712 164.925015 
L 163.080658 167.338512 
L 163.102034 167.338512 
L 163.230292 169.496055 
L 163.262356 169.496055 
L 163.38527 171.176169 
L 163.422678 171.176169 
L 163.550936 173.437457 
L 163.583001 173.437457 
L 163.711258 175.708992 
L 163.743323 175.708992 
L 163.866237 177.413041 
L 163.903645 177.413041 
L 164.031903 179.673485 
L 164.063967 179.673485 
L 164.176193 180.234128 
L 164.22429 180.234128 
L 164.347203 183.59398 
L 164.438053 183.700978 
L 164.625095 165.437559 
L 164.651816 165.437559 
L 164.785417 128.984659 
L 164.865579 128.984659 
L 164.988492 69.941556 
L 165.079342 69.941556 
L 165.207599 38.313108 
L 165.239664 38.313108 
L 165.357234 33.117724 
L 165.453427 33.117724 
L 165.560308 32.173893 
L 165.672534 35.384385 
L 165.774071 35.384385 
L 165.891641 40.647486 
L 165.934394 40.647486 
L 166.057307 45.700063 
L 166.255038 45.700063 
L 166.372608 51.173688 
L 166.41536 51.173688 
L 166.53293 54.91049 
L 166.575683 54.91049 
L 166.687908 56.805206 
L 166.789446 56.805206 
L 166.907015 62.541986 
L 167.056649 62.541986 
L 167.174219 68.752445 
L 167.323853 68.752445 
L 167.441423 75.173429 
L 167.537616 75.173429 
L 167.655186 81.962829 
L 167.80482 81.962829 
L 167.922389 89.278539 
L 168.072024 89.278539 
L 168.189593 97.225822 
L 168.339227 97.225822 
L 168.456797 105.752046 
L 168.55299 105.752046 
L 168.67056 115.067734 
L 168.873635 115.067734 
L 168.991204 125.488675 
L 169.087398 125.488675 
L 169.204967 137.067497 
L 169.301161 137.067497 
L 169.413386 142.120074 
L 169.461483 142.120074 
L 169.584397 146.0674 
L 169.835568 146.0674 
L 169.947794 148.125129 
L 169.995891 148.125129 
L 170.11346 148.388391 
L 170.423417 148.288614 
L 170.530298 148.111174 
L 170.540986 148.13854 
L 170.583739 148.13854 
L 170.69062 147.91141 
L 170.701308 147.93953 
L 170.744061 147.93953 
L 170.861631 147.714634 
L 171.064706 147.646257 
L 171.171587 147.476213 
L 171.176931 147.505434 
L 171.278469 147.410631 
L 171.396038 147.324367 
L 171.545672 147.282269 
L 171.663242 147.169325 
L 172.026639 147.058684 
L 172.08008 147.019876 
L 172.133521 147.050562 
L 172.240402 147.062329 
L 172.293843 146.992858 
L 172.352628 147.036412 
L 175.874373 147.042521 
L 175.981254 147.223158 
L 175.986599 147.167014 
L 176.248458 147.24853 
L 176.366028 147.312485 
L 176.515662 147.249618 
L 176.569103 147.141797 
L 176.622543 147.216449 
L 176.740113 147.336435 
L 176.836306 147.321106 
L 176.953876 147.073653 
L 177.10351 147.149756 
L 177.210392 147.309067 
L 177.215736 147.251996 
L 177.263832 147.251996 
L 177.317273 147.06689 
L 177.376058 147.095034 
L 178.012003 147.167201 
L 178.065444 147.20708 
L 178.070788 147.112937 
L 178.11354 147.112937 
L 178.118884 147.112937 
L 178.172325 146.978698 
L 178.225766 147.103492 
L 178.867055 147.077789 
L 178.973936 146.991503 
L 179.091506 147.204229 
L 179.24114 147.162525 
L 179.294581 146.993539 
L 179.353366 147.081486 
L 179.454903 147.081486 
L 179.567129 147.213889 
L 179.615225 147.213889 
L 179.732795 147.010386 
L 179.775548 147.010386 
L 179.893117 147.232561 
L 179.93587 147.232561 
L 180.05344 146.993411 
L 180.256514 147.038442 
L 180.309955 147.141999 
L 180.315299 147.028282 
L 180.36874 147.075046 
L 180.897803 147.141942 
L 181.004685 147.243712 
L 181.122255 147.026173 
L 181.271889 147.123291 
L 181.37877 147.228443 
L 181.384114 147.167377 
L 181.432211 147.167377 
L 181.485652 147.018451 
L 181.544436 147.127593 
L 182.714789 147.209203 
L 182.76823 147.262154 
L 182.82167 147.217625 
L 182.875111 147.081993 
L 182.933896 147.169042 
L 184.371452 147.268182 
L 184.424893 147.281672 
L 184.430237 147.163459 
L 184.446269 147.163459 
L 184.745537 147.212932 
L 184.798978 147.274686 
L 184.804322 147.126095 
L 184.847075 147.126095 
L 184.90586 147.180977 
L 185.028773 147.335129 
L 185.066182 147.335129 
L 185.173063 147.178976 
L 185.178407 147.243441 
L 186.509082 147.305114 
L 186.615964 147.377498 
L 186.722845 147.239342 
L 186.728189 147.312454 
L 187.898542 147.34944 
L 187.951982 147.432201 
L 188.005423 147.417141 
L 188.112305 147.320176 
L 188.219186 147.423881 
L 188.22453 147.3602 
L 188.753594 147.382888 
L 188.807034 147.480311 
L 188.812378 147.369682 
L 188.865819 147.409972 
L 189.341442 147.427225 
L 189.394882 147.524852 
L 189.453667 147.45663 
L 189.662086 147.541639 
L 189.715527 147.581443 
L 189.720871 147.493834 
L 189.763624 147.493834 
L 189.92929 147.56191 
L 190.036171 147.610995 
L 190.143053 147.478901 
L 190.148397 147.586624 
L 190.784342 147.586567 
L 190.837783 147.705938 
L 190.891223 147.599899 
L 190.998105 147.618429 
L 191.104986 147.740324 
L 191.110331 147.644551 
L 191.158427 147.644551 
L 191.211868 147.770318 
L 191.270653 147.756011 
L 191.853157 147.747939 
L 191.906598 148.030373 
L 191.960038 147.898934 
L 192.013479 147.769732 
L 192.072264 147.79084 
L 192.120361 147.79084 
L 192.227242 147.969221 
L 192.232586 147.831594 
L 192.334124 147.852937 
L 192.441005 148.007016 
L 192.494446 147.880517 
L 192.49979 148.03289 
L 192.547887 148.03289 
L 192.601327 148.03289 
L 192.654768 147.916689 
L 192.708209 147.926216 
L 192.81509 148.113946 
L 192.820435 147.973347 
L 192.868531 147.973347 
L 192.975413 148.145851 
L 192.980757 148.036008 
L 193.135735 148.05254 
L 193.242616 148.284383 
L 193.247961 148.096505 
L 193.296057 148.096505 
L 193.402939 148.338882 
L 193.408283 148.167093 
L 193.563261 148.201155 
L 193.675487 148.435558 
L 193.777024 148.481392 
L 193.830465 148.306672 
L 193.883905 148.357527 
L 193.937346 148.578336 
L 193.996131 148.434895 
L 194.097668 148.434895 
L 194.20455 148.717506 
L 194.209894 148.524647 
L 194.257991 148.524647 
L 194.364872 148.822353 
L 194.370216 148.638811 
L 194.525194 148.691482 
L 194.632076 149.035804 
L 194.63742 148.843811 
L 194.738957 148.946165 
L 194.856527 149.335312 
L 194.89928 149.335312 
L 194.958064 149.305433 
L 195.016849 149.490339 
L 195.059602 149.490339 
L 195.177172 149.946869 
L 195.273365 149.946869 
L 195.380246 150.550088 
L 195.390935 150.504088 
L 195.433687 150.504088 
L 195.551257 151.213007 
L 195.64745 151.201385 
L 195.770364 152.395752 
L 195.861213 152.47227 
L 195.978783 153.345871 
L 196.235298 153.452529 
L 196.352868 155.744779 
L 196.395621 155.744779 
L 196.51319 157.054806 
L 196.555943 157.054806 
L 196.673513 158.471135 
L 196.769706 158.471135 
L 196.89262 160.486091 
L 196.930028 160.486091 
L 197.06363 162.13291 
L 197.09035 162.13291 
L 197.218608 163.360694 
L 197.250673 163.360694 
L 197.37893 165.198117 
L 197.410995 165.198117 
L 197.533909 167.698226 
L 197.571317 167.698226 
L 197.688887 168.739655 
L 197.731639 168.739655 
L 197.849209 170.912195 
L 197.891962 170.912195 
L 198.009531 172.586804 
L 198.052284 172.586804 
L 198.175198 175.420407 
L 198.212606 175.420407 
L 198.33552 177.126023 
L 198.372928 177.126023 
L 198.501186 179.389608 
L 198.586691 179.389608 
L 198.709605 182.199479 
L 198.747014 182.199479 
L 198.864583 183.701655 
L 198.907336 183.701655 
L 199.126443 158.116352 
L 199.17454 158.116352 
L 199.31883 104.634629 
L 199.334862 104.634629 
L 199.452431 80.769388 
L 199.495184 80.769388 
L 199.612754 47.404333 
L 199.655506 47.404333 
L 199.773076 32.71577 
L 199.869269 32.71577 
L 199.992183 33.700192 
L 200.136473 33.700192 
L 200.254043 38.858031 
L 200.296795 38.858031 
L 200.414365 42.279047 
L 200.457118 42.279047 
L 200.569343 43.96324 
L 200.61744 43.96324 
L 200.735009 49.226341 
L 200.777762 49.226341 
L 200.895332 53.015773 
L 200.991525 53.015773 
L 201.103751 54.91049 
L 201.151847 54.91049 
L 201.269417 60.542008 
L 201.36561 60.542008 
L 201.48318 66.647205 
L 201.686255 66.647205 
L 201.814513 75.120798 
L 201.900018 75.120798 
L 202.017587 79.647065 
L 202.167222 79.647065 
L 202.284791 86.804882 
L 202.434425 86.804882 
L 202.551995 94.489009 
L 202.701629 94.489009 
L 202.819199 102.85734 
L 202.968833 102.85734 
L 203.086402 111.962505 
L 203.182596 111.962505 
L 203.300165 121.909766 
L 203.50324 121.909766 
L 203.615466 133.435957 
L 203.717003 133.435957 
L 203.834573 142.120074 
L 203.930766 142.120074 
L 204.042992 145.06741 
L 204.091089 145.06741 
L 204.214002 147.413636 
L 204.304852 147.441164 
L 204.422421 148.256744 
L 204.678937 148.363243 
L 204.785818 148.391256 
L 204.8927 148.212548 
L 204.898044 148.239791 
L 204.999581 148.239791 
L 205.106463 147.959599 
L 205.117151 147.987126 
L 205.159904 147.987126 
L 205.277473 147.813032 
L 205.373667 147.841276 
L 205.491236 147.521396 
L 205.64087 147.454791 
L 205.747752 147.338425 
L 205.75844 147.367856 
L 205.801192 147.367856 
L 205.918762 147.202329 
L 206.282159 147.15908 
L 206.3356 147.088408 
L 206.394385 147.129421 
L 206.656244 147.020415 
L 206.709685 146.993399 
L 206.763126 147.024753 
L 206.891384 147.049868 
L 210.076452 147.13102 
L 210.20471 147.262963 
L 210.503978 147.349813 
L 210.557419 147.421881 
L 210.616204 147.402047 
L 211.626234 147.302484 
L 211.679675 147.251155 
L 211.733116 147.283235 
L 211.839997 147.321682 
L 211.946879 147.214389 
L 211.957567 147.253681 
L 212.427845 147.16211 
L 212.481286 147.07073 
L 212.534727 147.110707 
L 212.588168 147.191276 
L 212.646952 147.137856 
L 218.840735 147.192471 
L 218.894176 147.25319 
L 218.89952 147.183279 
L 218.952961 147.244424 
L 221.138688 147.284189 
L 221.245569 147.357169 
L 221.250913 147.343819 
L 222.04718 147.323251 
L 222.100621 147.483211 
L 222.154062 147.378664 
L 222.207502 147.305712 
L 222.260943 147.314991 
L 222.314384 147.397399 
L 222.367825 147.326548 
L 222.528147 147.424395 
L 222.581588 147.440902 
L 222.586932 147.34585 
L 222.618996 147.34585 
L 223.169436 147.384194 
L 223.222877 147.472805 
L 223.228221 147.373494 
L 223.281662 147.465347 
L 223.650403 147.407772 
L 223.757284 147.599933 
L 223.762628 147.527222 
L 224.87954 147.529491 
L 224.986421 147.659554 
L 225.093303 147.540923 
L 225.210873 147.688735 
L 225.948355 147.674065 
L 226.001796 147.806663 
L 226.055236 147.680043 
L 226.32244 147.733171 
L 226.429322 147.906432 
L 226.434666 147.776747 
L 226.482762 147.776747 
L 226.589644 147.94389 
L 226.643085 147.800937 
L 226.701869 147.81318 
L 226.749966 147.81318 
L 226.803407 147.965912 
L 226.862192 147.859838 
L 226.963729 147.873995 
L 227.01717 148.034247 
L 227.075955 147.925015 
L 227.124051 147.925015 
L 227.230933 148.090513 
L 227.284374 147.942236 
L 227.337814 147.969281 
L 227.444696 148.180084 
L 227.45004 148.009894 
L 227.551577 148.044631 
L 227.605018 148.22705 
L 227.663803 148.086776 
L 227.7119 148.086776 
L 227.818781 148.275538 
L 227.824125 148.13343 
L 227.925663 148.154141 
L 228.037888 148.350815 
L 228.192866 148.388708 
L 228.299748 148.521863 
L 228.353189 148.336582 
L 228.358533 148.557158 
L 228.406629 148.557158 
L 228.513511 148.591968 
L 228.566952 148.410164 
L 228.620392 148.471226 
L 228.737962 148.756689 
L 228.834155 148.807464 
L 228.887596 148.622709 
L 228.941037 148.672161 
L 228.994478 148.934769 
L 229.053262 148.83708 
L 229.1548 148.83708 
L 229.261681 149.220538 
L 229.267025 149.028544 
L 229.315122 149.028544 
L 229.448724 149.623775 
L 229.528885 149.623775 
L 229.582326 149.493953 
L 229.58767 149.712267 
L 229.635767 149.712267 
L 229.742648 150.288474 
L 229.753336 150.224052 
L 229.796089 150.224052 
L 229.908314 150.529908 
L 229.956411 150.529908 
L 230.079325 151.579755 
L 230.170174 151.607559 
L 230.287744 152.47592 
L 230.330496 152.47592 
L 230.448066 153.337847 
L 230.490819 153.337847 
L 230.613732 154.528481 
L 230.651141 154.528481 
L 230.774055 155.543124 
L 230.811463 155.543124 
L 230.955753 156.801633 
L 230.971785 156.801633 
L 231.089355 157.704299 
L 231.132108 157.704299 
L 231.260365 159.645278 
L 231.29243 159.645278 
L 231.420688 160.724359 
L 231.452752 160.724359 
L 231.58101 162.380355 
L 231.613074 162.380355 
L 231.735988 163.773403 
L 231.773397 163.773403 
L 231.906998 165.602659 
L 231.933719 165.602659 
L 232.056633 167.99014 
L 232.094041 167.99014 
L 232.211611 169.044138 
L 232.254363 169.044138 
L 232.371933 170.688233 
L 232.414686 170.688233 
L 232.532255 174.040525 
L 232.575008 174.040525 
L 232.703266 176.310856 
L 232.73533 176.310856 
L 232.858244 178.012291 
L 232.895652 178.012291 
L 233.02391 180.272292 
L 233.055975 180.272292 
L 233.184232 182.518711 
L 233.216297 182.518711 
L 233.333866 183.702106 
L 233.43006 183.701655 
L 233.542285 180.041351 
L 233.643823 180.041351 
L 233.846898 116.760532 
L 233.857586 116.760532 
L 233.985844 69.97901 
L 234.017908 69.97901 
L 234.135478 41.570381 
L 234.17823 41.570381 
L 234.2958 32.492484 
L 234.338553 32.492484 
L 234.391993 31.705578 
L 234.450778 32.279155 
L 234.498875 32.279155 
L 234.616444 35.542278 
L 234.659197 35.542278 
L 234.776767 39.068556 
L 234.87296 39.068556 
L 234.985186 40.752748 
L 235.033282 40.752748 
L 235.150852 45.857956 
L 235.193605 45.857956 
L 235.311174 49.489496 
L 235.353927 49.489496 
L 235.466152 51.331581 
L 235.514249 51.331581 
L 235.631819 56.963099 
L 235.781453 56.963099 
L 235.899022 62.75251 
L 236.048657 62.75251 
L 236.166226 68.910338 
L 236.26242 68.910338 
L 236.379989 75.383953 
L 236.583064 75.383953 
L 236.700634 82.173353 
L 236.796827 82.173353 
L 236.914397 89.541694 
L 237.064031 89.541694 
L 237.1816 97.541608 
L 237.277794 97.541608 
L 237.395363 106.120463 
L 237.598438 106.120463 
L 237.716008 115.488783 
L 237.812201 115.488783 
L 237.929771 125.962354 
L 238.079405 125.962354 
L 238.196975 137.488545 
L 238.346609 137.488545 
L 238.464178 143.909528 
L 238.560372 143.909528 
L 238.683285 146.885274 
L 238.720694 146.885274 
L 238.838264 147.862421 
L 238.934457 147.862421 
L 239.046683 148.09855 
L 239.14822 148.09855 
L 239.255101 148.389743 
L 239.26579 148.312188 
L 239.415424 148.289117 
L 239.532993 148.087303 
L 239.575746 148.087303 
L 239.693316 147.8603 
L 239.84295 147.790292 
L 239.955175 147.646775 
L 240.003272 147.646775 
L 240.120842 147.42605 
L 240.270476 147.381808 
L 240.382701 147.27451 
L 240.751442 147.200156 
L 240.8797 147.049 
L 244.064769 147.09384 
L 244.17165 147.163646 
L 244.176994 147.139988 
L 244.652617 147.246011 
L 244.770187 147.28343 
L 244.86638 147.389817 
L 244.973262 147.496782 
L 244.978606 147.440349 
L 245.988636 147.37277 
L 246.042077 147.320215 
L 246.100861 147.358374 
L 246.25584 147.292975 
L 246.30928 147.235507 
L 246.368065 147.262439 
L 247.217773 147.181989 
L 247.271214 147.091735 
L 247.329999 147.127257 
L 252.989374 147.186798 
L 253.042815 147.245245 
L 253.1016 147.217213 
L 255.340767 147.31933 
L 255.394208 147.329448 
L 255.399552 147.269311 
L 255.43696 147.269311 
L 256.730226 147.33298 
L 256.783667 147.414092 
L 256.789011 147.311484 
L 256.837108 147.311484 
L 257.157752 147.342281 
L 257.211193 147.427065 
L 257.216537 147.332393 
L 257.264634 147.332393 
L 257.318075 147.326024 
L 257.323419 147.412567 
L 257.339451 147.412567 
L 258.44033 147.425857 
L 258.547212 147.529854 
L 258.552556 147.465324 
L 258.867856 147.565571 
L 258.921297 147.583186 
L 258.926641 147.472833 
L 258.953362 147.472833 
L 259.028179 147.497477 
L 259.081619 147.604396 
L 259.13506 147.498805 
L 259.241942 147.503719 
L 259.348823 147.62312 
L 259.354167 147.525398 
L 259.455705 147.542212 
L 259.509145 147.655437 
L 259.514489 147.537987 
L 259.56793 147.563373 
L 259.669468 147.563373 
L 259.776349 147.68454 
L 259.82979 147.574836 
L 259.835134 147.694122 
L 259.883231 147.694122 
L 259.936671 147.708874 
L 259.942015 147.605882 
L 259.968736 147.605882 
L 260.096994 147.603437 
L 260.203875 147.756838 
L 260.209219 147.638716 
L 260.364197 147.65196 
L 260.417638 147.910104 
L 260.476423 147.800336 
L 260.631401 147.800336 
L 260.684842 147.669608 
L 260.690186 147.846809 
L 260.738283 147.846809 
L 260.791723 147.866043 
L 260.797067 147.728582 
L 260.818444 147.728582 
L 260.845164 147.728582 
L 260.952046 147.900654 
L 260.95739 147.772088 
L 261.058927 147.772088 
L 261.171153 147.916725 
L 261.539894 147.889481 
L 261.593335 148.049634 
L 261.646775 147.889945 
L 261.796409 148.105468 
L 261.860538 148.105468 
L 261.913979 147.962947 
L 261.96742 147.979263 
L 262.020861 148.154477 
L 262.079645 148.038116 
L 262.127742 148.038116 
L 262.239968 148.248955 
L 262.341505 148.288544 
L 262.448387 148.128062 
L 262.565956 148.381855 
L 262.608709 148.381855 
L 262.66215 148.225874 
L 262.71559 148.246682 
L 262.83316 148.514784 
L 262.875913 148.514784 
L 262.929353 148.330853 
L 262.982794 148.376556 
L 263.036235 148.601129 
L 263.09502 148.463805 
L 263.249998 148.507192 
L 263.303439 148.749174 
L 263.362223 148.614998 
L 263.41032 148.614998 
L 263.517202 148.943349 
L 263.522546 148.751861 
L 263.677524 148.751861 
L 263.730965 149.021046 
L 263.789749 149.018642 
L 263.837846 149.018642 
L 263.891287 149.310756 
L 263.950072 149.305026 
L 263.998168 149.305026 
L 264.10505 149.80148 
L 264.115738 149.703568 
L 264.158491 149.703568 
L 264.27606 150.279665 
L 264.318813 150.279665 
L 264.436382 150.869152 
L 264.479135 150.869152 
L 264.591361 151.216002 
L 264.639457 151.216002 
L 264.757027 152.023837 
L 264.85322 152.023837 
L 264.976134 153.43001 
L 265.013543 153.43001 
L 265.136456 154.516571 
L 265.173865 154.516571 
L 265.296779 155.531102 
L 265.334187 155.531102 
L 265.462445 156.14702 
L 265.601391 156.14702 
L 265.734993 158.876419 
L 265.761713 158.876419 
L 265.900659 160.402824 
L 265.975476 160.402824 
L 266.09839 162.36725 
L 266.189239 162.36725 
L 266.322841 164.660244 
L 266.349561 164.660244 
L 266.483163 166.543045 
L 266.509884 166.543045 
L 266.638141 168.07059 
L 266.670206 168.07059 
L 266.803808 170.108829 
L 266.830528 170.108829 
L 266.958786 172.32954 
L 266.99085 172.32954 
L 267.10842 174.02668 
L 267.151173 174.02668 
L 267.27943 176.294829 
L 267.311495 176.294829 
L 267.434409 177.998473 
L 267.471817 177.998473 
L 267.594731 180.819329 
L 267.632139 180.819329 
L 267.760397 183.064852 
L 267.845902 183.064852 
L 267.958128 183.701429 
L 268.006225 183.701429 
L 268.139826 165.414416 
L 268.166547 165.414416 
L 268.289461 128.913427 
L 268.326869 128.913427 
L 268.444439 92.465095 
L 268.487191 92.465095 
L 268.604761 46.073923 
L 268.647514 46.073923 
L 268.770427 34.841847 
L 268.807836 34.841847 
L 268.920061 32.279155 
L 269.021599 32.279155 
L 269.139168 35.594909 
L 269.181921 35.594909 
L 269.294147 37.279101 
L 269.395684 37.279101 
L 269.513254 42.489571 
L 269.556006 42.489571 
L 269.673576 45.857956 
L 269.716329 45.857956 
L 269.828554 47.64741 
L 269.930092 47.64741 
L 270.047661 55.173645 
L 270.143855 55.173645 
L 270.261424 58.910446 
L 270.411058 58.910446 
L 270.528628 64.80512 
L 270.678262 64.80512 
L 270.795832 71.120841 
L 270.892025 71.120841 
L 271.004251 75.436584 
L 271.105788 75.436584 
L 271.218014 77.699717 
L 271.26611 77.699717 
L 271.38368 87.120668 
L 271.533314 87.120668 
L 271.650884 94.910058 
L 271.747077 94.910058 
L 271.864647 103.278388 
L 272.067721 103.278388 
L 272.185291 112.436184 
L 272.281484 112.436184 
L 272.399054 122.436076 
L 272.548688 122.436076 
L 272.666258 134.067529 
L 272.815892 134.067529 
L 272.933462 142.383229 
L 273.083096 142.383229 
L 273.200665 146.885274 
L 273.296859 146.913167 
L 273.414428 147.835177 
L 273.457181 147.835177 
L 273.574751 148.283244 
L 273.991588 148.289117 
L 274.09847 148.059897 
L 274.109158 148.087303 
L 274.258792 147.987126 
L 274.365674 147.761493 
L 274.376362 147.789778 
L 274.472555 147.692103 
L 274.579437 147.470105 
L 274.595469 147.499284 
L 274.739759 147.42605 
L 274.84664 147.287386 
L 274.862673 147.31686 
L 275.113844 147.2325 
L 275.220726 147.119157 
L 275.231414 147.149499 
L 275.594811 147.090357 
L 275.648252 147.020415 
L 275.707036 147.062868 
L 278.908137 147.093206 
L 279.025707 147.210303 
L 279.06846 147.210303 
L 279.175341 147.397964 
L 279.180685 147.294093 
L 279.495986 147.389817 
L 279.549426 147.496204 
L 279.608211 147.465604 
L 280.564801 147.417235 
L 280.671682 147.306104 
L 280.677026 147.343762 
L 280.885445 147.318078 
L 280.992327 147.211366 
L 280.997671 147.250054 
L 281.312971 147.180478 
L 281.425197 147.127225 
L 287.832742 147.237482 
L 287.886183 147.249442 
L 287.891527 147.166161 
L 287.918248 147.166161 
L 288.527472 147.217101 
L 288.634354 147.280235 
L 288.639698 147.268181 
L 290.184135 147.264202 
L 290.237576 147.410459 
L 290.291017 147.321521 
L 290.344458 147.266343 
L 290.403243 147.286111 
L 291.092628 147.394923 
L 291.146069 147.39934 
L 291.25295 147.293486 
L 291.258295 147.301347 
L 291.573595 147.33686 
L 291.680476 147.43735 
L 291.787358 147.332393 
L 291.792702 147.418504 
L 293.230258 147.464353 
L 293.283699 147.549188 
L 293.33714 147.461405 
L 293.39058 147.347604 
L 293.395924 147.556222 
L 293.438677 147.556222 
L 294.192192 147.562331 
L 294.245632 147.678003 
L 294.299073 147.566019 
L 294.512836 147.707811 
L 294.566277 147.604813 
L 294.619718 147.627089 
L 294.673158 147.750821 
L 294.726599 147.630075 
L 294.876233 147.650861 
L 294.886921 147.650861 
L 294.993803 147.779384 
L 295.047244 147.668722 
L 295.052588 147.801092 
L 295.106028 147.698101 
L 295.207566 147.710071 
L 295.261007 147.846809 
L 295.266351 147.703859 
L 295.314447 147.703859 
L 295.464081 147.868559 
L 295.795414 147.829399 
L 295.90764 147.981965 
L 295.955736 147.981965 
L 296.009177 147.853774 
L 296.062618 147.867879 
L 296.169499 148.02813 
L 296.22294 147.888711 
L 296.228284 148.084291 
L 296.276381 148.084291 
L 296.383262 148.105468 
L 296.436703 147.962947 
L 296.442047 148.133979 
L 296.490144 148.133979 
L 296.543585 148.173693 
L 296.548929 148.022539 
L 296.586337 148.022539 
L 296.650466 148.036813 
L 296.762692 148.248955 
L 296.91767 148.288544 
L 296.971111 148.126719 
L 297.024551 148.146003 
L 297.131433 148.399483 
L 297.136777 148.224489 
L 297.238314 148.263944 
L 297.291755 148.473942 
L 297.345196 148.29817 
L 297.558959 148.32942 
L 297.687217 148.698308 
L 297.719281 148.698308 
L 297.826163 148.505689 
L 297.831507 148.567174 
L 297.879603 148.567174 
L 297.933044 148.815226 
L 297.991829 148.679305 
L 298.039926 148.679305 
L 298.157495 149.019462 
L 298.307129 148.926042 
L 298.414011 149.310756 
L 298.419355 149.147893 
L 298.467452 149.147893 
L 298.590365 149.611906 
L 298.627774 149.611906 
L 298.734655 149.799761 
L 298.739999 149.701828 
L 298.788096 149.701828 
L 298.905666 150.517276 
L 298.948418 150.517276 
L 299.001859 150.867348 
L 299.060644 150.84828 
L 299.108741 150.84828 
L 299.22631 151.59449 
L 299.269063 151.59449 
L 299.391977 152.853456 
L 299.536267 152.929313 
L 299.65918 154.369614 
L 299.696589 154.369614 
L 299.830191 155.089824 
L 299.856911 155.089824 
L 299.979825 156.14702 
L 300.017233 156.14702 
L 300.140147 157.69183 
L 300.230996 157.69183 
L 300.348566 159.146455 
L 300.391319 159.146455 
L 300.508888 160.39698 
L 300.551641 160.39698 
L 300.674555 162.880534 
L 300.711963 162.880534 
L 300.845565 164.662462 
L 300.925726 164.662462 
L 301.059328 166.539795 
L 301.139489 166.539795 
L 301.262403 169.589744 
L 301.299811 169.589744 
L 301.428069 171.781359 
L 301.513574 171.781359 
L 301.641832 174.028988 
L 301.780778 174.028988 
L 301.903692 177.431082 
L 301.9411 177.431082 
L 302.05867 179.695636 
L 302.154863 179.695636 
L 302.272433 181.946628 
L 302.315186 181.946628 
L 302.432755 183.702106 
L 302.528949 183.701429 
L 302.715991 165.425987 
L 302.742712 165.425987 
L 302.860281 139.870667 
L 302.903034 139.870667 
L 303.015259 116.760532 
L 303.063356 116.760532 
L 303.202302 53.127637 
L 303.223678 53.127637 
L 303.341248 34.689771 
L 303.384 34.689771 
L 303.490882 32.71577 
L 303.496226 33.065422 
L 303.597763 33.065422 
L 303.709989 33.700192 
L 303.758086 33.700192 
L 303.875655 38.858031 
L 303.918408 38.858031 
L 304.035978 42.279047 
L 304.07873 42.279047 
L 304.190956 43.910608 
L 304.239052 43.910608 
L 304.356622 49.278972 
L 304.399375 49.278972 
L 304.5116 51.121057 
L 304.559697 51.121057 
L 304.677267 54.857859 
L 304.77346 54.857859 
L 304.89103 60.594639 
L 305.040664 60.594639 
L 305.158233 66.594574 
L 305.254427 66.594574 
L 305.371996 72.962926 
L 305.575071 72.962926 
L 305.692641 79.647065 
L 305.788834 79.647065 
L 305.906404 86.804882 
L 306.056038 86.804882 
L 306.173608 94.594271 
L 306.323242 94.594271 
L 306.440811 102.909971 
L 306.590445 102.909971 
L 306.708015 112.015136 
L 306.804208 112.015136 
L 306.921778 122.015028 
L 307.124853 122.015028 
L 307.237079 133.59385 
L 307.338616 133.59385 
L 307.456186 142.172705 
L 307.60582 142.172705 
L 307.712701 145.786075 
L 307.718045 145.223425 
L 307.766142 145.223425 
L 307.889056 141.6247 
L 307.926464 141.6247 
L 308.049378 132.500617 
L 308.140227 132.500617 
L 308.257797 128.265757 
L 308.300549 128.265757 
L 308.35399 125.948133 
L 308.412775 126.009882 
L 308.567753 126.009882 
L 308.696011 138.25286 
L 308.728075 138.25286 
L 308.781516 137.686208 
L 308.78686 141.927084 
L 308.802892 141.927084 
L 308.834957 141.927084 
L 308.952527 148.710469 
L 308.995279 148.710469 
L 309.107505 151.198156 
L 309.155601 151.198156 
L 309.273171 154.471429 
L 309.369364 154.471429 
L 309.422805 154.60236 
L 309.476246 154.471429 
L 309.529687 154.471429 
L 309.6526 153.685844 
L 309.74345 153.685844 
L 309.871707 151.983742 
L 309.957213 151.983742 
L 310.074782 150.936294 
L 310.545061 150.936294 
L 310.662631 148.186745 
L 310.758824 148.186745 
L 310.881738 147.793952 
L 310.919146 147.793952 
L 311.036716 147.532091 
L 311.079468 147.532091 
L 311.197038 147.270229 
L 311.239791 147.270229 
L 311.352016 147.139298 
L 311.400113 147.139298 
L 311.512338 147.008367 
L 311.613876 147.008367 
L 311.726101 146.877436 
L 312.736132 146.877436 
L 312.848357 146.746505 
L 313.484302 146.746505 
L 313.537743 146.877436 
L 313.591184 146.746505 
L 314.392795 146.746505 
L 314.499676 146.877436 
L 314.611902 146.746505 
L 314.820321 146.746505 
L 314.932546 146.877436 
L 315.087525 146.877436 
L 315.140965 146.746505 
L 315.194406 146.877436 
L 315.46161 146.877436 
L 315.573835 146.746505 
L 315.675373 146.746505 
L 315.782254 146.877436 
L 315.89448 146.746505 
L 316.15634 146.746505 
L 316.20978 146.877436 
L 316.263221 146.746505 
L 316.583866 146.746505 
L 316.717467 147.856576 
L 316.797629 147.856576 
L 316.93123 150.74276 
L 316.957951 150.74276 
L 317.080865 153.752829 
L 317.118273 153.752829 
L 317.235843 157.31045 
L 317.278595 157.31045 
L 317.385477 159.717658 
L 317.396165 159.211895 
L 317.438918 159.211895 
L 317.492358 160.315528 
L 317.545799 160.225329 
L 317.652681 158.744515 
L 317.658025 159.407482 
L 317.706121 159.407482 
L 317.829035 155.814127 
L 317.866444 155.814127 
L 317.978669 153.333486 
L 318.026766 153.333486 
L 318.133647 147.301221 
L 318.144335 147.310275 
L 318.240529 147.310275 
L 318.358098 144.756719 
L 318.400851 144.756719 
L 318.507733 144.44736 
L 318.513077 144.458247 
L 318.561173 144.458247 
L 318.668055 144.276977 
L 318.673399 144.351505 
L 318.988699 144.425975 
L 319.116957 145.145936 
L 319.202462 145.156136 
L 319.320032 145.567163 
L 319.362785 145.567163 
L 319.480354 145.924491 
L 319.576548 145.924491 
L 319.699461 146.290548 
L 319.843751 146.362694 
L 319.955977 146.444164 
L 320.057514 146.516186 
L 320.180428 146.660062 
L 320.48504 146.760409 
L 320.607954 146.798226 
L 328.28739 146.890331 
L 328.34083 146.911502 
L 328.346174 146.871826 
L 328.399615 146.882155 
L 337.211995 146.989585 
L 337.265435 146.999938 
L 337.318876 146.963803 
L 337.372317 146.891042 
L 337.431102 146.922801 
L 338.868658 147.031898 
L 338.922099 147.042941 
L 338.927443 146.971431 
L 338.959507 146.971431 
L 382.422869 147.060538 
L 382.476309 147.082795 
L 382.481653 147.041966 
L 382.52975 147.041966 
L 382.679384 147.073498 
L 387.339417 147.117625 
L 387.392858 147.21504 
L 387.446299 147.149824 
L 387.55318 147.115722 
L 387.606621 147.215132 
L 387.665406 147.173986 
L 391.026829 147.258169 
L 391.08027 147.285229 
L 391.085614 147.209787 
L 391.128367 147.209787 
L 391.988763 147.253145 
L 392.100988 147.327348 
L 394.072952 147.362016 
L 394.126393 147.446914 
L 394.179833 147.358979 
L 394.553919 147.478309 
L 394.607359 147.488689 
L 394.612703 147.393048 
L 394.63408 147.393048 
L 394.874563 147.411885 
L 394.981445 147.505861 
L 395.034885 147.419068 
L 395.09367 147.440834 
L 395.302089 147.457551 
L 395.35553 147.555632 
L 395.408971 147.463467 
L 395.676174 147.481775 
L 395.783056 147.604009 
L 395.7884 147.506196 
L 395.889937 147.610996 
L 395.996819 147.622096 
L 396.05026 147.514253 
L 396.1037 147.531406 
L 396.157141 147.639789 
L 396.210582 147.537574 
L 396.419001 147.673483 
L 397.119075 147.773655 
L 397.172515 147.787721 
L 397.177859 147.676142 
L 397.199236 147.676142 
L 397.279397 147.698152 
L 397.386278 147.828117 
L 397.439719 147.709848 
L 397.498504 147.738508 
L 397.546601 147.738508 
L 397.600041 147.875191 
L 397.653482 147.75579 
L 397.760364 147.904417 
L 397.80846 147.79308 
L 397.920686 147.828528 
L 398.027567 148.000849 
L 398.032911 147.876933 
L 398.081008 147.876933 
L 398.18789 148.055661 
L 398.193234 147.940733 
L 398.348212 147.970095 
L 398.455093 148.166514 
L 398.460437 148.039613 
L 398.561975 148.039613 
L 398.615416 148.200983 
L 398.6742 148.18346 
L 398.722297 148.18346 
L 398.829179 148.353123 
L 398.834523 148.321285 
L 398.93606 148.321285 
L 398.989501 148.495855 
L 399.048286 148.489738 
L 399.096382 148.489738 
L 399.208608 148.669285 
L 399.310145 148.669285 
L 399.443747 149.241519 
L 399.470468 149.241519 
L 399.588037 149.880262 
L 399.63079 149.880262 
L 399.753703 150.78676 
L 399.897994 150.78676 
L 400.020907 151.76665 
L 400.058316 151.76665 
L 400.175885 152.555858 
L 400.218638 152.555858 
L 400.336208 153.135537 
L 400.37896 153.135537 
L 400.501874 154.142788 
L 400.539283 154.142788 
L 400.662196 154.717369 
L 400.699605 154.717369 
L 400.827863 155.485361 
L 400.859927 155.485361 
L 400.977497 156.075934 
L 401.020249 156.075934 
L 401.143163 156.638956 
L 401.180571 156.638956 
L 401.303485 157.585426 
L 401.340894 157.585426 
L 401.469152 158.329424 
L 401.501216 158.329424 
L 401.618786 158.88056 
L 401.714979 158.88056 
L 401.832549 159.631615 
L 401.875301 159.631615 
L 401.992871 160.733158 
L 402.089064 160.733158 
L 402.206634 161.475397 
L 402.302827 161.475397 
L 402.420397 162.576576 
L 402.51659 162.576576 
L 402.644848 163.317965 
L 402.676912 163.317965 
L 402.799826 164.228345 
L 402.944116 164.228345 
L 403.061686 165.153415 
L 403.157879 165.153415 
L 403.275449 166.24869 
L 403.371642 166.24869 
L 403.494556 167.170818 
L 403.638846 167.170818 
L 403.756416 167.900458 
L 403.799168 167.900458 
L 403.916738 169.001638 
L 404.012931 169.001638 
L 404.125157 169.367939 
L 404.173253 169.367939 
L 404.290823 170.287105 
L 404.333576 170.287105 
L 404.456489 171.203996 
L 404.493898 171.203996 
L 404.606124 171.572572 
L 404.65422 171.572572 
L 404.766446 171.938873 
L 404.814542 171.938873 
L 404.9428 173.408629 
L 405.028305 173.408629 
L 405.151219 173.959219 
L 405.188628 173.959219 
L 405.311541 174.876109 
L 405.509272 174.876109 
L 405.621498 175.977288 
L 405.669594 175.977288 
L 405.787164 177.080743 
L 405.883357 177.080743 
L 406.000927 177.813345 
L 406.04368 177.813345 
L 406.155905 177.997634 
L 406.204002 177.997634 
L 406.321572 179.098813 
L 406.417765 179.098813 
L 406.535335 180.199992 
L 406.578087 180.199992 
L 406.690313 180.38428 
L 406.738409 180.38428 
L 406.855979 181.485459 
L 406.952172 181.485459 
L 407.069742 182.586638 
L 407.219376 182.586638 
L 407.331602 183.014369 
L 407.379698 183.014369 
L 407.636214 149.05983 
L 407.753784 149.05983 
L 407.871353 80.292388 
L 407.967547 80.292388 
L 408.085116 41.000288 
L 408.127869 41.000288 
L 408.256127 29.900191 
L 408.288191 29.900191 
L 408.427137 31.567133 
L 408.608836 31.567133 
L 408.726405 36.852038 
L 408.822599 36.852038 
L 408.940168 41.923412 
L 409.089802 41.923412 
L 409.207372 47.2617 
L 409.357006 47.2617 
L 409.474576 52.973668 
L 409.62421 52.973668 
L 409.736435 56.71047 
L 409.784532 56.71047 
L 409.896758 58.632254 
L 409.944854 58.632254 
L 410.062424 66.853218 
L 410.212058 66.853218 
L 410.329628 73.312546 
L 410.479262 73.312546 
L 410.596832 80.145555 
L 410.746466 80.145555 
L 410.864035 87.565776 
L 411.013669 87.565776 
L 411.131239 95.573208 
L 411.227432 95.573208 
L 411.345002 104.167852 
L 411.494636 104.167852 
L 411.612206 113.509857 
L 411.76184 113.509857 
L 411.879409 123.972901 
L 411.975603 123.972901 
L 412.093172 135.823901 
L 412.242807 135.823901 
L 412.360376 143.297505 
L 412.403129 143.297505 
L 412.51001 145.580963 
L 412.515354 145.023122 
L 412.563451 145.023122 
L 412.681021 143.279719 
L 412.723773 143.279719 
L 412.862719 133.988771 
L 412.884096 133.988771 
L 413.007009 130.278102 
L 413.044418 130.278102 
L 413.097859 127.679301 
L 413.156643 128.681008 
L 413.20474 128.681008 
L 413.258181 126.5759 
L 413.263525 129.711835 
L 413.311622 129.711835 
L 413.365062 129.711835 
L 413.49332 138.764684 
L 413.525385 138.764684 
L 413.578825 138.345519 
L 413.584169 142.590631 
L 413.685707 142.590631 
L 413.803276 149.103262 
L 413.846029 149.103262 
L 413.963599 153.031189 
L 414.006351 153.031189 
L 414.123921 154.471429 
L 414.273555 154.471429 
L 414.401813 153.947705 
L 414.433877 153.947705 
L 414.556791 153.031189 
L 414.64764 153.031189 
L 414.770554 151.852811 
L 414.807963 151.852811 
L 414.925532 150.805363 
L 414.968285 150.805363 
L 415.085854 149.757916 
L 415.288929 149.757916 
L 415.417187 148.317676 
L 415.449252 148.317676 
L 415.572165 147.924883 
L 415.609574 147.924883 
L 415.732488 147.532091 
L 415.823337 147.532091 
L 415.940906 147.270229 
L 416.0371 147.270229 
L 416.149325 147.139298 
L 416.197422 147.139298 
L 416.309648 147.008367 
L 416.518067 147.008367 
L 416.630292 146.877436 
L 417.48 146.877436 
L 417.48 146.877436 
" style="fill:none;stroke:#e41a1c;stroke-linecap:square;stroke-width:2;"/>
   </g>
   <g id="patch_3">
    <path d="M 79.79325 230.88 
L 79.79325 14.52 
" style="fill:none;stroke:#000000;stroke-linecap:square;stroke-linejoin:miter;stroke-width:0.8;"/>
   </g>
   <g id="patch_4">
    <path d="M 417.48 230.88 
L 417.48 14.52 
" style="fill:none;"/>
   </g>
   <g id="patch_5">
    <path d="M 79.79325 230.88 
L 417.48 230.88 
" style="fill:none;stroke:#000000;stroke-linecap:square;stroke-linejoin:miter;stroke-width:0.8;"/>
   </g>
   <g id="patch_6">
    <path d="M 79.79325 14.52 
L 417.48 14.52 
" style="fill:none;"/>
   </g>
   <g id="legend_1">
    <g id="patch_7">
     <path d="M 84.59325 229.28 
L 240.97652 229.28 
Q 244.17652 229.28 244.17652 226.08 
L 244.17652 204.54415 
Q 244.17652 201.34415 240.97652 201.34415 
L 84.59325 201.34415 
Q 81.39325 201.34415 81.39325 204.54415 
L 81.39325 226.08 
Q 81.39325 229.28 84.59325 229.28 
z
" style="fill:#ffffff;stroke:#000000;stroke-linejoin:miter;"/>
    </g>
    <g id="line2d_13">
     <path d="M 87.79325 214.00011 
L 119.79325 214.00011 
" style="fill:none;stroke:#e41a1c;stroke-linecap:square;stroke-width:2;"/>
    </g>
    <g id="line2d_14"/>
    <g id="text_14">
     <!-- Surface Speed -->
     <g transform="translate(132.59325 219.60011)scale(0.16 -0.16)">
      <use transform="translate(0 -1.570628)scale(0.996264)" xlink:href="#Century_Schoolbook_L_Roman-83"/>
      <use transform="translate(62.763979 -1.570628)scale(0.996264)" xlink:href="#Century_Schoolbook_L_Roman-117"/>
      <use transform="translate(123.63561 -1.570628)scale(0.996264)" xlink:href="#Century_Schoolbook_L_Roman-114"/>
      <use transform="translate(167.869178 -1.570628)scale(0.996264)" xlink:href="#Century_Schoolbook_L_Roman-102"/>
      <use transform="translate(201.044408 -1.570628)scale(0.996264)" xlink:href="#Century_Schoolbook_L_Roman-97"/>
      <use transform="translate(256.436085 -1.570628)scale(0.996264)" xlink:href="#Century_Schoolbook_L_Roman-99"/>
      <use transform="translate(300.669654 -1.570628)scale(0.996264)" xlink:href="#Century_Schoolbook_L_Roman-101"/>
      <use transform="translate(378.178024 -1.570628)scale(0.996264)" xlink:href="#Century_Schoolbook_L_Roman-83"/>
      <use transform="translate(440.942003 -1.570628)scale(0.996264)" xlink:href="#Century_Schoolbook_L_Roman-112"/>
      <use transform="translate(498.12749 -1.570628)scale(0.996264)" xlink:href="#Century_Schoolbook_L_Roman-101"/>
      <use transform="translate(547.940691 -1.570628)scale(0.996264)" xlink:href="#Century_Schoolbook_L_Roman-101"/>
      <use transform="translate(597.753891 -1.570628)scale(0.996264)" xlink:href="#Century_Schoolbook_L_Roman-100"/>
     </g>
    </g>
   </g>
  </g>
 </g>
 <defs>
  <clipPath id="pc996414706">
   <rect height="216.36" width="337.68675" x="79.79325" y="14.52"/>
  </clipPath>
 </defs>
</svg>
