<?xml version="1.0" encoding="utf-8" standalone="no"?>
<!DOCTYPE svg PUBLIC "-//W3C//DTD SVG 1.1//EN"
  "http://www.w3.org/Graphics/SVG/1.1/DTD/svg11.dtd">
<!-- Created with matplotlib (https://matplotlib.org/) -->
<svg height="288pt" version="1.1" viewBox="0 0 432 288" width="432pt" xmlns="http://www.w3.org/2000/svg" xmlns:xlink="http://www.w3.org/1999/xlink">
 <defs>
  <style type="text/css">
*{stroke-linecap:butt;stroke-linejoin:round;}
  </style>
 </defs>
 <g id="figure_1">
  <g id="patch_1">
   <path d="M 0 288 
L 432 288 
L 432 0 
L 0 0 
z
" style="fill:#ffffff;"/>
  </g>
  <g id="axes_1">
   <g id="patch_2">
    <path d="M 65.32538 230.88 
L 417.48 230.88 
L 417.48 14.52 
L 65.32538 14.52 
z
" style="fill:#ffffff;"/>
   </g>
   <g id="matplotlib.axis_1">
    <g id="xtick_1">
     <g id="line2d_1">
      <defs>
       <path d="M 0 0 
L 0 3.5 
" id="m42bfea85e3" style="stroke:#000000;stroke-width:0.8;"/>
      </defs>
      <g>
       <use style="stroke:#000000;stroke-width:0.8;" x="121.055748" xlink:href="#m42bfea85e3" y="230.88"/>
      </g>
     </g>
     <g id="text_1">
      <!-- $10$ -->
      <defs>
       <path d="M 26.59375 63.40625 
C 26.59375 65.5 26.5 65.5 25.09375 65.5 
C 21.203125 61.1875 15.296875 59.796875 9.703125 59.796875 
C 9.40625 59.796875 8.90625 59.796875 8.796875 59.5 
C 8.703125 59.296875 8.703125 59.09375 8.703125 57 
C 11.796875 57 17 57.59375 21 59.984375 
L 21 7.203125 
C 21 3.6875 20.796875 2.5 12.203125 2.5 
L 9.203125 2.5 
L 9.203125 0 
C 14 0 19 0 23.796875 0 
C 28.59375 0 33.59375 0 38.40625 0 
L 38.40625 2.5 
L 35.40625 2.5 
C 26.796875 2.5 26.59375 3.59375 26.59375 7.15625 
z
" id="CMR17-49"/>
       <path d="M 42 31.640625 
C 42 37.75 41.90625 48.125 37.703125 56.109375 
C 34 63.109375 28.09375 65.59375 22.90625 65.59375 
C 18.09375 65.59375 12 63.40625 8.203125 56.203125 
C 4.203125 48.71875 3.796875 39.4375 3.796875 31.640625 
C 3.796875 25.953125 3.90625 17.28125 7 9.671875 
C 11.296875 -0.609375 19 -2 22.90625 -2 
C 27.5 -2 34.5 -0.109375 38.59375 9.375 
C 41.59375 16.28125 42 24.359375 42 31.640625 
z
M 22.90625 -0.40625 
C 16.5 -0.40625 12.703125 5.078125 11.296875 12.6875 
C 10.203125 18.5625 10.203125 27.15625 10.203125 32.75 
C 10.203125 40.4375 10.203125 46.828125 11.5 52.921875 
C 13.40625 61.390625 19 64 22.90625 64 
C 27 64 32.296875 61.296875 34.203125 53.125 
C 35.5 47.4375 35.59375 40.734375 35.59375 32.75 
C 35.59375 26.25 35.59375 18.265625 34.40625 12.375 
C 32.296875 1.484375 26.40625 -0.40625 22.90625 -0.40625 
z
" id="CMR17-48"/>
      </defs>
      <g transform="translate(112.800623 251.21795)scale(0.18 -0.18)">
       <use transform="scale(0.996264)" xlink:href="#CMR17-49"/>
       <use transform="translate(45.690477 0)scale(0.996264)" xlink:href="#CMR17-48"/>
      </g>
     </g>
    </g>
    <g id="xtick_2">
     <g id="line2d_2">
      <g>
       <use style="stroke:#000000;stroke-width:0.8;" x="176.786115" xlink:href="#m42bfea85e3" y="230.88"/>
      </g>
     </g>
     <g id="text_2">
      <!-- $20$ -->
      <defs>
       <path d="M 41.703125 15.453125 
L 39.90625 15.453125 
C 38.90625 8.375 38.09375 7.171875 37.703125 6.5625 
C 37.203125 5.765625 30 5.765625 28.59375 5.765625 
L 9.40625 5.765625 
C 13 9.671875 20 16.75 28.5 24.953125 
C 34.59375 30.734375 41.703125 37.53125 41.703125 47.421875 
C 41.703125 59.21875 32.296875 66 21.796875 66 
C 10.796875 66 4.09375 56.3125 4.09375 47.34375 
C 4.09375 43.4375 7 42.9375 8.203125 42.9375 
C 9.203125 42.9375 12.203125 43.546875 12.203125 47.03125 
C 12.203125 50.109375 9.59375 51 8.203125 51 
C 7.59375 51 7 50.90625 6.59375 50.703125 
C 8.5 59.21875 14.296875 63.40625 20.40625 63.40625 
C 29.09375 63.40625 34.796875 56.515625 34.796875 47.421875 
C 34.796875 38.734375 29.703125 31.25 24 24.75 
L 4.09375 2.28125 
L 4.09375 0 
L 39.296875 0 
z
" id="CMR17-50"/>
      </defs>
      <g transform="translate(168.53099 251.21795)scale(0.18 -0.18)">
       <use transform="scale(0.996264)" xlink:href="#CMR17-50"/>
       <use transform="translate(45.690477 0)scale(0.996264)" xlink:href="#CMR17-48"/>
      </g>
     </g>
    </g>
    <g id="xtick_3">
     <g id="line2d_3">
      <g>
       <use style="stroke:#000000;stroke-width:0.8;" x="232.516483" xlink:href="#m42bfea85e3" y="230.88"/>
      </g>
     </g>
     <g id="text_3">
      <!-- $30$ -->
      <defs>
       <path d="M 22.09375 33.703125 
C 31 33.703125 34.90625 25.96875 34.90625 17.03125 
C 34.90625 5 28.5 0.390625 22.703125 0.390625 
C 17.40625 0.390625 8.796875 3.03125 6.09375 10.828125 
C 6.59375 10.625 7.09375 10.625 7.59375 10.625 
C 10 10.625 11.796875 12.21875 11.796875 14.8125 
C 11.796875 17.703125 9.59375 19 7.59375 19 
C 5.90625 19 3.296875 18.203125 3.296875 14.46875 
C 3.296875 5.234375 12.296875 -2 22.90625 -2 
C 34 -2 42.5 6.71875 42.5 16.953125 
C 42.5 26.671875 34.5 33.703125 25 34.796875 
C 32.59375 36.375 39.90625 43.0625 39.90625 52.015625 
C 39.90625 59.6875 32 65.296875 23 65.296875 
C 13.90625 65.296875 5.90625 59.828125 5.90625 52.015625 
C 5.90625 48.59375 8.5 48 9.796875 48 
C 11.90625 48 13.703125 49.296875 13.703125 51.890625 
C 13.703125 54.46875 11.90625 55.765625 9.796875 55.765625 
C 9.40625 55.765625 8.90625 55.765625 8.5 55.578125 
C 11.40625 61.859375 19.296875 63 22.796875 63 
C 26.296875 63 32.90625 61.328125 32.90625 51.875 
C 32.90625 49.109375 32.5 44.1875 29.09375 39.84375 
C 26.09375 36 22.703125 36 19.40625 35.6875 
C 18.90625 35.6875 16.59375 35.453125 16.203125 35.453125 
C 15.5 35.359375 15.09375 35.265625 15.09375 34.5 
C 15.09375 33.796875 15.203125 33.703125 17.203125 33.703125 
z
" id="CMR17-51"/>
      </defs>
      <g transform="translate(224.261358 251.21795)scale(0.18 -0.18)">
       <use transform="scale(0.996264)" xlink:href="#CMR17-51"/>
       <use transform="translate(45.690477 0)scale(0.996264)" xlink:href="#CMR17-48"/>
      </g>
     </g>
    </g>
    <g id="xtick_4">
     <g id="line2d_4">
      <g>
       <use style="stroke:#000000;stroke-width:0.8;" x="288.246851" xlink:href="#m42bfea85e3" y="230.88"/>
      </g>
     </g>
     <g id="text_4">
      <!-- $40$ -->
      <defs>
       <path d="M 33.59375 64.40625 
C 33.59375 66.5 33.5 66.5 31.703125 66.5 
L 2 19.59375 
L 2 17 
L 27.796875 17 
L 27.796875 7.140625 
C 27.796875 3.5 27.59375 2.5 20.59375 2.5 
L 18.703125 2.5 
L 18.703125 0 
C 21.90625 0 27.296875 0 30.703125 0 
C 34.09375 0 39.5 0 42.703125 0 
L 42.703125 2.5 
L 40.796875 2.5 
C 33.796875 2.5 33.59375 3.5 33.59375 7.140625 
L 33.59375 17 
L 43.796875 17 
L 43.796875 19.59375 
L 33.59375 19.59375 
z
M 28.09375 57.859375 
L 28.09375 19.59375 
L 4 19.59375 
z
" id="CMR17-52"/>
      </defs>
      <g transform="translate(279.991726 251.21795)scale(0.18 -0.18)">
       <use transform="scale(0.996264)" xlink:href="#CMR17-52"/>
       <use transform="translate(45.690477 0)scale(0.996264)" xlink:href="#CMR17-48"/>
      </g>
     </g>
    </g>
    <g id="xtick_5">
     <g id="line2d_5">
      <g>
       <use style="stroke:#000000;stroke-width:0.8;" x="343.977218" xlink:href="#m42bfea85e3" y="230.88"/>
      </g>
     </g>
     <g id="text_5">
      <!-- $50$ -->
      <defs>
       <path d="M 11.40625 57.6875 
C 12.40625 57.28125 16.5 56 20.703125 56 
C 30 56 35.09375 61.109375 38 64.0625 
C 38 64.953125 38 65.5 37.40625 65.5 
C 37.296875 65.5 37.09375 65.5 36.296875 65.046875 
C 32.796875 63.40625 28.703125 62.078125 23.703125 62.078125 
C 20.703125 62.078125 16.203125 62.484375 11.296875 64.671875 
C 10.203125 65.171875 10 65.171875 9.90625 65.171875 
C 9.40625 65.171875 9.296875 65.0625 9.296875 63.078125 
L 9.296875 34.421875 
C 9.296875 32.640625 9.296875 32.140625 10.296875 32.140625 
C 10.796875 32.140625 11 32.34375 11.5 33.03125 
C 14.703125 37.515625 19.09375 39.40625 24.09375 39.40625 
C 27.59375 39.40625 35.09375 37.21875 35.09375 20.140625 
C 35.09375 16.953125 35.09375 11.171875 32.09375 6.578125 
C 29.59375 2.484375 25.703125 0.390625 21.40625 0.390625 
C 14.796875 0.390625 8.09375 5 6.296875 12.71875 
C 6.703125 12.609375 7.5 12.421875 7.90625 12.421875 
C 9.203125 12.421875 11.703125 13.125 11.703125 16.21875 
C 11.703125 18.90625 9.796875 20 7.90625 20 
C 5.59375 20 4.09375 18.59375 4.09375 15.796875 
C 4.09375 7.09375 11 -2 21.59375 -2 
C 31.90625 -2 41.703125 6.875 41.703125 19.75 
C 41.703125 31.71875 33.90625 41 24.203125 41 
C 19.09375 41 14.796875 39.109375 11.40625 35.53125 
z
" id="CMR17-53"/>
      </defs>
      <g transform="translate(335.722093 251.21795)scale(0.18 -0.18)">
       <use transform="scale(0.996264)" xlink:href="#CMR17-53"/>
       <use transform="translate(45.690477 0)scale(0.996264)" xlink:href="#CMR17-48"/>
      </g>
     </g>
    </g>
    <g id="xtick_6">
     <g id="line2d_6">
      <g>
       <use style="stroke:#000000;stroke-width:0.8;" x="399.707586" xlink:href="#m42bfea85e3" y="230.88"/>
      </g>
     </g>
     <g id="text_6">
      <!-- $60$ -->
      <defs>
       <path d="M 10.59375 34 
C 10.59375 57.65625 21.796875 63 28.296875 63 
C 30.40625 63 35.5 62.640625 37.5 59 
C 35.90625 59 32.90625 59 32.90625 55.515625 
C 32.90625 52.828125 35.09375 51.921875 36.5 51.921875 
C 37.40625 51.921875 40.09375 52.3125 40.09375 55.625 
C 40.09375 61.78125 35.09375 65.296875 28.203125 65.296875 
C 16.296875 65.296875 3.796875 52.96875 3.796875 31 
C 3.796875 3.953125 15.09375 -2 23.09375 -2 
C 32.796875 -2 42 6.671875 42 20.046875 
C 42 32.515625 33.90625 41.59375 23.703125 41.59375 
C 17.59375 41.59375 13.09375 37.609375 10.59375 30.625 
z
M 23.09375 0.390625 
C 10.796875 0.390625 10.796875 18.75 10.796875 22.4375 
C 10.796875 29.625 14.203125 40 23.5 40 
C 25.203125 40 30.09375 40 33.40625 33.125 
C 35.203125 29.21875 35.203125 25.140625 35.203125 20.140625 
C 35.203125 14.75 35.203125 10.78125 33.09375 6.78125 
C 30.90625 2.671875 27.703125 0.390625 23.09375 0.390625 
z
" id="CMR17-54"/>
      </defs>
      <g transform="translate(391.452461 251.21795)scale(0.18 -0.18)">
       <use transform="scale(0.996264)" xlink:href="#CMR17-54"/>
       <use transform="translate(45.690477 0)scale(0.996264)" xlink:href="#CMR17-48"/>
      </g>
     </g>
    </g>
    <g id="text_7">
     <!-- Time (s) -->
     <defs>
      <path d="M 63.296875 72 
L 3.40625 72 
L 1.90625 44.265625 
L 6.203125 44.265625 
C 6.90625 49.25 7.796875 53.046875 8.90625 56.234375 
C 11.5 63.515625 16.296875 67.3125 23.09375 67.3125 
C 26.40625 67.3125 27.796875 66.203125 27.796875 63.71875 
L 27.796875 12.28125 
L 27.796875 9.375 
C 27.796875 5.1875 26.90625 4.6875 18.796875 4.6875 
L 16.203125 4.6875 
L 16.203125 0 
L 50.5 0 
L 50.5 4.6875 
L 47.90625 4.6875 
C 39.90625 4.6875 39 5.1875 39 9.375 
L 39 12.28125 
L 39 63.71875 
C 39 66.203125 40.40625 67.3125 43.703125 67.3125 
C 49.796875 67.3125 54.703125 63.90625 57.203125 57.921875 
C 58.703125 54.25 59.703125 49.953125 60.5 44.265625 
L 64.796875 44.265625 
z
" id="Century_Schoolbook_L_Roman-84"/>
      <path d="M 20.59375 46 
L 1.796875 46 
L 1.796875 41.21875 
L 6.90625 41.21875 
C 10.59375 41.21875 11.203125 40.515625 11.203125 36.203125 
L 11.203125 12.296875 
L 11.203125 8.296875 
C 11.203125 4.296875 10.09375 3.59375 3.703125 3.59375 
L 3 3.59375 
L 3 0 
L 28.90625 0 
L 28.90625 3.59375 
L 28.203125 3.59375 
C 21.703125 3.59375 20.59375 4.28125 20.59375 8.21875 
L 20.59375 12.171875 
z
M 15.90625 71.578125 
C 12.703125 71.578125 10.09375 68.984375 10.09375 65.796875 
C 10.09375 62.703125 12.703125 60 15.796875 60 
C 19.09375 60 21.703125 62.59375 21.703125 65.796875 
C 21.703125 68.984375 19.09375 71.578125 15.90625 71.578125 
z
" id="Century_Schoolbook_L_Roman-105"/>
      <path d="M 20.09375 46 
L 2.296875 46 
L 2.296875 41.21875 
L 6.40625 41.21875 
C 10.09375 41.21875 10.703125 40.515625 10.703125 36.203125 
L 10.703125 12.296875 
L 10.703125 8.40625 
C 10.703125 4.296875 9.59375 3.59375 3.203125 3.59375 
L 2.796875 3.59375 
L 2.796875 0 
L 28 0 
L 28 3.59375 
L 27.59375 3.59375 
C 21.203125 3.59375 20.09375 4.296875 20.09375 8.390625 
L 20.09375 12.28125 
L 20.09375 26.453125 
C 20.09375 35.328125 25 41.921875 31.5 41.921875 
C 34.09375 41.921875 36.90625 40.515625 38.09375 38.625 
C 39.5 36.734375 40.09375 33.828125 40.09375 29.734375 
L 40.09375 12.28125 
L 40.09375 8.28125 
C 40.09375 4.296875 39 3.59375 32.5 3.59375 
L 32.09375 3.59375 
L 32.09375 0 
L 57.40625 0 
L 57.40625 3.59375 
L 57 3.59375 
C 50.59375 3.59375 49.5 4.296875 49.5 8.28125 
L 49.5 12.28125 
L 49.5 25.546875 
C 49.5 35.53125 54 41.921875 61 41.921875 
C 64.296875 41.921875 67 40.015625 68.296875 36.921875 
C 69.203125 34.734375 69.5 32.53125 69.5 28.640625 
L 69.5 12.28125 
L 69.5 8.28125 
C 69.5 4.296875 68.40625 3.59375 61.90625 3.59375 
L 61.5 3.59375 
L 61.5 0 
L 86.796875 0 
L 86.796875 3.59375 
L 86.40625 3.59375 
C 80 3.59375 78.90625 4.296875 78.90625 8.390625 
L 78.90625 12.28125 
L 78.90625 30.640625 
C 78.90625 36.828125 78.296875 38.921875 75.703125 42.3125 
C 72.796875 46.015625 68.703125 48 63.90625 48 
C 57.40625 48 52.59375 44.9375 48.296875 38.109375 
C 46.59375 44.046875 41.203125 48 34.5 48 
C 28.5 48 24 45.140625 20.09375 38.921875 
z
" id="Century_Schoolbook_L_Roman-109"/>
      <path d="M 46.5 23 
C 46.59375 37.8125 38.09375 48.28125 25.90625 48.28125 
C 13.09375 48.28125 3.5 37.25 3.5 22.34375 
C 3.5 8.4375 12.59375 -1 26.09375 -1 
C 35.59375 -1 42.40625 3.6875 46.5 13.1875 
L 43 15.09375 
C 38.90625 7.390625 34.703125 4.390625 28 4.390625 
C 22.90625 4.390625 19.203125 6.59375 16.59375 11 
C 14.796875 14 14 17.5 14.09375 23 
z
M 14.203125 27.296875 
C 14.203125 30.34375 14.59375 32.5 15.59375 35.25 
C 17.703125 41.140625 20.90625 44 25.703125 44 
C 31.796875 44 35.796875 38.78125 35.796875 30.921875 
C 35.796875 28.078125 34.90625 27.296875 31.703125 27.296875 
z
" id="Century_Schoolbook_L_Roman-101"/>
      <path d="M 27.90625 73.453125 
C 21.90625 69.765625 18.703125 67.171875 15.296875 63.171875 
C 7.703125 54.1875 3.59375 42.71875 3.59375 30.640625 
C 3.59375 19.265625 7.203125 8.578125 13.90625 -0.296875 
C 17.703125 -5.09375 21.09375 -8.078125 27.90625 -12.28125 
L 27.90625 -8.578125 
C 17.90625 0.203125 13.90625 11.484375 13.90625 30.640625 
C 13.90625 49.796875 17.90625 60.984375 27.90625 69.765625 
z
" id="Century_Schoolbook_L_Roman-40"/>
      <path d="M 39 48 
L 35.5 48 
L 32.59375 44.40625 
C 29 47.203125 25.40625 48.390625 20.40625 48.390625 
C 11.59375 48.390625 5.796875 42.625 5.796875 33.953125 
C 5.796875 30.078125 7.09375 26.78125 9.296875 24.8125 
C 11.59375 22.703125 13.90625 21.71875 19.90625 20.3125 
L 25.203125 19.125 
C 33.09375 17.234375 35.90625 15.234375 35.90625 11.265625 
C 35.90625 6.578125 31.796875 3.296875 25.90625 3.296875 
C 17.5 3.296875 11.5 8.765625 9.09375 18.875 
L 5.09375 18.875 
L 5.09375 0 
L 8.59375 0 
L 12.09375 3.90625 
C 16.203125 0.59375 20.796875 -1 25.796875 -1 
C 35.59375 -1 42.09375 5.078125 42.09375 14.34375 
C 42.09375 18.71875 40.703125 22.09375 37.90625 24.390625 
C 35.5 26.484375 33.5 27.28125 27.40625 28.5625 
L 22.40625 29.671875 
C 16.90625 30.859375 16.90625 30.859375 15.09375 31.859375 
C 12.90625 32.859375 11.59375 34.9375 11.59375 37.140625 
C 11.59375 41.109375 15.40625 44 20.90625 44 
C 24.703125 44 27.796875 42.703125 30.59375 40.015625 
C 32.796875 37.8125 33.90625 35.828125 35.5 31.234375 
L 39 31.234375 
z
" id="Century_Schoolbook_L_Roman-115"/>
      <path d="M 5.40625 -12.28125 
C 11.40625 -8.578125 14.59375 -5.984375 18 -1.890625 
C 25.59375 6.984375 29.703125 18.5625 29.703125 30.640625 
C 29.703125 42.015625 26.09375 52.703125 19.40625 61.484375 
C 15.59375 66.375 12.203125 69.359375 5.40625 73.453125 
L 5.40625 69.765625 
C 15.40625 60.984375 19.40625 49.796875 19.40625 30.640625 
C 19.40625 11.375 15.40625 0.203125 5.40625 -8.578125 
z
" id="Century_Schoolbook_L_Roman-41"/>
     </defs>
     <g transform="translate(207.401225 273.24577)scale(0.18 -0.18)">
      <use transform="translate(0 -0.29235)scale(0.996264)" xlink:href="#Century_Schoolbook_L_Roman-84"/>
      <use transform="translate(66.450031 -0.29235)scale(0.996264)" xlink:href="#Century_Schoolbook_L_Roman-105"/>
      <use transform="translate(97.831344 -0.29235)scale(0.996264)" xlink:href="#Century_Schoolbook_L_Roman-109"/>
      <use transform="translate(186.398251 -0.29235)scale(0.996264)" xlink:href="#Century_Schoolbook_L_Roman-101"/>
      <use transform="translate(263.906621 -0.29235)scale(0.996264)" xlink:href="#Century_Schoolbook_L_Roman-40"/>
      <use transform="translate(297.081851 -0.29235)scale(0.996264)" xlink:href="#Century_Schoolbook_L_Roman-115"/>
      <use transform="translate(343.207661 -0.29235)scale(0.996264)" xlink:href="#Century_Schoolbook_L_Roman-41"/>
     </g>
    </g>
   </g>
   <g id="matplotlib.axis_2">
    <g id="ytick_1">
     <g id="line2d_7">
      <defs>
       <path d="M 0 0 
L -3.5 0 
" id="m07c5cbfa20" style="stroke:#000000;stroke-width:0.8;"/>
      </defs>
      <g>
       <use style="stroke:#000000;stroke-width:0.8;" x="65.32538" xlink:href="#m07c5cbfa20" y="230.88"/>
      </g>
     </g>
     <g id="text_8">
      <!-- $0$ -->
      <g transform="translate(50.07025 237.548975)scale(0.18 -0.18)">
       <use transform="scale(0.996264)" xlink:href="#CMR17-48"/>
      </g>
     </g>
    </g>
    <g id="ytick_2">
     <g id="line2d_8">
      <g>
       <use style="stroke:#000000;stroke-width:0.8;" x="65.32538" xlink:href="#m07c5cbfa20" y="185.559514"/>
      </g>
     </g>
     <g id="text_9">
      <!-- $50$ -->
      <g transform="translate(41.81513 192.228489)scale(0.18 -0.18)">
       <use transform="scale(0.996264)" xlink:href="#CMR17-53"/>
       <use transform="translate(45.690477 0)scale(0.996264)" xlink:href="#CMR17-48"/>
      </g>
     </g>
    </g>
    <g id="ytick_3">
     <g id="line2d_9">
      <g>
       <use style="stroke:#000000;stroke-width:0.8;" x="65.32538" xlink:href="#m07c5cbfa20" y="140.239028"/>
      </g>
     </g>
     <g id="text_10">
      <!-- $100$ -->
      <g transform="translate(33.56 146.908003)scale(0.18 -0.18)">
       <use transform="scale(0.996264)" xlink:href="#CMR17-49"/>
       <use transform="translate(45.690477 0)scale(0.996264)" xlink:href="#CMR17-48"/>
       <use transform="translate(91.380954 0)scale(0.996264)" xlink:href="#CMR17-48"/>
      </g>
     </g>
    </g>
    <g id="ytick_4">
     <g id="line2d_10">
      <g>
       <use style="stroke:#000000;stroke-width:0.8;" x="65.32538" xlink:href="#m07c5cbfa20" y="94.918542"/>
      </g>
     </g>
     <g id="text_11">
      <!-- $150$ -->
      <g transform="translate(33.56 101.587517)scale(0.18 -0.18)">
       <use transform="scale(0.996264)" xlink:href="#CMR17-49"/>
       <use transform="translate(45.690477 0)scale(0.996264)" xlink:href="#CMR17-53"/>
       <use transform="translate(91.380954 0)scale(0.996264)" xlink:href="#CMR17-48"/>
      </g>
     </g>
    </g>
    <g id="ytick_5">
     <g id="line2d_11">
      <g>
       <use style="stroke:#000000;stroke-width:0.8;" x="65.32538" xlink:href="#m07c5cbfa20" y="49.598056"/>
      </g>
     </g>
     <g id="text_12">
      <!-- $200$ -->
      <g transform="translate(33.56 56.267031)scale(0.18 -0.18)">
       <use transform="scale(0.996264)" xlink:href="#CMR17-50"/>
       <use transform="translate(45.690477 0)scale(0.996264)" xlink:href="#CMR17-48"/>
       <use transform="translate(91.380954 0)scale(0.996264)" xlink:href="#CMR17-48"/>
      </g>
     </g>
    </g>
    <g id="text_13">
     <!-- X Load -->
     <defs>
      <path d="M 38.90625 39.890625 
L 52.203125 57.9375 
C 57.796875 65.40625 60.59375 67.3125 65.90625 67.3125 
L 67.5 67.3125 
L 67.5 72 
L 40 72 
L 40 67.3125 
L 41.40625 67.3125 
C 46.203125 67.3125 48.296875 66.109375 48.296875 63.40625 
C 48.296875 62.3125 48 61.609375 46.90625 60.03125 
L 36.09375 44.375 
L 22.796875 63.515625 
C 22.09375 64.515625 21.703125 65.515625 21.703125 66.015625 
C 21.703125 67 22.703125 67.3125 26.5 67.3125 
L 30.296875 67.3125 
L 30.296875 72 
L -0.59375 72 
L -0.59375 67.3125 
L 1.09375 67.3125 
C 6 67.3125 7.203125 66.8125 9.5 63.515625 
L 29.203125 35.109375 
L 13 12.671875 
C 9.09375 7.09375 5 4.6875 -0.09375 4.6875 
L -0.5 4.6875 
L -0.5 0 
L 27.90625 0 
L 27.90625 4.6875 
L 25.40625 4.6875 
C 21.40625 4.6875 18.90625 6.484375 18.90625 9.484375 
C 18.90625 10.78125 19.5 12.359375 20.5 13.859375 
L 32.09375 30.609375 
L 47 9.40625 
C 47.796875 8.203125 48.296875 7.09375 48.296875 6.296875 
C 48.296875 4.6875 47.90625 4.6875 41.59375 4.6875 
L 38.796875 4.6875 
L 38.796875 0 
L 71.59375 0 
L 71.59375 4.6875 
L 70.40625 4.6875 
C 64 4.6875 63.296875 4.984375 59.90625 9.875 
z
" id="Century_Schoolbook_L_Roman-88"/>
      <path d="M 64.59375 27.328125 
L 60.203125 27.328125 
C 59.203125 20.546875 56.796875 13.765625 54.203125 10.484375 
C 51.09375 6.59375 45.296875 4.6875 36.90625 4.6875 
L 32.703125 4.6875 
C 29.703125 4.6875 27.203125 5.296875 26.296875 6.1875 
C 25.59375 6.78125 25.5 7.390625 25.5 9.484375 
L 25.5 59.734375 
L 25.5 62.609375 
C 25.5 66.8125 26.40625 67.3125 34.5 67.3125 
L 36.296875 67.3125 
L 36.296875 72 
L 3.5 72 
L 3.5 67.3125 
L 5.296875 67.3125 
C 13.40625 67.3125 14.296875 66.8125 14.296875 62.609375 
L 14.296875 59.734375 
L 14.296875 12.28125 
L 14.296875 9.375 
C 14.296875 5.1875 13.40625 4.6875 5.296875 4.6875 
L 3.5 4.6875 
L 3.5 0 
L 62.5 0 
z
" id="Century_Schoolbook_L_Roman-76"/>
      <path d="M 25.203125 48.28125 
C 13 48.28125 3.40625 37.453125 3.40625 23.546875 
C 3.40625 9.9375 13 -1 25 -1 
C 37 -1 46.59375 9.9375 46.59375 23.640625 
C 46.59375 37.25 37 48.28125 25.203125 48.28125 
z
M 25.203125 44 
C 32.203125 44 36.09375 36.75 36.09375 23.640625 
C 36.09375 10.453125 32.203125 3.296875 25 3.296875 
C 17.796875 3.296875 13.90625 10.453125 13.90625 23.546875 
C 13.90625 37.046875 17.703125 44 25.203125 44 
z
" id="Century_Schoolbook_L_Roman-111"/>
      <path d="M 45.203125 32.578125 
C 45.203125 38.796875 44.09375 41.96875 41.203125 44.34375 
C 37.90625 46.90625 33 48.28125 26.59375 48.28125 
C 15.40625 48.28125 7.09375 43.046875 7.09375 35.921875 
C 7.09375 32.15625 9.40625 29.78125 12.90625 29.78125 
C 16 29.78125 18.296875 31.859375 18.296875 34.8125 
C 18.296875 36.109375 17.796875 37.484375 16.796875 38.875 
C 16.203125 39.546875 16.09375 39.84375 16.09375 40.15625 
C 16.09375 42.21875 20.203125 44 25 44 
C 28.09375 44 31.59375 43.015625 33.203125 41.53125 
C 35.09375 39.953125 35.796875 37.578125 35.796875 33.125 
L 35.796875 29.28125 
C 25.296875 27.484375 22.09375 26.6875 17.203125 24.8125 
C 8.59375 21.609375 4.40625 16.9375 4.40625 10.65625 
C 4.40625 3.578125 10.09375 -1 18.90625 -1 
C 25.796875 -1 32 1.859375 36.296875 7.0625 
C 37.90625 1.984375 40.40625 0 45.09375 0 
C 49.59375 0 54.296875 2.890625 54.296875 5.78125 
C 54.296875 6.46875 53.796875 6.96875 53.296875 6.96875 
C 52.90625 6.96875 52.5 6.875 51.796875 6.578125 
C 50.203125 6 49.796875 5.890625 49 5.890625 
C 46.203125 5.890625 45.203125 7.78125 45.203125 12.71875 
z
M 35.796875 20.46875 
C 35.796875 14.46875 35.5 13.078125 33.796875 10.484375 
C 31.296875 6.78125 26.703125 4.296875 22.40625 4.296875 
C 17.90625 4.296875 14.5 7.59375 14.5 12.078125 
C 14.5 16.265625 16.59375 19.265625 21 21.359375 
C 24.09375 22.75 28 23.75 35.796875 25.046875 
z
" id="Century_Schoolbook_L_Roman-97"/>
      <path d="M 38 0 
L 55.40625 0 
L 55.40625 4.703125 
L 53.59375 4.703125 
C 48.203125 4.703125 47.40625 5.703125 47.40625 11.96875 
L 47.40625 73.78125 
L 27.796875 73.78125 
L 27.796875 69 
L 33.703125 69 
C 37.296875 69 38 68.28125 38 63.921875 
L 38 41 
C 34.296875 46.09375 30 48.390625 24.203125 48.390625 
C 12.90625 48.390625 4.296875 37.546875 4.296875 23.203125 
C 4.296875 9.0625 12.59375 -1 24.203125 -1 
C 30.5 -1 34.796875 1.671875 38 7.59375 
z
M 26.203125 43 
C 30.296875 43 34.203125 40.03125 36 35.4375 
C 37.203125 32.453125 37.90625 28.28125 37.90625 23.515625 
C 37.90625 11.96875 33.296875 4.390625 26.09375 4.390625 
C 19.09375 4.390625 14.796875 10.96875 14.796875 22.015625 
C 14.796875 27.890625 15.40625 32.359375 16.703125 35.734375 
C 18.40625 40.125 22.09375 43 26.203125 43 
z
" id="Century_Schoolbook_L_Roman-100"/>
     </defs>
     <g transform="translate(24.87013 152.2107)rotate(-90)scale(0.18 -0.18)">
      <use transform="translate(0 0.343476)scale(0.996264)" xlink:href="#Century_Schoolbook_L_Roman-88"/>
      <use transform="translate(97.831344 0.343476)scale(0.996264)" xlink:href="#Century_Schoolbook_L_Roman-76"/>
      <use transform="translate(164.281375 0.343476)scale(0.996264)" xlink:href="#Century_Schoolbook_L_Roman-111"/>
      <use transform="translate(214.094576 0.343476)scale(0.996264)" xlink:href="#Century_Schoolbook_L_Roman-97"/>
      <use transform="translate(269.486253 0.343476)scale(0.996264)" xlink:href="#Century_Schoolbook_L_Roman-100"/>
     </g>
    </g>
   </g>
   <g id="line2d_12">
    <path clip-path="url(#pe9425a714f)" d="M 65.32538 230.88 
L 82.42903 230.88 
L 82.540491 206.406938 
L 82.986334 206.406938 
L 83.097794 216.377444 
L 83.543637 216.377444 
L 83.655098 228.160771 
L 84.04521 228.160771 
L 84.156671 229.067181 
L 84.602514 229.067181 
L 84.713975 218.190264 
L 85.104087 218.190264 
L 85.215548 158.367222 
L 85.661391 158.367222 
L 85.772852 208.219757 
L 86.162964 208.219757 
L 86.274425 127.549292 
L 86.775998 127.549292 
L 86.887459 225.441542 
L 87.221841 225.441542 
L 87.333302 227.254361 
L 87.779145 227.254361 
L 87.890606 228.160771 
L 88.280718 228.160771 
L 88.392179 229.067181 
L 88.838022 229.067181 
L 88.949483 229.97359 
L 89.395326 229.97359 
L 89.506787 230.88 
L 95.804318 230.88 
L 95.915779 229.97359 
L 96.305891 229.97359 
L 96.417352 230.88 
L 96.863195 230.88 
L 96.974656 229.97359 
L 97.977802 229.97359 
L 98.089263 230.88 
L 98.479376 230.88 
L 98.590836 229.97359 
L 100.59713 229.97359 
L 100.70859 230.88 
L 105.947245 230.88 
L 106.058706 229.97359 
L 108.622303 229.97359 
L 108.733763 229.067181 
L 110.238483 229.067181 
L 110.349944 229.97359 
L 111.854664 229.97359 
L 111.966125 230.88 
L 112.411968 230.88 
L 112.523428 229.97359 
L 114.028148 229.97359 
L 114.139609 229.067181 
L 115.087025 229.067181 
L 115.198486 228.160771 
L 115.588599 228.160771 
L 115.700059 226.347951 
L 116.257363 226.347951 
L 116.368824 228.160771 
L 116.647476 228.160771 
L 116.758936 229.067181 
L 117.204779 229.067181 
L 117.31624 229.97359 
L 117.762083 229.97359 
L 117.873544 230.88 
L 118.319387 230.88 
L 118.430847 121.204424 
L 118.82096 121.204424 
L 118.932421 170.150549 
L 119.378264 170.150549 
L 119.489724 159.273632 
L 119.879837 159.273632 
L 119.991298 210.032576 
L 120.548601 210.032576 
L 120.660062 210.938986 
L 123.613772 210.938986 
L 123.725232 220.909493 
L 124.226806 220.909493 
L 124.338266 229.067181 
L 124.672648 229.067181 
L 124.784109 229.97359 
L 131.137371 229.97359 
L 131.248832 230.88 
L 134.871306 230.88 
L 134.982766 229.97359 
L 135.985913 229.97359 
L 136.097374 230.88 
L 137.546363 230.88 
L 137.657824 229.97359 
L 140.165691 229.97359 
L 140.277151 230.88 
L 144.011086 230.88 
L 144.122547 229.97359 
L 146.12884 229.97359 
L 146.240301 230.88 
L 146.630413 230.88 
L 146.741874 229.97359 
L 147.68929 229.97359 
L 147.800751 230.88 
L 148.246594 230.88 
L 148.358055 229.97359 
L 148.803898 229.97359 
L 148.915358 230.88 
L 149.807044 230.88 
L 149.918505 229.067181 
L 150.865921 229.067181 
L 150.977382 228.160771 
L 152.537832 228.160771 
L 152.649293 229.067181 
L 153.095136 229.067181 
L 153.206597 229.97359 
L 153.596709 229.97359 
L 153.70817 230.88 
L 154.154013 230.88 
L 154.265474 159.273632 
L 154.767047 159.273632 
L 154.878508 104.889049 
L 155.21289 104.889049 
L 155.324351 131.174931 
L 155.770194 131.174931 
L 155.881654 210.938986 
L 156.327497 210.938986 
L 156.438958 210.032576 
L 156.829071 210.032576 
L 156.940531 210.938986 
L 159.448398 210.938986 
L 159.559859 217.283854 
L 160.005702 217.283854 
L 160.117162 226.347951 
L 160.507275 226.347951 
L 160.618736 227.254361 
L 161.064579 227.254361 
L 161.176039 229.067181 
L 164.35267 229.067181 
L 164.464131 229.97359 
L 165.411547 229.97359 
L 165.523008 229.067181 
L 166.971998 229.067181 
L 167.083458 229.97359 
L 169.089751 229.97359 
L 169.201212 230.88 
L 169.647055 230.88 
L 169.758516 229.97359 
L 170.705932 229.97359 
L 170.817393 230.88 
L 171.263236 230.88 
L 171.374697 229.97359 
L 171.764809 229.97359 
L 171.87627 230.88 
L 172.322113 230.88 
L 172.433574 228.160771 
L 172.823686 228.160771 
L 172.935147 229.97359 
L 173.38099 229.97359 
L 173.492451 228.160771 
L 173.938293 228.160771 
L 174.049754 229.067181 
L 174.439867 229.067181 
L 174.551328 228.160771 
L 174.99717 228.160771 
L 175.108631 229.067181 
L 177.672228 229.067181 
L 177.783689 229.97359 
L 178.786835 229.97359 
L 178.898296 230.88 
L 179.232678 230.88 
L 179.344139 229.97359 
L 179.845712 229.97359 
L 179.957173 230.88 
L 181.963466 230.88 
L 182.074927 229.97359 
L 182.52077 229.97359 
L 182.632231 230.88 
L 184.136951 230.88 
L 184.248411 229.97359 
L 185.140097 229.97359 
L 185.251558 230.88 
L 186.254705 230.88 
L 186.366165 229.97359 
L 187.313582 229.97359 
L 187.425042 228.160771 
L 187.870885 228.160771 
L 187.982346 229.067181 
L 188.929762 229.067181 
L 189.041223 229.97359 
L 189.431336 229.97359 
L 189.542796 229.067181 
L 189.932909 229.067181 
L 190.04437 196.436431 
L 190.545943 196.436431 
L 190.657404 55.942924 
L 191.103247 55.942924 
L 191.214707 118.485195 
L 191.60482 118.485195 
L 191.716281 215.471035 
L 192.106393 215.471035 
L 192.217854 210.032576 
L 192.663697 210.032576 
L 192.775158 210.938986 
L 195.283024 210.938986 
L 195.394485 213.658215 
L 195.896058 213.658215 
L 196.007519 224.535132 
L 196.397632 224.535132 
L 196.509092 223.628722 
L 196.954935 223.628722 
L 197.066396 226.347951 
L 197.567969 226.347951 
L 197.67943 228.160771 
L 198.515386 228.160771 
L 198.626846 229.067181 
L 199.629993 229.067181 
L 199.741454 229.97359 
L 201.747747 229.97359 
L 201.859208 229.067181 
L 202.305051 229.067181 
L 202.416511 228.160771 
L 204.422805 228.160771 
L 204.534265 229.067181 
L 205.481682 229.067181 
L 205.593142 228.160771 
L 208.21247 228.160771 
L 208.32393 229.067181 
L 208.714043 229.067181 
L 208.825504 227.254361 
L 209.271347 227.254361 
L 209.382807 226.347951 
L 210.831797 226.347951 
L 210.943258 227.254361 
L 213.562585 227.254361 
L 213.674046 228.160771 
L 214.621462 228.160771 
L 214.732923 229.067181 
L 215.123035 229.067181 
L 215.234496 228.160771 
L 216.181912 228.160771 
L 216.293373 229.067181 
L 217.240789 229.067181 
L 217.35225 229.97359 
L 217.798093 229.97359 
L 217.909554 229.067181 
L 218.85697 229.067181 
L 218.968431 229.97359 
L 219.358543 229.97359 
L 219.470004 229.067181 
L 220.083038 229.067181 
L 220.194499 228.160771 
L 220.47315 228.160771 
L 220.584611 229.067181 
L 221.532027 229.067181 
L 221.643488 229.97359 
L 222.089331 229.97359 
L 222.200792 230.88 
L 223.649781 230.88 
L 223.761242 229.067181 
L 224.207085 229.067181 
L 224.318546 230.88 
L 225.265962 230.88 
L 225.377423 229.067181 
L 225.823266 229.067181 
L 225.934726 221.815903 
L 226.324839 221.815903 
L 226.4363 34.189091 
L 226.937873 34.189091 
L 227.049334 144.771077 
L 227.439446 144.771077 
L 227.550907 227.254361 
L 227.99675 227.254361 
L 228.108211 210.032576 
L 228.498323 210.032576 
L 228.609784 210.938986 
L 231.730685 210.938986 
L 231.842145 230.88 
L 232.232258 230.88 
L 232.343719 222.722313 
L 232.789562 222.722313 
L 232.901022 225.441542 
L 233.291135 225.441542 
L 233.402596 227.254361 
L 233.848439 227.254361 
L 233.959899 228.160771 
L 234.350012 228.160771 
L 234.461473 229.067181 
L 235.966193 229.067181 
L 236.077653 229.97359 
L 237.02507 229.97359 
L 237.13653 229.067181 
L 238.083947 229.067181 
L 238.195407 228.160771 
L 238.64125 228.160771 
L 238.752711 227.254361 
L 240.814735 227.254361 
L 240.926195 228.160771 
L 241.372038 228.160771 
L 241.483499 227.254361 
L 243.489792 227.254361 
L 243.601253 228.160771 
L 244.548669 228.160771 
L 244.66013 227.254361 
L 245.105973 227.254361 
L 245.217434 226.347951 
L 249.341481 226.347951 
L 249.452942 227.254361 
L 249.898785 227.254361 
L 250.010245 228.160771 
L 252.016539 228.160771 
L 252.127999 229.067181 
L 255.861934 229.067181 
L 255.973395 228.160771 
L 256.307777 228.160771 
L 256.419238 229.067181 
L 257.366654 229.067181 
L 257.478115 229.97359 
L 258.425531 229.97359 
L 258.536992 230.88 
L 260.041711 230.88 
L 260.153172 229.97359 
L 260.543285 229.97359 
L 260.654745 230.88 
L 261.156319 230.88 
L 261.26778 229.97359 
L 261.657892 229.97359 
L 261.769353 228.160771 
L 262.215196 228.160771 
L 262.326657 97.637771 
L 262.772499 97.637771 
L 262.88396 201.874889 
L 263.274073 201.874889 
L 263.385534 175.589007 
L 263.831376 175.589007 
L 263.942837 209.126167 
L 264.38868 209.126167 
L 264.500141 210.032576 
L 265.503287 210.032576 
L 265.614748 210.938986 
L 267.565311 210.938986 
L 267.676772 220.909493 
L 268.122615 220.909493 
L 268.234075 222.722313 
L 268.624188 222.722313 
L 268.735649 224.535132 
L 269.181492 224.535132 
L 269.292952 227.254361 
L 269.683065 227.254361 
L 269.794526 228.160771 
L 270.240369 228.160771 
L 270.351829 229.067181 
L 273.918573 229.067181 
L 274.030034 228.160771 
L 274.475877 228.160771 
L 274.587337 227.254361 
L 275.03318 227.254361 
L 275.144641 226.347951 
L 275.757675 226.347951 
L 275.869136 227.254361 
L 276.649361 227.254361 
L 276.760822 228.160771 
L 277.150934 228.160771 
L 277.262395 227.254361 
L 279.324419 227.254361 
L 279.435879 228.160771 
L 279.881722 228.160771 
L 279.993183 229.067181 
L 280.383296 229.067181 
L 280.494756 228.160771 
L 280.884869 228.160771 
L 280.99633 227.254361 
L 281.553633 227.254361 
L 281.665094 226.347951 
L 282.55678 226.347951 
L 282.668241 225.441542 
L 283.114084 225.441542 
L 283.225544 226.347951 
L 285.231838 226.347951 
L 285.343298 227.254361 
L 286.290715 227.254361 
L 286.402175 228.160771 
L 288.408469 228.160771 
L 288.519929 229.067181 
L 291.083526 229.067181 
L 291.194987 229.97359 
L 291.64083 229.97359 
L 291.752291 229.067181 
L 293.758584 229.067181 
L 293.870045 229.97359 
L 294.315888 229.97359 
L 294.427348 230.88 
L 294.928922 230.88 
L 295.040382 229.97359 
L 295.374765 229.97359 
L 295.486225 230.88 
L 295.932068 230.88 
L 296.043529 229.97359 
L 296.433642 229.97359 
L 296.545102 230.88 
L 297.548249 230.88 
L 297.65971 229.067181 
L 298.161283 229.067181 
L 298.272744 189.185153 
L 298.607126 189.185153 
L 298.718587 55.942924 
L 299.108699 55.942924 
L 299.22016 118.485195 
L 299.721733 118.485195 
L 299.833194 214.564625 
L 300.223307 214.564625 
L 300.334767 210.032576 
L 301.282183 210.032576 
L 301.393644 210.938986 
L 303.344207 210.938986 
L 303.455668 182.840285 
L 303.957241 182.840285 
L 304.068702 41.440369 
L 304.514545 41.440369 
L 304.626006 182.840285 
L 305.963534 182.840285 
L 306.080568 210.032576 
L 306.632299 210.032576 
L 306.74376 210.938986 
L 308.694322 210.938986 
L 308.805783 210.032576 
L 310.366233 210.032576 
L 310.477694 210.938986 
L 313.041291 210.938986 
L 313.152752 91.292903 
L 313.598595 91.292903 
L 313.710055 209.126167 
L 314.100168 209.126167 
L 314.211629 91.292903 
L 314.768932 91.292903 
L 314.880393 222.722313 
L 315.159045 222.722313 
L 315.270506 227.254361 
L 315.660618 227.254361 
L 315.772079 228.160771 
L 316.719495 228.160771 
L 316.830956 229.97359 
L 317.332529 229.97359 
L 317.44399 230.88 
L 318.391406 230.88 
L 318.502867 229.97359 
L 319.951857 229.97359 
L 320.063317 229.067181 
L 323.741522 229.067181 
L 323.852982 228.160771 
L 325.357702 228.160771 
L 325.469163 229.067181 
L 325.859276 229.067181 
L 325.970736 228.160771 
L 329.035907 228.160771 
L 329.147367 229.067181 
L 329.59321 229.067181 
L 329.704671 228.160771 
L 331.209391 228.160771 
L 331.320852 229.067181 
L 331.766695 229.067181 
L 331.878155 228.160771 
L 335.500629 228.160771 
L 335.61209 227.254361 
L 340.349171 227.254361 
L 340.460632 228.160771 
L 340.906475 228.160771 
L 341.017936 227.254361 
L 341.352318 227.254361 
L 341.463779 228.160771 
L 343.525802 228.160771 
L 343.637263 227.254361 
L 344.083106 227.254361 
L 344.194567 228.160771 
L 344.64041 228.160771 
L 344.75187 227.254361 
L 346.758163 227.254361 
L 346.869624 228.160771 
L 347.259737 228.160771 
L 347.371198 227.254361 
L 347.81704 227.254361 
L 347.928501 228.160771 
L 356.399517 228.160771 
L 356.510978 227.254361 
L 359.576148 227.254361 
L 359.687609 226.347951 
L 361.192329 226.347951 
L 361.303789 227.254361 
L 361.749632 227.254361 
L 361.861093 226.347951 
L 365.98514 226.347951 
L 366.096601 227.254361 
L 371.335256 227.254361 
L 371.446716 228.160771 
L 373.45301 228.160771 
L 373.56447 229.067181 
L 374.010313 229.067181 
L 374.121774 228.160771 
L 374.511887 228.160771 
L 374.623347 229.067181 
L 375.124921 229.067181 
L 375.236381 228.160771 
L 378.301552 228.160771 
L 378.413012 229.067181 
L 388.444478 229.067181 
L 388.555939 228.160771 
L 391.175266 228.160771 
L 391.286727 229.067181 
L 394.853471 229.067181 
L 394.964931 229.97359 
L 397.026955 229.97359 
L 397.138416 230.88 
L 400.259316 230.88 
L 400.370777 229.97359 
L 401.318193 229.97359 
L 401.429654 230.88 
L 401.875497 230.88 
L 401.986958 229.97359 
L 406.111005 229.97359 
L 406.222466 230.88 
L 407.169882 230.88 
L 407.281343 229.067181 
L 407.727186 229.067181 
L 407.838646 44.159598 
L 408.284489 44.159598 
L 408.39595 171.963368 
L 408.841793 171.963368 
L 408.953254 211.845396 
L 409.454827 211.845396 
L 409.566288 209.126167 
L 409.90067 209.126167 
L 410.012131 210.032576 
L 412.575728 210.032576 
L 412.687188 209.126167 
L 413.077301 209.126167 
L 413.188762 46.878827 
L 413.634605 46.878827 
L 413.746065 198.24925 
L 414.136178 198.24925 
L 414.247639 132.081341 
L 414.693482 132.081341 
L 414.804942 207.313347 
L 415.250785 207.313347 
L 415.362246 210.032576 
L 415.752359 210.032576 
L 415.863819 210.938986 
L 417.48 210.938986 
L 417.48 210.938986 
" style="fill:none;stroke:#e41a1c;stroke-linecap:square;stroke-width:2;"/>
   </g>
   <g id="patch_3">
    <path d="M 65.32538 230.88 
L 65.32538 14.52 
" style="fill:none;stroke:#000000;stroke-linecap:square;stroke-linejoin:miter;stroke-width:0.8;"/>
   </g>
   <g id="patch_4">
    <path d="M 417.48 230.88 
L 417.48 14.52 
" style="fill:none;"/>
   </g>
   <g id="patch_5">
    <path d="M 65.32538 230.88 
L 417.48 230.88 
" style="fill:none;stroke:#000000;stroke-linecap:square;stroke-linejoin:miter;stroke-width:0.8;"/>
   </g>
   <g id="patch_6">
    <path d="M 65.32538 14.52 
L 417.48 14.52 
" style="fill:none;"/>
   </g>
   <g id="legend_1">
    <g id="patch_7">
     <path d="M 309.01651 44.05585 
L 412.68 44.05585 
Q 415.88 44.05585 415.88 40.85585 
L 415.88 19.32 
Q 415.88 16.12 412.68 16.12 
L 309.01651 16.12 
Q 305.81651 16.12 305.81651 19.32 
L 305.81651 40.85585 
Q 305.81651 44.05585 309.01651 44.05585 
z
" style="fill:#ffffff;stroke:#000000;stroke-linejoin:miter;"/>
    </g>
    <g id="line2d_13">
     <path d="M 312.21651 28.77596 
L 344.21651 28.77596 
" style="fill:none;stroke:#e41a1c;stroke-linecap:square;stroke-width:2;"/>
    </g>
    <g id="line2d_14"/>
    <g id="text_14">
     <!-- X Load -->
     <g transform="translate(357.01651 34.37596)scale(0.16 -0.16)">
      <use transform="translate(0 0.343476)scale(0.996264)" xlink:href="#Century_Schoolbook_L_Roman-88"/>
      <use transform="translate(97.831344 0.343476)scale(0.996264)" xlink:href="#Century_Schoolbook_L_Roman-76"/>
      <use transform="translate(164.281375 0.343476)scale(0.996264)" xlink:href="#Century_Schoolbook_L_Roman-111"/>
      <use transform="translate(214.094576 0.343476)scale(0.996264)" xlink:href="#Century_Schoolbook_L_Roman-97"/>
      <use transform="translate(269.486253 0.343476)scale(0.996264)" xlink:href="#Century_Schoolbook_L_Roman-100"/>
     </g>
    </g>
   </g>
  </g>
 </g>
 <defs>
  <clipPath id="pe9425a714f">
   <rect height="216.36" width="352.15462" x="65.32538" y="14.52"/>
  </clipPath>
 </defs>
</svg>
