<?xml version="1.0" encoding="utf-8" standalone="no"?>
<!DOCTYPE svg PUBLIC "-//W3C//DTD SVG 1.1//EN"
  "http://www.w3.org/Graphics/SVG/1.1/DTD/svg11.dtd">
<!-- Created with matplotlib (https://matplotlib.org/) -->
<svg height="288pt" version="1.1" viewBox="0 0 432 288" width="432pt" xmlns="http://www.w3.org/2000/svg" xmlns:xlink="http://www.w3.org/1999/xlink">
 <defs>
  <style type="text/css">
*{stroke-linecap:butt;stroke-linejoin:round;}
  </style>
 </defs>
 <g id="figure_1">
  <g id="patch_1">
   <path d="M 0 288 
L 432 288 
L 432 0 
L 0 0 
z
" style="fill:#ffffff;"/>
  </g>
  <g id="axes_1">
   <g id="patch_2">
    <path d="M 100.73146 230.41218 
L 417.48 230.41218 
L 417.48 14.52 
L 100.73146 14.52 
z
" style="fill:#ffffff;"/>
   </g>
   <g id="matplotlib.axis_1">
    <g id="xtick_1">
     <g id="line2d_1">
      <defs>
       <path d="M 0 0 
L 0 3.5 
" id="m370238b62e" style="stroke:#000000;stroke-width:0.8;"/>
      </defs>
      <g>
       <use style="stroke:#000000;stroke-width:0.8;" x="153.522883" xlink:href="#m370238b62e" y="230.41218"/>
      </g>
     </g>
     <g id="text_1">
      <!-- $1$ -->
      <defs>
       <path d="M 26.59375 63.796875 
C 26.59375 65.890625 26.5 66 25.09375 66 
C 21.203125 61.359375 15.296875 59.890625 9.703125 59.6875 
C 9.40625 59.6875 8.90625 59.6875 8.796875 59.5 
C 8.703125 59.296875 8.703125 59.09375 8.703125 57 
C 11.796875 57 17 57.59375 21 59.984375 
L 21 7.296875 
C 21 3.796875 20.796875 2.59375 12.203125 2.59375 
L 9.203125 2.59375 
L 9.203125 0 
C 14 0.09375 19 0.1875 23.796875 0.1875 
C 28.59375 0.1875 33.59375 0.09375 38.40625 0 
L 38.40625 2.59375 
L 35.40625 2.59375 
C 26.796875 2.59375 26.59375 3.6875 26.59375 7.296875 
z
" id="CMR17-49"/>
      </defs>
      <g transform="translate(149.395318 250.75013)scale(0.18 -0.18)">
       <use transform="scale(0.996264)" xlink:href="#CMR17-49"/>
      </g>
     </g>
    </g>
    <g id="xtick_2">
     <g id="line2d_2">
      <g>
       <use style="stroke:#000000;stroke-width:0.8;" x="206.314307" xlink:href="#m370238b62e" y="230.41218"/>
      </g>
     </g>
     <g id="text_2">
      <!-- $2$ -->
      <defs>
       <path d="M 41.703125 15.46875 
L 39.90625 15.46875 
C 38.90625 8.390625 38.09375 7.1875 37.703125 6.59375 
C 37.203125 5.796875 30 5.796875 28.59375 5.796875 
L 9.40625 5.796875 
C 13 9.6875 20 16.765625 28.5 24.9375 
C 34.59375 30.71875 41.703125 37.5 41.703125 47.390625 
C 41.703125 59.1875 32.296875 66 21.796875 66 
C 10.796875 66 4.09375 56.296875 4.09375 47.296875 
C 4.09375 43.390625 7 42.890625 8.203125 42.890625 
C 9.203125 42.890625 12.203125 43.484375 12.203125 46.984375 
C 12.203125 50.09375 9.59375 51 8.203125 51 
C 7.59375 51 7 50.890625 6.59375 50.6875 
C 8.5 59.1875 14.296875 63.390625 20.40625 63.390625 
C 29.09375 63.390625 34.796875 56.5 34.796875 47.390625 
C 34.796875 38.703125 29.703125 31.21875 24 24.734375 
L 4.09375 2.296875 
L 4.09375 0 
L 39.296875 0 
z
" id="CMR17-50"/>
      </defs>
      <g transform="translate(202.186742 250.75013)scale(0.18 -0.18)">
       <use transform="scale(0.996264)" xlink:href="#CMR17-50"/>
      </g>
     </g>
    </g>
    <g id="xtick_3">
     <g id="line2d_3">
      <g>
       <use style="stroke:#000000;stroke-width:0.8;" x="259.10573" xlink:href="#m370238b62e" y="230.41218"/>
      </g>
     </g>
     <g id="text_3">
      <!-- $3$ -->
      <defs>
       <path d="M 22.09375 34 
C 31 34 34.90625 26.140625 34.90625 17.09375 
C 34.90625 5.03125 28.5 0.390625 22.703125 0.390625 
C 17.40625 0.390625 8.796875 3.015625 6.09375 10.796875 
C 6.59375 10.59375 7.09375 10.59375 7.59375 10.59375 
C 10 10.59375 11.796875 12.1875 11.796875 14.796875 
C 11.796875 17.6875 9.59375 19 7.59375 19 
C 5.90625 19 3.296875 18.1875 3.296875 14.484375 
C 3.296875 5.234375 12.296875 -2 22.90625 -2 
C 34 -2 42.5 6.75 42.5 16.984375 
C 42.5 26.84375 34.5 34 25 35.09375 
C 32.59375 36.671875 39.90625 43.375 39.90625 52.390625 
C 39.90625 60.25 32 66 23 66 
C 13.90625 66 5.90625 60.34375 5.90625 52.296875 
C 5.90625 48.796875 8.5 48.1875 9.796875 48.1875 
C 11.90625 48.1875 13.703125 49.484375 13.703125 52.09375 
C 13.703125 54.6875 11.90625 56 9.796875 56 
C 9.40625 56 8.90625 56 8.5 55.796875 
C 11.40625 62.484375 19.296875 63.6875 22.796875 63.6875 
C 26.296875 63.6875 32.90625 61.96875 32.90625 52.296875 
C 32.90625 49.484375 32.5 44.546875 29.09375 40.21875 
C 26.09375 36.390625 22.703125 36.1875 19.40625 35.890625 
C 18.90625 35.890625 16.59375 35.6875 16.203125 35.6875 
C 15.5 35.59375 15.09375 35.5 15.09375 34.796875 
C 15.09375 34.09375 15.203125 34 17.203125 34 
z
" id="CMR17-51"/>
      </defs>
      <g transform="translate(254.978165 250.75013)scale(0.18 -0.18)">
       <use transform="scale(0.996264)" xlink:href="#CMR17-51"/>
      </g>
     </g>
    </g>
    <g id="xtick_4">
     <g id="line2d_4">
      <g>
       <use style="stroke:#000000;stroke-width:0.8;" x="311.897153" xlink:href="#m370238b62e" y="230.41218"/>
      </g>
     </g>
     <g id="text_4">
      <!-- $4$ -->
      <defs>
       <path d="M 33.59375 64.796875 
C 33.59375 66.890625 33.5 67 31.703125 67 
L 2 19.59375 
L 2 17 
L 27.796875 17 
L 27.796875 7.1875 
C 27.796875 3.59375 27.59375 2.59375 20.59375 2.59375 
L 18.703125 2.59375 
L 18.703125 0 
C 21.90625 0.1875 27.296875 0.1875 30.703125 0.1875 
C 34.09375 0.1875 39.5 0.1875 42.703125 0 
L 42.703125 2.59375 
L 40.796875 2.59375 
C 33.796875 2.59375 33.59375 3.59375 33.59375 7.1875 
L 33.59375 17 
L 43.796875 17 
L 43.796875 19.59375 
L 33.59375 19.59375 
z
M 28.09375 58.171875 
L 28.09375 19.59375 
L 4 19.59375 
z
" id="CMR17-52"/>
      </defs>
      <g transform="translate(307.769588 250.75013)scale(0.18 -0.18)">
       <use transform="scale(0.996264)" xlink:href="#CMR17-52"/>
      </g>
     </g>
    </g>
    <g id="xtick_5">
     <g id="line2d_5">
      <g>
       <use style="stroke:#000000;stroke-width:0.8;" x="364.688577" xlink:href="#m370238b62e" y="230.41218"/>
      </g>
     </g>
     <g id="text_5">
      <!-- $5$ -->
      <defs>
       <path d="M 11.40625 58.59375 
C 12.40625 58.1875 16.5 56.890625 20.703125 56.890625 
C 30 56.890625 35.09375 61.890625 38 64.6875 
C 38 65.484375 38 66 37.40625 66 
C 37.296875 66 37.09375 66 36.296875 65.59375 
C 32.796875 64.09375 28.703125 63 23.703125 63 
C 20.703125 63 16.203125 63.359375 11.296875 65.484375 
C 10.203125 66 10 66 9.90625 66 
C 9.40625 66 9.296875 65.890625 9.296875 63.90625 
L 9.296875 34.859375 
C 9.296875 33.015625 9.296875 32.5 10.296875 32.5 
C 10.796875 32.5 11 32.703125 11.5 33.421875 
C 14.703125 38.046875 19.09375 40 24.09375 40 
C 27.59375 40 35.09375 37.734375 35.09375 20.203125 
C 35.09375 16.984375 35.09375 11.1875 32.09375 6.59375 
C 29.59375 2.484375 25.703125 0.390625 21.40625 0.390625 
C 14.796875 0.390625 8.09375 4.984375 6.296875 12.6875 
C 6.703125 12.59375 7.5 12.390625 7.90625 12.390625 
C 9.203125 12.390625 11.703125 13.09375 11.703125 16.1875 
C 11.703125 18.890625 9.796875 20 7.90625 20 
C 5.59375 20 4.09375 18.59375 4.09375 15.796875 
C 4.09375 7.09375 11 -2 21.59375 -2 
C 31.90625 -2 41.703125 6.890625 41.703125 19.796875 
C 41.703125 32.09375 33.90625 41.59375 24.203125 41.59375 
C 19.09375 41.59375 14.796875 39.6875 11.40625 36 
z
" id="CMR17-53"/>
      </defs>
      <g transform="translate(360.561012 250.75013)scale(0.18 -0.18)">
       <use transform="scale(0.996264)" xlink:href="#CMR17-53"/>
      </g>
     </g>
    </g>
    <g id="text_6">
     <!-- Segment Number -->
     <defs>
      <path d="M 54.59375 73.09375 
L 50.90625 73.09375 
L 46.90625 67.0625 
C 42.203125 71.59375 35.796875 74 28.703125 74 
C 15.59375 74 6.796875 65.546875 6.796875 52.890625 
C 6.796875 41.859375 12.203125 36.390625 26.90625 32.546875 
L 36.40625 30.125 
C 43.796875 28.203125 44.5 28 46.59375 26.375 
C 49.59375 24.046875 51.203125 20.703125 51.203125 16.765625 
C 51.203125 12.71875 49.703125 9.375 46.703125 6.640625 
C 43.40625 3.703125 40.09375 2.59375 34.59375 2.59375 
C 27.203125 2.59375 21.90625 4.921875 17.203125 10.1875 
C 13 14.9375 10.90625 19.703125 9.40625 27.484375 
L 5.09375 27.484375 
L 5.5 -1.3125 
L 9.40625 -1.3125 
L 13.90625 5.53125 
C 20.59375 0 26.203125 -2 34.90625 -2 
C 49.59375 -2 59 6.640625 59 20.203125 
C 59 26.484375 56.90625 31.84375 53 35.6875 
C 50.296875 38.3125 46.40625 40.046875 38.40625 42.0625 
L 27.703125 44.796875 
C 18.796875 47.125 14.59375 51.078125 14.59375 57.25 
C 14.59375 64.328125 20.296875 69.1875 28.796875 69.1875 
C 35.796875 69.1875 41.5 66.15625 45.5 60.390625 
C 48.40625 56.234375 50.203125 51.984375 51.5 46.828125 
L 55.796875 46.828125 
z
" id="Century_Schoolbook_L_Roman-83"/>
      <path d="M 46.5 22 
C 46.59375 37.25 38.09375 48 25.90625 48 
C 13.09375 48 3.5 36.734375 3.5 21.484375 
C 3.5 7.484375 12.59375 -2 26.09375 -2 
C 35.59375 -2 42.40625 2.6875 46.5 12.1875 
L 43 14.09375 
C 38.90625 6.390625 34.703125 3.390625 28 3.390625 
C 22.90625 3.390625 19.203125 5.59375 16.59375 9.984375 
C 14.796875 12.984375 14 16.484375 14.09375 22 
z
M 14.203125 26.296875 
C 14.203125 29.46875 14.59375 31.71875 15.59375 34.578125 
C 17.703125 40.71875 20.90625 43.6875 25.703125 43.6875 
C 31.796875 43.6875 35.796875 38.265625 35.796875 30.078125 
C 35.796875 27.109375 34.90625 26.296875 31.703125 26.296875 
z
" id="Century_Schoolbook_L_Roman-101"/>
      <path d="M 19.59375 7.59375 
C 14.09375 7.6875 13.796875 7.796875 12.59375 8.484375 
C 11.90625 8.890625 11.40625 9.984375 11.40625 11.078125 
C 11.40625 14.0625 14.09375 15.34375 20.796875 15.546875 
C 30.296875 15.75 31.796875 15.953125 35.09375 17.4375 
C 41.09375 20.125 44.5 25.296875 44.5 31.859375 
C 44.5 35.84375 43.59375 38.328125 40.796875 41.609375 
C 42.5 43.390625 43.40625 44 44.203125 44 
C 44.703125 44 45 43.703125 45.203125 42.59375 
C 45.59375 40.21875 47.203125 38.921875 49.703125 38.921875 
C 52.203125 38.921875 54.203125 41.015625 54.203125 43.703125 
C 54.203125 47.09375 51.5 49.5 47.59375 49.5 
C 44.40625 49.5 42.59375 48.5 38 44.296875 
C 33.796875 46.984375 30.59375 48 25.59375 48 
C 13.703125 48 5.90625 41.40625 5.90625 31.484375 
C 5.90625 25.640625 9.09375 20.578125 14.296875 18.203125 
C 7.59375 16.71875 4.796875 13.734375 4.796875 8.28125 
C 4.796875 3.890625 6.796875 1.296875 11.5 -0.3125 
C 5.296875 -2.5 2.296875 -5.703125 2.296875 -9.8125 
C 2.296875 -16.40625 10 -20.109375 23.40625 -20.109375 
C 40.09375 -20.109375 48.5 -14.8125 48.5 -4.3125 
C 48.5 0.6875 46.203125 4.6875 42.5 6.1875 
C 39.90625 7.1875 36.703125 7.59375 29.796875 7.59375 
z
M 25.5 43.6875 
C 31.796875 43.6875 35.296875 39.328125 35.296875 31.6875 
C 35.296875 23.953125 31.5 19.296875 25.09375 19.296875 
C 18.90625 19.296875 15 23.953125 15 31.390625 
C 15 39.234375 18.796875 43.6875 25.5 43.6875 
z
M 24.59375 -1 
C 32.90625 -1 33.5 -1 35 -1.203125 
C 39 -1.609375 41.5 -3.8125 41.5 -7 
C 41.5 -12.703125 35 -16 23.796875 -16 
C 15.40625 -16 10.59375 -13.5 10.59375 -9 
C 10.59375 -5.703125 12.40625 -3.5 17.203125 -1 
z
" id="Century_Schoolbook_L_Roman-103"/>
      <path d="M 20.09375 47 
L 2.296875 46 
L 2.296875 41.6875 
L 6.40625 41.6875 
C 10.09375 41.6875 10.703125 40.984375 10.703125 36.625 
L 10.703125 12.40625 
L 10.703125 8.453125 
C 10.703125 4.296875 9.59375 3.59375 3.203125 3.59375 
L 2.796875 3.59375 
L 2.796875 0 
L 28 0 
L 28 3.59375 
L 27.59375 3.59375 
C 21.203125 3.59375 20.09375 4.296875 20.09375 8.453125 
L 20.09375 12.40625 
L 20.09375 26.796875 
C 20.09375 35.3125 25 41.890625 31.5 41.890625 
C 34.09375 41.890625 36.90625 40.5 38.09375 38.59375 
C 39.5 36.703125 40.09375 33.8125 40.09375 29.71875 
L 40.09375 12.265625 
L 40.09375 8.28125 
C 40.09375 4.296875 39 3.59375 32.5 3.59375 
L 32.09375 3.59375 
L 32.09375 0 
L 57.40625 0 
L 57.40625 3.59375 
L 57 3.59375 
C 50.59375 3.59375 49.5 4.296875 49.5 8.28125 
L 49.5 12.265625 
L 49.5 25.53125 
C 49.5 35.5 54 41.890625 61 41.890625 
C 64.296875 41.890625 67 40 68.296875 36.90625 
C 69.203125 34.703125 69.5 32.515625 69.5 28.625 
L 69.5 12.265625 
L 69.5 8.28125 
C 69.5 4.296875 68.40625 3.59375 61.90625 3.59375 
L 61.5 3.59375 
L 61.5 0 
L 86.796875 0 
L 86.796875 3.59375 
L 86.40625 3.59375 
C 80 3.59375 78.90625 4.296875 78.90625 8.375 
L 78.90625 12.265625 
L 78.90625 30.625 
C 78.90625 36.796875 78.296875 38.890625 75.703125 42.296875 
C 72.796875 45.984375 68.703125 48 63.90625 48 
C 57.40625 48 52.59375 44.890625 48.296875 38 
C 46.59375 43.984375 41.203125 48 34.5 48 
C 28.5 48 24 45.09375 20.09375 38.796875 
z
" id="Century_Schoolbook_L_Roman-109"/>
      <path d="M 20 47 
L 2.703125 46 
L 2.703125 41.6875 
L 6.296875 41.6875 
C 10 41.6875 10.59375 40.984375 10.59375 36.625 
L 10.59375 12.40625 
L 10.59375 8.359375 
C 10.59375 4.296875 9.5 3.59375 3.09375 3.59375 
L 2.703125 3.59375 
L 2.703125 0 
L 28 0 
L 28 3.59375 
L 27.59375 3.59375 
C 21.09375 3.59375 20 4.296875 20 8.359375 
L 20 12.40625 
L 20 22.953125 
C 20 27.90625 20.703125 32.46875 21.796875 34.796875 
C 23.90625 38.796875 28.40625 41.890625 32.703125 41.890625 
C 35.296875 41.890625 38.296875 40.390625 39.796875 38.40625 
C 41.296875 36.296875 42 33.21875 42 28.421875 
L 42 12.265625 
L 42 8.28125 
C 42 4.296875 40.90625 3.59375 34.40625 3.59375 
L 34 3.59375 
L 34 0 
L 59.296875 0 
L 59.296875 3.59375 
L 58.90625 3.59375 
C 52.5 3.59375 51.40625 4.296875 51.40625 8.28125 
L 51.40625 12.265625 
L 51.40625 27.921875 
C 51.40625 35.109375 51.09375 36.90625 49.296875 40.296875 
C 46.796875 45.09375 41.703125 48 35.796875 48 
C 29.40625 48 24.40625 44.984375 20 38.40625 
z
" id="Century_Schoolbook_L_Roman-110"/>
      <path d="M 19.40625 47 
L 19.40625 66.796875 
L 15.296875 66.796875 
C 14.296875 53.796875 9.90625 47.1875 1.796875 46.59375 
L 1.796875 42.6875 
L 10 42.6875 
L 10 16.578125 
C 10 9.421875 10.203125 6.859375 11.203125 4.5 
C 12.796875 0.296875 16.796875 -2 22.59375 -2 
C 26.5 -2 29.90625 -0.8125 32.203125 1.390625 
C 35.5 4.609375 37.40625 10.03125 37.40625 15.65625 
C 37.40625 16.28125 37.40625 17 37.296875 18.015625 
L 33.09375 18.015625 
C 32.796875 8.796875 30.203125 4.09375 25.296875 4.09375 
C 23 4.09375 21 5.328125 20.296875 7.0625 
C 19.703125 8.5 19.40625 11.0625 19.40625 14.734375 
L 19.40625 42.6875 
L 34.09375 42.6875 
L 34.09375 47 
z
" id="Century_Schoolbook_L_Roman-116"/>
      <path d="M 22.5 72 
L 1.90625 72 
L 1.90625 67.296875 
L 4.40625 67.296875 
C 9.5 67.296875 11.796875 66.5 13.59375 64 
L 13.59375 21.640625 
C 13.59375 7.984375 11.59375 5.09375 2 4.6875 
L 2 0 
L 30.5 0 
L 30.5 4.6875 
C 21 5.09375 19 7.984375 19 21.640625 
L 19 58.625 
L 63.59375 -1 
L 67.796875 -1 
L 67.796875 50.453125 
C 67.796875 64.03125 69.796875 66.890625 79.40625 67.296875 
L 79.40625 72 
L 50.90625 72 
L 50.90625 67.296875 
C 60.40625 66.890625 62.40625 64.03125 62.40625 50.453125 
L 62.40625 19.328125 
z
" id="Century_Schoolbook_L_Roman-78"/>
      <path d="M 41.203125 -0.703125 
L 59.40625 0 
L 59.40625 4.296875 
L 56.90625 4.296875 
C 51.40625 4.296875 50.59375 5.203125 50.59375 11.671875 
L 50.59375 47 
L 31.796875 46 
L 31.796875 41.6875 
L 36.90625 41.6875 
C 40.59375 41.6875 41.203125 40.96875 41.203125 36.5625 
L 41.203125 23.921875 
C 41.203125 18.0625 40.59375 14.671875 39.09375 11.28125 
C 37 6.765625 33 4.09375 28.09375 4.09375 
C 25 4.09375 22.40625 5.21875 21.09375 7.28125 
C 19.796875 9.234375 19.59375 10.25 19.59375 15.90625 
L 19.59375 47 
L 2.09375 46 
L 2.09375 41.6875 
L 5.90625 41.6875 
C 9.59375 41.6875 10.203125 40.96875 10.203125 36.5625 
L 10.203125 14.359375 
C 10.203125 9.125 10.59375 6.765625 12.09375 4.40625 
C 14.796875 0.296875 19.59375 -2 25.59375 -2 
C 32.203125 -2 36.796875 0.6875 41.203125 7.171875 
z
" id="Century_Schoolbook_L_Roman-117"/>
      <path d="M 18 74 
L 0.796875 73 
L 0.796875 68.6875 
L 4.296875 68.6875 
C 8 68.6875 8.59375 67.96875 8.59375 63.5625 
L 8.59375 24.109375 
C 8.59375 10.578125 8.09375 4.015625 6.796875 -1.90625 
L 10.59375 -1.90625 
L 15.5 5.921875 
C 19.59375 0.5 24.296875 -2 30.5 -2 
C 42.796875 -2 52 8.75 52 23.296875 
C 52 37.84375 43.59375 48 31.59375 48 
C 25.5 48 21.796875 45.890625 18 40.171875 
z
M 29.796875 42.890625 
C 37.296875 42.890625 41.5 35.515625 41.5 22.296875 
C 41.5 9.5625 37.40625 2.296875 30.09375 2.296875 
C 22.203125 2.296875 17.5 9.671875 17.5 22.09375 
C 17.5 35.515625 21.796875 42.890625 29.796875 42.890625 
z
" id="Century_Schoolbook_L_Roman-98"/>
      <path d="M 19.796875 47 
L 2.09375 45.296875 
L 2.09375 41 
L 6.203125 41 
C 9.90625 41 10.5 40.296875 10.5 36.015625 
L 10.5 12.25 
L 10.5 8.265625 
C 10.5 4.28125 9.40625 3.59375 2.90625 3.59375 
L 2.5 3.59375 
L 2.5 0 
L 29.203125 0 
L 29.203125 3.59375 
L 27.296875 3.59375 
C 20.90625 3.59375 19.796875 4.28125 19.796875 8.265625 
L 19.796875 12.25 
L 19.796875 13.234375 
C 19.796875 20.703125 21.203125 28.265625 23.703125 33.9375 
C 26.09375 39.5 29.5 42.59375 33.703125 43.09375 
C 32.296875 41.5 31.90625 40.5 31.90625 38.609375 
C 31.90625 35.421875 34.203125 33.140625 37.40625 33.140625 
C 41 33.140625 43.5 35.828125 43.5 39.90625 
C 43.5 44.6875 40.09375 48 34.796875 48 
C 28.5 48 23 42.796875 19.796875 34.03125 
z
" id="Century_Schoolbook_L_Roman-114"/>
     </defs>
     <g transform="translate(185.7654 272.77795)scale(0.18 -0.18)">
      <use transform="translate(0 -1.570628)scale(0.996264)" xlink:href="#Century_Schoolbook_L_Roman-83"/>
      <use transform="translate(62.763979 -1.570628)scale(0.996264)" xlink:href="#Century_Schoolbook_L_Roman-101"/>
      <use transform="translate(112.577179 -1.570628)scale(0.996264)" xlink:href="#Century_Schoolbook_L_Roman-103"/>
      <use transform="translate(166.076523 -1.570628)scale(0.996264)" xlink:href="#Century_Schoolbook_L_Roman-109"/>
      <use transform="translate(254.64343 -1.570628)scale(0.996264)" xlink:href="#Century_Schoolbook_L_Roman-101"/>
      <use transform="translate(304.456631 -1.570628)scale(0.996264)" xlink:href="#Century_Schoolbook_L_Roman-110"/>
      <use transform="translate(365.328261 -1.570628)scale(0.996264)" xlink:href="#Century_Schoolbook_L_Roman-116"/>
      <use transform="translate(431.777137 -1.570628)scale(0.996264)" xlink:href="#Century_Schoolbook_L_Roman-78"/>
      <use transform="translate(512.971651 -1.570628)scale(0.996264)" xlink:href="#Century_Schoolbook_L_Roman-117"/>
      <use transform="translate(573.843281 -1.570628)scale(0.996264)" xlink:href="#Century_Schoolbook_L_Roman-109"/>
      <use transform="translate(662.410188 -1.570628)scale(0.996264)" xlink:href="#Century_Schoolbook_L_Roman-98"/>
      <use transform="translate(717.801865 -1.570628)scale(0.996264)" xlink:href="#Century_Schoolbook_L_Roman-101"/>
      <use transform="translate(767.615065 -1.570628)scale(0.996264)" xlink:href="#Century_Schoolbook_L_Roman-114"/>
     </g>
    </g>
   </g>
   <g id="matplotlib.axis_2">
    <g id="ytick_1">
     <g id="line2d_6">
      <defs>
       <path d="M 0 0 
L -3.5 0 
" id="m6af11977e8" style="stroke:#000000;stroke-width:0.8;"/>
      </defs>
      <g>
       <use style="stroke:#000000;stroke-width:0.8;" x="100.73146" xlink:href="#m6af11977e8" y="230.41218"/>
      </g>
     </g>
     <g id="text_7">
      <!-- $-0.0002$ -->
      <defs>
       <path d="M 65.90625 23 
C 67.59375 23 69.40625 23 69.40625 25 
C 69.40625 27 67.59375 27 65.90625 27 
L 11.796875 27 
C 10.09375 27 8.296875 27 8.296875 25 
C 8.296875 23 10.09375 23 11.796875 23 
z
" id="CMSY10-0"/>
       <path d="M 42 31.84375 
C 42 37.96875 41.90625 48.421875 37.703125 56.453125 
C 34 63.484375 28.09375 66 22.90625 66 
C 18.09375 66 12 63.78125 8.203125 56.5625 
C 4.203125 49.015625 3.796875 39.671875 3.796875 31.84375 
C 3.796875 26.109375 3.90625 17.375 7 9.734375 
C 11.296875 -0.609375 19 -2 22.90625 -2 
C 27.5 -2 34.5 -0.109375 38.59375 9.4375 
C 41.59375 16.375 42 24.5 42 31.84375 
z
M 22.90625 -0.40625 
C 16.5 -0.40625 12.703125 5.125 11.296875 12.75 
C 10.203125 18.6875 10.203125 27.328125 10.203125 32.953125 
C 10.203125 40.6875 10.203125 47.109375 11.5 53.234375 
C 13.40625 61.78125 19 64.390625 22.90625 64.390625 
C 27 64.390625 32.296875 61.671875 34.203125 53.4375 
C 35.5 47.71875 35.59375 40.984375 35.59375 32.953125 
C 35.59375 26.421875 35.59375 18.375 34.40625 12.453125 
C 32.296875 1.5 26.40625 -0.40625 22.90625 -0.40625 
z
" id="CMR17-48"/>
       <path d="M 18.40625 4.796875 
C 18.40625 7.6875 16 9.6875 13.59375 9.6875 
C 10.703125 9.6875 8.703125 7.296875 8.703125 4.890625 
C 8.703125 2 11.09375 0 13.5 0 
C 16.40625 0 18.40625 2.390625 18.40625 4.796875 
z
" id="CMMI12-58"/>
      </defs>
      <g transform="translate(33.56 237.081155)scale(0.18 -0.18)">
       <use transform="translate(0 -0.031134)scale(0.996264)" xlink:href="#CMSY10-0"/>
       <use transform="translate(77.487468 -0.031134)scale(0.996264)" xlink:href="#CMR17-48"/>
       <use transform="translate(123.177945 -0.031134)scale(0.996264)" xlink:href="#CMMI12-58"/>
       <use transform="translate(150.275122 -0.031134)scale(0.996264)" xlink:href="#CMR17-48"/>
       <use transform="translate(195.965599 -0.031134)scale(0.996264)" xlink:href="#CMR17-48"/>
       <use transform="translate(241.656076 -0.031134)scale(0.996264)" xlink:href="#CMR17-48"/>
       <use transform="translate(287.346553 -0.031134)scale(0.996264)" xlink:href="#CMR17-50"/>
      </g>
     </g>
    </g>
    <g id="ytick_2">
     <g id="line2d_7">
      <g>
       <use style="stroke:#000000;stroke-width:0.8;" x="100.73146" xlink:href="#m6af11977e8" y="197.72764"/>
      </g>
     </g>
     <g id="text_8">
      <!-- $0.0000$ -->
      <g transform="translate(47.56004 204.396615)scale(0.18 -0.18)">
       <use transform="scale(0.996264)" xlink:href="#CMR17-48"/>
       <use transform="translate(45.690477 0)scale(0.996264)" xlink:href="#CMMI12-58"/>
       <use transform="translate(72.787654 0)scale(0.996264)" xlink:href="#CMR17-48"/>
       <use transform="translate(118.478131 0)scale(0.996264)" xlink:href="#CMR17-48"/>
       <use transform="translate(164.168608 0)scale(0.996264)" xlink:href="#CMR17-48"/>
       <use transform="translate(209.859086 0)scale(0.996264)" xlink:href="#CMR17-48"/>
      </g>
     </g>
    </g>
    <g id="ytick_3">
     <g id="line2d_8">
      <g>
       <use style="stroke:#000000;stroke-width:0.8;" x="100.73146" xlink:href="#m6af11977e8" y="165.043099"/>
      </g>
     </g>
     <g id="text_9">
      <!-- $0.0002$ -->
      <g transform="translate(47.56004 171.712074)scale(0.18 -0.18)">
       <use transform="scale(0.996264)" xlink:href="#CMR17-48"/>
       <use transform="translate(45.690477 0)scale(0.996264)" xlink:href="#CMMI12-58"/>
       <use transform="translate(72.787654 0)scale(0.996264)" xlink:href="#CMR17-48"/>
       <use transform="translate(118.478131 0)scale(0.996264)" xlink:href="#CMR17-48"/>
       <use transform="translate(164.168608 0)scale(0.996264)" xlink:href="#CMR17-48"/>
       <use transform="translate(209.859086 0)scale(0.996264)" xlink:href="#CMR17-50"/>
      </g>
     </g>
    </g>
    <g id="ytick_4">
     <g id="line2d_9">
      <g>
       <use style="stroke:#000000;stroke-width:0.8;" x="100.73146" xlink:href="#m6af11977e8" y="132.358559"/>
      </g>
     </g>
     <g id="text_10">
      <!-- $0.0004$ -->
      <g transform="translate(47.56004 139.027534)scale(0.18 -0.18)">
       <use transform="scale(0.996264)" xlink:href="#CMR17-48"/>
       <use transform="translate(45.690477 0)scale(0.996264)" xlink:href="#CMMI12-58"/>
       <use transform="translate(72.787654 0)scale(0.996264)" xlink:href="#CMR17-48"/>
       <use transform="translate(118.478131 0)scale(0.996264)" xlink:href="#CMR17-48"/>
       <use transform="translate(164.168608 0)scale(0.996264)" xlink:href="#CMR17-48"/>
       <use transform="translate(209.859086 0)scale(0.996264)" xlink:href="#CMR17-52"/>
      </g>
     </g>
    </g>
    <g id="ytick_5">
     <g id="line2d_10">
      <g>
       <use style="stroke:#000000;stroke-width:0.8;" x="100.73146" xlink:href="#m6af11977e8" y="99.674019"/>
      </g>
     </g>
     <g id="text_11">
      <!-- $0.0006$ -->
      <defs>
       <path d="M 10.59375 34.34375 
C 10.59375 58 21.796875 63.6875 28.296875 63.6875 
C 30.40625 63.6875 35.5 63.265625 37.5 59.09375 
C 35.90625 59.09375 32.90625 59.09375 32.90625 55.59375 
C 32.90625 52.890625 35.09375 52 36.5 52 
C 37.40625 52 40.09375 52.390625 40.09375 55.796875 
C 40.09375 62.296875 35.09375 66 28.203125 66 
C 16.296875 66 3.796875 53.296875 3.796875 31.421875 
C 3.796875 4.015625 15.09375 -2 23.09375 -2 
C 32.796875 -2 42 6.734375 42 20.234375 
C 42 32.828125 33.90625 42 23.703125 42 
C 17.59375 42 13.09375 37.96875 10.59375 30.921875 
z
M 23.09375 0.390625 
C 10.796875 0.390625 10.796875 18.9375 10.796875 22.65625 
C 10.796875 29.90625 14.203125 40.390625 23.5 40.390625 
C 25.203125 40.390625 30.09375 40.390625 33.40625 33.4375 
C 35.203125 29.515625 35.203125 25.375 35.203125 20.34375 
C 35.203125 14.90625 35.203125 10.875 33.09375 6.84375 
C 30.90625 2.703125 27.703125 0.390625 23.09375 0.390625 
z
" id="CMR17-54"/>
      </defs>
      <g transform="translate(47.56004 106.342994)scale(0.18 -0.18)">
       <use transform="scale(0.996264)" xlink:href="#CMR17-48"/>
       <use transform="translate(45.690477 0)scale(0.996264)" xlink:href="#CMMI12-58"/>
       <use transform="translate(72.787654 0)scale(0.996264)" xlink:href="#CMR17-48"/>
       <use transform="translate(118.478131 0)scale(0.996264)" xlink:href="#CMR17-48"/>
       <use transform="translate(164.168608 0)scale(0.996264)" xlink:href="#CMR17-48"/>
       <use transform="translate(209.859086 0)scale(0.996264)" xlink:href="#CMR17-54"/>
      </g>
     </g>
    </g>
    <g id="ytick_6">
     <g id="line2d_11">
      <g>
       <use style="stroke:#000000;stroke-width:0.8;" x="100.73146" xlink:href="#m6af11977e8" y="66.989478"/>
      </g>
     </g>
     <g id="text_12">
      <!-- $0.0008$ -->
      <defs>
       <path d="M 27.203125 35.765625 
C 33.5 38.96875 39.90625 43.796875 39.90625 51.53125 
C 39.90625 60.6875 31.09375 66 23 66 
C 13.90625 66 5.90625 59.375 5.90625 50.234375 
C 5.90625 47.71875 6.5 43.390625 10.40625 39.578125 
C 11.40625 38.578125 15.59375 35.5625 18.296875 33.65625 
C 13.796875 31.34375 3.296875 25.8125 3.296875 14.765625 
C 3.296875 4.40625 13.09375 -2 22.796875 -2 
C 33.5 -2 42.5 5.71875 42.5 15.96875 
C 42.5 25.109375 36.40625 29.328125 32.40625 32.046875 
z
M 14.09375 44.609375 
C 13.296875 45.109375 9.296875 48.21875 9.296875 52.9375 
C 9.296875 59.078125 15.59375 63.6875 22.796875 63.6875 
C 30.703125 63.6875 36.5 58.0625 36.5 51.53125 
C 36.5 42.1875 26.09375 36.859375 25.59375 36.859375 
C 25.5 36.859375 25.40625 36.859375 24.59375 37.46875 
z
M 32.5 24 
C 34 22.90625 38.796875 19.578125 38.796875 13.453125 
C 38.796875 6.015625 31.40625 0.390625 23 0.390625 
C 13.90625 0.390625 7 6.921875 7 14.859375 
C 7 22.796875 13.09375 29.4375 20 32.546875 
z
" id="CMR17-56"/>
      </defs>
      <g transform="translate(47.56004 73.658453)scale(0.18 -0.18)">
       <use transform="scale(0.996264)" xlink:href="#CMR17-48"/>
       <use transform="translate(45.690477 0)scale(0.996264)" xlink:href="#CMMI12-58"/>
       <use transform="translate(72.787654 0)scale(0.996264)" xlink:href="#CMR17-48"/>
       <use transform="translate(118.478131 0)scale(0.996264)" xlink:href="#CMR17-48"/>
       <use transform="translate(164.168608 0)scale(0.996264)" xlink:href="#CMR17-48"/>
       <use transform="translate(209.859086 0)scale(0.996264)" xlink:href="#CMR17-56"/>
      </g>
     </g>
    </g>
    <g id="ytick_7">
     <g id="line2d_12">
      <g>
       <use style="stroke:#000000;stroke-width:0.8;" x="100.73146" xlink:href="#m6af11977e8" y="34.304938"/>
      </g>
     </g>
     <g id="text_13">
      <!-- $0.0010$ -->
      <g transform="translate(47.56004 40.973913)scale(0.18 -0.18)">
       <use transform="scale(0.996264)" xlink:href="#CMR17-48"/>
       <use transform="translate(45.690477 0)scale(0.996264)" xlink:href="#CMMI12-58"/>
       <use transform="translate(72.787654 0)scale(0.996264)" xlink:href="#CMR17-48"/>
       <use transform="translate(118.478131 0)scale(0.996264)" xlink:href="#CMR17-48"/>
       <use transform="translate(164.168608 0)scale(0.996264)" xlink:href="#CMR17-49"/>
       <use transform="translate(209.859086 0)scale(0.996264)" xlink:href="#CMR17-48"/>
      </g>
     </g>
    </g>
    <g id="text_14">
     <!-- Skew -->
     <defs>
      <path d="M 19.90625 24.484375 
L 19.90625 74 
L 1.40625 73 
L 1.40625 68.6875 
L 6.203125 68.6875 
C 9.90625 68.6875 10.5 68 10.5 63.6875 
L 10.5 12.375 
L 10.5 8.34375 
C 10.5 4.296875 9.40625 3.59375 3 3.59375 
L 2.59375 3.59375 
L 2.59375 0 
L 27.90625 0 
L 27.90625 3.59375 
L 27.5 3.59375 
C 21 3.59375 19.90625 4.296875 19.90625 8.34375 
L 19.90625 12.375 
L 19.90625 18.140625 
L 26 24 
L 37.90625 7.125 
C 38.296875 6.421875 38.59375 5.8125 38.59375 5.3125 
C 38.59375 4 37.5 3.59375 34.203125 3.59375 
L 32.296875 3.59375 
L 32.296875 0 
L 58.703125 0 
L 58.703125 3.59375 
C 53.09375 4.09375 51.09375 5.3125 47 10.5625 
L 32.796875 30.15625 
L 37.296875 34.609375 
C 43.09375 40.359375 47.40625 42.578125 54.203125 43.390625 
L 54.203125 47 
L 27.90625 47 
L 27.90625 43.390625 
L 31 43.390625 
C 34.203125 43.390625 35.703125 42.78125 35.703125 41.46875 
C 35.703125 40.359375 35 39.15625 33.40625 37.53125 
z
" id="Century_Schoolbook_L_Roman-107"/>
      <path d="M 54.703125 12.65625 
L 44.90625 38.890625 
C 44.59375 39.609375 44.5 40.125 44.5 41.046875 
C 44.5 42.875 45.40625 43.390625 48.703125 43.390625 
L 51.09375 43.390625 
L 51.09375 47 
L 28.703125 47 
L 28.703125 43.390625 
L 30.40625 43.390625 
C 33.5 43.390625 34.703125 42.578125 35.59375 39.609375 
L 36.5 36.953125 
L 27.703125 13.171875 
L 18 38.796875 
C 17.796875 39.515625 17.59375 40.421875 17.59375 41.046875 
C 17.59375 42.78125 18.703125 43.390625 21.703125 43.390625 
L 23.5 43.390625 
L 23.5 47 
L 1.5 47 
L 1.5 43.390625 
L 3.296875 43.390625 
C 6.09375 43.390625 7.09375 42.46875 8.5 38.390625 
L 23.5 -2 
L 27 -2 
L 38.90625 30.21875 
L 51.09375 -2 
L 54.203125 -2 
L 68.203125 35.625 
C 70.40625 41.65625 72.09375 43.390625 75.59375 43.390625 
L 76.296875 43.390625 
L 76.296875 47 
L 57.40625 47 
L 57.40625 43.390625 
L 59.09375 43.390625 
C 62.59375 43.390625 64 42.265625 64 39.71875 
C 64 38.6875 63.703125 37.15625 63.203125 35.9375 
z
" id="Century_Schoolbook_L_Roman-119"/>
     </defs>
     <g transform="translate(24.87013 144.974865)rotate(-90)scale(0.18 -0.18)">
      <use transform="translate(0 0.343476)scale(0.996264)" xlink:href="#Century_Schoolbook_L_Roman-83"/>
      <use transform="translate(62.763979 0.343476)scale(0.996264)" xlink:href="#Century_Schoolbook_L_Roman-107"/>
      <use transform="translate(121.841708 0.343476)scale(0.996264)" xlink:href="#Century_Schoolbook_L_Roman-101"/>
      <use transform="translate(171.654909 0.343476)scale(0.996264)" xlink:href="#Century_Schoolbook_L_Roman-119"/>
     </g>
    </g>
   </g>
   <g id="line2d_13">
    <path clip-path="url(#pa032d6c07e)" d="M 100.73146 201.676006 
L 164.081168 198.314645 
L 227.430876 195.468435 
L 290.780584 200.256931 
L 354.130292 200.74944 
L 417.48 76.930348 
" style="fill:none;stroke:#e41a1c;stroke-linecap:square;stroke-width:2;"/>
   </g>
   <g id="line2d_14">
    <path clip-path="url(#pa032d6c07e)" d="M 100.73146 196.754229 
L 164.081168 196.972353 
L 227.430876 197.400005 
L 290.780584 198.266669 
L 354.130292 197.966523 
L 417.48 76.905335 
" style="fill:none;stroke:#377eb8;stroke-dasharray:7.4,3.2;stroke-dashoffset:0;stroke-linecap:round;stroke-width:2;"/>
   </g>
   <g id="patch_3">
    <path d="M 100.73146 230.41218 
L 100.73146 14.52 
" style="fill:none;stroke:#000000;stroke-linecap:square;stroke-linejoin:miter;stroke-width:0.8;"/>
   </g>
   <g id="patch_4">
    <path d="M 417.48 230.41218 
L 417.48 14.52 
" style="fill:none;"/>
   </g>
   <g id="patch_5">
    <path d="M 100.73146 230.41218 
L 417.48 230.41218 
" style="fill:none;stroke:#000000;stroke-linecap:square;stroke-linejoin:miter;stroke-width:0.8;"/>
   </g>
   <g id="patch_6">
    <path d="M 100.73146 14.52 
L 417.48 14.52 
" style="fill:none;"/>
   </g>
   <g id="legend_1">
    <g id="patch_7">
     <path d="M 138.60155 44.05585 
L 412.68 44.05585 
Q 415.88 44.05585 415.88 40.85585 
L 415.88 19.32 
Q 415.88 16.12 412.68 16.12 
L 138.60155 16.12 
Q 135.40155 16.12 135.40155 19.32 
L 135.40155 40.85585 
Q 135.40155 44.05585 138.60155 44.05585 
z
" style="fill:#ffffff;stroke:#000000;stroke-linejoin:miter;"/>
    </g>
    <g id="line2d_15">
     <path d="M 141.80155 28.77596 
L 173.80155 28.77596 
" style="fill:none;stroke:#e41a1c;stroke-linecap:square;stroke-width:2;"/>
    </g>
    <g id="line2d_16"/>
    <g id="text_15">
     <!-- Not Cutting -->
     <defs>
      <path d="M 25.203125 48 
C 13 48 3.40625 37.03125 3.40625 22.890625 
C 3.40625 9.0625 13 -2 25 -2 
C 37 -2 46.59375 9.0625 46.59375 22.984375 
C 46.59375 36.828125 37 48 25.203125 48 
z
M 25.203125 43.6875 
C 32.203125 43.6875 36.09375 36.3125 36.09375 22.984375 
C 36.09375 9.5625 32.203125 2.296875 25 2.296875 
C 17.796875 2.296875 13.90625 9.5625 13.90625 22.890625 
C 13.90625 36.625 17.703125 43.6875 25.203125 43.6875 
z
" id="Century_Schoolbook_L_Roman-111"/>
      <path d="M 63.90625 73.1875 
L 60.09375 73.1875 
L 56.09375 67.265625 
C 49 72.484375 45.09375 74 38.40625 74 
C 28.703125 74 20.703125 70.09375 13.90625 61.90625 
C 7.5 54.203125 4.5 45.703125 4.5 35.28125 
C 4.5 13.515625 18.59375 -2 38.296875 -2 
C 54.296875 -2 64.5 7.453125 66.796875 24.453125 
L 62.09375 25.265625 
C 61.09375 19.90625 59.90625 16.25 58.09375 13.21875 
C 54 6.234375 47.59375 2.6875 39.5 2.6875 
C 24.703125 2.6875 17.703125 13.125 17.703125 34.875 
C 17.703125 46.3125 19.203125 54 22.59375 60.078125 
C 25.703125 65.75 31.90625 69.296875 38.296875 69.296875 
C 45.296875 69.296875 51.5 65.546875 55.296875 59.0625 
C 57.203125 55.734375 58.703125 51.78125 61 43.984375 
L 65.40625 43.984375 
z
" id="Century_Schoolbook_L_Roman-67"/>
      <path d="M 20.59375 47 
L 1.796875 46 
L 1.796875 41.6875 
L 6.90625 41.6875 
C 10.59375 41.6875 11.203125 40.984375 11.203125 36.625 
L 11.203125 12.40625 
L 11.203125 8.359375 
C 11.203125 4.296875 10.09375 3.59375 3.703125 3.59375 
L 3 3.59375 
L 3 0 
L 28.90625 0 
L 28.90625 3.59375 
L 28.203125 3.59375 
C 21.703125 3.59375 20.59375 4.296875 20.59375 8.359375 
L 20.59375 12.40625 
z
M 15.90625 72 
C 12.703125 72 10.09375 69.390625 10.09375 66.1875 
C 10.09375 63.09375 12.703125 60.390625 15.796875 60.390625 
C 19.09375 60.390625 21.703125 62.984375 21.703125 66.1875 
C 21.703125 69.390625 19.09375 72 15.90625 72 
z
" id="Century_Schoolbook_L_Roman-105"/>
     </defs>
     <g transform="translate(186.60155 34.37596)scale(0.16 -0.16)">
      <use transform="translate(0 -1.570628)scale(0.996264)" xlink:href="#Century_Schoolbook_L_Roman-78"/>
      <use transform="translate(81.194513 -1.570628)scale(0.996264)" xlink:href="#Century_Schoolbook_L_Roman-111"/>
      <use transform="translate(131.007714 -1.570628)scale(0.996264)" xlink:href="#Century_Schoolbook_L_Roman-116"/>
      <use transform="translate(197.45659 -1.570628)scale(0.996264)" xlink:href="#Century_Schoolbook_L_Roman-67"/>
      <use transform="translate(269.386575 -1.570628)scale(0.996264)" xlink:href="#Century_Schoolbook_L_Roman-117"/>
      <use transform="translate(330.258205 -1.570628)scale(0.996264)" xlink:href="#Century_Schoolbook_L_Roman-116"/>
      <use transform="translate(369.011912 -1.570628)scale(0.996264)" xlink:href="#Century_Schoolbook_L_Roman-116"/>
      <use transform="translate(407.765618 -1.570628)scale(0.996264)" xlink:href="#Century_Schoolbook_L_Roman-105"/>
      <use transform="translate(439.146931 -1.570628)scale(0.996264)" xlink:href="#Century_Schoolbook_L_Roman-110"/>
      <use transform="translate(500.018561 -1.570628)scale(0.996264)" xlink:href="#Century_Schoolbook_L_Roman-103"/>
     </g>
    </g>
    <g id="line2d_17">
     <path d="M 307.49654 28.77596 
L 339.49654 28.77596 
" style="fill:none;stroke:#377eb8;stroke-dasharray:7.4,3.2;stroke-dashoffset:0;stroke-linecap:round;stroke-width:2;"/>
    </g>
    <g id="line2d_18"/>
    <g id="text_16">
     <!-- Cutting -->
     <g transform="translate(352.29654 34.37596)scale(0.16 -0.16)">
      <use transform="translate(0 -1.570628)scale(0.996264)" xlink:href="#Century_Schoolbook_L_Roman-67"/>
      <use transform="translate(71.929985 -1.570628)scale(0.996264)" xlink:href="#Century_Schoolbook_L_Roman-117"/>
      <use transform="translate(132.801616 -1.570628)scale(0.996264)" xlink:href="#Century_Schoolbook_L_Roman-116"/>
      <use transform="translate(171.555322 -1.570628)scale(0.996264)" xlink:href="#Century_Schoolbook_L_Roman-116"/>
      <use transform="translate(210.309028 -1.570628)scale(0.996264)" xlink:href="#Century_Schoolbook_L_Roman-105"/>
      <use transform="translate(241.690341 -1.570628)scale(0.996264)" xlink:href="#Century_Schoolbook_L_Roman-110"/>
      <use transform="translate(302.561972 -1.570628)scale(0.996264)" xlink:href="#Century_Schoolbook_L_Roman-103"/>
     </g>
    </g>
   </g>
  </g>
 </g>
 <defs>
  <clipPath id="pa032d6c07e">
   <rect height="215.89218" width="316.74854" x="100.73146" y="14.52"/>
  </clipPath>
 </defs>
</svg>
