<?xml version="1.0" encoding="utf-8" standalone="no"?>
<!DOCTYPE svg PUBLIC "-//W3C//DTD SVG 1.1//EN"
  "http://www.w3.org/Graphics/SVG/1.1/DTD/svg11.dtd">
<!-- Created with matplotlib (https://matplotlib.org/) -->
<svg height="288pt" version="1.1" viewBox="0 0 432 288" width="432pt" xmlns="http://www.w3.org/2000/svg" xmlns:xlink="http://www.w3.org/1999/xlink">
 <defs>
  <style type="text/css">
*{stroke-linecap:butt;stroke-linejoin:round;}
  </style>
 </defs>
 <g id="figure_1">
  <g id="patch_1">
   <path d="M 0 288 
L 432 288 
L 432 0 
L 0 0 
z
" style="fill:#ffffff;"/>
  </g>
  <g id="axes_1">
   <g id="patch_2">
    <path d="M 79.79325 230.88 
L 417.48 230.88 
L 417.48 14.52 
L 79.79325 14.52 
z
" style="fill:#ffffff;"/>
   </g>
   <g id="matplotlib.axis_1">
    <g id="xtick_1">
     <g id="line2d_1">
      <defs>
       <path d="M 0 0 
L 0 3.5 
" id="mabf9e76149" style="stroke:#000000;stroke-width:0.8;"/>
      </defs>
      <g>
       <use style="stroke:#000000;stroke-width:0.8;" x="171.81978" xlink:href="#mabf9e76149" y="230.88"/>
      </g>
     </g>
     <g id="text_1">
      <!-- $20$ -->
      <defs>
       <path d="M 41.703125 15.453125 
L 39.90625 15.453125 
C 38.90625 8.375 38.09375 7.171875 37.703125 6.5625 
C 37.203125 5.765625 30 5.765625 28.59375 5.765625 
L 9.40625 5.765625 
C 13 9.671875 20 16.75 28.5 24.953125 
C 34.59375 30.734375 41.703125 37.53125 41.703125 47.421875 
C 41.703125 59.21875 32.296875 66 21.796875 66 
C 10.796875 66 4.09375 56.3125 4.09375 47.34375 
C 4.09375 43.4375 7 42.9375 8.203125 42.9375 
C 9.203125 42.9375 12.203125 43.546875 12.203125 47.03125 
C 12.203125 50.109375 9.59375 51 8.203125 51 
C 7.59375 51 7 50.90625 6.59375 50.703125 
C 8.5 59.21875 14.296875 63.40625 20.40625 63.40625 
C 29.09375 63.40625 34.796875 56.515625 34.796875 47.421875 
C 34.796875 38.734375 29.703125 31.25 24 24.75 
L 4.09375 2.28125 
L 4.09375 0 
L 39.296875 0 
z
" id="CMR17-50"/>
       <path d="M 42 31.640625 
C 42 37.75 41.90625 48.125 37.703125 56.109375 
C 34 63.109375 28.09375 65.59375 22.90625 65.59375 
C 18.09375 65.59375 12 63.40625 8.203125 56.203125 
C 4.203125 48.71875 3.796875 39.4375 3.796875 31.640625 
C 3.796875 25.953125 3.90625 17.28125 7 9.671875 
C 11.296875 -0.609375 19 -2 22.90625 -2 
C 27.5 -2 34.5 -0.109375 38.59375 9.375 
C 41.59375 16.28125 42 24.359375 42 31.640625 
z
M 22.90625 -0.40625 
C 16.5 -0.40625 12.703125 5.078125 11.296875 12.6875 
C 10.203125 18.5625 10.203125 27.15625 10.203125 32.75 
C 10.203125 40.4375 10.203125 46.828125 11.5 52.921875 
C 13.40625 61.390625 19 64 22.90625 64 
C 27 64 32.296875 61.296875 34.203125 53.125 
C 35.5 47.4375 35.59375 40.734375 35.59375 32.75 
C 35.59375 26.25 35.59375 18.265625 34.40625 12.375 
C 32.296875 1.484375 26.40625 -0.40625 22.90625 -0.40625 
z
" id="CMR17-48"/>
      </defs>
      <g transform="translate(163.564655 251.21795)scale(0.18 -0.18)">
       <use transform="scale(0.996264)" xlink:href="#CMR17-50"/>
       <use transform="translate(45.690477 0)scale(0.996264)" xlink:href="#CMR17-48"/>
      </g>
     </g>
    </g>
    <g id="xtick_2">
     <g id="line2d_2">
      <g>
       <use style="stroke:#000000;stroke-width:0.8;" x="263.84631" xlink:href="#mabf9e76149" y="230.88"/>
      </g>
     </g>
     <g id="text_2">
      <!-- $40$ -->
      <defs>
       <path d="M 33.59375 64.40625 
C 33.59375 66.5 33.5 66.5 31.703125 66.5 
L 2 19.59375 
L 2 17 
L 27.796875 17 
L 27.796875 7.140625 
C 27.796875 3.5 27.59375 2.5 20.59375 2.5 
L 18.703125 2.5 
L 18.703125 0 
C 21.90625 0 27.296875 0 30.703125 0 
C 34.09375 0 39.5 0 42.703125 0 
L 42.703125 2.5 
L 40.796875 2.5 
C 33.796875 2.5 33.59375 3.5 33.59375 7.140625 
L 33.59375 17 
L 43.796875 17 
L 43.796875 19.59375 
L 33.59375 19.59375 
z
M 28.09375 57.859375 
L 28.09375 19.59375 
L 4 19.59375 
z
" id="CMR17-52"/>
      </defs>
      <g transform="translate(255.591185 251.21795)scale(0.18 -0.18)">
       <use transform="scale(0.996264)" xlink:href="#CMR17-52"/>
       <use transform="translate(45.690477 0)scale(0.996264)" xlink:href="#CMR17-48"/>
      </g>
     </g>
    </g>
    <g id="xtick_3">
     <g id="line2d_3">
      <g>
       <use style="stroke:#000000;stroke-width:0.8;" x="355.87284" xlink:href="#mabf9e76149" y="230.88"/>
      </g>
     </g>
     <g id="text_3">
      <!-- $60$ -->
      <defs>
       <path d="M 10.59375 34 
C 10.59375 57.65625 21.796875 63 28.296875 63 
C 30.40625 63 35.5 62.640625 37.5 59 
C 35.90625 59 32.90625 59 32.90625 55.515625 
C 32.90625 52.828125 35.09375 51.921875 36.5 51.921875 
C 37.40625 51.921875 40.09375 52.3125 40.09375 55.625 
C 40.09375 61.78125 35.09375 65.296875 28.203125 65.296875 
C 16.296875 65.296875 3.796875 52.96875 3.796875 31 
C 3.796875 3.953125 15.09375 -2 23.09375 -2 
C 32.796875 -2 42 6.671875 42 20.046875 
C 42 32.515625 33.90625 41.59375 23.703125 41.59375 
C 17.59375 41.59375 13.09375 37.609375 10.59375 30.625 
z
M 23.09375 0.390625 
C 10.796875 0.390625 10.796875 18.75 10.796875 22.4375 
C 10.796875 29.625 14.203125 40 23.5 40 
C 25.203125 40 30.09375 40 33.40625 33.125 
C 35.203125 29.21875 35.203125 25.140625 35.203125 20.140625 
C 35.203125 14.75 35.203125 10.78125 33.09375 6.78125 
C 30.90625 2.671875 27.703125 0.390625 23.09375 0.390625 
z
" id="CMR17-54"/>
      </defs>
      <g transform="translate(347.617715 251.21795)scale(0.18 -0.18)">
       <use transform="scale(0.996264)" xlink:href="#CMR17-54"/>
       <use transform="translate(45.690477 0)scale(0.996264)" xlink:href="#CMR17-48"/>
      </g>
     </g>
    </g>
    <g id="text_4">
     <!-- Time (s) -->
     <defs>
      <path d="M 63.296875 72 
L 3.40625 72 
L 1.90625 44.265625 
L 6.203125 44.265625 
C 6.90625 49.25 7.796875 53.046875 8.90625 56.234375 
C 11.5 63.515625 16.296875 67.3125 23.09375 67.3125 
C 26.40625 67.3125 27.796875 66.203125 27.796875 63.71875 
L 27.796875 12.28125 
L 27.796875 9.375 
C 27.796875 5.1875 26.90625 4.6875 18.796875 4.6875 
L 16.203125 4.6875 
L 16.203125 0 
L 50.5 0 
L 50.5 4.6875 
L 47.90625 4.6875 
C 39.90625 4.6875 39 5.1875 39 9.375 
L 39 12.28125 
L 39 63.71875 
C 39 66.203125 40.40625 67.3125 43.703125 67.3125 
C 49.796875 67.3125 54.703125 63.90625 57.203125 57.921875 
C 58.703125 54.25 59.703125 49.953125 60.5 44.265625 
L 64.796875 44.265625 
z
" id="Century_Schoolbook_L_Roman-84"/>
      <path d="M 20.59375 46 
L 1.796875 46 
L 1.796875 41.21875 
L 6.90625 41.21875 
C 10.59375 41.21875 11.203125 40.515625 11.203125 36.203125 
L 11.203125 12.296875 
L 11.203125 8.296875 
C 11.203125 4.296875 10.09375 3.59375 3.703125 3.59375 
L 3 3.59375 
L 3 0 
L 28.90625 0 
L 28.90625 3.59375 
L 28.203125 3.59375 
C 21.703125 3.59375 20.59375 4.28125 20.59375 8.21875 
L 20.59375 12.171875 
z
M 15.90625 71.578125 
C 12.703125 71.578125 10.09375 68.984375 10.09375 65.796875 
C 10.09375 62.703125 12.703125 60 15.796875 60 
C 19.09375 60 21.703125 62.59375 21.703125 65.796875 
C 21.703125 68.984375 19.09375 71.578125 15.90625 71.578125 
z
" id="Century_Schoolbook_L_Roman-105"/>
      <path d="M 20.09375 46 
L 2.296875 46 
L 2.296875 41.21875 
L 6.40625 41.21875 
C 10.09375 41.21875 10.703125 40.515625 10.703125 36.203125 
L 10.703125 12.296875 
L 10.703125 8.40625 
C 10.703125 4.296875 9.59375 3.59375 3.203125 3.59375 
L 2.796875 3.59375 
L 2.796875 0 
L 28 0 
L 28 3.59375 
L 27.59375 3.59375 
C 21.203125 3.59375 20.09375 4.296875 20.09375 8.390625 
L 20.09375 12.28125 
L 20.09375 26.453125 
C 20.09375 35.328125 25 41.921875 31.5 41.921875 
C 34.09375 41.921875 36.90625 40.515625 38.09375 38.625 
C 39.5 36.734375 40.09375 33.828125 40.09375 29.734375 
L 40.09375 12.28125 
L 40.09375 8.28125 
C 40.09375 4.296875 39 3.59375 32.5 3.59375 
L 32.09375 3.59375 
L 32.09375 0 
L 57.40625 0 
L 57.40625 3.59375 
L 57 3.59375 
C 50.59375 3.59375 49.5 4.296875 49.5 8.28125 
L 49.5 12.28125 
L 49.5 25.546875 
C 49.5 35.53125 54 41.921875 61 41.921875 
C 64.296875 41.921875 67 40.015625 68.296875 36.921875 
C 69.203125 34.734375 69.5 32.53125 69.5 28.640625 
L 69.5 12.28125 
L 69.5 8.28125 
C 69.5 4.296875 68.40625 3.59375 61.90625 3.59375 
L 61.5 3.59375 
L 61.5 0 
L 86.796875 0 
L 86.796875 3.59375 
L 86.40625 3.59375 
C 80 3.59375 78.90625 4.296875 78.90625 8.390625 
L 78.90625 12.28125 
L 78.90625 30.640625 
C 78.90625 36.828125 78.296875 38.921875 75.703125 42.3125 
C 72.796875 46.015625 68.703125 48 63.90625 48 
C 57.40625 48 52.59375 44.9375 48.296875 38.109375 
C 46.59375 44.046875 41.203125 48 34.5 48 
C 28.5 48 24 45.140625 20.09375 38.921875 
z
" id="Century_Schoolbook_L_Roman-109"/>
      <path d="M 46.5 23 
C 46.59375 37.8125 38.09375 48.28125 25.90625 48.28125 
C 13.09375 48.28125 3.5 37.25 3.5 22.34375 
C 3.5 8.4375 12.59375 -1 26.09375 -1 
C 35.59375 -1 42.40625 3.6875 46.5 13.1875 
L 43 15.09375 
C 38.90625 7.390625 34.703125 4.390625 28 4.390625 
C 22.90625 4.390625 19.203125 6.59375 16.59375 11 
C 14.796875 14 14 17.5 14.09375 23 
z
M 14.203125 27.296875 
C 14.203125 30.34375 14.59375 32.5 15.59375 35.25 
C 17.703125 41.140625 20.90625 44 25.703125 44 
C 31.796875 44 35.796875 38.78125 35.796875 30.921875 
C 35.796875 28.078125 34.90625 27.296875 31.703125 27.296875 
z
" id="Century_Schoolbook_L_Roman-101"/>
      <path d="M 27.90625 73.453125 
C 21.90625 69.765625 18.703125 67.171875 15.296875 63.171875 
C 7.703125 54.1875 3.59375 42.71875 3.59375 30.640625 
C 3.59375 19.265625 7.203125 8.578125 13.90625 -0.296875 
C 17.703125 -5.09375 21.09375 -8.078125 27.90625 -12.28125 
L 27.90625 -8.578125 
C 17.90625 0.203125 13.90625 11.484375 13.90625 30.640625 
C 13.90625 49.796875 17.90625 60.984375 27.90625 69.765625 
z
" id="Century_Schoolbook_L_Roman-40"/>
      <path d="M 39 48 
L 35.5 48 
L 32.59375 44.40625 
C 29 47.203125 25.40625 48.390625 20.40625 48.390625 
C 11.59375 48.390625 5.796875 42.625 5.796875 33.953125 
C 5.796875 30.078125 7.09375 26.78125 9.296875 24.8125 
C 11.59375 22.703125 13.90625 21.71875 19.90625 20.3125 
L 25.203125 19.125 
C 33.09375 17.234375 35.90625 15.234375 35.90625 11.265625 
C 35.90625 6.578125 31.796875 3.296875 25.90625 3.296875 
C 17.5 3.296875 11.5 8.765625 9.09375 18.875 
L 5.09375 18.875 
L 5.09375 0 
L 8.59375 0 
L 12.09375 3.90625 
C 16.203125 0.59375 20.796875 -1 25.796875 -1 
C 35.59375 -1 42.09375 5.078125 42.09375 14.34375 
C 42.09375 18.71875 40.703125 22.09375 37.90625 24.390625 
C 35.5 26.484375 33.5 27.28125 27.40625 28.5625 
L 22.40625 29.671875 
C 16.90625 30.859375 16.90625 30.859375 15.09375 31.859375 
C 12.90625 32.859375 11.59375 34.9375 11.59375 37.140625 
C 11.59375 41.109375 15.40625 44 20.90625 44 
C 24.703125 44 27.796875 42.703125 30.59375 40.015625 
C 32.796875 37.8125 33.90625 35.828125 35.5 31.234375 
L 39 31.234375 
z
" id="Century_Schoolbook_L_Roman-115"/>
      <path d="M 5.40625 -12.28125 
C 11.40625 -8.578125 14.59375 -5.984375 18 -1.890625 
C 25.59375 6.984375 29.703125 18.5625 29.703125 30.640625 
C 29.703125 42.015625 26.09375 52.703125 19.40625 61.484375 
C 15.59375 66.375 12.203125 69.359375 5.40625 73.453125 
L 5.40625 69.765625 
C 15.40625 60.984375 19.40625 49.796875 19.40625 30.640625 
C 19.40625 11.375 15.40625 0.203125 5.40625 -8.578125 
z
" id="Century_Schoolbook_L_Roman-41"/>
     </defs>
     <g transform="translate(214.63516 273.24577)scale(0.18 -0.18)">
      <use transform="translate(0 -0.29235)scale(0.996264)" xlink:href="#Century_Schoolbook_L_Roman-84"/>
      <use transform="translate(66.450031 -0.29235)scale(0.996264)" xlink:href="#Century_Schoolbook_L_Roman-105"/>
      <use transform="translate(97.831344 -0.29235)scale(0.996264)" xlink:href="#Century_Schoolbook_L_Roman-109"/>
      <use transform="translate(186.398251 -0.29235)scale(0.996264)" xlink:href="#Century_Schoolbook_L_Roman-101"/>
      <use transform="translate(263.906621 -0.29235)scale(0.996264)" xlink:href="#Century_Schoolbook_L_Roman-40"/>
      <use transform="translate(297.081851 -0.29235)scale(0.996264)" xlink:href="#Century_Schoolbook_L_Roman-115"/>
      <use transform="translate(343.207661 -0.29235)scale(0.996264)" xlink:href="#Century_Schoolbook_L_Roman-41"/>
     </g>
    </g>
   </g>
   <g id="matplotlib.axis_2">
    <g id="ytick_1">
     <g id="line2d_4">
      <defs>
       <path d="M 0 0 
L -3.5 0 
" id="ma565bb97e8" style="stroke:#000000;stroke-width:0.8;"/>
      </defs>
      <g>
       <use style="stroke:#000000;stroke-width:0.8;" x="79.79325" xlink:href="#ma565bb97e8" y="230.88"/>
      </g>
     </g>
     <g id="text_5">
      <!-- $-200$ -->
      <defs>
       <path d="M 65.90625 23 
C 67.59375 23 69.40625 23 69.40625 25 
C 69.40625 27 67.59375 27 65.90625 27 
L 11.796875 27 
C 10.09375 27 8.296875 27 8.296875 25 
C 8.296875 23 10.09375 23 11.796875 23 
z
" id="CMSY10-0"/>
      </defs>
      <g transform="translate(34.02782 237.548975)scale(0.18 -0.18)">
       <use transform="translate(0 -0.031134)scale(0.996264)" xlink:href="#CMSY10-0"/>
       <use transform="translate(77.487468 -0.031134)scale(0.996264)" xlink:href="#CMR17-50"/>
       <use transform="translate(123.177945 -0.031134)scale(0.996264)" xlink:href="#CMR17-48"/>
       <use transform="translate(168.868422 -0.031134)scale(0.996264)" xlink:href="#CMR17-48"/>
      </g>
     </g>
    </g>
    <g id="ytick_2">
     <g id="line2d_5">
      <g>
       <use style="stroke:#000000;stroke-width:0.8;" x="79.79325" xlink:href="#ma565bb97e8" y="183.270757"/>
      </g>
     </g>
     <g id="text_6">
      <!-- $0$ -->
      <g transform="translate(64.53812 189.939732)scale(0.18 -0.18)">
       <use transform="scale(0.996264)" xlink:href="#CMR17-48"/>
      </g>
     </g>
    </g>
    <g id="ytick_3">
     <g id="line2d_6">
      <g>
       <use style="stroke:#000000;stroke-width:0.8;" x="79.79325" xlink:href="#ma565bb97e8" y="135.661513"/>
      </g>
     </g>
     <g id="text_7">
      <!-- $200$ -->
      <g transform="translate(48.02787 142.330488)scale(0.18 -0.18)">
       <use transform="scale(0.996264)" xlink:href="#CMR17-50"/>
       <use transform="translate(45.690477 0)scale(0.996264)" xlink:href="#CMR17-48"/>
       <use transform="translate(91.380954 0)scale(0.996264)" xlink:href="#CMR17-48"/>
      </g>
     </g>
    </g>
    <g id="ytick_4">
     <g id="line2d_7">
      <g>
       <use style="stroke:#000000;stroke-width:0.8;" x="79.79325" xlink:href="#ma565bb97e8" y="88.05227"/>
      </g>
     </g>
     <g id="text_8">
      <!-- $400$ -->
      <g transform="translate(48.02787 94.721245)scale(0.18 -0.18)">
       <use transform="scale(0.996264)" xlink:href="#CMR17-52"/>
       <use transform="translate(45.690477 0)scale(0.996264)" xlink:href="#CMR17-48"/>
       <use transform="translate(91.380954 0)scale(0.996264)" xlink:href="#CMR17-48"/>
      </g>
     </g>
    </g>
    <g id="ytick_5">
     <g id="line2d_8">
      <g>
       <use style="stroke:#000000;stroke-width:0.8;" x="79.79325" xlink:href="#ma565bb97e8" y="40.443027"/>
      </g>
     </g>
     <g id="text_9">
      <!-- $600$ -->
      <g transform="translate(48.02787 47.112002)scale(0.18 -0.18)">
       <use transform="scale(0.996264)" xlink:href="#CMR17-54"/>
       <use transform="translate(45.690477 0)scale(0.996264)" xlink:href="#CMR17-48"/>
       <use transform="translate(91.380954 0)scale(0.996264)" xlink:href="#CMR17-48"/>
      </g>
     </g>
    </g>
    <g id="text_10">
     <!-- Surface Speed -->
     <defs>
      <path d="M 54.59375 72 
L 50.90625 72 
L 46.90625 66.09375 
C 42.203125 70.59375 35.796875 73 28.703125 73 
C 15.59375 73 6.796875 64.609375 6.796875 52.15625 
C 6.796875 41.28125 12.203125 35.890625 26.90625 32.109375 
L 36.40625 29.703125 
C 43.796875 27.828125 44.5 27.625 46.59375 26.03125 
C 49.59375 23.734375 51.203125 20.4375 51.203125 16.546875 
C 51.203125 12.5625 49.703125 9.28125 46.703125 6.59375 
C 43.40625 3.6875 40.09375 2.59375 34.59375 2.59375 
C 27.203125 2.59375 21.90625 4.875 17.203125 10.03125 
C 13 14.703125 10.90625 19.375 9.40625 27 
L 5.09375 27 
L 5.5 -1.4375 
L 9.40625 -1.4375 
L 13.90625 5.46875 
C 20.59375 0 26.203125 -2 34.90625 -2 
C 49.59375 -2 59 6.59375 59 19.9375 
C 59 26.109375 56.90625 31.40625 53 35.203125 
C 50.296875 37.796875 46.40625 39.484375 38.40625 41.484375 
L 27.703125 44.171875 
C 18.796875 46.46875 14.59375 50.359375 14.59375 56.4375 
C 14.59375 63.40625 20.296875 68.203125 28.796875 68.203125 
C 35.796875 68.203125 41.5 65.1875 45.5 59.484375 
C 48.40625 55.375 50.203125 51.15625 51.5 46.046875 
L 55.796875 46.046875 
z
" id="Century_Schoolbook_L_Roman-83"/>
      <path d="M 41.203125 0 
L 59.40625 0 
L 59.40625 4.703125 
L 56.90625 4.703125 
C 51.40625 4.703125 50.59375 5.59375 50.59375 11.953125 
L 50.59375 46.78125 
L 31.796875 46.78125 
L 31.796875 42 
L 36.90625 42 
C 40.59375 42 41.203125 41.296875 41.203125 36.953125 
L 41.203125 24.5625 
C 41.203125 18.8125 40.59375 15.484375 39.09375 12.15625 
C 37 7.71875 33 5.09375 28.09375 5.09375 
C 25 5.09375 22.40625 6.1875 21.09375 8.171875 
C 19.796875 10.046875 19.59375 11.046875 19.59375 16.5 
L 19.59375 46.78125 
L 2.09375 46.78125 
L 2.09375 42 
L 5.90625 42 
C 9.59375 42 10.203125 41.296875 10.203125 36.953125 
L 10.203125 15.21875 
C 10.203125 10.078125 10.59375 7.765625 12.09375 5.453125 
C 14.796875 1.3125 19.59375 -1 25.59375 -1 
C 32.203125 -1 36.796875 1.71875 41.203125 8.125 
z
" id="Century_Schoolbook_L_Roman-117"/>
      <path d="M 19.796875 46 
L 2.09375 46 
L 2.09375 41.21875 
L 6.203125 41.21875 
C 9.90625 41.21875 10.5 40.515625 10.5 36.203125 
L 10.5 12.296875 
L 10.5 8.296875 
C 10.5 4.296875 9.40625 3.59375 2.90625 3.59375 
L 2.5 3.59375 
L 2.5 0 
L 29.203125 0 
L 29.203125 3.59375 
L 27.296875 3.59375 
C 20.90625 3.59375 19.796875 4.296875 19.796875 8.296875 
L 19.796875 12.296875 
L 19.796875 13.296875 
C 19.796875 20.8125 21.203125 28.40625 23.703125 34.109375 
C 26.09375 39.703125 29.5 42.8125 33.703125 43.3125 
C 32.296875 41.703125 31.90625 40.6875 31.90625 38.765625 
C 31.90625 35.546875 34.203125 33.234375 37.40625 33.234375 
C 41 33.234375 43.5 35.9375 43.5 40.015625 
C 43.5 44.8125 40.09375 48 34.796875 48 
C 28.5 48 23 42.921875 19.796875 34.140625 
z
" id="Century_Schoolbook_L_Roman-114"/>
      <path d="M 20.09375 46.296875 
L 20.09375 52.140625 
C 20.09375 57.265625 20.40625 60.65625 21.203125 62.71875 
C 22.796875 67.234375 26.296875 70 30.296875 70 
C 32.40625 70 33.703125 69.390625 33.703125 68.25 
C 33.703125 67.921875 33.59375 67.734375 33.09375 66.90625 
C 32.5 65.890625 32.203125 64.75 32.203125 63.625 
C 32.203125 60.546875 34.59375 58.203125 37.703125 58.203125 
C 41 58.203125 43.296875 60.734375 43.296875 64.40625 
C 43.296875 70.328125 38.296875 74 30.203125 74 
C 23.296875 74 18.296875 71.53125 14.703125 66.4375 
C 11.703125 62.140625 10.703125 57.734375 10.703125 49.46875 
L 10.703125 46.296875 
L 1.90625 46.296875 
L 1.90625 42 
L 10.703125 42 
L 10.703125 12.234375 
L 10.703125 8.25 
C 10.703125 4.296875 9.59375 3.59375 3.203125 3.59375 
L 2.796875 3.59375 
L 2.796875 0 
L 29.5 0 
L 29.5 3.59375 
L 27.703125 3.59375 
C 21.203125 3.59375 20.09375 4.296875 20.09375 8.25 
L 20.09375 12.234375 
L 20.09375 42 
L 31.09375 42 
L 31.09375 46.296875 
z
" id="Century_Schoolbook_L_Roman-102"/>
      <path d="M 45.203125 32.578125 
C 45.203125 38.796875 44.09375 41.96875 41.203125 44.34375 
C 37.90625 46.90625 33 48.28125 26.59375 48.28125 
C 15.40625 48.28125 7.09375 43.046875 7.09375 35.921875 
C 7.09375 32.15625 9.40625 29.78125 12.90625 29.78125 
C 16 29.78125 18.296875 31.859375 18.296875 34.8125 
C 18.296875 36.109375 17.796875 37.484375 16.796875 38.875 
C 16.203125 39.546875 16.09375 39.84375 16.09375 40.15625 
C 16.09375 42.21875 20.203125 44 25 44 
C 28.09375 44 31.59375 43.015625 33.203125 41.53125 
C 35.09375 39.953125 35.796875 37.578125 35.796875 33.125 
L 35.796875 29.28125 
C 25.296875 27.484375 22.09375 26.6875 17.203125 24.8125 
C 8.59375 21.609375 4.40625 16.9375 4.40625 10.65625 
C 4.40625 3.578125 10.09375 -1 18.90625 -1 
C 25.796875 -1 32 1.859375 36.296875 7.0625 
C 37.90625 1.984375 40.40625 0 45.09375 0 
C 49.59375 0 54.296875 2.890625 54.296875 5.78125 
C 54.296875 6.46875 53.796875 6.96875 53.296875 6.96875 
C 52.90625 6.96875 52.5 6.875 51.796875 6.578125 
C 50.203125 6 49.796875 5.890625 49 5.890625 
C 46.203125 5.890625 45.203125 7.78125 45.203125 12.71875 
z
M 35.796875 20.46875 
C 35.796875 14.46875 35.5 13.078125 33.796875 10.484375 
C 31.296875 6.78125 26.703125 4.296875 22.40625 4.296875 
C 17.90625 4.296875 14.5 7.59375 14.5 12.078125 
C 14.5 16.265625 16.59375 19.265625 21 21.359375 
C 24.09375 22.75 28 23.75 35.796875 25.046875 
z
" id="Century_Schoolbook_L_Roman-97"/>
      <path d="M 38.703125 15.125 
C 35.5 7.96875 32.09375 5.09375 26.90625 5.09375 
C 18.90625 5.09375 13.90625 12.328125 13.90625 23.9375 
C 13.90625 35.953125 18.796875 44 26.203125 44 
C 29.203125 44 31.796875 42.59375 31.796875 41.015625 
C 31.796875 40.71875 31.59375 40.421875 31.203125 39.8125 
C 29.59375 37.9375 29.203125 36.9375 29.203125 35.265625 
C 29.203125 31.984375 31.703125 29.703125 35.203125 29.703125 
C 38.703125 29.703125 41.296875 32.484375 41.296875 36.453125 
C 41.296875 43.109375 34.59375 48.28125 25.703125 48.28125 
C 12.703125 48.28125 3.40625 37.65625 3.40625 22.84375 
C 3.40625 8.734375 11.90625 -1 24.296875 -1 
C 33.203125 -1 38.296875 3.078125 42.59375 13.625 
z
" id="Century_Schoolbook_L_Roman-99"/>
      <path d="M 20.09375 46 
L 2.796875 46 
L 2.796875 41.21875 
L 6.40625 41.21875 
C 10.09375 41.21875 10.703125 40.515625 10.703125 36.21875 
L 10.703125 -7.75 
L 10.703125 -11.71875 
C 10.703125 -15.71875 9.59375 -16.40625 3.203125 -16.40625 
L 2.796875 -16.40625 
L 2.796875 -20 
L 28.796875 -20 
L 28.796875 -16.40625 
L 27.703125 -16.40625 
C 21.203125 -16.40625 20.09375 -15.71875 20.09375 -11.734375 
L 20.09375 -7.75 
L 20.09375 6.6875 
C 23.40625 0.90625 27.203125 -1.390625 33.296875 -1.390625 
C 44.90625 -1.390625 53.5 9.265625 53.5 23.5 
C 53.5 37.265625 44.90625 48 33.90625 48 
C 27.703125 48 23.59375 45.4375 20.09375 39.515625 
z
M 32.09375 42.609375 
C 39 42.609375 43 35.75 43 24.09375 
C 43 11.265625 38.90625 4 31.796875 4 
C 24.703125 4 20 11.375 20 22.8125 
C 20 35.140625 24.5 42.609375 32.09375 42.609375 
z
" id="Century_Schoolbook_L_Roman-112"/>
      <path d="M 38 0 
L 55.40625 0 
L 55.40625 4.703125 
L 53.59375 4.703125 
C 48.203125 4.703125 47.40625 5.703125 47.40625 11.96875 
L 47.40625 73.78125 
L 27.796875 73.78125 
L 27.796875 69 
L 33.703125 69 
C 37.296875 69 38 68.28125 38 63.921875 
L 38 41 
C 34.296875 46.09375 30 48.390625 24.203125 48.390625 
C 12.90625 48.390625 4.296875 37.546875 4.296875 23.203125 
C 4.296875 9.0625 12.59375 -1 24.203125 -1 
C 30.5 -1 34.796875 1.671875 38 7.59375 
z
M 26.203125 43 
C 30.296875 43 34.203125 40.03125 36 35.4375 
C 37.203125 32.453125 37.90625 28.28125 37.90625 23.515625 
C 37.90625 11.96875 33.296875 4.390625 26.09375 4.390625 
C 19.09375 4.390625 14.796875 10.96875 14.796875 22.015625 
C 14.796875 27.890625 15.40625 32.359375 16.703125 35.734375 
C 18.40625 40.125 22.09375 43 26.203125 43 
z
" id="Century_Schoolbook_L_Roman-100"/>
     </defs>
     <g transform="translate(25.33795 181.86556)rotate(-90)scale(0.18 -0.18)">
      <use transform="translate(0 -1.570628)scale(0.996264)" xlink:href="#Century_Schoolbook_L_Roman-83"/>
      <use transform="translate(62.763979 -1.570628)scale(0.996264)" xlink:href="#Century_Schoolbook_L_Roman-117"/>
      <use transform="translate(123.63561 -1.570628)scale(0.996264)" xlink:href="#Century_Schoolbook_L_Roman-114"/>
      <use transform="translate(167.869178 -1.570628)scale(0.996264)" xlink:href="#Century_Schoolbook_L_Roman-102"/>
      <use transform="translate(201.044408 -1.570628)scale(0.996264)" xlink:href="#Century_Schoolbook_L_Roman-97"/>
      <use transform="translate(256.436085 -1.570628)scale(0.996264)" xlink:href="#Century_Schoolbook_L_Roman-99"/>
      <use transform="translate(300.669654 -1.570628)scale(0.996264)" xlink:href="#Century_Schoolbook_L_Roman-101"/>
      <use transform="translate(378.178024 -1.570628)scale(0.996264)" xlink:href="#Century_Schoolbook_L_Roman-83"/>
      <use transform="translate(440.942003 -1.570628)scale(0.996264)" xlink:href="#Century_Schoolbook_L_Roman-112"/>
      <use transform="translate(498.12749 -1.570628)scale(0.996264)" xlink:href="#Century_Schoolbook_L_Roman-101"/>
      <use transform="translate(547.940691 -1.570628)scale(0.996264)" xlink:href="#Century_Schoolbook_L_Roman-101"/>
      <use transform="translate(597.753891 -1.570628)scale(0.996264)" xlink:href="#Century_Schoolbook_L_Roman-100"/>
     </g>
    </g>
   </g>
   <g id="line2d_9">
    <path clip-path="url(#p833824da68)" d="M 79.79325 183.270757 
L 80.478848 183.270757 
L 80.658299 177.280195 
L 80.708914 177.280195 
L 80.83315 160.871266 
L 80.93898 160.871266 
L 81.054013 149.020373 
L 81.21506 149.020373 
L 81.330093 145.373944 
L 81.399113 145.373944 
L 81.514146 144.462337 
L 81.721206 144.462337 
L 81.850043 144.983255 
L 81.859246 144.983255 
L 81.97888 145.504174 
L 82.089312 145.504174 
L 82.204345 146.155322 
L 82.273365 146.155322 
L 82.388398 146.415781 
L 82.411405 146.415781 
L 82.526438 146.67624 
L 82.595458 146.67624 
L 82.710491 146.80647 
L 82.779511 146.80647 
L 82.894544 147.066929 
L 82.917551 147.066929 
L 83.032584 147.197158 
L 83.33167 147.197158 
L 83.446703 147.327388 
L 84.988148 147.327388 
L 85.103181 147.197158 
L 85.264227 147.197158 
L 85.37926 147.327388 
L 85.44828 147.327388 
L 85.563313 147.197158 
L 85.632333 147.197158 
L 85.72436 147.327388 
L 85.742765 147.197158 
L 86.046453 147.197158 
L 86.161486 147.327388 
L 86.368546 147.327388 
L 86.414559 147.197158 
L 86.478977 147.327388 
L 86.552599 147.327388 
L 86.667632 147.197158 
L 86.828678 147.197158 
L 86.943711 147.327388 
L 87.058745 147.327388 
L 87.104758 147.197158 
L 87.169176 147.327388 
L 87.380837 147.327388 
L 87.472864 147.197158 
L 87.491269 147.327388 
L 87.610904 147.327388 
L 87.725937 147.197158 
L 88.393129 147.197158 
L 88.439142 147.327388 
L 88.503561 147.197158 
L 89.681501 147.197158 
L 89.773527 147.327388 
L 89.791932 147.197158 
L 89.865554 147.197158 
L 89.980587 147.327388 
L 90.3717 147.327388 
L 90.486733 147.197158 
L 90.601766 147.197158 
L 90.693792 147.327388 
L 90.712198 147.197158 
L 90.969872 147.197158 
L 91.015885 147.327388 
L 91.080304 147.197158 
L 91.245952 147.197158 
L 91.360985 147.327388 
L 91.383991 147.327388 
L 91.476018 147.197158 
L 91.494423 147.327388 
L 91.706084 147.327388 
L 91.821117 147.197158 
L 92.07419 147.197158 
L 92.120204 147.327388 
L 92.184622 147.197158 
L 93.500602 147.197158 
L 93.615635 147.327388 
L 94.052761 147.327388 
L 94.144787 147.197158 
L 94.163193 147.327388 
L 94.788973 147.327388 
L 94.881 147.197158 
L 94.899405 147.327388 
L 94.927013 147.327388 
L 95.019039 147.197158 
L 95.037445 147.327388 
L 95.433159 147.327388 
L 95.525185 147.197158 
L 95.543591 147.327388 
L 95.801265 147.327388 
L 95.893291 147.197158 
L 95.911697 147.327388 
L 95.939305 147.327388 
L 96.054338 147.197158 
L 96.077344 147.197158 
L 96.192378 147.327388 
L 96.215384 147.327388 
L 96.330417 147.197158 
L 96.445451 147.197158 
L 96.560484 147.327388 
L 96.72153 147.327388 
L 96.767543 147.197158 
L 96.831962 147.327388 
L 96.85957 147.327388 
L 96.905583 147.197158 
L 96.970002 147.327388 
L 97.089636 147.327388 
L 97.204669 147.197158 
L 97.549769 147.197158 
L 97.664802 147.327388 
L 99.3903 147.327388 
L 99.436313 147.197158 
L 99.500731 147.327388 
L 99.850432 147.327388 
L 99.942459 147.197158 
L 99.960864 147.327388 
L 100.080499 147.327388 
L 100.195532 147.197158 
L 100.264552 147.197158 
L 100.310565 147.327388 
L 100.374983 147.197158 
L 100.540631 147.197158 
L 100.655664 147.327388 
L 100.678671 147.327388 
L 100.793704 147.197158 
L 100.862724 147.197158 
L 100.954751 147.327388 
L 100.973156 147.197158 
L 101.414883 147.307571 
L 101.529916 147.583706 
L 101.64495 147.694118 
L 101.759983 147.787513 
L 103.025347 147.737959 
L 103.140381 147.673329 
L 107.258568 147.746929 
L 107.304581 147.793489 
L 107.309182 147.670903 
L 107.369 147.743784 
L 109.237138 147.793694 
L 109.329165 147.874962 
L 109.333766 147.772983 
L 109.342969 147.772983 
L 110.433483 147.805101 
L 110.52551 147.907366 
L 110.530111 147.755122 
L 110.539314 147.755122 
L 110.801589 147.813629 
L 110.847603 147.903146 
L 110.852204 147.757814 
L 110.90742 147.782388 
L 110.985642 147.87324 
L 111.036257 147.836661 
L 111.105277 147.927968 
L 111.353748 147.946564 
L 111.399762 147.812452 
L 111.46418 147.943031 
L 111.491788 147.943031 
L 111.537801 147.81266 
L 111.588416 147.947471 
L 111.60222 147.947471 
L 111.767868 147.864198 
L 111.818482 147.932932 
L 111.887502 147.810774 
L 111.951921 147.860429 
L 112.043947 147.957704 
L 112.062353 147.937171 
L 112.412054 147.949554 
L 112.531688 147.591088 
L 112.596107 147.631978 
L 112.688133 147.336856 
L 112.71114 147.377839 
L 112.964213 147.280162 
L 113.010226 147.253064 
L 113.060841 147.309203 
L 113.070043 147.309203 
L 113.562385 147.403578 
L 113.68202 147.420488 
L 113.838465 147.352973 
L 113.953498 147.150429 
L 114.206571 147.082915 
L 114.321604 147.0154 
L 114.804743 147.082915 
L 114.919776 147.150429 
L 116.139128 147.217944 
L 116.258762 147.370361 
L 116.369194 147.455263 
L 116.498031 147.624668 
L 116.921353 147.695415 
L 117.01338 147.75864 
L 117.017981 147.670079 
L 117.027184 147.670079 
L 117.703579 147.631765 
L 117.749592 147.547179 
L 117.814011 147.615808 
L 119.26803 147.517658 
L 119.314043 147.489664 
L 119.318645 147.536796 
L 119.378462 147.522897 
L 120.602415 147.590324 
L 120.717448 147.910487 
L 120.740454 147.910487 
L 120.860089 148.178644 
L 120.878494 148.178644 
L 120.924508 148.303041 
L 120.988926 148.231058 
L 121.016534 148.231058 
L 121.062547 148.357052 
L 121.126966 148.262522 
L 121.2466 148.279741 
L 121.292614 148.407849 
L 121.343228 148.257772 
L 121.352431 148.257772 
L 121.38464 148.257772 
L 121.430653 148.388359 
L 121.481268 148.015877 
L 121.485869 148.015877 
L 121.614706 148.016871 
L 121.738942 147.227581 
L 121.79876 147.229105 
L 121.913793 146.967795 
L 122.120852 146.868315 
L 122.235886 146.819874 
L 122.534972 146.884219 
L 122.650005 146.942895 
L 122.857065 146.998486 
L 122.972098 147.061221 
L 123.133144 147.119846 
L 123.248177 147.178456 
L 124.789622 147.235495 
L 124.904655 147.290953 
L 142.366689 147.3891 
L 142.486323 147.432601 
L 151.339276 147.507122 
L 151.454309 147.571761 
L 155.20439 147.627941 
L 155.250403 147.686889 
L 155.314822 147.631079 
L 156.584788 147.686359 
L 156.676814 147.764416 
L 156.681416 147.676308 
L 156.69522 147.676308 
L 156.906881 147.72741 
L 156.998907 147.806996 
L 157.017313 147.762158 
L 157.321 147.793632 
L 157.367013 147.87581 
L 157.431432 147.822554 
L 158.011199 147.846944 
L 158.126232 147.942838 
L 159.391597 147.958448 
L 159.43761 148.068575 
L 159.502029 147.985966 
L 159.529637 147.985966 
L 159.57565 148.098419 
L 159.640069 148.004642 
L 159.805716 148.004642 
L 159.85173 148.119529 
L 159.916148 148.04306 
L 159.943756 148.04306 
L 160.035783 148.164121 
L 160.054188 148.063443 
L 160.127809 148.065655 
L 160.173823 148.189412 
L 160.238241 148.107837 
L 160.495915 148.12723 
L 160.541929 148.25983 
L 160.606347 148.153349 
L 160.633955 148.153349 
L 160.679968 148.290169 
L 160.744387 148.203359 
L 160.771995 148.203359 
L 160.864021 148.344464 
L 160.882427 148.214611 
L 161.002061 148.258634 
L 161.094088 148.418583 
L 161.112493 148.285143 
L 161.232128 148.310619 
L 161.347161 148.479792 
L 161.370167 148.479792 
L 161.416181 148.340058 
L 161.480599 148.382827 
L 161.508207 148.382827 
L 161.55422 148.549778 
L 161.618639 148.439498 
L 161.646247 148.439498 
L 161.69226 148.613261 
L 161.756679 148.494348 
L 161.8303 148.494348 
L 161.922327 148.700314 
L 161.940732 148.529615 
L 162.060366 148.574 
L 162.152393 148.805356 
L 162.170798 148.63818 
L 162.244419 148.660868 
L 162.359453 148.923336 
L 162.382459 148.923336 
L 162.428472 148.746666 
L 162.492891 148.815131 
L 162.520499 148.815131 
L 162.612526 149.037806 
L 162.630931 148.854731 
L 162.704552 148.909443 
L 162.796579 149.187779 
L 162.814984 149.004392 
L 162.842592 149.004392 
L 162.957625 149.314384 
L 163.026645 149.364746 
L 163.072658 149.171619 
L 163.123273 149.515305 
L 163.132475 149.515305 
L 163.164685 149.515305 
L 163.210698 149.334358 
L 163.261313 149.724291 
L 163.270515 149.724291 
L 163.302725 149.724291 
L 163.348738 149.528827 
L 163.353339 149.827531 
L 163.408555 149.827531 
L 163.440764 149.827531 
L 163.532791 150.123842 
L 163.555797 150.007949 
L 163.578804 150.007949 
L 163.670831 150.564157 
L 163.693837 150.496061 
L 163.762857 150.496061 
L 163.80887 151.178719 
L 163.873289 151.073811 
L 163.900897 151.073811 
L 164.025133 152.164636 
L 164.130963 152.194646 
L 164.255199 153.497679 
L 164.315016 153.588855 
L 164.434651 154.520465 
L 164.591096 154.520465 
L 164.81196 157.806701 
L 164.821162 157.806701 
L 164.940797 158.990386 
L 164.959202 158.990386 
L 165.092641 160.521208 
L 165.097242 160.521208 
L 165.212275 161.642784 
L 165.235282 161.642784 
L 165.354916 163.367656 
L 165.373321 163.367656 
L 165.492956 165.727518 
L 165.511361 165.727518 
L 165.630996 166.686802 
L 165.649401 166.686802 
L 165.764434 168.71888 
L 165.787441 168.71888 
L 165.907075 170.884018 
L 165.925481 170.884018 
L 166.045115 173.683154 
L 166.06352 173.683154 
L 166.183155 174.813188 
L 166.20156 174.813188 
L 166.321195 177.636217 
L 166.3396 177.636217 
L 166.468437 179.886133 
L 166.47764 179.886133 
L 166.606477 182.120417 
L 166.661693 182.120417 
L 166.785929 183.953688 
L 166.799733 183.953688 
L 166.979184 165.782341 
L 167.029799 165.782341 
L 167.163237 129.495027 
L 167.167839 129.495027 
L 167.282872 93.265852 
L 167.305879 93.265852 
L 167.425513 47.109451 
L 167.443918 47.109451 
L 167.568154 33.555128 
L 167.581958 33.555128 
L 167.673985 33.932081 
L 167.678586 33.342943 
L 167.687789 33.342943 
L 167.719998 33.342943 
L 167.839632 36.536238 
L 167.904051 36.536238 
L 168.019084 38.263758 
L 168.088104 38.263758 
L 168.203137 43.393969 
L 168.226144 43.393969 
L 168.345778 46.744311 
L 168.45621 46.744311 
L 168.571243 52.188618 
L 168.640263 52.188618 
L 168.755296 55.905403 
L 168.87033 55.905403 
L 168.999167 63.496023 
L 169.008369 63.496023 
L 169.128004 67.526903 
L 169.238436 67.526903 
L 169.353469 73.808795 
L 169.468502 73.808795 
L 169.583535 80.404781 
L 169.698568 80.404781 
L 169.813602 87.471909 
L 169.882621 87.471909 
L 169.997655 95.167226 
L 170.158701 95.167226 
L 170.273734 103.386035 
L 170.342754 103.386035 
L 170.457787 112.33773 
L 170.57282 112.33773 
L 170.687854 122.17936 
L 170.802887 122.17936 
L 170.91792 133.539114 
L 171.032953 133.539114 
L 171.147986 142.386112 
L 171.217006 142.386112 
L 171.332039 146.416992 
L 171.355046 146.416992 
L 171.470079 147.750601 
L 171.493086 147.750601 
L 171.608119 148.35801 
L 171.631125 148.35801 
L 171.746159 148.606794 
L 171.999232 148.568627 
L 172.118866 148.427347 
L 172.137271 148.427347 
L 172.183285 148.284921 
L 172.252305 148.29851 
L 172.321324 148.22184 
L 172.440959 148.055781 
L 172.505378 148.069491 
L 172.620411 147.828616 
L 172.735444 147.767264 
L 172.855078 147.603439 
L 173.10355 147.549275 
L 173.218583 147.438644 
L 173.931789 147.359396 
L 173.977802 147.323148 
L 174.042221 147.367962 
L 178.579128 147.471495 
L 178.625142 147.487137 
L 178.629743 147.424641 
L 178.684959 147.440653 
L 181.938097 147.523473 
L 182.030123 147.559262 
L 182.048529 147.515051 
L 185.389092 147.579038 
L 185.435105 147.63148 
L 185.48572 147.561116 
L 185.494922 147.561116 
L 186.49341 147.618338 
L 186.585437 147.682113 
L 186.603842 147.631414 
L 188.425967 147.741372 
L 188.47198 147.747503 
L 188.476582 147.684532 
L 188.517994 147.684532 
L 188.702047 147.70226 
L 188.74806 147.843576 
L 188.798675 147.693286 
L 188.812479 147.693286 
L 189.346232 147.735292 
L 189.438259 147.811921 
L 189.461266 147.807558 
L 190.588591 147.822345 
L 190.634604 148.000437 
L 190.699022 147.915748 
L 191.784936 147.940409 
L 191.876962 148.043497 
L 191.895367 147.93843 
L 192.153042 147.964755 
L 192.245068 148.094055 
L 192.263473 148.002799 
L 192.291081 148.002799 
L 192.406115 148.117448 
L 193.165333 148.131285 
L 193.211347 148.269741 
L 193.275765 148.164642 
L 193.303373 148.164642 
L 193.349387 148.302774 
L 193.413805 148.18785 
L 193.487426 148.194549 
L 193.53344 148.33593 
L 193.597858 148.22703 
L 193.625466 148.22703 
L 193.717493 148.403476 
L 193.735898 148.265949 
L 193.855532 148.283954 
L 193.947559 148.467252 
L 193.965964 148.323068 
L 194.039585 148.344725 
L 194.154619 148.538876 
L 194.269652 148.5584 
L 194.315665 148.416441 
L 194.36628 148.605259 
L 194.375482 148.605259 
L 194.453705 148.633187 
L 194.499718 148.490268 
L 194.550333 148.69824 
L 194.559535 148.69824 
L 194.591745 148.69824 
L 194.683771 148.549739 
L 194.688373 148.737278 
L 194.697575 148.737278 
L 194.913838 148.672244 
L 195.005864 148.876007 
L 195.024269 148.709724 
L 195.097891 148.744776 
L 195.212924 149.011325 
L 195.465997 148.963339 
L 195.51201 149.203784 
L 195.576429 149.052395 
L 195.604037 149.052395 
L 195.71907 149.378351 
L 195.78809 149.455106 
L 195.838704 149.359661 
L 195.907724 149.642738 
L 196.110182 149.675417 
L 196.156196 149.982748 
L 196.220614 149.840712 
L 196.248222 149.840712 
L 196.372458 150.533143 
L 196.432275 150.533143 
L 196.556511 151.493432 
L 196.662342 151.480738 
L 196.781976 152.241316 
L 196.892408 152.26194 
L 197.012042 154.087706 
L 197.030448 154.087706 
L 197.145481 154.758184 
L 197.168488 154.758184 
L 197.288122 155.9393 
L 197.352541 155.9393 
L 197.472175 157.712688 
L 197.49058 157.712688 
L 197.605614 158.664621 
L 197.62862 158.664621 
L 197.748255 160.676109 
L 197.76666 160.676109 
L 197.890896 161.812685 
L 197.9047 161.812685 
L 198.028936 163.552045 
L 198.04274 163.552045 
L 198.162374 165.389801 
L 198.226793 165.389801 
L 198.346427 167.361866 
L 198.364832 167.361866 
L 198.484467 170.048619 
L 198.548885 170.048619 
L 198.663919 171.699512 
L 198.686925 171.699512 
L 198.80656 175.086681 
L 198.824965 175.086681 
L 198.9446 176.217826 
L 199.009018 176.217826 
L 199.128653 179.596898 
L 199.147058 179.596898 
L 199.275895 181.831021 
L 199.285098 181.831021 
L 199.409334 183.500979 
L 199.423137 183.500979 
L 199.469151 183.953912 
L 199.473752 182.740521 
L 199.515164 182.740521 
L 199.634799 165.782341 
L 199.699217 165.782341 
L 199.823453 117.4152 
L 199.837257 117.4152 
L 199.961493 81.607105 
L 199.975297 81.607105 
L 200.099532 42.536775 
L 200.113336 42.536775 
L 200.232971 33.777219 
L 200.29739 33.777219 
L 200.343403 34.124998 
L 200.348004 33.185895 
L 200.398619 33.185895 
L 200.435429 33.185895 
L 200.550462 38.15906 
L 200.711509 38.15906 
L 200.826542 43.236922 
L 200.895562 43.236922 
L 201.010595 46.639613 
L 201.125628 46.639613 
L 201.254465 53.916138 
L 201.263668 53.916138 
L 201.383303 57.632924 
L 201.401708 57.632924 
L 201.516741 59.517491 
L 201.539748 59.517491 
L 201.654781 65.328241 
L 201.769814 65.328241 
L 201.884847 71.610133 
L 201.99988 71.610133 
L 202.114913 78.049072 
L 202.229947 78.049072 
L 202.34498 84.959152 
L 202.460013 84.959152 
L 202.575046 92.445073 
L 202.644066 92.445073 
L 202.759099 100.506834 
L 202.874132 100.506834 
L 202.989166 109.196784 
L 203.104199 109.196784 
L 203.219232 118.72432 
L 203.288252 118.72432 
L 203.403285 125.68675 
L 203.426292 125.68675 
L 203.541325 129.612932 
L 203.564331 129.612932 
L 203.679364 140.082752 
L 203.794398 140.082752 
L 203.909431 146.416992 
L 203.978451 146.416992 
L 204.098085 148.214786 
L 204.208517 148.238908 
L 204.328152 148.699308 
L 204.714663 148.65033 
L 204.806689 148.422778 
L 204.829696 148.450118 
L 204.898716 148.374671 
L 205.013749 148.155485 
L 205.174796 148.110219 
L 205.29443 147.845554 
L 205.404862 147.751407 
L 205.450875 147.708492 
L 205.515294 147.73785 
L 205.588915 147.666439 
L 205.703948 147.612955 
L 205.911008 147.511998 
L 205.957021 147.472957 
L 206.02144 147.503393 
L 209.592069 147.545415 
L 209.707102 147.636273 
L 210.006188 147.712634 
L 210.052202 147.786698 
L 210.056803 147.643928 
L 210.112019 147.681148 
L 210.190241 147.576359 
L 210.282268 147.569454 
L 210.300673 147.60691 
L 210.328281 147.60691 
L 210.374295 147.727775 
L 210.443314 147.713847 
L 210.604361 147.612347 
L 210.650374 147.58858 
L 210.654975 147.709827 
L 210.696387 147.709827 
L 210.834427 147.655331 
L 210.926454 147.464576 
L 210.94946 147.504095 
L 211.064494 147.504095 
L 211.15652 147.662175 
L 211.174925 147.567018 
L 211.570639 147.537578 
L 211.616653 147.406383 
L 211.681071 147.530053 
L 211.708679 147.530053 
L 211.754692 147.655617 
L 211.759294 147.525766 
L 211.819111 147.567554 
L 211.892732 147.480292 
L 211.984759 147.436962 
L 211.98936 147.563699 
L 211.993961 147.563699 
L 212.490905 147.515701 
L 212.536918 147.426576 
L 212.601337 147.466266 
L 212.628945 147.466266 
L 212.720971 147.582741 
L 212.743978 147.579112 
L 212.766984 147.579112 
L 212.882017 147.449521 
L 213.043064 147.530476 
L 213.089077 147.570253 
L 213.093679 147.446581 
L 213.148894 147.486966 
L 213.365157 147.528427 
L 213.41117 147.610782 
L 213.461785 147.450358 
L 213.470987 147.450358 
L 213.733263 147.540546 
L 213.779276 147.582904 
L 213.829891 147.468888 
L 213.834492 147.468888 
L 213.917316 147.512199 
L 213.963329 147.597489 
L 214.013944 147.487404 
L 214.023146 147.487404 
L 214.607515 147.589455 
L 214.653528 147.634371 
L 214.704143 147.457015 
L 214.837581 147.547636 
L 214.929608 147.645488 
L 214.948013 147.582232 
L 217.460337 147.64166 
L 217.506351 147.696962 
L 217.556965 147.549816 
L 217.561567 147.549816 
L 217.690404 147.60561 
L 217.805437 147.693138 
L 219.853027 147.751027 
L 219.89904 147.827928 
L 219.963459 147.747018 
L 220.267147 147.793752 
L 220.359173 147.884439 
L 220.363774 147.784283 
L 220.377578 147.784283 
L 220.727279 147.821593 
L 220.773292 147.906208 
L 220.823907 147.780414 
L 220.83311 147.780414 
L 220.911332 147.807529 
L 220.957345 147.895231 
L 221.021764 147.811652 
L 221.141399 147.901138 
L 221.192013 147.854289 
L 221.256432 147.945502 
L 222.70585 147.946854 
L 222.751863 148.124111 
L 222.820883 148.098791 
L 223.488075 148.133983 
L 223.603108 148.272014 
L 224.270301 148.264313 
L 224.385334 148.479453 
L 224.454354 148.479453 
L 224.500367 148.340282 
L 224.550981 148.533915 
L 224.560184 148.533915 
L 224.638407 148.553003 
L 224.68442 148.410707 
L 224.735035 148.598969 
L 224.744237 148.598969 
L 224.82246 148.598969 
L 224.868473 148.448164 
L 224.919088 148.661808 
L 224.92829 148.661808 
L 224.9605 148.661808 
L 225.006513 148.506236 
L 225.057127 148.727794 
L 225.06633 148.727794 
L 225.144553 148.777558 
L 225.190566 148.603735 
L 225.195167 148.79903 
L 225.254984 148.79903 
L 225.328606 148.83416 
L 225.374619 148.678199 
L 225.439037 148.747724 
L 225.466645 148.747724 
L 225.558672 148.961428 
L 225.577077 148.77614 
L 225.650699 148.820315 
L 225.742725 149.091375 
L 225.76113 148.920386 
L 225.788738 148.920386 
L 225.903771 149.200603 
L 225.972791 149.249295 
L 226.018805 149.045958 
L 226.069419 149.370641 
L 226.078622 149.370641 
L 226.202858 149.446344 
L 226.248871 149.252554 
L 226.299486 149.630198 
L 226.308688 149.630198 
L 226.386911 149.630198 
L 226.432924 149.436129 
L 226.437525 149.847044 
L 226.492741 149.672833 
L 226.524951 149.672833 
L 226.616977 150.165707 
L 226.639984 150.038733 
L 226.709004 150.038733 
L 226.833239 150.874144 
L 226.93907 150.812047 
L 227.054103 151.838044 
L 227.123123 151.838044 
L 227.242757 152.701853 
L 227.261163 152.701853 
L 227.380797 153.57068 
L 227.491229 153.663454 
L 227.606262 155.31427 
L 227.629269 155.31427 
L 227.753505 156.558269 
L 227.767309 156.558269 
L 227.886943 157.679635 
L 227.905348 157.679635 
L 228.04799 159.370243 
L 228.089402 159.370243 
L 228.209036 160.929927 
L 228.227441 160.929927 
L 228.347076 162.610848 
L 228.411494 162.610848 
L 228.531129 164.913871 
L 228.595547 164.913871 
L 228.715182 166.812386 
L 228.733587 166.812386 
L 228.853222 169.368674 
L 228.871627 169.368674 
L 228.98666 169.931437 
L 229.05568 169.931437 
L 229.202923 174.392582 
L 229.239733 174.392582 
L 229.359368 176.651317 
L 229.377773 176.651317 
L 229.497407 179.469916 
L 229.515813 179.469916 
L 229.635447 180.590846 
L 229.653853 180.590846 
L 229.773487 183.377925 
L 229.791892 183.377925 
L 229.906926 183.953464 
L 229.929932 183.953464 
L 230.086377 171.839082 
L 230.113985 171.839082 
L 230.238221 129.495027 
L 230.252025 129.495027 
L 230.367058 105.336538 
L 230.850197 105.336538 
L 230.965231 54.209461 
L 231.080264 54.209461 
L 231.126277 38.316107 
L 231.195297 40.043627 
L 231.264317 40.043627 
L 231.37935 45.121489 
L 231.402357 45.121489 
L 231.521991 48.57653 
L 231.540396 48.57653 
L 231.65543 50.408748 
L 231.678436 50.408748 
L 231.793469 54.177883 
L 231.816476 54.177883 
L 231.940712 59.779237 
L 231.954516 59.779237 
L 232.069549 61.663804 
L 232.138569 61.663804 
L 232.253602 67.68395 
L 232.322622 67.68395 
L 232.437655 74.018191 
L 232.552688 74.018191 
L 232.667721 80.614177 
L 232.782755 80.614177 
L 232.897788 87.786004 
L 232.966808 87.786004 
L 233.081841 92.811517 
L 233.104847 92.811517 
L 233.219881 95.481321 
L 233.2889 95.481321 
L 233.417738 106.684028 
L 233.472954 106.684028 
L 233.597189 116.002167 
L 233.657007 116.002167 
L 233.77204 119.30016 
L 233.795046 119.30016 
L 233.91008 130.241121 
L 234.025113 130.241121 
L 234.140146 140.501544 
L 234.255179 140.501544 
L 234.370212 145.579407 
L 234.393219 145.579407 
L 234.508252 147.31066 
L 234.531259 147.31066 
L 234.650893 148.541961 
L 234.761325 148.568398 
L 234.876358 148.83025 
L 235.037405 148.832601 
L 235.129431 148.654847 
L 235.152438 148.681944 
L 235.175444 148.681944 
L 235.290478 148.454674 
L 235.405511 148.383793 
L 235.497537 148.160615 
L 235.520544 148.188831 
L 235.54355 148.188831 
L 235.635577 147.967899 
L 235.658584 147.996362 
L 235.68159 147.996362 
L 235.796623 147.828537 
L 235.911657 147.814659 
L 236.003683 147.650014 
L 236.02669 147.679497 
L 236.141723 147.638575 
L 236.187736 147.567284 
L 236.252155 147.607524 
L 236.463816 147.508199 
L 236.509829 147.469066 
L 236.574248 147.500122 
L 239.500691 147.543911 
L 239.615724 147.650442 
L 239.776771 147.746599 
L 239.868797 147.853268 
L 239.901007 147.842548 
L 240.282917 147.928511 
L 240.32893 147.964584 
L 240.333531 147.902035 
L 240.388747 147.902035 
L 240.697036 147.881448 
L 240.812069 147.724806 
L 241.341222 147.684772 
L 241.456255 147.578271 
L 247.000853 147.654719 
L 247.09288 147.713949 
L 247.111285 147.664706 
L 248.519291 147.744248 
L 248.565304 147.781772 
L 248.569906 147.684855 
L 248.62052 147.684855 
L 249.34753 147.726118 
L 249.439556 147.825182 
L 249.457962 147.742871 
L 249.991716 147.825066 
L 250.037729 147.863772 
L 250.04233 147.761727 
L 250.092945 147.761727 
L 250.359822 147.792406 
L 250.405835 147.876736 
L 250.470254 147.805866 
L 250.727928 147.830523 
L 250.773941 147.91866 
L 250.83836 147.833567 
L 251.234074 147.853942 
L 251.3261 147.949037 
L 251.344506 147.877199 
L 251.786233 147.91406 
L 251.832246 148.014546 
L 251.896665 147.922561 
L 251.970286 148.027358 
L 252.020901 147.948429 
L 252.085319 148.055414 
L 252.844538 148.055123 
L 252.959571 148.205313 
L 253.534737 148.177398 
L 253.626764 148.349723 
L 253.645169 148.220723 
L 253.764803 148.241039 
L 253.879837 148.430814 
L 253.948856 148.430814 
L 253.99487 148.276432 
L 254.045484 148.460137 
L 254.054687 148.460137 
L 254.086896 148.460137 
L 254.132909 148.316176 
L 254.183524 148.500148 
L 254.192727 148.500148 
L 254.362976 148.53273 
L 254.408989 148.385236 
L 254.41359 148.582241 
L 254.473408 148.42713 
L 254.501016 148.42713 
L 254.593042 148.64987 
L 254.611447 148.487035 
L 254.685069 148.512265 
L 254.731082 148.696796 
L 254.795501 148.547257 
L 254.869122 148.555882 
L 254.961148 148.791526 
L 254.979554 148.627431 
L 255.099188 148.672736 
L 255.145201 148.877988 
L 255.20962 148.746145 
L 255.237228 148.746145 
L 255.329254 148.996689 
L 255.34766 148.822801 
L 255.513307 148.911165 
L 255.559321 149.145888 
L 255.623739 148.952899 
L 255.743374 149.060245 
L 255.789387 149.31486 
L 255.853806 149.198073 
L 255.927427 149.198073 
L 256.04246 149.656322 
L 256.065467 149.656322 
L 256.11148 149.463691 
L 256.162094 149.893515 
L 256.166696 149.893515 
L 256.203506 149.893515 
L 256.295533 149.748721 
L 256.300134 149.926472 
L 256.309337 149.926472 
L 256.341546 149.926472 
L 256.387559 150.242605 
L 256.451978 150.145304 
L 256.525599 150.145304 
L 256.649835 150.956706 
L 256.663639 150.956706 
L 256.783274 151.650059 
L 256.801679 151.650059 
L 256.925915 152.83275 
L 256.985732 152.890195 
L 257.105366 153.772398 
L 257.169785 153.862036 
L 257.289419 155.360658 
L 257.307825 155.360658 
L 257.432061 155.950936 
L 257.445865 155.950936 
L 257.560898 156.765188 
L 257.583904 156.765188 
L 257.70814 158.814703 
L 257.721944 158.814703 
L 257.836977 159.549676 
L 257.859984 159.549676 
L 257.979618 161.588631 
L 257.998024 161.588631 
L 258.12226 162.748371 
L 258.136064 162.748371 
L 258.255698 165.025116 
L 258.274103 165.025116 
L 258.398339 166.357116 
L 258.412143 166.357116 
L 258.536379 168.316045 
L 258.550183 168.316045 
L 258.674419 170.436255 
L 258.688223 170.436255 
L 258.81706 172.642037 
L 258.872276 172.642037 
L 258.99191 174.891223 
L 259.010316 174.891223 
L 259.125349 176.582621 
L 259.148355 176.582621 
L 259.26799 179.402091 
L 259.286395 179.402091 
L 259.415232 181.644076 
L 259.424435 181.644076 
L 259.539468 183.31639 
L 259.562475 183.31639 
L 259.677508 183.954361 
L 259.700515 183.954361 
L 259.820149 165.765077 
L 259.838554 165.765077 
L 259.953588 140.35815 
L 259.976594 140.35815 
L 260.096229 81.102153 
L 260.160647 81.102153 
L 260.284883 42.584401 
L 260.298687 42.584401 
L 260.418321 33.503909 
L 260.436727 33.503909 
L 260.48274 33.88046 
L 260.487341 32.720416 
L 260.542557 33.342943 
L 260.62078 33.342943 
L 260.735813 34.913416 
L 260.804833 34.913416 
L 260.93367 41.771147 
L 260.988886 41.771147 
L 261.10852 45.121489 
L 261.172939 45.121489 
L 261.287972 50.408748 
L 261.403005 50.408748 
L 261.518039 56.010102 
L 261.633072 56.010102 
L 261.748105 61.663804 
L 261.863138 61.663804 
L 261.978171 67.68395 
L 262.047191 67.68395 
L 262.162224 74.018191 
L 262.323271 74.018191 
L 262.438304 80.614177 
L 262.507324 80.614177 
L 262.622357 87.733654 
L 262.73739 87.733654 
L 262.852423 95.481321 
L 262.921443 95.481321 
L 263.036476 103.804827 
L 263.197523 103.804827 
L 263.312556 112.808872 
L 263.381576 112.808872 
L 263.496609 122.7552 
L 263.611642 122.7552 
L 263.726675 134.219653 
L 263.887722 134.219653 
L 264.002755 142.700206 
L 264.071775 142.700206 
L 264.186808 146.521691 
L 264.209815 146.521691 
L 264.324848 147.888096 
L 264.393868 147.888096 
L 264.513502 148.647321 
L 264.577921 148.752024 
L 264.692954 148.779806 
L 264.854 148.732008 
L 264.946027 148.503515 
L 264.969033 148.531279 
L 265.038053 148.431641 
L 265.153086 148.235355 
L 265.176093 148.235355 
L 265.26812 148.109948 
L 265.286525 148.138205 
L 265.360146 148.042065 
L 265.475179 147.968416 
L 265.544199 147.997397 
L 265.590212 147.786431 
L 265.659232 147.815704 
L 265.728252 147.722335 
L 265.843285 147.639103 
L 266.096358 147.537762 
L 266.142372 147.498033 
L 266.211392 147.508733 
L 269.041207 147.565371 
L 269.15624 147.670637 
L 269.317287 147.718096 
L 269.436921 147.89419 
L 270.513632 147.818885 
L 270.605658 147.753166 
L 270.624064 147.791216 
L 270.881738 147.70913 
L 270.973764 147.648701 
L 270.99217 147.687278 
L 271.249844 147.615359 
L 271.295857 147.567263 
L 271.360276 147.599401 
L 277.461635 147.652231 
L 277.553661 147.77908 
L 277.572067 147.705037 
L 279.532232 147.763325 
L 279.624258 147.846497 
L 279.642664 147.771944 
L 280.452497 147.85291 
L 280.503112 147.800889 
L 280.56753 147.890447 
L 281.510802 147.908229 
L 281.602829 148.028375 
L 281.621234 147.945348 
L 281.970935 147.957776 
L 282.062961 148.082821 
L 282.081367 147.961807 
L 282.108975 147.961807 
L 282.201001 148.122254 
L 282.219406 148.007578 
L 282.477081 148.032851 
L 282.523094 148.153315 
L 282.587513 148.04843 
L 282.61512 148.04843 
L 282.707147 148.199925 
L 282.725552 148.083506 
L 282.75316 148.083506 
L 282.868193 148.224505 
L 282.8912 148.224505 
L 282.937213 148.090536 
L 283.001632 148.143657 
L 283.075253 148.143657 
L 283.16728 148.290445 
L 283.185685 148.171435 
L 283.213293 148.171435 
L 283.305319 148.33497 
L 283.323725 148.202595 
L 283.581399 148.240057 
L 283.627412 148.38955 
L 283.691831 148.293521 
L 283.719439 148.293521 
L 283.765452 148.447779 
L 283.829871 148.311309 
L 283.903492 148.311309 
L 284.018525 148.470702 
L 284.225585 148.420769 
L 284.271598 148.595045 
L 284.336017 148.480555 
L 284.363625 148.480555 
L 284.478658 148.690252 
L 284.501664 148.690252 
L 284.547678 148.541972 
L 284.598292 148.760871 
L 284.607495 148.760871 
L 284.731731 148.803897 
L 284.777744 148.639621 
L 284.828359 148.8711 
L 284.837561 148.8711 
L 284.961797 148.895499 
L 285.00781 148.740512 
L 285.072229 148.77017 
L 285.099837 148.77017 
L 285.21487 149.08975 
L 285.237877 149.08975 
L 285.28389 148.902308 
L 285.334504 149.187605 
L 285.343707 149.187605 
L 285.467943 149.237992 
L 285.513956 149.052576 
L 285.578375 149.119606 
L 285.605983 149.119606 
L 285.721016 149.557377 
L 285.744023 149.557377 
L 285.790036 149.379072 
L 285.84065 149.761305 
L 285.849853 149.761305 
L 285.882062 149.761305 
L 285.928076 149.584019 
L 285.992494 149.753473 
L 286.020102 149.753473 
L 286.135135 150.147511 
L 286.158142 150.147511 
L 286.277776 150.720036 
L 286.296182 150.720036 
L 286.415816 151.28651 
L 286.434221 151.28651 
L 286.553856 152.000727 
L 286.618275 152.038782 
L 286.737909 152.900889 
L 286.756314 152.900889 
L 286.875949 153.859857 
L 286.894354 153.859857 
L 287.013989 154.937215 
L 287.032394 154.937215 
L 287.147427 155.355451 
L 287.170434 155.355451 
L 287.29467 157.193287 
L 287.308474 157.193287 
L 287.460317 159.264738 
L 287.492527 159.264738 
L 287.616762 160.296195 
L 287.630566 160.296195 
L 287.754802 161.899646 
L 287.768606 161.899646 
L 287.888241 163.243745 
L 287.906646 163.243745 
L 288.040084 165.01147 
L 288.044686 165.01147 
L 288.159719 166.336978 
L 288.182726 166.336978 
L 288.30236 168.851736 
L 288.366779 168.851736 
L 288.486413 170.973503 
L 288.504818 170.973503 
L 288.624453 173.74136 
L 288.780898 173.74136 
L 288.932742 178.815448 
L 289.010964 178.815448 
L 289.139801 181.061604 
L 289.149004 181.061604 
L 289.268639 183.293581 
L 289.333057 183.293581 
L 289.37907 183.95481 
L 289.383672 182.739824 
L 289.438888 182.739824 
L 289.471097 182.739824 
L 289.599934 158.489811 
L 289.609137 158.489811 
L 289.742575 117.393501 
L 289.747177 117.393501 
L 289.871412 81.102153 
L 289.885216 81.102153 
L 290.009452 47.01819 
L 290.023256 47.01819 
L 290.147492 33.503909 
L 290.161296 33.503909 
L 290.207309 33.88046 
L 290.211911 33.342943 
L 290.267126 33.342943 
L 290.345349 33.342943 
L 290.464983 36.588587 
L 290.483389 36.588587 
L 290.603023 40.043627 
L 290.621429 40.043627 
L 290.741063 43.446318 
L 290.851495 43.446318 
L 290.966528 48.57653 
L 290.989535 48.57653 
L 291.109169 52.240967 
L 291.127575 52.240967 
L 291.242608 54.125534 
L 291.311628 54.125534 
L 291.426661 59.726888 
L 291.449667 59.726888 
L 291.569302 63.600721 
L 291.587707 63.600721 
L 291.70274 65.642336 
L 291.77176 65.642336 
L 291.886793 71.871878 
L 292.001827 71.871878 
L 292.11686 78.363166 
L 292.18588 78.363166 
L 292.300913 85.325596 
L 292.369933 85.325596 
L 292.484966 90.29876 
L 292.507972 90.29876 
L 292.623006 92.863866 
L 292.646012 92.863866 
L 292.761045 100.977976 
L 292.830065 100.977976 
L 292.945098 106.736377 
L 293.060132 106.736377 
L 293.175165 109.720275 
L 293.198171 109.720275 
L 293.313205 126.419637 
L 293.428238 126.419637 
L 293.543271 137.88409 
L 293.658304 137.88409 
L 293.773337 144.375378 
L 293.796344 144.375378 
L 293.911377 146.57404 
L 293.934384 146.57404 
L 294.049417 147.888096 
L 294.072423 147.888096 
L 294.187457 148.541961 
L 294.256477 148.595334 
L 294.37151 148.804739 
L 294.578569 148.731507 
L 294.693603 148.50301 
L 294.808636 148.431134 
L 294.900662 148.206709 
L 294.923669 148.234843 
L 295.038702 148.160615 
L 295.130729 148.063751 
L 295.149134 148.092606 
L 295.176742 148.092606 
L 295.291775 147.858248 
L 295.406808 147.815181 
L 295.498835 147.650541 
L 295.521841 147.680024 
L 295.636874 147.638575 
L 295.682888 147.567814 
L 295.747306 147.607524 
L 296.004981 147.538635 
L 296.050994 147.469601 
L 296.115412 147.511827 
L 298.903816 147.599697 
L 299.018849 147.717523 
L 299.133883 147.788075 
L 299.253517 147.918137 
L 300.192188 147.833587 
L 300.284214 147.766609 
L 300.30262 147.804564 
L 300.514281 147.765072 
L 300.606307 147.670144 
L 300.624712 147.70853 
L 301.158466 147.642452 
L 301.250493 147.545095 
L 301.273499 147.585618 
L 306.726071 147.687906 
L 306.818098 147.702828 
L 306.864111 147.622787 
L 306.92853 147.701277 
L 308.980721 147.737818 
L 309.026735 147.814447 
L 309.031336 147.733126 
L 309.091153 147.730638 
L 309.486867 147.778757 
L 309.53288 147.859434 
L 309.537482 147.757367 
L 309.597299 147.76884 
L 309.80896 147.799516 
L 309.854973 147.882537 
L 309.905588 147.778124 
L 309.914791 147.778124 
L 310.131053 147.824707 
L 310.246086 147.914117 
L 311.603477 147.941127 
L 311.718511 148.067054 
L 312.431716 148.073841 
L 312.523743 148.208295 
L 312.542148 148.094486 
L 312.661782 148.112236 
L 312.753809 148.24388 
L 312.772214 148.141425 
L 312.891849 148.152191 
L 312.937862 148.288197 
L 312.942463 148.147119 
L 313.002281 148.170551 
L 313.121915 148.200297 
L 313.213942 148.357416 
L 313.232347 148.232867 
L 313.305968 148.237703 
L 313.351981 148.387196 
L 313.4164 148.291129 
L 313.444008 148.291129 
L 313.490021 148.445388 
L 313.55444 148.330364 
L 313.628061 148.330364 
L 313.743094 148.525304 
L 313.812114 148.525304 
L 313.858127 148.398637 
L 313.908742 148.57468 
L 313.917945 148.57468 
L 313.950154 148.57468 
L 313.996167 148.438714 
L 314.060586 148.463791 
L 314.134207 148.477963 
L 314.226233 148.687634 
L 314.244639 148.539329 
L 314.272247 148.539329 
L 314.31826 148.915939 
L 314.382679 148.758201 
L 314.410287 148.758201 
L 314.4563 148.605688 
L 314.506914 148.837194 
L 314.516117 148.837194 
L 314.59434 148.868345 
L 314.640353 148.702292 
L 314.690967 148.950333 
L 314.70017 148.950333 
L 314.778393 148.950333 
L 314.824406 148.767321 
L 314.875021 149.037525 
L 314.884223 149.037525 
L 314.916432 149.037525 
L 314.962446 148.856423 
L 315.01306 149.134078 
L 315.022263 149.134078 
L 315.054472 149.134078 
L 315.100486 148.942435 
L 315.164904 149.003534 
L 315.192512 149.003534 
L 315.284539 149.319152 
L 315.302944 149.114944 
L 315.376565 149.201658 
L 315.468592 149.55259 
L 315.486997 149.360166 
L 315.514605 149.360166 
L 315.629638 149.756383 
L 315.652645 149.756383 
L 315.698658 149.595833 
L 315.749273 150.055202 
L 315.753874 150.055202 
L 315.790685 150.055202 
L 315.836698 150.241686 
L 315.901116 150.144051 
L 315.928724 150.144051 
L 316.048359 150.988993 
L 316.112777 150.954024 
L 316.227811 151.300281 
L 316.29683 151.300281 
L 316.421066 152.447255 
L 316.43487 152.447255 
L 316.554505 153.356793 
L 316.57291 153.356793 
L 316.692544 154.375228 
L 316.71095 154.375228 
L 316.825983 155.351505 
L 316.84899 155.351505 
L 317.014637 157.1872 
L 317.033043 157.1872 
L 317.175684 158.791785 
L 317.263109 158.791785 
L 317.382743 160.775008 
L 317.401149 160.775008 
L 317.525385 161.887915 
L 317.539189 161.887915 
L 317.663424 163.592507 
L 317.677228 163.592507 
L 317.796863 165.393144 
L 317.861281 165.393144 
L 317.985517 168.296024 
L 317.999321 168.296024 
L 318.118956 169.332047 
L 318.137361 169.332047 
L 318.256996 171.505994 
L 318.275401 171.505994 
L 318.395035 173.73677 
L 318.459454 173.73677 
L 318.579088 176.555088 
L 318.597494 176.555088 
L 318.717128 178.811703 
L 318.781547 178.811703 
L 318.89658 180.499025 
L 318.919587 180.499025 
L 319.043822 183.847642 
L 319.149653 183.954361 
L 319.306098 171.827798 
L 319.333706 171.827798 
L 319.467144 140.35815 
L 319.471746 140.35815 
L 319.600583 93.206502 
L 319.609785 93.206502 
L 319.724819 62.423593 
L 319.747825 62.423593 
L 319.86746 39.24613 
L 319.931878 39.24613 
L 320.046912 34.124998 
L 320.069918 34.124998 
L 320.194154 36.326841 
L 320.253971 36.326841 
L 320.373606 39.834231 
L 320.484038 39.834231 
L 320.599071 44.912093 
L 320.622077 44.912093 
L 320.741712 48.367133 
L 320.760117 48.367133 
L 320.87515 50.147003 
L 320.898157 50.147003 
L 321.01319 53.916138 
L 321.08221 53.916138 
L 321.206446 59.517491 
L 321.266263 59.517491 
L 321.381296 65.38059 
L 321.496329 65.38059 
L 321.611363 71.662482 
L 321.680382 71.662482 
L 321.795416 78.15377 
L 321.956462 78.15377 
L 322.071495 85.063851 
L 322.140515 85.063851 
L 322.255548 92.549771 
L 322.324568 92.549771 
L 322.439601 97.889379 
L 322.462608 97.889379 
L 322.577641 100.663881 
L 322.600648 100.663881 
L 322.715681 109.353832 
L 322.830714 109.353832 
L 322.945747 118.933716 
L 323.014767 118.933716 
L 323.1298 129.874678 
L 323.244833 129.874678 
L 323.359867 140.292148 
L 323.4749 140.292148 
L 323.589933 146.189125 
L 323.658953 146.189125 
L 323.78779 143.665969 
L 323.796993 143.665969 
L 323.916627 136.881903 
L 323.935032 136.881903 
L 324.054667 127.782281 
L 324.119085 127.782281 
L 324.165099 128.815401 
L 324.1697 126.510191 
L 324.220315 126.57161 
L 324.257125 126.57161 
L 324.349152 132.047912 
L 324.381361 130.824818 
L 324.395165 130.824818 
L 324.5148 138.875133 
L 324.533205 138.875133 
L 324.579218 138.313113 
L 324.583819 142.279846 
L 324.616029 142.279846 
L 324.625231 142.279846 
L 324.744866 149.280832 
L 324.763271 149.280832 
L 324.878304 153.317949 
L 324.947324 153.317949 
L 325.062357 154.880705 
L 325.085364 154.880705 
L 325.131377 155.010934 
L 325.195796 154.880705 
L 325.31543 154.880705 
L 325.435065 153.05749 
L 325.499483 153.05749 
L 325.614517 151.885424 
L 325.683536 151.885424 
L 325.807772 150.322669 
L 325.913603 150.322669 
L 326.033237 149.280832 
L 326.097656 149.280832 
L 326.21729 148.759914 
L 326.235696 148.759914 
L 326.35533 148.238995 
L 326.373735 148.238995 
L 326.49337 147.978536 
L 326.511775 147.978536 
L 326.63141 147.718077 
L 326.649815 147.718077 
L 326.764848 147.587847 
L 326.833868 147.587847 
L 326.948901 147.457618 
L 327.063934 147.457618 
L 327.178968 147.327388 
L 328.12224 147.327388 
L 328.237273 147.197158 
L 328.352306 147.197158 
L 328.444332 147.327388 
L 328.462738 147.197158 
L 330.192836 147.197158 
L 330.30787 147.327388 
L 330.744996 147.327388 
L 330.860029 147.197158 
L 331.067088 147.197158 
L 331.186723 147.859633 
L 331.205128 147.859633 
L 331.324763 150.288708 
L 331.343168 150.288708 
L 331.462803 154.165954 
L 331.481208 154.165954 
L 331.596241 156.39588 
L 331.619248 156.39588 
L 331.738882 160.171245 
L 331.757287 160.171245 
L 331.803301 159.664601 
L 331.807902 160.759132 
L 331.863118 160.66423 
L 331.895327 160.66423 
L 332.014962 157.724966 
L 332.033367 157.724966 
L 332.07938 158.27487 
L 332.083982 156.06624 
L 332.125394 156.06624 
L 332.240427 153.801954 
L 332.263433 153.801954 
L 332.378467 149.394908 
L 332.401473 149.394908 
L 332.521108 145.770874 
L 332.631539 145.780919 
L 332.746573 144.783454 
L 332.999646 144.889058 
L 333.505792 146.192184 
L 333.625426 146.494732 
L 333.643831 146.494732 
L 333.758864 146.629147 
L 333.781871 146.629147 
L 333.896904 146.825264 
L 333.965924 146.896955 
L 334.085559 147.039653 
L 334.33403 147.149364 
L 334.449063 147.239328 
L 341.282033 147.332622 
L 341.328047 147.353168 
L 341.332648 147.314319 
L 341.387864 147.314319 
L 348.598142 147.367915 
L 348.713176 147.461699 
L 352.187177 147.362001 
L 352.279204 147.342341 
L 352.30221 147.354826 
L 379.519056 147.415335 
L 379.56507 147.467522 
L 379.629488 147.426815 
L 387.065232 147.500329 
L 387.157258 147.538071 
L 387.180265 147.534108 
L 392.67885 147.599322 
L 392.793883 147.654847 
L 395.485659 147.763342 
L 395.531673 147.769481 
L 395.536274 147.706556 
L 395.586889 147.715935 
L 396.359911 147.764365 
L 396.405925 147.840547 
L 396.410526 147.755777 
L 396.470343 147.755777 
L 397.556256 147.788437 
L 397.648283 147.934907 
L 397.666688 147.841882 
L 397.878349 147.862673 
L 397.970376 147.956319 
L 397.988781 147.886831 
L 398.338482 147.995111 
L 398.384495 148.002365 
L 398.389096 147.91292 
L 398.416704 147.91292 
L 398.476522 147.925601 
L 398.568548 148.028333 
L 398.586953 147.942128 
L 398.706588 147.954276 
L 398.821621 148.07069 
L 399.534827 148.177837 
L 399.58084 148.186787 
L 399.585441 148.079097 
L 399.608448 148.079097 
L 399.672866 148.081211 
L 399.7879 148.227746 
L 399.810906 148.227746 
L 399.85692 148.115133 
L 399.907534 148.261643 
L 399.916737 148.261643 
L 399.948946 148.261643 
L 399.994959 148.14229 
L 400.045574 148.289689 
L 400.054777 148.289689 
L 400.547119 148.304994 
L 400.593132 148.450483 
L 400.65755 148.371364 
L 400.685158 148.371364 
L 400.800191 148.550506 
L 400.823198 148.550506 
L 400.869211 148.428485 
L 400.919826 148.626103 
L 400.929029 148.626103 
L 401.145291 148.709969 
L 401.191304 148.762999 
L 401.195906 148.644514 
L 401.251121 148.644514 
L 401.329344 148.723138 
L 401.458181 149.068492 
L 401.605424 149.102402 
L 401.725058 149.510615 
L 401.743463 149.510615 
L 401.858497 149.978376 
L 401.881503 149.978376 
L 402.001138 150.792279 
L 402.065556 150.792279 
L 402.185191 151.736558 
L 402.249609 151.736558 
L 402.364642 152.327583 
L 402.387649 152.327583 
L 402.502682 153.307139 
L 402.525689 153.307139 
L 402.645323 154.3004 
L 402.709742 154.3004 
L 402.838579 155.084567 
L 402.847782 155.084567 
L 402.976619 155.848252 
L 403.031835 155.848252 
L 403.151469 156.794269 
L 403.169875 156.794269 
L 403.298712 157.544113 
L 403.307914 157.544113 
L 403.436752 158.295257 
L 403.445954 158.295257 
L 403.57019 158.851683 
L 403.583994 158.851683 
L 403.712831 159.598989 
L 403.722034 159.598989 
L 403.850871 160.330172 
L 403.998113 160.330172 
L 404.122349 161.616333 
L 404.136153 161.616333 
L 404.251186 162.163973 
L 404.274193 162.163973 
L 404.389226 162.901648 
L 404.412233 162.901648 
L 404.527266 163.449108 
L 404.550273 163.449108 
L 404.669907 164.354535 
L 404.688312 164.354535 
L 404.817149 165.091486 
L 404.826352 165.091486 
L 404.950588 165.633116 
L 404.964392 165.633116 
L 405.093229 166.361795 
L 405.102432 166.361795 
L 405.231269 167.276038 
L 405.332498 167.276038 
L 405.452133 168.188017 
L 405.470538 168.188017 
L 405.585571 168.554619 
L 405.608578 168.554619 
L 405.723611 169.466599 
L 405.792631 169.466599 
L 405.907664 170.380842 
L 405.930671 170.380842 
L 406.050305 171.292821 
L 406.06871 171.292821 
L 406.192946 171.840461 
L 406.20675 171.840461 
L 406.321783 172.571403 
L 406.34479 172.571403 
L 406.464424 173.302344 
L 406.528843 173.302344 
L 406.643876 173.849985 
L 406.712896 173.849985 
L 406.827929 175.128567 
L 406.896949 175.128567 
L 407.016584 176.040546 
L 407.127015 176.040546 
L 407.24665 177.135827 
L 407.311068 177.135827 
L 407.426102 178.05007 
L 407.449108 178.05007 
L 407.577945 178.778748 
L 407.633161 178.778748 
L 407.761998 179.509689 
L 407.771201 179.509689 
L 407.890836 180.423932 
L 408.001267 180.423932 
L 408.120902 181.519213 
L 408.277347 181.519213 
L 408.424589 182.978833 
L 408.4614 182.978833 
L 408.553427 183.270757 
L 408.558028 182.06459 
L 408.691466 182.06459 
L 408.820304 157.941259 
L 408.875519 157.941259 
L 408.995154 92.794686 
L 409.059573 92.794686 
L 409.174606 53.670149 
L 409.197612 53.670149 
L 409.312645 37.402952 
L 409.335652 37.402952 
L 409.427679 29.923165 
L 409.450685 31.201117 
L 409.565718 31.201117 
L 409.680752 36.245326 
L 409.795785 36.245326 
L 409.910818 41.501923 
L 410.071864 41.501923 
L 410.186898 46.59923 
L 410.255917 46.59923 
L 410.370951 52.280602 
L 410.485984 52.280602 
L 410.601017 57.908878 
L 410.71605 57.908878 
L 410.831083 63.802639 
L 410.946116 63.802639 
L 411.06115 70.227369 
L 411.130169 70.227369 
L 411.245203 76.705195 
L 411.360236 76.705195 
L 411.475269 83.713992 
L 411.590302 83.713992 
L 411.705335 91.306854 
L 411.774355 91.306854 
L 411.889388 99.483783 
L 412.004421 99.483783 
L 412.119455 108.350972 
L 412.280501 108.350972 
L 412.395534 118.014616 
L 412.464554 118.014616 
L 412.579587 129.111877 
L 412.69462 129.111877 
L 412.809654 139.890556 
L 412.9707 139.890556 
L 413.085733 146.14485 
L 413.10874 146.14485 
L 413.237577 143.748942 
L 413.24678 143.748942 
L 413.366414 137.098666 
L 413.384819 137.098666 
L 413.499853 130.816967 
L 413.522859 130.816967 
L 413.568872 128.232086 
L 413.633291 129.228428 
L 413.660899 129.228428 
L 413.706912 127.134595 
L 413.757527 132.426526 
L 413.762128 132.426526 
L 413.798939 132.426526 
L 413.844952 131.220187 
L 413.849553 135.59282 
L 413.890965 135.59282 
L 413.936979 139.258092 
L 414.005998 138.841172 
L 414.029005 138.841172 
L 414.14864 149.541291 
L 414.213058 149.541291 
L 414.328091 153.317949 
L 414.351098 153.317949 
L 414.466131 154.750475 
L 414.535151 154.750475 
L 414.581164 154.880705 
L 414.645583 154.750475 
L 414.673191 154.750475 
L 414.797427 153.317949 
L 414.857244 153.317949 
L 414.976878 152.276113 
L 415.041297 152.276113 
L 415.165533 150.713358 
L 415.22535 150.713358 
L 415.340383 149.80175 
L 415.409403 149.80175 
L 415.524436 149.150602 
L 415.547443 149.150602 
L 415.667077 148.629684 
L 415.685483 148.629684 
L 415.800516 148.238995 
L 415.869536 148.238995 
L 415.984569 147.848306 
L 416.007576 147.848306 
L 416.12721 147.587847 
L 416.283655 147.587847 
L 416.398688 147.457618 
L 416.421695 147.457618 
L 416.536728 147.327388 
L 417.48 147.327388 
L 417.48 147.327388 
" style="fill:none;stroke:#e41a1c;stroke-linecap:square;stroke-width:2;"/>
   </g>
   <g id="patch_3">
    <path d="M 79.79325 230.88 
L 79.79325 14.52 
" style="fill:none;stroke:#000000;stroke-linecap:square;stroke-linejoin:miter;stroke-width:0.8;"/>
   </g>
   <g id="patch_4">
    <path d="M 417.48 230.88 
L 417.48 14.52 
" style="fill:none;"/>
   </g>
   <g id="patch_5">
    <path d="M 79.79325 230.88 
L 417.48 230.88 
" style="fill:none;stroke:#000000;stroke-linecap:square;stroke-linejoin:miter;stroke-width:0.8;"/>
   </g>
   <g id="patch_6">
    <path d="M 79.79325 14.52 
L 417.48 14.52 
" style="fill:none;"/>
   </g>
   <g id="legend_1">
    <g id="patch_7">
     <path d="M 84.59325 229.28 
L 240.97652 229.28 
Q 244.17652 229.28 244.17652 226.08 
L 244.17652 204.54415 
Q 244.17652 201.34415 240.97652 201.34415 
L 84.59325 201.34415 
Q 81.39325 201.34415 81.39325 204.54415 
L 81.39325 226.08 
Q 81.39325 229.28 84.59325 229.28 
z
" style="fill:#ffffff;stroke:#000000;stroke-linejoin:miter;"/>
    </g>
    <g id="line2d_10">
     <path d="M 87.79325 214.00011 
L 119.79325 214.00011 
" style="fill:none;stroke:#e41a1c;stroke-linecap:square;stroke-width:2;"/>
    </g>
    <g id="line2d_11"/>
    <g id="text_11">
     <!-- Surface Speed -->
     <g transform="translate(132.59325 219.60011)scale(0.16 -0.16)">
      <use transform="translate(0 -1.570628)scale(0.996264)" xlink:href="#Century_Schoolbook_L_Roman-83"/>
      <use transform="translate(62.763979 -1.570628)scale(0.996264)" xlink:href="#Century_Schoolbook_L_Roman-117"/>
      <use transform="translate(123.63561 -1.570628)scale(0.996264)" xlink:href="#Century_Schoolbook_L_Roman-114"/>
      <use transform="translate(167.869178 -1.570628)scale(0.996264)" xlink:href="#Century_Schoolbook_L_Roman-102"/>
      <use transform="translate(201.044408 -1.570628)scale(0.996264)" xlink:href="#Century_Schoolbook_L_Roman-97"/>
      <use transform="translate(256.436085 -1.570628)scale(0.996264)" xlink:href="#Century_Schoolbook_L_Roman-99"/>
      <use transform="translate(300.669654 -1.570628)scale(0.996264)" xlink:href="#Century_Schoolbook_L_Roman-101"/>
      <use transform="translate(378.178024 -1.570628)scale(0.996264)" xlink:href="#Century_Schoolbook_L_Roman-83"/>
      <use transform="translate(440.942003 -1.570628)scale(0.996264)" xlink:href="#Century_Schoolbook_L_Roman-112"/>
      <use transform="translate(498.12749 -1.570628)scale(0.996264)" xlink:href="#Century_Schoolbook_L_Roman-101"/>
      <use transform="translate(547.940691 -1.570628)scale(0.996264)" xlink:href="#Century_Schoolbook_L_Roman-101"/>
      <use transform="translate(597.753891 -1.570628)scale(0.996264)" xlink:href="#Century_Schoolbook_L_Roman-100"/>
     </g>
    </g>
   </g>
  </g>
 </g>
 <defs>
  <clipPath id="p833824da68">
   <rect height="216.36" width="337.68675" x="79.79325" y="14.52"/>
  </clipPath>
 </defs>
</svg>
