<?xml version="1.0" encoding="utf-8" standalone="no"?>
<!DOCTYPE svg PUBLIC "-//W3C//DTD SVG 1.1//EN"
  "http://www.w3.org/Graphics/SVG/1.1/DTD/svg11.dtd">
<!-- Created with matplotlib (https://matplotlib.org/) -->
<svg height="288pt" version="1.1" viewBox="0 0 432 288" width="432pt" xmlns="http://www.w3.org/2000/svg" xmlns:xlink="http://www.w3.org/1999/xlink">
 <defs>
  <style type="text/css">
*{stroke-linecap:butt;stroke-linejoin:round;}
  </style>
 </defs>
 <g id="figure_1">
  <g id="patch_1">
   <path d="M 0 288 
L 432 288 
L 432 0 
L 0 0 
z
" style="fill:#ffffff;"/>
  </g>
  <g id="axes_1">
   <g id="patch_2">
    <path d="M 65.32538 230.88 
L 417.48 230.88 
L 417.48 14.52 
L 65.32538 14.52 
z
" style="fill:#ffffff;"/>
   </g>
   <g id="matplotlib.axis_1">
    <g id="xtick_1">
     <g id="line2d_1">
      <defs>
       <path d="M 0 0 
L 0 3.5 
" id="m89f8518b93" style="stroke:#000000;stroke-width:0.8;"/>
      </defs>
      <g>
       <use style="stroke:#000000;stroke-width:0.8;" x="161.2947" xlink:href="#m89f8518b93" y="230.88"/>
      </g>
     </g>
     <g id="text_1">
      <!-- $20$ -->
      <defs>
       <path d="M 41.703125 15.453125 
L 39.90625 15.453125 
C 38.90625 8.375 38.09375 7.171875 37.703125 6.5625 
C 37.203125 5.765625 30 5.765625 28.59375 5.765625 
L 9.40625 5.765625 
C 13 9.671875 20 16.75 28.5 24.953125 
C 34.59375 30.734375 41.703125 37.53125 41.703125 47.421875 
C 41.703125 59.21875 32.296875 66 21.796875 66 
C 10.796875 66 4.09375 56.3125 4.09375 47.34375 
C 4.09375 43.4375 7 42.9375 8.203125 42.9375 
C 9.203125 42.9375 12.203125 43.546875 12.203125 47.03125 
C 12.203125 50.109375 9.59375 51 8.203125 51 
C 7.59375 51 7 50.90625 6.59375 50.703125 
C 8.5 59.21875 14.296875 63.40625 20.40625 63.40625 
C 29.09375 63.40625 34.796875 56.515625 34.796875 47.421875 
C 34.796875 38.734375 29.703125 31.25 24 24.75 
L 4.09375 2.28125 
L 4.09375 0 
L 39.296875 0 
z
" id="CMR17-50"/>
       <path d="M 42 31.640625 
C 42 37.75 41.90625 48.125 37.703125 56.109375 
C 34 63.109375 28.09375 65.59375 22.90625 65.59375 
C 18.09375 65.59375 12 63.40625 8.203125 56.203125 
C 4.203125 48.71875 3.796875 39.4375 3.796875 31.640625 
C 3.796875 25.953125 3.90625 17.28125 7 9.671875 
C 11.296875 -0.609375 19 -2 22.90625 -2 
C 27.5 -2 34.5 -0.109375 38.59375 9.375 
C 41.59375 16.28125 42 24.359375 42 31.640625 
z
M 22.90625 -0.40625 
C 16.5 -0.40625 12.703125 5.078125 11.296875 12.6875 
C 10.203125 18.5625 10.203125 27.15625 10.203125 32.75 
C 10.203125 40.4375 10.203125 46.828125 11.5 52.921875 
C 13.40625 61.390625 19 64 22.90625 64 
C 27 64 32.296875 61.296875 34.203125 53.125 
C 35.5 47.4375 35.59375 40.734375 35.59375 32.75 
C 35.59375 26.25 35.59375 18.265625 34.40625 12.375 
C 32.296875 1.484375 26.40625 -0.40625 22.90625 -0.40625 
z
" id="CMR17-48"/>
      </defs>
      <g transform="translate(153.039575 251.21795)scale(0.18 -0.18)">
       <use transform="scale(0.996264)" xlink:href="#CMR17-50"/>
       <use transform="translate(45.690477 0)scale(0.996264)" xlink:href="#CMR17-48"/>
      </g>
     </g>
    </g>
    <g id="xtick_2">
     <g id="line2d_2">
      <g>
       <use style="stroke:#000000;stroke-width:0.8;" x="257.264019" xlink:href="#m89f8518b93" y="230.88"/>
      </g>
     </g>
     <g id="text_2">
      <!-- $40$ -->
      <defs>
       <path d="M 33.59375 64.40625 
C 33.59375 66.5 33.5 66.5 31.703125 66.5 
L 2 19.59375 
L 2 17 
L 27.796875 17 
L 27.796875 7.140625 
C 27.796875 3.5 27.59375 2.5 20.59375 2.5 
L 18.703125 2.5 
L 18.703125 0 
C 21.90625 0 27.296875 0 30.703125 0 
C 34.09375 0 39.5 0 42.703125 0 
L 42.703125 2.5 
L 40.796875 2.5 
C 33.796875 2.5 33.59375 3.5 33.59375 7.140625 
L 33.59375 17 
L 43.796875 17 
L 43.796875 19.59375 
L 33.59375 19.59375 
z
M 28.09375 57.859375 
L 28.09375 19.59375 
L 4 19.59375 
z
" id="CMR17-52"/>
      </defs>
      <g transform="translate(249.008894 251.21795)scale(0.18 -0.18)">
       <use transform="scale(0.996264)" xlink:href="#CMR17-52"/>
       <use transform="translate(45.690477 0)scale(0.996264)" xlink:href="#CMR17-48"/>
      </g>
     </g>
    </g>
    <g id="xtick_3">
     <g id="line2d_3">
      <g>
       <use style="stroke:#000000;stroke-width:0.8;" x="353.233339" xlink:href="#m89f8518b93" y="230.88"/>
      </g>
     </g>
     <g id="text_3">
      <!-- $60$ -->
      <defs>
       <path d="M 10.59375 34 
C 10.59375 57.65625 21.796875 63 28.296875 63 
C 30.40625 63 35.5 62.640625 37.5 59 
C 35.90625 59 32.90625 59 32.90625 55.515625 
C 32.90625 52.828125 35.09375 51.921875 36.5 51.921875 
C 37.40625 51.921875 40.09375 52.3125 40.09375 55.625 
C 40.09375 61.78125 35.09375 65.296875 28.203125 65.296875 
C 16.296875 65.296875 3.796875 52.96875 3.796875 31 
C 3.796875 3.953125 15.09375 -2 23.09375 -2 
C 32.796875 -2 42 6.671875 42 20.046875 
C 42 32.515625 33.90625 41.59375 23.703125 41.59375 
C 17.59375 41.59375 13.09375 37.609375 10.59375 30.625 
z
M 23.09375 0.390625 
C 10.796875 0.390625 10.796875 18.75 10.796875 22.4375 
C 10.796875 29.625 14.203125 40 23.5 40 
C 25.203125 40 30.09375 40 33.40625 33.125 
C 35.203125 29.21875 35.203125 25.140625 35.203125 20.140625 
C 35.203125 14.75 35.203125 10.78125 33.09375 6.78125 
C 30.90625 2.671875 27.703125 0.390625 23.09375 0.390625 
z
" id="CMR17-54"/>
      </defs>
      <g transform="translate(344.978214 251.21795)scale(0.18 -0.18)">
       <use transform="scale(0.996264)" xlink:href="#CMR17-54"/>
       <use transform="translate(45.690477 0)scale(0.996264)" xlink:href="#CMR17-48"/>
      </g>
     </g>
    </g>
    <g id="text_4">
     <!-- Time (s) -->
     <defs>
      <path d="M 63.296875 72 
L 3.40625 72 
L 1.90625 44.265625 
L 6.203125 44.265625 
C 6.90625 49.25 7.796875 53.046875 8.90625 56.234375 
C 11.5 63.515625 16.296875 67.3125 23.09375 67.3125 
C 26.40625 67.3125 27.796875 66.203125 27.796875 63.71875 
L 27.796875 12.28125 
L 27.796875 9.375 
C 27.796875 5.1875 26.90625 4.6875 18.796875 4.6875 
L 16.203125 4.6875 
L 16.203125 0 
L 50.5 0 
L 50.5 4.6875 
L 47.90625 4.6875 
C 39.90625 4.6875 39 5.1875 39 9.375 
L 39 12.28125 
L 39 63.71875 
C 39 66.203125 40.40625 67.3125 43.703125 67.3125 
C 49.796875 67.3125 54.703125 63.90625 57.203125 57.921875 
C 58.703125 54.25 59.703125 49.953125 60.5 44.265625 
L 64.796875 44.265625 
z
" id="Century_Schoolbook_L_Roman-84"/>
      <path d="M 20.59375 46 
L 1.796875 46 
L 1.796875 41.21875 
L 6.90625 41.21875 
C 10.59375 41.21875 11.203125 40.515625 11.203125 36.203125 
L 11.203125 12.296875 
L 11.203125 8.296875 
C 11.203125 4.296875 10.09375 3.59375 3.703125 3.59375 
L 3 3.59375 
L 3 0 
L 28.90625 0 
L 28.90625 3.59375 
L 28.203125 3.59375 
C 21.703125 3.59375 20.59375 4.28125 20.59375 8.21875 
L 20.59375 12.171875 
z
M 15.90625 71.578125 
C 12.703125 71.578125 10.09375 68.984375 10.09375 65.796875 
C 10.09375 62.703125 12.703125 60 15.796875 60 
C 19.09375 60 21.703125 62.59375 21.703125 65.796875 
C 21.703125 68.984375 19.09375 71.578125 15.90625 71.578125 
z
" id="Century_Schoolbook_L_Roman-105"/>
      <path d="M 20.09375 46 
L 2.296875 46 
L 2.296875 41.21875 
L 6.40625 41.21875 
C 10.09375 41.21875 10.703125 40.515625 10.703125 36.203125 
L 10.703125 12.296875 
L 10.703125 8.40625 
C 10.703125 4.296875 9.59375 3.59375 3.203125 3.59375 
L 2.796875 3.59375 
L 2.796875 0 
L 28 0 
L 28 3.59375 
L 27.59375 3.59375 
C 21.203125 3.59375 20.09375 4.296875 20.09375 8.390625 
L 20.09375 12.28125 
L 20.09375 26.453125 
C 20.09375 35.328125 25 41.921875 31.5 41.921875 
C 34.09375 41.921875 36.90625 40.515625 38.09375 38.625 
C 39.5 36.734375 40.09375 33.828125 40.09375 29.734375 
L 40.09375 12.28125 
L 40.09375 8.28125 
C 40.09375 4.296875 39 3.59375 32.5 3.59375 
L 32.09375 3.59375 
L 32.09375 0 
L 57.40625 0 
L 57.40625 3.59375 
L 57 3.59375 
C 50.59375 3.59375 49.5 4.296875 49.5 8.28125 
L 49.5 12.28125 
L 49.5 25.546875 
C 49.5 35.53125 54 41.921875 61 41.921875 
C 64.296875 41.921875 67 40.015625 68.296875 36.921875 
C 69.203125 34.734375 69.5 32.53125 69.5 28.640625 
L 69.5 12.28125 
L 69.5 8.28125 
C 69.5 4.296875 68.40625 3.59375 61.90625 3.59375 
L 61.5 3.59375 
L 61.5 0 
L 86.796875 0 
L 86.796875 3.59375 
L 86.40625 3.59375 
C 80 3.59375 78.90625 4.296875 78.90625 8.390625 
L 78.90625 12.28125 
L 78.90625 30.640625 
C 78.90625 36.828125 78.296875 38.921875 75.703125 42.3125 
C 72.796875 46.015625 68.703125 48 63.90625 48 
C 57.40625 48 52.59375 44.9375 48.296875 38.109375 
C 46.59375 44.046875 41.203125 48 34.5 48 
C 28.5 48 24 45.140625 20.09375 38.921875 
z
" id="Century_Schoolbook_L_Roman-109"/>
      <path d="M 46.5 23 
C 46.59375 37.8125 38.09375 48.28125 25.90625 48.28125 
C 13.09375 48.28125 3.5 37.25 3.5 22.34375 
C 3.5 8.4375 12.59375 -1 26.09375 -1 
C 35.59375 -1 42.40625 3.6875 46.5 13.1875 
L 43 15.09375 
C 38.90625 7.390625 34.703125 4.390625 28 4.390625 
C 22.90625 4.390625 19.203125 6.59375 16.59375 11 
C 14.796875 14 14 17.5 14.09375 23 
z
M 14.203125 27.296875 
C 14.203125 30.34375 14.59375 32.5 15.59375 35.25 
C 17.703125 41.140625 20.90625 44 25.703125 44 
C 31.796875 44 35.796875 38.78125 35.796875 30.921875 
C 35.796875 28.078125 34.90625 27.296875 31.703125 27.296875 
z
" id="Century_Schoolbook_L_Roman-101"/>
      <path d="M 27.90625 73.453125 
C 21.90625 69.765625 18.703125 67.171875 15.296875 63.171875 
C 7.703125 54.1875 3.59375 42.71875 3.59375 30.640625 
C 3.59375 19.265625 7.203125 8.578125 13.90625 -0.296875 
C 17.703125 -5.09375 21.09375 -8.078125 27.90625 -12.28125 
L 27.90625 -8.578125 
C 17.90625 0.203125 13.90625 11.484375 13.90625 30.640625 
C 13.90625 49.796875 17.90625 60.984375 27.90625 69.765625 
z
" id="Century_Schoolbook_L_Roman-40"/>
      <path d="M 39 48 
L 35.5 48 
L 32.59375 44.40625 
C 29 47.203125 25.40625 48.390625 20.40625 48.390625 
C 11.59375 48.390625 5.796875 42.625 5.796875 33.953125 
C 5.796875 30.078125 7.09375 26.78125 9.296875 24.8125 
C 11.59375 22.703125 13.90625 21.71875 19.90625 20.3125 
L 25.203125 19.125 
C 33.09375 17.234375 35.90625 15.234375 35.90625 11.265625 
C 35.90625 6.578125 31.796875 3.296875 25.90625 3.296875 
C 17.5 3.296875 11.5 8.765625 9.09375 18.875 
L 5.09375 18.875 
L 5.09375 0 
L 8.59375 0 
L 12.09375 3.90625 
C 16.203125 0.59375 20.796875 -1 25.796875 -1 
C 35.59375 -1 42.09375 5.078125 42.09375 14.34375 
C 42.09375 18.71875 40.703125 22.09375 37.90625 24.390625 
C 35.5 26.484375 33.5 27.28125 27.40625 28.5625 
L 22.40625 29.671875 
C 16.90625 30.859375 16.90625 30.859375 15.09375 31.859375 
C 12.90625 32.859375 11.59375 34.9375 11.59375 37.140625 
C 11.59375 41.109375 15.40625 44 20.90625 44 
C 24.703125 44 27.796875 42.703125 30.59375 40.015625 
C 32.796875 37.8125 33.90625 35.828125 35.5 31.234375 
L 39 31.234375 
z
" id="Century_Schoolbook_L_Roman-115"/>
      <path d="M 5.40625 -12.28125 
C 11.40625 -8.578125 14.59375 -5.984375 18 -1.890625 
C 25.59375 6.984375 29.703125 18.5625 29.703125 30.640625 
C 29.703125 42.015625 26.09375 52.703125 19.40625 61.484375 
C 15.59375 66.375 12.203125 69.359375 5.40625 73.453125 
L 5.40625 69.765625 
C 15.40625 60.984375 19.40625 49.796875 19.40625 30.640625 
C 19.40625 11.375 15.40625 0.203125 5.40625 -8.578125 
z
" id="Century_Schoolbook_L_Roman-41"/>
     </defs>
     <g transform="translate(207.401225 273.24577)scale(0.18 -0.18)">
      <use transform="translate(0 -0.29235)scale(0.996264)" xlink:href="#Century_Schoolbook_L_Roman-84"/>
      <use transform="translate(66.450031 -0.29235)scale(0.996264)" xlink:href="#Century_Schoolbook_L_Roman-105"/>
      <use transform="translate(97.831344 -0.29235)scale(0.996264)" xlink:href="#Century_Schoolbook_L_Roman-109"/>
      <use transform="translate(186.398251 -0.29235)scale(0.996264)" xlink:href="#Century_Schoolbook_L_Roman-101"/>
      <use transform="translate(263.906621 -0.29235)scale(0.996264)" xlink:href="#Century_Schoolbook_L_Roman-40"/>
      <use transform="translate(297.081851 -0.29235)scale(0.996264)" xlink:href="#Century_Schoolbook_L_Roman-115"/>
      <use transform="translate(343.207661 -0.29235)scale(0.996264)" xlink:href="#Century_Schoolbook_L_Roman-41"/>
     </g>
    </g>
   </g>
   <g id="matplotlib.axis_2">
    <g id="ytick_1">
     <g id="line2d_4">
      <defs>
       <path d="M 0 0 
L -3.5 0 
" id="me497ca4fa4" style="stroke:#000000;stroke-width:0.8;"/>
      </defs>
      <g>
       <use style="stroke:#000000;stroke-width:0.8;" x="65.32538" xlink:href="#me497ca4fa4" y="230.88"/>
      </g>
     </g>
     <g id="text_5">
      <!-- $0$ -->
      <g transform="translate(50.07025 237.548975)scale(0.18 -0.18)">
       <use transform="scale(0.996264)" xlink:href="#CMR17-48"/>
      </g>
     </g>
    </g>
    <g id="ytick_2">
     <g id="line2d_5">
      <g>
       <use style="stroke:#000000;stroke-width:0.8;" x="65.32538" xlink:href="#me497ca4fa4" y="184.708425"/>
      </g>
     </g>
     <g id="text_6">
      <!-- $50$ -->
      <defs>
       <path d="M 11.40625 57.6875 
C 12.40625 57.28125 16.5 56 20.703125 56 
C 30 56 35.09375 61.109375 38 64.0625 
C 38 64.953125 38 65.5 37.40625 65.5 
C 37.296875 65.5 37.09375 65.5 36.296875 65.046875 
C 32.796875 63.40625 28.703125 62.078125 23.703125 62.078125 
C 20.703125 62.078125 16.203125 62.484375 11.296875 64.671875 
C 10.203125 65.171875 10 65.171875 9.90625 65.171875 
C 9.40625 65.171875 9.296875 65.0625 9.296875 63.078125 
L 9.296875 34.421875 
C 9.296875 32.640625 9.296875 32.140625 10.296875 32.140625 
C 10.796875 32.140625 11 32.34375 11.5 33.03125 
C 14.703125 37.515625 19.09375 39.40625 24.09375 39.40625 
C 27.59375 39.40625 35.09375 37.21875 35.09375 20.140625 
C 35.09375 16.953125 35.09375 11.171875 32.09375 6.578125 
C 29.59375 2.484375 25.703125 0.390625 21.40625 0.390625 
C 14.796875 0.390625 8.09375 5 6.296875 12.71875 
C 6.703125 12.609375 7.5 12.421875 7.90625 12.421875 
C 9.203125 12.421875 11.703125 13.125 11.703125 16.21875 
C 11.703125 18.90625 9.796875 20 7.90625 20 
C 5.59375 20 4.09375 18.59375 4.09375 15.796875 
C 4.09375 7.09375 11 -2 21.59375 -2 
C 31.90625 -2 41.703125 6.875 41.703125 19.75 
C 41.703125 31.71875 33.90625 41 24.203125 41 
C 19.09375 41 14.796875 39.109375 11.40625 35.53125 
z
" id="CMR17-53"/>
      </defs>
      <g transform="translate(41.81513 191.3774)scale(0.18 -0.18)">
       <use transform="scale(0.996264)" xlink:href="#CMR17-53"/>
       <use transform="translate(45.690477 0)scale(0.996264)" xlink:href="#CMR17-48"/>
      </g>
     </g>
    </g>
    <g id="ytick_3">
     <g id="line2d_6">
      <g>
       <use style="stroke:#000000;stroke-width:0.8;" x="65.32538" xlink:href="#me497ca4fa4" y="138.53685"/>
      </g>
     </g>
     <g id="text_7">
      <!-- $100$ -->
      <defs>
       <path d="M 26.59375 63.40625 
C 26.59375 65.5 26.5 65.5 25.09375 65.5 
C 21.203125 61.1875 15.296875 59.796875 9.703125 59.796875 
C 9.40625 59.796875 8.90625 59.796875 8.796875 59.5 
C 8.703125 59.296875 8.703125 59.09375 8.703125 57 
C 11.796875 57 17 57.59375 21 59.984375 
L 21 7.203125 
C 21 3.6875 20.796875 2.5 12.203125 2.5 
L 9.203125 2.5 
L 9.203125 0 
C 14 0 19 0 23.796875 0 
C 28.59375 0 33.59375 0 38.40625 0 
L 38.40625 2.5 
L 35.40625 2.5 
C 26.796875 2.5 26.59375 3.59375 26.59375 7.15625 
z
" id="CMR17-49"/>
      </defs>
      <g transform="translate(33.56 145.205825)scale(0.18 -0.18)">
       <use transform="scale(0.996264)" xlink:href="#CMR17-49"/>
       <use transform="translate(45.690477 0)scale(0.996264)" xlink:href="#CMR17-48"/>
       <use transform="translate(91.380954 0)scale(0.996264)" xlink:href="#CMR17-48"/>
      </g>
     </g>
    </g>
    <g id="ytick_4">
     <g id="line2d_7">
      <g>
       <use style="stroke:#000000;stroke-width:0.8;" x="65.32538" xlink:href="#me497ca4fa4" y="92.365275"/>
      </g>
     </g>
     <g id="text_8">
      <!-- $150$ -->
      <g transform="translate(33.56 99.03425)scale(0.18 -0.18)">
       <use transform="scale(0.996264)" xlink:href="#CMR17-49"/>
       <use transform="translate(45.690477 0)scale(0.996264)" xlink:href="#CMR17-53"/>
       <use transform="translate(91.380954 0)scale(0.996264)" xlink:href="#CMR17-48"/>
      </g>
     </g>
    </g>
    <g id="ytick_5">
     <g id="line2d_8">
      <g>
       <use style="stroke:#000000;stroke-width:0.8;" x="65.32538" xlink:href="#me497ca4fa4" y="46.1937"/>
      </g>
     </g>
     <g id="text_9">
      <!-- $200$ -->
      <g transform="translate(33.56 52.862675)scale(0.18 -0.18)">
       <use transform="scale(0.996264)" xlink:href="#CMR17-50"/>
       <use transform="translate(45.690477 0)scale(0.996264)" xlink:href="#CMR17-48"/>
       <use transform="translate(91.380954 0)scale(0.996264)" xlink:href="#CMR17-48"/>
      </g>
     </g>
    </g>
    <g id="text_10">
     <!-- X Load -->
     <defs>
      <path d="M 38.90625 39.890625 
L 52.203125 57.9375 
C 57.796875 65.40625 60.59375 67.3125 65.90625 67.3125 
L 67.5 67.3125 
L 67.5 72 
L 40 72 
L 40 67.3125 
L 41.40625 67.3125 
C 46.203125 67.3125 48.296875 66.109375 48.296875 63.40625 
C 48.296875 62.3125 48 61.609375 46.90625 60.03125 
L 36.09375 44.375 
L 22.796875 63.515625 
C 22.09375 64.515625 21.703125 65.515625 21.703125 66.015625 
C 21.703125 67 22.703125 67.3125 26.5 67.3125 
L 30.296875 67.3125 
L 30.296875 72 
L -0.59375 72 
L -0.59375 67.3125 
L 1.09375 67.3125 
C 6 67.3125 7.203125 66.8125 9.5 63.515625 
L 29.203125 35.109375 
L 13 12.671875 
C 9.09375 7.09375 5 4.6875 -0.09375 4.6875 
L -0.5 4.6875 
L -0.5 0 
L 27.90625 0 
L 27.90625 4.6875 
L 25.40625 4.6875 
C 21.40625 4.6875 18.90625 6.484375 18.90625 9.484375 
C 18.90625 10.78125 19.5 12.359375 20.5 13.859375 
L 32.09375 30.609375 
L 47 9.40625 
C 47.796875 8.203125 48.296875 7.09375 48.296875 6.296875 
C 48.296875 4.6875 47.90625 4.6875 41.59375 4.6875 
L 38.796875 4.6875 
L 38.796875 0 
L 71.59375 0 
L 71.59375 4.6875 
L 70.40625 4.6875 
C 64 4.6875 63.296875 4.984375 59.90625 9.875 
z
" id="Century_Schoolbook_L_Roman-88"/>
      <path d="M 64.59375 27.328125 
L 60.203125 27.328125 
C 59.203125 20.546875 56.796875 13.765625 54.203125 10.484375 
C 51.09375 6.59375 45.296875 4.6875 36.90625 4.6875 
L 32.703125 4.6875 
C 29.703125 4.6875 27.203125 5.296875 26.296875 6.1875 
C 25.59375 6.78125 25.5 7.390625 25.5 9.484375 
L 25.5 59.734375 
L 25.5 62.609375 
C 25.5 66.8125 26.40625 67.3125 34.5 67.3125 
L 36.296875 67.3125 
L 36.296875 72 
L 3.5 72 
L 3.5 67.3125 
L 5.296875 67.3125 
C 13.40625 67.3125 14.296875 66.8125 14.296875 62.609375 
L 14.296875 59.734375 
L 14.296875 12.28125 
L 14.296875 9.375 
C 14.296875 5.1875 13.40625 4.6875 5.296875 4.6875 
L 3.5 4.6875 
L 3.5 0 
L 62.5 0 
z
" id="Century_Schoolbook_L_Roman-76"/>
      <path d="M 25.203125 48.28125 
C 13 48.28125 3.40625 37.453125 3.40625 23.546875 
C 3.40625 9.9375 13 -1 25 -1 
C 37 -1 46.59375 9.9375 46.59375 23.640625 
C 46.59375 37.25 37 48.28125 25.203125 48.28125 
z
M 25.203125 44 
C 32.203125 44 36.09375 36.75 36.09375 23.640625 
C 36.09375 10.453125 32.203125 3.296875 25 3.296875 
C 17.796875 3.296875 13.90625 10.453125 13.90625 23.546875 
C 13.90625 37.046875 17.703125 44 25.203125 44 
z
" id="Century_Schoolbook_L_Roman-111"/>
      <path d="M 45.203125 32.578125 
C 45.203125 38.796875 44.09375 41.96875 41.203125 44.34375 
C 37.90625 46.90625 33 48.28125 26.59375 48.28125 
C 15.40625 48.28125 7.09375 43.046875 7.09375 35.921875 
C 7.09375 32.15625 9.40625 29.78125 12.90625 29.78125 
C 16 29.78125 18.296875 31.859375 18.296875 34.8125 
C 18.296875 36.109375 17.796875 37.484375 16.796875 38.875 
C 16.203125 39.546875 16.09375 39.84375 16.09375 40.15625 
C 16.09375 42.21875 20.203125 44 25 44 
C 28.09375 44 31.59375 43.015625 33.203125 41.53125 
C 35.09375 39.953125 35.796875 37.578125 35.796875 33.125 
L 35.796875 29.28125 
C 25.296875 27.484375 22.09375 26.6875 17.203125 24.8125 
C 8.59375 21.609375 4.40625 16.9375 4.40625 10.65625 
C 4.40625 3.578125 10.09375 -1 18.90625 -1 
C 25.796875 -1 32 1.859375 36.296875 7.0625 
C 37.90625 1.984375 40.40625 0 45.09375 0 
C 49.59375 0 54.296875 2.890625 54.296875 5.78125 
C 54.296875 6.46875 53.796875 6.96875 53.296875 6.96875 
C 52.90625 6.96875 52.5 6.875 51.796875 6.578125 
C 50.203125 6 49.796875 5.890625 49 5.890625 
C 46.203125 5.890625 45.203125 7.78125 45.203125 12.71875 
z
M 35.796875 20.46875 
C 35.796875 14.46875 35.5 13.078125 33.796875 10.484375 
C 31.296875 6.78125 26.703125 4.296875 22.40625 4.296875 
C 17.90625 4.296875 14.5 7.59375 14.5 12.078125 
C 14.5 16.265625 16.59375 19.265625 21 21.359375 
C 24.09375 22.75 28 23.75 35.796875 25.046875 
z
" id="Century_Schoolbook_L_Roman-97"/>
      <path d="M 38 0 
L 55.40625 0 
L 55.40625 4.703125 
L 53.59375 4.703125 
C 48.203125 4.703125 47.40625 5.703125 47.40625 11.96875 
L 47.40625 73.78125 
L 27.796875 73.78125 
L 27.796875 69 
L 33.703125 69 
C 37.296875 69 38 68.28125 38 63.921875 
L 38 41 
C 34.296875 46.09375 30 48.390625 24.203125 48.390625 
C 12.90625 48.390625 4.296875 37.546875 4.296875 23.203125 
C 4.296875 9.0625 12.59375 -1 24.203125 -1 
C 30.5 -1 34.796875 1.671875 38 7.59375 
z
M 26.203125 43 
C 30.296875 43 34.203125 40.03125 36 35.4375 
C 37.203125 32.453125 37.90625 28.28125 37.90625 23.515625 
C 37.90625 11.96875 33.296875 4.390625 26.09375 4.390625 
C 19.09375 4.390625 14.796875 10.96875 14.796875 22.015625 
C 14.796875 27.890625 15.40625 32.359375 16.703125 35.734375 
C 18.40625 40.125 22.09375 43 26.203125 43 
z
" id="Century_Schoolbook_L_Roman-100"/>
     </defs>
     <g transform="translate(24.87013 152.2107)rotate(-90)scale(0.18 -0.18)">
      <use transform="translate(0 0.343476)scale(0.996264)" xlink:href="#Century_Schoolbook_L_Roman-88"/>
      <use transform="translate(97.831344 0.343476)scale(0.996264)" xlink:href="#Century_Schoolbook_L_Roman-76"/>
      <use transform="translate(164.281375 0.343476)scale(0.996264)" xlink:href="#Century_Schoolbook_L_Roman-111"/>
      <use transform="translate(214.094576 0.343476)scale(0.996264)" xlink:href="#Century_Schoolbook_L_Roman-97"/>
      <use transform="translate(269.486253 0.343476)scale(0.996264)" xlink:href="#Century_Schoolbook_L_Roman-100"/>
     </g>
    </g>
   </g>
   <g id="line2d_9">
    <path clip-path="url(#p8ff074b486)" d="M 65.32538 230.88 
L 88.017326 230.88 
L 88.132489 213.334802 
L 88.449188 213.334802 
L 88.564351 219.798822 
L 88.977019 219.798822 
L 89.092182 229.956569 
L 89.408881 229.956569 
L 89.524044 230.88 
L 89.888727 230.88 
L 90.003891 229.033137 
L 90.320589 229.033137 
L 90.435752 229.956569 
L 90.896405 229.956569 
L 91.011568 229.033137 
L 91.280283 229.033137 
L 91.395446 229.956569 
L 91.66416 229.956569 
L 91.779323 230.88 
L 92.623853 230.88 
L 92.739016 229.956569 
L 93.583546 229.956569 
L 93.698709 229.033137 
L 94.015408 229.033137 
L 94.130571 228.109706 
L 94.495255 228.109706 
L 94.610418 230.88 
L 95.406963 230.88 
L 95.522126 229.033137 
L 95.88681 229.033137 
L 96.001973 229.956569 
L 96.318672 229.956569 
L 96.433835 229.033137 
L 96.750534 229.033137 
L 96.865697 227.186274 
L 97.23038 227.186274 
L 97.345544 229.956569 
L 97.710227 229.956569 
L 97.82539 230.88 
L 98.142089 230.88 
L 98.257252 229.956569 
L 99.101782 229.956569 
L 99.216945 228.109706 
L 99.533644 228.109706 
L 99.648807 227.186274 
L 100.013491 227.186274 
L 100.128654 222.569117 
L 100.445353 222.569117 
L 100.560516 229.956569 
L 101.644969 229.956569 
L 101.760132 227.186274 
L 102.124816 227.186274 
L 102.239979 229.033137 
L 102.796601 229.033137 
L 102.911764 228.109706 
L 103.660325 228.109706 
L 103.775488 229.956569 
L 104.140171 229.956569 
L 104.255335 227.186274 
L 104.620018 227.186274 
L 104.735181 229.956569 
L 105.531726 229.956569 
L 105.64689 230.88 
L 106.443435 230.88 
L 106.558598 229.956569 
L 108.266852 229.956569 
L 108.382015 227.186274 
L 108.746699 227.186274 
L 108.861862 229.956569 
L 109.178561 229.956569 
L 109.293724 222.569117 
L 109.658407 222.569117 
L 109.77357 227.186274 
L 110.234223 227.186274 
L 110.349386 229.956569 
L 110.6181 229.956569 
L 110.733264 229.033137 
L 111.049962 229.033137 
L 111.165126 227.186274 
L 112.921364 227.186274 
L 113.036527 226.262843 
L 113.833073 226.262843 
L 113.948236 227.186274 
L 114.744781 227.186274 
L 114.859944 226.262843 
L 115.65649 226.262843 
L 115.771653 227.186274 
L 116.136336 227.186274 
L 116.251499 226.262843 
L 116.568198 226.262843 
L 116.683361 227.186274 
L 117.048045 227.186274 
L 117.163208 226.262843 
L 117.479907 226.262843 
L 117.59507 227.186274 
L 117.959753 227.186274 
L 118.074917 226.262843 
L 123.477989 226.262843 
L 123.593152 225.339411 
L 124.389698 225.339411 
L 124.504861 226.262843 
L 125.301406 226.262843 
L 125.41657 227.186274 
L 128.084517 227.186274 
L 128.19968 228.109706 
L 131.299489 228.109706 
L 131.414652 229.033137 
L 134.082599 229.033137 
L 134.197762 229.956569 
L 135.474154 229.956569 
L 135.589317 230.88 
L 141.424252 230.88 
L 141.539415 229.956569 
L 143.823485 229.956569 
L 143.938648 230.88 
L 144.207362 230.88 
L 144.322525 229.956569 
L 144.687209 229.956569 
L 144.802372 230.88 
L 146.558611 230.88 
L 146.673774 229.956569 
L 147.038457 229.956569 
L 147.15362 230.88 
L 147.902181 230.88 
L 148.017344 229.956569 
L 148.81389 229.956569 
L 148.929053 229.033137 
L 149.725598 229.033137 
L 149.840761 229.956569 
L 151.165138 229.956569 
L 151.280301 230.88 
L 152.556693 230.88 
L 152.671856 229.956569 
L 152.988555 229.956569 
L 153.103718 229.033137 
L 153.420417 229.033137 
L 153.53558 228.109706 
L 154.38011 228.109706 
L 154.495273 227.186274 
L 154.859957 227.186274 
L 154.97512 228.109706 
L 155.243834 228.109706 
L 155.358997 229.956569 
L 155.723681 229.956569 
L 155.838844 229.033137 
L 156.155543 229.033137 
L 156.270706 226.262843 
L 156.683374 226.262843 
L 156.798537 94.212138 
L 157.115236 94.212138 
L 157.230399 202.253624 
L 157.595082 202.253624 
L 157.710246 173.627247 
L 158.218883 173.627247 
L 158.334046 209.641076 
L 158.60276 209.641076 
L 158.717923 210.564507 
L 161.241917 210.564507 
L 161.35708 217.951959 
L 161.769748 217.951959 
L 161.884911 229.033137 
L 162.153625 229.033137 
L 162.268788 227.186274 
L 162.633472 227.186274 
L 162.748635 228.109706 
L 163.161303 228.109706 
L 163.276466 229.033137 
L 164.456889 229.033137 
L 164.572052 228.109706 
L 165.848444 228.109706 
L 165.963607 229.033137 
L 166.376275 229.033137 
L 166.491438 228.109706 
L 166.760152 228.109706 
L 166.875316 229.033137 
L 168.631554 229.033137 
L 168.746717 229.956569 
L 170.886833 229.956569 
L 171.001996 230.88 
L 175.973207 230.88 
L 176.08837 229.956569 
L 176.9329 229.956569 
L 177.048063 230.88 
L 177.508716 230.88 
L 177.623879 229.956569 
L 179.188179 229.956569 
L 179.303342 230.88 
L 182.019274 230.88 
L 182.134437 229.956569 
L 185.234246 229.956569 
L 185.34941 230.88 
L 186.577817 230.88 
L 186.69298 229.956569 
L 187.489525 229.956569 
L 187.604689 228.109706 
L 188.017357 228.109706 
L 188.13252 229.033137 
L 188.401234 229.033137 
L 188.516397 228.109706 
L 189.360927 228.109706 
L 189.47609 229.033137 
L 190.752482 229.033137 
L 190.867646 79.437234 
L 191.184344 79.437234 
L 191.299507 225.339411 
L 191.856129 225.339411 
L 191.971293 189.325583 
L 192.144037 189.325583 
L 192.259201 209.641076 
L 192.623884 209.641076 
L 192.739047 210.564507 
L 195.35901 210.564507 
L 195.474173 224.41598 
L 195.790872 224.41598 
L 195.906035 225.339411 
L 196.270718 225.339411 
L 196.385881 227.186274 
L 196.798549 227.186274 
L 196.913713 229.033137 
L 199.005844 229.033137 
L 199.121007 229.956569 
L 200.829261 229.956569 
L 200.944424 229.033137 
L 201.788954 229.033137 
L 201.904117 229.956569 
L 202.748647 229.956569 
L 202.86381 230.88 
L 203.180509 230.88 
L 203.295672 229.956569 
L 204.092218 229.956569 
L 204.207381 230.88 
L 206.875328 230.88 
L 206.990491 229.033137 
L 207.787037 229.033137 
L 207.9022 229.956569 
L 208.74673 229.956569 
L 208.861893 228.109706 
L 209.178592 228.109706 
L 209.293755 229.033137 
L 209.658438 229.033137 
L 209.773601 229.956569 
L 210.042316 229.956569 
L 210.157479 229.033137 
L 210.570147 229.033137 
L 210.68531 229.956569 
L 211.481855 229.956569 
L 211.597019 230.88 
L 212.873411 230.88 
L 212.988574 229.956569 
L 213.305272 229.956569 
L 213.420436 230.88 
L 214.360935 230.88 
L 214.476098 229.956569 
L 215.12869 229.956569 
L 215.243853 230.88 
L 218.823508 230.88 
L 218.938672 229.956569 
L 219.35134 229.956569 
L 219.466503 229.033137 
L 220.215063 229.033137 
L 220.330227 228.109706 
L 220.69491 228.109706 
L 220.810073 229.033137 
L 221.174757 229.033137 
L 221.28992 229.956569 
L 221.606619 229.956569 
L 221.721782 229.033137 
L 222.086465 229.033137 
L 222.201628 227.186274 
L 223.094143 227.186274 
L 223.209306 194.866172 
L 223.47802 194.866172 
L 223.593184 204.100487 
L 223.957867 204.100487 
L 224.07303 209.641076 
L 224.869575 209.641076 
L 224.984739 210.564507 
L 225.445391 210.564507 
L 225.560555 209.641076 
L 225.781284 209.641076 
L 225.896447 210.564507 
L 227.124854 210.564507 
L 227.240018 225.339411 
L 227.604701 225.339411 
L 227.719864 223.492548 
L 228.084548 223.492548 
L 228.199711 226.262843 
L 228.51641 226.262843 
L 228.631573 228.109706 
L 228.996256 228.109706 
L 229.111419 229.033137 
L 230.387811 229.033137 
L 230.502975 229.956569 
L 231.731382 229.956569 
L 231.846545 229.033137 
L 232.64309 229.033137 
L 232.758254 228.109706 
L 233.554799 228.109706 
L 233.669962 227.186274 
L 234.034645 227.186274 
L 234.149809 228.109706 
L 234.514492 228.109706 
L 234.629655 227.186274 
L 234.946354 227.186274 
L 235.061517 229.033137 
L 235.906047 229.033137 
L 236.02121 227.186274 
L 236.337909 227.186274 
L 236.453072 229.033137 
L 236.86574 229.033137 
L 236.980904 227.186274 
L 237.297602 227.186274 
L 237.412766 229.033137 
L 238.161326 229.033137 
L 238.276489 228.109706 
L 238.641173 228.109706 
L 238.756336 227.186274 
L 239.121019 227.186274 
L 239.236183 226.262843 
L 241.856145 226.262843 
L 241.971308 227.186274 
L 242.815838 227.186274 
L 242.931001 228.109706 
L 245.071117 228.109706 
L 245.18628 229.033137 
L 247.422366 229.033137 
L 247.537529 229.956569 
L 247.854228 229.956569 
L 247.969391 228.109706 
L 248.334074 228.109706 
L 248.449237 229.033137 
L 249.677645 229.033137 
L 249.792808 229.956569 
L 250.205476 229.956569 
L 250.320639 230.88 
L 251.501062 230.88 
L 251.616225 229.956569 
L 251.980908 229.956569 
L 252.096071 230.88 
L 252.940601 230.88 
L 253.055765 228.109706 
L 253.420448 228.109706 
L 253.535611 136.689987 
L 253.900295 136.689987 
L 254.015458 134.843124 
L 254.332157 134.843124 
L 254.44732 145.000871 
L 254.812003 145.000871 
L 254.927166 209.641076 
L 256.63542 209.641076 
L 256.750583 210.564507 
L 257.978991 210.564507 
L 258.094154 216.105096 
L 258.458837 216.105096 
L 258.574001 223.492548 
L 259.034653 223.492548 
L 259.149816 224.41598 
L 259.370546 224.41598 
L 259.485709 227.186274 
L 259.850392 227.186274 
L 259.965556 228.109706 
L 260.282254 228.109706 
L 260.397418 229.033137 
L 262.153656 229.033137 
L 262.268819 229.956569 
L 263.065365 229.956569 
L 263.180528 228.109706 
L 263.497227 228.109706 
L 263.61239 227.186274 
L 264.408935 227.186274 
L 264.524098 226.262843 
L 265.848475 226.262843 
L 265.963638 227.186274 
L 267.24003 227.186274 
L 267.355193 226.262843 
L 267.671892 226.262843 
L 267.787055 227.186274 
L 268.583601 227.186274 
L 268.698764 228.109706 
L 269.063447 228.109706 
L 269.17861 227.186274 
L 269.495309 227.186274 
L 269.610472 225.339411 
L 270.886864 225.339411 
L 271.002027 226.262843 
L 271.366711 226.262843 
L 271.481874 225.339411 
L 271.798573 225.339411 
L 271.913736 226.262843 
L 273.669975 226.262843 
L 273.785138 227.186274 
L 274.629668 227.186274 
L 274.744831 228.109706 
L 276.884947 228.109706 
L 277.00011 229.033137 
L 277.796655 229.033137 
L 277.911818 228.109706 
L 278.372471 228.109706 
L 278.487634 229.033137 
L 278.756348 229.033137 
L 278.871512 228.109706 
L 279.18821 228.109706 
L 279.303374 229.033137 
L 279.620072 229.033137 
L 279.735236 229.956569 
L 280.099919 229.956569 
L 280.215082 229.033137 
L 280.531781 229.033137 
L 280.646944 229.956569 
L 281.107597 229.956569 
L 281.22276 230.88 
L 282.403183 230.88 
L 282.518346 229.956569 
L 282.883029 229.956569 
L 282.998192 230.88 
L 283.842722 230.88 
L 283.957886 229.033137 
L 284.2266 229.033137 
L 284.341763 205.94735 
L 284.706446 205.94735 
L 284.821609 34.189091 
L 285.186293 34.189091 
L 285.301456 119.144789 
L 285.666139 119.144789 
L 285.781303 219.798822 
L 286.098001 219.798822 
L 286.213165 209.641076 
L 287.00971 209.641076 
L 287.124873 210.564507 
L 289.312974 210.564507 
L 289.428137 228.109706 
L 289.79282 228.109706 
L 289.907983 224.41598 
L 290.224682 224.41598 
L 290.339845 226.262843 
L 290.704529 226.262843 
L 290.819692 228.109706 
L 291.136391 228.109706 
L 291.251554 229.033137 
L 293.487639 229.033137 
L 293.602802 229.956569 
L 293.919501 229.956569 
L 294.034664 229.033137 
L 294.399348 229.033137 
L 294.514511 228.109706 
L 294.831209 228.109706 
L 294.946373 227.186274 
L 295.311056 227.186274 
L 295.426219 226.262843 
L 296.702611 226.262843 
L 296.817774 227.186274 
L 297.662304 227.186274 
L 297.777468 226.262843 
L 298.046182 226.262843 
L 298.161345 227.186274 
L 300.39743 227.186274 
L 300.512593 226.262843 
L 300.877277 226.262843 
L 300.99244 225.339411 
L 302.220847 225.339411 
L 302.33601 226.262843 
L 302.652709 226.262843 
L 302.767872 225.339411 
L 303.132556 225.339411 
L 303.247719 226.262843 
L 304.044264 226.262843 
L 304.159427 227.186274 
L 305.915666 227.186274 
L 306.030829 228.109706 
L 307.739083 228.109706 
L 307.854246 229.033137 
L 308.698776 229.033137 
L 308.813939 228.109706 
L 309.082653 228.109706 
L 309.197817 229.033137 
L 310.042347 229.033137 
L 310.15751 228.109706 
L 310.522193 228.109706 
L 310.637356 229.956569 
L 310.954055 229.956569 
L 311.069218 229.033137 
L 311.433902 229.033137 
L 311.549065 229.956569 
L 312.34561 229.956569 
L 312.460774 230.88 
L 313.305304 230.88 
L 313.420467 229.956569 
L 313.689181 229.956569 
L 313.804344 230.88 
L 314.696859 230.88 
L 314.812022 229.956569 
L 315.128721 229.956569 
L 315.243884 228.109706 
L 315.608567 228.109706 
L 315.72373 73.896645 
L 316.088414 73.896645 
L 316.203577 224.41598 
L 316.520276 224.41598 
L 316.635439 189.325583 
L 317.000122 189.325583 
L 317.115286 208.717644 
L 317.479969 208.717644 
L 317.595132 209.641076 
L 318.391677 209.641076 
L 318.506841 210.564507 
L 320.215095 210.564507 
L 320.330258 74.820077 
L 320.646956 74.820077 
L 320.76212 144.077439 
L 321.126803 144.077439 
L 321.241966 116.374494 
L 321.558665 116.374494 
L 321.673828 212.41137 
L 322.038512 212.41137 
L 322.153675 208.717644 
L 322.470374 208.717644 
L 322.585537 209.641076 
L 322.95022 209.641076 
L 323.065383 210.564507 
L 324.821622 210.564507 
L 324.936785 209.641076 
L 325.73333 209.641076 
L 325.848494 210.564507 
L 328.036594 210.564507 
L 328.151757 88.671549 
L 328.468456 88.671549 
L 328.583619 207.794213 
L 328.996287 207.794213 
L 329.11145 88.671549 
L 329.428149 88.671549 
L 329.543312 222.569117 
L 329.860011 222.569117 
L 329.975174 227.186274 
L 330.339858 227.186274 
L 330.455021 228.109706 
L 331.251566 228.109706 
L 331.366729 229.956569 
L 331.683428 229.956569 
L 331.798591 230.88 
L 332.163275 230.88 
L 332.278438 229.956569 
L 333.55483 229.956569 
L 333.669993 229.033137 
L 336.289956 229.033137 
L 336.405119 228.109706 
L 342.767885 228.109706 
L 342.883048 229.033137 
L 343.679593 229.033137 
L 343.794756 228.109706 
L 344.111455 228.109706 
L 344.226618 229.033137 
L 345.550995 229.033137 
L 345.666158 228.109706 
L 347.374412 228.109706 
L 347.489575 227.186274 
L 347.806274 227.186274 
L 347.921437 226.262843 
L 348.286121 226.262843 
L 348.401284 227.186274 
L 352.412801 227.186274 
L 352.527964 228.109706 
L 352.892648 228.109706 
L 353.007811 227.186274 
L 353.32451 227.186274 
L 353.439673 228.109706 
L 354.284203 228.109706 
L 354.399366 227.186274 
L 356.10762 227.186274 
L 356.222783 228.109706 
L 356.587467 228.109706 
L 356.70263 227.186274 
L 357.067313 227.186274 
L 357.182476 228.109706 
L 357.451191 228.109706 
L 357.566354 227.186274 
L 357.931037 227.186274 
L 358.0462 228.109706 
L 364.840828 228.109706 
L 364.955991 227.186274 
L 365.800521 227.186274 
L 365.915685 226.262843 
L 373.622021 226.262843 
L 373.737184 227.186274 
L 374.053883 227.186274 
L 374.169046 226.262843 
L 374.677683 226.262843 
L 374.792847 227.186274 
L 377.31684 227.186274 
L 377.432003 228.109706 
L 378.228548 228.109706 
L 378.343711 227.186274 
L 378.708395 227.186274 
L 378.823558 228.109706 
L 383.746784 228.109706 
L 383.861947 229.033137 
L 392.479992 229.033137 
L 392.595155 228.109706 
L 394.351394 228.109706 
L 394.466557 229.033137 
L 397.566366 229.033137 
L 397.681529 229.956569 
L 399.437768 229.956569 
L 399.552931 230.88 
L 402.172894 230.88 
L 402.288057 229.956569 
L 403.564449 229.956569 
L 403.679612 230.88 
L 404.476157 230.88 
L 404.59132 229.956569 
L 404.956004 229.956569 
L 405.071167 230.88 
L 405.867712 230.88 
L 405.982876 229.956569 
L 406.347559 229.956569 
L 406.462722 230.88 
L 406.779421 230.88 
L 406.894584 229.956569 
L 407.259267 229.956569 
L 407.374431 230.88 
L 408.602838 230.88 
L 408.718001 182.861562 
L 409.082685 182.861562 
L 409.197848 74.820077 
L 409.562531 74.820077 
L 409.677694 122.838515 
L 409.994393 122.838515 
L 410.109556 210.564507 
L 410.47424 210.564507 
L 410.589403 208.717644 
L 411.385948 208.717644 
L 411.501111 209.641076 
L 413.209365 209.641076 
L 413.324528 181.938131 
L 413.689212 181.938131 
L 413.804375 37.882817 
L 414.121074 37.882817 
L 414.236237 176.397542 
L 414.60092 176.397542 
L 414.716084 188.402151 
L 415.032782 188.402151 
L 415.147946 206.870781 
L 415.512629 206.870781 
L 415.627792 209.641076 
L 415.992476 209.641076 
L 416.107639 210.564507 
L 417.48 210.564507 
L 417.48 210.564507 
" style="fill:none;stroke:#e41a1c;stroke-linecap:square;stroke-width:2;"/>
   </g>
   <g id="patch_3">
    <path d="M 65.32538 230.88 
L 65.32538 14.52 
" style="fill:none;stroke:#000000;stroke-linecap:square;stroke-linejoin:miter;stroke-width:0.8;"/>
   </g>
   <g id="patch_4">
    <path d="M 417.48 230.88 
L 417.48 14.52 
" style="fill:none;"/>
   </g>
   <g id="patch_5">
    <path d="M 65.32538 230.88 
L 417.48 230.88 
" style="fill:none;stroke:#000000;stroke-linecap:square;stroke-linejoin:miter;stroke-width:0.8;"/>
   </g>
   <g id="patch_6">
    <path d="M 65.32538 14.52 
L 417.48 14.52 
" style="fill:none;"/>
   </g>
   <g id="legend_1">
    <g id="patch_7">
     <path d="M 70.12538 44.05585 
L 173.78887 44.05585 
Q 176.98887 44.05585 176.98887 40.85585 
L 176.98887 19.32 
Q 176.98887 16.12 173.78887 16.12 
L 70.12538 16.12 
Q 66.92538 16.12 66.92538 19.32 
L 66.92538 40.85585 
Q 66.92538 44.05585 70.12538 44.05585 
z
" style="fill:#ffffff;stroke:#000000;stroke-linejoin:miter;"/>
    </g>
    <g id="line2d_10">
     <path d="M 73.32538 28.77596 
L 105.32538 28.77596 
" style="fill:none;stroke:#e41a1c;stroke-linecap:square;stroke-width:2;"/>
    </g>
    <g id="line2d_11"/>
    <g id="text_11">
     <!-- X Load -->
     <g transform="translate(118.12538 34.37596)scale(0.16 -0.16)">
      <use transform="translate(0 0.343476)scale(0.996264)" xlink:href="#Century_Schoolbook_L_Roman-88"/>
      <use transform="translate(97.831344 0.343476)scale(0.996264)" xlink:href="#Century_Schoolbook_L_Roman-76"/>
      <use transform="translate(164.281375 0.343476)scale(0.996264)" xlink:href="#Century_Schoolbook_L_Roman-111"/>
      <use transform="translate(214.094576 0.343476)scale(0.996264)" xlink:href="#Century_Schoolbook_L_Roman-97"/>
      <use transform="translate(269.486253 0.343476)scale(0.996264)" xlink:href="#Century_Schoolbook_L_Roman-100"/>
     </g>
    </g>
   </g>
  </g>
 </g>
 <defs>
  <clipPath id="p8ff074b486">
   <rect height="216.36" width="352.15462" x="65.32538" y="14.52"/>
  </clipPath>
 </defs>
</svg>
