<?xml version="1.0" encoding="utf-8" standalone="no"?>
<!DOCTYPE svg PUBLIC "-//W3C//DTD SVG 1.1//EN"
  "http://www.w3.org/Graphics/SVG/1.1/DTD/svg11.dtd">
<!-- Created with matplotlib (https://matplotlib.org/) -->
<svg height="288pt" version="1.1" viewBox="0 0 432 288" width="432pt" xmlns="http://www.w3.org/2000/svg" xmlns:xlink="http://www.w3.org/1999/xlink">
 <defs>
  <style type="text/css">
*{stroke-linecap:butt;stroke-linejoin:round;}
  </style>
 </defs>
 <g id="figure_1">
  <g id="patch_1">
   <path d="M 0 288 
L 432 288 
L 432 0 
L 0 0 
z
" style="fill:#ffffff;"/>
  </g>
  <g id="axes_1">
   <g id="patch_2">
    <path d="M 65.7932 230.88 
L 417.48 230.88 
L 417.48 15.38288 
L 65.7932 15.38288 
z
" style="fill:#ffffff;"/>
   </g>
   <g id="matplotlib.axis_1">
    <g id="xtick_1">
     <g id="line2d_1">
      <defs>
       <path d="M 0 0 
L 0 3.5 
" id="m5764d8ab96" style="stroke:#000000;stroke-width:0.8;"/>
      </defs>
      <g>
       <use style="stroke:#000000;stroke-width:0.8;" x="129.013247" xlink:href="#m5764d8ab96" y="230.88"/>
      </g>
     </g>
     <g id="text_1">
      <!-- $10$ -->
      <defs>
       <path d="M 26.59375 63.40625 
C 26.59375 65.5 26.5 65.5 25.09375 65.5 
C 21.203125 61.1875 15.296875 59.796875 9.703125 59.796875 
C 9.40625 59.796875 8.90625 59.796875 8.796875 59.5 
C 8.703125 59.296875 8.703125 59.09375 8.703125 57 
C 11.796875 57 17 57.59375 21 59.984375 
L 21 7.203125 
C 21 3.6875 20.796875 2.5 12.203125 2.5 
L 9.203125 2.5 
L 9.203125 0 
C 14 0 19 0 23.796875 0 
C 28.59375 0 33.59375 0 38.40625 0 
L 38.40625 2.5 
L 35.40625 2.5 
C 26.796875 2.5 26.59375 3.59375 26.59375 7.15625 
z
" id="CMR17-49"/>
       <path d="M 42 31.640625 
C 42 37.75 41.90625 48.125 37.703125 56.109375 
C 34 63.109375 28.09375 65.59375 22.90625 65.59375 
C 18.09375 65.59375 12 63.40625 8.203125 56.203125 
C 4.203125 48.71875 3.796875 39.4375 3.796875 31.640625 
C 3.796875 25.953125 3.90625 17.28125 7 9.671875 
C 11.296875 -0.609375 19 -2 22.90625 -2 
C 27.5 -2 34.5 -0.109375 38.59375 9.375 
C 41.59375 16.28125 42 24.359375 42 31.640625 
z
M 22.90625 -0.40625 
C 16.5 -0.40625 12.703125 5.078125 11.296875 12.6875 
C 10.203125 18.5625 10.203125 27.15625 10.203125 32.75 
C 10.203125 40.4375 10.203125 46.828125 11.5 52.921875 
C 13.40625 61.390625 19 64 22.90625 64 
C 27 64 32.296875 61.296875 34.203125 53.125 
C 35.5 47.4375 35.59375 40.734375 35.59375 32.75 
C 35.59375 26.25 35.59375 18.265625 34.40625 12.375 
C 32.296875 1.484375 26.40625 -0.40625 22.90625 -0.40625 
z
" id="CMR17-48"/>
      </defs>
      <g transform="translate(120.758122 251.21795)scale(0.18 -0.18)">
       <use transform="scale(0.996264)" xlink:href="#CMR17-49"/>
       <use transform="translate(45.690477 0)scale(0.996264)" xlink:href="#CMR17-48"/>
      </g>
     </g>
    </g>
    <g id="xtick_2">
     <g id="line2d_2">
      <g>
       <use style="stroke:#000000;stroke-width:0.8;" x="192.233294" xlink:href="#m5764d8ab96" y="230.88"/>
      </g>
     </g>
     <g id="text_2">
      <!-- $20$ -->
      <defs>
       <path d="M 41.703125 15.453125 
L 39.90625 15.453125 
C 38.90625 8.375 38.09375 7.171875 37.703125 6.5625 
C 37.203125 5.765625 30 5.765625 28.59375 5.765625 
L 9.40625 5.765625 
C 13 9.671875 20 16.75 28.5 24.953125 
C 34.59375 30.734375 41.703125 37.53125 41.703125 47.421875 
C 41.703125 59.21875 32.296875 66 21.796875 66 
C 10.796875 66 4.09375 56.3125 4.09375 47.34375 
C 4.09375 43.4375 7 42.9375 8.203125 42.9375 
C 9.203125 42.9375 12.203125 43.546875 12.203125 47.03125 
C 12.203125 50.109375 9.59375 51 8.203125 51 
C 7.59375 51 7 50.90625 6.59375 50.703125 
C 8.5 59.21875 14.296875 63.40625 20.40625 63.40625 
C 29.09375 63.40625 34.796875 56.515625 34.796875 47.421875 
C 34.796875 38.734375 29.703125 31.25 24 24.75 
L 4.09375 2.28125 
L 4.09375 0 
L 39.296875 0 
z
" id="CMR17-50"/>
      </defs>
      <g transform="translate(183.978169 251.21795)scale(0.18 -0.18)">
       <use transform="scale(0.996264)" xlink:href="#CMR17-50"/>
       <use transform="translate(45.690477 0)scale(0.996264)" xlink:href="#CMR17-48"/>
      </g>
     </g>
    </g>
    <g id="xtick_3">
     <g id="line2d_3">
      <g>
       <use style="stroke:#000000;stroke-width:0.8;" x="255.453341" xlink:href="#m5764d8ab96" y="230.88"/>
      </g>
     </g>
     <g id="text_3">
      <!-- $30$ -->
      <defs>
       <path d="M 22.09375 33.703125 
C 31 33.703125 34.90625 25.96875 34.90625 17.03125 
C 34.90625 5 28.5 0.390625 22.703125 0.390625 
C 17.40625 0.390625 8.796875 3.03125 6.09375 10.828125 
C 6.59375 10.625 7.09375 10.625 7.59375 10.625 
C 10 10.625 11.796875 12.21875 11.796875 14.8125 
C 11.796875 17.703125 9.59375 19 7.59375 19 
C 5.90625 19 3.296875 18.203125 3.296875 14.46875 
C 3.296875 5.234375 12.296875 -2 22.90625 -2 
C 34 -2 42.5 6.71875 42.5 16.953125 
C 42.5 26.671875 34.5 33.703125 25 34.796875 
C 32.59375 36.375 39.90625 43.0625 39.90625 52.015625 
C 39.90625 59.6875 32 65.296875 23 65.296875 
C 13.90625 65.296875 5.90625 59.828125 5.90625 52.015625 
C 5.90625 48.59375 8.5 48 9.796875 48 
C 11.90625 48 13.703125 49.296875 13.703125 51.890625 
C 13.703125 54.46875 11.90625 55.765625 9.796875 55.765625 
C 9.40625 55.765625 8.90625 55.765625 8.5 55.578125 
C 11.40625 61.859375 19.296875 63 22.796875 63 
C 26.296875 63 32.90625 61.328125 32.90625 51.875 
C 32.90625 49.109375 32.5 44.1875 29.09375 39.84375 
C 26.09375 36 22.703125 36 19.40625 35.6875 
C 18.90625 35.6875 16.59375 35.453125 16.203125 35.453125 
C 15.5 35.359375 15.09375 35.265625 15.09375 34.5 
C 15.09375 33.796875 15.203125 33.703125 17.203125 33.703125 
z
" id="CMR17-51"/>
      </defs>
      <g transform="translate(247.198216 251.21795)scale(0.18 -0.18)">
       <use transform="scale(0.996264)" xlink:href="#CMR17-51"/>
       <use transform="translate(45.690477 0)scale(0.996264)" xlink:href="#CMR17-48"/>
      </g>
     </g>
    </g>
    <g id="xtick_4">
     <g id="line2d_4">
      <g>
       <use style="stroke:#000000;stroke-width:0.8;" x="318.673388" xlink:href="#m5764d8ab96" y="230.88"/>
      </g>
     </g>
     <g id="text_4">
      <!-- $40$ -->
      <defs>
       <path d="M 33.59375 64.40625 
C 33.59375 66.5 33.5 66.5 31.703125 66.5 
L 2 19.59375 
L 2 17 
L 27.796875 17 
L 27.796875 7.140625 
C 27.796875 3.5 27.59375 2.5 20.59375 2.5 
L 18.703125 2.5 
L 18.703125 0 
C 21.90625 0 27.296875 0 30.703125 0 
C 34.09375 0 39.5 0 42.703125 0 
L 42.703125 2.5 
L 40.796875 2.5 
C 33.796875 2.5 33.59375 3.5 33.59375 7.140625 
L 33.59375 17 
L 43.796875 17 
L 43.796875 19.59375 
L 33.59375 19.59375 
z
M 28.09375 57.859375 
L 28.09375 19.59375 
L 4 19.59375 
z
" id="CMR17-52"/>
      </defs>
      <g transform="translate(310.418263 251.21795)scale(0.18 -0.18)">
       <use transform="scale(0.996264)" xlink:href="#CMR17-52"/>
       <use transform="translate(45.690477 0)scale(0.996264)" xlink:href="#CMR17-48"/>
      </g>
     </g>
    </g>
    <g id="xtick_5">
     <g id="line2d_5">
      <g>
       <use style="stroke:#000000;stroke-width:0.8;" x="381.893435" xlink:href="#m5764d8ab96" y="230.88"/>
      </g>
     </g>
     <g id="text_5">
      <!-- $50$ -->
      <defs>
       <path d="M 11.40625 57.6875 
C 12.40625 57.28125 16.5 56 20.703125 56 
C 30 56 35.09375 61.109375 38 64.0625 
C 38 64.953125 38 65.5 37.40625 65.5 
C 37.296875 65.5 37.09375 65.5 36.296875 65.046875 
C 32.796875 63.40625 28.703125 62.078125 23.703125 62.078125 
C 20.703125 62.078125 16.203125 62.484375 11.296875 64.671875 
C 10.203125 65.171875 10 65.171875 9.90625 65.171875 
C 9.40625 65.171875 9.296875 65.0625 9.296875 63.078125 
L 9.296875 34.421875 
C 9.296875 32.640625 9.296875 32.140625 10.296875 32.140625 
C 10.796875 32.140625 11 32.34375 11.5 33.03125 
C 14.703125 37.515625 19.09375 39.40625 24.09375 39.40625 
C 27.59375 39.40625 35.09375 37.21875 35.09375 20.140625 
C 35.09375 16.953125 35.09375 11.171875 32.09375 6.578125 
C 29.59375 2.484375 25.703125 0.390625 21.40625 0.390625 
C 14.796875 0.390625 8.09375 5 6.296875 12.71875 
C 6.703125 12.609375 7.5 12.421875 7.90625 12.421875 
C 9.203125 12.421875 11.703125 13.125 11.703125 16.21875 
C 11.703125 18.90625 9.796875 20 7.90625 20 
C 5.59375 20 4.09375 18.59375 4.09375 15.796875 
C 4.09375 7.09375 11 -2 21.59375 -2 
C 31.90625 -2 41.703125 6.875 41.703125 19.75 
C 41.703125 31.71875 33.90625 41 24.203125 41 
C 19.09375 41 14.796875 39.109375 11.40625 35.53125 
z
" id="CMR17-53"/>
      </defs>
      <g transform="translate(373.63831 251.21795)scale(0.18 -0.18)">
       <use transform="scale(0.996264)" xlink:href="#CMR17-53"/>
       <use transform="translate(45.690477 0)scale(0.996264)" xlink:href="#CMR17-48"/>
      </g>
     </g>
    </g>
    <g id="text_6">
     <!-- Time (s) -->
     <defs>
      <path d="M 63.296875 72 
L 3.40625 72 
L 1.90625 44.265625 
L 6.203125 44.265625 
C 6.90625 49.25 7.796875 53.046875 8.90625 56.234375 
C 11.5 63.515625 16.296875 67.3125 23.09375 67.3125 
C 26.40625 67.3125 27.796875 66.203125 27.796875 63.71875 
L 27.796875 12.28125 
L 27.796875 9.375 
C 27.796875 5.1875 26.90625 4.6875 18.796875 4.6875 
L 16.203125 4.6875 
L 16.203125 0 
L 50.5 0 
L 50.5 4.6875 
L 47.90625 4.6875 
C 39.90625 4.6875 39 5.1875 39 9.375 
L 39 12.28125 
L 39 63.71875 
C 39 66.203125 40.40625 67.3125 43.703125 67.3125 
C 49.796875 67.3125 54.703125 63.90625 57.203125 57.921875 
C 58.703125 54.25 59.703125 49.953125 60.5 44.265625 
L 64.796875 44.265625 
z
" id="Century_Schoolbook_L_Roman-84"/>
      <path d="M 20.59375 46 
L 1.796875 46 
L 1.796875 41.21875 
L 6.90625 41.21875 
C 10.59375 41.21875 11.203125 40.515625 11.203125 36.203125 
L 11.203125 12.296875 
L 11.203125 8.296875 
C 11.203125 4.296875 10.09375 3.59375 3.703125 3.59375 
L 3 3.59375 
L 3 0 
L 28.90625 0 
L 28.90625 3.59375 
L 28.203125 3.59375 
C 21.703125 3.59375 20.59375 4.28125 20.59375 8.21875 
L 20.59375 12.171875 
z
M 15.90625 71.578125 
C 12.703125 71.578125 10.09375 68.984375 10.09375 65.796875 
C 10.09375 62.703125 12.703125 60 15.796875 60 
C 19.09375 60 21.703125 62.59375 21.703125 65.796875 
C 21.703125 68.984375 19.09375 71.578125 15.90625 71.578125 
z
" id="Century_Schoolbook_L_Roman-105"/>
      <path d="M 20.09375 46 
L 2.296875 46 
L 2.296875 41.21875 
L 6.40625 41.21875 
C 10.09375 41.21875 10.703125 40.515625 10.703125 36.203125 
L 10.703125 12.296875 
L 10.703125 8.40625 
C 10.703125 4.296875 9.59375 3.59375 3.203125 3.59375 
L 2.796875 3.59375 
L 2.796875 0 
L 28 0 
L 28 3.59375 
L 27.59375 3.59375 
C 21.203125 3.59375 20.09375 4.296875 20.09375 8.390625 
L 20.09375 12.28125 
L 20.09375 26.453125 
C 20.09375 35.328125 25 41.921875 31.5 41.921875 
C 34.09375 41.921875 36.90625 40.515625 38.09375 38.625 
C 39.5 36.734375 40.09375 33.828125 40.09375 29.734375 
L 40.09375 12.28125 
L 40.09375 8.28125 
C 40.09375 4.296875 39 3.59375 32.5 3.59375 
L 32.09375 3.59375 
L 32.09375 0 
L 57.40625 0 
L 57.40625 3.59375 
L 57 3.59375 
C 50.59375 3.59375 49.5 4.296875 49.5 8.28125 
L 49.5 12.28125 
L 49.5 25.546875 
C 49.5 35.53125 54 41.921875 61 41.921875 
C 64.296875 41.921875 67 40.015625 68.296875 36.921875 
C 69.203125 34.734375 69.5 32.53125 69.5 28.640625 
L 69.5 12.28125 
L 69.5 8.28125 
C 69.5 4.296875 68.40625 3.59375 61.90625 3.59375 
L 61.5 3.59375 
L 61.5 0 
L 86.796875 0 
L 86.796875 3.59375 
L 86.40625 3.59375 
C 80 3.59375 78.90625 4.296875 78.90625 8.390625 
L 78.90625 12.28125 
L 78.90625 30.640625 
C 78.90625 36.828125 78.296875 38.921875 75.703125 42.3125 
C 72.796875 46.015625 68.703125 48 63.90625 48 
C 57.40625 48 52.59375 44.9375 48.296875 38.109375 
C 46.59375 44.046875 41.203125 48 34.5 48 
C 28.5 48 24 45.140625 20.09375 38.921875 
z
" id="Century_Schoolbook_L_Roman-109"/>
      <path d="M 46.5 23 
C 46.59375 37.8125 38.09375 48.28125 25.90625 48.28125 
C 13.09375 48.28125 3.5 37.25 3.5 22.34375 
C 3.5 8.4375 12.59375 -1 26.09375 -1 
C 35.59375 -1 42.40625 3.6875 46.5 13.1875 
L 43 15.09375 
C 38.90625 7.390625 34.703125 4.390625 28 4.390625 
C 22.90625 4.390625 19.203125 6.59375 16.59375 11 
C 14.796875 14 14 17.5 14.09375 23 
z
M 14.203125 27.296875 
C 14.203125 30.34375 14.59375 32.5 15.59375 35.25 
C 17.703125 41.140625 20.90625 44 25.703125 44 
C 31.796875 44 35.796875 38.78125 35.796875 30.921875 
C 35.796875 28.078125 34.90625 27.296875 31.703125 27.296875 
z
" id="Century_Schoolbook_L_Roman-101"/>
      <path d="M 27.90625 73.453125 
C 21.90625 69.765625 18.703125 67.171875 15.296875 63.171875 
C 7.703125 54.1875 3.59375 42.71875 3.59375 30.640625 
C 3.59375 19.265625 7.203125 8.578125 13.90625 -0.296875 
C 17.703125 -5.09375 21.09375 -8.078125 27.90625 -12.28125 
L 27.90625 -8.578125 
C 17.90625 0.203125 13.90625 11.484375 13.90625 30.640625 
C 13.90625 49.796875 17.90625 60.984375 27.90625 69.765625 
z
" id="Century_Schoolbook_L_Roman-40"/>
      <path d="M 39 48 
L 35.5 48 
L 32.59375 44.40625 
C 29 47.203125 25.40625 48.390625 20.40625 48.390625 
C 11.59375 48.390625 5.796875 42.625 5.796875 33.953125 
C 5.796875 30.078125 7.09375 26.78125 9.296875 24.8125 
C 11.59375 22.703125 13.90625 21.71875 19.90625 20.3125 
L 25.203125 19.125 
C 33.09375 17.234375 35.90625 15.234375 35.90625 11.265625 
C 35.90625 6.578125 31.796875 3.296875 25.90625 3.296875 
C 17.5 3.296875 11.5 8.765625 9.09375 18.875 
L 5.09375 18.875 
L 5.09375 0 
L 8.59375 0 
L 12.09375 3.90625 
C 16.203125 0.59375 20.796875 -1 25.796875 -1 
C 35.59375 -1 42.09375 5.078125 42.09375 14.34375 
C 42.09375 18.71875 40.703125 22.09375 37.90625 24.390625 
C 35.5 26.484375 33.5 27.28125 27.40625 28.5625 
L 22.40625 29.671875 
C 16.90625 30.859375 16.90625 30.859375 15.09375 31.859375 
C 12.90625 32.859375 11.59375 34.9375 11.59375 37.140625 
C 11.59375 41.109375 15.40625 44 20.90625 44 
C 24.703125 44 27.796875 42.703125 30.59375 40.015625 
C 32.796875 37.8125 33.90625 35.828125 35.5 31.234375 
L 39 31.234375 
z
" id="Century_Schoolbook_L_Roman-115"/>
      <path d="M 5.40625 -12.28125 
C 11.40625 -8.578125 14.59375 -5.984375 18 -1.890625 
C 25.59375 6.984375 29.703125 18.5625 29.703125 30.640625 
C 29.703125 42.015625 26.09375 52.703125 19.40625 61.484375 
C 15.59375 66.375 12.203125 69.359375 5.40625 73.453125 
L 5.40625 69.765625 
C 15.40625 60.984375 19.40625 49.796875 19.40625 30.640625 
C 19.40625 11.375 15.40625 0.203125 5.40625 -8.578125 
z
" id="Century_Schoolbook_L_Roman-41"/>
     </defs>
     <g transform="translate(207.635135 273.24577)scale(0.18 -0.18)">
      <use transform="translate(0 -0.29235)scale(0.996264)" xlink:href="#Century_Schoolbook_L_Roman-84"/>
      <use transform="translate(66.450031 -0.29235)scale(0.996264)" xlink:href="#Century_Schoolbook_L_Roman-105"/>
      <use transform="translate(97.831344 -0.29235)scale(0.996264)" xlink:href="#Century_Schoolbook_L_Roman-109"/>
      <use transform="translate(186.398251 -0.29235)scale(0.996264)" xlink:href="#Century_Schoolbook_L_Roman-101"/>
      <use transform="translate(263.906621 -0.29235)scale(0.996264)" xlink:href="#Century_Schoolbook_L_Roman-40"/>
      <use transform="translate(297.081851 -0.29235)scale(0.996264)" xlink:href="#Century_Schoolbook_L_Roman-115"/>
      <use transform="translate(343.207661 -0.29235)scale(0.996264)" xlink:href="#Century_Schoolbook_L_Roman-41"/>
     </g>
    </g>
   </g>
   <g id="matplotlib.axis_2">
    <g id="ytick_1">
     <g id="line2d_6">
      <defs>
       <path d="M 0 0 
L -3.5 0 
" id="m9835425868" style="stroke:#000000;stroke-width:0.8;"/>
      </defs>
      <g>
       <use style="stroke:#000000;stroke-width:0.8;" x="65.7932" xlink:href="#m9835425868" y="230.88"/>
      </g>
     </g>
     <g id="text_7">
      <!-- $0$ -->
      <g transform="translate(50.53807 237.548975)scale(0.18 -0.18)">
       <use transform="scale(0.996264)" xlink:href="#CMR17-48"/>
      </g>
     </g>
    </g>
    <g id="ytick_2">
     <g id="line2d_7">
      <g>
       <use style="stroke:#000000;stroke-width:0.8;" x="65.7932" xlink:href="#m9835425868" y="194.963813"/>
      </g>
     </g>
     <g id="text_8">
      <!-- $25$ -->
      <g transform="translate(42.28295 201.632788)scale(0.18 -0.18)">
       <use transform="scale(0.996264)" xlink:href="#CMR17-50"/>
       <use transform="translate(45.690477 0)scale(0.996264)" xlink:href="#CMR17-53"/>
      </g>
     </g>
    </g>
    <g id="ytick_3">
     <g id="line2d_8">
      <g>
       <use style="stroke:#000000;stroke-width:0.8;" x="65.7932" xlink:href="#m9835425868" y="159.047627"/>
      </g>
     </g>
     <g id="text_9">
      <!-- $50$ -->
      <g transform="translate(42.28295 165.716602)scale(0.18 -0.18)">
       <use transform="scale(0.996264)" xlink:href="#CMR17-53"/>
       <use transform="translate(45.690477 0)scale(0.996264)" xlink:href="#CMR17-48"/>
      </g>
     </g>
    </g>
    <g id="ytick_4">
     <g id="line2d_9">
      <g>
       <use style="stroke:#000000;stroke-width:0.8;" x="65.7932" xlink:href="#m9835425868" y="123.13144"/>
      </g>
     </g>
     <g id="text_10">
      <!-- $75$ -->
      <defs>
       <path d="M 45.09375 61.578125 
L 45.09375 63.765625 
L 21.59375 63.765625 
C 9.90625 63.765625 9.703125 65.078125 9.296875 67 
L 7.5 67 
L 4.59375 48.34375 
L 6.40625 48.34375 
C 6.703125 50.234375 7.40625 55.3125 8.59375 57.203125 
C 9.203125 58 16.59375 58 18.296875 58 
L 40.296875 58 
L 29.203125 41.578125 
C 21.796875 30.53125 16.703125 15.609375 16.703125 2.578125 
C 16.703125 1.390625 16.703125 -2 20.296875 -2 
C 23.90625 -2 23.90625 1.390625 23.90625 2.671875 
L 23.90625 7.265625 
C 23.90625 23.5625 26.703125 34.3125 31.296875 41.1875 
z
" id="CMR17-55"/>
      </defs>
      <g transform="translate(42.28295 129.800415)scale(0.18 -0.18)">
       <use transform="scale(0.996264)" xlink:href="#CMR17-55"/>
       <use transform="translate(45.690477 0)scale(0.996264)" xlink:href="#CMR17-53"/>
      </g>
     </g>
    </g>
    <g id="ytick_5">
     <g id="line2d_10">
      <g>
       <use style="stroke:#000000;stroke-width:0.8;" x="65.7932" xlink:href="#m9835425868" y="87.215253"/>
      </g>
     </g>
     <g id="text_11">
      <!-- $100$ -->
      <g transform="translate(34.02782 93.884228)scale(0.18 -0.18)">
       <use transform="scale(0.996264)" xlink:href="#CMR17-49"/>
       <use transform="translate(45.690477 0)scale(0.996264)" xlink:href="#CMR17-48"/>
       <use transform="translate(91.380954 0)scale(0.996264)" xlink:href="#CMR17-48"/>
      </g>
     </g>
    </g>
    <g id="ytick_6">
     <g id="line2d_11">
      <g>
       <use style="stroke:#000000;stroke-width:0.8;" x="65.7932" xlink:href="#m9835425868" y="51.299067"/>
      </g>
     </g>
     <g id="text_12">
      <!-- $125$ -->
      <g transform="translate(34.02782 57.968042)scale(0.18 -0.18)">
       <use transform="scale(0.996264)" xlink:href="#CMR17-49"/>
       <use transform="translate(45.690477 0)scale(0.996264)" xlink:href="#CMR17-50"/>
       <use transform="translate(91.380954 0)scale(0.996264)" xlink:href="#CMR17-53"/>
      </g>
     </g>
    </g>
    <g id="text_13">
     <!-- Spindle Current (Volts) -->
     <defs>
      <path d="M 54.59375 72 
L 50.90625 72 
L 46.90625 66.09375 
C 42.203125 70.59375 35.796875 73 28.703125 73 
C 15.59375 73 6.796875 64.609375 6.796875 52.15625 
C 6.796875 41.28125 12.203125 35.890625 26.90625 32.109375 
L 36.40625 29.703125 
C 43.796875 27.828125 44.5 27.625 46.59375 26.03125 
C 49.59375 23.734375 51.203125 20.4375 51.203125 16.546875 
C 51.203125 12.5625 49.703125 9.28125 46.703125 6.59375 
C 43.40625 3.6875 40.09375 2.59375 34.59375 2.59375 
C 27.203125 2.59375 21.90625 4.875 17.203125 10.03125 
C 13 14.703125 10.90625 19.375 9.40625 27 
L 5.09375 27 
L 5.5 -1.4375 
L 9.40625 -1.4375 
L 13.90625 5.46875 
C 20.59375 0 26.203125 -2 34.90625 -2 
C 49.59375 -2 59 6.59375 59 19.9375 
C 59 26.109375 56.90625 31.40625 53 35.203125 
C 50.296875 37.796875 46.40625 39.484375 38.40625 41.484375 
L 27.703125 44.171875 
C 18.796875 46.46875 14.59375 50.359375 14.59375 56.4375 
C 14.59375 63.40625 20.296875 68.203125 28.796875 68.203125 
C 35.796875 68.203125 41.5 65.1875 45.5 59.484375 
C 48.40625 55.375 50.203125 51.15625 51.5 46.046875 
L 55.796875 46.046875 
z
" id="Century_Schoolbook_L_Roman-83"/>
      <path d="M 20.09375 46 
L 2.796875 46 
L 2.796875 41.21875 
L 6.40625 41.21875 
C 10.09375 41.21875 10.703125 40.515625 10.703125 36.21875 
L 10.703125 -7.75 
L 10.703125 -11.71875 
C 10.703125 -15.71875 9.59375 -16.40625 3.203125 -16.40625 
L 2.796875 -16.40625 
L 2.796875 -20 
L 28.796875 -20 
L 28.796875 -16.40625 
L 27.703125 -16.40625 
C 21.203125 -16.40625 20.09375 -15.71875 20.09375 -11.734375 
L 20.09375 -7.75 
L 20.09375 6.6875 
C 23.40625 0.90625 27.203125 -1.390625 33.296875 -1.390625 
C 44.90625 -1.390625 53.5 9.265625 53.5 23.5 
C 53.5 37.265625 44.90625 48 33.90625 48 
C 27.703125 48 23.59375 45.4375 20.09375 39.515625 
z
M 32.09375 42.609375 
C 39 42.609375 43 35.75 43 24.09375 
C 43 11.265625 38.90625 4 31.796875 4 
C 24.703125 4 20 11.375 20 22.8125 
C 20 35.140625 24.5 42.609375 32.09375 42.609375 
z
" id="Century_Schoolbook_L_Roman-112"/>
      <path d="M 20 46 
L 2.703125 46 
L 2.703125 41.21875 
L 6.296875 41.21875 
C 10 41.21875 10.59375 40.515625 10.59375 36.203125 
L 10.59375 12.296875 
L 10.59375 8.296875 
C 10.59375 4.296875 9.5 3.59375 3.09375 3.59375 
L 2.703125 3.59375 
L 2.703125 0 
L 28 0 
L 28 3.59375 
L 27.59375 3.59375 
C 21.09375 3.59375 20 4.296875 20 8.28125 
L 20 12.28125 
L 20 22.65625 
C 20 27.546875 20.703125 32.03125 21.796875 34.328125 
C 23.90625 38.828125 28.40625 41.921875 32.703125 41.921875 
C 35.296875 41.921875 38.296875 40.421875 39.796875 38.421875 
C 41.296875 36.328125 42 33.234375 42 28.4375 
L 42 12.28125 
L 42 8.28125 
C 42 4.296875 40.90625 3.59375 34.40625 3.59375 
L 34 3.59375 
L 34 0 
L 59.296875 0 
L 59.296875 3.59375 
L 58.90625 3.59375 
C 52.5 3.59375 51.40625 4.296875 51.40625 8.28125 
L 51.40625 12.28125 
L 51.40625 27.953125 
C 51.40625 35.125 51.09375 36.921875 49.296875 40.328125 
C 46.796875 45.109375 41.703125 48 35.796875 48 
C 29.40625 48 24.40625 45.046875 20 38.515625 
z
" id="Century_Schoolbook_L_Roman-110"/>
      <path d="M 38 0 
L 55.40625 0 
L 55.40625 4.703125 
L 53.59375 4.703125 
C 48.203125 4.703125 47.40625 5.703125 47.40625 11.96875 
L 47.40625 73.78125 
L 27.796875 73.78125 
L 27.796875 69 
L 33.703125 69 
C 37.296875 69 38 68.28125 38 63.921875 
L 38 41 
C 34.296875 46.09375 30 48.390625 24.203125 48.390625 
C 12.90625 48.390625 4.296875 37.546875 4.296875 23.203125 
C 4.296875 9.0625 12.59375 -1 24.203125 -1 
C 30.5 -1 34.796875 1.671875 38 7.59375 
z
M 26.203125 43 
C 30.296875 43 34.203125 40.03125 36 35.4375 
C 37.203125 32.453125 37.90625 28.28125 37.90625 23.515625 
C 37.90625 11.96875 33.296875 4.390625 26.09375 4.390625 
C 19.09375 4.390625 14.796875 10.96875 14.796875 22.015625 
C 14.796875 27.890625 15.40625 32.359375 16.703125 35.734375 
C 18.40625 40.125 22.09375 43 26.203125 43 
z
" id="Century_Schoolbook_L_Roman-100"/>
      <path d="M 20.40625 73 
L 1.90625 73 
L 1.90625 68.21875 
L 6.796875 68.21875 
C 10.40625 68.21875 11 67.515625 11 63.21875 
L 11 12.28125 
L 11 8.28125 
C 11 4.296875 9.90625 3.59375 3.5 3.59375 
L 2.796875 3.59375 
L 2.796875 0 
L 28.703125 0 
L 28.703125 3.59375 
L 28 3.59375 
C 21.5 3.59375 20.40625 4.296875 20.40625 8.25 
L 20.40625 12.21875 
z
" id="Century_Schoolbook_L_Roman-108"/>
      <path d="M 63.90625 72 
L 60.09375 72 
L 56.09375 66.015625 
C 49 71.203125 45.09375 72.703125 38.40625 72.703125 
C 28.703125 72.703125 20.703125 68.8125 13.90625 60.78125 
C 7.5 53.234375 4.5 44.890625 4.5 34.65625 
C 4.5 13.296875 18.59375 -2 38.296875 -2 
C 54.296875 -2 64.5 7.34375 66.796875 24.015625 
L 62.09375 24.8125 
C 61.09375 19.546875 59.90625 15.984375 58.09375 13.015625 
C 54 6.171875 47.59375 2.6875 39.5 2.6875 
C 24.703125 2.6875 17.703125 12.90625 17.703125 34.265625 
C 17.703125 45.46875 19.203125 53.015625 22.59375 58.96875 
C 25.703125 64.53125 31.90625 68 38.296875 68 
C 45.296875 68 51.5 64.328125 55.296875 57.96875 
C 57.203125 54.6875 58.703125 50.8125 61 43.171875 
L 65.40625 43.171875 
z
" id="Century_Schoolbook_L_Roman-67"/>
      <path d="M 41.203125 0 
L 59.40625 0 
L 59.40625 4.703125 
L 56.90625 4.703125 
C 51.40625 4.703125 50.59375 5.59375 50.59375 11.953125 
L 50.59375 46.78125 
L 31.796875 46.78125 
L 31.796875 42 
L 36.90625 42 
C 40.59375 42 41.203125 41.296875 41.203125 36.953125 
L 41.203125 24.5625 
C 41.203125 18.8125 40.59375 15.484375 39.09375 12.15625 
C 37 7.71875 33 5.09375 28.09375 5.09375 
C 25 5.09375 22.40625 6.1875 21.09375 8.171875 
C 19.796875 10.046875 19.59375 11.046875 19.59375 16.5 
L 19.59375 46.78125 
L 2.09375 46.78125 
L 2.09375 42 
L 5.90625 42 
C 9.59375 42 10.203125 41.296875 10.203125 36.953125 
L 10.203125 15.21875 
C 10.203125 10.078125 10.59375 7.765625 12.09375 5.453125 
C 14.796875 1.3125 19.59375 -1 25.59375 -1 
C 32.203125 -1 36.796875 1.71875 41.203125 8.125 
z
" id="Century_Schoolbook_L_Roman-117"/>
      <path d="M 19.796875 46 
L 2.09375 46 
L 2.09375 41.21875 
L 6.203125 41.21875 
C 9.90625 41.21875 10.5 40.515625 10.5 36.203125 
L 10.5 12.296875 
L 10.5 8.296875 
C 10.5 4.296875 9.40625 3.59375 2.90625 3.59375 
L 2.5 3.59375 
L 2.5 0 
L 29.203125 0 
L 29.203125 3.59375 
L 27.296875 3.59375 
C 20.90625 3.59375 19.796875 4.296875 19.796875 8.296875 
L 19.796875 12.296875 
L 19.796875 13.296875 
C 19.796875 20.8125 21.203125 28.40625 23.703125 34.109375 
C 26.09375 39.703125 29.5 42.8125 33.703125 43.3125 
C 32.296875 41.703125 31.90625 40.6875 31.90625 38.765625 
C 31.90625 35.546875 34.203125 33.234375 37.40625 33.234375 
C 41 33.234375 43.5 35.9375 43.5 40.015625 
C 43.5 44.8125 40.09375 48 34.796875 48 
C 28.5 48 23 42.921875 19.796875 34.140625 
z
" id="Century_Schoolbook_L_Roman-114"/>
      <path d="M 19.40625 47 
L 19.40625 67 
L 15.296875 67 
C 14.296875 53.875 9.90625 47.1875 1.796875 46.59375 
L 1.796875 42.703125 
L 10 42.703125 
L 10 17.265625 
C 10 10.28125 10.203125 7.78125 11.203125 5.484375 
C 12.796875 1.296875 16.796875 -1 22.59375 -1 
C 26.5 -1 29.90625 0.203125 32.203125 2.390625 
C 35.5 5.59375 37.40625 10.875 37.40625 16.375 
C 37.40625 16.96875 37.40625 17.671875 37.296875 18.671875 
L 33.09375 18.671875 
C 32.796875 9.6875 30.203125 5.09375 25.296875 5.09375 
C 23 5.09375 21 6.28125 20.296875 7.984375 
C 19.703125 9.375 19.40625 11.875 19.40625 15.46875 
L 19.40625 42.703125 
L 34.09375 42.703125 
L 34.09375 47 
z
" id="Century_Schoolbook_L_Roman-116"/>
      <path d="M 39.296875 15.40625 
L 21 61.8125 
C 20.5 63.015625 20.203125 64.21875 20.203125 64.8125 
C 20.203125 66.609375 21.90625 67.3125 26.40625 67.3125 
L 30.40625 67.3125 
L 30.40625 72 
L -0.796875 72 
L -0.796875 67.3125 
L 1.203125 67.3125 
C 5.703125 67.3125 7 66.3125 8.90625 61.703125 
L 34.203125 -1.6875 
L 38.203125 -1.6875 
L 61.203125 57.515625 
C 64.203125 65.3125 66.40625 67.3125 72.09375 67.3125 
L 73.09375 67.3125 
L 73.09375 72 
L 46 72 
L 46 67.3125 
L 47.90625 67.3125 
C 53 67.3125 56 65.3125 56 62.109375 
C 56 60.71875 55.5 58.421875 54.796875 56.53125 
z
" id="Century_Schoolbook_L_Roman-86"/>
      <path d="M 25.203125 48.28125 
C 13 48.28125 3.40625 37.453125 3.40625 23.546875 
C 3.40625 9.9375 13 -1 25 -1 
C 37 -1 46.59375 9.9375 46.59375 23.640625 
C 46.59375 37.25 37 48.28125 25.203125 48.28125 
z
M 25.203125 44 
C 32.203125 44 36.09375 36.75 36.09375 23.640625 
C 36.09375 10.453125 32.203125 3.296875 25 3.296875 
C 17.796875 3.296875 13.90625 10.453125 13.90625 23.546875 
C 13.90625 37.046875 17.703125 44 25.203125 44 
z
" id="Century_Schoolbook_L_Roman-111"/>
     </defs>
     <g transform="translate(25.33795 220.11432)rotate(-90)scale(0.18 -0.18)">
      <use transform="translate(0 -1.570628)scale(0.996264)" xlink:href="#Century_Schoolbook_L_Roman-83"/>
      <use transform="translate(62.763979 -1.570628)scale(0.996264)" xlink:href="#Century_Schoolbook_L_Roman-112"/>
      <use transform="translate(119.949466 -1.570628)scale(0.996264)" xlink:href="#Century_Schoolbook_L_Roman-105"/>
      <use transform="translate(151.330779 -1.570628)scale(0.996264)" xlink:href="#Century_Schoolbook_L_Roman-110"/>
      <use transform="translate(212.20241 -1.570628)scale(0.996264)" xlink:href="#Century_Schoolbook_L_Roman-100"/>
      <use transform="translate(269.387897 -1.570628)scale(0.996264)" xlink:href="#Century_Schoolbook_L_Roman-108"/>
      <use transform="translate(300.76921 -1.570628)scale(0.996264)" xlink:href="#Century_Schoolbook_L_Roman-101"/>
      <use transform="translate(378.27758 -1.570628)scale(0.996264)" xlink:href="#Century_Schoolbook_L_Roman-67"/>
      <use transform="translate(450.207565 -1.570628)scale(0.996264)" xlink:href="#Century_Schoolbook_L_Roman-117"/>
      <use transform="translate(511.079196 -1.570628)scale(0.996264)" xlink:href="#Century_Schoolbook_L_Roman-114"/>
      <use transform="translate(555.312765 -1.570628)scale(0.996264)" xlink:href="#Century_Schoolbook_L_Roman-114"/>
      <use transform="translate(599.546333 -1.570628)scale(0.996264)" xlink:href="#Century_Schoolbook_L_Roman-101"/>
      <use transform="translate(649.359534 -1.570628)scale(0.996264)" xlink:href="#Century_Schoolbook_L_Roman-110"/>
      <use transform="translate(710.231164 -1.570628)scale(0.996264)" xlink:href="#Century_Schoolbook_L_Roman-116"/>
      <use transform="translate(776.68004 -1.570628)scale(0.996264)" xlink:href="#Century_Schoolbook_L_Roman-40"/>
      <use transform="translate(809.85527 -1.570628)scale(0.996264)" xlink:href="#Century_Schoolbook_L_Roman-86"/>
      <use transform="translate(874.31329 -1.570628)scale(0.996264)" xlink:href="#Century_Schoolbook_L_Roman-111"/>
      <use transform="translate(924.12649 -1.570628)scale(0.996264)" xlink:href="#Century_Schoolbook_L_Roman-108"/>
      <use transform="translate(955.507803 -1.570628)scale(0.996264)" xlink:href="#Century_Schoolbook_L_Roman-116"/>
      <use transform="translate(994.26151 -1.570628)scale(0.996264)" xlink:href="#Century_Schoolbook_L_Roman-115"/>
      <use transform="translate(1040.38732 -1.570628)scale(0.996264)" xlink:href="#Century_Schoolbook_L_Roman-41"/>
     </g>
    </g>
   </g>
   <g id="line2d_12">
    <path clip-path="url(#pa555634e73)" d="M 65.7932 230.88 
L 75.775645 230.88 
L 75.889442 87.215253 
L 78.614226 87.215253 
L 78.62687 93.384048 
L 78.7217 87.215253 
L 78.924004 87.215253 
L 79.0378 105.754744 
L 79.088376 100.491288 
L 79.208494 98.032908 
L 79.22746 98.032908 
L 79.25907 111.900695 
L 79.29068 94.959933 
L 79.347578 102.634492 
L 79.38551 111.900695 
L 79.429764 96.472782 
L 79.44873 87.215253 
L 79.518272 104.494036 
L 79.54356 105.754744 
L 79.568848 102.035655 
L 79.67 96.457023 
L 79.60678 104.178859 
L 79.70161 98.032908 
L 79.76483 111.900695 
L 79.802762 97.418313 
L 79.82805 94.959933 
L 79.840694 102.965428 
L 79.85966 114.97367 
L 79.935525 98.631744 
L 79.954491 90.311072 
L 80.030355 105.140149 
L 80.049321 108.827719 
L 80.131507 103.564264 
L 80.207371 98.032908 
L 80.226337 104.509795 
L 80.302201 111.900695 
L 80.327489 103.264846 
L 80.333811 101.105883 
L 80.365421 113.476579 
L 80.403353 113.445062 
L 80.428641 119.62253 
L 80.460251 101.105883 
L 80.542437 110.056909 
L 80.618301 116.549555 
L 80.649911 108.827719 
L 80.744741 107.251834 
L 80.713131 110.403604 
L 80.763707 108.197365 
L 80.795317 114.406351 
L 80.839571 111.900695 
L 80.934401 124.271391 
L 81.029231 99.529999 
L 81.060841 118.12544 
L 81.092451 118.12544 
L 81.136705 111.601276 
L 81.155671 104.178859 
L 81.187281 113.476579 
L 81.250502 110.403604 
L 81.282112 108.827719 
L 81.288434 111.601276 
L 81.313722 122.695506 
L 81.376942 110.403604 
L 81.408552 116.549555 
L 81.440162 121.198415 
L 81.478094 111.00244 
L 81.534992 101.105883 
L 81.572924 117.16415 
L 81.598212 119.62253 
L 81.629822 111.900695 
L 81.756262 105.754744 
L 81.693042 114.97367 
L 81.762584 107.598529 
L 81.819482 119.62253 
L 81.895346 114.075416 
L 81.933278 120.552302 
L 81.945922 124.271391 
L 82.009142 111.900695 
L 82.040752 105.754744 
L 82.072362 116.549555 
L 82.091328 116.549555 
L 82.09765 116.549555 
L 82.211446 87.215253 
L 91.074897 87.215253 
L 91.176049 149.012783 
L 91.195015 141.590365 
L 91.270879 136.642087 
L 91.296167 142.819555 
L 91.302489 144.363922 
L 91.346743 129.219669 
L 91.365709 122.695506 
L 91.428929 136.642087 
L 91.435251 136.027491 
L 91.492149 128.920251 
L 91.536403 136.32691 
L 91.555369 138.217971 
L 91.593301 132.324162 
L 91.618589 127.344366 
L 91.656521 138.154936 
L 91.681809 150.509873 
L 91.745029 133.569111 
L 91.757673 134.167947 
L 91.801927 141.24367 
L 91.808249 142.788037 
L 91.858825 129.219669 
L 91.903079 122.695506 
L 91.947333 134.483124 
L 91.966299 138.217971 
L 92.02952 128.920251 
L 92.21918 149.012783 
L 92.231824 144.064504 
L 92.37723 124.271391 
L 92.31401 147.436898 
L 92.389874 125.500581 
L 92.47206 138.217971 
L 92.528958 128.274138 
L 92.53528 127.344366 
L 92.579534 135.712315 
L 92.5985 141.290947 
L 92.63011 127.344366 
L 92.680686 135.428655 
L 92.69333 133.569111 
L 92.718618 143.465668 
L 92.72494 145.939807 
L 92.78816 127.344366 
L 92.85138 142.788037 
L 92.895634 130.180959 
L 92.9146 118.12544 
L 92.97782 139.715062 
L 92.990464 138.485872 
L 93.07265 125.847275 
L 93.097938 136.941505 
L 93.2307 152.085758 
L 93.13587 130.417341 
L 93.237022 149.611619 
L 93.29392 135.066202 
L 93.357141 145.939807 
L 93.388751 147.436898 
L 93.395073 143.418391 
L 93.451971 125.847275 
L 93.508869 138.217971 
L 93.515191 138.217971 
L 93.578411 131.993226 
L 93.610021 139.715062 
L 93.660597 134.798301 
L 93.673241 133.569111 
L 93.711173 140.376934 
L 93.736461 149.012783 
L 93.799681 135.066202 
L 93.831291 133.569111 
L 93.837613 136.04325 
L 93.894511 149.012783 
L 93.932443 132.639339 
L 93.957731 128.920251 
L 93.995663 137.871277 
L 94.020951 142.788037 
L 94.077849 133.85277 
L 94.179001 131.993226 
L 94.115781 135.066202 
L 94.185323 133.537593 
L 94.223255 164.424936 
L 94.305441 212.363353 
L 94.273831 136.642087 
L 94.343373 190.427036 
L 94.419237 87.215253 
L 94.431881 215.436329 
L 94.463491 162.880569 
L 94.526711 213.860444 
L 94.558321 150.509873 
L 94.596253 205.83919 
L 94.621541 204.641517 
L 94.659474 207.998152 
L 94.684762 215.436329 
L 94.722694 199.961139 
L 94.811202 139.715062 
L 94.779592 215.436329 
L 94.83649 191.656226 
L 94.937642 215.436329 
L 94.975574 87.215253 
L 95.051438 183.619214 
L 95.158912 215.436329 
L 95.127302 149.012783 
L 95.165234 204.925177 
L 95.222132 215.436329 
L 95.34225 87.215253 
L 97.396902 87.215253 
L 97.510698 100.878956 
L 101.190104 100.878956 
L 101.3039 87.215253 
L 106.114946 87.215253 
L 106.12759 226.23114 
L 106.22242 87.215253 
L 106.456334 87.215253 
L 106.462656 90.626249 
L 106.4753 224.734049 
L 106.487944 87.215253 
L 106.57013 87.215253 
L 106.968417 87.215253 
L 107.044281 230.88 
L 107.075891 87.215253 
L 107.284517 87.215253 
L 107.360381 221.582279 
L 107.391991 87.215253 
L 113.834114 87.215253 
L 113.903656 215.436329 
L 113.94791 210.172873 
L 113.998486 215.436329 
L 114.07435 141.905542 
L 114.238722 87.215253 
L 114.415738 87.215253 
L 114.434704 92.485793 
L 114.630686 149.012783 
L 114.64333 134.167947 
L 114.788737 87.215253 
L 115.054261 87.215253 
L 115.117481 178.371517 
L 115.243921 215.436329 
L 115.262887 215.436329 
L 115.395649 145.293694 
L 115.515767 87.215253 
L 115.522089 87.215253 
L 115.610597 215.436329 
L 115.661173 211.118404 
L 115.673817 215.436329 
L 115.705427 193.767912 
L 115.800257 87.215253 
L 115.819223 153.630125 
L 115.926697 215.436329 
L 115.933019 199.67748 
L 116.021527 87.215253 
L 116.046815 176.795632 
L 116.116357 215.436329 
L 116.147968 152.085758 
L 116.211188 87.215253 
L 116.242798 215.436329 
L 116.24912 215.436329 
L 116.274408 215.436329 
L 116.306018 204.641517 
L 116.37556 87.215253 
L 116.400848 215.436329 
L 116.413492 215.436329 
L 116.432458 215.436329 
L 116.527288 169.105314 
L 116.495678 220.085189 
L 116.546254 196.903923 
L 116.590508 215.436329 
L 116.59683 155.489669 
L 116.647406 87.215253 
L 116.697982 208.959442 
L 116.748558 220.085189 
L 116.811778 215.436329 
L 116.887642 87.215253 
L 116.919252 209.857696 
L 116.969828 220.085189 
L 117.001438 206.138608 
L 117.033048 217.012213 
L 117.108912 87.215253 
L 117.140522 208.329088 
L 117.191098 223.158164 
L 117.254318 215.436329 
L 117.330182 87.215253 
L 117.361792 208.959442 
L 117.380758 215.436329 
L 117.456622 87.215253 
L 117.488233 211.71724 
L 117.507199 206.138608 
L 117.545131 87.215253 
L 117.570419 223.158164 
L 117.614673 216.381859 
L 117.652605 209.857696 
L 117.665249 206.138608 
L 117.709503 87.215253 
L 117.728469 223.158164 
L 117.772723 217.012213 
L 117.791689 217.012213 
L 117.854909 152.085758 
L 117.886519 223.158164 
L 117.892841 154.24472 
L 117.937095 87.215253 
L 117.949739 217.012213 
L 117.993993 209.857696 
L 118.044569 217.012213 
L 118.050891 200.008416 
L 118.177331 87.215253 
L 118.139399 223.158164 
L 118.183653 95.826669 
L 118.297449 215.436329 
L 118.310093 211.71724 
L 118.360669 213.860444 
L 118.392279 158.231709 
L 118.474465 87.215253 
L 118.487109 223.158164 
L 118.518719 220.085189 
L 118.550329 221.582279 
L 118.651481 87.215253 
L 118.670447 113.74448 
L 118.803209 206.138608 
L 118.841142 199.945381 
L 118.89804 204.641517 
L 118.92965 162.880569 
L 119.075056 87.215253 
L 119.15092 223.158164 
L 119.18253 87.215253 
L 119.226784 87.215253 
L 119.34058 215.436329 
L 119.391156 211.118404 
L 119.43541 217.012213 
L 119.49863 221.582279 
L 119.574494 87.215253 
L 119.65668 215.436329 
L 119.707256 201.505507 
L 119.7199 198.416772 
L 119.833696 87.215253 
L 119.840018 88.719429 
L 119.97278 215.436329 
L 120.00439 213.860444 
L 120.124508 87.215253 
L 120.156118 87.215253 
L 120.269915 127.500379 
L 126.604563 127.500379 
L 126.642495 217.012213 
L 126.718359 203.680228 
L 126.737325 199.992657 
L 126.787901 87.215253 
L 126.800545 220.085189 
L 126.844799 189.166328 
L 126.863765 217.012213 
L 126.920664 140.045998 
L 126.926986 121.198415 
L 126.958596 223.158164 
L 127.009172 182.342747 
L 127.021816 213.860444 
L 127.072392 87.215253 
L 127.078714 87.215253 
L 127.116646 87.215253 
L 127.243086 215.436329 
L 127.274696 152.085758 
L 127.369526 87.215253 
L 127.337916 204.641517 
L 127.38217 119.937707 
L 127.401136 215.436329 
L 127.502288 179.56919 
L 127.597118 87.215253 
L 127.559186 215.436329 
L 127.609762 131.378631 
L 127.622406 215.436329 
L 127.641372 87.215253 
L 127.710914 87.215253 
L 127.72988 87.215253 
L 127.812066 215.436329 
L 127.837354 109.158655 
L 127.843676 87.215253 
L 127.875286 204.641517 
L 127.91954 175.582201 
L 128.001726 215.436329 
L 128.008048 143.749327 
L 128.121844 87.215253 
L 140.980802 87.215253 
L 141.056666 230.88 
L 141.094598 149.926796 
L 141.208394 87.215253 
L 141.391732 87.215253 
L 141.404376 207.714493 
L 141.499206 87.215253 
L 141.613002 87.215253 
L 141.625646 221.582279 
L 141.720477 87.215253 
L 141.929103 87.215253 
L 142.004967 229.304115 
L 142.036577 87.215253 
L 142.055543 87.215253 
L 142.163017 215.436329 
L 142.175661 201.221847 
L 142.194627 179.900125 
L 142.226237 223.158164 
L 142.270491 218.225645 
L 142.289457 215.436329 
L 142.340033 87.215253 
L 142.384287 229.304115 
L 142.396931 223.757001 
L 142.447507 206.138608 
L 142.498083 87.215253 
L 142.554981 220.368848 
L 142.573947 223.158164 
L 142.605557 215.436329 
L 142.630845 215.436329 
L 142.637167 215.436329 
L 142.750963 87.215253 
L 142.757285 144.064504 
L 142.763607 215.436329 
L 142.807861 87.215253 
L 142.871081 192.239304 
L 142.984878 215.436329 
L 143.003844 211.701481 
L 143.035454 186.991607 
L 143.079708 150.509873 
L 143.111318 215.436329 
L 143.123962 211.118404 
L 143.237758 139.715062 
L 143.174538 215.436329 
L 143.282012 186.723707 
L 143.300978 224.734049 
L 143.40213 208.644265 
L 143.490638 125.847275 
L 143.522248 190.694937 
L 143.648688 215.436329 
L 143.743518 155.158733 
L 143.768806 186.046076 
L 143.869958 215.436329 
L 143.895246 207.998152 
L 143.926856 169.073797 
L 143.964788 147.436898 
L 144.03433 157.66439 
L 144.186058 215.436329 
L 144.2556 168.443443 
L 144.318821 87.215253 
L 144.375719 149.012783 
L 144.502159 215.436329 
L 144.521125 208.959442 
L 144.565379 215.436329 
L 144.710785 106.35358 
L 144.843547 87.215253 
L 144.849869 87.215253 
L 145.077461 215.436329 
L 145.102749 215.436329 
L 145.229189 204.641517 
L 145.235511 206.80048 
L 145.317697 215.436329 
L 145.431493 87.215253 
L 151.513262 87.215253 
L 151.614414 223.158164 
L 151.627058 220.06943 
L 151.715566 179.600707 
L 151.816718 87.215253 
L 151.772464 223.158164 
L 151.82304 130.464618 
L 151.835684 217.012213 
L 151.936836 161.052543 
L 152.037988 87.215253 
L 151.993734 220.085189 
L 152.04431 102.666009 
L 152.056954 217.012213 
L 152.164428 216.066683 
L 152.183394 217.012213 
L 152.252936 87.215253 
L 152.278224 223.158164 
L 152.284546 222.543569 
L 152.341444 220.085189 
L 152.398343 87.215253 
L 152.448919 212.063935 
L 152.562715 204.641517 
L 152.531105 215.436329 
L 152.569037 206.80048 
L 152.657545 204.641517 
L 152.701799 215.436329 
L 152.720765 215.436329 
L 152.847205 204.641517 
L 152.815595 217.012213 
L 152.853527 206.80048 
L 152.942035 206.138608 
L 152.992611 216.381859 
L 153.005255 217.012213 
L 153.017899 212.662771 
L 153.068475 217.012213 
L 153.081119 152.716112 
L 153.144339 87.215253 
L 153.163305 220.085189 
L 153.175949 220.085189 
L 153.194915 220.085189 
L 153.264457 87.215253 
L 153.302389 214.490798 
L 153.321355 215.436329 
L 153.333999 211.71724 
L 153.416185 217.012213 
L 153.460439 142.504378 
L 153.561591 87.215253 
L 153.511015 220.085189 
L 153.567913 102.004138 
L 153.637455 215.436329 
L 153.688031 211.118404 
L 153.700675 215.436329 
L 153.719642 193.169076 
L 153.846082 87.215253 
L 153.87137 139.415644 
L 153.921946 221.582279 
L 153.93459 87.215253 
L 153.953556 87.215253 
L 154.294944 87.215253 
L 154.427706 102.681768 
L 154.446672 97.103136 
L 154.490926 93.384048 
L 154.522536 98.032908 
L 154.560468 94.959933 
L 154.585756 94.959933 
L 154.617366 93.384048 
L 154.680586 87.215253 
L 154.686908 99.545757 
L 154.775416 223.158164 
L 154.81967 218.525063 
L 154.838636 223.158164 
L 154.870246 215.436329 
L 154.97772 87.215253 
L 154.984042 107.58277 
L 155.091517 223.158164 
L 155.015652 87.215253 
L 155.104161 220.06943 
L 155.154737 223.158164 
L 155.186347 215.436329 
L 155.306465 87.215253 
L 155.319109 87.215253 
L 155.376007 220.085189 
L 155.445549 126.74553 
L 155.502447 215.436329 
L 155.553023 87.215253 
L 155.628887 223.158164 
L 155.673141 210.771709 
L 155.755327 206.138608 
L 155.723717 220.085189 
L 155.774293 211.71724 
L 155.786937 215.436329 
L 155.850157 87.215253 
L 155.894411 211.71724 
L 155.976597 206.138608 
L 155.944987 220.085189 
L 155.995563 211.71724 
L 156.071427 223.158164 
L 156.039817 193.767912 
L 156.077749 208.943683 
L 156.210511 87.215253 
L 156.166257 217.012213 
L 156.216833 119.338871 
L 156.229477 223.158164 
L 156.336951 209.25886 
L 156.355917 199.992657 
L 156.450748 87.215253 
L 156.419138 221.582279 
L 156.469714 154.575656 
L 156.589832 217.012213 
L 156.608798 217.012213 
L 156.684662 87.215253 
L 156.716272 221.314379 
L 156.830068 223.158164 
L 156.798458 220.085189 
L 156.83639 222.842987 
L 156.924898 223.158164 
L 156.988118 220.085189 
L 157.019728 223.158164 
L 157.051338 221.582279 
L 157.108236 87.215253 
L 157.158812 216.381859 
L 157.196744 208.959442 
L 157.240998 217.012213 
L 157.285252 158.263227 
L 157.386404 87.215253 
L 157.335828 223.158164 
L 157.392726 151.502681 
L 157.399048 217.012213 
L 157.487556 87.215253 
L 157.493878 87.215253 
L 157.5002 87.215253 
L 157.651928 220.085189 
L 157.65825 217.295873 
L 157.727792 158.578404 
L 157.778369 87.215253 
L 157.809979 204.641517 
L 157.822623 204.641517 
L 157.835267 204.641517 
L 157.949063 147.965213 
L 164.094051 147.965213 
L 164.207847 87.215253 
L 181.922105 87.215253 
L 181.928427 215.436329 
L 182.035901 187.63772 
L 182.086477 215.436329 
L 182.137053 184.816886 
L 182.181307 145.939807 
L 182.231883 201.820684 
L 182.276137 215.436329 
L 182.333035 202.766214 
L 182.402577 133.569111 
L 182.427865 199.062885 
L 182.529017 215.436329 
L 182.535339 193.184835 
L 182.592237 98.032908 
L 182.642813 192.554481 
L 182.718677 215.436329 
L 182.756609 206.453785 
L 182.845117 104.178859 
L 182.883049 177.410227 
L 182.971557 215.436329 
L 183.009489 197.833695 
L 183.097997 87.215253 
L 183.142251 154.559897 
L 183.256048 215.436329 
L 183.268692 214.805975 
L 183.306624 207.383557 
L 183.331912 169.089555 
L 183.414098 87.215253 
L 183.45203 140.97577 
L 183.597436 215.436329 
L 183.603758 215.436329 
L 183.723876 137.587617 
L 183.825028 87.215253 
L 183.843994 105.408049 
L 184.014688 215.436329 
L 183.888248 101.105883 
L 184.039976 206.80048 
L 184.141128 204.641517 
L 184.077908 215.436329 
L 184.14745 206.80048 
L 184.235958 204.641517 
L 184.280212 215.436329 
L 184.299178 215.436329 
L 184.425618 196.919682 
L 184.444584 202.451037 
L 184.457228 206.138608 
L 184.482516 186.40853 
L 184.583668 165.953545 
L 184.520448 189.197846 
L 184.602635 173.375962 
L 184.741719 215.436329 
L 184.646889 172.17829 
L 184.792295 204.641517 
L 184.804939 204.641517 
L 184.944023 215.436329 
L 184.962989 215.436329 
L 184.994599 204.641517 
L 185.070463 214.490798 
L 185.089429 215.436329 
L 185.102073 211.71724 
L 185.152649 215.436329 
L 185.158971 180.215302 
L 185.222191 87.215253 
L 185.247479 215.436329 
L 185.260123 211.71724 
L 185.342309 206.138608 
L 185.310699 220.085189 
L 185.361275 211.71724 
L 185.500359 223.158164 
L 185.658409 176.82715 
L 185.702663 87.215253 
L 185.753239 220.085189 
L 185.759561 219.470594 
L 185.797493 208.344847 
L 185.829103 133.537593 
L 185.854391 87.215253 
L 185.911289 223.158164 
L 185.917611 221.613797 
L 185.97451 223.158164 
L 186.00612 215.436329 
L 186.050374 87.215253 
L 186.119916 169.704151 
L 186.19578 215.436329 
L 186.16417 107.251834 
L 186.214746 152.416694 
L 186.296932 87.215253 
L 186.259 213.860444 
L 186.315898 176.196796 
L 186.41705 223.158164 
L 186.334864 87.215253 
L 186.429694 219.439076 
L 186.44866 213.860444 
L 186.51188 217.012213 
L 186.5751 87.215253 
L 186.587744 87.215253 
L 186.63832 220.085189 
L 186.707862 135.066202 
L 186.815336 87.215253 
L 186.76476 204.641517 
L 186.821658 89.349783 
L 186.8912 223.158164 
L 186.967064 218.241404 
L 186.98603 220.085189 
L 187.023962 214.837492 
L 187.04925 206.138608 
L 187.106148 87.215253 
L 187.14408 215.436329 
L 187.169368 109.158655 
L 187.17569 87.215253 
L 187.2073 220.085189 
L 187.245232 214.837492 
L 187.302131 220.085189 
L 187.308453 186.093353 
L 187.340063 87.215253 
L 187.409605 218.241404 
L 187.428571 220.085189 
L 187.561333 87.215253 
L 187.567655 87.215253 
L 187.586621 220.085189 
L 187.687773 147.153238 
L 187.732027 87.215253 
L 187.744671 220.085189 
L 187.788925 205.240354 
L 187.826857 211.71724 
L 187.839501 215.436329 
L 187.845823 200.90667 
L 187.965941 136.642087 
L 187.902721 220.085189 
L 187.972263 152.400935 
L 188.029161 217.012213 
L 188.092381 196.919682 
L 188.155601 220.085189 
L 188.212499 87.215253 
L 188.357905 171.119689 
L 417.48 171.119689 
L 417.48 171.119689 
" style="fill:none;stroke:#e41a1c;stroke-linecap:square;stroke-width:2;"/>
   </g>
   <g id="line2d_13">
    <path clip-path="url(#pa555634e73)" d="M 65.7932 230.88 
L 67.177719 230.88 
L 67.291515 217.950173 
L 67.746699 217.950173 
L 67.860496 87.215253 
L 68.31568 87.215253 
L 68.429476 170.540806 
L 68.94788 170.540806 
L 69.061676 226.570058 
L 69.516861 226.570058 
L 69.630657 223.696763 
L 70.149061 223.696763 
L 70.262857 229.443353 
L 70.718042 229.443353 
L 70.831838 230.88 
L 71.350242 230.88 
L 71.464038 229.443353 
L 85.890853 229.443353 
L 86.004649 230.88 
L 86.523053 230.88 
L 86.63685 229.443353 
L 90.126596 229.443353 
L 90.240392 225.13341 
L 90.758797 225.13341 
L 90.872593 184.907281 
L 91.327777 184.907281 
L 91.441573 150.427742 
L 91.959977 150.427742 
L 92.073774 94.398491 
L 92.592178 94.398491 
L 92.705974 163.357569 
L 93.350819 163.357569 
L 93.464615 225.13341 
L 94.362339 225.13341 
L 94.476135 229.443353 
L 94.99454 229.443353 
L 95.108336 223.696763 
L 95.62674 223.696763 
L 95.740536 220.823468 
L 96.827921 220.823468 
L 96.941717 219.38682 
L 98.661302 219.38682 
L 98.775099 217.950173 
L 99.230283 217.950173 
L 99.344079 210.766935 
L 99.925703 210.766935 
L 100.0395 196.400461 
L 100.431464 196.400461 
L 100.54526 189.217223 
L 101.063664 189.217223 
L 101.17746 190.653871 
L 101.695865 190.653871 
L 101.809661 192.090518 
L 103.529246 192.090518 
L 103.643042 190.653871 
L 104.098227 190.653871 
L 104.212023 189.217223 
L 104.730427 189.217223 
L 104.844223 190.653871 
L 105.362627 190.653871 
L 105.476424 187.780576 
L 106.500588 187.780576 
L 106.614384 186.343929 
L 107.196009 186.343929 
L 107.309805 184.907281 
L 107.764989 184.907281 
L 107.878785 183.470634 
L 108.33397 183.470634 
L 108.447766 180.597339 
L 108.96617 180.597339 
L 109.079966 177.724044 
L 109.535151 177.724044 
L 109.648947 174.850749 
L 110.167351 174.850749 
L 110.281147 167.667511 
L 110.736331 167.667511 
L 110.850128 161.920922 
L 111.431752 161.920922 
L 111.545548 151.864389 
L 112.000732 151.864389 
L 112.114529 141.807857 
L 112.632933 141.807857 
L 112.746729 127.441382 
L 113.138693 127.441382 
L 113.252489 107.328318 
L 113.834114 107.328318 
L 113.94791 87.215253 
L 119.903238 87.215253 
L 120.017034 144.681152 
L 120.472219 144.681152 
L 120.586015 87.215253 
L 125.972363 87.215253 
L 126.086159 120.258145 
L 126.604563 120.258145 
L 126.718359 217.950173 
L 127.173544 217.950173 
L 127.28734 213.64023 
L 128.437945 213.64023 
L 128.551741 216.513525 
L 129.006925 216.513525 
L 129.120721 217.950173 
L 129.639126 217.950173 
L 129.752922 219.38682 
L 130.208106 219.38682 
L 130.321902 217.950173 
L 131.472507 217.950173 
L 131.586303 209.330288 
L 131.978267 209.330288 
L 132.092063 190.653871 
L 132.673688 190.653871 
L 132.787484 179.160691 
L 134.443849 179.160691 
L 134.557645 180.597339 
L 136.909431 180.597339 
L 137.023227 179.160691 
L 138.110612 179.160691 
L 138.224408 177.724044 
L 138.679592 177.724044 
L 138.793388 176.287396 
L 139.311793 176.287396 
L 139.425589 174.850749 
L 140.512974 174.850749 
L 140.62677 173.414101 
L 141.081954 173.414101 
L 141.19575 171.977454 
L 141.714155 171.977454 
L 141.827951 170.540806 
L 142.346355 170.540806 
L 142.460151 164.794217 
L 142.978556 164.794217 
L 143.092352 159.047627 
L 143.547536 159.047627 
L 143.661332 151.864389 
L 144.369397 151.864389 
L 144.483193 143.244505 
L 144.748717 143.244505 
L 144.862513 131.751325 
L 145.380917 131.751325 
L 145.494713 114.511555 
L 146.013118 114.511555 
L 146.126914 92.961843 
L 146.582098 92.961843 
L 146.695894 87.215253 
L 152.714443 87.215253 
L 152.828239 194.963813 
L 153.346643 194.963813 
L 153.460439 87.215253 
L 158.783567 87.215253 
L 158.897363 171.977454 
L 159.352548 171.977454 
L 159.466344 222.260115 
L 159.921528 222.260115 
L 160.035324 212.203583 
L 160.553729 212.203583 
L 160.667525 215.076878 
L 161.122709 215.076878 
L 161.236505 216.513525 
L 161.754909 216.513525 
L 161.868706 217.950173 
L 162.38711 217.950173 
L 162.500906 219.38682 
L 163.588291 219.38682 
L 163.702087 215.076878 
L 164.157271 215.076878 
L 164.271067 202.147051 
L 164.789472 202.147051 
L 164.903268 184.907281 
L 165.358452 184.907281 
L 165.472248 177.724044 
L 166.686073 177.724044 
L 166.799869 179.160691 
L 167.824034 179.160691 
L 167.93783 180.597339 
L 169.025215 180.597339 
L 169.139011 179.160691 
L 169.783855 179.160691 
L 169.897652 177.724044 
L 170.226396 177.724044 
L 170.340192 179.160691 
L 170.858596 179.160691 
L 170.972392 177.724044 
L 171.427577 177.724044 
L 171.541373 176.287396 
L 172.628758 176.287396 
L 172.742554 174.850749 
L 173.324178 174.850749 
L 173.437974 173.414101 
L 173.956379 173.414101 
L 174.070175 171.977454 
L 174.525359 171.977454 
L 174.639155 169.104159 
L 175.157559 169.104159 
L 175.271356 163.357569 
L 175.72654 163.357569 
L 175.840336 156.174332 
L 176.29552 156.174332 
L 176.409316 148.991094 
L 176.990941 148.991094 
L 177.104737 140.37121 
L 177.559921 140.37121 
L 177.673717 126.004735 
L 178.192122 126.004735 
L 178.305918 108.764965 
L 178.761102 108.764965 
L 178.874898 87.215253 
L 185.462427 87.215253 
L 185.576223 141.807857 
L 186.031408 141.807857 
L 186.145204 87.215253 
L 191.531552 87.215253 
L 191.645348 203.583698 
L 192.163752 203.583698 
L 192.277548 217.950173 
L 192.732733 217.950173 
L 192.846529 212.203583 
L 193.301713 212.203583 
L 193.415509 215.076878 
L 193.933913 215.076878 
L 194.04771 217.950173 
L 194.502894 217.950173 
L 194.61669 219.38682 
L 195.767295 219.38682 
L 195.881091 217.950173 
L 196.336275 217.950173 
L 196.450071 213.64023 
L 196.968476 213.64023 
L 197.082272 194.963813 
L 197.600676 194.963813 
L 197.714472 180.597339 
L 198.169657 180.597339 
L 198.283453 177.724044 
L 198.801857 177.724044 
L 198.915653 179.160691 
L 199.434058 179.160691 
L 199.547854 180.597339 
L 201.836419 180.597339 
L 201.950215 179.160691 
L 203.0376 179.160691 
L 203.151396 177.724044 
L 204.238781 177.724044 
L 204.352577 176.287396 
L 204.807762 176.287396 
L 204.921558 174.850749 
L 205.439962 174.850749 
L 205.553758 173.414101 
L 206.072163 173.414101 
L 206.185959 171.977454 
L 206.641143 171.977454 
L 206.754939 170.540806 
L 207.526224 170.540806 
L 207.64002 167.667511 
L 207.905544 167.667511 
L 208.01934 160.484274 
L 208.537744 160.484274 
L 208.65154 154.737684 
L 209.106725 154.737684 
L 209.220521 147.554447 
L 209.738925 147.554447 
L 209.852721 136.061267 
L 210.244686 136.061267 
L 210.358482 121.694793 
L 210.940106 121.694793 
L 211.053902 101.581728 
L 211.572307 101.581728 
L 211.686103 87.215253 
L 217.641431 87.215253 
L 217.755227 147.554447 
L 218.210412 147.554447 
L 218.324208 87.215253 
L 223.710556 87.215253 
L 223.824352 126.004735 
L 224.279536 126.004735 
L 224.393332 219.38682 
L 224.911737 219.38682 
L 225.025533 213.64023 
L 226.112917 213.64023 
L 226.226714 216.513525 
L 226.745118 216.513525 
L 226.858914 217.950173 
L 227.314098 217.950173 
L 227.427894 219.38682 
L 228.515279 219.38682 
L 228.629075 217.950173 
L 229.14748 217.950173 
L 229.261276 207.893641 
L 229.71646 207.893641 
L 229.830256 189.217223 
L 230.348661 189.217223 
L 230.462457 179.160691 
L 230.917641 179.160691 
L 231.031437 177.724044 
L 231.549841 177.724044 
L 231.663638 179.160691 
L 232.308482 179.160691 
L 232.422278 180.597339 
L 234.584404 180.597339 
L 234.6982 179.160691 
L 236.417785 179.160691 
L 236.531581 177.724044 
L 237.049986 177.724044 
L 237.163782 176.287396 
L 237.618966 176.287396 
L 237.732762 174.850749 
L 238.251166 174.850749 
L 238.364963 173.414101 
L 238.820147 173.414101 
L 238.933943 171.977454 
L 239.452347 171.977454 
L 239.566143 170.540806 
L 240.021328 170.540806 
L 240.135124 166.230864 
L 240.653528 166.230864 
L 240.767324 159.047627 
L 241.285729 159.047627 
L 241.399525 151.864389 
L 241.854709 151.864389 
L 241.968505 143.244505 
L 242.42369 143.244505 
L 242.537486 131.751325 
L 243.11911 131.751325 
L 243.232906 115.948203 
L 243.751311 115.948203 
L 243.865107 94.398491 
L 244.320291 94.398491 
L 244.434087 87.215253 
L 250.389416 87.215253 
L 250.503212 199.273756 
L 251.021616 199.273756 
L 251.135412 87.215253 
L 256.45854 87.215253 
L 256.572336 173.414101 
L 257.090741 173.414101 
L 257.204537 222.260115 
L 257.722941 222.260115 
L 257.836737 213.64023 
L 258.291921 213.64023 
L 258.405717 215.076878 
L 258.860902 215.076878 
L 258.974698 216.513525 
L 259.493102 216.513525 
L 259.606898 217.950173 
L 260.125303 217.950173 
L 260.239099 219.38682 
L 261.263264 219.38682 
L 261.37706 216.513525 
L 261.895464 216.513525 
L 262.00926 202.147051 
L 262.464445 202.147051 
L 262.578241 184.907281 
L 263.096645 184.907281 
L 263.210441 177.724044 
L 264.297826 177.724044 
L 264.411622 179.160691 
L 265.625447 179.160691 
L 265.739243 180.597339 
L 266.763408 180.597339 
L 266.877204 179.160691 
L 268.596789 179.160691 
L 268.710585 177.724044 
L 269.22899 177.724044 
L 269.342786 176.287396 
L 270.43017 176.287396 
L 270.543967 174.850749 
L 270.999151 174.850749 
L 271.112947 173.414101 
L 271.631351 173.414101 
L 271.745147 171.977454 
L 272.200332 171.977454 
L 272.314128 169.104159 
L 272.832532 169.104159 
L 272.946328 163.357569 
L 273.464733 163.357569 
L 273.578529 156.174332 
L 274.033713 156.174332 
L 274.147509 150.427742 
L 274.665914 150.427742 
L 274.77971 140.37121 
L 275.234894 140.37121 
L 275.34869 126.004735 
L 275.867095 126.004735 
L 275.980891 108.764965 
L 276.436075 108.764965 
L 276.549871 87.215253 
L 283.1374 87.215253 
L 283.251196 146.117799 
L 283.7696 146.117799 
L 283.883396 87.215253 
L 289.206524 87.215253 
L 289.320321 167.667511 
L 289.838725 167.667511 
L 289.952521 87.215253 
L 290.407705 87.215253 
L 290.521501 121.694793 
L 291.039906 121.694793 
L 291.153702 216.513525 
L 291.672106 216.513525 
L 291.785902 209.330288 
L 292.241087 209.330288 
L 292.354883 216.513525 
L 292.873287 216.513525 
L 292.987083 223.696763 
L 293.505488 223.696763 
L 293.619284 228.006705 
L 294.074468 228.006705 
L 294.188264 229.443353 
L 300.143593 229.443353 
L 300.257389 183.470634 
L 300.775793 183.470634 
L 300.889589 87.215253 
L 301.344773 87.215253 
L 301.45857 126.004735 
L 301.976974 126.004735 
L 302.09077 222.260115 
L 302.609174 222.260115 
L 302.722971 217.950173 
L 303.178155 217.950173 
L 303.291951 226.570058 
L 303.810355 226.570058 
L 303.924151 230.88 
L 304.379336 230.88 
L 304.493132 228.006705 
L 305.580517 228.006705 
L 305.694313 226.570058 
L 321.448748 226.570058 
L 321.562545 225.13341 
L 322.586709 225.13341 
L 322.700505 223.696763 
L 323.21891 223.696763 
L 323.332706 220.823468 
L 323.78789 220.823468 
L 323.901686 219.38682 
L 324.799411 219.38682 
L 324.913207 216.513525 
L 324.989071 216.513525 
L 325.102867 213.64023 
L 325.621272 213.64023 
L 325.735068 210.766935 
L 326.253472 210.766935 
L 326.367268 209.330288 
L 326.822452 209.330288 
L 326.936249 207.893641 
L 330.489215 207.893641 
L 330.603011 206.456993 
L 331.690396 206.456993 
L 331.804192 207.893641 
L 332.891577 207.893641 
L 333.005373 206.456993 
L 333.713438 206.456993 
L 333.827234 207.893641 
L 338.960702 207.893641 
L 339.074498 209.330288 
L 340.288322 209.330288 
L 340.402119 207.893641 
L 340.857303 207.893641 
L 340.971099 209.330288 
L 342.058484 209.330288 
L 342.17228 207.893641 
L 342.627464 207.893641 
L 342.74126 209.330288 
L 343.196445 209.330288 
L 343.310241 207.893641 
L 343.828645 207.893641 
L 343.942441 209.330288 
L 345.029826 209.330288 
L 345.143622 207.893641 
L 345.662026 207.893641 
L 345.775823 209.330288 
L 348.633369 209.330288 
L 348.747165 207.893641 
L 349.328789 207.893641 
L 349.442585 209.330288 
L 349.83455 209.330288 
L 349.948346 207.893641 
L 362.036019 207.893641 
L 362.149815 206.456993 
L 363.2372 206.456993 
L 363.350996 207.893641 
L 363.80618 207.893641 
L 363.919976 206.456993 
L 367.536163 206.456993 
L 367.649959 205.020346 
L 369.938525 205.020346 
L 370.052321 203.583698 
L 371.139705 203.583698 
L 371.253502 202.147051 
L 372.340886 202.147051 
L 372.454682 200.710403 
L 374.174268 200.710403 
L 374.288064 199.273756 
L 375.375449 199.273756 
L 375.489245 197.837108 
L 376.007649 197.837108 
L 376.121445 196.400461 
L 377.20883 196.400461 
L 377.322626 194.963813 
L 377.77781 194.963813 
L 377.891607 193.527166 
L 378.410011 193.527166 
L 378.523807 192.090518 
L 379.674412 192.090518 
L 379.788208 190.653871 
L 380.243392 190.653871 
L 380.357188 189.217223 
L 380.938813 189.217223 
L 381.052609 187.780576 
L 381.444573 187.780576 
L 381.558369 184.907281 
L 382.013554 184.907281 
L 382.12735 183.470634 
L 382.645754 183.470634 
L 382.75955 180.597339 
L 383.277955 180.597339 
L 383.391751 179.160691 
L 383.846935 179.160691 
L 383.960731 176.287396 
L 384.668796 176.287396 
L 384.782592 173.414101 
L 385.111336 173.414101 
L 385.225132 170.540806 
L 385.680316 170.540806 
L 385.794112 166.230864 
L 386.312517 166.230864 
L 386.426313 163.357569 
L 386.881497 163.357569 
L 386.995293 159.047627 
L 387.513698 159.047627 
L 387.627494 153.301037 
L 388.209118 153.301037 
L 388.322914 147.554447 
L 388.778099 147.554447 
L 388.891895 140.37121 
L 389.347079 140.37121 
L 389.460875 133.187972 
L 389.97928 133.187972 
L 390.093076 124.568087 
L 390.54826 124.568087 
L 390.662056 114.511555 
L 391.24368 114.511555 
L 391.357477 101.581728 
L 391.875881 101.581728 
L 391.989677 87.215253 
L 397.249585 87.215253 
L 397.363381 215.076878 
L 397.818565 215.076878 
L 397.932361 228.006705 
L 398.513986 228.006705 
L 398.627782 216.513525 
L 399.146186 216.513525 
L 399.259982 207.893641 
L 399.715167 207.893641 
L 399.828963 202.147051 
L 400.284147 202.147051 
L 400.397943 199.273756 
L 400.916348 199.273756 
L 401.030144 197.837108 
L 402.180749 197.837108 
L 402.294545 200.710403 
L 403.50837 200.710403 
L 403.622166 202.147051 
L 405.152091 202.147051 
L 405.265887 203.583698 
L 406.353272 203.583698 
L 406.467068 180.597339 
L 406.985472 180.597339 
L 407.099268 87.215253 
L 412.422396 87.215253 
L 412.536192 167.667511 
L 413.054597 167.667511 
L 413.168393 87.215253 
L 413.686797 87.215253 
L 413.800593 128.87803 
L 414.192558 128.87803 
L 414.306354 216.513525 
L 414.887978 216.513525 
L 415.001774 209.330288 
L 415.456958 209.330288 
L 415.570755 217.950173 
L 416.025939 217.950173 
L 416.139735 223.696763 
L 416.658139 223.696763 
L 416.771935 228.006705 
L 417.48 228.006705 
L 417.48 228.006705 
" style="fill:none;stroke:#377eb8;stroke-dasharray:7.4,3.2;stroke-dashoffset:0;stroke-linecap:round;stroke-width:2;"/>
   </g>
   <g id="patch_3">
    <path d="M 65.7932 230.88 
L 65.7932 15.38288 
" style="fill:none;stroke:#000000;stroke-linecap:square;stroke-linejoin:miter;stroke-width:0.8;"/>
   </g>
   <g id="patch_4">
    <path d="M 417.48 230.88 
L 417.48 15.38288 
" style="fill:none;"/>
   </g>
   <g id="patch_5">
    <path d="M 65.7932 230.88 
L 417.48 230.88 
" style="fill:none;stroke:#000000;stroke-linecap:square;stroke-linejoin:miter;stroke-width:0.8;"/>
   </g>
   <g id="patch_6">
    <path d="M 65.7932 15.38288 
L 417.48 15.38288 
" style="fill:none;"/>
   </g>
   <g id="legend_1">
    <g id="patch_7">
     <path d="M 241.19301 68.05458 
L 412.68 68.05458 
Q 415.88 68.05458 415.88 64.85458 
L 415.88 20.18288 
Q 415.88 16.98288 412.68 16.98288 
L 241.19301 16.98288 
Q 237.99301 16.98288 237.99301 20.18288 
L 237.99301 64.85458 
Q 237.99301 68.05458 241.19301 68.05458 
z
" style="fill:#ffffff;stroke:#000000;stroke-linejoin:miter;"/>
    </g>
    <g id="line2d_14">
     <path d="M 244.39301 29.63884 
L 276.39301 29.63884 
" style="fill:none;stroke:#e41a1c;stroke-linecap:square;stroke-width:2;"/>
    </g>
    <g id="line2d_15"/>
    <g id="text_14">
     <!-- Spindle Current -->
     <g transform="translate(289.19301 35.23884)scale(0.16 -0.16)">
      <use transform="translate(0 -1.570628)scale(0.996264)" xlink:href="#Century_Schoolbook_L_Roman-83"/>
      <use transform="translate(62.763979 -1.570628)scale(0.996264)" xlink:href="#Century_Schoolbook_L_Roman-112"/>
      <use transform="translate(119.949466 -1.570628)scale(0.996264)" xlink:href="#Century_Schoolbook_L_Roman-105"/>
      <use transform="translate(151.330779 -1.570628)scale(0.996264)" xlink:href="#Century_Schoolbook_L_Roman-110"/>
      <use transform="translate(212.20241 -1.570628)scale(0.996264)" xlink:href="#Century_Schoolbook_L_Roman-100"/>
      <use transform="translate(269.387897 -1.570628)scale(0.996264)" xlink:href="#Century_Schoolbook_L_Roman-108"/>
      <use transform="translate(300.76921 -1.570628)scale(0.996264)" xlink:href="#Century_Schoolbook_L_Roman-101"/>
      <use transform="translate(378.27758 -1.570628)scale(0.996264)" xlink:href="#Century_Schoolbook_L_Roman-67"/>
      <use transform="translate(450.207565 -1.570628)scale(0.996264)" xlink:href="#Century_Schoolbook_L_Roman-117"/>
      <use transform="translate(511.079196 -1.570628)scale(0.996264)" xlink:href="#Century_Schoolbook_L_Roman-114"/>
      <use transform="translate(555.312765 -1.570628)scale(0.996264)" xlink:href="#Century_Schoolbook_L_Roman-114"/>
      <use transform="translate(599.546333 -1.570628)scale(0.996264)" xlink:href="#Century_Schoolbook_L_Roman-101"/>
      <use transform="translate(649.359534 -1.570628)scale(0.996264)" xlink:href="#Century_Schoolbook_L_Roman-110"/>
      <use transform="translate(710.231164 -1.570628)scale(0.996264)" xlink:href="#Century_Schoolbook_L_Roman-116"/>
     </g>
    </g>
    <g id="line2d_16">
     <path d="M 244.39301 52.77469 
L 276.39301 52.77469 
" style="fill:none;stroke:#377eb8;stroke-dasharray:7.4,3.2;stroke-dashoffset:0;stroke-linecap:round;stroke-width:2;"/>
    </g>
    <g id="line2d_17"/>
    <g id="text_15">
     <!-- Spindle Load -->
     <defs>
      <path d="M 64.59375 27.328125 
L 60.203125 27.328125 
C 59.203125 20.546875 56.796875 13.765625 54.203125 10.484375 
C 51.09375 6.59375 45.296875 4.6875 36.90625 4.6875 
L 32.703125 4.6875 
C 29.703125 4.6875 27.203125 5.296875 26.296875 6.1875 
C 25.59375 6.78125 25.5 7.390625 25.5 9.484375 
L 25.5 59.734375 
L 25.5 62.609375 
C 25.5 66.8125 26.40625 67.3125 34.5 67.3125 
L 36.296875 67.3125 
L 36.296875 72 
L 3.5 72 
L 3.5 67.3125 
L 5.296875 67.3125 
C 13.40625 67.3125 14.296875 66.8125 14.296875 62.609375 
L 14.296875 59.734375 
L 14.296875 12.28125 
L 14.296875 9.375 
C 14.296875 5.1875 13.40625 4.6875 5.296875 4.6875 
L 3.5 4.6875 
L 3.5 0 
L 62.5 0 
z
" id="Century_Schoolbook_L_Roman-76"/>
      <path d="M 45.203125 32.578125 
C 45.203125 38.796875 44.09375 41.96875 41.203125 44.34375 
C 37.90625 46.90625 33 48.28125 26.59375 48.28125 
C 15.40625 48.28125 7.09375 43.046875 7.09375 35.921875 
C 7.09375 32.15625 9.40625 29.78125 12.90625 29.78125 
C 16 29.78125 18.296875 31.859375 18.296875 34.8125 
C 18.296875 36.109375 17.796875 37.484375 16.796875 38.875 
C 16.203125 39.546875 16.09375 39.84375 16.09375 40.15625 
C 16.09375 42.21875 20.203125 44 25 44 
C 28.09375 44 31.59375 43.015625 33.203125 41.53125 
C 35.09375 39.953125 35.796875 37.578125 35.796875 33.125 
L 35.796875 29.28125 
C 25.296875 27.484375 22.09375 26.6875 17.203125 24.8125 
C 8.59375 21.609375 4.40625 16.9375 4.40625 10.65625 
C 4.40625 3.578125 10.09375 -1 18.90625 -1 
C 25.796875 -1 32 1.859375 36.296875 7.0625 
C 37.90625 1.984375 40.40625 0 45.09375 0 
C 49.59375 0 54.296875 2.890625 54.296875 5.78125 
C 54.296875 6.46875 53.796875 6.96875 53.296875 6.96875 
C 52.90625 6.96875 52.5 6.875 51.796875 6.578125 
C 50.203125 6 49.796875 5.890625 49 5.890625 
C 46.203125 5.890625 45.203125 7.78125 45.203125 12.71875 
z
M 35.796875 20.46875 
C 35.796875 14.46875 35.5 13.078125 33.796875 10.484375 
C 31.296875 6.78125 26.703125 4.296875 22.40625 4.296875 
C 17.90625 4.296875 14.5 7.59375 14.5 12.078125 
C 14.5 16.265625 16.59375 19.265625 21 21.359375 
C 24.09375 22.75 28 23.75 35.796875 25.046875 
z
" id="Century_Schoolbook_L_Roman-97"/>
     </defs>
     <g transform="translate(289.19301 58.37469)scale(0.16 -0.16)">
      <use transform="translate(0 -1.570628)scale(0.996264)" xlink:href="#Century_Schoolbook_L_Roman-83"/>
      <use transform="translate(62.763979 -1.570628)scale(0.996264)" xlink:href="#Century_Schoolbook_L_Roman-112"/>
      <use transform="translate(119.949466 -1.570628)scale(0.996264)" xlink:href="#Century_Schoolbook_L_Roman-105"/>
      <use transform="translate(151.330779 -1.570628)scale(0.996264)" xlink:href="#Century_Schoolbook_L_Roman-110"/>
      <use transform="translate(212.20241 -1.570628)scale(0.996264)" xlink:href="#Century_Schoolbook_L_Roman-100"/>
      <use transform="translate(269.387897 -1.570628)scale(0.996264)" xlink:href="#Century_Schoolbook_L_Roman-108"/>
      <use transform="translate(300.76921 -1.570628)scale(0.996264)" xlink:href="#Century_Schoolbook_L_Roman-101"/>
      <use transform="translate(378.27758 -1.570628)scale(0.996264)" xlink:href="#Century_Schoolbook_L_Roman-76"/>
      <use transform="translate(444.727611 -1.570628)scale(0.996264)" xlink:href="#Century_Schoolbook_L_Roman-111"/>
      <use transform="translate(494.540812 -1.570628)scale(0.996264)" xlink:href="#Century_Schoolbook_L_Roman-97"/>
      <use transform="translate(549.932489 -1.570628)scale(0.996264)" xlink:href="#Century_Schoolbook_L_Roman-100"/>
     </g>
    </g>
   </g>
  </g>
 </g>
 <defs>
  <clipPath id="pa555634e73">
   <rect height="215.49712" width="351.6868" x="65.7932" y="15.38288"/>
  </clipPath>
 </defs>
</svg>
