<?xml version="1.0" encoding="utf-8" standalone="no"?>
<!DOCTYPE svg PUBLIC "-//W3C//DTD SVG 1.1//EN"
  "http://www.w3.org/Graphics/SVG/1.1/DTD/svg11.dtd">
<!-- Created with matplotlib (https://matplotlib.org/) -->
<svg height="288pt" version="1.1" viewBox="0 0 432 288" width="432pt" xmlns="http://www.w3.org/2000/svg" xmlns:xlink="http://www.w3.org/1999/xlink">
 <defs>
  <style type="text/css">
*{stroke-linecap:butt;stroke-linejoin:round;}
  </style>
 </defs>
 <g id="figure_1">
  <g id="patch_1">
   <path d="M 0 288 
L 432 288 
L 432 0 
L 0 0 
z
" style="fill:#ffffff;"/>
  </g>
  <g id="axes_1">
   <g id="patch_2">
    <path d="M 79.79325 230.88 
L 417.48 230.88 
L 417.48 14.52 
L 79.79325 14.52 
z
" style="fill:#ffffff;"/>
   </g>
   <g id="matplotlib.axis_1">
    <g id="xtick_1">
     <g id="line2d_1">
      <defs>
       <path d="M 0 0 
L 0 3.5 
" id="m51029ca3ac" style="stroke:#000000;stroke-width:0.8;"/>
      </defs>
      <g>
       <use style="stroke:#000000;stroke-width:0.8;" x="140.496615" xlink:href="#m51029ca3ac" y="230.88"/>
      </g>
     </g>
     <g id="text_1">
      <!-- $10$ -->
      <defs>
       <path d="M 26.59375 63.40625 
C 26.59375 65.5 26.5 65.5 25.09375 65.5 
C 21.203125 61.1875 15.296875 59.796875 9.703125 59.796875 
C 9.40625 59.796875 8.90625 59.796875 8.796875 59.5 
C 8.703125 59.296875 8.703125 59.09375 8.703125 57 
C 11.796875 57 17 57.59375 21 59.984375 
L 21 7.203125 
C 21 3.6875 20.796875 2.5 12.203125 2.5 
L 9.203125 2.5 
L 9.203125 0 
C 14 0 19 0 23.796875 0 
C 28.59375 0 33.59375 0 38.40625 0 
L 38.40625 2.5 
L 35.40625 2.5 
C 26.796875 2.5 26.59375 3.59375 26.59375 7.15625 
z
" id="CMR17-49"/>
       <path d="M 42 31.640625 
C 42 37.75 41.90625 48.125 37.703125 56.109375 
C 34 63.109375 28.09375 65.59375 22.90625 65.59375 
C 18.09375 65.59375 12 63.40625 8.203125 56.203125 
C 4.203125 48.71875 3.796875 39.4375 3.796875 31.640625 
C 3.796875 25.953125 3.90625 17.28125 7 9.671875 
C 11.296875 -0.609375 19 -2 22.90625 -2 
C 27.5 -2 34.5 -0.109375 38.59375 9.375 
C 41.59375 16.28125 42 24.359375 42 31.640625 
z
M 22.90625 -0.40625 
C 16.5 -0.40625 12.703125 5.078125 11.296875 12.6875 
C 10.203125 18.5625 10.203125 27.15625 10.203125 32.75 
C 10.203125 40.4375 10.203125 46.828125 11.5 52.921875 
C 13.40625 61.390625 19 64 22.90625 64 
C 27 64 32.296875 61.296875 34.203125 53.125 
C 35.5 47.4375 35.59375 40.734375 35.59375 32.75 
C 35.59375 26.25 35.59375 18.265625 34.40625 12.375 
C 32.296875 1.484375 26.40625 -0.40625 22.90625 -0.40625 
z
" id="CMR17-48"/>
      </defs>
      <g transform="translate(132.24149 251.21795)scale(0.18 -0.18)">
       <use transform="scale(0.996264)" xlink:href="#CMR17-49"/>
       <use transform="translate(45.690477 0)scale(0.996264)" xlink:href="#CMR17-48"/>
      </g>
     </g>
    </g>
    <g id="xtick_2">
     <g id="line2d_2">
      <g>
       <use style="stroke:#000000;stroke-width:0.8;" x="201.19998" xlink:href="#m51029ca3ac" y="230.88"/>
      </g>
     </g>
     <g id="text_2">
      <!-- $20$ -->
      <defs>
       <path d="M 41.703125 15.453125 
L 39.90625 15.453125 
C 38.90625 8.375 38.09375 7.171875 37.703125 6.5625 
C 37.203125 5.765625 30 5.765625 28.59375 5.765625 
L 9.40625 5.765625 
C 13 9.671875 20 16.75 28.5 24.953125 
C 34.59375 30.734375 41.703125 37.53125 41.703125 47.421875 
C 41.703125 59.21875 32.296875 66 21.796875 66 
C 10.796875 66 4.09375 56.3125 4.09375 47.34375 
C 4.09375 43.4375 7 42.9375 8.203125 42.9375 
C 9.203125 42.9375 12.203125 43.546875 12.203125 47.03125 
C 12.203125 50.109375 9.59375 51 8.203125 51 
C 7.59375 51 7 50.90625 6.59375 50.703125 
C 8.5 59.21875 14.296875 63.40625 20.40625 63.40625 
C 29.09375 63.40625 34.796875 56.515625 34.796875 47.421875 
C 34.796875 38.734375 29.703125 31.25 24 24.75 
L 4.09375 2.28125 
L 4.09375 0 
L 39.296875 0 
z
" id="CMR17-50"/>
      </defs>
      <g transform="translate(192.944855 251.21795)scale(0.18 -0.18)">
       <use transform="scale(0.996264)" xlink:href="#CMR17-50"/>
       <use transform="translate(45.690477 0)scale(0.996264)" xlink:href="#CMR17-48"/>
      </g>
     </g>
    </g>
    <g id="xtick_3">
     <g id="line2d_3">
      <g>
       <use style="stroke:#000000;stroke-width:0.8;" x="261.903345" xlink:href="#m51029ca3ac" y="230.88"/>
      </g>
     </g>
     <g id="text_3">
      <!-- $30$ -->
      <defs>
       <path d="M 22.09375 33.703125 
C 31 33.703125 34.90625 25.96875 34.90625 17.03125 
C 34.90625 5 28.5 0.390625 22.703125 0.390625 
C 17.40625 0.390625 8.796875 3.03125 6.09375 10.828125 
C 6.59375 10.625 7.09375 10.625 7.59375 10.625 
C 10 10.625 11.796875 12.21875 11.796875 14.8125 
C 11.796875 17.703125 9.59375 19 7.59375 19 
C 5.90625 19 3.296875 18.203125 3.296875 14.46875 
C 3.296875 5.234375 12.296875 -2 22.90625 -2 
C 34 -2 42.5 6.71875 42.5 16.953125 
C 42.5 26.671875 34.5 33.703125 25 34.796875 
C 32.59375 36.375 39.90625 43.0625 39.90625 52.015625 
C 39.90625 59.6875 32 65.296875 23 65.296875 
C 13.90625 65.296875 5.90625 59.828125 5.90625 52.015625 
C 5.90625 48.59375 8.5 48 9.796875 48 
C 11.90625 48 13.703125 49.296875 13.703125 51.890625 
C 13.703125 54.46875 11.90625 55.765625 9.796875 55.765625 
C 9.40625 55.765625 8.90625 55.765625 8.5 55.578125 
C 11.40625 61.859375 19.296875 63 22.796875 63 
C 26.296875 63 32.90625 61.328125 32.90625 51.875 
C 32.90625 49.109375 32.5 44.1875 29.09375 39.84375 
C 26.09375 36 22.703125 36 19.40625 35.6875 
C 18.90625 35.6875 16.59375 35.453125 16.203125 35.453125 
C 15.5 35.359375 15.09375 35.265625 15.09375 34.5 
C 15.09375 33.796875 15.203125 33.703125 17.203125 33.703125 
z
" id="CMR17-51"/>
      </defs>
      <g transform="translate(253.64822 251.21795)scale(0.18 -0.18)">
       <use transform="scale(0.996264)" xlink:href="#CMR17-51"/>
       <use transform="translate(45.690477 0)scale(0.996264)" xlink:href="#CMR17-48"/>
      </g>
     </g>
    </g>
    <g id="xtick_4">
     <g id="line2d_4">
      <g>
       <use style="stroke:#000000;stroke-width:0.8;" x="322.606711" xlink:href="#m51029ca3ac" y="230.88"/>
      </g>
     </g>
     <g id="text_4">
      <!-- $40$ -->
      <defs>
       <path d="M 33.59375 64.40625 
C 33.59375 66.5 33.5 66.5 31.703125 66.5 
L 2 19.59375 
L 2 17 
L 27.796875 17 
L 27.796875 7.140625 
C 27.796875 3.5 27.59375 2.5 20.59375 2.5 
L 18.703125 2.5 
L 18.703125 0 
C 21.90625 0 27.296875 0 30.703125 0 
C 34.09375 0 39.5 0 42.703125 0 
L 42.703125 2.5 
L 40.796875 2.5 
C 33.796875 2.5 33.59375 3.5 33.59375 7.140625 
L 33.59375 17 
L 43.796875 17 
L 43.796875 19.59375 
L 33.59375 19.59375 
z
M 28.09375 57.859375 
L 28.09375 19.59375 
L 4 19.59375 
z
" id="CMR17-52"/>
      </defs>
      <g transform="translate(314.351586 251.21795)scale(0.18 -0.18)">
       <use transform="scale(0.996264)" xlink:href="#CMR17-52"/>
       <use transform="translate(45.690477 0)scale(0.996264)" xlink:href="#CMR17-48"/>
      </g>
     </g>
    </g>
    <g id="xtick_5">
     <g id="line2d_5">
      <g>
       <use style="stroke:#000000;stroke-width:0.8;" x="383.310076" xlink:href="#m51029ca3ac" y="230.88"/>
      </g>
     </g>
     <g id="text_5">
      <!-- $50$ -->
      <defs>
       <path d="M 11.40625 57.6875 
C 12.40625 57.28125 16.5 56 20.703125 56 
C 30 56 35.09375 61.109375 38 64.0625 
C 38 64.953125 38 65.5 37.40625 65.5 
C 37.296875 65.5 37.09375 65.5 36.296875 65.046875 
C 32.796875 63.40625 28.703125 62.078125 23.703125 62.078125 
C 20.703125 62.078125 16.203125 62.484375 11.296875 64.671875 
C 10.203125 65.171875 10 65.171875 9.90625 65.171875 
C 9.40625 65.171875 9.296875 65.0625 9.296875 63.078125 
L 9.296875 34.421875 
C 9.296875 32.640625 9.296875 32.140625 10.296875 32.140625 
C 10.796875 32.140625 11 32.34375 11.5 33.03125 
C 14.703125 37.515625 19.09375 39.40625 24.09375 39.40625 
C 27.59375 39.40625 35.09375 37.21875 35.09375 20.140625 
C 35.09375 16.953125 35.09375 11.171875 32.09375 6.578125 
C 29.59375 2.484375 25.703125 0.390625 21.40625 0.390625 
C 14.796875 0.390625 8.09375 5 6.296875 12.71875 
C 6.703125 12.609375 7.5 12.421875 7.90625 12.421875 
C 9.203125 12.421875 11.703125 13.125 11.703125 16.21875 
C 11.703125 18.90625 9.796875 20 7.90625 20 
C 5.59375 20 4.09375 18.59375 4.09375 15.796875 
C 4.09375 7.09375 11 -2 21.59375 -2 
C 31.90625 -2 41.703125 6.875 41.703125 19.75 
C 41.703125 31.71875 33.90625 41 24.203125 41 
C 19.09375 41 14.796875 39.109375 11.40625 35.53125 
z
" id="CMR17-53"/>
      </defs>
      <g transform="translate(375.054951 251.21795)scale(0.18 -0.18)">
       <use transform="scale(0.996264)" xlink:href="#CMR17-53"/>
       <use transform="translate(45.690477 0)scale(0.996264)" xlink:href="#CMR17-48"/>
      </g>
     </g>
    </g>
    <g id="text_6">
     <!-- Time (s) -->
     <defs>
      <path d="M 63.296875 72 
L 3.40625 72 
L 1.90625 44.265625 
L 6.203125 44.265625 
C 6.90625 49.25 7.796875 53.046875 8.90625 56.234375 
C 11.5 63.515625 16.296875 67.3125 23.09375 67.3125 
C 26.40625 67.3125 27.796875 66.203125 27.796875 63.71875 
L 27.796875 12.28125 
L 27.796875 9.375 
C 27.796875 5.1875 26.90625 4.6875 18.796875 4.6875 
L 16.203125 4.6875 
L 16.203125 0 
L 50.5 0 
L 50.5 4.6875 
L 47.90625 4.6875 
C 39.90625 4.6875 39 5.1875 39 9.375 
L 39 12.28125 
L 39 63.71875 
C 39 66.203125 40.40625 67.3125 43.703125 67.3125 
C 49.796875 67.3125 54.703125 63.90625 57.203125 57.921875 
C 58.703125 54.25 59.703125 49.953125 60.5 44.265625 
L 64.796875 44.265625 
z
" id="Century_Schoolbook_L_Roman-84"/>
      <path d="M 20.59375 46 
L 1.796875 46 
L 1.796875 41.21875 
L 6.90625 41.21875 
C 10.59375 41.21875 11.203125 40.515625 11.203125 36.203125 
L 11.203125 12.296875 
L 11.203125 8.296875 
C 11.203125 4.296875 10.09375 3.59375 3.703125 3.59375 
L 3 3.59375 
L 3 0 
L 28.90625 0 
L 28.90625 3.59375 
L 28.203125 3.59375 
C 21.703125 3.59375 20.59375 4.28125 20.59375 8.21875 
L 20.59375 12.171875 
z
M 15.90625 71.578125 
C 12.703125 71.578125 10.09375 68.984375 10.09375 65.796875 
C 10.09375 62.703125 12.703125 60 15.796875 60 
C 19.09375 60 21.703125 62.59375 21.703125 65.796875 
C 21.703125 68.984375 19.09375 71.578125 15.90625 71.578125 
z
" id="Century_Schoolbook_L_Roman-105"/>
      <path d="M 20.09375 46 
L 2.296875 46 
L 2.296875 41.21875 
L 6.40625 41.21875 
C 10.09375 41.21875 10.703125 40.515625 10.703125 36.203125 
L 10.703125 12.296875 
L 10.703125 8.40625 
C 10.703125 4.296875 9.59375 3.59375 3.203125 3.59375 
L 2.796875 3.59375 
L 2.796875 0 
L 28 0 
L 28 3.59375 
L 27.59375 3.59375 
C 21.203125 3.59375 20.09375 4.296875 20.09375 8.390625 
L 20.09375 12.28125 
L 20.09375 26.453125 
C 20.09375 35.328125 25 41.921875 31.5 41.921875 
C 34.09375 41.921875 36.90625 40.515625 38.09375 38.625 
C 39.5 36.734375 40.09375 33.828125 40.09375 29.734375 
L 40.09375 12.28125 
L 40.09375 8.28125 
C 40.09375 4.296875 39 3.59375 32.5 3.59375 
L 32.09375 3.59375 
L 32.09375 0 
L 57.40625 0 
L 57.40625 3.59375 
L 57 3.59375 
C 50.59375 3.59375 49.5 4.296875 49.5 8.28125 
L 49.5 12.28125 
L 49.5 25.546875 
C 49.5 35.53125 54 41.921875 61 41.921875 
C 64.296875 41.921875 67 40.015625 68.296875 36.921875 
C 69.203125 34.734375 69.5 32.53125 69.5 28.640625 
L 69.5 12.28125 
L 69.5 8.28125 
C 69.5 4.296875 68.40625 3.59375 61.90625 3.59375 
L 61.5 3.59375 
L 61.5 0 
L 86.796875 0 
L 86.796875 3.59375 
L 86.40625 3.59375 
C 80 3.59375 78.90625 4.296875 78.90625 8.390625 
L 78.90625 12.28125 
L 78.90625 30.640625 
C 78.90625 36.828125 78.296875 38.921875 75.703125 42.3125 
C 72.796875 46.015625 68.703125 48 63.90625 48 
C 57.40625 48 52.59375 44.9375 48.296875 38.109375 
C 46.59375 44.046875 41.203125 48 34.5 48 
C 28.5 48 24 45.140625 20.09375 38.921875 
z
" id="Century_Schoolbook_L_Roman-109"/>
      <path d="M 46.5 23 
C 46.59375 37.8125 38.09375 48.28125 25.90625 48.28125 
C 13.09375 48.28125 3.5 37.25 3.5 22.34375 
C 3.5 8.4375 12.59375 -1 26.09375 -1 
C 35.59375 -1 42.40625 3.6875 46.5 13.1875 
L 43 15.09375 
C 38.90625 7.390625 34.703125 4.390625 28 4.390625 
C 22.90625 4.390625 19.203125 6.59375 16.59375 11 
C 14.796875 14 14 17.5 14.09375 23 
z
M 14.203125 27.296875 
C 14.203125 30.34375 14.59375 32.5 15.59375 35.25 
C 17.703125 41.140625 20.90625 44 25.703125 44 
C 31.796875 44 35.796875 38.78125 35.796875 30.921875 
C 35.796875 28.078125 34.90625 27.296875 31.703125 27.296875 
z
" id="Century_Schoolbook_L_Roman-101"/>
      <path d="M 27.90625 73.453125 
C 21.90625 69.765625 18.703125 67.171875 15.296875 63.171875 
C 7.703125 54.1875 3.59375 42.71875 3.59375 30.640625 
C 3.59375 19.265625 7.203125 8.578125 13.90625 -0.296875 
C 17.703125 -5.09375 21.09375 -8.078125 27.90625 -12.28125 
L 27.90625 -8.578125 
C 17.90625 0.203125 13.90625 11.484375 13.90625 30.640625 
C 13.90625 49.796875 17.90625 60.984375 27.90625 69.765625 
z
" id="Century_Schoolbook_L_Roman-40"/>
      <path d="M 39 48 
L 35.5 48 
L 32.59375 44.40625 
C 29 47.203125 25.40625 48.390625 20.40625 48.390625 
C 11.59375 48.390625 5.796875 42.625 5.796875 33.953125 
C 5.796875 30.078125 7.09375 26.78125 9.296875 24.8125 
C 11.59375 22.703125 13.90625 21.71875 19.90625 20.3125 
L 25.203125 19.125 
C 33.09375 17.234375 35.90625 15.234375 35.90625 11.265625 
C 35.90625 6.578125 31.796875 3.296875 25.90625 3.296875 
C 17.5 3.296875 11.5 8.765625 9.09375 18.875 
L 5.09375 18.875 
L 5.09375 0 
L 8.59375 0 
L 12.09375 3.90625 
C 16.203125 0.59375 20.796875 -1 25.796875 -1 
C 35.59375 -1 42.09375 5.078125 42.09375 14.34375 
C 42.09375 18.71875 40.703125 22.09375 37.90625 24.390625 
C 35.5 26.484375 33.5 27.28125 27.40625 28.5625 
L 22.40625 29.671875 
C 16.90625 30.859375 16.90625 30.859375 15.09375 31.859375 
C 12.90625 32.859375 11.59375 34.9375 11.59375 37.140625 
C 11.59375 41.109375 15.40625 44 20.90625 44 
C 24.703125 44 27.796875 42.703125 30.59375 40.015625 
C 32.796875 37.8125 33.90625 35.828125 35.5 31.234375 
L 39 31.234375 
z
" id="Century_Schoolbook_L_Roman-115"/>
      <path d="M 5.40625 -12.28125 
C 11.40625 -8.578125 14.59375 -5.984375 18 -1.890625 
C 25.59375 6.984375 29.703125 18.5625 29.703125 30.640625 
C 29.703125 42.015625 26.09375 52.703125 19.40625 61.484375 
C 15.59375 66.375 12.203125 69.359375 5.40625 73.453125 
L 5.40625 69.765625 
C 15.40625 60.984375 19.40625 49.796875 19.40625 30.640625 
C 19.40625 11.375 15.40625 0.203125 5.40625 -8.578125 
z
" id="Century_Schoolbook_L_Roman-41"/>
     </defs>
     <g transform="translate(214.63516 273.24577)scale(0.18 -0.18)">
      <use transform="translate(0 -0.29235)scale(0.996264)" xlink:href="#Century_Schoolbook_L_Roman-84"/>
      <use transform="translate(66.450031 -0.29235)scale(0.996264)" xlink:href="#Century_Schoolbook_L_Roman-105"/>
      <use transform="translate(97.831344 -0.29235)scale(0.996264)" xlink:href="#Century_Schoolbook_L_Roman-109"/>
      <use transform="translate(186.398251 -0.29235)scale(0.996264)" xlink:href="#Century_Schoolbook_L_Roman-101"/>
      <use transform="translate(263.906621 -0.29235)scale(0.996264)" xlink:href="#Century_Schoolbook_L_Roman-40"/>
      <use transform="translate(297.081851 -0.29235)scale(0.996264)" xlink:href="#Century_Schoolbook_L_Roman-115"/>
      <use transform="translate(343.207661 -0.29235)scale(0.996264)" xlink:href="#Century_Schoolbook_L_Roman-41"/>
     </g>
    </g>
   </g>
   <g id="matplotlib.axis_2">
    <g id="ytick_1">
     <g id="line2d_6">
      <defs>
       <path d="M 0 0 
L -3.5 0 
" id="mc35abc237d" style="stroke:#000000;stroke-width:0.8;"/>
      </defs>
      <g>
       <use style="stroke:#000000;stroke-width:0.8;" x="79.79325" xlink:href="#mc35abc237d" y="230.88"/>
      </g>
     </g>
     <g id="text_7">
      <!-- $-200$ -->
      <defs>
       <path d="M 65.90625 23 
C 67.59375 23 69.40625 23 69.40625 25 
C 69.40625 27 67.59375 27 65.90625 27 
L 11.796875 27 
C 10.09375 27 8.296875 27 8.296875 25 
C 8.296875 23 10.09375 23 11.796875 23 
z
" id="CMSY10-0"/>
      </defs>
      <g transform="translate(34.02782 237.548975)scale(0.18 -0.18)">
       <use transform="translate(0 -0.031134)scale(0.996264)" xlink:href="#CMSY10-0"/>
       <use transform="translate(77.487468 -0.031134)scale(0.996264)" xlink:href="#CMR17-50"/>
       <use transform="translate(123.177945 -0.031134)scale(0.996264)" xlink:href="#CMR17-48"/>
       <use transform="translate(168.868422 -0.031134)scale(0.996264)" xlink:href="#CMR17-48"/>
      </g>
     </g>
    </g>
    <g id="ytick_2">
     <g id="line2d_7">
      <g>
       <use style="stroke:#000000;stroke-width:0.8;" x="79.79325" xlink:href="#mc35abc237d" y="183.283676"/>
      </g>
     </g>
     <g id="text_8">
      <!-- $0$ -->
      <g transform="translate(64.53812 189.952651)scale(0.18 -0.18)">
       <use transform="scale(0.996264)" xlink:href="#CMR17-48"/>
      </g>
     </g>
    </g>
    <g id="ytick_3">
     <g id="line2d_8">
      <g>
       <use style="stroke:#000000;stroke-width:0.8;" x="79.79325" xlink:href="#mc35abc237d" y="135.687353"/>
      </g>
     </g>
     <g id="text_9">
      <!-- $200$ -->
      <g transform="translate(48.02787 142.356328)scale(0.18 -0.18)">
       <use transform="scale(0.996264)" xlink:href="#CMR17-50"/>
       <use transform="translate(45.690477 0)scale(0.996264)" xlink:href="#CMR17-48"/>
       <use transform="translate(91.380954 0)scale(0.996264)" xlink:href="#CMR17-48"/>
      </g>
     </g>
    </g>
    <g id="ytick_4">
     <g id="line2d_9">
      <g>
       <use style="stroke:#000000;stroke-width:0.8;" x="79.79325" xlink:href="#mc35abc237d" y="88.091029"/>
      </g>
     </g>
     <g id="text_10">
      <!-- $400$ -->
      <g transform="translate(48.02787 94.760004)scale(0.18 -0.18)">
       <use transform="scale(0.996264)" xlink:href="#CMR17-52"/>
       <use transform="translate(45.690477 0)scale(0.996264)" xlink:href="#CMR17-48"/>
       <use transform="translate(91.380954 0)scale(0.996264)" xlink:href="#CMR17-48"/>
      </g>
     </g>
    </g>
    <g id="ytick_5">
     <g id="line2d_10">
      <g>
       <use style="stroke:#000000;stroke-width:0.8;" x="79.79325" xlink:href="#mc35abc237d" y="40.494705"/>
      </g>
     </g>
     <g id="text_11">
      <!-- $600$ -->
      <defs>
       <path d="M 10.59375 34 
C 10.59375 57.65625 21.796875 63 28.296875 63 
C 30.40625 63 35.5 62.640625 37.5 59 
C 35.90625 59 32.90625 59 32.90625 55.515625 
C 32.90625 52.828125 35.09375 51.921875 36.5 51.921875 
C 37.40625 51.921875 40.09375 52.3125 40.09375 55.625 
C 40.09375 61.78125 35.09375 65.296875 28.203125 65.296875 
C 16.296875 65.296875 3.796875 52.96875 3.796875 31 
C 3.796875 3.953125 15.09375 -2 23.09375 -2 
C 32.796875 -2 42 6.671875 42 20.046875 
C 42 32.515625 33.90625 41.59375 23.703125 41.59375 
C 17.59375 41.59375 13.09375 37.609375 10.59375 30.625 
z
M 23.09375 0.390625 
C 10.796875 0.390625 10.796875 18.75 10.796875 22.4375 
C 10.796875 29.625 14.203125 40 23.5 40 
C 25.203125 40 30.09375 40 33.40625 33.125 
C 35.203125 29.21875 35.203125 25.140625 35.203125 20.140625 
C 35.203125 14.75 35.203125 10.78125 33.09375 6.78125 
C 30.90625 2.671875 27.703125 0.390625 23.09375 0.390625 
z
" id="CMR17-54"/>
      </defs>
      <g transform="translate(48.02787 47.16368)scale(0.18 -0.18)">
       <use transform="scale(0.996264)" xlink:href="#CMR17-54"/>
       <use transform="translate(45.690477 0)scale(0.996264)" xlink:href="#CMR17-48"/>
       <use transform="translate(91.380954 0)scale(0.996264)" xlink:href="#CMR17-48"/>
      </g>
     </g>
    </g>
    <g id="text_12">
     <!-- Surface Speed -->
     <defs>
      <path d="M 54.59375 72 
L 50.90625 72 
L 46.90625 66.09375 
C 42.203125 70.59375 35.796875 73 28.703125 73 
C 15.59375 73 6.796875 64.609375 6.796875 52.15625 
C 6.796875 41.28125 12.203125 35.890625 26.90625 32.109375 
L 36.40625 29.703125 
C 43.796875 27.828125 44.5 27.625 46.59375 26.03125 
C 49.59375 23.734375 51.203125 20.4375 51.203125 16.546875 
C 51.203125 12.5625 49.703125 9.28125 46.703125 6.59375 
C 43.40625 3.6875 40.09375 2.59375 34.59375 2.59375 
C 27.203125 2.59375 21.90625 4.875 17.203125 10.03125 
C 13 14.703125 10.90625 19.375 9.40625 27 
L 5.09375 27 
L 5.5 -1.4375 
L 9.40625 -1.4375 
L 13.90625 5.46875 
C 20.59375 0 26.203125 -2 34.90625 -2 
C 49.59375 -2 59 6.59375 59 19.9375 
C 59 26.109375 56.90625 31.40625 53 35.203125 
C 50.296875 37.796875 46.40625 39.484375 38.40625 41.484375 
L 27.703125 44.171875 
C 18.796875 46.46875 14.59375 50.359375 14.59375 56.4375 
C 14.59375 63.40625 20.296875 68.203125 28.796875 68.203125 
C 35.796875 68.203125 41.5 65.1875 45.5 59.484375 
C 48.40625 55.375 50.203125 51.15625 51.5 46.046875 
L 55.796875 46.046875 
z
" id="Century_Schoolbook_L_Roman-83"/>
      <path d="M 41.203125 0 
L 59.40625 0 
L 59.40625 4.703125 
L 56.90625 4.703125 
C 51.40625 4.703125 50.59375 5.59375 50.59375 11.953125 
L 50.59375 46.78125 
L 31.796875 46.78125 
L 31.796875 42 
L 36.90625 42 
C 40.59375 42 41.203125 41.296875 41.203125 36.953125 
L 41.203125 24.5625 
C 41.203125 18.8125 40.59375 15.484375 39.09375 12.15625 
C 37 7.71875 33 5.09375 28.09375 5.09375 
C 25 5.09375 22.40625 6.1875 21.09375 8.171875 
C 19.796875 10.046875 19.59375 11.046875 19.59375 16.5 
L 19.59375 46.78125 
L 2.09375 46.78125 
L 2.09375 42 
L 5.90625 42 
C 9.59375 42 10.203125 41.296875 10.203125 36.953125 
L 10.203125 15.21875 
C 10.203125 10.078125 10.59375 7.765625 12.09375 5.453125 
C 14.796875 1.3125 19.59375 -1 25.59375 -1 
C 32.203125 -1 36.796875 1.71875 41.203125 8.125 
z
" id="Century_Schoolbook_L_Roman-117"/>
      <path d="M 19.796875 46 
L 2.09375 46 
L 2.09375 41.21875 
L 6.203125 41.21875 
C 9.90625 41.21875 10.5 40.515625 10.5 36.203125 
L 10.5 12.296875 
L 10.5 8.296875 
C 10.5 4.296875 9.40625 3.59375 2.90625 3.59375 
L 2.5 3.59375 
L 2.5 0 
L 29.203125 0 
L 29.203125 3.59375 
L 27.296875 3.59375 
C 20.90625 3.59375 19.796875 4.296875 19.796875 8.296875 
L 19.796875 12.296875 
L 19.796875 13.296875 
C 19.796875 20.8125 21.203125 28.40625 23.703125 34.109375 
C 26.09375 39.703125 29.5 42.8125 33.703125 43.3125 
C 32.296875 41.703125 31.90625 40.6875 31.90625 38.765625 
C 31.90625 35.546875 34.203125 33.234375 37.40625 33.234375 
C 41 33.234375 43.5 35.9375 43.5 40.015625 
C 43.5 44.8125 40.09375 48 34.796875 48 
C 28.5 48 23 42.921875 19.796875 34.140625 
z
" id="Century_Schoolbook_L_Roman-114"/>
      <path d="M 20.09375 46.296875 
L 20.09375 52.140625 
C 20.09375 57.265625 20.40625 60.65625 21.203125 62.71875 
C 22.796875 67.234375 26.296875 70 30.296875 70 
C 32.40625 70 33.703125 69.390625 33.703125 68.25 
C 33.703125 67.921875 33.59375 67.734375 33.09375 66.90625 
C 32.5 65.890625 32.203125 64.75 32.203125 63.625 
C 32.203125 60.546875 34.59375 58.203125 37.703125 58.203125 
C 41 58.203125 43.296875 60.734375 43.296875 64.40625 
C 43.296875 70.328125 38.296875 74 30.203125 74 
C 23.296875 74 18.296875 71.53125 14.703125 66.4375 
C 11.703125 62.140625 10.703125 57.734375 10.703125 49.46875 
L 10.703125 46.296875 
L 1.90625 46.296875 
L 1.90625 42 
L 10.703125 42 
L 10.703125 12.234375 
L 10.703125 8.25 
C 10.703125 4.296875 9.59375 3.59375 3.203125 3.59375 
L 2.796875 3.59375 
L 2.796875 0 
L 29.5 0 
L 29.5 3.59375 
L 27.703125 3.59375 
C 21.203125 3.59375 20.09375 4.296875 20.09375 8.25 
L 20.09375 12.234375 
L 20.09375 42 
L 31.09375 42 
L 31.09375 46.296875 
z
" id="Century_Schoolbook_L_Roman-102"/>
      <path d="M 45.203125 32.578125 
C 45.203125 38.796875 44.09375 41.96875 41.203125 44.34375 
C 37.90625 46.90625 33 48.28125 26.59375 48.28125 
C 15.40625 48.28125 7.09375 43.046875 7.09375 35.921875 
C 7.09375 32.15625 9.40625 29.78125 12.90625 29.78125 
C 16 29.78125 18.296875 31.859375 18.296875 34.8125 
C 18.296875 36.109375 17.796875 37.484375 16.796875 38.875 
C 16.203125 39.546875 16.09375 39.84375 16.09375 40.15625 
C 16.09375 42.21875 20.203125 44 25 44 
C 28.09375 44 31.59375 43.015625 33.203125 41.53125 
C 35.09375 39.953125 35.796875 37.578125 35.796875 33.125 
L 35.796875 29.28125 
C 25.296875 27.484375 22.09375 26.6875 17.203125 24.8125 
C 8.59375 21.609375 4.40625 16.9375 4.40625 10.65625 
C 4.40625 3.578125 10.09375 -1 18.90625 -1 
C 25.796875 -1 32 1.859375 36.296875 7.0625 
C 37.90625 1.984375 40.40625 0 45.09375 0 
C 49.59375 0 54.296875 2.890625 54.296875 5.78125 
C 54.296875 6.46875 53.796875 6.96875 53.296875 6.96875 
C 52.90625 6.96875 52.5 6.875 51.796875 6.578125 
C 50.203125 6 49.796875 5.890625 49 5.890625 
C 46.203125 5.890625 45.203125 7.78125 45.203125 12.71875 
z
M 35.796875 20.46875 
C 35.796875 14.46875 35.5 13.078125 33.796875 10.484375 
C 31.296875 6.78125 26.703125 4.296875 22.40625 4.296875 
C 17.90625 4.296875 14.5 7.59375 14.5 12.078125 
C 14.5 16.265625 16.59375 19.265625 21 21.359375 
C 24.09375 22.75 28 23.75 35.796875 25.046875 
z
" id="Century_Schoolbook_L_Roman-97"/>
      <path d="M 38.703125 15.125 
C 35.5 7.96875 32.09375 5.09375 26.90625 5.09375 
C 18.90625 5.09375 13.90625 12.328125 13.90625 23.9375 
C 13.90625 35.953125 18.796875 44 26.203125 44 
C 29.203125 44 31.796875 42.59375 31.796875 41.015625 
C 31.796875 40.71875 31.59375 40.421875 31.203125 39.8125 
C 29.59375 37.9375 29.203125 36.9375 29.203125 35.265625 
C 29.203125 31.984375 31.703125 29.703125 35.203125 29.703125 
C 38.703125 29.703125 41.296875 32.484375 41.296875 36.453125 
C 41.296875 43.109375 34.59375 48.28125 25.703125 48.28125 
C 12.703125 48.28125 3.40625 37.65625 3.40625 22.84375 
C 3.40625 8.734375 11.90625 -1 24.296875 -1 
C 33.203125 -1 38.296875 3.078125 42.59375 13.625 
z
" id="Century_Schoolbook_L_Roman-99"/>
      <path d="M 20.09375 46 
L 2.796875 46 
L 2.796875 41.21875 
L 6.40625 41.21875 
C 10.09375 41.21875 10.703125 40.515625 10.703125 36.21875 
L 10.703125 -7.75 
L 10.703125 -11.71875 
C 10.703125 -15.71875 9.59375 -16.40625 3.203125 -16.40625 
L 2.796875 -16.40625 
L 2.796875 -20 
L 28.796875 -20 
L 28.796875 -16.40625 
L 27.703125 -16.40625 
C 21.203125 -16.40625 20.09375 -15.71875 20.09375 -11.734375 
L 20.09375 -7.75 
L 20.09375 6.6875 
C 23.40625 0.90625 27.203125 -1.390625 33.296875 -1.390625 
C 44.90625 -1.390625 53.5 9.265625 53.5 23.5 
C 53.5 37.265625 44.90625 48 33.90625 48 
C 27.703125 48 23.59375 45.4375 20.09375 39.515625 
z
M 32.09375 42.609375 
C 39 42.609375 43 35.75 43 24.09375 
C 43 11.265625 38.90625 4 31.796875 4 
C 24.703125 4 20 11.375 20 22.8125 
C 20 35.140625 24.5 42.609375 32.09375 42.609375 
z
" id="Century_Schoolbook_L_Roman-112"/>
      <path d="M 38 0 
L 55.40625 0 
L 55.40625 4.703125 
L 53.59375 4.703125 
C 48.203125 4.703125 47.40625 5.703125 47.40625 11.96875 
L 47.40625 73.78125 
L 27.796875 73.78125 
L 27.796875 69 
L 33.703125 69 
C 37.296875 69 38 68.28125 38 63.921875 
L 38 41 
C 34.296875 46.09375 30 48.390625 24.203125 48.390625 
C 12.90625 48.390625 4.296875 37.546875 4.296875 23.203125 
C 4.296875 9.0625 12.59375 -1 24.203125 -1 
C 30.5 -1 34.796875 1.671875 38 7.59375 
z
M 26.203125 43 
C 30.296875 43 34.203125 40.03125 36 35.4375 
C 37.203125 32.453125 37.90625 28.28125 37.90625 23.515625 
C 37.90625 11.96875 33.296875 4.390625 26.09375 4.390625 
C 19.09375 4.390625 14.796875 10.96875 14.796875 22.015625 
C 14.796875 27.890625 15.40625 32.359375 16.703125 35.734375 
C 18.40625 40.125 22.09375 43 26.203125 43 
z
" id="Century_Schoolbook_L_Roman-100"/>
     </defs>
     <g transform="translate(25.33795 181.86556)rotate(-90)scale(0.18 -0.18)">
      <use transform="translate(0 -1.570628)scale(0.996264)" xlink:href="#Century_Schoolbook_L_Roman-83"/>
      <use transform="translate(62.763979 -1.570628)scale(0.996264)" xlink:href="#Century_Schoolbook_L_Roman-117"/>
      <use transform="translate(123.63561 -1.570628)scale(0.996264)" xlink:href="#Century_Schoolbook_L_Roman-114"/>
      <use transform="translate(167.869178 -1.570628)scale(0.996264)" xlink:href="#Century_Schoolbook_L_Roman-102"/>
      <use transform="translate(201.044408 -1.570628)scale(0.996264)" xlink:href="#Century_Schoolbook_L_Roman-97"/>
      <use transform="translate(256.436085 -1.570628)scale(0.996264)" xlink:href="#Century_Schoolbook_L_Roman-99"/>
      <use transform="translate(300.669654 -1.570628)scale(0.996264)" xlink:href="#Century_Schoolbook_L_Roman-101"/>
      <use transform="translate(378.178024 -1.570628)scale(0.996264)" xlink:href="#Century_Schoolbook_L_Roman-83"/>
      <use transform="translate(440.942003 -1.570628)scale(0.996264)" xlink:href="#Century_Schoolbook_L_Roman-112"/>
      <use transform="translate(498.12749 -1.570628)scale(0.996264)" xlink:href="#Century_Schoolbook_L_Roman-101"/>
      <use transform="translate(547.940691 -1.570628)scale(0.996264)" xlink:href="#Century_Schoolbook_L_Roman-101"/>
      <use transform="translate(597.753891 -1.570628)scale(0.996264)" xlink:href="#Century_Schoolbook_L_Roman-100"/>
     </g>
    </g>
   </g>
   <g id="line2d_11">
    <path clip-path="url(#pfb8cb236db)" d="M 79.79325 183.283676 
L 80.940544 183.283676 
L 81.05588 180.289208 
L 81.122654 180.289208 
L 81.23799 177.034352 
L 81.24406 177.034352 
L 81.359397 166.618811 
L 81.365467 166.618811 
L 81.480804 160.499681 
L 81.608281 160.499681 
L 81.723617 148.912392 
L 81.911797 148.912392 
L 82.033204 145.006565 
L 82.154611 145.006565 
L 82.269947 144.615982 
L 82.397424 144.615982 
L 82.512761 144.746176 
L 82.518831 144.746176 
L 82.634167 144.876371 
L 82.640238 144.876371 
L 82.761645 145.397148 
L 82.822348 145.397148 
L 82.949825 145.78773 
L 83.004458 145.78773 
L 83.119794 146.178313 
L 83.125865 146.178313 
L 83.241201 146.438702 
L 83.307975 146.438702 
L 83.429382 146.69909 
L 83.550788 146.69909 
L 83.666125 146.829284 
L 83.672195 146.829284 
L 83.793602 147.089673 
L 84.036415 147.089673 
L 84.151752 147.219867 
L 84.218525 147.219867 
L 84.333862 147.350061 
L 87.55721 147.350061 
L 87.672547 147.219867 
L 88.528464 147.219867 
L 88.643801 147.350061 
L 88.649871 147.350061 
L 88.765207 147.219867 
L 89.196201 147.219867 
L 89.311538 147.350061 
L 89.378311 147.350061 
L 89.493648 147.219867 
L 89.621125 147.219867 
L 89.736461 147.350061 
L 89.985345 147.350061 
L 90.100681 147.219867 
L 90.288862 147.219867 
L 90.349565 147.350061 
L 90.398128 147.219867 
L 91.442226 147.219867 
L 91.502929 147.350061 
L 91.551492 147.219867 
L 92.049259 147.219867 
L 92.164596 147.350061 
L 92.59559 147.350061 
L 92.710926 147.219867 
L 92.716996 147.219867 
L 92.832333 147.350061 
L 92.838403 147.350061 
L 92.95374 147.219867 
L 93.809657 147.219867 
L 93.924993 147.350061 
L 93.991767 147.350061 
L 94.107104 147.219867 
L 94.538097 147.219867 
L 94.598801 147.350061 
L 94.647363 147.219867 
L 94.963021 147.219867 
L 95.078357 147.350061 
L 95.448648 147.350061 
L 95.563984 147.219867 
L 95.691461 147.219867 
L 95.752165 147.350061 
L 95.800727 147.219867 
L 96.359198 147.219867 
L 96.474535 147.350061 
L 96.541308 147.350061 
L 96.656645 147.219867 
L 96.662715 147.219867 
L 96.778052 147.350061 
L 96.844825 147.350061 
L 96.960162 147.219867 
L 97.269749 147.219867 
L 97.385085 147.350061 
L 97.937486 147.350061 
L 97.998189 147.219867 
L 98.046752 147.350061 
L 98.180299 147.350061 
L 98.295636 147.219867 
L 98.544519 147.219867 
L 98.605223 147.350061 
L 98.653786 147.219867 
L 98.848036 147.219867 
L 98.90874 147.350061 
L 98.957302 147.219867 
L 99.212257 147.219867 
L 99.327593 147.350061 
L 99.394367 147.350061 
L 99.509703 147.219867 
L 100.18351 147.219867 
L 100.298847 147.350061 
L 100.729841 147.350061 
L 100.845177 147.219867 
L 100.911951 147.219867 
L 101.027287 147.350061 
L 101.276171 147.350061 
L 101.391507 147.219867 
L 101.579688 147.219867 
L 101.695024 147.350061 
L 101.822501 147.350061 
L 101.937838 147.219867 
L 102.004611 147.219867 
L 102.119948 147.350061 
L 102.308128 147.350061 
L 102.368831 147.219867 
L 102.417394 147.350061 
L 102.550942 147.460045 
L 102.672348 148.449902 
L 102.733052 148.449902 
L 102.854458 150.532171 
L 102.981935 152.079491 
L 103.036569 152.079491 
L 103.157975 153.146465 
L 103.218679 152.801913 
L 103.267241 153.007083 
L 103.279382 153.007083 
L 103.394718 153.621223 
L 103.400789 153.621223 
L 103.461492 153.103371 
L 103.516125 153.205024 
L 103.522195 153.205024 
L 103.637532 154.015908 
L 103.643602 154.015908 
L 103.704306 153.472273 
L 103.710376 154.194087 
L 103.746798 154.194087 
L 103.765009 154.194087 
L 103.880345 154.415509 
L 103.886416 154.415509 
L 103.947119 153.904524 
L 103.995682 154.142039 
L 104.007822 154.142039 
L 104.068526 154.967538 
L 104.117088 154.464662 
L 104.129229 154.464662 
L 104.268847 155.889954 
L 104.311339 155.889954 
L 104.372043 154.908693 
L 104.420605 155.519149 
L 104.493449 155.519149 
L 104.626997 150.773874 
L 104.796966 150.789456 
L 104.857669 147.662783 
L 104.912302 147.6814 
L 104.918373 147.6814 
L 105.033709 146.662242 
L 105.03978 146.662242 
L 105.100483 145.99479 
L 105.155116 146.014847 
L 105.161186 146.014847 
L 105.276523 145.33771 
L 105.404 145.242305 
L 105.519336 145.210799 
L 105.58611 145.305008 
L 105.77429 145.56595 
L 105.828923 145.56595 
L 105.9564 145.994501 
L 106.253847 146.02653 
L 106.369183 146.531762 
L 106.375254 146.531762 
L 106.49059 146.698921 
L 106.49666 146.698921 
L 106.618067 146.909408 
L 106.757685 147.102985 
L 106.921584 147.102985 
L 107.03692 147.296403 
L 107.285804 147.391679 
L 107.40114 147.431737 
L 107.650024 147.518433 
L 107.765361 147.53843 
L 111.049413 147.606472 
L 111.164749 147.655757 
L 111.474336 147.757121 
L 111.589673 147.90243 
L 111.656446 147.90243 
L 111.71715 147.76874 
L 111.765712 147.86542 
L 111.838556 147.913761 
L 111.953893 148.058781 
L 112.08137 148.024845 
L 112.196706 147.849181 
L 112.26348 147.849181 
L 112.378816 148.047132 
L 112.566997 148.012927 
L 112.682333 147.770639 
L 112.688404 147.770639 
L 112.80374 147.924546 
L 112.99192 147.911121 
L 113.107257 147.674568 
L 113.17403 147.727579 
L 113.289367 147.843182 
L 113.477547 147.744219 
L 113.592884 147.583071 
L 113.598954 147.583071 
L 113.71429 147.758426 
L 113.902471 147.696907 
L 114.017807 147.579557 
L 114.084581 147.635451 
L 114.145284 147.748494 
L 114.199917 147.719914 
L 114.327394 147.680972 
L 114.442731 147.528769 
L 114.509505 147.528769 
L 114.624841 147.718939 
L 114.691615 147.668777 
L 114.752318 147.579571 
L 114.800881 147.639506 
L 114.995131 147.693947 
L 115.110468 147.750923 
L 115.116538 147.750923 
L 115.177242 147.606941 
L 115.225804 147.668294 
L 115.480758 147.731074 
L 115.541462 147.792848 
L 115.547532 147.715879 
L 115.590024 147.715879 
L 115.602165 147.715879 
L 115.662868 147.577846 
L 115.711431 147.70413 
L 116.209199 147.725776 
L 116.269902 147.816841 
L 116.318465 147.725757 
L 117.362563 147.675723 
L 117.423266 147.852345 
L 117.471829 147.774976 
L 118.57663 147.858425 
L 118.691966 147.909477 
L 119.001554 147.920341 
L 119.11689 147.786059 
L 119.365774 147.846852 
L 119.426477 147.931642 
L 119.432547 147.77776 
L 119.468969 147.77776 
L 119.729994 147.825842 
L 119.790697 147.914719 
L 119.83926 147.835915 
L 119.912104 147.881044 
L 120.02744 147.986777 
L 120.094214 147.986777 
L 120.154917 147.846449 
L 120.20348 147.938704 
L 121.247578 148.044101 
L 121.308281 148.097462 
L 121.314352 147.956727 
L 121.344703 147.956727 
L 121.672502 147.994027 
L 121.787838 148.114643 
L 122.765162 148.105314 
L 122.880499 148.263499 
L 122.886569 148.263499 
L 122.947272 148.115659 
L 123.001905 148.15611 
L 123.068679 148.15611 
L 123.184015 148.308597 
L 123.190086 148.308597 
L 123.250789 148.172572 
L 123.299352 148.30767 
L 123.372196 148.313838 
L 123.432899 148.186044 
L 123.43897 148.46632 
L 123.475392 148.46632 
L 123.493603 148.46632 
L 123.608939 148.343751 
L 123.615009 148.343751 
L 123.675713 148.224308 
L 123.730346 148.253354 
L 123.736416 148.253354 
L 123.797119 148.399705 
L 123.851752 148.386965 
L 124.222043 148.351792 
L 124.337379 148.51052 
L 124.70767 148.455329 
L 124.823006 148.651753 
L 124.829077 148.651753 
L 124.88978 148.504231 
L 124.944413 148.521344 
L 124.950483 148.521344 
L 125.06582 148.704595 
L 125.07189 148.704595 
L 125.132593 148.549129 
L 125.138664 148.779185 
L 125.175086 148.779185 
L 125.254 148.779185 
L 125.369337 148.633917 
L 125.375407 148.633917 
L 125.43611 148.833047 
L 125.484673 148.665094 
L 125.557517 148.708526 
L 125.61822 148.916766 
L 125.666783 148.744326 
L 125.861034 148.818743 
L 125.97637 149.107224 
L 125.982441 149.107224 
L 126.043144 148.913423 
L 126.049214 149.14811 
L 126.091707 149.14811 
L 126.164551 149.187213 
L 126.225254 148.997781 
L 126.231324 149.245063 
L 126.273817 149.245063 
L 126.407364 149.301414 
L 126.468067 149.119737 
L 126.474138 149.64073 
L 126.504489 149.64073 
L 126.528771 149.64073 
L 126.589474 149.439271 
L 126.638037 149.50426 
L 126.710881 149.50426 
L 126.771584 149.292079 
L 126.820147 149.361538 
L 126.832288 149.361538 
L 126.892991 149.653051 
L 126.941554 149.439126 
L 127.014398 149.508943 
L 127.129734 149.608566 
L 127.135804 149.608566 
L 127.251141 149.928927 
L 127.317915 149.882933 
L 127.378618 150.22418 
L 127.427181 150.041842 
L 127.439321 150.041842 
L 127.560728 150.62793 
L 127.621431 150.491444 
L 127.627502 150.765309 
L 127.663924 150.765309 
L 127.742838 150.765309 
L 127.864245 151.483573 
L 127.924948 151.441904 
L 128.052425 152.719526 
L 128.228465 152.77159 
L 128.349872 153.744847 
L 128.544123 155.052442 
L 128.592685 155.052442 
L 128.714092 156.199356 
L 128.774795 156.199356 
L 128.890132 157.145466 
L 128.896202 157.145466 
L 129.011538 158.433407 
L 129.017609 158.433407 
L 129.132945 159.250074 
L 129.139016 159.250074 
L 129.254352 159.55207 
L 129.260422 159.55207 
L 129.387899 162.266021 
L 129.442532 162.266021 
L 129.557869 163.248812 
L 129.563939 163.248812 
L 129.679275 164.856554 
L 129.685346 164.856554 
L 129.800682 165.913433 
L 129.806753 165.913433 
L 129.922089 166.376024 
L 129.928159 166.376024 
L 130.061707 169.274083 
L 130.110269 169.274083 
L 130.225606 171.01892 
L 130.231676 171.01892 
L 130.365224 173.536882 
L 130.413786 173.536882 
L 130.529123 174.223553 
L 130.535193 174.223553 
L 130.650529 175.543065 
L 130.717303 175.543065 
L 130.869061 180.411953 
L 130.960116 180.411953 
L 131.075453 182.622604 
L 131.081523 182.622604 
L 131.20293 183.971132 
L 131.318266 180.304077 
L 131.324337 180.304077 
L 131.482165 149.717812 
L 131.56715 149.717812 
L 131.700698 104.523167 
L 131.74926 104.523167 
L 131.864597 69.804243 
L 131.870667 69.804243 
L 131.998144 41.207114 
L 132.11348 41.207114 
L 132.228817 32.021291 
L 132.234887 32.021291 
L 132.295591 31.16196 
L 132.344153 31.774166 
L 132.538404 31.774166 
L 132.65374 35.018929 
L 132.659811 35.018929 
L 132.775147 36.745981 
L 132.841921 36.745981 
L 132.957257 41.822465 
L 133.084734 41.822465 
L 133.200071 45.171898 
L 133.206141 45.171898 
L 133.321477 46.951284 
L 133.448954 46.951284 
L 133.564291 52.394113 
L 133.691768 52.394113 
L 133.807104 56.057555 
L 133.813175 56.057555 
L 133.928511 57.941612 
L 133.995285 57.941612 
L 134.110621 61.814394 
L 134.116691 61.814394 
L 134.232028 63.803119 
L 134.298802 63.803119 
L 134.414138 67.885241 
L 134.420208 67.885241 
L 134.535545 69.926302 
L 134.602318 69.926302 
L 134.717655 76.363493 
L 134.905835 76.363493 
L 135.021172 83.167029 
L 135.148649 83.167029 
L 135.263985 88.034174 
L 135.270055 88.034174 
L 135.385392 90.493914 
L 135.512869 90.493914 
L 135.628205 98.448817 
L 135.755682 98.448817 
L 135.871019 106.979405 
L 135.998496 106.979405 
L 136.113832 113.154922 
L 136.180606 113.154922 
L 136.295942 116.34735 
L 136.302013 116.34735 
L 136.417349 123.150886 
L 136.423419 123.150886 
L 136.538756 126.814329 
L 136.666233 126.814329 
L 136.781569 138.013995 
L 136.96975 138.013995 
L 137.085086 140.4214 
L 137.091156 140.4214 
L 137.206493 146.021234 
L 137.273266 146.021234 
L 137.388603 146.778932 
L 137.394673 146.778932 
L 137.51001 147.778411 
L 137.576783 147.815123 
L 137.69212 148.148042 
L 137.69819 148.148042 
L 137.819597 148.464321 
L 137.941003 148.520925 
L 137.947074 148.505683 
L 138.24452 148.446809 
L 138.359857 148.366825 
L 138.548037 148.298825 
L 138.663374 148.108302 
L 138.790851 148.072068 
L 138.851554 147.958966 
L 138.900117 147.998161 
L 139.033664 147.925448 
L 139.149 147.793068 
L 139.519291 147.725666 
L 139.634627 147.649927 
L 140.369138 147.591597 
L 140.484474 147.536882 
L 142.068832 147.583404 
L 142.184169 147.723531 
L 142.311646 147.816853 
L 142.426982 147.863657 
L 142.615163 147.910557 
L 142.730499 148.053765 
L 143.222196 148.123194 
L 143.337533 148.178598 
L 143.586416 148.150176 
L 143.64712 148.020702 
L 143.695682 148.070843 
L 143.768527 148.037024 
L 143.883863 147.922142 
L 144.254153 147.885939 
L 144.36949 147.780795 
L 145.225407 147.7127 
L 145.286111 147.641508 
L 145.334673 147.669093 
L 147.410728 147.671652 
L 147.471432 147.787408 
L 147.519994 147.6957 
L 147.774949 147.741687 
L 147.835652 147.808728 
L 147.841722 147.72098 
L 147.884215 147.72098 
L 149.171126 147.756973 
L 149.286462 147.836516 
L 151.295744 147.93511 
L 151.356447 147.951694 
L 151.362518 147.844738 
L 151.380729 147.844738 
L 151.477854 147.937079 
L 151.538557 147.958872 
L 151.544628 147.85654 
L 151.568909 147.85654 
L 151.781371 147.945301 
L 151.842074 147.975909 
L 151.848144 147.879839 
L 151.878496 147.879839 
L 152.145591 147.929348 
L 152.260927 148.029741 
L 152.266998 148.029741 
L 152.327701 147.911071 
L 152.382334 147.92655 
L 152.449108 147.945893 
L 152.509811 148.049692 
L 152.515881 147.937401 
L 152.558374 147.937401 
L 152.631218 147.963872 
L 152.691921 148.069718 
L 152.740484 147.962913 
L 152.874031 147.965411 
L 152.989368 148.082663 
L 153.845285 148.074287 
L 153.905989 148.197588 
L 153.912059 148.06806 
L 153.954551 148.06806 
L 154.088099 148.097969 
L 154.148802 148.226695 
L 154.197365 148.107116 
L 154.391615 148.121843 
L 154.452319 148.275595 
L 154.500881 148.167226 
L 154.573726 148.172168 
L 154.689062 148.310475 
L 154.695132 148.310475 
L 154.755836 148.183273 
L 154.810469 148.200587 
L 154.816539 148.200587 
L 154.931875 148.369638 
L 155.120056 148.369638 
L 155.235392 148.229122 
L 155.302166 148.286016 
L 155.362869 148.440414 
L 155.411432 148.319504 
L 155.484276 148.336249 
L 155.599612 148.522004 
L 155.605683 148.522004 
L 155.666386 148.369094 
L 155.672456 148.533128 
L 155.714949 148.533128 
L 156.152013 148.50079 
L 156.267349 148.70517 
L 156.27342 148.70517 
L 156.388756 148.549611 
L 156.45553 148.590735 
L 156.516233 148.782606 
L 156.564796 148.62057 
L 156.63764 148.641152 
L 156.752976 148.841841 
L 156.81975 148.879116 
L 156.880453 148.72128 
L 156.935086 148.738772 
L 156.941157 148.738772 
L 157.056493 149.011575 
L 157.062564 149.011575 
L 157.1779 148.818399 
L 157.305377 148.900955 
L 157.420713 149.198931 
L 157.426784 149.198931 
L 157.54212 149.011208 
L 157.54819 149.011208 
L 157.663527 149.320404 
L 157.669597 149.320404 
L 157.730301 149.121574 
L 157.784934 149.159747 
L 157.791004 149.159747 
L 157.90634 149.49843 
L 157.973114 149.49843 
L 158.033817 149.290071 
L 158.08238 149.364369 
L 158.094521 149.364369 
L 158.209857 149.749592 
L 158.215927 149.749592 
L 158.331264 149.54052 
L 158.337334 149.54052 
L 158.452671 149.951063 
L 158.458741 149.951063 
L 158.574077 149.763492 
L 158.580148 149.763492 
L 158.713695 150.449168 
L 158.762258 150.449168 
L 158.822961 150.673794 
L 158.871524 150.555656 
L 158.883664 150.555656 
L 159.005071 151.221393 
L 159.065775 151.162745 
L 159.071845 151.536685 
L 159.083986 151.536685 
L 159.187181 151.536685 
L 159.247885 151.943957 
L 159.302518 151.94239 
L 159.308588 151.94239 
L 159.436065 153.331947 
L 159.551401 153.422549 
L 159.666738 153.969749 
L 159.672808 153.969749 
L 159.788145 154.563602 
L 159.794215 154.563602 
L 159.909551 155.190097 
L 159.915622 155.190097 
L 160.049169 157.076235 
L 160.097732 157.076235 
L 160.213068 158.081487 
L 160.279842 158.081487 
L 160.407319 159.730228 
L 160.461952 159.730228 
L 160.577288 161.160185 
L 160.765469 161.160185 
L 160.941509 165.056871 
L 160.947579 165.056871 
L 161.062915 165.496649 
L 161.068986 165.496649 
L 161.184322 167.199975 
L 161.190392 167.199975 
L 161.305729 168.835952 
L 161.311799 168.835952 
L 161.427135 169.47939 
L 161.433206 169.47939 
L 161.560683 173.148372 
L 161.615316 173.148372 
L 161.736723 174.438703 
L 161.797426 174.438703 
L 161.912762 176.404584 
L 161.918833 176.404584 
L 162.034169 178.498856 
L 162.040239 178.498856 
L 162.155576 179.189265 
L 162.161646 179.189265 
L 162.283053 182.100974 
L 162.40446 183.587752 
L 162.465163 183.970908 
L 162.471233 182.749926 
L 162.501585 182.749926 
L 162.525866 182.749926 
L 162.641203 176.63635 
L 162.647273 176.63635 
L 162.762609 171.738524 
L 162.829383 171.738524 
L 162.95686 104.548847 
L 163.011493 104.548847 
L 163.12683 69.804243 
L 163.1329 69.804243 
L 163.248236 60.083748 
L 163.254307 60.083748 
L 163.369643 41.207114 
L 163.375713 41.207114 
L 163.49105 32.021291 
L 163.49712 32.021291 
L 163.557824 32.385719 
L 163.563894 31.826501 
L 163.600316 31.826501 
L 163.67923 31.826501 
L 163.794567 33.448882 
L 163.86134 33.448882 
L 163.982747 36.798315 
L 164.104154 36.798315 
L 164.21949 41.8748 
L 164.286264 41.8748 
L 164.4016 43.549516 
L 164.407671 43.549516 
L 164.529077 47.055954 
L 164.650484 47.055954 
L 164.765821 50.719397 
L 164.771891 50.719397 
L 164.887227 52.551118 
L 164.893298 52.551118 
L 165.008634 54.382839 
L 165.014704 54.382839 
L 165.136111 58.098616 
L 165.257518 58.098616 
L 165.372854 61.971398 
L 165.378925 61.971398 
L 165.494261 63.960124 
L 165.561035 63.960124 
L 165.676371 68.042246 
L 165.682441 68.042246 
L 165.797778 70.083306 
L 165.864551 70.083306 
L 165.979888 76.520498 
L 166.168068 76.520498 
L 166.283405 83.376369 
L 166.410882 83.376369 
L 166.526218 88.243514 
L 166.532288 88.243514 
L 166.647625 90.755588 
L 166.775102 90.755588 
L 166.890438 98.710492 
L 167.078619 98.710492 
L 167.193955 101.484241 
L 167.260729 101.484241 
L 167.376065 113.521266 
L 167.442839 113.521266 
L 167.558175 116.766029 
L 167.624949 116.766029 
L 167.740285 127.337677 
L 167.928466 127.337677 
L 168.043802 138.328005 
L 168.171279 138.328005 
L 168.286616 142.619466 
L 168.292686 142.619466 
L 168.408022 144.137178 
L 168.414093 144.137178 
L 168.5355 146.178238 
L 168.650836 146.883381 
L 168.656906 146.883381 
L 168.778313 147.882023 
L 168.972564 148.375798 
L 169.08183 148.375798 
L 169.197166 148.53577 
L 169.567457 148.482852 
L 169.688863 148.286979 
L 169.870974 148.183196 
L 169.931677 148.107266 
L 169.98024 148.145606 
L 169.99238 148.145606 
L 170.107717 147.958443 
L 170.417304 147.903137 
L 170.544781 147.702834 
L 171.206448 147.601146 
L 171.267151 147.586708 
L 171.309643 147.629045 
L 172.541922 147.607235 
L 172.602625 147.509066 
L 172.651188 147.551386 
L 173.391769 147.584024 
L 173.507105 147.861273 
L 173.573879 147.768714 
L 173.634582 147.723033 
L 173.683145 147.770116 
L 173.755989 147.8172 
L 173.871325 148.04987 
L 174.302319 148.155556 
L 174.363023 148.203524 
L 174.411585 148.160852 
L 174.848649 148.103657 
L 174.963986 147.984917 
L 175.334276 147.940715 
L 175.449613 147.831637 
L 176.062717 147.729211 
L 176.12342 147.708586 
L 176.12949 147.763615 
L 176.165913 147.763615 
L 176.730454 147.723167 
L 176.84579 147.641077 
L 178.126631 147.672259 
L 178.187335 147.797833 
L 178.235897 147.739743 
L 180.797579 147.811296 
L 180.912916 147.857043 
L 182.922197 147.8799 
L 183.037533 147.975247 
L 183.589934 148.008724 
L 183.650637 147.820758 
L 183.656708 148.026417 
L 183.6992 148.026417 
L 184.561188 148.127124 
L 184.621891 148.150516 
L 184.627962 148.033705 
L 184.646173 148.033705 
L 184.743298 148.033705 
L 184.858634 148.153913 
L 185.532442 148.260434 
L 185.593145 148.276804 
L 185.599215 148.137357 
L 185.605286 148.137357 
L 185.714552 148.137357 
L 185.829888 148.298639 
L 185.835959 148.298639 
L 185.896662 148.168244 
L 185.951295 148.17932 
L 185.957365 148.17932 
L 186.072702 148.339011 
L 186.139475 148.339011 
L 186.200179 148.220141 
L 186.206249 148.364621 
L 186.248741 148.364621 
L 186.746509 148.330982 
L 186.807212 148.490049 
L 186.855775 148.355208 
L 186.928619 148.363733 
L 187.043956 148.527767 
L 187.050026 148.527767 
L 187.110729 148.404491 
L 187.165362 148.430158 
L 187.353543 148.463897 
L 187.468879 148.675854 
L 187.474949 148.675854 
L 187.535653 148.513622 
L 187.590286 148.543888 
L 187.65706 148.543888 
L 187.772396 148.776827 
L 187.778466 148.776827 
L 187.893803 148.614731 
L 187.960576 148.635249 
L 188.02128 148.87315 
L 188.069842 148.715251 
L 188.081983 148.715251 
L 188.197319 148.923879 
L 188.264093 148.946198 
L 188.324797 148.785824 
L 188.330867 149.004173 
L 188.367289 149.004173 
L 188.446203 149.056156 
L 188.56154 148.874561 
L 188.689017 148.913379 
L 188.74972 149.191161 
L 188.798283 149.00334 
L 188.93183 149.05735 
L 188.992534 149.374717 
L 189.041096 149.170233 
L 189.11394 149.170233 
L 189.229277 149.508355 
L 189.29605 149.508355 
L 189.356754 149.298319 
L 189.362824 149.665871 
L 189.399246 149.665871 
L 189.417457 149.665871 
L 189.47816 149.436785 
L 189.484231 149.739455 
L 189.520653 149.739455 
L 189.660271 149.841995 
L 189.720974 149.957281 
L 189.727044 149.752868 
L 189.763466 149.752868 
L 189.781677 149.752868 
L 189.897014 150.244867 
L 189.963787 150.244867 
L 190.024491 150.084392 
L 190.030561 150.662667 
L 190.054842 150.662667 
L 190.085194 150.662667 
L 190.145898 150.544362 
L 190.151968 150.823521 
L 190.18232 150.823521 
L 190.267304 150.823521 
L 190.328008 151.209932 
L 190.382641 151.151121 
L 190.388711 151.151121 
L 190.516188 152.363535 
L 190.692228 152.396649 
L 190.819705 153.859472 
L 190.935041 153.957214 
L 191.056448 155.023732 
L 191.214277 156.340512 
L 191.238558 156.340512 
L 191.353894 156.548864 
L 191.481372 156.548864 
L 191.620989 159.403397 
L 191.663482 159.403397 
L 191.778818 160.590845 
L 191.784888 160.590845 
L 191.906295 162.063952 
L 191.966998 162.063952 
L 192.106616 164.010307 
L 192.149109 164.010307 
L 192.276586 165.486335 
L 192.331219 165.486335 
L 192.446555 167.183789 
L 192.452625 167.183789 
L 192.586173 169.463928 
L 192.634735 169.463928 
L 192.750072 170.653592 
L 192.756142 170.653592 
L 192.871479 171.210645 
L 192.877549 171.210645 
L 193.005026 175.051562 
L 193.059659 175.051562 
L 193.193206 177.772245 
L 193.241769 177.772245 
L 193.375317 180.624301 
L 193.484583 180.624301 
L 193.61813 183.583278 
L 193.666693 183.583278 
L 193.727396 183.971132 
L 193.733466 182.749752 
L 193.763818 182.749752 
L 193.788099 182.749752 
L 193.921647 171.738524 
L 194.030913 171.738524 
L 194.146249 139.944949 
L 194.213023 139.944949 
L 194.3405 69.804243 
L 194.395133 69.804243 
L 194.52261 41.254727 
L 194.637947 41.254727 
L 194.759353 32.021291 
L 194.87469 32.385719 
L 194.941463 32.385719 
L 195.002167 31.774166 
L 195.008237 33.448882 
L 195.038589 33.448882 
L 195.06287 33.448882 
L 195.178206 35.071264 
L 195.184277 35.071264 
L 195.305684 38.525367 
L 195.366387 38.525367 
L 195.481723 40.200083 
L 195.6092 40.200083 
L 195.724537 45.276568 
L 195.79131 45.276568 
L 195.912717 48.887675 
L 195.973421 48.887675 
L 196.088757 50.667062 
L 196.155531 50.667062 
L 196.270867 54.330504 
L 196.276937 54.330504 
L 196.392274 56.21456 
L 196.459047 56.21456 
L 196.574384 61.919063 
L 196.701861 61.919063 
L 196.817197 65.94885 
L 196.823268 65.94885 
L 196.938604 68.042246 
L 197.005378 68.042246 
L 197.120714 72.229037 
L 197.126785 72.229037 
L 197.242121 74.374767 
L 197.308895 74.374767 
L 197.424231 81.073634 
L 197.612411 81.073634 
L 197.727748 83.428704 
L 197.794522 83.428704 
L 197.909858 93.372333 
L 198.037335 93.372333 
L 198.152671 96.041412 
L 198.219445 96.041412 
L 198.334781 104.414995 
L 198.462259 104.414995 
L 198.577595 110.433508 
L 198.583665 110.433508 
L 198.699002 113.573601 
L 198.765775 113.573601 
L 198.881112 120.167797 
L 198.887182 120.167797 
L 199.002518 123.674235 
L 199.129996 123.674235 
L 199.245332 135.292581 
L 199.312106 135.292581 
L 199.433512 140.787745 
L 199.494216 140.787745 
L 199.609552 142.671801 
L 199.676326 142.671801 
L 199.791662 145.288545 
L 199.797733 145.288545 
L 199.919139 146.883381 
L 200.040546 147.829962 
L 200.240867 148.375798 
L 200.46547 148.484139 
L 200.586876 148.541514 
L 200.702213 148.446302 
L 200.890393 148.403537 
L 200.951097 148.287491 
L 201.00573 148.324877 
L 201.133207 148.298311 
L 201.248543 148.146124 
L 201.254613 148.146124 
L 201.36995 147.958443 
L 201.679537 147.903663 
L 201.794873 147.772712 
L 202.165164 147.707431 
L 202.2805 147.63249 
L 203.804155 147.559539 
L 203.864858 147.509628 
L 203.913421 147.551948 
L 204.411188 147.538886 
L 204.526525 147.676763 
L 204.896815 147.72346 
L 205.012152 147.956313 
L 205.321739 148.054463 
L 205.437075 148.103063 
L 206.414399 147.996695 
L 206.475103 147.920352 
L 206.523665 147.971661 
L 206.839323 147.927994 
L 206.954659 147.778971 
L 207.68917 147.727623 
L 207.804506 147.639626 
L 209.631678 147.735707 
L 209.692381 147.755018 
L 209.698451 147.69997 
L 209.734873 147.69997 
L 211.574185 147.791648 
L 211.634889 147.829051 
L 211.640959 147.75625 
L 211.677381 147.75625 
L 212.484736 147.801368 
L 212.545439 147.881365 
L 212.55151 147.784751 
L 212.594002 147.784751 
L 212.848956 147.819514 
L 212.964292 147.902474 
L 214.91287 147.924011 
L 214.973574 148.026417 
L 215.028207 148.016176 
L 216.005531 148.034608 
L 216.120867 148.183711 
L 216.126938 148.183711 
L 216.187641 148.072382 
L 216.193711 148.192164 
L 216.236204 148.192164 
L 216.309048 148.177096 
L 216.369751 148.071505 
L 216.424384 148.092523 
L 216.491158 148.092523 
L 216.606494 148.217474 
L 216.612565 148.217474 
L 216.673268 148.095129 
L 216.679338 148.222909 
L 216.721831 148.222909 
L 217.341005 148.1976 
L 217.456341 148.365624 
L 217.462412 148.365624 
L 217.523115 148.251998 
L 217.529186 148.546144 
L 217.559537 148.546144 
L 217.644522 148.546144 
L 217.765929 148.281875 
L 217.826632 148.282907 
L 217.941968 148.473039 
L 218.008742 148.473039 
L 218.069445 148.332035 
L 218.124079 148.35627 
L 218.130149 148.35627 
L 218.245485 148.529911 
L 218.251556 148.529911 
L 218.312259 148.406654 
L 218.318329 148.574222 
L 218.354751 148.574222 
L 218.433666 148.603596 
L 218.494369 148.44372 
L 218.549002 148.466121 
L 218.615776 148.466121 
L 218.676479 148.642888 
L 218.725042 148.497423 
L 218.797886 148.515888 
L 218.858589 148.700637 
L 218.907152 148.546177 
L 219.040699 148.587267 
L 219.156036 148.81326 
L 219.162106 148.81326 
L 219.277442 148.63761 
L 219.344216 148.691988 
L 219.40492 148.926291 
L 219.453482 148.755062 
L 219.465623 148.755062 
L 219.580959 149.00664 
L 219.58703 149.00664 
L 219.702366 148.814653 
L 219.708436 148.814653 
L 219.823773 149.086675 
L 219.829843 149.086675 
L 219.890546 148.895838 
L 219.945179 148.951602 
L 219.95125 148.951602 
L 220.066586 149.255122 
L 220.13336 149.255122 
L 220.194063 149.061335 
L 220.200134 149.31509 
L 220.242626 149.31509 
L 220.31547 149.37741 
L 220.376173 149.172963 
L 220.430806 149.235583 
L 220.436877 149.235583 
L 220.49758 149.511125 
L 220.546143 149.302533 
L 220.67969 149.358663 
L 220.795027 149.7438 
L 220.801097 149.7438 
L 220.8618 149.533167 
L 220.910363 149.639104 
L 220.922504 149.639104 
L 220.983207 149.960269 
L 221.03177 149.757422 
L 221.04391 149.757422 
L 221.159247 149.905707 
L 221.165317 149.905707 
L 221.280653 150.44134 
L 221.286724 150.44134 
L 221.40206 150.301854 
L 221.468834 150.301854 
L 221.590241 151.154442 
L 221.650944 151.154442 
L 221.772351 151.937225 
L 221.833054 151.949311 
L 221.954461 152.816762 
L 222.154782 153.852345 
L 222.197274 153.852345 
L 222.312611 154.556356 
L 222.318681 154.556356 
L 222.446158 156.34607 
L 222.561494 156.34607 
L 222.713253 157.803522 
L 222.743605 157.803522 
L 222.858941 158.065894 
L 222.865011 158.065894 
L 222.992488 160.261722 
L 223.047121 160.261722 
L 223.162458 161.50292 
L 223.168528 161.50292 
L 223.296005 163.426572 
L 223.411342 163.426572 
L 223.538819 165.488139 
L 223.593452 165.488139 
L 223.708788 167.186335 
L 223.714858 167.186335 
L 223.830195 168.828731 
L 223.836265 168.828731 
L 223.951602 169.472397 
L 223.957672 169.472397 
L 224.079079 171.884599 
L 224.212626 174.432653 
L 224.321892 174.432653 
L 224.455439 177.113065 
L 224.504002 177.113065 
L 224.619339 179.191058 
L 224.625409 179.191058 
L 224.740745 181.373101 
L 224.807519 181.373101 
L 224.922855 182.104758 
L 224.928926 182.104758 
L 225.044262 183.971132 
L 225.050332 183.971132 
L 225.17781 171.738524 
L 225.293146 171.738524 
L 225.420623 128.955887 
L 225.475256 128.955887 
L 225.590592 116.773513 
L 225.596663 116.773513 
L 225.718069 69.804243 
L 225.833406 45.74516 
L 225.839476 45.74516 
L 225.954813 36.49322 
L 225.960883 36.49322 
L 226.076219 31.213967 
L 226.142993 31.213967 
L 226.258329 31.826501 
L 226.2644 31.826501 
L 226.385807 35.123599 
L 226.44651 35.123599 
L 226.561846 36.798315 
L 226.689323 36.798315 
L 226.80466 41.927135 
L 226.932137 41.927135 
L 227.047473 47.055954 
L 227.235654 47.055954 
L 227.35099 50.719397 
L 227.35706 50.719397 
L 227.472397 52.551118 
L 227.53917 52.551118 
L 227.654507 56.266895 
L 227.781984 56.266895 
L 227.89732 58.150951 
L 227.903391 58.150951 
L 228.018727 64.012459 
L 228.024797 64.012459 
L 228.146204 68.09458 
L 228.267611 68.09458 
L 228.382947 72.281372 
L 228.449721 72.281372 
L 228.565057 74.427102 
L 228.571128 74.427102 
L 228.686464 78.823233 
L 228.692534 78.823233 
L 228.807871 81.125968 
L 228.935348 81.125968 
L 229.050684 88.348183 
L 229.178161 88.348183 
L 229.293498 93.424668 
L 229.299568 93.424668 
L 229.414904 96.093747 
L 229.481678 96.093747 
L 229.597015 104.519665 
L 229.785195 104.519665 
L 229.900531 113.678271 
L 230.088712 113.678271 
L 230.204048 123.83124 
L 230.331525 123.83124 
L 230.446862 131.576804 
L 230.452932 131.576804 
L 230.568268 135.449586 
L 230.635042 135.449586 
L 230.750378 142.77647 
L 230.938559 142.77647 
L 231.053895 146.230573 
L 231.120669 146.230573 
L 231.242076 147.480099 
L 231.357412 147.918628 
L 231.424186 147.918628 
L 231.539522 148.39086 
L 231.606296 148.427087 
L 231.666999 148.550726 
L 231.721632 148.535267 
L 232.091923 148.482345 
L 232.21333 148.338069 
L 232.274033 148.375401 
L 232.280103 148.246872 
L 232.310455 148.246872 
L 232.516846 148.220854 
L 232.632183 148.070507 
L 232.638253 148.070507 
L 232.698956 147.957921 
L 232.747519 147.997116 
L 232.820363 147.924398 
L 232.881067 147.863135 
L 232.929629 147.90261 
L 233.063177 147.832183 
L 233.184583 147.702302 
L 233.245287 147.724598 
L 233.251357 147.665677 
L 233.287779 147.665677 
L 234.216541 147.589956 
L 234.277244 147.535236 
L 234.325807 147.578588 
L 235.976938 147.58226 
L 236.092275 147.815139 
L 236.098345 147.815139 
L 236.213681 148.000754 
L 236.583972 148.099126 
L 236.699308 148.147603 
L 237.494522 148.102482 
L 237.555226 148.028303 
L 237.603788 148.078571 
L 237.615929 148.078571 
L 237.731265 147.919158 
L 238.101556 147.882922 
L 238.216892 147.777756 
L 239.012106 147.7102 
L 239.127443 147.638999 
L 239.315623 147.653107 
L 239.376327 147.76732 
L 239.424889 147.69807 
L 242.897122 147.752734 
L 243.012458 147.826891 
L 245.325256 147.862875 
L 245.38596 147.955646 
L 245.440593 147.947393 
L 246.417917 147.96485 
L 246.47862 148.174399 
L 246.527183 148.066276 
L 247.328467 148.063805 
L 247.389171 148.181895 
L 247.395241 148.041761 
L 247.437734 148.041761 
L 247.510578 148.05367 
L 247.625914 148.175254 
L 248.299721 148.270761 
L 248.360425 148.298639 
L 248.366495 148.167263 
L 248.390776 148.167263 
L 248.421128 148.167263 
L 248.481831 148.443879 
L 248.530394 148.318682 
L 248.603238 148.318682 
L 248.663942 148.195608 
L 248.718575 148.219138 
L 248.724645 148.219138 
L 248.839981 148.37074 
L 249.453085 148.387013 
L 249.568422 148.552004 
L 249.574492 148.552004 
L 249.635195 148.40341 
L 249.689828 148.406269 
L 249.695899 148.406269 
L 249.811235 148.615519 
L 249.817305 148.615519 
L 249.878009 148.462786 
L 249.884079 148.640665 
L 249.926572 148.640665 
L 250.181526 148.565435 
L 250.296862 148.775671 
L 250.424339 148.809756 
L 250.485042 148.634069 
L 250.491113 148.834758 
L 250.533605 148.834758 
L 250.667153 148.871957 
L 250.727856 148.714045 
L 250.733926 148.944978 
L 250.770348 148.944978 
L 250.788559 148.944978 
L 250.849263 148.784591 
L 250.855333 149.002939 
L 250.891755 149.002939 
L 250.970669 149.054909 
L 251.031373 148.873298 
L 251.037443 149.103122 
L 251.079935 149.103122 
L 251.213483 149.147339 
L 251.274186 148.967542 
L 251.328819 149.002029 
L 251.33489 149.002029 
L 251.450226 149.311104 
L 251.517 149.311104 
L 251.577703 149.112149 
L 251.632336 149.168868 
L 251.638406 149.168868 
L 251.753743 149.506971 
L 251.759813 149.506971 
L 251.820517 149.296914 
L 251.826587 149.582092 
L 251.863009 149.582092 
L 252.124033 149.664445 
L 252.23937 149.435337 
L 252.24544 149.435337 
L 252.360776 150.08373 
L 252.366847 150.08373 
L 252.42755 149.901082 
L 252.476113 150.082826 
L 252.488254 150.082826 
L 252.548957 150.436643 
L 252.59752 150.295496 
L 252.60966 150.295496 
L 252.724997 150.542748 
L 252.731067 150.542748 
L 252.846403 151.208294 
L 252.913177 151.149461 
L 253.034584 151.932176 
L 253.095287 151.930452 
L 253.216694 152.811581 
L 253.380593 153.395771 
L 253.398804 153.395771 
L 253.520211 154.419189 
L 253.665899 155.165802 
L 253.702321 155.165802 
L 253.829798 156.540065 
L 253.884431 156.540065 
L 254.011908 158.052209 
L 254.066541 158.052209 
L 254.181877 158.860743 
L 254.187948 158.860743 
L 254.315425 160.577564 
L 254.370058 160.577564 
L 254.485394 161.492745 
L 254.491465 161.492745 
L 254.606801 163.019779 
L 254.612871 163.019779 
L 254.728208 164.431167 
L 254.734278 164.431167 
L 254.861755 166.086479 
L 254.916388 166.086479 
L 255.062076 168.820642 
L 255.098498 168.820642 
L 255.232046 171.219377 
L 255.280608 171.219377 
L 255.395945 171.884949 
L 255.402015 171.884949 
L 255.535562 174.43317 
L 255.584125 174.43317 
L 255.699462 176.406526 
L 255.766235 176.406526 
L 255.881572 178.505898 
L 255.887642 178.505898 
L 256.002978 180.642984 
L 256.009049 180.642984 
L 256.124385 182.859539 
L 256.130455 182.859539 
L 256.245792 183.606254 
L 256.251862 183.606254 
L 256.312566 183.971357 
L 256.440043 171.738524 
L 256.555379 171.738524 
L 256.682856 128.938179 
L 256.737489 128.938179 
L 256.852825 92.383515 
L 256.919599 92.383515 
L 257.053147 45.74516 
L 257.101709 45.74516 
L 257.229186 32.072497 
L 257.283819 32.072497 
L 257.399156 32.385719 
L 257.405226 32.385719 
L 257.465929 31.213967 
L 257.514492 31.826501 
L 257.526633 31.826501 
L 257.641969 33.448882 
L 257.64804 33.448882 
L 257.769446 36.798315 
L 257.890853 36.798315 
L 258.006189 40.252418 
L 258.01226 40.252418 
L 258.127596 41.8748 
L 258.133666 41.8748 
L 258.255073 45.276568 
L 258.437183 45.276568 
L 258.55252 47.055954 
L 258.619293 47.055954 
L 258.73463 52.551118 
L 258.7407 52.551118 
L 258.862107 56.21456 
L 258.983514 56.21456 
L 259.09885 62.023733 
L 259.28703 62.023733 
L 259.402367 66.05352 
L 259.408437 66.05352 
L 259.523774 68.09458 
L 259.590547 68.09458 
L 259.705884 74.427102 
L 259.894064 74.427102 
L 260.0094 81.125968 
L 260.136878 81.125968 
L 260.252214 85.888444 
L 260.258284 85.888444 
L 260.373621 88.348183 
L 260.440394 88.348183 
L 260.555731 93.424668 
L 260.561801 93.424668 
L 260.677137 96.146082 
L 260.743911 96.146082 
L 260.859248 104.572 
L 261.047428 104.572 
L 261.162764 110.590512 
L 261.168835 110.590512 
L 261.284171 113.730606 
L 261.290241 113.730606 
L 261.405578 120.324802 
L 261.411648 120.324802 
L 261.526985 123.883575 
L 261.654462 123.883575 
L 261.769798 135.501921 
L 261.897275 135.501921 
L 262.012612 142.77647 
L 262.200792 142.77647 
L 262.316128 146.178238 
L 262.382902 146.178238 
L 262.504309 147.443118 
L 262.619645 147.480099 
L 262.625715 147.480099 
L 262.747122 148.163047 
L 262.862459 148.375798 
L 262.868529 148.375798 
L 262.929232 148.499543 
L 262.983865 148.484139 
L 263.293453 148.475017 
L 263.408789 148.366315 
L 263.536266 148.324877 
L 263.596969 148.209837 
L 263.651602 148.247386 
L 263.718376 148.221886 
L 263.779079 148.057025 
L 263.833712 148.095421 
L 264.082596 148.071547 
L 264.197933 147.903663 
L 264.204003 147.903663 
L 264.319339 147.772712 
L 264.68963 147.707431 
L 264.750333 147.64939 
L 264.798896 147.674478 
L 265.539477 147.579686 
L 265.654813 147.52532 
L 267.117765 147.629961 
L 267.233101 147.769151 
L 267.603391 147.864857 
L 267.724798 148.051469 
L 267.840135 148.0997 
L 268.331832 148.208944 
L 268.392535 148.214861 
L 268.398606 148.127863 
L 268.404676 148.127863 
L 268.817459 148.068483 
L 268.932795 147.952253 
L 269.242382 147.911734 
L 269.303086 147.787707 
L 269.351648 147.840263 
L 269.728009 147.783915 
L 269.788713 147.70796 
L 269.837275 147.762042 
L 270.63856 147.71116 
L 270.699263 147.64171 
L 270.705333 147.756329 
L 270.741755 147.756329 
L 271.124187 147.704838 
L 271.239523 147.634321 
L 272.09544 147.683405 
L 272.210777 147.747283 
L 274.705685 147.822475 
L 274.821022 147.870063 
L 277.13382 147.978669 
L 277.255227 147.986543 
L 277.31593 147.896079 
L 277.370563 147.908545 
L 277.437337 148.010408 
L 277.49804 148.027263 
L 277.50411 147.944191 
L 277.528392 147.944191 
L 277.922964 147.99082 
L 277.983667 148.098083 
L 277.989737 147.970505 
L 278.03223 147.970505 
L 278.22648 148.025327 
L 278.287184 148.137844 
L 278.293254 148.013848 
L 278.335746 148.013848 
L 278.40859 148.037473 
L 278.523927 148.15231 
L 278.590701 148.152017 
L 278.651404 148.036635 
L 278.657474 148.155732 
L 278.699967 148.155732 
L 279.622658 148.165279 
L 279.737994 148.307533 
L 279.744064 148.307533 
L 279.804768 148.180308 
L 279.859401 148.198595 
L 279.926175 148.198595 
L 280.041511 148.366628 
L 280.593912 148.333089 
L 280.709248 148.492156 
L 280.715318 148.492156 
L 280.776022 148.365877 
L 280.782092 148.530983 
L 280.824584 148.530983 
L 280.836725 148.530983 
L 280.897428 148.406654 
L 280.952061 148.43343 
L 280.958132 148.43343 
L 281.018835 148.603596 
L 281.067398 148.444821 
L 281.140242 148.466121 
L 281.200945 148.644 
L 281.249508 148.497423 
L 281.443759 148.546177 
L 281.504462 148.735042 
L 281.553025 148.587267 
L 281.625869 148.617067 
L 281.741205 148.81326 
L 281.807979 148.8383 
L 281.868682 148.671493 
L 281.923315 148.717663 
L 281.990089 148.717663 
L 282.050792 148.926291 
L 282.099355 148.788292 
L 282.111496 148.788292 
L 282.172199 149.00664 
L 282.220762 148.835293 
L 282.293606 148.877087 
L 282.354309 149.10691 
L 282.402872 148.915936 
L 282.536419 148.952897 
L 282.651756 149.255122 
L 282.779233 149.255122 
L 282.839936 149.061335 
L 282.888499 149.174329 
L 282.900639 149.174329 
L 283.015976 149.512509 
L 283.022046 149.512509 
L 283.137383 149.302533 
L 283.143453 149.302533 
L 283.258789 149.652522 
L 283.26486 149.652522 
L 283.325563 149.44113 
L 283.374126 149.51748 
L 283.386266 149.51748 
L 283.501603 149.829407 
L 283.507673 149.829407 
L 283.62908 150.0898 
L 283.689783 149.907249 
L 283.695854 150.251034 
L 283.732276 150.251034 
L 283.932597 150.287931 
L 284.066144 151.216481 
L 284.236113 151.156103 
L 284.35145 151.937274 
L 284.35752 151.937274 
L 284.478927 152.820216 
L 284.642826 153.315639 
L 284.661037 153.315639 
L 284.776373 153.955718 
L 284.843147 153.955718 
L 284.970624 155.847755 
L 285.025257 155.847755 
L 285.140594 156.34076 
L 285.146664 156.34076 
L 285.262 157.285927 
L 285.268071 157.285927 
L 285.383407 158.580172 
L 285.389477 158.580172 
L 285.504814 159.409617 
L 285.510884 159.409617 
L 285.662643 161.496505 
L 285.692994 161.496505 
L 285.808331 162.445514 
L 285.814401 162.445514 
L 285.929737 163.426121 
L 285.935808 163.426121 
L 286.063285 165.489698 
L 286.117918 165.489698 
L 286.245395 167.191444 
L 286.300028 167.191444 
L 286.415364 168.832495 
L 286.421435 168.832495 
L 286.554982 171.232427 
L 286.603545 171.232427 
L 286.737092 173.760056 
L 286.785655 173.760056 
L 286.900991 174.447666 
L 286.907062 174.447666 
L 287.028468 177.133516 
L 287.155945 179.217677 
L 287.210578 179.217677 
L 287.344126 182.136306 
L 287.392688 182.136306 
L 287.514095 183.970011 
L 287.696205 183.971357 
L 287.823682 171.738524 
L 287.878315 171.738524 
L 288.005792 128.991303 
L 288.060425 128.991303 
L 288.175762 92.383515 
L 288.181832 92.383515 
L 288.297169 80.671637 
L 288.424646 80.671637 
L 288.546052 34.331806 
L 288.661389 33.455058 
L 288.667459 33.455058 
L 288.782796 31.617161 
L 288.788866 31.617161 
L 288.904202 33.239543 
L 288.970976 33.239543 
L 289.086312 36.588976 
L 289.092383 36.588976 
L 289.207719 38.316027 
L 289.274493 38.316027 
L 289.389829 41.66546 
L 289.3959 41.66546 
L 289.511236 43.340177 
L 289.57801 43.340177 
L 289.693346 46.79428 
L 289.699416 46.79428 
L 289.814753 48.626001 
L 289.881526 48.626001 
L 289.996863 52.289443 
L 290.002933 52.289443 
L 290.11827 54.173499 
L 290.185043 54.173499 
L 290.30038 59.773333 
L 290.48856 59.773333 
L 290.603896 63.69845 
L 290.609967 63.69845 
L 290.725303 65.73951 
L 290.792077 65.73951 
L 290.907413 72.019697 
L 291.03489 72.019697 
L 291.150227 76.311158 
L 291.156297 76.311158 
L 291.271634 78.509224 
L 291.338407 78.509224 
L 291.453744 83.167029 
L 291.459814 83.167029 
L 291.57515 85.574434 
L 291.641924 85.574434 
L 291.75726 93.162993 
L 291.884738 93.162993 
L 292.000074 98.501152 
L 292.006144 98.501152 
L 292.121481 101.274902 
L 292.248958 101.274902 
L 292.364294 110.171833 
L 292.491771 110.171833 
L 292.607108 116.55669 
L 292.613178 116.55669 
L 292.728514 119.906123 
L 292.795288 119.906123 
L 292.910624 131.10579 
L 293.098805 131.10579 
L 293.214141 140.683075 
L 293.341618 140.683075 
L 293.456955 144.084843 
L 293.463025 144.084843 
L 293.578361 145.23621 
L 293.584432 145.23621 
L 293.645135 145.895707 
L 293.651205 145.13976 
L 293.693698 145.13976 
L 293.705838 145.13976 
L 293.821175 142.640015 
L 293.827245 142.640015 
L 293.985074 133.683343 
L 294.009355 133.683343 
L 294.148973 127.178853 
L 294.252169 127.178853 
L 294.367505 128.218254 
L 294.373575 128.218254 
L 294.434279 126.069169 
L 294.440349 129.206637 
L 294.476771 129.206637 
L 294.677092 129.206637 
L 294.81671 142.040911 
L 294.859202 142.040911 
L 294.919906 141.785158 
L 295.041312 148.912392 
L 295.102016 148.912392 
L 295.217352 151.386083 
L 295.223423 151.386083 
L 295.338759 153.078609 
L 295.344829 153.078609 
L 295.460166 154.64094 
L 295.466236 154.64094 
L 295.581572 154.901328 
L 295.587643 154.901328 
L 295.72119 154.380551 
L 295.769753 154.380551 
L 295.89116 153.469191 
L 296.012566 153.469191 
L 296.140043 151.776666 
L 296.25538 151.776666 
L 296.376787 150.735112 
L 296.43749 150.735112 
L 296.558897 149.953947 
L 296.680303 149.953947 
L 296.79564 149.302975 
L 296.862413 149.302975 
L 296.97775 148.652004 
L 296.98382 148.652004 
L 297.099157 148.52181 
L 297.16593 148.52181 
L 297.281267 148.131227 
L 297.34804 148.131227 
L 297.469447 147.870838 
L 297.53015 147.870838 
L 297.651557 147.61045 
L 297.833667 147.61045 
L 297.949004 147.480256 
L 298.015777 147.480256 
L 298.131114 147.350061 
L 299.836878 147.350061 
L 299.952215 147.219867 
L 300.140395 147.219867 
L 300.255732 147.350061 
L 300.261802 147.350061 
L 300.377138 147.219867 
L 300.868836 147.219867 
L 300.929539 147.350061 
L 300.978102 147.219867 
L 301.172352 147.219867 
L 301.287689 147.350061 
L 301.293759 147.350061 
L 301.409095 147.219867 
L 302.265013 147.219867 
L 302.325716 147.350061 
L 302.374279 147.219867 
L 302.507826 147.219867 
L 302.623163 147.350061 
L 302.75064 147.350061 
L 302.865976 147.219867 
L 303.721894 147.219867 
L 303.83723 147.551015 
L 303.8433 147.551015 
L 303.970778 150.310577 
L 304.086114 150.310577 
L 304.20145 153.074351 
L 304.207521 153.074351 
L 304.334998 156.416092 
L 304.389631 156.416092 
L 304.517108 160.190433 
L 304.632444 160.190433 
L 304.693148 159.683927 
L 304.699218 160.778161 
L 304.73564 160.778161 
L 304.753851 160.778161 
L 304.92382 159.150373 
L 304.935961 159.150373 
L 304.996664 159.809609 
L 305.002735 155.979255 
L 305.014875 155.979255 
L 305.057368 155.979255 
L 305.172704 153.716706 
L 305.178774 153.716706 
L 305.294111 151.381074 
L 305.300181 151.381074 
L 305.415518 149.363938 
L 305.421588 149.363938 
L 305.542995 146.569706 
L 305.603698 146.579536 
L 305.725105 145.231077 
L 305.785808 144.933658 
L 305.840441 144.944484 
L 305.846511 144.944484 
L 305.961848 144.795947 
L 306.150028 144.838343 
L 306.265365 144.922706 
L 306.271435 144.922706 
L 306.386771 145.091493 
L 306.392842 145.091493 
L 306.514249 145.449717 
L 306.817765 146.04716 
L 306.933102 146.215166 
L 307.121282 146.215166 
L 307.248759 146.766475 
L 307.424799 146.847555 
L 307.540135 146.981531 
L 307.728316 147.052589 
L 307.843652 147.133911 
L 308.092536 147.233693 
L 308.220013 147.28057 
L 325.635809 147.36848 
L 325.696512 147.403232 
L 325.745075 147.367554 
L 326.546359 147.425062 
L 326.607062 147.483314 
L 326.661695 147.459996 
L 337.230151 147.3579 
L 337.351558 147.341867 
L 337.479035 147.410747 
L 374.684128 147.499886 
L 374.744831 147.532602 
L 374.799464 147.515813 
L 381.482904 147.562634 
L 381.543608 147.651872 
L 381.592171 147.601083 
L 386.642691 147.657032 
L 386.758027 147.714581 
L 389.617155 147.754954 
L 389.677859 147.830532 
L 389.726421 147.760522 
L 390.345596 147.799563 
L 390.460932 147.882108 
L 392.288103 147.902794 
L 392.40344 148.017603 
L 393.380764 148.122094 
L 393.441467 148.134215 
L 393.447538 148.037248 
L 393.459678 148.037248 
L 393.562874 148.037248 
L 393.678211 148.15522 
L 394.594831 148.164742 
L 394.710168 148.310182 
L 394.716238 148.310182 
L 394.776941 148.198298 
L 394.831574 148.21103 
L 394.898348 148.21103 
L 395.013685 148.355597 
L 395.444678 148.34888 
L 395.505382 148.497496 
L 395.553945 148.381035 
L 395.748195 148.450859 
L 395.808899 148.607135 
L 395.857461 148.490915 
L 395.930305 148.513475 
L 396.045642 148.720165 
L 396.112415 148.720165 
L 396.173119 148.607557 
L 396.179189 148.773296 
L 396.215611 148.773296 
L 396.294526 148.822022 
L 396.355229 148.450133 
L 396.361299 148.970464 
L 396.397721 148.970464 
L 396.658746 148.981851 
L 396.780152 149.284505 
L 396.840856 149.287632 
L 396.962263 149.708156 
L 397.083669 149.804652 
L 397.205076 150.464728 
L 397.338623 151.189331 
L 397.387186 151.189331 
L 397.508593 151.572725 
L 397.569296 151.572725 
L 397.684633 151.955874 
L 397.81211 151.955874 
L 397.969938 153.544558 
L 397.99422 153.544558 
L 398.121697 154.117635 
L 398.17633 154.117635 
L 398.303807 154.904651 
L 398.35844 154.904651 
L 398.473776 155.291507 
L 398.479847 155.291507 
L 398.595183 155.484754 
L 398.601253 155.484754 
L 398.71659 156.632906 
L 398.783364 156.632906 
L 398.916911 157.382666 
L 398.965474 157.382666 
L 399.099021 158.13146 
L 399.208287 158.13146 
L 399.347905 159.054662 
L 399.390397 159.054662 
L 399.505734 159.246033 
L 399.572507 159.246033 
L 399.687844 159.984956 
L 399.754617 159.984956 
L 399.869954 160.532629 
L 399.876024 160.532629 
L 399.997431 161.263614 
L 400.124908 161.81838 
L 400.179541 161.81838 
L 400.300948 162.549123 
L 400.361651 162.549123 
L 400.495198 163.277604 
L 400.543761 163.277604 
L 400.659098 163.831526 
L 400.665168 163.831526 
L 400.798715 164.555839 
L 400.907981 164.555839 
L 401.023318 165.109339 
L 401.029388 165.109339 
L 401.144724 165.650822 
L 401.150795 165.650822 
L 401.278272 166.198314 
L 401.393608 166.198314 
L 401.508945 166.929057 
L 401.515015 166.929057 
L 401.642492 167.476549 
L 401.697125 167.476549 
L 401.812461 168.207292 
L 401.879235 168.207292 
L 401.994572 168.571532 
L 402.061345 168.571532 
L 402.176682 169.119024 
L 402.789786 169.119024 
L 402.905122 172.406237 
L 402.911192 172.406237 
L 403.032599 172.770477 
L 403.154006 172.770477 
L 403.269342 173.684472 
L 403.275413 173.684472 
L 403.390749 173.865461 
L 403.396819 173.865461 
L 403.512156 174.596204 
L 403.578929 174.596204 
L 403.694266 174.960444 
L 403.700336 174.960444 
L 403.821743 175.691187 
L 403.937079 175.874439 
L 404.064556 175.874439 
L 404.179893 176.238679 
L 404.246666 176.238679 
L 404.362003 177.700165 
L 404.368073 177.700165 
L 404.501621 178.430909 
L 404.550183 178.430909 
L 404.66552 178.611898 
L 404.67159 178.611898 
L 404.786926 179.159389 
L 404.792997 179.159389 
L 404.908333 179.706881 
L 404.975107 179.706881 
L 405.090443 180.437624 
L 405.096514 180.437624 
L 405.21185 180.804127 
L 405.278624 180.804127 
L 405.39396 181.532608 
L 405.40003 181.532608 
L 405.515367 181.715859 
L 405.58214 181.715859 
L 405.697477 182.627591 
L 405.764251 182.627591 
L 405.879587 183.283676 
L 406.007064 183.283676 
L 406.1224 179.666159 
L 406.189174 179.666159 
L 406.316651 149.520177 
L 406.371284 149.520177 
L 406.486621 104.897337 
L 406.492691 104.897337 
L 406.620168 60.742026 
L 406.735504 60.742026 
L 406.850841 42.164287 
L 406.856911 42.164287 
L 406.978318 29.924669 
L 407.099725 29.924669 
L 407.215061 31.255303 
L 407.221131 31.255303 
L 407.342538 34.493337 
L 407.403241 34.493337 
L 407.518578 36.298143 
L 407.585351 36.298143 
L 407.700688 41.500232 
L 407.888868 41.500232 
L 408.004205 44.844431 
L 408.010275 44.844431 
L 408.125611 46.649237 
L 408.192385 46.649237 
L 408.307722 52.329068 
L 408.495902 52.329068 
L 408.611238 56.044846 
L 408.617309 56.044846 
L 408.732645 57.955817 
L 408.738715 57.955817 
L 408.854052 61.830842 
L 408.860122 61.830842 
L 408.975459 63.90106 
L 409.102936 63.90106 
L 409.218272 70.270964 
L 409.345749 70.270964 
L 409.461085 76.800116 
L 409.649266 76.800116 
L 409.764602 81.418296 
L 409.770673 81.418296 
L 409.886009 83.860093 
L 409.892079 83.860093 
L 410.007416 88.849851 
L 410.013486 88.849851 
L 410.128822 91.503977 
L 410.2563 91.503977 
L 410.371636 94.158104 
L 410.43841 94.158104 
L 410.553746 105.517766 
L 410.62052 105.517766 
L 410.735856 108.596553 
L 410.80263 108.596553 
L 410.917966 118.310656 
L 411.106147 118.310656 
L 411.221483 129.564153 
L 411.34896 129.564153 
L 411.464297 137.26112 
L 411.470367 137.26112 
L 411.585703 140.233742 
L 411.71318 140.233742 
L 411.828517 145.541996 
L 411.834587 145.541996 
L 411.89529 145.777571 
L 411.943853 145.67265 
L 412.016697 145.67265 
L 412.150245 140.949298 
L 412.198807 140.949298 
L 412.314144 134.608912 
L 412.320214 134.608912 
L 412.459832 128.259942 
L 412.502324 128.259942 
L 412.61766 129.265381 
L 412.684434 129.256013 
L 412.745138 127.162748 
L 412.7937 128.565651 
L 412.805841 128.565651 
L 412.866544 132.453243 
L 412.915107 131.247231 
L 412.927248 131.247231 
L 413.054725 143.087376 
L 413.170061 143.087376 
L 413.230764 142.838016 
L 413.352171 149.43317 
L 413.412875 149.43317 
L 413.534281 153.469191 
L 413.594985 153.469191 
L 413.710321 154.380551 
L 413.777095 154.380551 
L 413.892431 154.901328 
L 413.898501 154.901328 
L 414.032049 154.380551 
L 414.080612 154.380551 
L 414.202018 153.338997 
L 414.262722 153.338997 
L 414.384128 152.297443 
L 414.505535 152.297443 
L 414.626942 151.125695 
L 414.742278 150.735112 
L 414.748349 150.735112 
L 414.869755 149.823752 
L 414.991162 149.823752 
L 415.106498 149.43317 
L 415.112569 149.43317 
L 415.240046 148.652004 
L 415.355382 148.652004 
L 415.470719 148.261421 
L 415.537492 148.261421 
L 415.652829 147.870838 
L 415.962416 147.870838 
L 416.077752 147.61045 
L 416.083823 147.61045 
L 416.199159 147.480256 
L 416.387339 147.480256 
L 416.502676 147.350061 
L 417.48 147.350061 
L 417.48 147.350061 
" style="fill:none;stroke:#e41a1c;stroke-linecap:square;stroke-width:2;"/>
   </g>
   <g id="patch_3">
    <path d="M 79.79325 230.88 
L 79.79325 14.52 
" style="fill:none;stroke:#000000;stroke-linecap:square;stroke-linejoin:miter;stroke-width:0.8;"/>
   </g>
   <g id="patch_4">
    <path d="M 417.48 230.88 
L 417.48 14.52 
" style="fill:none;"/>
   </g>
   <g id="patch_5">
    <path d="M 79.79325 230.88 
L 417.48 230.88 
" style="fill:none;stroke:#000000;stroke-linecap:square;stroke-linejoin:miter;stroke-width:0.8;"/>
   </g>
   <g id="patch_6">
    <path d="M 79.79325 14.52 
L 417.48 14.52 
" style="fill:none;"/>
   </g>
   <g id="legend_1">
    <g id="patch_7">
     <path d="M 84.59325 229.28 
L 240.97652 229.28 
Q 244.17652 229.28 244.17652 226.08 
L 244.17652 204.54415 
Q 244.17652 201.34415 240.97652 201.34415 
L 84.59325 201.34415 
Q 81.39325 201.34415 81.39325 204.54415 
L 81.39325 226.08 
Q 81.39325 229.28 84.59325 229.28 
z
" style="fill:#ffffff;stroke:#000000;stroke-linejoin:miter;"/>
    </g>
    <g id="line2d_12">
     <path d="M 87.79325 214.00011 
L 119.79325 214.00011 
" style="fill:none;stroke:#e41a1c;stroke-linecap:square;stroke-width:2;"/>
    </g>
    <g id="line2d_13"/>
    <g id="text_13">
     <!-- Surface Speed -->
     <g transform="translate(132.59325 219.60011)scale(0.16 -0.16)">
      <use transform="translate(0 -1.570628)scale(0.996264)" xlink:href="#Century_Schoolbook_L_Roman-83"/>
      <use transform="translate(62.763979 -1.570628)scale(0.996264)" xlink:href="#Century_Schoolbook_L_Roman-117"/>
      <use transform="translate(123.63561 -1.570628)scale(0.996264)" xlink:href="#Century_Schoolbook_L_Roman-114"/>
      <use transform="translate(167.869178 -1.570628)scale(0.996264)" xlink:href="#Century_Schoolbook_L_Roman-102"/>
      <use transform="translate(201.044408 -1.570628)scale(0.996264)" xlink:href="#Century_Schoolbook_L_Roman-97"/>
      <use transform="translate(256.436085 -1.570628)scale(0.996264)" xlink:href="#Century_Schoolbook_L_Roman-99"/>
      <use transform="translate(300.669654 -1.570628)scale(0.996264)" xlink:href="#Century_Schoolbook_L_Roman-101"/>
      <use transform="translate(378.178024 -1.570628)scale(0.996264)" xlink:href="#Century_Schoolbook_L_Roman-83"/>
      <use transform="translate(440.942003 -1.570628)scale(0.996264)" xlink:href="#Century_Schoolbook_L_Roman-112"/>
      <use transform="translate(498.12749 -1.570628)scale(0.996264)" xlink:href="#Century_Schoolbook_L_Roman-101"/>
      <use transform="translate(547.940691 -1.570628)scale(0.996264)" xlink:href="#Century_Schoolbook_L_Roman-101"/>
      <use transform="translate(597.753891 -1.570628)scale(0.996264)" xlink:href="#Century_Schoolbook_L_Roman-100"/>
     </g>
    </g>
   </g>
  </g>
 </g>
 <defs>
  <clipPath id="pfb8cb236db">
   <rect height="216.36" width="337.68675" x="79.79325" y="14.52"/>
  </clipPath>
 </defs>
</svg>
