<?xml version="1.0" encoding="utf-8" standalone="no"?>
<!DOCTYPE svg PUBLIC "-//W3C//DTD SVG 1.1//EN"
  "http://www.w3.org/Graphics/SVG/1.1/DTD/svg11.dtd">
<!-- Created with matplotlib (https://matplotlib.org/) -->
<svg height="288pt" version="1.1" viewBox="0 0 432 288" width="432pt" xmlns="http://www.w3.org/2000/svg" xmlns:xlink="http://www.w3.org/1999/xlink">
 <defs>
  <style type="text/css">
*{stroke-linecap:butt;stroke-linejoin:round;}
  </style>
 </defs>
 <g id="figure_1">
  <g id="patch_1">
   <path d="M 0 288 
L 432 288 
L 432 0 
L 0 0 
z
" style="fill:#ffffff;"/>
  </g>
  <g id="axes_1">
   <g id="patch_2">
    <path d="M 65.32538 230.88 
L 417.48 230.88 
L 417.48 14.52 
L 65.32538 14.52 
z
" style="fill:#ffffff;"/>
   </g>
   <g id="matplotlib.axis_1">
    <g id="xtick_1">
     <g id="line2d_1">
      <defs>
       <path d="M 0 0 
L 0 3.5 
" id="mcc60feadd1" style="stroke:#000000;stroke-width:0.8;"/>
      </defs>
      <g>
       <use style="stroke:#000000;stroke-width:0.8;" x="128.629524" xlink:href="#mcc60feadd1" y="230.88"/>
      </g>
     </g>
     <g id="text_1">
      <!-- $10$ -->
      <defs>
       <path d="M 26.59375 63.40625 
C 26.59375 65.5 26.5 65.5 25.09375 65.5 
C 21.203125 61.1875 15.296875 59.796875 9.703125 59.796875 
C 9.40625 59.796875 8.90625 59.796875 8.796875 59.5 
C 8.703125 59.296875 8.703125 59.09375 8.703125 57 
C 11.796875 57 17 57.59375 21 59.984375 
L 21 7.203125 
C 21 3.6875 20.796875 2.5 12.203125 2.5 
L 9.203125 2.5 
L 9.203125 0 
C 14 0 19 0 23.796875 0 
C 28.59375 0 33.59375 0 38.40625 0 
L 38.40625 2.5 
L 35.40625 2.5 
C 26.796875 2.5 26.59375 3.59375 26.59375 7.15625 
z
" id="CMR17-49"/>
       <path d="M 42 31.640625 
C 42 37.75 41.90625 48.125 37.703125 56.109375 
C 34 63.109375 28.09375 65.59375 22.90625 65.59375 
C 18.09375 65.59375 12 63.40625 8.203125 56.203125 
C 4.203125 48.71875 3.796875 39.4375 3.796875 31.640625 
C 3.796875 25.953125 3.90625 17.28125 7 9.671875 
C 11.296875 -0.609375 19 -2 22.90625 -2 
C 27.5 -2 34.5 -0.109375 38.59375 9.375 
C 41.59375 16.28125 42 24.359375 42 31.640625 
z
M 22.90625 -0.40625 
C 16.5 -0.40625 12.703125 5.078125 11.296875 12.6875 
C 10.203125 18.5625 10.203125 27.15625 10.203125 32.75 
C 10.203125 40.4375 10.203125 46.828125 11.5 52.921875 
C 13.40625 61.390625 19 64 22.90625 64 
C 27 64 32.296875 61.296875 34.203125 53.125 
C 35.5 47.4375 35.59375 40.734375 35.59375 32.75 
C 35.59375 26.25 35.59375 18.265625 34.40625 12.375 
C 32.296875 1.484375 26.40625 -0.40625 22.90625 -0.40625 
z
" id="CMR17-48"/>
      </defs>
      <g transform="translate(120.374399 251.21795)scale(0.18 -0.18)">
       <use transform="scale(0.996264)" xlink:href="#CMR17-49"/>
       <use transform="translate(45.690477 0)scale(0.996264)" xlink:href="#CMR17-48"/>
      </g>
     </g>
    </g>
    <g id="xtick_2">
     <g id="line2d_2">
      <g>
       <use style="stroke:#000000;stroke-width:0.8;" x="191.933667" xlink:href="#mcc60feadd1" y="230.88"/>
      </g>
     </g>
     <g id="text_2">
      <!-- $20$ -->
      <defs>
       <path d="M 41.703125 15.453125 
L 39.90625 15.453125 
C 38.90625 8.375 38.09375 7.171875 37.703125 6.5625 
C 37.203125 5.765625 30 5.765625 28.59375 5.765625 
L 9.40625 5.765625 
C 13 9.671875 20 16.75 28.5 24.953125 
C 34.59375 30.734375 41.703125 37.53125 41.703125 47.421875 
C 41.703125 59.21875 32.296875 66 21.796875 66 
C 10.796875 66 4.09375 56.3125 4.09375 47.34375 
C 4.09375 43.4375 7 42.9375 8.203125 42.9375 
C 9.203125 42.9375 12.203125 43.546875 12.203125 47.03125 
C 12.203125 50.109375 9.59375 51 8.203125 51 
C 7.59375 51 7 50.90625 6.59375 50.703125 
C 8.5 59.21875 14.296875 63.40625 20.40625 63.40625 
C 29.09375 63.40625 34.796875 56.515625 34.796875 47.421875 
C 34.796875 38.734375 29.703125 31.25 24 24.75 
L 4.09375 2.28125 
L 4.09375 0 
L 39.296875 0 
z
" id="CMR17-50"/>
      </defs>
      <g transform="translate(183.678542 251.21795)scale(0.18 -0.18)">
       <use transform="scale(0.996264)" xlink:href="#CMR17-50"/>
       <use transform="translate(45.690477 0)scale(0.996264)" xlink:href="#CMR17-48"/>
      </g>
     </g>
    </g>
    <g id="xtick_3">
     <g id="line2d_3">
      <g>
       <use style="stroke:#000000;stroke-width:0.8;" x="255.237811" xlink:href="#mcc60feadd1" y="230.88"/>
      </g>
     </g>
     <g id="text_3">
      <!-- $30$ -->
      <defs>
       <path d="M 22.09375 33.703125 
C 31 33.703125 34.90625 25.96875 34.90625 17.03125 
C 34.90625 5 28.5 0.390625 22.703125 0.390625 
C 17.40625 0.390625 8.796875 3.03125 6.09375 10.828125 
C 6.59375 10.625 7.09375 10.625 7.59375 10.625 
C 10 10.625 11.796875 12.21875 11.796875 14.8125 
C 11.796875 17.703125 9.59375 19 7.59375 19 
C 5.90625 19 3.296875 18.203125 3.296875 14.46875 
C 3.296875 5.234375 12.296875 -2 22.90625 -2 
C 34 -2 42.5 6.71875 42.5 16.953125 
C 42.5 26.671875 34.5 33.703125 25 34.796875 
C 32.59375 36.375 39.90625 43.0625 39.90625 52.015625 
C 39.90625 59.6875 32 65.296875 23 65.296875 
C 13.90625 65.296875 5.90625 59.828125 5.90625 52.015625 
C 5.90625 48.59375 8.5 48 9.796875 48 
C 11.90625 48 13.703125 49.296875 13.703125 51.890625 
C 13.703125 54.46875 11.90625 55.765625 9.796875 55.765625 
C 9.40625 55.765625 8.90625 55.765625 8.5 55.578125 
C 11.40625 61.859375 19.296875 63 22.796875 63 
C 26.296875 63 32.90625 61.328125 32.90625 51.875 
C 32.90625 49.109375 32.5 44.1875 29.09375 39.84375 
C 26.09375 36 22.703125 36 19.40625 35.6875 
C 18.90625 35.6875 16.59375 35.453125 16.203125 35.453125 
C 15.5 35.359375 15.09375 35.265625 15.09375 34.5 
C 15.09375 33.796875 15.203125 33.703125 17.203125 33.703125 
z
" id="CMR17-51"/>
      </defs>
      <g transform="translate(246.982686 251.21795)scale(0.18 -0.18)">
       <use transform="scale(0.996264)" xlink:href="#CMR17-51"/>
       <use transform="translate(45.690477 0)scale(0.996264)" xlink:href="#CMR17-48"/>
      </g>
     </g>
    </g>
    <g id="xtick_4">
     <g id="line2d_4">
      <g>
       <use style="stroke:#000000;stroke-width:0.8;" x="318.541954" xlink:href="#mcc60feadd1" y="230.88"/>
      </g>
     </g>
     <g id="text_4">
      <!-- $40$ -->
      <defs>
       <path d="M 33.59375 64.40625 
C 33.59375 66.5 33.5 66.5 31.703125 66.5 
L 2 19.59375 
L 2 17 
L 27.796875 17 
L 27.796875 7.140625 
C 27.796875 3.5 27.59375 2.5 20.59375 2.5 
L 18.703125 2.5 
L 18.703125 0 
C 21.90625 0 27.296875 0 30.703125 0 
C 34.09375 0 39.5 0 42.703125 0 
L 42.703125 2.5 
L 40.796875 2.5 
C 33.796875 2.5 33.59375 3.5 33.59375 7.140625 
L 33.59375 17 
L 43.796875 17 
L 43.796875 19.59375 
L 33.59375 19.59375 
z
M 28.09375 57.859375 
L 28.09375 19.59375 
L 4 19.59375 
z
" id="CMR17-52"/>
      </defs>
      <g transform="translate(310.286829 251.21795)scale(0.18 -0.18)">
       <use transform="scale(0.996264)" xlink:href="#CMR17-52"/>
       <use transform="translate(45.690477 0)scale(0.996264)" xlink:href="#CMR17-48"/>
      </g>
     </g>
    </g>
    <g id="xtick_5">
     <g id="line2d_5">
      <g>
       <use style="stroke:#000000;stroke-width:0.8;" x="381.846098" xlink:href="#mcc60feadd1" y="230.88"/>
      </g>
     </g>
     <g id="text_5">
      <!-- $50$ -->
      <defs>
       <path d="M 11.40625 57.6875 
C 12.40625 57.28125 16.5 56 20.703125 56 
C 30 56 35.09375 61.109375 38 64.0625 
C 38 64.953125 38 65.5 37.40625 65.5 
C 37.296875 65.5 37.09375 65.5 36.296875 65.046875 
C 32.796875 63.40625 28.703125 62.078125 23.703125 62.078125 
C 20.703125 62.078125 16.203125 62.484375 11.296875 64.671875 
C 10.203125 65.171875 10 65.171875 9.90625 65.171875 
C 9.40625 65.171875 9.296875 65.0625 9.296875 63.078125 
L 9.296875 34.421875 
C 9.296875 32.640625 9.296875 32.140625 10.296875 32.140625 
C 10.796875 32.140625 11 32.34375 11.5 33.03125 
C 14.703125 37.515625 19.09375 39.40625 24.09375 39.40625 
C 27.59375 39.40625 35.09375 37.21875 35.09375 20.140625 
C 35.09375 16.953125 35.09375 11.171875 32.09375 6.578125 
C 29.59375 2.484375 25.703125 0.390625 21.40625 0.390625 
C 14.796875 0.390625 8.09375 5 6.296875 12.71875 
C 6.703125 12.609375 7.5 12.421875 7.90625 12.421875 
C 9.203125 12.421875 11.703125 13.125 11.703125 16.21875 
C 11.703125 18.90625 9.796875 20 7.90625 20 
C 5.59375 20 4.09375 18.59375 4.09375 15.796875 
C 4.09375 7.09375 11 -2 21.59375 -2 
C 31.90625 -2 41.703125 6.875 41.703125 19.75 
C 41.703125 31.71875 33.90625 41 24.203125 41 
C 19.09375 41 14.796875 39.109375 11.40625 35.53125 
z
" id="CMR17-53"/>
      </defs>
      <g transform="translate(373.590973 251.21795)scale(0.18 -0.18)">
       <use transform="scale(0.996264)" xlink:href="#CMR17-53"/>
       <use transform="translate(45.690477 0)scale(0.996264)" xlink:href="#CMR17-48"/>
      </g>
     </g>
    </g>
    <g id="text_6">
     <!-- Time (s) -->
     <defs>
      <path d="M 63.296875 72 
L 3.40625 72 
L 1.90625 44.265625 
L 6.203125 44.265625 
C 6.90625 49.25 7.796875 53.046875 8.90625 56.234375 
C 11.5 63.515625 16.296875 67.3125 23.09375 67.3125 
C 26.40625 67.3125 27.796875 66.203125 27.796875 63.71875 
L 27.796875 12.28125 
L 27.796875 9.375 
C 27.796875 5.1875 26.90625 4.6875 18.796875 4.6875 
L 16.203125 4.6875 
L 16.203125 0 
L 50.5 0 
L 50.5 4.6875 
L 47.90625 4.6875 
C 39.90625 4.6875 39 5.1875 39 9.375 
L 39 12.28125 
L 39 63.71875 
C 39 66.203125 40.40625 67.3125 43.703125 67.3125 
C 49.796875 67.3125 54.703125 63.90625 57.203125 57.921875 
C 58.703125 54.25 59.703125 49.953125 60.5 44.265625 
L 64.796875 44.265625 
z
" id="Century_Schoolbook_L_Roman-84"/>
      <path d="M 20.59375 46 
L 1.796875 46 
L 1.796875 41.21875 
L 6.90625 41.21875 
C 10.59375 41.21875 11.203125 40.515625 11.203125 36.203125 
L 11.203125 12.296875 
L 11.203125 8.296875 
C 11.203125 4.296875 10.09375 3.59375 3.703125 3.59375 
L 3 3.59375 
L 3 0 
L 28.90625 0 
L 28.90625 3.59375 
L 28.203125 3.59375 
C 21.703125 3.59375 20.59375 4.28125 20.59375 8.21875 
L 20.59375 12.171875 
z
M 15.90625 71.578125 
C 12.703125 71.578125 10.09375 68.984375 10.09375 65.796875 
C 10.09375 62.703125 12.703125 60 15.796875 60 
C 19.09375 60 21.703125 62.59375 21.703125 65.796875 
C 21.703125 68.984375 19.09375 71.578125 15.90625 71.578125 
z
" id="Century_Schoolbook_L_Roman-105"/>
      <path d="M 20.09375 46 
L 2.296875 46 
L 2.296875 41.21875 
L 6.40625 41.21875 
C 10.09375 41.21875 10.703125 40.515625 10.703125 36.203125 
L 10.703125 12.296875 
L 10.703125 8.40625 
C 10.703125 4.296875 9.59375 3.59375 3.203125 3.59375 
L 2.796875 3.59375 
L 2.796875 0 
L 28 0 
L 28 3.59375 
L 27.59375 3.59375 
C 21.203125 3.59375 20.09375 4.296875 20.09375 8.390625 
L 20.09375 12.28125 
L 20.09375 26.453125 
C 20.09375 35.328125 25 41.921875 31.5 41.921875 
C 34.09375 41.921875 36.90625 40.515625 38.09375 38.625 
C 39.5 36.734375 40.09375 33.828125 40.09375 29.734375 
L 40.09375 12.28125 
L 40.09375 8.28125 
C 40.09375 4.296875 39 3.59375 32.5 3.59375 
L 32.09375 3.59375 
L 32.09375 0 
L 57.40625 0 
L 57.40625 3.59375 
L 57 3.59375 
C 50.59375 3.59375 49.5 4.296875 49.5 8.28125 
L 49.5 12.28125 
L 49.5 25.546875 
C 49.5 35.53125 54 41.921875 61 41.921875 
C 64.296875 41.921875 67 40.015625 68.296875 36.921875 
C 69.203125 34.734375 69.5 32.53125 69.5 28.640625 
L 69.5 12.28125 
L 69.5 8.28125 
C 69.5 4.296875 68.40625 3.59375 61.90625 3.59375 
L 61.5 3.59375 
L 61.5 0 
L 86.796875 0 
L 86.796875 3.59375 
L 86.40625 3.59375 
C 80 3.59375 78.90625 4.296875 78.90625 8.390625 
L 78.90625 12.28125 
L 78.90625 30.640625 
C 78.90625 36.828125 78.296875 38.921875 75.703125 42.3125 
C 72.796875 46.015625 68.703125 48 63.90625 48 
C 57.40625 48 52.59375 44.9375 48.296875 38.109375 
C 46.59375 44.046875 41.203125 48 34.5 48 
C 28.5 48 24 45.140625 20.09375 38.921875 
z
" id="Century_Schoolbook_L_Roman-109"/>
      <path d="M 46.5 23 
C 46.59375 37.8125 38.09375 48.28125 25.90625 48.28125 
C 13.09375 48.28125 3.5 37.25 3.5 22.34375 
C 3.5 8.4375 12.59375 -1 26.09375 -1 
C 35.59375 -1 42.40625 3.6875 46.5 13.1875 
L 43 15.09375 
C 38.90625 7.390625 34.703125 4.390625 28 4.390625 
C 22.90625 4.390625 19.203125 6.59375 16.59375 11 
C 14.796875 14 14 17.5 14.09375 23 
z
M 14.203125 27.296875 
C 14.203125 30.34375 14.59375 32.5 15.59375 35.25 
C 17.703125 41.140625 20.90625 44 25.703125 44 
C 31.796875 44 35.796875 38.78125 35.796875 30.921875 
C 35.796875 28.078125 34.90625 27.296875 31.703125 27.296875 
z
" id="Century_Schoolbook_L_Roman-101"/>
      <path d="M 27.90625 73.453125 
C 21.90625 69.765625 18.703125 67.171875 15.296875 63.171875 
C 7.703125 54.1875 3.59375 42.71875 3.59375 30.640625 
C 3.59375 19.265625 7.203125 8.578125 13.90625 -0.296875 
C 17.703125 -5.09375 21.09375 -8.078125 27.90625 -12.28125 
L 27.90625 -8.578125 
C 17.90625 0.203125 13.90625 11.484375 13.90625 30.640625 
C 13.90625 49.796875 17.90625 60.984375 27.90625 69.765625 
z
" id="Century_Schoolbook_L_Roman-40"/>
      <path d="M 39 48 
L 35.5 48 
L 32.59375 44.40625 
C 29 47.203125 25.40625 48.390625 20.40625 48.390625 
C 11.59375 48.390625 5.796875 42.625 5.796875 33.953125 
C 5.796875 30.078125 7.09375 26.78125 9.296875 24.8125 
C 11.59375 22.703125 13.90625 21.71875 19.90625 20.3125 
L 25.203125 19.125 
C 33.09375 17.234375 35.90625 15.234375 35.90625 11.265625 
C 35.90625 6.578125 31.796875 3.296875 25.90625 3.296875 
C 17.5 3.296875 11.5 8.765625 9.09375 18.875 
L 5.09375 18.875 
L 5.09375 0 
L 8.59375 0 
L 12.09375 3.90625 
C 16.203125 0.59375 20.796875 -1 25.796875 -1 
C 35.59375 -1 42.09375 5.078125 42.09375 14.34375 
C 42.09375 18.71875 40.703125 22.09375 37.90625 24.390625 
C 35.5 26.484375 33.5 27.28125 27.40625 28.5625 
L 22.40625 29.671875 
C 16.90625 30.859375 16.90625 30.859375 15.09375 31.859375 
C 12.90625 32.859375 11.59375 34.9375 11.59375 37.140625 
C 11.59375 41.109375 15.40625 44 20.90625 44 
C 24.703125 44 27.796875 42.703125 30.59375 40.015625 
C 32.796875 37.8125 33.90625 35.828125 35.5 31.234375 
L 39 31.234375 
z
" id="Century_Schoolbook_L_Roman-115"/>
      <path d="M 5.40625 -12.28125 
C 11.40625 -8.578125 14.59375 -5.984375 18 -1.890625 
C 25.59375 6.984375 29.703125 18.5625 29.703125 30.640625 
C 29.703125 42.015625 26.09375 52.703125 19.40625 61.484375 
C 15.59375 66.375 12.203125 69.359375 5.40625 73.453125 
L 5.40625 69.765625 
C 15.40625 60.984375 19.40625 49.796875 19.40625 30.640625 
C 19.40625 11.375 15.40625 0.203125 5.40625 -8.578125 
z
" id="Century_Schoolbook_L_Roman-41"/>
     </defs>
     <g transform="translate(207.401225 273.24577)scale(0.18 -0.18)">
      <use transform="translate(0 -0.29235)scale(0.996264)" xlink:href="#Century_Schoolbook_L_Roman-84"/>
      <use transform="translate(66.450031 -0.29235)scale(0.996264)" xlink:href="#Century_Schoolbook_L_Roman-105"/>
      <use transform="translate(97.831344 -0.29235)scale(0.996264)" xlink:href="#Century_Schoolbook_L_Roman-109"/>
      <use transform="translate(186.398251 -0.29235)scale(0.996264)" xlink:href="#Century_Schoolbook_L_Roman-101"/>
      <use transform="translate(263.906621 -0.29235)scale(0.996264)" xlink:href="#Century_Schoolbook_L_Roman-40"/>
      <use transform="translate(297.081851 -0.29235)scale(0.996264)" xlink:href="#Century_Schoolbook_L_Roman-115"/>
      <use transform="translate(343.207661 -0.29235)scale(0.996264)" xlink:href="#Century_Schoolbook_L_Roman-41"/>
     </g>
    </g>
   </g>
   <g id="matplotlib.axis_2">
    <g id="ytick_1">
     <g id="line2d_6">
      <defs>
       <path d="M 0 0 
L -3.5 0 
" id="m66dc0dbee7" style="stroke:#000000;stroke-width:0.8;"/>
      </defs>
      <g>
       <use style="stroke:#000000;stroke-width:0.8;" x="65.32538" xlink:href="#m66dc0dbee7" y="230.88"/>
      </g>
     </g>
     <g id="text_7">
      <!-- $0$ -->
      <g transform="translate(50.07025 237.548975)scale(0.18 -0.18)">
       <use transform="scale(0.996264)" xlink:href="#CMR17-48"/>
      </g>
     </g>
    </g>
    <g id="ytick_2">
     <g id="line2d_7">
      <g>
       <use style="stroke:#000000;stroke-width:0.8;" x="65.32538" xlink:href="#m66dc0dbee7" y="185.9734"/>
      </g>
     </g>
     <g id="text_8">
      <!-- $50$ -->
      <g transform="translate(41.81513 192.642375)scale(0.18 -0.18)">
       <use transform="scale(0.996264)" xlink:href="#CMR17-53"/>
       <use transform="translate(45.690477 0)scale(0.996264)" xlink:href="#CMR17-48"/>
      </g>
     </g>
    </g>
    <g id="ytick_3">
     <g id="line2d_8">
      <g>
       <use style="stroke:#000000;stroke-width:0.8;" x="65.32538" xlink:href="#m66dc0dbee7" y="141.0668"/>
      </g>
     </g>
     <g id="text_9">
      <!-- $100$ -->
      <g transform="translate(33.56 147.735775)scale(0.18 -0.18)">
       <use transform="scale(0.996264)" xlink:href="#CMR17-49"/>
       <use transform="translate(45.690477 0)scale(0.996264)" xlink:href="#CMR17-48"/>
       <use transform="translate(91.380954 0)scale(0.996264)" xlink:href="#CMR17-48"/>
      </g>
     </g>
    </g>
    <g id="ytick_4">
     <g id="line2d_9">
      <g>
       <use style="stroke:#000000;stroke-width:0.8;" x="65.32538" xlink:href="#m66dc0dbee7" y="96.160199"/>
      </g>
     </g>
     <g id="text_10">
      <!-- $150$ -->
      <g transform="translate(33.56 102.829174)scale(0.18 -0.18)">
       <use transform="scale(0.996264)" xlink:href="#CMR17-49"/>
       <use transform="translate(45.690477 0)scale(0.996264)" xlink:href="#CMR17-53"/>
       <use transform="translate(91.380954 0)scale(0.996264)" xlink:href="#CMR17-48"/>
      </g>
     </g>
    </g>
    <g id="ytick_5">
     <g id="line2d_10">
      <g>
       <use style="stroke:#000000;stroke-width:0.8;" x="65.32538" xlink:href="#m66dc0dbee7" y="51.253599"/>
      </g>
     </g>
     <g id="text_11">
      <!-- $200$ -->
      <g transform="translate(33.56 57.922574)scale(0.18 -0.18)">
       <use transform="scale(0.996264)" xlink:href="#CMR17-50"/>
       <use transform="translate(45.690477 0)scale(0.996264)" xlink:href="#CMR17-48"/>
       <use transform="translate(91.380954 0)scale(0.996264)" xlink:href="#CMR17-48"/>
      </g>
     </g>
    </g>
    <g id="text_12">
     <!-- X Load -->
     <defs>
      <path d="M 38.90625 39.890625 
L 52.203125 57.9375 
C 57.796875 65.40625 60.59375 67.3125 65.90625 67.3125 
L 67.5 67.3125 
L 67.5 72 
L 40 72 
L 40 67.3125 
L 41.40625 67.3125 
C 46.203125 67.3125 48.296875 66.109375 48.296875 63.40625 
C 48.296875 62.3125 48 61.609375 46.90625 60.03125 
L 36.09375 44.375 
L 22.796875 63.515625 
C 22.09375 64.515625 21.703125 65.515625 21.703125 66.015625 
C 21.703125 67 22.703125 67.3125 26.5 67.3125 
L 30.296875 67.3125 
L 30.296875 72 
L -0.59375 72 
L -0.59375 67.3125 
L 1.09375 67.3125 
C 6 67.3125 7.203125 66.8125 9.5 63.515625 
L 29.203125 35.109375 
L 13 12.671875 
C 9.09375 7.09375 5 4.6875 -0.09375 4.6875 
L -0.5 4.6875 
L -0.5 0 
L 27.90625 0 
L 27.90625 4.6875 
L 25.40625 4.6875 
C 21.40625 4.6875 18.90625 6.484375 18.90625 9.484375 
C 18.90625 10.78125 19.5 12.359375 20.5 13.859375 
L 32.09375 30.609375 
L 47 9.40625 
C 47.796875 8.203125 48.296875 7.09375 48.296875 6.296875 
C 48.296875 4.6875 47.90625 4.6875 41.59375 4.6875 
L 38.796875 4.6875 
L 38.796875 0 
L 71.59375 0 
L 71.59375 4.6875 
L 70.40625 4.6875 
C 64 4.6875 63.296875 4.984375 59.90625 9.875 
z
" id="Century_Schoolbook_L_Roman-88"/>
      <path d="M 64.59375 27.328125 
L 60.203125 27.328125 
C 59.203125 20.546875 56.796875 13.765625 54.203125 10.484375 
C 51.09375 6.59375 45.296875 4.6875 36.90625 4.6875 
L 32.703125 4.6875 
C 29.703125 4.6875 27.203125 5.296875 26.296875 6.1875 
C 25.59375 6.78125 25.5 7.390625 25.5 9.484375 
L 25.5 59.734375 
L 25.5 62.609375 
C 25.5 66.8125 26.40625 67.3125 34.5 67.3125 
L 36.296875 67.3125 
L 36.296875 72 
L 3.5 72 
L 3.5 67.3125 
L 5.296875 67.3125 
C 13.40625 67.3125 14.296875 66.8125 14.296875 62.609375 
L 14.296875 59.734375 
L 14.296875 12.28125 
L 14.296875 9.375 
C 14.296875 5.1875 13.40625 4.6875 5.296875 4.6875 
L 3.5 4.6875 
L 3.5 0 
L 62.5 0 
z
" id="Century_Schoolbook_L_Roman-76"/>
      <path d="M 25.203125 48.28125 
C 13 48.28125 3.40625 37.453125 3.40625 23.546875 
C 3.40625 9.9375 13 -1 25 -1 
C 37 -1 46.59375 9.9375 46.59375 23.640625 
C 46.59375 37.25 37 48.28125 25.203125 48.28125 
z
M 25.203125 44 
C 32.203125 44 36.09375 36.75 36.09375 23.640625 
C 36.09375 10.453125 32.203125 3.296875 25 3.296875 
C 17.796875 3.296875 13.90625 10.453125 13.90625 23.546875 
C 13.90625 37.046875 17.703125 44 25.203125 44 
z
" id="Century_Schoolbook_L_Roman-111"/>
      <path d="M 45.203125 32.578125 
C 45.203125 38.796875 44.09375 41.96875 41.203125 44.34375 
C 37.90625 46.90625 33 48.28125 26.59375 48.28125 
C 15.40625 48.28125 7.09375 43.046875 7.09375 35.921875 
C 7.09375 32.15625 9.40625 29.78125 12.90625 29.78125 
C 16 29.78125 18.296875 31.859375 18.296875 34.8125 
C 18.296875 36.109375 17.796875 37.484375 16.796875 38.875 
C 16.203125 39.546875 16.09375 39.84375 16.09375 40.15625 
C 16.09375 42.21875 20.203125 44 25 44 
C 28.09375 44 31.59375 43.015625 33.203125 41.53125 
C 35.09375 39.953125 35.796875 37.578125 35.796875 33.125 
L 35.796875 29.28125 
C 25.296875 27.484375 22.09375 26.6875 17.203125 24.8125 
C 8.59375 21.609375 4.40625 16.9375 4.40625 10.65625 
C 4.40625 3.578125 10.09375 -1 18.90625 -1 
C 25.796875 -1 32 1.859375 36.296875 7.0625 
C 37.90625 1.984375 40.40625 0 45.09375 0 
C 49.59375 0 54.296875 2.890625 54.296875 5.78125 
C 54.296875 6.46875 53.796875 6.96875 53.296875 6.96875 
C 52.90625 6.96875 52.5 6.875 51.796875 6.578125 
C 50.203125 6 49.796875 5.890625 49 5.890625 
C 46.203125 5.890625 45.203125 7.78125 45.203125 12.71875 
z
M 35.796875 20.46875 
C 35.796875 14.46875 35.5 13.078125 33.796875 10.484375 
C 31.296875 6.78125 26.703125 4.296875 22.40625 4.296875 
C 17.90625 4.296875 14.5 7.59375 14.5 12.078125 
C 14.5 16.265625 16.59375 19.265625 21 21.359375 
C 24.09375 22.75 28 23.75 35.796875 25.046875 
z
" id="Century_Schoolbook_L_Roman-97"/>
      <path d="M 38 0 
L 55.40625 0 
L 55.40625 4.703125 
L 53.59375 4.703125 
C 48.203125 4.703125 47.40625 5.703125 47.40625 11.96875 
L 47.40625 73.78125 
L 27.796875 73.78125 
L 27.796875 69 
L 33.703125 69 
C 37.296875 69 38 68.28125 38 63.921875 
L 38 41 
C 34.296875 46.09375 30 48.390625 24.203125 48.390625 
C 12.90625 48.390625 4.296875 37.546875 4.296875 23.203125 
C 4.296875 9.0625 12.59375 -1 24.203125 -1 
C 30.5 -1 34.796875 1.671875 38 7.59375 
z
M 26.203125 43 
C 30.296875 43 34.203125 40.03125 36 35.4375 
C 37.203125 32.453125 37.90625 28.28125 37.90625 23.515625 
C 37.90625 11.96875 33.296875 4.390625 26.09375 4.390625 
C 19.09375 4.390625 14.796875 10.96875 14.796875 22.015625 
C 14.796875 27.890625 15.40625 32.359375 16.703125 35.734375 
C 18.40625 40.125 22.09375 43 26.203125 43 
z
" id="Century_Schoolbook_L_Roman-100"/>
     </defs>
     <g transform="translate(24.87013 152.2107)rotate(-90)scale(0.18 -0.18)">
      <use transform="translate(0 0.343476)scale(0.996264)" xlink:href="#Century_Schoolbook_L_Roman-88"/>
      <use transform="translate(97.831344 0.343476)scale(0.996264)" xlink:href="#Century_Schoolbook_L_Roman-76"/>
      <use transform="translate(164.281375 0.343476)scale(0.996264)" xlink:href="#Century_Schoolbook_L_Roman-111"/>
      <use transform="translate(214.094576 0.343476)scale(0.996264)" xlink:href="#Century_Schoolbook_L_Roman-97"/>
      <use transform="translate(269.486253 0.343476)scale(0.996264)" xlink:href="#Century_Schoolbook_L_Roman-100"/>
     </g>
    </g>
   </g>
   <g id="line2d_11">
    <path clip-path="url(#p2a8c09876a)" d="M 65.32538 230.88 
L 89.691145 230.88 
L 89.805092 151.844384 
L 90.324186 151.844384 
L 90.438134 219.204284 
L 90.893924 219.204284 
L 91.007871 225.491208 
L 91.526965 225.491208 
L 91.640912 184.177136 
L 92.160006 184.177136 
L 92.273954 194.056588 
L 92.919656 194.056588 
L 93.033604 226.38934 
L 93.362785 226.38934 
L 93.476733 228.185604 
L 94.565564 228.185604 
L 94.679511 229.083736 
L 95.768343 229.083736 
L 95.88229 229.981868 
L 97.034425 229.981868 
L 97.148373 230.88 
L 100.642762 230.88 
L 100.756709 229.981868 
L 101.84554 229.981868 
L 101.959488 230.88 
L 102.478582 230.88 
L 102.592529 229.981868 
L 103.111623 229.981868 
L 103.225571 230.88 
L 104.947443 230.88 
L 105.061391 229.981868 
L 105.517181 229.981868 
L 105.631128 229.083736 
L 106.783264 229.083736 
L 106.897211 229.981868 
L 107.353001 229.981868 
L 107.466948 229.083736 
L 107.922738 229.083736 
L 108.036686 229.981868 
L 108.55578 229.981868 
L 108.669727 230.88 
L 114.569673 230.88 
L 114.683621 229.981868 
L 115.202715 229.981868 
L 115.316662 230.88 
L 116.468798 230.88 
L 116.582745 228.185604 
L 117.038535 228.185604 
L 117.152482 229.981868 
L 117.671576 229.981868 
L 117.785524 229.083736 
L 118.431226 229.083736 
L 118.545173 230.88 
L 118.874355 230.88 
L 118.988302 229.981868 
L 119.507396 229.981868 
L 119.621344 174.297684 
L 120.077134 174.297684 
L 120.191081 78.197559 
L 120.710175 78.197559 
L 120.824123 125.798555 
L 121.343217 125.798555 
L 121.457164 212.019228 
L 121.976258 212.019228 
L 122.090205 210.222964 
L 123.179037 210.222964 
L 123.292984 211.121096 
L 126.217636 211.121096 
L 126.331583 229.083736 
L 126.787373 229.083736 
L 126.90132 229.981868 
L 129.825972 229.981868 
L 129.939919 230.88 
L 130.459013 230.88 
L 130.572961 229.981868 
L 131.092055 229.981868 
L 131.206002 229.083736 
L 131.598488 229.083736 
L 131.712435 227.287472 
L 132.801267 227.287472 
L 132.915214 228.185604 
L 135.270128 228.185604 
L 135.384076 229.083736 
L 135.90317 229.083736 
L 136.017117 228.185604 
L 137.105948 228.185604 
L 137.219896 227.287472 
L 137.73899 227.287472 
L 137.852937 226.38934 
L 138.941769 226.38934 
L 139.055716 227.287472 
L 139.511506 227.287472 
L 139.625453 226.38934 
L 140.144547 226.38934 
L 140.258495 227.287472 
L 141.347326 227.287472 
L 141.461273 228.185604 
L 143.183146 228.185604 
L 143.297094 229.083736 
L 144.385925 229.083736 
L 144.499872 229.981868 
L 146.854786 229.981868 
L 146.968734 229.083736 
L 147.994261 229.083736 
L 148.108208 229.981868 
L 148.690607 229.981868 
L 148.804554 230.88 
L 149.323648 230.88 
L 149.437595 229.981868 
L 150.526427 229.981868 
L 150.640374 230.88 
L 152.362247 230.88 
L 152.476194 97.058331 
L 152.995288 97.058331 
L 153.109236 203.037908 
L 153.565026 203.037908 
L 153.678973 176.093948 
L 154.198067 176.093948 
L 154.312015 210.222964 
L 155.400846 210.222964 
L 155.514793 211.121096 
L 158.439445 211.121096 
L 158.553392 217.40802 
L 159.009182 217.40802 
L 159.123129 227.287472 
L 159.578919 227.287472 
L 159.692867 229.083736 
L 160.211961 229.083736 
L 160.325908 229.981868 
L 160.781698 229.981868 
L 160.895645 229.083736 
L 161.414739 229.083736 
L 161.528687 229.981868 
L 163.820297 229.981868 
L 163.934244 228.185604 
L 164.453338 228.185604 
L 164.567286 227.287472 
L 165.656117 227.287472 
L 165.770065 228.185604 
L 166.352463 228.185604 
L 166.46641 227.287472 
L 166.858896 227.287472 
L 166.972843 228.185604 
L 169.897495 228.185604 
L 170.011442 227.287472 
L 171.100273 227.287472 
L 171.214221 226.38934 
L 172.303052 226.38934 
L 172.417 227.287472 
L 172.999398 227.287472 
L 173.113345 226.38934 
L 173.632439 226.38934 
L 173.746387 227.287472 
L 174.835218 227.287472 
L 174.949165 228.185604 
L 175.974692 228.185604 
L 176.08864 229.083736 
L 177.240775 229.083736 
L 177.354723 229.981868 
L 177.873817 229.981868 
L 177.987764 229.083736 
L 178.443554 229.083736 
L 178.557502 229.981868 
L 179.013291 229.981868 
L 179.127239 229.083736 
L 180.849112 229.083736 
L 180.963059 229.981868 
L 182.05189 229.981868 
L 182.165838 230.88 
L 182.684932 230.88 
L 182.798879 229.083736 
L 183.317973 229.083736 
L 183.431921 229.981868 
L 183.951015 229.981868 
L 184.064962 230.88 
L 184.520752 230.88 
L 184.634699 224.593076 
L 185.153793 224.593076 
L 185.267741 34.189091 
L 185.723531 34.189091 
L 185.837478 145.55746 
L 186.356572 145.55746 
L 186.470519 227.287472 
L 186.989613 227.287472 
L 187.103561 211.121096 
L 190.028212 211.121096 
L 190.14216 212.019228 
L 190.59795 212.019228 
L 190.711897 211.121096 
L 191.230991 211.121096 
L 191.344939 227.287472 
L 191.864032 227.287472 
L 191.97798 224.593076 
L 192.43377 224.593076 
L 192.547717 227.287472 
L 193.003507 227.287472 
L 193.117455 229.083736 
L 194.206286 229.083736 
L 194.320233 229.981868 
L 196.042106 229.981868 
L 196.156053 229.083736 
L 196.675147 229.083736 
L 196.789095 227.287472 
L 198.510968 227.287472 
L 198.624915 228.185604 
L 199.144009 228.185604 
L 199.257956 227.287472 
L 199.650442 227.287472 
L 199.76439 228.185604 
L 202.752345 228.185604 
L 202.866293 227.287472 
L 203.322082 227.287472 
L 203.43603 226.38934 
L 205.790944 226.38934 
L 205.904892 227.287472 
L 206.360681 227.287472 
L 206.474629 228.185604 
L 209.462584 228.185604 
L 209.576532 229.083736 
L 209.969018 229.083736 
L 210.082965 229.981868 
L 210.665363 229.981868 
L 210.779311 229.083736 
L 211.868142 229.083736 
L 211.982089 228.185604 
L 212.437879 228.185604 
L 212.551827 229.083736 
L 213.640658 229.083736 
L 213.754605 229.981868 
L 216.109519 229.981868 
L 216.223467 230.88 
L 217.375602 230.88 
L 217.48955 175.195816 
L 217.94534 175.195816 
L 218.059287 78.197559 
L 218.578381 78.197559 
L 218.692329 124.900423 
L 219.211422 124.900423 
L 219.32537 212.019228 
L 219.78116 212.019228 
L 219.895107 210.222964 
L 221.110547 210.222964 
L 221.224494 211.121096 
L 223.4528 211.121096 
L 223.566748 212.019228 
L 224.022537 212.019228 
L 224.136485 226.38934 
L 224.655579 226.38934 
L 224.769526 224.593076 
L 225.225316 224.593076 
L 225.339264 228.185604 
L 225.858358 228.185604 
L 225.972305 229.083736 
L 226.491399 229.083736 
L 226.605346 229.981868 
L 228.896956 229.981868 
L 229.010904 228.185604 
L 229.466694 228.185604 
L 229.580641 227.287472 
L 232.505293 227.287472 
L 232.61924 228.185604 
L 234.974154 228.185604 
L 235.088102 227.287472 
L 235.607196 227.287472 
L 235.721143 226.38934 
L 238.012753 226.38934 
L 238.126701 227.287472 
L 239.215532 227.287472 
L 239.329479 228.185604 
L 241.051352 228.185604 
L 241.165299 229.083736 
L 241.621089 229.083736 
L 241.735037 228.185604 
L 242.190827 228.185604 
L 242.304774 229.083736 
L 245.925771 229.083736 
L 246.039719 229.981868 
L 246.495508 229.981868 
L 246.609456 230.88 
L 247.698287 230.88 
L 247.812235 229.981868 
L 248.268024 229.981868 
L 248.381972 230.88 
L 249.470803 230.88 
L 249.584751 229.981868 
L 250.167149 229.981868 
L 250.281096 96.160199 
L 250.80019 96.160199 
L 250.914138 203.037908 
L 251.369927 203.037908 
L 251.483875 176.093948 
L 252.002969 176.093948 
L 252.116916 209.324832 
L 252.63601 209.324832 
L 252.749958 210.222964 
L 253.205748 210.222964 
L 253.319695 211.121096 
L 256.244346 211.121096 
L 256.358294 217.40802 
L 256.877388 217.40802 
L 256.991335 223.694944 
L 257.510429 223.694944 
L 257.624377 225.491208 
L 258.080167 225.491208 
L 258.194114 228.185604 
L 258.649904 228.185604 
L 258.763851 229.083736 
L 259.282945 229.083736 
L 259.396893 229.981868 
L 261.688503 229.981868 
L 261.80245 227.287472 
L 265.423447 227.287472 
L 265.537395 228.185604 
L 267.765701 228.185604 
L 267.879648 226.38934 
L 270.804299 226.38934 
L 270.918247 227.287472 
L 272.64012 227.287472 
L 272.754067 228.185604 
L 274.47594 228.185604 
L 274.589887 229.083736 
L 275.045677 229.083736 
L 275.159625 229.981868 
L 275.678719 229.981868 
L 275.792666 228.185604 
L 276.248456 228.185604 
L 276.362403 229.083736 
L 277.008106 229.083736 
L 277.122053 228.185604 
L 277.514539 228.185604 
L 277.628486 229.083736 
L 278.717317 229.083736 
L 278.831265 229.981868 
L 279.287055 229.981868 
L 279.401002 230.88 
L 280.553138 230.88 
L 280.667085 229.981868 
L 281.122875 229.981868 
L 281.236822 230.88 
L 282.388958 230.88 
L 282.502905 226.38934 
L 282.958695 226.38934 
L 283.072642 47.661071 
L 283.591736 47.661071 
L 283.705684 166.214496 
L 284.224778 166.214496 
L 284.338725 217.40802 
L 284.794515 217.40802 
L 284.908463 210.222964 
L 286.567031 210.222964 
L 286.680979 211.121096 
L 289.035893 211.121096 
L 289.14984 79.993823 
L 289.668934 79.993823 
L 289.782882 148.251856 
L 290.238672 148.251856 
L 290.352619 119.511631 
L 290.871713 119.511631 
L 290.98566 212.91736 
L 291.504754 212.91736 
L 291.618702 210.222964 
L 292.074492 210.222964 
L 292.188439 211.121096 
L 295.113091 211.121096 
L 295.227038 210.222964 
L 296.315869 210.222964 
L 296.429817 211.121096 
L 299.417772 211.121096 
L 299.53172 203.037908 
L 299.98751 203.037908 
L 300.101457 88.975143 
L 300.620551 88.975143 
L 300.734499 128.492951 
L 301.190288 128.492951 
L 301.304236 168.908892 
L 301.82333 168.908892 
L 301.937277 226.38934 
L 302.456371 226.38934 
L 302.570319 227.287472 
L 303.026109 227.287472 
L 303.140056 228.185604 
L 303.65915 228.185604 
L 303.773097 229.981868 
L 304.228887 229.981868 
L 304.342835 230.88 
L 305.431666 230.88 
L 305.545613 229.981868 
L 306.064707 229.981868 
L 306.178655 229.083736 
L 309.103306 229.083736 
L 309.217254 228.185604 
L 319.421882 228.185604 
L 319.535829 229.083736 
L 320.054923 229.083736 
L 320.168871 228.185604 
L 321.890743 228.185604 
L 322.004691 229.083736 
L 322.460481 229.083736 
L 322.574428 228.185604 
L 325.499079 228.185604 
L 325.613027 227.287472 
L 328.537678 227.287472 
L 328.651626 226.38934 
L 329.234024 226.38934 
L 329.347971 227.287472 
L 331.576277 227.287472 
L 331.690225 228.185604 
L 332.146015 228.185604 
L 332.259962 227.287472 
L 338.856254 227.287472 
L 338.970201 228.185604 
L 347.97205 228.185604 
L 348.085998 227.287472 
L 348.541788 227.287472 
L 348.655735 226.38934 
L 357.720889 226.38934 
L 357.834836 227.287472 
L 358.290626 227.287472 
L 358.404573 226.38934 
L 359.050276 226.38934 
L 359.164223 227.287472 
L 359.556709 227.287472 
L 359.670656 226.38934 
L 360.126446 226.38934 
L 360.240393 227.287472 
L 360.759487 227.287472 
L 360.873435 226.38934 
L 362.532003 226.38934 
L 362.645951 227.287472 
L 365.064169 227.287472 
L 365.178117 228.185604 
L 365.570602 228.185604 
L 365.68455 227.287472 
L 366.266948 227.287472 
L 366.380895 228.185604 
L 375.31944 228.185604 
L 375.433388 229.083736 
L 375.952482 229.083736 
L 376.066429 228.185604 
L 376.585523 228.185604 
L 376.699471 229.083736 
L 384.62515 229.083736 
L 384.739097 228.185604 
L 388.739919 228.185604 
L 388.853866 229.083736 
L 391.841822 229.083736 
L 391.955769 229.981868 
L 394.120771 229.981868 
L 394.234718 230.88 
L 397.222674 230.88 
L 397.336622 229.981868 
L 397.792411 229.981868 
L 397.906359 230.88 
L 399.691536 230.88 
L 399.805483 229.981868 
L 400.261273 229.981868 
L 400.37522 230.88 
L 400.83101 230.88 
L 400.944958 229.981868 
L 403.932913 229.981868 
L 404.046861 230.88 
L 406.338471 230.88 
L 406.452418 67.419975 
L 406.971512 67.419975 
L 407.08546 200.343512 
L 408.237595 200.343512 
L 408.351543 209.324832 
L 408.807332 209.324832 
L 408.92128 210.222964 
L 412.415669 210.222964 
L 412.529616 79.993823 
L 413.04871 79.993823 
L 413.162657 147.353724 
L 413.681751 147.353724 
L 413.795699 119.511631 
L 414.188185 119.511631 
L 414.302132 212.91736 
L 414.88453 212.91736 
L 414.998478 210.222964 
L 415.454267 210.222964 
L 415.568215 211.121096 
L 417.48 211.121096 
L 417.48 211.121096 
" style="fill:none;stroke:#e41a1c;stroke-linecap:square;stroke-width:2;"/>
   </g>
   <g id="patch_3">
    <path d="M 65.32538 230.88 
L 65.32538 14.52 
" style="fill:none;stroke:#000000;stroke-linecap:square;stroke-linejoin:miter;stroke-width:0.8;"/>
   </g>
   <g id="patch_4">
    <path d="M 417.48 230.88 
L 417.48 14.52 
" style="fill:none;"/>
   </g>
   <g id="patch_5">
    <path d="M 65.32538 230.88 
L 417.48 230.88 
" style="fill:none;stroke:#000000;stroke-linecap:square;stroke-linejoin:miter;stroke-width:0.8;"/>
   </g>
   <g id="patch_6">
    <path d="M 65.32538 14.52 
L 417.48 14.52 
" style="fill:none;"/>
   </g>
   <g id="legend_1">
    <g id="patch_7">
     <path d="M 309.01651 44.05585 
L 412.68 44.05585 
Q 415.88 44.05585 415.88 40.85585 
L 415.88 19.32 
Q 415.88 16.12 412.68 16.12 
L 309.01651 16.12 
Q 305.81651 16.12 305.81651 19.32 
L 305.81651 40.85585 
Q 305.81651 44.05585 309.01651 44.05585 
z
" style="fill:#ffffff;stroke:#000000;stroke-linejoin:miter;"/>
    </g>
    <g id="line2d_12">
     <path d="M 312.21651 28.77596 
L 344.21651 28.77596 
" style="fill:none;stroke:#e41a1c;stroke-linecap:square;stroke-width:2;"/>
    </g>
    <g id="line2d_13"/>
    <g id="text_13">
     <!-- X Load -->
     <g transform="translate(357.01651 34.37596)scale(0.16 -0.16)">
      <use transform="translate(0 0.343476)scale(0.996264)" xlink:href="#Century_Schoolbook_L_Roman-88"/>
      <use transform="translate(97.831344 0.343476)scale(0.996264)" xlink:href="#Century_Schoolbook_L_Roman-76"/>
      <use transform="translate(164.281375 0.343476)scale(0.996264)" xlink:href="#Century_Schoolbook_L_Roman-111"/>
      <use transform="translate(214.094576 0.343476)scale(0.996264)" xlink:href="#Century_Schoolbook_L_Roman-97"/>
      <use transform="translate(269.486253 0.343476)scale(0.996264)" xlink:href="#Century_Schoolbook_L_Roman-100"/>
     </g>
    </g>
   </g>
  </g>
 </g>
 <defs>
  <clipPath id="p2a8c09876a">
   <rect height="216.36" width="352.15462" x="65.32538" y="14.52"/>
  </clipPath>
 </defs>
</svg>
