<?xml version="1.0" encoding="utf-8" standalone="no"?>
<!DOCTYPE svg PUBLIC "-//W3C//DTD SVG 1.1//EN"
  "http://www.w3.org/Graphics/SVG/1.1/DTD/svg11.dtd">
<!-- Created with matplotlib (https://matplotlib.org/) -->
<svg height="288pt" version="1.1" viewBox="0 0 432 288" width="432pt" xmlns="http://www.w3.org/2000/svg" xmlns:xlink="http://www.w3.org/1999/xlink">
 <defs>
  <style type="text/css">
*{stroke-linecap:butt;stroke-linejoin:round;}
  </style>
 </defs>
 <g id="figure_1">
  <g id="patch_1">
   <path d="M 0 288 
L 432 288 
L 432 0 
L 0 0 
z
" style="fill:#ffffff;"/>
  </g>
  <g id="axes_1">
   <g id="patch_2">
    <path d="M 65.32538 230.88 
L 417.48 230.88 
L 417.48 14.52 
L 65.32538 14.52 
z
" style="fill:#ffffff;"/>
   </g>
   <g id="matplotlib.axis_1">
    <g id="xtick_1">
     <g id="line2d_1">
      <defs>
       <path d="M 0 0 
L 0 3.5 
" id="m902ad9fb3e" style="stroke:#000000;stroke-width:0.8;"/>
      </defs>
      <g>
       <use style="stroke:#000000;stroke-width:0.8;" x="128.629524" xlink:href="#m902ad9fb3e" y="230.88"/>
      </g>
     </g>
     <g id="text_1">
      <!-- $10$ -->
      <defs>
       <path d="M 26.59375 63.40625 
C 26.59375 65.5 26.5 65.5 25.09375 65.5 
C 21.203125 61.1875 15.296875 59.796875 9.703125 59.796875 
C 9.40625 59.796875 8.90625 59.796875 8.796875 59.5 
C 8.703125 59.296875 8.703125 59.09375 8.703125 57 
C 11.796875 57 17 57.59375 21 59.984375 
L 21 7.203125 
C 21 3.6875 20.796875 2.5 12.203125 2.5 
L 9.203125 2.5 
L 9.203125 0 
C 14 0 19 0 23.796875 0 
C 28.59375 0 33.59375 0 38.40625 0 
L 38.40625 2.5 
L 35.40625 2.5 
C 26.796875 2.5 26.59375 3.59375 26.59375 7.15625 
z
" id="CMR17-49"/>
       <path d="M 42 31.640625 
C 42 37.75 41.90625 48.125 37.703125 56.109375 
C 34 63.109375 28.09375 65.59375 22.90625 65.59375 
C 18.09375 65.59375 12 63.40625 8.203125 56.203125 
C 4.203125 48.71875 3.796875 39.4375 3.796875 31.640625 
C 3.796875 25.953125 3.90625 17.28125 7 9.671875 
C 11.296875 -0.609375 19 -2 22.90625 -2 
C 27.5 -2 34.5 -0.109375 38.59375 9.375 
C 41.59375 16.28125 42 24.359375 42 31.640625 
z
M 22.90625 -0.40625 
C 16.5 -0.40625 12.703125 5.078125 11.296875 12.6875 
C 10.203125 18.5625 10.203125 27.15625 10.203125 32.75 
C 10.203125 40.4375 10.203125 46.828125 11.5 52.921875 
C 13.40625 61.390625 19 64 22.90625 64 
C 27 64 32.296875 61.296875 34.203125 53.125 
C 35.5 47.4375 35.59375 40.734375 35.59375 32.75 
C 35.59375 26.25 35.59375 18.265625 34.40625 12.375 
C 32.296875 1.484375 26.40625 -0.40625 22.90625 -0.40625 
z
" id="CMR17-48"/>
      </defs>
      <g transform="translate(120.374399 251.21795)scale(0.18 -0.18)">
       <use transform="scale(0.996264)" xlink:href="#CMR17-49"/>
       <use transform="translate(45.690477 0)scale(0.996264)" xlink:href="#CMR17-48"/>
      </g>
     </g>
    </g>
    <g id="xtick_2">
     <g id="line2d_2">
      <g>
       <use style="stroke:#000000;stroke-width:0.8;" x="191.933667" xlink:href="#m902ad9fb3e" y="230.88"/>
      </g>
     </g>
     <g id="text_2">
      <!-- $20$ -->
      <defs>
       <path d="M 41.703125 15.453125 
L 39.90625 15.453125 
C 38.90625 8.375 38.09375 7.171875 37.703125 6.5625 
C 37.203125 5.765625 30 5.765625 28.59375 5.765625 
L 9.40625 5.765625 
C 13 9.671875 20 16.75 28.5 24.953125 
C 34.59375 30.734375 41.703125 37.53125 41.703125 47.421875 
C 41.703125 59.21875 32.296875 66 21.796875 66 
C 10.796875 66 4.09375 56.3125 4.09375 47.34375 
C 4.09375 43.4375 7 42.9375 8.203125 42.9375 
C 9.203125 42.9375 12.203125 43.546875 12.203125 47.03125 
C 12.203125 50.109375 9.59375 51 8.203125 51 
C 7.59375 51 7 50.90625 6.59375 50.703125 
C 8.5 59.21875 14.296875 63.40625 20.40625 63.40625 
C 29.09375 63.40625 34.796875 56.515625 34.796875 47.421875 
C 34.796875 38.734375 29.703125 31.25 24 24.75 
L 4.09375 2.28125 
L 4.09375 0 
L 39.296875 0 
z
" id="CMR17-50"/>
      </defs>
      <g transform="translate(183.678542 251.21795)scale(0.18 -0.18)">
       <use transform="scale(0.996264)" xlink:href="#CMR17-50"/>
       <use transform="translate(45.690477 0)scale(0.996264)" xlink:href="#CMR17-48"/>
      </g>
     </g>
    </g>
    <g id="xtick_3">
     <g id="line2d_3">
      <g>
       <use style="stroke:#000000;stroke-width:0.8;" x="255.237811" xlink:href="#m902ad9fb3e" y="230.88"/>
      </g>
     </g>
     <g id="text_3">
      <!-- $30$ -->
      <defs>
       <path d="M 22.09375 33.703125 
C 31 33.703125 34.90625 25.96875 34.90625 17.03125 
C 34.90625 5 28.5 0.390625 22.703125 0.390625 
C 17.40625 0.390625 8.796875 3.03125 6.09375 10.828125 
C 6.59375 10.625 7.09375 10.625 7.59375 10.625 
C 10 10.625 11.796875 12.21875 11.796875 14.8125 
C 11.796875 17.703125 9.59375 19 7.59375 19 
C 5.90625 19 3.296875 18.203125 3.296875 14.46875 
C 3.296875 5.234375 12.296875 -2 22.90625 -2 
C 34 -2 42.5 6.71875 42.5 16.953125 
C 42.5 26.671875 34.5 33.703125 25 34.796875 
C 32.59375 36.375 39.90625 43.0625 39.90625 52.015625 
C 39.90625 59.6875 32 65.296875 23 65.296875 
C 13.90625 65.296875 5.90625 59.828125 5.90625 52.015625 
C 5.90625 48.59375 8.5 48 9.796875 48 
C 11.90625 48 13.703125 49.296875 13.703125 51.890625 
C 13.703125 54.46875 11.90625 55.765625 9.796875 55.765625 
C 9.40625 55.765625 8.90625 55.765625 8.5 55.578125 
C 11.40625 61.859375 19.296875 63 22.796875 63 
C 26.296875 63 32.90625 61.328125 32.90625 51.875 
C 32.90625 49.109375 32.5 44.1875 29.09375 39.84375 
C 26.09375 36 22.703125 36 19.40625 35.6875 
C 18.90625 35.6875 16.59375 35.453125 16.203125 35.453125 
C 15.5 35.359375 15.09375 35.265625 15.09375 34.5 
C 15.09375 33.796875 15.203125 33.703125 17.203125 33.703125 
z
" id="CMR17-51"/>
      </defs>
      <g transform="translate(246.982686 251.21795)scale(0.18 -0.18)">
       <use transform="scale(0.996264)" xlink:href="#CMR17-51"/>
       <use transform="translate(45.690477 0)scale(0.996264)" xlink:href="#CMR17-48"/>
      </g>
     </g>
    </g>
    <g id="xtick_4">
     <g id="line2d_4">
      <g>
       <use style="stroke:#000000;stroke-width:0.8;" x="318.541954" xlink:href="#m902ad9fb3e" y="230.88"/>
      </g>
     </g>
     <g id="text_4">
      <!-- $40$ -->
      <defs>
       <path d="M 33.59375 64.40625 
C 33.59375 66.5 33.5 66.5 31.703125 66.5 
L 2 19.59375 
L 2 17 
L 27.796875 17 
L 27.796875 7.140625 
C 27.796875 3.5 27.59375 2.5 20.59375 2.5 
L 18.703125 2.5 
L 18.703125 0 
C 21.90625 0 27.296875 0 30.703125 0 
C 34.09375 0 39.5 0 42.703125 0 
L 42.703125 2.5 
L 40.796875 2.5 
C 33.796875 2.5 33.59375 3.5 33.59375 7.140625 
L 33.59375 17 
L 43.796875 17 
L 43.796875 19.59375 
L 33.59375 19.59375 
z
M 28.09375 57.859375 
L 28.09375 19.59375 
L 4 19.59375 
z
" id="CMR17-52"/>
      </defs>
      <g transform="translate(310.286829 251.21795)scale(0.18 -0.18)">
       <use transform="scale(0.996264)" xlink:href="#CMR17-52"/>
       <use transform="translate(45.690477 0)scale(0.996264)" xlink:href="#CMR17-48"/>
      </g>
     </g>
    </g>
    <g id="xtick_5">
     <g id="line2d_5">
      <g>
       <use style="stroke:#000000;stroke-width:0.8;" x="381.846098" xlink:href="#m902ad9fb3e" y="230.88"/>
      </g>
     </g>
     <g id="text_5">
      <!-- $50$ -->
      <defs>
       <path d="M 11.40625 57.6875 
C 12.40625 57.28125 16.5 56 20.703125 56 
C 30 56 35.09375 61.109375 38 64.0625 
C 38 64.953125 38 65.5 37.40625 65.5 
C 37.296875 65.5 37.09375 65.5 36.296875 65.046875 
C 32.796875 63.40625 28.703125 62.078125 23.703125 62.078125 
C 20.703125 62.078125 16.203125 62.484375 11.296875 64.671875 
C 10.203125 65.171875 10 65.171875 9.90625 65.171875 
C 9.40625 65.171875 9.296875 65.0625 9.296875 63.078125 
L 9.296875 34.421875 
C 9.296875 32.640625 9.296875 32.140625 10.296875 32.140625 
C 10.796875 32.140625 11 32.34375 11.5 33.03125 
C 14.703125 37.515625 19.09375 39.40625 24.09375 39.40625 
C 27.59375 39.40625 35.09375 37.21875 35.09375 20.140625 
C 35.09375 16.953125 35.09375 11.171875 32.09375 6.578125 
C 29.59375 2.484375 25.703125 0.390625 21.40625 0.390625 
C 14.796875 0.390625 8.09375 5 6.296875 12.71875 
C 6.703125 12.609375 7.5 12.421875 7.90625 12.421875 
C 9.203125 12.421875 11.703125 13.125 11.703125 16.21875 
C 11.703125 18.90625 9.796875 20 7.90625 20 
C 5.59375 20 4.09375 18.59375 4.09375 15.796875 
C 4.09375 7.09375 11 -2 21.59375 -2 
C 31.90625 -2 41.703125 6.875 41.703125 19.75 
C 41.703125 31.71875 33.90625 41 24.203125 41 
C 19.09375 41 14.796875 39.109375 11.40625 35.53125 
z
" id="CMR17-53"/>
      </defs>
      <g transform="translate(373.590973 251.21795)scale(0.18 -0.18)">
       <use transform="scale(0.996264)" xlink:href="#CMR17-53"/>
       <use transform="translate(45.690477 0)scale(0.996264)" xlink:href="#CMR17-48"/>
      </g>
     </g>
    </g>
    <g id="text_6">
     <!-- Time (s) -->
     <defs>
      <path d="M 63.296875 72 
L 3.40625 72 
L 1.90625 44.265625 
L 6.203125 44.265625 
C 6.90625 49.25 7.796875 53.046875 8.90625 56.234375 
C 11.5 63.515625 16.296875 67.3125 23.09375 67.3125 
C 26.40625 67.3125 27.796875 66.203125 27.796875 63.71875 
L 27.796875 12.28125 
L 27.796875 9.375 
C 27.796875 5.1875 26.90625 4.6875 18.796875 4.6875 
L 16.203125 4.6875 
L 16.203125 0 
L 50.5 0 
L 50.5 4.6875 
L 47.90625 4.6875 
C 39.90625 4.6875 39 5.1875 39 9.375 
L 39 12.28125 
L 39 63.71875 
C 39 66.203125 40.40625 67.3125 43.703125 67.3125 
C 49.796875 67.3125 54.703125 63.90625 57.203125 57.921875 
C 58.703125 54.25 59.703125 49.953125 60.5 44.265625 
L 64.796875 44.265625 
z
" id="Century_Schoolbook_L_Roman-84"/>
      <path d="M 20.59375 46 
L 1.796875 46 
L 1.796875 41.21875 
L 6.90625 41.21875 
C 10.59375 41.21875 11.203125 40.515625 11.203125 36.203125 
L 11.203125 12.296875 
L 11.203125 8.296875 
C 11.203125 4.296875 10.09375 3.59375 3.703125 3.59375 
L 3 3.59375 
L 3 0 
L 28.90625 0 
L 28.90625 3.59375 
L 28.203125 3.59375 
C 21.703125 3.59375 20.59375 4.28125 20.59375 8.21875 
L 20.59375 12.171875 
z
M 15.90625 71.578125 
C 12.703125 71.578125 10.09375 68.984375 10.09375 65.796875 
C 10.09375 62.703125 12.703125 60 15.796875 60 
C 19.09375 60 21.703125 62.59375 21.703125 65.796875 
C 21.703125 68.984375 19.09375 71.578125 15.90625 71.578125 
z
" id="Century_Schoolbook_L_Roman-105"/>
      <path d="M 20.09375 46 
L 2.296875 46 
L 2.296875 41.21875 
L 6.40625 41.21875 
C 10.09375 41.21875 10.703125 40.515625 10.703125 36.203125 
L 10.703125 12.296875 
L 10.703125 8.40625 
C 10.703125 4.296875 9.59375 3.59375 3.203125 3.59375 
L 2.796875 3.59375 
L 2.796875 0 
L 28 0 
L 28 3.59375 
L 27.59375 3.59375 
C 21.203125 3.59375 20.09375 4.296875 20.09375 8.390625 
L 20.09375 12.28125 
L 20.09375 26.453125 
C 20.09375 35.328125 25 41.921875 31.5 41.921875 
C 34.09375 41.921875 36.90625 40.515625 38.09375 38.625 
C 39.5 36.734375 40.09375 33.828125 40.09375 29.734375 
L 40.09375 12.28125 
L 40.09375 8.28125 
C 40.09375 4.296875 39 3.59375 32.5 3.59375 
L 32.09375 3.59375 
L 32.09375 0 
L 57.40625 0 
L 57.40625 3.59375 
L 57 3.59375 
C 50.59375 3.59375 49.5 4.296875 49.5 8.28125 
L 49.5 12.28125 
L 49.5 25.546875 
C 49.5 35.53125 54 41.921875 61 41.921875 
C 64.296875 41.921875 67 40.015625 68.296875 36.921875 
C 69.203125 34.734375 69.5 32.53125 69.5 28.640625 
L 69.5 12.28125 
L 69.5 8.28125 
C 69.5 4.296875 68.40625 3.59375 61.90625 3.59375 
L 61.5 3.59375 
L 61.5 0 
L 86.796875 0 
L 86.796875 3.59375 
L 86.40625 3.59375 
C 80 3.59375 78.90625 4.296875 78.90625 8.390625 
L 78.90625 12.28125 
L 78.90625 30.640625 
C 78.90625 36.828125 78.296875 38.921875 75.703125 42.3125 
C 72.796875 46.015625 68.703125 48 63.90625 48 
C 57.40625 48 52.59375 44.9375 48.296875 38.109375 
C 46.59375 44.046875 41.203125 48 34.5 48 
C 28.5 48 24 45.140625 20.09375 38.921875 
z
" id="Century_Schoolbook_L_Roman-109"/>
      <path d="M 46.5 23 
C 46.59375 37.8125 38.09375 48.28125 25.90625 48.28125 
C 13.09375 48.28125 3.5 37.25 3.5 22.34375 
C 3.5 8.4375 12.59375 -1 26.09375 -1 
C 35.59375 -1 42.40625 3.6875 46.5 13.1875 
L 43 15.09375 
C 38.90625 7.390625 34.703125 4.390625 28 4.390625 
C 22.90625 4.390625 19.203125 6.59375 16.59375 11 
C 14.796875 14 14 17.5 14.09375 23 
z
M 14.203125 27.296875 
C 14.203125 30.34375 14.59375 32.5 15.59375 35.25 
C 17.703125 41.140625 20.90625 44 25.703125 44 
C 31.796875 44 35.796875 38.78125 35.796875 30.921875 
C 35.796875 28.078125 34.90625 27.296875 31.703125 27.296875 
z
" id="Century_Schoolbook_L_Roman-101"/>
      <path d="M 27.90625 73.453125 
C 21.90625 69.765625 18.703125 67.171875 15.296875 63.171875 
C 7.703125 54.1875 3.59375 42.71875 3.59375 30.640625 
C 3.59375 19.265625 7.203125 8.578125 13.90625 -0.296875 
C 17.703125 -5.09375 21.09375 -8.078125 27.90625 -12.28125 
L 27.90625 -8.578125 
C 17.90625 0.203125 13.90625 11.484375 13.90625 30.640625 
C 13.90625 49.796875 17.90625 60.984375 27.90625 69.765625 
z
" id="Century_Schoolbook_L_Roman-40"/>
      <path d="M 39 48 
L 35.5 48 
L 32.59375 44.40625 
C 29 47.203125 25.40625 48.390625 20.40625 48.390625 
C 11.59375 48.390625 5.796875 42.625 5.796875 33.953125 
C 5.796875 30.078125 7.09375 26.78125 9.296875 24.8125 
C 11.59375 22.703125 13.90625 21.71875 19.90625 20.3125 
L 25.203125 19.125 
C 33.09375 17.234375 35.90625 15.234375 35.90625 11.265625 
C 35.90625 6.578125 31.796875 3.296875 25.90625 3.296875 
C 17.5 3.296875 11.5 8.765625 9.09375 18.875 
L 5.09375 18.875 
L 5.09375 0 
L 8.59375 0 
L 12.09375 3.90625 
C 16.203125 0.59375 20.796875 -1 25.796875 -1 
C 35.59375 -1 42.09375 5.078125 42.09375 14.34375 
C 42.09375 18.71875 40.703125 22.09375 37.90625 24.390625 
C 35.5 26.484375 33.5 27.28125 27.40625 28.5625 
L 22.40625 29.671875 
C 16.90625 30.859375 16.90625 30.859375 15.09375 31.859375 
C 12.90625 32.859375 11.59375 34.9375 11.59375 37.140625 
C 11.59375 41.109375 15.40625 44 20.90625 44 
C 24.703125 44 27.796875 42.703125 30.59375 40.015625 
C 32.796875 37.8125 33.90625 35.828125 35.5 31.234375 
L 39 31.234375 
z
" id="Century_Schoolbook_L_Roman-115"/>
      <path d="M 5.40625 -12.28125 
C 11.40625 -8.578125 14.59375 -5.984375 18 -1.890625 
C 25.59375 6.984375 29.703125 18.5625 29.703125 30.640625 
C 29.703125 42.015625 26.09375 52.703125 19.40625 61.484375 
C 15.59375 66.375 12.203125 69.359375 5.40625 73.453125 
L 5.40625 69.765625 
C 15.40625 60.984375 19.40625 49.796875 19.40625 30.640625 
C 19.40625 11.375 15.40625 0.203125 5.40625 -8.578125 
z
" id="Century_Schoolbook_L_Roman-41"/>
     </defs>
     <g transform="translate(207.401225 273.24577)scale(0.18 -0.18)">
      <use transform="translate(0 -0.29235)scale(0.996264)" xlink:href="#Century_Schoolbook_L_Roman-84"/>
      <use transform="translate(66.450031 -0.29235)scale(0.996264)" xlink:href="#Century_Schoolbook_L_Roman-105"/>
      <use transform="translate(97.831344 -0.29235)scale(0.996264)" xlink:href="#Century_Schoolbook_L_Roman-109"/>
      <use transform="translate(186.398251 -0.29235)scale(0.996264)" xlink:href="#Century_Schoolbook_L_Roman-101"/>
      <use transform="translate(263.906621 -0.29235)scale(0.996264)" xlink:href="#Century_Schoolbook_L_Roman-40"/>
      <use transform="translate(297.081851 -0.29235)scale(0.996264)" xlink:href="#Century_Schoolbook_L_Roman-115"/>
      <use transform="translate(343.207661 -0.29235)scale(0.996264)" xlink:href="#Century_Schoolbook_L_Roman-41"/>
     </g>
    </g>
   </g>
   <g id="matplotlib.axis_2">
    <g id="ytick_1">
     <g id="line2d_6">
      <defs>
       <path d="M 0 0 
L -3.5 0 
" id="m03c2f3f2f1" style="stroke:#000000;stroke-width:0.8;"/>
      </defs>
      <g>
       <use style="stroke:#000000;stroke-width:0.8;" x="65.32538" xlink:href="#m03c2f3f2f1" y="230.88"/>
      </g>
     </g>
     <g id="text_7">
      <!-- $0$ -->
      <g transform="translate(50.07025 237.548975)scale(0.18 -0.18)">
       <use transform="scale(0.996264)" xlink:href="#CMR17-48"/>
      </g>
     </g>
    </g>
    <g id="ytick_2">
     <g id="line2d_7">
      <g>
       <use style="stroke:#000000;stroke-width:0.8;" x="65.32538" xlink:href="#m03c2f3f2f1" y="166.179043"/>
      </g>
     </g>
     <g id="text_8">
      <!-- $50$ -->
      <g transform="translate(41.81513 172.848018)scale(0.18 -0.18)">
       <use transform="scale(0.996264)" xlink:href="#CMR17-53"/>
       <use transform="translate(45.690477 0)scale(0.996264)" xlink:href="#CMR17-48"/>
      </g>
     </g>
    </g>
    <g id="ytick_3">
     <g id="line2d_8">
      <g>
       <use style="stroke:#000000;stroke-width:0.8;" x="65.32538" xlink:href="#m03c2f3f2f1" y="101.478086"/>
      </g>
     </g>
     <g id="text_9">
      <!-- $100$ -->
      <g transform="translate(33.56 108.147061)scale(0.18 -0.18)">
       <use transform="scale(0.996264)" xlink:href="#CMR17-49"/>
       <use transform="translate(45.690477 0)scale(0.996264)" xlink:href="#CMR17-48"/>
       <use transform="translate(91.380954 0)scale(0.996264)" xlink:href="#CMR17-48"/>
      </g>
     </g>
    </g>
    <g id="ytick_4">
     <g id="line2d_9">
      <g>
       <use style="stroke:#000000;stroke-width:0.8;" x="65.32538" xlink:href="#m03c2f3f2f1" y="36.777129"/>
      </g>
     </g>
     <g id="text_10">
      <!-- $150$ -->
      <g transform="translate(33.56 43.446104)scale(0.18 -0.18)">
       <use transform="scale(0.996264)" xlink:href="#CMR17-49"/>
       <use transform="translate(45.690477 0)scale(0.996264)" xlink:href="#CMR17-53"/>
       <use transform="translate(91.380954 0)scale(0.996264)" xlink:href="#CMR17-48"/>
      </g>
     </g>
    </g>
    <g id="text_11">
     <!-- Z Load -->
     <defs>
      <path d="M 56.90625 72 
L 7.296875 72 
L 5.296875 46.78125 
L 9.796875 46.78125 
C 13 63.40625 16.90625 67.3125 30.296875 67.3125 
L 43.296875 67.3125 
L 2.40625 3.59375 
L 2.40625 0 
L 55.703125 0 
L 57.5 27.734375 
L 52.796875 27.734375 
C 51.40625 18.453125 49.703125 13.46875 46.796875 9.875 
C 44.296875 6.59375 38.90625 4.6875 32.40625 4.6875 
L 15.796875 4.6875 
L 56.90625 68.40625 
z
" id="Century_Schoolbook_L_Roman-90"/>
      <path d="M 64.59375 27.328125 
L 60.203125 27.328125 
C 59.203125 20.546875 56.796875 13.765625 54.203125 10.484375 
C 51.09375 6.59375 45.296875 4.6875 36.90625 4.6875 
L 32.703125 4.6875 
C 29.703125 4.6875 27.203125 5.296875 26.296875 6.1875 
C 25.59375 6.78125 25.5 7.390625 25.5 9.484375 
L 25.5 59.734375 
L 25.5 62.609375 
C 25.5 66.8125 26.40625 67.3125 34.5 67.3125 
L 36.296875 67.3125 
L 36.296875 72 
L 3.5 72 
L 3.5 67.3125 
L 5.296875 67.3125 
C 13.40625 67.3125 14.296875 66.8125 14.296875 62.609375 
L 14.296875 59.734375 
L 14.296875 12.28125 
L 14.296875 9.375 
C 14.296875 5.1875 13.40625 4.6875 5.296875 4.6875 
L 3.5 4.6875 
L 3.5 0 
L 62.5 0 
z
" id="Century_Schoolbook_L_Roman-76"/>
      <path d="M 25.203125 48.28125 
C 13 48.28125 3.40625 37.453125 3.40625 23.546875 
C 3.40625 9.9375 13 -1 25 -1 
C 37 -1 46.59375 9.9375 46.59375 23.640625 
C 46.59375 37.25 37 48.28125 25.203125 48.28125 
z
M 25.203125 44 
C 32.203125 44 36.09375 36.75 36.09375 23.640625 
C 36.09375 10.453125 32.203125 3.296875 25 3.296875 
C 17.796875 3.296875 13.90625 10.453125 13.90625 23.546875 
C 13.90625 37.046875 17.703125 44 25.203125 44 
z
" id="Century_Schoolbook_L_Roman-111"/>
      <path d="M 45.203125 32.578125 
C 45.203125 38.796875 44.09375 41.96875 41.203125 44.34375 
C 37.90625 46.90625 33 48.28125 26.59375 48.28125 
C 15.40625 48.28125 7.09375 43.046875 7.09375 35.921875 
C 7.09375 32.15625 9.40625 29.78125 12.90625 29.78125 
C 16 29.78125 18.296875 31.859375 18.296875 34.8125 
C 18.296875 36.109375 17.796875 37.484375 16.796875 38.875 
C 16.203125 39.546875 16.09375 39.84375 16.09375 40.15625 
C 16.09375 42.21875 20.203125 44 25 44 
C 28.09375 44 31.59375 43.015625 33.203125 41.53125 
C 35.09375 39.953125 35.796875 37.578125 35.796875 33.125 
L 35.796875 29.28125 
C 25.296875 27.484375 22.09375 26.6875 17.203125 24.8125 
C 8.59375 21.609375 4.40625 16.9375 4.40625 10.65625 
C 4.40625 3.578125 10.09375 -1 18.90625 -1 
C 25.796875 -1 32 1.859375 36.296875 7.0625 
C 37.90625 1.984375 40.40625 0 45.09375 0 
C 49.59375 0 54.296875 2.890625 54.296875 5.78125 
C 54.296875 6.46875 53.796875 6.96875 53.296875 6.96875 
C 52.90625 6.96875 52.5 6.875 51.796875 6.578125 
C 50.203125 6 49.796875 5.890625 49 5.890625 
C 46.203125 5.890625 45.203125 7.78125 45.203125 12.71875 
z
M 35.796875 20.46875 
C 35.796875 14.46875 35.5 13.078125 33.796875 10.484375 
C 31.296875 6.78125 26.703125 4.296875 22.40625 4.296875 
C 17.90625 4.296875 14.5 7.59375 14.5 12.078125 
C 14.5 16.265625 16.59375 19.265625 21 21.359375 
C 24.09375 22.75 28 23.75 35.796875 25.046875 
z
" id="Century_Schoolbook_L_Roman-97"/>
      <path d="M 38 0 
L 55.40625 0 
L 55.40625 4.703125 
L 53.59375 4.703125 
C 48.203125 4.703125 47.40625 5.703125 47.40625 11.96875 
L 47.40625 73.78125 
L 27.796875 73.78125 
L 27.796875 69 
L 33.703125 69 
C 37.296875 69 38 68.28125 38 63.921875 
L 38 41 
C 34.296875 46.09375 30 48.390625 24.203125 48.390625 
C 12.90625 48.390625 4.296875 37.546875 4.296875 23.203125 
C 4.296875 9.0625 12.59375 -1 24.203125 -1 
C 30.5 -1 34.796875 1.671875 38 7.59375 
z
M 26.203125 43 
C 30.296875 43 34.203125 40.03125 36 35.4375 
C 37.203125 32.453125 37.90625 28.28125 37.90625 23.515625 
C 37.90625 11.96875 33.296875 4.390625 26.09375 4.390625 
C 19.09375 4.390625 14.796875 10.96875 14.796875 22.015625 
C 14.796875 27.890625 15.40625 32.359375 16.703125 35.734375 
C 18.40625 40.125 22.09375 43 26.203125 43 
z
" id="Century_Schoolbook_L_Roman-100"/>
     </defs>
     <g transform="translate(24.87013 151.37376)rotate(-90)scale(0.18 -0.18)">
      <use transform="translate(0 0.343476)scale(0.996264)" xlink:href="#Century_Schoolbook_L_Roman-90"/>
      <use transform="translate(88.5668 0.343476)scale(0.996264)" xlink:href="#Century_Schoolbook_L_Roman-76"/>
      <use transform="translate(155.016831 0.343476)scale(0.996264)" xlink:href="#Century_Schoolbook_L_Roman-111"/>
      <use transform="translate(204.830032 0.343476)scale(0.996264)" xlink:href="#Century_Schoolbook_L_Roman-97"/>
      <use transform="translate(260.221709 0.343476)scale(0.996264)" xlink:href="#Century_Schoolbook_L_Roman-100"/>
     </g>
    </g>
   </g>
   <g id="line2d_10">
    <path clip-path="url(#p8a7a0ec814)" d="M 65.32538 230.88 
L 66.331916 230.88 
L 66.445863 217.939809 
L 66.711741 217.939809 
L 66.825688 208.881675 
L 67.281478 208.881675 
L 67.395425 211.469713 
L 67.851215 211.469713 
L 67.965163 212.763732 
L 68.484257 212.763732 
L 68.598204 215.35177 
L 70.256773 215.35177 
L 70.37072 216.645789 
L 71.522856 216.645789 
L 71.636803 217.939809 
L 72.725634 217.939809 
L 72.839582 215.35177 
L 73.358676 215.35177 
L 73.472623 216.645789 
L 74.055021 216.645789 
L 74.168969 220.527847 
L 75.131192 220.527847 
L 75.245139 208.881675 
L 75.764233 208.881675 
L 75.878181 219.233828 
L 79.372569 219.233828 
L 79.486517 217.939809 
L 79.942307 217.939809 
L 80.056254 175.237177 
L 80.638652 175.237177 
L 80.7526 171.35512 
L 81.20839 171.35512 
L 81.322337 208.881675 
L 82.411168 208.881675 
L 82.525116 210.175694 
L 83.613947 210.175694 
L 83.727895 211.469713 
L 84.246988 211.469713 
L 84.360936 214.057751 
L 84.88003 214.057751 
L 84.993977 225.703923 
L 86.082809 225.703923 
L 86.196756 220.527847 
L 87.792021 220.527847 
L 87.905968 198.529522 
L 88.488366 198.529522 
L 88.602314 161.002967 
L 89.121408 161.002967 
L 89.235355 211.469713 
L 89.691145 211.469713 
L 89.805092 150.650813 
L 90.324186 150.650813 
L 90.438134 225.703923 
L 90.893924 225.703923 
L 91.007871 228.291962 
L 98.806942 228.291962 
L 98.920889 226.997943 
L 99.503287 226.997943 
L 99.617235 224.409904 
L 108.55578 224.409904 
L 108.669727 223.115885 
L 109.125517 223.115885 
L 109.239464 224.409904 
L 120.077134 224.409904 
L 120.191081 225.703923 
L 120.710175 225.703923 
L 120.824123 226.997943 
L 121.343217 226.997943 
L 121.457164 228.291962 
L 125.584594 228.291962 
L 125.698542 224.409904 
L 126.217636 224.409904 
L 126.331583 226.997943 
L 126.787373 226.997943 
L 126.90132 225.703923 
L 128.053456 225.703923 
L 128.167403 226.997943 
L 131.598488 226.997943 
L 131.712435 224.409904 
L 132.294833 224.409904 
L 132.408781 223.115885 
L 132.801267 223.115885 
L 132.915214 221.821866 
L 134.067349 221.821866 
L 134.181297 220.527847 
L 145.652008 220.527847 
L 145.765955 221.821866 
L 147.487828 221.821866 
L 147.601775 220.527847 
L 147.994261 220.527847 
L 148.108208 221.821866 
L 148.690607 221.821866 
L 148.804554 220.527847 
L 149.893385 220.527847 
L 150.007333 221.821866 
L 150.526427 221.821866 
L 150.640374 220.527847 
L 151.096164 220.527847 
L 151.210112 221.821866 
L 152.995288 221.821866 
L 153.109236 224.409904 
L 153.565026 224.409904 
L 153.678973 226.997943 
L 154.198067 226.997943 
L 154.312015 228.291962 
L 156.603625 228.291962 
L 156.717572 226.997943 
L 157.236666 226.997943 
L 157.350613 228.291962 
L 157.806403 228.291962 
L 157.920351 226.997943 
L 158.439445 226.997943 
L 158.553392 219.233828 
L 159.009182 219.233828 
L 159.123129 225.703923 
L 159.578919 225.703923 
L 159.692867 223.115885 
L 163.820297 223.115885 
L 163.934244 221.821866 
L 165.023076 221.821866 
L 165.137023 220.527847 
L 182.05189 220.527847 
L 182.165838 221.821866 
L 183.317973 221.821866 
L 183.431921 220.527847 
L 185.153793 220.527847 
L 185.267741 221.821866 
L 186.356572 221.821866 
L 186.470519 223.115885 
L 189.395171 223.115885 
L 189.509118 221.821866 
L 191.230991 221.821866 
L 191.344939 217.939809 
L 191.864032 217.939809 
L 191.97798 219.233828 
L 217.94534 219.233828 
L 218.059287 220.527847 
L 218.578381 220.527847 
L 218.692329 219.233828 
L 219.211422 219.233828 
L 219.32537 220.527847 
L 223.4528 220.527847 
L 223.566748 215.35177 
L 224.022537 215.35177 
L 224.136485 220.527847 
L 224.655579 220.527847 
L 224.769526 217.939809 
L 233.708071 217.939809 
L 233.822019 216.645789 
L 234.341113 216.645789 
L 234.45506 217.939809 
L 251.369927 217.939809 
L 251.483875 219.233828 
L 256.244346 219.233828 
L 256.358294 212.763732 
L 256.877388 212.763732 
L 256.991335 220.527847 
L 257.510429 220.527847 
L 257.624377 216.645789 
L 282.388958 216.645789 
L 282.502905 225.703923 
L 282.958695 225.703923 
L 283.072642 220.527847 
L 283.591736 220.527847 
L 283.705684 217.939809 
L 284.224778 217.939809 
L 284.338725 223.115885 
L 285.427557 223.115885 
L 285.541504 224.409904 
L 286.060598 224.409904 
L 286.174546 223.115885 
L 288.402851 223.115885 
L 288.516799 224.409904 
L 289.035893 224.409904 
L 289.14984 223.115885 
L 289.668934 223.115885 
L 289.782882 224.409904 
L 290.238672 224.409904 
L 290.352619 184.295311 
L 290.871713 184.295311 
L 290.98566 34.189091 
L 291.504754 34.189091 
L 291.618702 199.823541 
L 292.074492 199.823541 
L 292.188439 201.11756 
L 292.707533 201.11756 
L 292.821481 198.529522 
L 293.910312 198.529522 
L 294.024259 203.705598 
L 294.543353 203.705598 
L 294.657301 66.539569 
L 295.113091 66.539569 
L 295.227038 190.765407 
L 295.87274 190.765407 
L 295.986688 39.365167 
L 296.315869 39.365167 
L 296.429817 201.11756 
L 296.948911 201.11756 
L 297.062858 202.411579 
L 298.784731 202.411579 
L 298.898678 207.587656 
L 299.417772 207.587656 
L 299.53172 62.657512 
L 299.98751 62.657512 
L 300.101457 226.997943 
L 300.620551 226.997943 
L 300.734499 228.291962 
L 301.190288 228.291962 
L 301.304236 224.409904 
L 301.82333 224.409904 
L 301.937277 226.997943 
L 324.676126 226.997943 
L 324.790073 225.703923 
L 325.499079 225.703923 
L 325.613027 224.409904 
L 351.643691 224.409904 
L 351.757638 225.703923 
L 352.846469 225.703923 
L 352.960417 224.409904 
L 354.049248 224.409904 
L 354.163196 225.703923 
L 355.315331 225.703923 
L 355.429279 224.409904 
L 362.532003 224.409904 
L 362.645951 225.703923 
L 364.367824 225.703923 
L 364.481771 224.409904 
L 368.039464 224.409904 
L 368.153411 225.703923 
L 368.672505 225.703923 
L 368.786453 224.409904 
L 369.242243 224.409904 
L 369.35619 225.703923 
L 370.445021 225.703923 
L 370.558969 224.409904 
L 371.078063 224.409904 
L 371.19201 225.703923 
L 374.686399 225.703923 
L 374.800346 224.409904 
L 375.952482 224.409904 
L 376.066429 225.703923 
L 394.753812 225.703923 
L 394.86776 224.409904 
L 395.386854 224.409904 
L 395.500801 225.703923 
L 405.768733 225.703923 
L 405.882681 230.88 
L 406.338471 230.88 
L 406.452418 215.35177 
L 406.971512 215.35177 
L 407.08546 219.233828 
L 407.604554 219.233828 
L 407.718501 223.115885 
L 408.237595 223.115885 
L 408.351543 224.409904 
L 413.681751 224.409904 
L 413.795699 184.295311 
L 414.188185 184.295311 
L 414.302132 34.189091 
L 414.88453 34.189091 
L 414.998478 199.823541 
L 416.657046 199.823541 
L 416.770994 201.11756 
L 417.290088 201.11756 
L 417.404035 204.999617 
L 417.48 204.999617 
L 417.48 204.999617 
" style="fill:none;stroke:#e41a1c;stroke-linecap:square;stroke-width:2;"/>
   </g>
   <g id="patch_3">
    <path d="M 65.32538 230.88 
L 65.32538 14.52 
" style="fill:none;stroke:#000000;stroke-linecap:square;stroke-linejoin:miter;stroke-width:0.8;"/>
   </g>
   <g id="patch_4">
    <path d="M 417.48 230.88 
L 417.48 14.52 
" style="fill:none;"/>
   </g>
   <g id="patch_5">
    <path d="M 65.32538 230.88 
L 417.48 230.88 
" style="fill:none;stroke:#000000;stroke-linecap:square;stroke-linejoin:miter;stroke-width:0.8;"/>
   </g>
   <g id="patch_6">
    <path d="M 65.32538 14.52 
L 417.48 14.52 
" style="fill:none;"/>
   </g>
   <g id="legend_1">
    <g id="patch_7">
     <path d="M 70.12538 44.05585 
L 172.30098 44.05585 
Q 175.50098 44.05585 175.50098 40.85585 
L 175.50098 19.32 
Q 175.50098 16.12 172.30098 16.12 
L 70.12538 16.12 
Q 66.92538 16.12 66.92538 19.32 
L 66.92538 40.85585 
Q 66.92538 44.05585 70.12538 44.05585 
z
" style="fill:#ffffff;stroke:#000000;stroke-linejoin:miter;"/>
    </g>
    <g id="line2d_11">
     <path d="M 73.32538 28.77596 
L 105.32538 28.77596 
" style="fill:none;stroke:#e41a1c;stroke-linecap:square;stroke-width:2;"/>
    </g>
    <g id="line2d_12"/>
    <g id="text_12">
     <!-- Z Load -->
     <g transform="translate(118.12538 34.37596)scale(0.16 -0.16)">
      <use transform="translate(0 0.343476)scale(0.996264)" xlink:href="#Century_Schoolbook_L_Roman-90"/>
      <use transform="translate(88.5668 0.343476)scale(0.996264)" xlink:href="#Century_Schoolbook_L_Roman-76"/>
      <use transform="translate(155.016831 0.343476)scale(0.996264)" xlink:href="#Century_Schoolbook_L_Roman-111"/>
      <use transform="translate(204.830032 0.343476)scale(0.996264)" xlink:href="#Century_Schoolbook_L_Roman-97"/>
      <use transform="translate(260.221709 0.343476)scale(0.996264)" xlink:href="#Century_Schoolbook_L_Roman-100"/>
     </g>
    </g>
   </g>
  </g>
 </g>
 <defs>
  <clipPath id="p8a7a0ec814">
   <rect height="216.36" width="352.15462" x="65.32538" y="14.52"/>
  </clipPath>
 </defs>
</svg>
