<?xml version="1.0" encoding="utf-8" standalone="no"?>
<!DOCTYPE svg PUBLIC "-//W3C//DTD SVG 1.1//EN"
  "http://www.w3.org/Graphics/SVG/1.1/DTD/svg11.dtd">
<!-- Created with matplotlib (https://matplotlib.org/) -->
<svg height="288pt" version="1.1" viewBox="0 0 432 288" width="432pt" xmlns="http://www.w3.org/2000/svg" xmlns:xlink="http://www.w3.org/1999/xlink">
 <defs>
  <style type="text/css">
*{stroke-linecap:butt;stroke-linejoin:round;}
  </style>
 </defs>
 <g id="figure_1">
  <g id="patch_1">
   <path d="M 0 288 
L 432 288 
L 432 0 
L 0 0 
z
" style="fill:#ffffff;"/>
  </g>
  <g id="axes_1">
   <g id="patch_2">
    <path d="M 79.79325 230.88 
L 417.48 230.88 
L 417.48 14.52 
L 79.79325 14.52 
z
" style="fill:#ffffff;"/>
   </g>
   <g id="matplotlib.axis_1">
    <g id="xtick_1">
     <g id="line2d_1">
      <defs>
       <path d="M 0 0 
L 0 3.5 
" id="m6a9a6e9840" style="stroke:#000000;stroke-width:0.8;"/>
      </defs>
      <g>
       <use style="stroke:#000000;stroke-width:0.8;" x="143.131882" xlink:href="#m6a9a6e9840" y="230.88"/>
      </g>
     </g>
     <g id="text_1">
      <!-- $20$ -->
      <defs>
       <path d="M 41.703125 15.453125 
L 39.90625 15.453125 
C 38.90625 8.375 38.09375 7.171875 37.703125 6.5625 
C 37.203125 5.765625 30 5.765625 28.59375 5.765625 
L 9.40625 5.765625 
C 13 9.671875 20 16.75 28.5 24.953125 
C 34.59375 30.734375 41.703125 37.53125 41.703125 47.421875 
C 41.703125 59.21875 32.296875 66 21.796875 66 
C 10.796875 66 4.09375 56.3125 4.09375 47.34375 
C 4.09375 43.4375 7 42.9375 8.203125 42.9375 
C 9.203125 42.9375 12.203125 43.546875 12.203125 47.03125 
C 12.203125 50.109375 9.59375 51 8.203125 51 
C 7.59375 51 7 50.90625 6.59375 50.703125 
C 8.5 59.21875 14.296875 63.40625 20.40625 63.40625 
C 29.09375 63.40625 34.796875 56.515625 34.796875 47.421875 
C 34.796875 38.734375 29.703125 31.25 24 24.75 
L 4.09375 2.28125 
L 4.09375 0 
L 39.296875 0 
z
" id="CMR17-50"/>
       <path d="M 42 31.640625 
C 42 37.75 41.90625 48.125 37.703125 56.109375 
C 34 63.109375 28.09375 65.59375 22.90625 65.59375 
C 18.09375 65.59375 12 63.40625 8.203125 56.203125 
C 4.203125 48.71875 3.796875 39.4375 3.796875 31.640625 
C 3.796875 25.953125 3.90625 17.28125 7 9.671875 
C 11.296875 -0.609375 19 -2 22.90625 -2 
C 27.5 -2 34.5 -0.109375 38.59375 9.375 
C 41.59375 16.28125 42 24.359375 42 31.640625 
z
M 22.90625 -0.40625 
C 16.5 -0.40625 12.703125 5.078125 11.296875 12.6875 
C 10.203125 18.5625 10.203125 27.15625 10.203125 32.75 
C 10.203125 40.4375 10.203125 46.828125 11.5 52.921875 
C 13.40625 61.390625 19 64 22.90625 64 
C 27 64 32.296875 61.296875 34.203125 53.125 
C 35.5 47.4375 35.59375 40.734375 35.59375 32.75 
C 35.59375 26.25 35.59375 18.265625 34.40625 12.375 
C 32.296875 1.484375 26.40625 -0.40625 22.90625 -0.40625 
z
" id="CMR17-48"/>
      </defs>
      <g transform="translate(134.876757 251.21795)scale(0.18 -0.18)">
       <use transform="scale(0.996264)" xlink:href="#CMR17-50"/>
       <use transform="translate(45.690477 0)scale(0.996264)" xlink:href="#CMR17-48"/>
      </g>
     </g>
    </g>
    <g id="xtick_2">
     <g id="line2d_2">
      <g>
       <use style="stroke:#000000;stroke-width:0.8;" x="206.470514" xlink:href="#m6a9a6e9840" y="230.88"/>
      </g>
     </g>
     <g id="text_2">
      <!-- $40$ -->
      <defs>
       <path d="M 33.59375 64.40625 
C 33.59375 66.5 33.5 66.5 31.703125 66.5 
L 2 19.59375 
L 2 17 
L 27.796875 17 
L 27.796875 7.140625 
C 27.796875 3.5 27.59375 2.5 20.59375 2.5 
L 18.703125 2.5 
L 18.703125 0 
C 21.90625 0 27.296875 0 30.703125 0 
C 34.09375 0 39.5 0 42.703125 0 
L 42.703125 2.5 
L 40.796875 2.5 
C 33.796875 2.5 33.59375 3.5 33.59375 7.140625 
L 33.59375 17 
L 43.796875 17 
L 43.796875 19.59375 
L 33.59375 19.59375 
z
M 28.09375 57.859375 
L 28.09375 19.59375 
L 4 19.59375 
z
" id="CMR17-52"/>
      </defs>
      <g transform="translate(198.215389 251.21795)scale(0.18 -0.18)">
       <use transform="scale(0.996264)" xlink:href="#CMR17-52"/>
       <use transform="translate(45.690477 0)scale(0.996264)" xlink:href="#CMR17-48"/>
      </g>
     </g>
    </g>
    <g id="xtick_3">
     <g id="line2d_3">
      <g>
       <use style="stroke:#000000;stroke-width:0.8;" x="269.809146" xlink:href="#m6a9a6e9840" y="230.88"/>
      </g>
     </g>
     <g id="text_3">
      <!-- $60$ -->
      <defs>
       <path d="M 10.59375 34 
C 10.59375 57.65625 21.796875 63 28.296875 63 
C 30.40625 63 35.5 62.640625 37.5 59 
C 35.90625 59 32.90625 59 32.90625 55.515625 
C 32.90625 52.828125 35.09375 51.921875 36.5 51.921875 
C 37.40625 51.921875 40.09375 52.3125 40.09375 55.625 
C 40.09375 61.78125 35.09375 65.296875 28.203125 65.296875 
C 16.296875 65.296875 3.796875 52.96875 3.796875 31 
C 3.796875 3.953125 15.09375 -2 23.09375 -2 
C 32.796875 -2 42 6.671875 42 20.046875 
C 42 32.515625 33.90625 41.59375 23.703125 41.59375 
C 17.59375 41.59375 13.09375 37.609375 10.59375 30.625 
z
M 23.09375 0.390625 
C 10.796875 0.390625 10.796875 18.75 10.796875 22.4375 
C 10.796875 29.625 14.203125 40 23.5 40 
C 25.203125 40 30.09375 40 33.40625 33.125 
C 35.203125 29.21875 35.203125 25.140625 35.203125 20.140625 
C 35.203125 14.75 35.203125 10.78125 33.09375 6.78125 
C 30.90625 2.671875 27.703125 0.390625 23.09375 0.390625 
z
" id="CMR17-54"/>
      </defs>
      <g transform="translate(261.554021 251.21795)scale(0.18 -0.18)">
       <use transform="scale(0.996264)" xlink:href="#CMR17-54"/>
       <use transform="translate(45.690477 0)scale(0.996264)" xlink:href="#CMR17-48"/>
      </g>
     </g>
    </g>
    <g id="xtick_4">
     <g id="line2d_4">
      <g>
       <use style="stroke:#000000;stroke-width:0.8;" x="333.147778" xlink:href="#m6a9a6e9840" y="230.88"/>
      </g>
     </g>
     <g id="text_4">
      <!-- $80$ -->
      <defs>
       <path d="M 27.203125 35.375 
C 33.5 38.546875 39.90625 43.328125 39.90625 50.984375 
C 39.90625 60.015625 31.09375 65.296875 23 65.296875 
C 13.90625 65.296875 5.90625 58.734375 5.90625 49.6875 
C 5.90625 47.203125 6.5 42.921875 10.40625 39.140625 
C 11.40625 38.15625 15.59375 35.171875 18.296875 33.28125 
C 13.796875 30.984375 3.296875 25.53125 3.296875 14.59375 
C 3.296875 4.359375 13.09375 -2 22.796875 -2 
C 33.5 -2 42.5 5.65625 42.5 15.78125 
C 42.5 24.84375 36.40625 29.015625 32.40625 31.703125 
z
M 14.09375 44.09375 
C 13.296875 44.59375 9.296875 47.671875 9.296875 52.359375 
C 9.296875 58.421875 15.59375 63 22.796875 63 
C 30.703125 63 36.5 57.4375 36.5 50.96875 
C 36.5 41.703125 26.09375 36.421875 25.59375 36.421875 
C 25.5 36.421875 25.40625 36.421875 24.59375 37.03125 
z
M 32.5 23.734375 
C 34 22.640625 38.796875 19.375 38.796875 13.296875 
C 38.796875 5.953125 31.40625 0.390625 23 0.390625 
C 13.90625 0.390625 7 6.84375 7 14.6875 
C 7 22.546875 13.09375 29.09375 20 32.1875 
z
" id="CMR17-56"/>
      </defs>
      <g transform="translate(324.892653 251.21795)scale(0.18 -0.18)">
       <use transform="scale(0.996264)" xlink:href="#CMR17-56"/>
       <use transform="translate(45.690477 0)scale(0.996264)" xlink:href="#CMR17-48"/>
      </g>
     </g>
    </g>
    <g id="xtick_5">
     <g id="line2d_5">
      <g>
       <use style="stroke:#000000;stroke-width:0.8;" x="396.48641" xlink:href="#m6a9a6e9840" y="230.88"/>
      </g>
     </g>
     <g id="text_5">
      <!-- $100$ -->
      <defs>
       <path d="M 26.59375 63.40625 
C 26.59375 65.5 26.5 65.5 25.09375 65.5 
C 21.203125 61.1875 15.296875 59.796875 9.703125 59.796875 
C 9.40625 59.796875 8.90625 59.796875 8.796875 59.5 
C 8.703125 59.296875 8.703125 59.09375 8.703125 57 
C 11.796875 57 17 57.59375 21 59.984375 
L 21 7.203125 
C 21 3.6875 20.796875 2.5 12.203125 2.5 
L 9.203125 2.5 
L 9.203125 0 
C 14 0 19 0 23.796875 0 
C 28.59375 0 33.59375 0 38.40625 0 
L 38.40625 2.5 
L 35.40625 2.5 
C 26.796875 2.5 26.59375 3.59375 26.59375 7.15625 
z
" id="CMR17-49"/>
      </defs>
      <g transform="translate(384.10372 251.21795)scale(0.18 -0.18)">
       <use transform="scale(0.996264)" xlink:href="#CMR17-49"/>
       <use transform="translate(45.690477 0)scale(0.996264)" xlink:href="#CMR17-48"/>
       <use transform="translate(91.380954 0)scale(0.996264)" xlink:href="#CMR17-48"/>
      </g>
     </g>
    </g>
    <g id="text_6">
     <!-- Time (s) -->
     <defs>
      <path d="M 63.296875 72 
L 3.40625 72 
L 1.90625 44.265625 
L 6.203125 44.265625 
C 6.90625 49.25 7.796875 53.046875 8.90625 56.234375 
C 11.5 63.515625 16.296875 67.3125 23.09375 67.3125 
C 26.40625 67.3125 27.796875 66.203125 27.796875 63.71875 
L 27.796875 12.28125 
L 27.796875 9.375 
C 27.796875 5.1875 26.90625 4.6875 18.796875 4.6875 
L 16.203125 4.6875 
L 16.203125 0 
L 50.5 0 
L 50.5 4.6875 
L 47.90625 4.6875 
C 39.90625 4.6875 39 5.1875 39 9.375 
L 39 12.28125 
L 39 63.71875 
C 39 66.203125 40.40625 67.3125 43.703125 67.3125 
C 49.796875 67.3125 54.703125 63.90625 57.203125 57.921875 
C 58.703125 54.25 59.703125 49.953125 60.5 44.265625 
L 64.796875 44.265625 
z
" id="Century_Schoolbook_L_Roman-84"/>
      <path d="M 20.59375 46 
L 1.796875 46 
L 1.796875 41.21875 
L 6.90625 41.21875 
C 10.59375 41.21875 11.203125 40.515625 11.203125 36.203125 
L 11.203125 12.296875 
L 11.203125 8.296875 
C 11.203125 4.296875 10.09375 3.59375 3.703125 3.59375 
L 3 3.59375 
L 3 0 
L 28.90625 0 
L 28.90625 3.59375 
L 28.203125 3.59375 
C 21.703125 3.59375 20.59375 4.28125 20.59375 8.21875 
L 20.59375 12.171875 
z
M 15.90625 71.578125 
C 12.703125 71.578125 10.09375 68.984375 10.09375 65.796875 
C 10.09375 62.703125 12.703125 60 15.796875 60 
C 19.09375 60 21.703125 62.59375 21.703125 65.796875 
C 21.703125 68.984375 19.09375 71.578125 15.90625 71.578125 
z
" id="Century_Schoolbook_L_Roman-105"/>
      <path d="M 20.09375 46 
L 2.296875 46 
L 2.296875 41.21875 
L 6.40625 41.21875 
C 10.09375 41.21875 10.703125 40.515625 10.703125 36.203125 
L 10.703125 12.296875 
L 10.703125 8.40625 
C 10.703125 4.296875 9.59375 3.59375 3.203125 3.59375 
L 2.796875 3.59375 
L 2.796875 0 
L 28 0 
L 28 3.59375 
L 27.59375 3.59375 
C 21.203125 3.59375 20.09375 4.296875 20.09375 8.390625 
L 20.09375 12.28125 
L 20.09375 26.453125 
C 20.09375 35.328125 25 41.921875 31.5 41.921875 
C 34.09375 41.921875 36.90625 40.515625 38.09375 38.625 
C 39.5 36.734375 40.09375 33.828125 40.09375 29.734375 
L 40.09375 12.28125 
L 40.09375 8.28125 
C 40.09375 4.296875 39 3.59375 32.5 3.59375 
L 32.09375 3.59375 
L 32.09375 0 
L 57.40625 0 
L 57.40625 3.59375 
L 57 3.59375 
C 50.59375 3.59375 49.5 4.296875 49.5 8.28125 
L 49.5 12.28125 
L 49.5 25.546875 
C 49.5 35.53125 54 41.921875 61 41.921875 
C 64.296875 41.921875 67 40.015625 68.296875 36.921875 
C 69.203125 34.734375 69.5 32.53125 69.5 28.640625 
L 69.5 12.28125 
L 69.5 8.28125 
C 69.5 4.296875 68.40625 3.59375 61.90625 3.59375 
L 61.5 3.59375 
L 61.5 0 
L 86.796875 0 
L 86.796875 3.59375 
L 86.40625 3.59375 
C 80 3.59375 78.90625 4.296875 78.90625 8.390625 
L 78.90625 12.28125 
L 78.90625 30.640625 
C 78.90625 36.828125 78.296875 38.921875 75.703125 42.3125 
C 72.796875 46.015625 68.703125 48 63.90625 48 
C 57.40625 48 52.59375 44.9375 48.296875 38.109375 
C 46.59375 44.046875 41.203125 48 34.5 48 
C 28.5 48 24 45.140625 20.09375 38.921875 
z
" id="Century_Schoolbook_L_Roman-109"/>
      <path d="M 46.5 23 
C 46.59375 37.8125 38.09375 48.28125 25.90625 48.28125 
C 13.09375 48.28125 3.5 37.25 3.5 22.34375 
C 3.5 8.4375 12.59375 -1 26.09375 -1 
C 35.59375 -1 42.40625 3.6875 46.5 13.1875 
L 43 15.09375 
C 38.90625 7.390625 34.703125 4.390625 28 4.390625 
C 22.90625 4.390625 19.203125 6.59375 16.59375 11 
C 14.796875 14 14 17.5 14.09375 23 
z
M 14.203125 27.296875 
C 14.203125 30.34375 14.59375 32.5 15.59375 35.25 
C 17.703125 41.140625 20.90625 44 25.703125 44 
C 31.796875 44 35.796875 38.78125 35.796875 30.921875 
C 35.796875 28.078125 34.90625 27.296875 31.703125 27.296875 
z
" id="Century_Schoolbook_L_Roman-101"/>
      <path d="M 27.90625 73.453125 
C 21.90625 69.765625 18.703125 67.171875 15.296875 63.171875 
C 7.703125 54.1875 3.59375 42.71875 3.59375 30.640625 
C 3.59375 19.265625 7.203125 8.578125 13.90625 -0.296875 
C 17.703125 -5.09375 21.09375 -8.078125 27.90625 -12.28125 
L 27.90625 -8.578125 
C 17.90625 0.203125 13.90625 11.484375 13.90625 30.640625 
C 13.90625 49.796875 17.90625 60.984375 27.90625 69.765625 
z
" id="Century_Schoolbook_L_Roman-40"/>
      <path d="M 39 48 
L 35.5 48 
L 32.59375 44.40625 
C 29 47.203125 25.40625 48.390625 20.40625 48.390625 
C 11.59375 48.390625 5.796875 42.625 5.796875 33.953125 
C 5.796875 30.078125 7.09375 26.78125 9.296875 24.8125 
C 11.59375 22.703125 13.90625 21.71875 19.90625 20.3125 
L 25.203125 19.125 
C 33.09375 17.234375 35.90625 15.234375 35.90625 11.265625 
C 35.90625 6.578125 31.796875 3.296875 25.90625 3.296875 
C 17.5 3.296875 11.5 8.765625 9.09375 18.875 
L 5.09375 18.875 
L 5.09375 0 
L 8.59375 0 
L 12.09375 3.90625 
C 16.203125 0.59375 20.796875 -1 25.796875 -1 
C 35.59375 -1 42.09375 5.078125 42.09375 14.34375 
C 42.09375 18.71875 40.703125 22.09375 37.90625 24.390625 
C 35.5 26.484375 33.5 27.28125 27.40625 28.5625 
L 22.40625 29.671875 
C 16.90625 30.859375 16.90625 30.859375 15.09375 31.859375 
C 12.90625 32.859375 11.59375 34.9375 11.59375 37.140625 
C 11.59375 41.109375 15.40625 44 20.90625 44 
C 24.703125 44 27.796875 42.703125 30.59375 40.015625 
C 32.796875 37.8125 33.90625 35.828125 35.5 31.234375 
L 39 31.234375 
z
" id="Century_Schoolbook_L_Roman-115"/>
      <path d="M 5.40625 -12.28125 
C 11.40625 -8.578125 14.59375 -5.984375 18 -1.890625 
C 25.59375 6.984375 29.703125 18.5625 29.703125 30.640625 
C 29.703125 42.015625 26.09375 52.703125 19.40625 61.484375 
C 15.59375 66.375 12.203125 69.359375 5.40625 73.453125 
L 5.40625 69.765625 
C 15.40625 60.984375 19.40625 49.796875 19.40625 30.640625 
C 19.40625 11.375 15.40625 0.203125 5.40625 -8.578125 
z
" id="Century_Schoolbook_L_Roman-41"/>
     </defs>
     <g transform="translate(214.63516 273.24577)scale(0.18 -0.18)">
      <use transform="translate(0 -0.29235)scale(0.996264)" xlink:href="#Century_Schoolbook_L_Roman-84"/>
      <use transform="translate(66.450031 -0.29235)scale(0.996264)" xlink:href="#Century_Schoolbook_L_Roman-105"/>
      <use transform="translate(97.831344 -0.29235)scale(0.996264)" xlink:href="#Century_Schoolbook_L_Roman-109"/>
      <use transform="translate(186.398251 -0.29235)scale(0.996264)" xlink:href="#Century_Schoolbook_L_Roman-101"/>
      <use transform="translate(263.906621 -0.29235)scale(0.996264)" xlink:href="#Century_Schoolbook_L_Roman-40"/>
      <use transform="translate(297.081851 -0.29235)scale(0.996264)" xlink:href="#Century_Schoolbook_L_Roman-115"/>
      <use transform="translate(343.207661 -0.29235)scale(0.996264)" xlink:href="#Century_Schoolbook_L_Roman-41"/>
     </g>
    </g>
   </g>
   <g id="matplotlib.axis_2">
    <g id="ytick_1">
     <g id="line2d_6">
      <defs>
       <path d="M 0 0 
L -3.5 0 
" id="m7546cf40dc" style="stroke:#000000;stroke-width:0.8;"/>
      </defs>
      <g>
       <use style="stroke:#000000;stroke-width:0.8;" x="79.79325" xlink:href="#m7546cf40dc" y="230.88"/>
      </g>
     </g>
     <g id="text_7">
      <!-- $-200$ -->
      <defs>
       <path d="M 65.90625 23 
C 67.59375 23 69.40625 23 69.40625 25 
C 69.40625 27 67.59375 27 65.90625 27 
L 11.796875 27 
C 10.09375 27 8.296875 27 8.296875 25 
C 8.296875 23 10.09375 23 11.796875 23 
z
" id="CMSY10-0"/>
      </defs>
      <g transform="translate(34.02782 237.548975)scale(0.18 -0.18)">
       <use transform="translate(0 -0.031134)scale(0.996264)" xlink:href="#CMSY10-0"/>
       <use transform="translate(77.487468 -0.031134)scale(0.996264)" xlink:href="#CMR17-50"/>
       <use transform="translate(123.177945 -0.031134)scale(0.996264)" xlink:href="#CMR17-48"/>
       <use transform="translate(168.868422 -0.031134)scale(0.996264)" xlink:href="#CMR17-48"/>
      </g>
     </g>
    </g>
    <g id="ytick_2">
     <g id="line2d_7">
      <g>
       <use style="stroke:#000000;stroke-width:0.8;" x="79.79325" xlink:href="#m7546cf40dc" y="183.014254"/>
      </g>
     </g>
     <g id="text_8">
      <!-- $0$ -->
      <g transform="translate(64.53812 189.683229)scale(0.18 -0.18)">
       <use transform="scale(0.996264)" xlink:href="#CMR17-48"/>
      </g>
     </g>
    </g>
    <g id="ytick_3">
     <g id="line2d_8">
      <g>
       <use style="stroke:#000000;stroke-width:0.8;" x="79.79325" xlink:href="#m7546cf40dc" y="135.148508"/>
      </g>
     </g>
     <g id="text_9">
      <!-- $200$ -->
      <g transform="translate(48.02787 141.817483)scale(0.18 -0.18)">
       <use transform="scale(0.996264)" xlink:href="#CMR17-50"/>
       <use transform="translate(45.690477 0)scale(0.996264)" xlink:href="#CMR17-48"/>
       <use transform="translate(91.380954 0)scale(0.996264)" xlink:href="#CMR17-48"/>
      </g>
     </g>
    </g>
    <g id="ytick_4">
     <g id="line2d_9">
      <g>
       <use style="stroke:#000000;stroke-width:0.8;" x="79.79325" xlink:href="#m7546cf40dc" y="87.282762"/>
      </g>
     </g>
     <g id="text_10">
      <!-- $400$ -->
      <g transform="translate(48.02787 93.951737)scale(0.18 -0.18)">
       <use transform="scale(0.996264)" xlink:href="#CMR17-52"/>
       <use transform="translate(45.690477 0)scale(0.996264)" xlink:href="#CMR17-48"/>
       <use transform="translate(91.380954 0)scale(0.996264)" xlink:href="#CMR17-48"/>
      </g>
     </g>
    </g>
    <g id="ytick_5">
     <g id="line2d_10">
      <g>
       <use style="stroke:#000000;stroke-width:0.8;" x="79.79325" xlink:href="#m7546cf40dc" y="39.417016"/>
      </g>
     </g>
     <g id="text_11">
      <!-- $600$ -->
      <g transform="translate(48.02787 46.085991)scale(0.18 -0.18)">
       <use transform="scale(0.996264)" xlink:href="#CMR17-54"/>
       <use transform="translate(45.690477 0)scale(0.996264)" xlink:href="#CMR17-48"/>
       <use transform="translate(91.380954 0)scale(0.996264)" xlink:href="#CMR17-48"/>
      </g>
     </g>
    </g>
    <g id="text_12">
     <!-- Surface Speed -->
     <defs>
      <path d="M 54.59375 72 
L 50.90625 72 
L 46.90625 66.09375 
C 42.203125 70.59375 35.796875 73 28.703125 73 
C 15.59375 73 6.796875 64.609375 6.796875 52.15625 
C 6.796875 41.28125 12.203125 35.890625 26.90625 32.109375 
L 36.40625 29.703125 
C 43.796875 27.828125 44.5 27.625 46.59375 26.03125 
C 49.59375 23.734375 51.203125 20.4375 51.203125 16.546875 
C 51.203125 12.5625 49.703125 9.28125 46.703125 6.59375 
C 43.40625 3.6875 40.09375 2.59375 34.59375 2.59375 
C 27.203125 2.59375 21.90625 4.875 17.203125 10.03125 
C 13 14.703125 10.90625 19.375 9.40625 27 
L 5.09375 27 
L 5.5 -1.4375 
L 9.40625 -1.4375 
L 13.90625 5.46875 
C 20.59375 0 26.203125 -2 34.90625 -2 
C 49.59375 -2 59 6.59375 59 19.9375 
C 59 26.109375 56.90625 31.40625 53 35.203125 
C 50.296875 37.796875 46.40625 39.484375 38.40625 41.484375 
L 27.703125 44.171875 
C 18.796875 46.46875 14.59375 50.359375 14.59375 56.4375 
C 14.59375 63.40625 20.296875 68.203125 28.796875 68.203125 
C 35.796875 68.203125 41.5 65.1875 45.5 59.484375 
C 48.40625 55.375 50.203125 51.15625 51.5 46.046875 
L 55.796875 46.046875 
z
" id="Century_Schoolbook_L_Roman-83"/>
      <path d="M 41.203125 0 
L 59.40625 0 
L 59.40625 4.703125 
L 56.90625 4.703125 
C 51.40625 4.703125 50.59375 5.59375 50.59375 11.953125 
L 50.59375 46.78125 
L 31.796875 46.78125 
L 31.796875 42 
L 36.90625 42 
C 40.59375 42 41.203125 41.296875 41.203125 36.953125 
L 41.203125 24.5625 
C 41.203125 18.8125 40.59375 15.484375 39.09375 12.15625 
C 37 7.71875 33 5.09375 28.09375 5.09375 
C 25 5.09375 22.40625 6.1875 21.09375 8.171875 
C 19.796875 10.046875 19.59375 11.046875 19.59375 16.5 
L 19.59375 46.78125 
L 2.09375 46.78125 
L 2.09375 42 
L 5.90625 42 
C 9.59375 42 10.203125 41.296875 10.203125 36.953125 
L 10.203125 15.21875 
C 10.203125 10.078125 10.59375 7.765625 12.09375 5.453125 
C 14.796875 1.3125 19.59375 -1 25.59375 -1 
C 32.203125 -1 36.796875 1.71875 41.203125 8.125 
z
" id="Century_Schoolbook_L_Roman-117"/>
      <path d="M 19.796875 46 
L 2.09375 46 
L 2.09375 41.21875 
L 6.203125 41.21875 
C 9.90625 41.21875 10.5 40.515625 10.5 36.203125 
L 10.5 12.296875 
L 10.5 8.296875 
C 10.5 4.296875 9.40625 3.59375 2.90625 3.59375 
L 2.5 3.59375 
L 2.5 0 
L 29.203125 0 
L 29.203125 3.59375 
L 27.296875 3.59375 
C 20.90625 3.59375 19.796875 4.296875 19.796875 8.296875 
L 19.796875 12.296875 
L 19.796875 13.296875 
C 19.796875 20.8125 21.203125 28.40625 23.703125 34.109375 
C 26.09375 39.703125 29.5 42.8125 33.703125 43.3125 
C 32.296875 41.703125 31.90625 40.6875 31.90625 38.765625 
C 31.90625 35.546875 34.203125 33.234375 37.40625 33.234375 
C 41 33.234375 43.5 35.9375 43.5 40.015625 
C 43.5 44.8125 40.09375 48 34.796875 48 
C 28.5 48 23 42.921875 19.796875 34.140625 
z
" id="Century_Schoolbook_L_Roman-114"/>
      <path d="M 20.09375 46.296875 
L 20.09375 52.140625 
C 20.09375 57.265625 20.40625 60.65625 21.203125 62.71875 
C 22.796875 67.234375 26.296875 70 30.296875 70 
C 32.40625 70 33.703125 69.390625 33.703125 68.25 
C 33.703125 67.921875 33.59375 67.734375 33.09375 66.90625 
C 32.5 65.890625 32.203125 64.75 32.203125 63.625 
C 32.203125 60.546875 34.59375 58.203125 37.703125 58.203125 
C 41 58.203125 43.296875 60.734375 43.296875 64.40625 
C 43.296875 70.328125 38.296875 74 30.203125 74 
C 23.296875 74 18.296875 71.53125 14.703125 66.4375 
C 11.703125 62.140625 10.703125 57.734375 10.703125 49.46875 
L 10.703125 46.296875 
L 1.90625 46.296875 
L 1.90625 42 
L 10.703125 42 
L 10.703125 12.234375 
L 10.703125 8.25 
C 10.703125 4.296875 9.59375 3.59375 3.203125 3.59375 
L 2.796875 3.59375 
L 2.796875 0 
L 29.5 0 
L 29.5 3.59375 
L 27.703125 3.59375 
C 21.203125 3.59375 20.09375 4.296875 20.09375 8.25 
L 20.09375 12.234375 
L 20.09375 42 
L 31.09375 42 
L 31.09375 46.296875 
z
" id="Century_Schoolbook_L_Roman-102"/>
      <path d="M 45.203125 32.578125 
C 45.203125 38.796875 44.09375 41.96875 41.203125 44.34375 
C 37.90625 46.90625 33 48.28125 26.59375 48.28125 
C 15.40625 48.28125 7.09375 43.046875 7.09375 35.921875 
C 7.09375 32.15625 9.40625 29.78125 12.90625 29.78125 
C 16 29.78125 18.296875 31.859375 18.296875 34.8125 
C 18.296875 36.109375 17.796875 37.484375 16.796875 38.875 
C 16.203125 39.546875 16.09375 39.84375 16.09375 40.15625 
C 16.09375 42.21875 20.203125 44 25 44 
C 28.09375 44 31.59375 43.015625 33.203125 41.53125 
C 35.09375 39.953125 35.796875 37.578125 35.796875 33.125 
L 35.796875 29.28125 
C 25.296875 27.484375 22.09375 26.6875 17.203125 24.8125 
C 8.59375 21.609375 4.40625 16.9375 4.40625 10.65625 
C 4.40625 3.578125 10.09375 -1 18.90625 -1 
C 25.796875 -1 32 1.859375 36.296875 7.0625 
C 37.90625 1.984375 40.40625 0 45.09375 0 
C 49.59375 0 54.296875 2.890625 54.296875 5.78125 
C 54.296875 6.46875 53.796875 6.96875 53.296875 6.96875 
C 52.90625 6.96875 52.5 6.875 51.796875 6.578125 
C 50.203125 6 49.796875 5.890625 49 5.890625 
C 46.203125 5.890625 45.203125 7.78125 45.203125 12.71875 
z
M 35.796875 20.46875 
C 35.796875 14.46875 35.5 13.078125 33.796875 10.484375 
C 31.296875 6.78125 26.703125 4.296875 22.40625 4.296875 
C 17.90625 4.296875 14.5 7.59375 14.5 12.078125 
C 14.5 16.265625 16.59375 19.265625 21 21.359375 
C 24.09375 22.75 28 23.75 35.796875 25.046875 
z
" id="Century_Schoolbook_L_Roman-97"/>
      <path d="M 38.703125 15.125 
C 35.5 7.96875 32.09375 5.09375 26.90625 5.09375 
C 18.90625 5.09375 13.90625 12.328125 13.90625 23.9375 
C 13.90625 35.953125 18.796875 44 26.203125 44 
C 29.203125 44 31.796875 42.59375 31.796875 41.015625 
C 31.796875 40.71875 31.59375 40.421875 31.203125 39.8125 
C 29.59375 37.9375 29.203125 36.9375 29.203125 35.265625 
C 29.203125 31.984375 31.703125 29.703125 35.203125 29.703125 
C 38.703125 29.703125 41.296875 32.484375 41.296875 36.453125 
C 41.296875 43.109375 34.59375 48.28125 25.703125 48.28125 
C 12.703125 48.28125 3.40625 37.65625 3.40625 22.84375 
C 3.40625 8.734375 11.90625 -1 24.296875 -1 
C 33.203125 -1 38.296875 3.078125 42.59375 13.625 
z
" id="Century_Schoolbook_L_Roman-99"/>
      <path d="M 20.09375 46 
L 2.796875 46 
L 2.796875 41.21875 
L 6.40625 41.21875 
C 10.09375 41.21875 10.703125 40.515625 10.703125 36.21875 
L 10.703125 -7.75 
L 10.703125 -11.71875 
C 10.703125 -15.71875 9.59375 -16.40625 3.203125 -16.40625 
L 2.796875 -16.40625 
L 2.796875 -20 
L 28.796875 -20 
L 28.796875 -16.40625 
L 27.703125 -16.40625 
C 21.203125 -16.40625 20.09375 -15.71875 20.09375 -11.734375 
L 20.09375 -7.75 
L 20.09375 6.6875 
C 23.40625 0.90625 27.203125 -1.390625 33.296875 -1.390625 
C 44.90625 -1.390625 53.5 9.265625 53.5 23.5 
C 53.5 37.265625 44.90625 48 33.90625 48 
C 27.703125 48 23.59375 45.4375 20.09375 39.515625 
z
M 32.09375 42.609375 
C 39 42.609375 43 35.75 43 24.09375 
C 43 11.265625 38.90625 4 31.796875 4 
C 24.703125 4 20 11.375 20 22.8125 
C 20 35.140625 24.5 42.609375 32.09375 42.609375 
z
" id="Century_Schoolbook_L_Roman-112"/>
      <path d="M 38 0 
L 55.40625 0 
L 55.40625 4.703125 
L 53.59375 4.703125 
C 48.203125 4.703125 47.40625 5.703125 47.40625 11.96875 
L 47.40625 73.78125 
L 27.796875 73.78125 
L 27.796875 69 
L 33.703125 69 
C 37.296875 69 38 68.28125 38 63.921875 
L 38 41 
C 34.296875 46.09375 30 48.390625 24.203125 48.390625 
C 12.90625 48.390625 4.296875 37.546875 4.296875 23.203125 
C 4.296875 9.0625 12.59375 -1 24.203125 -1 
C 30.5 -1 34.796875 1.671875 38 7.59375 
z
M 26.203125 43 
C 30.296875 43 34.203125 40.03125 36 35.4375 
C 37.203125 32.453125 37.90625 28.28125 37.90625 23.515625 
C 37.90625 11.96875 33.296875 4.390625 26.09375 4.390625 
C 19.09375 4.390625 14.796875 10.96875 14.796875 22.015625 
C 14.796875 27.890625 15.40625 32.359375 16.703125 35.734375 
C 18.40625 40.125 22.09375 43 26.203125 43 
z
" id="Century_Schoolbook_L_Roman-100"/>
     </defs>
     <g transform="translate(25.33795 181.86556)rotate(-90)scale(0.18 -0.18)">
      <use transform="translate(0 -1.570628)scale(0.996264)" xlink:href="#Century_Schoolbook_L_Roman-83"/>
      <use transform="translate(62.763979 -1.570628)scale(0.996264)" xlink:href="#Century_Schoolbook_L_Roman-117"/>
      <use transform="translate(123.63561 -1.570628)scale(0.996264)" xlink:href="#Century_Schoolbook_L_Roman-114"/>
      <use transform="translate(167.869178 -1.570628)scale(0.996264)" xlink:href="#Century_Schoolbook_L_Roman-102"/>
      <use transform="translate(201.044408 -1.570628)scale(0.996264)" xlink:href="#Century_Schoolbook_L_Roman-97"/>
      <use transform="translate(256.436085 -1.570628)scale(0.996264)" xlink:href="#Century_Schoolbook_L_Roman-99"/>
      <use transform="translate(300.669654 -1.570628)scale(0.996264)" xlink:href="#Century_Schoolbook_L_Roman-101"/>
      <use transform="translate(378.178024 -1.570628)scale(0.996264)" xlink:href="#Century_Schoolbook_L_Roman-83"/>
      <use transform="translate(440.942003 -1.570628)scale(0.996264)" xlink:href="#Century_Schoolbook_L_Roman-112"/>
      <use transform="translate(498.12749 -1.570628)scale(0.996264)" xlink:href="#Century_Schoolbook_L_Roman-101"/>
      <use transform="translate(547.940691 -1.570628)scale(0.996264)" xlink:href="#Century_Schoolbook_L_Roman-101"/>
      <use transform="translate(597.753891 -1.570628)scale(0.996264)" xlink:href="#Century_Schoolbook_L_Roman-100"/>
     </g>
    </g>
   </g>
   <g id="line2d_11">
    <path clip-path="url(#p6b597ddd78)" d="M 79.79325 183.014254 
L 95.339717 183.014254 
L 95.456894 176.467693 
L 95.498064 176.467693 
L 95.612073 160.23222 
L 95.65641 160.23222 
L 95.77042 148.57934 
L 95.783088 148.57934 
L 95.897097 145.044197 
L 95.973104 145.044197 
L 96.087113 144.127679 
L 96.099781 144.127679 
L 96.216957 144.389541 
L 96.258127 144.389541 
L 96.372137 145.044197 
L 96.384805 145.044197 
L 96.498814 145.698853 
L 96.574821 145.698853 
L 96.68883 146.091647 
L 96.701498 146.091647 
L 96.815507 146.484441 
L 96.954852 146.484441 
L 97.068862 146.615372 
L 97.08153 146.615372 
L 97.195539 146.746303 
L 97.208207 146.746303 
L 97.322216 146.877235 
L 98.760003 146.877235 
L 98.874013 146.746303 
L 98.91835 146.746303 
L 99.032359 146.877235 
L 99.045027 146.877235 
L 99.159037 146.746303 
L 100.153453 146.746303 
L 100.267463 146.877235 
L 100.280131 146.877235 
L 100.39414 146.746303 
L 100.406808 146.746303 
L 100.520817 146.877235 
L 100.533485 146.877235 
L 100.647495 146.746303 
L 100.691832 146.746303 
L 100.805841 146.877235 
L 100.818509 146.877235 
L 100.932518 146.746303 
L 101.420226 146.746303 
L 101.534235 146.877235 
L 101.578573 146.877235 
L 101.692582 146.746303 
L 101.70525 146.746303 
L 101.819259 146.877235 
L 102.433644 146.877235 
L 102.547654 146.746303 
L 102.940353 146.746303 
L 103.054363 146.877235 
L 103.06703 146.877235 
L 103.18104 146.746303 
L 103.257046 146.746303 
L 103.371056 146.877235 
L 103.383724 146.877235 
L 103.497733 146.746303 
L 104.080448 146.746303 
L 104.175456 146.877235 
L 104.191291 146.746303 
L 104.207126 146.746303 
L 104.321135 146.877235 
L 104.428811 146.877235 
L 104.54282 146.746303 
L 104.555488 146.746303 
L 104.669498 146.877235 
L 104.713835 146.877235 
L 104.827844 146.746303 
L 105.600576 146.746303 
L 105.714585 146.877235 
L 105.85393 146.877235 
L 105.96794 146.746303 
L 106.138954 146.746303 
L 106.252964 146.877235 
L 106.709002 146.877235 
L 106.823011 146.746303 
L 106.835679 146.746303 
L 106.949689 146.877235 
L 106.962356 146.877235 
L 107.076366 146.746303 
L 107.089033 146.746303 
L 107.203043 146.877235 
L 107.215711 146.877235 
L 107.32972 146.746303 
L 107.342388 146.746303 
L 107.456398 146.877235 
L 107.469065 146.877235 
L 107.583075 146.746303 
L 108.355806 146.746303 
L 108.469816 146.877235 
L 109.020862 146.877235 
L 109.11587 146.746303 
L 109.131704 146.877235 
L 109.179208 146.877235 
L 109.293218 146.746303 
L 109.55924 146.746303 
L 109.67325 146.877235 
L 109.875933 146.877235 
L 109.970941 146.746303 
L 109.986776 146.877235 
L 110.097619 146.877235 
L 110.211628 146.746303 
L 110.731005 146.746303 
L 110.845014 146.877235 
L 111.744423 146.877235 
L 111.776092 146.746303 
L 111.855266 146.877235 
L 111.966108 146.877235 
L 112.080118 146.746303 
L 112.251132 146.746303 
L 112.365142 146.877235 
L 112.504487 146.877235 
L 112.618496 146.746303 
L 112.694502 146.746303 
L 112.808512 146.877235 
L 112.916188 146.877235 
L 113.030197 146.746303 
L 113.676251 146.746303 
L 113.790261 146.877235 
L 114.18296 146.877235 
L 114.246299 146.746303 
L 114.293803 146.877235 
L 114.404645 146.877235 
L 114.467984 146.746303 
L 114.515488 146.877235 
L 114.531323 146.877235 
L 114.594661 146.746303 
L 114.642165 146.877235 
L 114.689669 146.877235 
L 114.803679 146.746303 
L 115.038032 146.746303 
L 115.069701 146.877235 
L 115.148874 146.746303 
L 115.196378 146.746303 
L 115.310388 146.877235 
L 115.449733 146.877235 
L 115.513072 146.746303 
L 115.560576 146.877235 
L 115.639749 146.877235 
L 115.753758 146.746303 
L 116.273135 146.746303 
L 116.368143 146.877235 
L 116.383978 146.746303 
L 116.463151 146.746303 
L 116.577161 146.877235 
L 117.191545 146.877235 
L 117.305555 146.746303 
L 117.381561 146.746303 
L 117.495571 146.877235 
L 117.539908 146.877235 
L 117.653917 146.746303 
L 117.983278 146.746303 
L 118.097288 146.877235 
L 118.173294 146.877235 
L 118.287304 146.746303 
L 118.331641 146.746303 
L 118.44565 146.877235 
L 118.458318 146.877235 
L 118.572327 146.746303 
L 118.996696 146.746303 
L 119.028366 146.877235 
L 119.107539 146.746303 
L 119.250051 146.746303 
L 119.36406 146.877235 
L 119.946776 146.877235 
L 120.060785 146.746303 
L 120.073453 146.746303 
L 120.187463 146.877235 
L 120.358477 146.877235 
L 120.472486 146.746303 
L 120.801847 146.746303 
L 120.833517 146.877235 
L 120.91269 146.746303 
L 121.023533 146.746303 
L 121.137542 146.877235 
L 121.213548 146.877235 
L 121.327558 146.746303 
L 121.720258 146.746303 
L 121.751927 146.877235 
L 121.8311 146.746303 
L 122.005281 146.746303 
L 122.119291 146.877235 
L 123.177046 146.877235 
L 123.291056 146.746303 
L 123.557078 146.746303 
L 123.652086 146.877235 
L 123.66792 146.746303 
L 123.683755 146.746303 
L 123.797765 146.877235 
L 124.000448 146.877235 
L 124.114458 146.746303 
L 124.760512 146.746303 
L 124.874521 146.877235 
L 125.583914 146.877235 
L 125.697924 146.746303 
L 125.710591 146.746303 
L 125.824601 146.877235 
L 125.932277 146.877235 
L 126.046286 146.746303 
L 126.312308 146.746303 
L 126.426318 146.877235 
L 126.438986 146.877235 
L 126.470655 146.746303 
L 126.549828 146.790665 
L 126.597332 146.790665 
L 126.660671 146.965637 
L 126.708175 146.879387 
L 126.819017 146.990186 
L 126.882356 147.056624 
L 126.885523 146.949178 
L 126.92986 146.993491 
L 128.782515 146.96272 
L 128.845854 146.862104 
L 128.893358 146.955631 
L 129.03587 147.008161 
L 129.067539 147.066761 
L 129.149879 147.061893 
L 129.162547 147.061893 
L 129.225885 147.297754 
L 129.276556 147.232606 
L 129.384232 147.290367 
L 129.47924 147.409155 
L 129.482407 147.230194 
L 129.491908 147.230194 
L 130.207634 147.272002 
L 130.321644 147.553454 
L 130.334311 147.553454 
L 130.429319 147.859301 
L 130.448321 147.768624 
L 130.460989 147.768624 
L 130.555997 147.939235 
L 130.571831 147.853366 
L 131.537745 147.817978 
L 131.601084 148.000573 
L 131.604251 147.790276 
L 131.648588 147.829805 
L 131.664423 147.829805 
L 131.696092 147.986097 
L 131.699259 147.784729 
L 131.775265 147.834977 
L 131.7911 147.834977 
L 131.825936 147.801926 
L 131.90511 148.024199 
L 131.949447 148.005081 
L 131.981116 147.826962 
L 132.060289 147.901089 
L 132.076124 147.901089 
L 132.190133 148.07443 
L 132.202801 148.07443 
L 132.237637 148.104844 
L 132.316811 147.904865 
L 132.329478 147.904865 
L 132.443488 148.164526 
L 132.456156 148.164526 
L 132.487825 147.957117 
L 132.554331 148.197332 
L 132.563831 148.197332 
L 132.614502 148.186694 
L 132.646172 147.996922 
L 132.681008 148.189819 
L 132.728512 148.012073 
L 132.804518 148.031495 
L 132.918528 148.291923 
L 132.962865 148.268 
L 132.997701 148.322295 
L 133.076874 148.113811 
L 133.152881 148.192141 
L 133.18455 148.40053 
L 133.219386 148.175984 
L 133.26689 148.389983 
L 133.342896 148.432224 
L 133.406235 148.261788 
L 133.441071 148.493562 
L 133.450572 148.493562 
L 133.469574 148.493562 
L 133.583583 148.088259 
L 133.596251 148.088259 
L 133.691259 147.403583 
L 133.710261 147.522829 
L 133.786267 147.464128 
L 133.900276 147.247618 
L 133.912944 147.247618 
L 134.026954 147.370217 
L 134.039621 147.370217 
L 134.156798 146.968301 
L 134.229637 146.893305 
L 134.343647 146.759028 
L 134.768016 146.865999 
L 134.885192 146.962677 
L 135.148048 147.060084 
L 135.262057 147.113533 
L 135.306394 147.087488 
L 135.423571 146.822612 
L 135.528079 146.716875 
L 135.642089 146.558794 
L 136.066458 146.618322 
L 136.180467 146.673225 
L 136.478159 146.784038 
L 137.247723 146.79578 
L 141.798604 146.898812 
L 141.83344 146.874101 
L 141.912613 146.892588 
L 150.539335 146.984252 
L 150.571004 147.010407 
L 150.605841 146.956262 
L 150.650178 146.983125 
L 156.588174 147.058819 
L 156.651513 147.108009 
L 156.65468 147.040406 
L 156.69585 147.050435 
L 158.741688 147.127149 
L 158.805027 147.178892 
L 158.808194 147.099494 
L 158.849364 147.103911 
L 159.976791 147.19645 
L 160.011628 147.158555 
L 160.090801 147.216155 
L 161.528588 147.296431 
L 161.560257 147.329365 
L 161.563424 147.238474 
L 161.63943 147.317517 
L 161.87695 147.285412 
L 161.90862 147.433681 
L 161.975125 147.271376 
L 161.984626 147.271376 
L 162.35199 147.309213 
L 162.466 147.400854 
L 163.302069 147.43563 
L 163.416079 147.534452 
L 163.935456 147.632894 
L 163.970292 147.540663 
L 164.049465 147.670286 
L 164.062133 147.670286 
L 164.125472 147.55391 
L 164.160308 147.673619 
L 164.172976 147.673619 
L 164.473834 147.650494 
L 164.587844 147.797403 
L 164.600511 147.797403 
L 164.632181 147.674641 
L 164.698686 147.859813 
L 164.708187 147.859813 
L 164.727189 147.859813 
L 164.758858 147.729236 
L 164.825364 147.899749 
L 164.834864 147.899749 
L 164.853866 147.899749 
L 164.885535 147.757999 
L 164.952041 147.925835 
L 164.961542 147.925835 
L 164.980543 147.925835 
L 165.012213 147.812586 
L 165.047049 147.972325 
L 165.088219 147.972325 
L 165.10722 147.972325 
L 165.13889 147.853599 
L 165.173726 148.031498 
L 165.218063 147.887512 
L 165.297236 147.908802 
L 165.411246 148.125179 
L 165.455583 148.13984 
L 165.487252 148.007611 
L 165.522089 148.199041 
L 165.566426 148.062668 
L 165.58226 148.062668 
L 165.69627 148.264041 
L 165.740607 148.264041 
L 165.772276 148.108408 
L 165.775443 148.362935 
L 165.851449 148.244054 
L 165.867284 148.244054 
L 165.898953 148.446609 
L 165.978127 148.323401 
L 165.993961 148.323401 
L 166.107971 148.652359 
L 166.183977 148.724178 
L 166.218813 148.634657 
L 166.304321 148.964829 
L 166.310654 148.964829 
L 166.342324 148.81075 
L 166.37716 149.185893 
L 166.415163 149.185893 
L 166.437332 149.185893 
L 166.469001 149.0683 
L 166.472168 149.513321 
L 166.53234 149.431571 
L 166.627348 149.921437 
L 166.646349 149.860552 
L 166.659017 149.860552 
L 166.776193 150.573608 
L 166.785694 150.573608 
L 166.880702 151.093556 
L 166.899704 151.080249 
L 166.912371 151.080249 
L 167.026381 151.978346 
L 167.039049 151.978346 
L 167.156225 152.668079 
L 167.165726 152.668079 
L 167.286069 153.827499 
L 167.292403 153.827499 
L 167.40958 154.683507 
L 167.419081 154.683507 
L 167.542591 156.251376 
L 167.545758 156.251376 
L 167.666101 157.509548 
L 167.672435 157.509548 
L 167.805446 159.859752 
L 167.862451 159.859752 
L 167.979627 161.603637 
L 167.989128 161.603637 
L 168.106305 163.570601 
L 168.115806 163.570601 
L 168.239316 164.793373 
L 168.242483 164.793373 
L 168.359659 166.615217 
L 168.36916 166.615217 
L 168.499004 168.414678 
L 168.527507 168.414678 
L 168.644683 169.010121 
L 168.654184 169.010121 
L 168.777694 171.67577 
L 168.780861 171.67577 
L 168.904371 172.858018 
L 168.907538 172.858018 
L 169.034216 174.62521 
L 169.065885 174.62521 
L 169.198896 176.684734 
L 169.255901 176.684734 
L 169.373077 178.154493 
L 169.382578 178.154493 
L 169.499755 179.694783 
L 169.509255 179.694783 
L 169.642267 181.494944 
L 169.699271 181.494944 
L 169.832282 183.2941 
L 169.857618 183.2941 
L 169.952626 183.696579 
L 170.091971 149.742185 
L 170.142642 149.742185 
L 170.262985 98.785228 
L 170.269319 98.785228 
L 170.392829 59.629054 
L 170.459335 59.629054 
L 170.576511 33.49626 
L 170.586012 33.49626 
L 170.725357 39.120727 
L 170.807697 39.120727 
L 170.928041 44.225947 
L 170.934375 44.225947 
L 171.054718 49.383798 
L 171.061052 49.383798 
L 171.181395 54.962699 
L 171.219398 54.962699 
L 171.333408 56.85742 
L 171.346076 56.85742 
L 171.460085 62.43632 
L 171.504422 62.43632 
L 171.618432 68.594163 
L 171.662769 68.594163 
L 171.776778 74.9099 
L 171.789446 74.9099 
L 171.903456 79.278284 
L 171.947793 79.278284 
L 172.07447 91.330814 
L 172.106139 91.330814 
L 172.220149 93.90974 
L 172.232817 93.90974 
L 172.349993 107.962253 
L 172.391163 107.962253 
L 172.505173 111.014859 
L 172.51784 111.014859 
L 172.63185 120.698988 
L 172.644518 120.698988 
L 172.758527 131.856789 
L 172.834534 131.856789 
L 172.948543 141.277763 
L 172.961211 141.277763 
L 173.07522 146.599231 
L 173.119557 146.604954 
L 173.236734 147.952415 
L 173.277904 147.952415 
L 173.391914 148.247103 
L 173.531259 148.163034 
L 173.645268 147.875316 
L 173.721274 147.794171 
L 173.838451 147.482432 
L 173.91129 147.386989 
L 174.034801 147.234378 
L 174.164645 147.12682 
L 174.278654 146.998818 
L 175.051386 146.904311 
L 175.114724 146.884586 
L 175.162228 146.900443 
L 184.520511 146.985937 
L 184.634521 147.013442 
L 188.827538 147.117796 
L 188.862374 147.065379 
L 188.941548 147.119759 
L 192.374502 147.22826 
L 192.409338 147.178453 
L 192.501179 147.246594 
L 192.532848 147.19266 
L 192.536015 147.255227 
L 192.612021 147.235968 
L 193.83129 147.335723 
L 193.866126 147.275058 
L 193.948467 147.374143 
L 194.528015 147.343284 
L 194.559684 147.254901 
L 194.562851 147.425443 
L 194.635691 147.365351 
L 194.908047 147.463744 
L 194.942883 147.381084 
L 195.025223 147.493353 
L 195.604772 147.501277 
L 195.636441 147.605899 
L 195.715614 147.512577 
L 195.826457 147.517376 
L 195.889796 147.637803 
L 195.9373 147.555842 
L 195.984804 147.555842 
L 196.098813 147.698761 
L 196.459843 147.790082 
L 196.573853 147.815156 
L 196.681529 147.815156 
L 196.744867 147.69338 
L 196.779703 147.911712 
L 196.789204 147.911712 
L 196.808206 147.911712 
L 196.839875 147.777419 
L 196.874711 147.957038 
L 196.915882 147.957038 
L 196.934883 147.957038 
L 196.966552 147.831019 
L 197.001389 147.992842 
L 197.045726 147.85888 
L 197.188238 147.866974 
L 197.251576 148.103369 
L 197.29908 147.960717 
L 197.314915 147.960717 
L 197.378254 148.165197 
L 197.425757 148.035268 
L 197.441592 148.035268 
L 197.473261 148.213772 
L 197.552435 148.085453 
L 197.568269 148.085453 
L 197.685446 148.532615 
L 197.694947 148.532615 
L 197.758285 148.205914 
L 197.805789 148.460555 
L 197.884963 148.495405 
L 197.916632 148.346603 
L 197.951468 148.623157 
L 197.995805 148.462072 
L 198.043309 148.520478 
L 198.138317 148.813987 
L 198.154152 148.656508 
L 198.169986 148.656508 
L 198.233325 148.993833 
L 198.283996 148.971333 
L 198.296664 148.971333 
L 198.391672 149.377544 
L 198.410673 149.301864 
L 198.423341 149.301864 
L 198.540517 149.906394 
L 198.613357 149.906394 
L 198.7337 150.808827 
L 198.803373 150.788222 
L 198.920549 151.938848 
L 198.993389 151.972029 
L 199.113732 153.041032 
L 199.120066 153.041032 
L 199.237242 153.842466 
L 199.246743 153.842466 
L 199.367087 155.217967 
L 199.37342 155.217967 
L 199.493764 156.372608 
L 199.500098 156.372608 
L 199.620441 158.206353 
L 199.626775 158.206353 
L 199.750285 159.422389 
L 199.753452 159.422389 
L 199.873796 161.247455 
L 199.880129 161.247455 
L 200.00364 162.329779 
L 200.006807 162.329779 
L 200.12715 163.95165 
L 200.133484 163.95165 
L 200.247494 164.792693 
L 200.260161 164.792693 
L 200.377338 165.741157 
L 200.450177 165.741157 
L 200.583188 167.064742 
L 200.608524 167.064742 
L 200.7257 167.511826 
L 200.79854 167.548265 
L 200.915716 167.742826 
L 201.051894 167.85207 
L 201.175405 167.886656 
L 202.698699 167.989039 
L 202.815875 168.032267 
L 203.1104 168.127824 
L 203.243411 168.257509 
L 203.395424 168.257509 
L 203.509433 168.426144 
L 203.648778 168.532804 
L 203.772288 168.610371 
L 203.933802 168.696617 
L 204.054145 168.826301 
L 204.218826 168.935509 
L 204.339169 169.083395 
L 204.408842 169.156201 
L 204.526018 169.345008 
L 204.630527 169.449697 
L 204.747703 169.670389 
L 204.852212 169.743194 
L 204.969389 170.000288 
L 205.042228 170.073094 
L 205.156238 170.22098 
L 205.232244 170.330188 
L 205.352587 170.550879 
L 205.453929 170.623685 
L 205.567939 170.807973 
L 205.612276 170.917181 
L 205.729452 171.069016 
L 205.802292 171.137873 
L 205.919468 171.394967 
L 205.928969 171.394967 
L 206.049312 171.83635 
L 206.087315 171.83635 
L 206.204492 172.611071 
L 206.277331 172.611071 
L 206.397675 173.378914 
L 206.404009 173.378914 
L 206.521185 173.929505 
L 206.562355 173.929505 
L 206.676365 174.147921 
L 206.689032 174.147921 
L 206.81571 175.249103 
L 206.93922 175.690486 
L 206.942387 175.690486 
L 207.075398 176.461768 
L 207.132403 176.461768 
L 207.252746 177.123514 
L 207.322419 177.23305 
L 207.436428 177.783641 
L 207.480765 177.783641 
L 207.597942 178.554923 
L 207.607443 178.554923 
L 207.727786 179.215978 
L 207.765789 179.215978 
L 207.886133 179.876796 
L 207.892466 179.876796 
L 208.009643 180.428242 
L 208.082482 180.536595 
L 208.196492 180.977978 
L 208.20916 180.977978 
L 208.323169 181.637777 
L 208.335837 181.637777 
L 208.453013 182.299851 
L 208.494183 182.299851 
L 208.61136 183.071114 
L 208.620861 183.071114 
L 208.738037 183.510241 
L 208.747538 183.510241 
L 208.842546 183.696805 
L 208.975557 158.221739 
L 209.000893 158.221739 
L 209.118069 143.660659 
L 209.12757 143.660659 
L 209.247913 122.043759 
L 209.254247 122.043759 
L 209.371424 109.089962 
L 209.380924 109.089962 
L 209.501268 90.551048 
L 209.539271 90.551048 
L 209.659614 70.111317 
L 209.665948 70.111317 
L 209.795792 58.084333 
L 209.824295 58.084333 
L 209.938304 49.937488 
L 209.982641 49.937488 
L 210.04598 48.910118 
L 210.049147 50.804839 
L 210.090317 50.804839 
L 210.109319 50.804839 
L 210.226495 54.54165 
L 210.235996 54.54165 
L 210.350005 60.015288 
L 210.426012 60.015288 
L 210.540021 66.015238 
L 210.552689 66.015238 
L 210.666699 72.330974 
L 210.742705 72.330974 
L 210.856714 78.804604 
L 210.869382 78.804604 
L 210.983392 85.804545 
L 211.059398 85.804545 
L 211.173408 93.383429 
L 211.186075 93.383429 
L 211.300085 101.541255 
L 211.344422 101.541255 
L 211.458431 110.330654 
L 211.471099 110.330654 
L 211.585109 120.014784 
L 211.597776 120.014784 
L 211.711786 131.172585 
L 211.787792 131.172585 
L 211.901802 140.909345 
L 211.946139 140.909345 
L 212.060148 146.491898 
L 212.072816 146.491898 
L 212.186826 147.604631 
L 212.199493 147.604631 
L 212.313503 148.193844 
L 212.452848 148.099131 
L 212.573191 147.948403 
L 212.642864 147.847282 
L 212.763207 147.542541 
L 212.83288 147.439476 
L 212.95639 147.240037 
L 213.086234 147.144731 
L 213.200244 147.095813 
L 213.244581 147.095813 
L 213.35859 146.942666 
L 213.782959 146.871101 
L 213.846298 146.830763 
L 213.893802 146.853656 
L 217.4566 146.908777 
L 217.488269 146.966329 
L 217.567442 146.925142 
L 226.292339 147.012006 
L 226.406349 147.060499 
L 231.35943 147.165715 
L 231.486107 147.198178 
L 231.549446 147.138917 
L 231.603283 147.15248 
L 233.164581 147.252243 
L 233.259589 147.292169 
L 233.281757 147.286596 
L 234.494692 147.323201 
L 234.558031 147.416015 
L 234.608701 147.405403 
L 235.476441 147.427095 
L 235.50811 147.545079 
L 235.59045 147.538636 
L 236.046488 147.550621 
L 236.078158 147.661635 
L 236.157331 147.553921 
L 236.173166 147.553921 
L 236.204835 147.667604 
L 236.284008 147.558028 
L 236.299843 147.558028 
L 236.331512 147.67652 
L 236.410686 147.604446 
L 236.42652 147.604446 
L 236.54053 147.753014 
L 236.964899 147.751453 
L 237.028237 147.917768 
L 237.075741 147.783218 
L 237.091576 147.783218 
L 237.205585 147.975622 
L 237.471608 148.077781 
L 237.506444 147.95787 
L 237.588784 148.166676 
L 237.661624 148.198324 
L 237.693293 148.042353 
L 237.728129 148.256146 
L 237.772466 148.098953 
L 237.81997 148.120211 
L 237.914978 148.347008 
L 237.930813 148.195746 
L 238.041655 148.257929 
L 238.155665 148.574435 
L 238.390018 148.533807 
L 238.504027 149.135231 
L 238.548364 149.135231 
L 238.668708 149.615003 
L 238.675042 149.615003 
L 238.789051 149.995868 
L 238.801719 149.995868 
L 238.922062 150.837514 
L 238.960065 150.837514 
L 239.077242 151.48776 
L 239.086743 151.48776 
L 239.207086 152.637243 
L 239.21342 152.637243 
L 239.333763 153.900721 
L 239.371767 153.900721 
L 239.495277 155.169216 
L 239.530113 155.169216 
L 239.653624 156.745482 
L 239.65679 156.745482 
L 239.777134 158.014067 
L 239.783468 158.014067 
L 239.906978 159.347821 
L 239.910145 159.347821 
L 240.027321 161.755404 
L 240.036822 161.755404 
L 240.157166 163.139324 
L 240.163499 163.139324 
L 240.283843 165.209959 
L 240.290177 165.209959 
L 240.413687 166.577616 
L 240.416854 166.577616 
L 240.53403 167.931344 
L 240.543531 167.931344 
L 240.660708 170.287163 
L 240.670209 170.287163 
L 240.787385 171.621892 
L 240.796886 171.621892 
L 240.917229 173.615323 
L 240.923563 173.615323 
L 241.04074 175.273567 
L 241.05024 175.273567 
L 241.176918 176.928442 
L 241.208587 176.928442 
L 241.325763 178.252326 
L 241.335264 178.252326 
L 241.452441 180.236273 
L 241.461941 180.236273 
L 241.575951 181.558146 
L 241.651957 181.558146 
L 241.715296 183.696805 
L 241.750132 180.059786 
L 241.753299 180.059786 
L 241.841973 180.059786 
L 241.962317 129.12688 
L 242.00032 129.12688 
L 242.120663 65.407394 
L 242.126997 65.407394 
L 242.24734 37.537772 
L 242.253674 37.537772 
L 242.317013 32.079893 
L 242.364517 34.120769 
L 242.44369 34.120769 
L 242.560867 37.43653 
L 242.602037 37.43653 
L 242.716046 42.647013 
L 242.728714 42.647013 
L 242.842724 47.752233 
L 242.887061 47.752233 
L 243.00107 53.17324 
L 243.077077 53.17324 
L 243.191086 58.857403 
L 243.203754 58.857403 
L 243.317763 64.646828 
L 243.330431 64.646828 
L 243.444441 70.857302 
L 243.457108 70.857302 
L 243.577452 77.383563 
L 243.678794 77.383563 
L 243.79597 86.646643 
L 243.805471 86.646643 
L 243.922647 91.699232 
L 243.963817 91.699232 
L 244.077827 99.751796 
L 244.122164 99.751796 
L 244.236174 108.435934 
L 244.248841 108.435934 
L 244.362851 117.909538 
L 244.407188 117.909538 
L 244.521197 128.751552 
L 244.565534 128.751552 
L 244.679544 139.435673 
L 244.723881 139.435673 
L 244.837891 145.961934 
L 244.945566 145.961934 
L 245.059576 148.224992 
L 245.293929 148.258889 
L 245.388937 148.016872 
L 245.407938 148.03148 
L 245.452275 147.955854 
L 245.569452 147.612627 
L 245.67396 147.553116 
L 245.794304 147.332184 
L 245.863976 147.259066 
L 245.958984 147.149461 
L 245.977986 147.165092 
L 246.053992 147.056475 
L 246.174336 146.99556 
L 258.721719 147.073672 
L 258.753388 147.11995 
L 258.788224 147.030135 
L 258.832561 147.071346 
L 261.033579 147.132531 
L 261.065248 147.184495 
L 261.068415 147.109293 
L 261.144421 147.171412 
L 262.965407 147.275502 
L 263.000243 147.220784 
L 263.082584 147.308529 
L 264.517204 147.408257 
L 264.55204 147.342554 
L 264.631213 147.427943 
L 265.403944 147.530379 
L 265.438781 147.447609 
L 265.521121 147.575018 
L 266.100669 147.569716 
L 266.214679 147.715265 
L 266.54404 147.696142 
L 266.607378 147.830099 
L 266.654882 147.713421 
L 266.765725 147.741595 
L 266.879735 147.937526 
L 266.892402 147.937526 
L 266.924072 147.80769 
L 266.958908 147.982143 
L 267.000078 147.982143 
L 267.272434 147.953075 
L 267.386444 148.169524 
L 267.46245 148.184195 
L 267.494119 148.044685 
L 267.528955 148.243346 
L 267.573293 148.10228 
L 267.620797 148.1216 
L 267.715804 148.347983 
L 267.731639 148.196484 
L 267.810812 148.221219 
L 267.90582 148.504918 
L 267.921655 148.356496 
L 267.969159 148.420668 
L 268.064167 148.708712 
L 268.080002 148.544687 
L 268.127506 148.609548 
L 268.190844 148.845794 
L 268.238348 148.760914 
L 268.285852 148.86224 
L 268.399862 149.156852 
L 268.412529 149.156852 
L 268.532873 149.807822 
L 268.570876 149.757181 
L 268.665884 150.538482 
L 268.691219 150.523187 
L 268.697553 150.523187 
L 268.817897 151.487219 
L 268.8559 151.487219 
L 268.976243 152.602928 
L 268.982577 152.602928 
L 269.099754 153.461224 
L 269.109254 153.461224 
L 269.229598 154.749186 
L 269.235932 154.749186 
L 269.353108 155.937787 
L 269.362609 155.937787 
L 269.479785 157.582748 
L 269.489286 157.582748 
L 269.625464 160.104187 
L 269.647633 160.104187 
L 269.764809 161.589393 
L 269.77431 161.589393 
L 269.894653 163.670272 
L 269.900987 163.670272 
L 270.014997 164.00585 
L 270.027665 164.00585 
L 270.151175 167.106133 
L 270.154342 167.106133 
L 270.277852 168.461451 
L 270.281019 168.461451 
L 270.41403 170.817966 
L 270.439366 170.817966 
L 270.556542 172.144739 
L 270.566043 172.144739 
L 270.686386 174.143686 
L 270.724389 174.143686 
L 270.8479 175.469361 
L 270.851067 175.469361 
L 270.968243 177.788191 
L 270.977744 177.788191 
L 271.09492 179.112339 
L 271.104421 179.112339 
L 271.224765 181.094646 
L 271.231099 181.094646 
L 271.357776 182.745784 
L 271.389445 182.745784 
L 271.452784 183.696805 
L 271.48762 180.059786 
L 271.516122 180.059786 
L 271.639633 140.040865 
L 271.6428 140.040865 
L 271.76631 96.395358 
L 271.769477 96.395358 
L 271.892987 46.492507 
L 271.896154 46.492507 
L 272.016498 33.188896 
L 272.022831 33.188896 
L 272.117839 32.541835 
L 272.121006 35.647072 
L 272.181178 35.647072 
L 272.298354 39.068096 
L 272.307855 39.068096 
L 272.425032 42.594382 
L 272.434533 42.594382 
L 272.548542 47.646971 
L 272.56121 47.646971 
L 272.681553 53.120609 
L 272.751226 53.120609 
L 272.865235 58.804772 
L 272.909572 58.804772 
L 273.023582 64.541566 
L 273.03625 64.541566 
L 273.150259 70.857302 
L 273.226265 70.857302 
L 273.340275 72.962548 
L 273.352943 72.962548 
L 273.466952 84.17298 
L 273.47962 84.17298 
L 273.59363 91.646601 
L 273.637967 91.646601 
L 273.751976 99.751796 
L 273.827982 99.751796 
L 273.941992 108.435934 
L 273.95466 108.435934 
L 274.068669 117.962169 
L 274.113006 117.962169 
L 274.227016 128.751552 
L 274.271353 128.751552 
L 274.385362 139.488304 
L 274.39803 139.488304 
L 274.51204 144.961942 
L 274.524707 144.961942 
L 274.638717 147.396614 
L 274.651385 147.396614 
L 274.768561 148.280325 
L 274.999747 148.250849 
L 275.120091 147.983127 
L 275.158094 147.983127 
L 275.27527 147.65017 
L 275.34811 147.59715 
L 275.411448 147.389086 
L 275.462119 147.406156 
L 275.506456 147.319765 
L 275.623633 147.165619 
L 275.823149 147.082277 
L 275.886488 146.981372 
L 275.937159 146.983957 
L 279.94016 147.007697 
L 280.057337 147.197397 
L 280.89024 147.146928 
L 280.921909 147.080842 
L 281.001083 147.13133 
L 281.080256 147.140529 
L 281.111925 147.01022 
L 281.191098 147.06686 
L 281.586965 147.005367 
L 281.650304 146.94289 
L 281.697807 147.003053 
L 282.030335 146.968434 
L 282.062005 146.88994 
L 282.096841 146.971422 
L 282.141178 146.971422 
L 286.337362 147.063062 
L 286.369032 147.09855 
L 286.403868 147.053165 
L 286.445038 147.051699 
L 289.155931 147.125895 
L 289.187601 147.172512 
L 289.190768 147.084385 
L 289.263607 147.084385 
L 290.549381 147.1726 
L 290.581051 147.226209 
L 290.615887 147.138323 
L 290.657057 147.153622 
L 291.657807 147.208744 
L 291.689477 147.269881 
L 291.724313 147.194443 
L 291.76865 147.256026 
L 293.114596 147.34716 
L 293.149432 147.288091 
L 293.228605 147.363546 
L 294.191353 147.386269 
L 294.305362 147.497332 
L 294.31803 147.497332 
L 294.381369 147.314344 
L 294.428873 147.439369 
L 294.571384 147.456622 
L 294.634723 147.555905 
L 294.682227 147.453545 
L 294.729731 147.478878 
L 294.79307 147.590472 
L 294.796237 147.474595 
L 294.843741 147.580368 
L 295.331448 147.686241 
L 295.366284 147.589253 
L 295.445458 147.710082 
L 295.806488 147.705751 
L 295.838157 147.838778 
L 295.91733 147.742212 
L 295.933165 147.742212 
L 295.964834 147.882437 
L 296.044008 147.766213 
L 296.059842 147.766213 
L 296.173852 147.948564 
L 296.408205 147.901421 
L 296.522214 148.10424 
L 296.693229 148.199617 
L 296.728065 148.083435 
L 296.810405 148.287112 
L 296.819906 148.287112 
L 296.851575 148.139464 
L 296.918081 148.371953 
L 296.927582 148.371953 
L 296.946583 148.371953 
L 296.978252 148.209189 
L 297.044758 148.507476 
L 297.054259 148.507476 
L 297.07326 148.507476 
L 297.10493 148.340208 
L 297.139766 148.61228 
L 297.180936 148.61228 
L 297.199938 148.61228 
L 297.231607 148.449513 
L 297.266443 148.746834 
L 297.31078 148.588175 
L 297.358284 148.659717 
L 297.453292 148.991556 
L 297.469127 148.866078 
L 297.484962 148.866078 
L 297.605305 149.331674 
L 297.611639 149.331674 
L 297.725648 149.752913 
L 297.738316 149.752913 
L 297.855493 150.514126 
L 297.864993 150.514126 
L 297.98217 151.121334 
L 297.991671 151.121334 
L 298.112014 152.106942 
L 298.150017 152.169199 
L 298.270361 153.384076 
L 298.276694 153.384076 
L 298.393871 154.280469 
L 298.403372 154.280469 
L 298.523715 155.773585 
L 298.530049 155.773585 
L 298.653559 157.252845 
L 298.688396 157.252845 
L 298.802405 158.187335 
L 298.815073 158.187335 
L 298.929082 160.360153 
L 298.94175 160.360153 
L 299.058927 163.40841 
L 299.100097 163.40841 
L 299.217273 165.319473 
L 299.226774 165.319473 
L 299.350284 166.844804 
L 299.353451 166.844804 
L 299.470628 169.112666 
L 299.511798 169.112666 
L 299.644809 172.100725 
L 299.670144 172.100725 
L 299.793655 173.586948 
L 299.796822 173.586948 
L 299.929833 176.177426 
L 299.955168 176.177426 
L 300.078679 177.648642 
L 300.081845 177.648642 
L 300.199022 179.487688 
L 300.208523 179.487688 
L 300.338367 181.69422 
L 300.366869 181.69422 
L 300.484046 183.530717 
L 300.493547 183.530717 
L 300.556885 183.696805 
L 300.69623 149.742185 
L 300.715232 149.742185 
L 300.835575 80.599804 
L 300.841909 80.599804 
L 300.962252 46.256986 
L 300.968586 46.256986 
L 301.082596 32.123515 
L 301.095264 32.123515 
L 301.209273 34.278662 
L 301.285279 34.278662 
L 301.399289 39.331251 
L 301.411957 39.331251 
L 301.525966 44.541734 
L 301.538634 44.541734 
L 301.652644 47.910127 
L 301.696981 47.910127 
L 301.820491 55.331117 
L 301.823658 55.331117 
L 301.937667 57.278469 
L 301.950335 57.278469 
L 302.067512 67.015229 
L 302.108682 67.015229 
L 302.222691 69.120475 
L 302.235359 69.120475 
L 302.349368 75.646736 
L 302.362036 75.646736 
L 302.476046 82.383521 
L 302.552052 82.383521 
L 302.666062 89.699249 
L 302.678729 89.699249 
L 302.792739 97.646551 
L 302.837076 97.646551 
L 302.951085 106.225426 
L 302.995423 106.225426 
L 303.109432 115.541137 
L 303.1221 115.541137 
L 303.236109 125.85684 
L 303.280446 125.85684 
L 303.394456 137.330428 
L 303.470462 137.330428 
L 303.584472 146.22509 
L 303.628809 146.22509 
L 303.742818 147.486941 
L 303.755486 147.486941 
L 303.872663 148.244434 
L 304.072179 148.173733 
L 304.192523 147.883443 
L 304.293864 147.817614 
L 304.411041 147.506453 
L 304.452211 147.516196 
L 304.566221 147.260798 
L 304.642227 147.16257 
L 304.765737 146.989173 
L 304.990589 146.898961 
L 305.107766 146.8125 
L 320.001845 146.904717 
L 320.033515 146.935236 
L 320.112688 146.916908 
L 321.680319 146.980921 
L 321.711988 147.04386 
L 321.778494 146.965246 
L 321.787995 146.965246 
L 321.870335 147.028433 
L 321.933674 147.117414 
L 321.981177 147.08659 
L 322.123689 147.124288 
L 322.187028 147.234412 
L 322.234532 147.158195 
L 322.377044 147.243078 
L 322.440383 147.307174 
L 322.475219 147.232039 
L 322.48472 147.232039 
L 323.295454 147.129747 
L 323.33029 147.151836 
L 323.409464 147.10613 
L 323.738825 147.041534 
L 323.833832 146.975813 
L 323.849667 146.99933 
L 332.194532 147.072372 
L 332.226201 147.112827 
L 332.292707 147.044395 
L 332.302208 147.044395 
L 334.189699 147.113708 
L 334.253037 147.162676 
L 334.300541 147.125377 
L 335.931511 147.229404 
L 335.966347 147.186503 
L 336.058188 147.256373 
L 336.976599 147.358674 
L 337.011435 147.306643 
L 337.090608 147.385082 
L 337.293292 147.338907 
L 337.324961 147.502374 
L 337.404134 147.342456 
L 337.578316 147.375632 
L 337.641654 147.544965 
L 337.689158 147.380327 
L 338.053355 147.410564 
L 338.116694 147.507643 
L 338.164198 147.417541 
L 338.370049 147.445606 
L 338.433387 147.544862 
L 338.480891 147.467467 
L 338.560064 147.574671 
L 338.591734 147.583657 
L 338.594901 147.491502 
L 338.645572 147.491502 
L 338.718411 147.503205 
L 338.78175 147.63501 
L 338.829254 147.531081 
L 338.845088 147.531081 
L 338.876758 147.752843 
L 338.955931 147.548784 
L 339.003435 147.548784 
L 339.035104 147.663008 
L 339.114277 147.582552 
L 339.130112 147.582552 
L 339.244122 147.737086 
L 339.288459 147.742006 
L 339.320128 147.625505 
L 339.386634 147.766035 
L 339.396134 147.766035 
L 339.70016 147.733287 
L 339.795168 148.010838 
L 339.811002 147.888591 
L 340.080192 147.867007 
L 340.111861 148.024491 
L 340.191034 147.907557 
L 340.238538 147.92405 
L 340.270207 148.088728 
L 340.352548 148.084839 
L 340.365215 148.084839 
L 340.479225 147.909011 
L 340.586901 147.934857 
L 340.70091 148.157658 
L 340.776917 148.184279 
L 340.808586 148.03724 
L 340.843422 148.235706 
L 340.887759 148.087281 
L 340.935263 148.121923 
L 341.030271 148.379143 
L 341.046106 148.224872 
L 341.06194 148.224872 
L 341.125279 148.486464 
L 341.172783 148.331965 
L 341.251956 148.399298 
L 341.369133 148.826788 
L 341.378634 148.826788 
L 341.410303 148.705744 
L 341.445139 149.067565 
L 341.483142 149.067565 
L 341.568649 149.118653 
L 341.685826 149.71112 
L 341.726996 149.71112 
L 341.844173 150.44355 
L 341.853673 150.44355 
L 341.97085 151.017734 
L 341.980351 151.017734 
L 342.100694 152.014454 
L 342.138697 152.014454 
L 342.259041 153.158958 
L 342.297044 153.158958 
L 342.417387 154.450317 
L 342.423721 154.450317 
L 342.547231 155.808667 
L 342.550398 155.808667 
L 342.664408 156.672066 
L 342.677076 156.672066 
L 342.797419 159.004227 
L 342.803753 159.004227 
L 342.920929 160.735514 
L 342.93043 160.735514 
L 343.050773 161.845232 
L 343.088777 161.845232 
L 343.228122 165.661361 
L 343.278793 165.661361 
L 343.408637 168.304337 
L 343.437139 168.304337 
L 343.554316 170.164346 
L 343.563816 170.164346 
L 343.693661 172.387612 
L 343.722163 172.387612 
L 343.836172 173.499175 
L 343.84884 173.499175 
L 343.966017 175.708412 
L 343.975517 175.708412 
L 344.089527 177.181069 
L 344.102195 177.181069 
L 344.219371 179.384161 
L 344.228872 179.384161 
L 344.346048 181.589998 
L 344.387219 181.589998 
L 344.501228 183.696805 
L 344.577234 183.696805 
L 344.72608 140.040865 
L 344.735581 140.040865 
L 344.852758 117.00023 
L 344.862258 117.00023 
L 344.979435 46.256986 
L 344.988936 46.256986 
L 345.102945 32.800983 
L 345.115613 32.800983 
L 345.210621 32.647097 
L 345.327797 35.804965 
L 345.337298 35.804965 
L 345.457641 40.962817 
L 345.463975 40.962817 
L 345.581152 44.436472 
L 345.590653 44.436472 
L 345.714163 51.489044 
L 345.748999 51.489044 
L 345.863009 53.331134 
L 345.875676 53.331134 
L 345.989686 59.067927 
L 346.002354 59.067927 
L 346.116363 64.857353 
L 346.1607 64.857353 
L 346.27471 71.173089 
L 346.319047 71.173089 
L 346.433056 77.69935 
L 346.477393 77.69935 
L 346.591403 84.64666 
L 346.604071 84.64666 
L 346.71808 92.172912 
L 346.762417 92.172912 
L 346.876427 100.278107 
L 346.920764 100.278107 
L 347.034773 109.067507 
L 347.07911 109.067507 
L 347.19312 118.646374 
L 347.205788 118.646374 
L 347.319797 129.59365 
L 347.395804 129.59365 
L 347.509813 139.961984 
L 347.522481 139.961984 
L 347.617489 145.891935 
L 347.63649 145.330887 
L 347.680827 145.330887 
L 347.965851 135.775325 
L 347.997521 136.979979 
L 348.032357 136.171806 
L 348.124198 138.742753 
L 348.155867 137.764192 
L 348.222373 140.654892 
L 348.228707 140.654892 
L 348.250875 140.654892 
L 348.282544 139.794641 
L 348.317381 142.659256 
L 348.355384 141.901273 
L 348.377552 141.901273 
L 348.494729 144.360263 
L 348.535899 144.360263 
L 348.649909 146.851543 
L 348.662576 146.851543 
L 348.78292 150.412378 
L 348.852592 150.412378 
L 348.966602 151.852621 
L 348.979269 151.852621 
L 349.10278 151.328896 
L 349.137616 151.328896 
L 349.251626 151.067034 
L 349.264293 151.067034 
L 349.387804 149.233997 
L 349.42264 149.233997 
L 349.536649 148.57934 
L 349.549317 148.57934 
L 349.666494 147.924684 
L 349.675994 147.924684 
L 349.796338 147.531891 
L 349.802672 147.531891 
L 349.919848 147.270028 
L 349.929349 147.270028 
L 350.043358 147.139097 
L 350.056026 147.139097 
L 350.170036 147.008166 
L 350.182703 147.008166 
L 350.296713 146.877235 
L 350.847759 146.877235 
L 350.961769 146.746303 
L 351.132783 146.746303 
L 351.196122 146.877235 
L 351.243626 146.746303 
L 352.241209 146.746303 
L 352.272878 146.877235 
L 352.352052 146.746303 
L 353.191288 146.746303 
L 353.305298 146.877235 
L 353.634659 146.877235 
L 353.729667 146.746303 
L 353.745501 146.877235 
L 353.888013 146.877235 
L 354.002023 146.746303 
L 354.173037 146.746303 
L 354.287047 146.877235 
L 354.299715 146.877235 
L 354.413724 146.746303 
L 354.711416 146.746303 
L 354.806424 146.877235 
L 354.822258 146.746303 
L 355.059778 146.746303 
L 355.091447 146.877235 
L 355.170621 146.746303 
L 355.819842 146.746303 
L 355.88318 146.877235 
L 355.930684 146.746303 
L 355.978188 146.746303 
L 356.092198 146.877235 
L 356.421559 146.877235 
L 356.535568 146.746303 
L 356.579905 146.746303 
L 356.763587 149.854509 
L 356.80159 149.854509 
L 356.928268 153.901884 
L 356.959937 153.895682 
L 357.023276 155.337663 
L 357.077114 155.2174 
L 357.086614 155.2174 
L 357.149953 156.154853 
L 357.197457 155.943047 
L 357.213292 155.943047 
L 357.327301 157.631537 
L 357.339969 157.631537 
L 357.434977 155.691795 
L 357.460312 156.092492 
L 357.466646 156.092492 
L 357.58699 149.820778 
L 357.593323 149.820778 
L 357.688331 146.697802 
L 357.707333 146.704459 
L 357.720001 146.704459 
L 357.837177 144.721609 
L 357.846678 144.721609 
L 357.910017 144.424409 
L 357.960687 144.431496 
L 358.005024 144.499411 
L 358.134869 144.862322 
L 358.163371 144.862322 
L 358.280548 145.209513 
L 358.290048 145.209513 
L 358.407225 145.676102 
L 358.416726 145.676102 
L 358.533902 146.088238 
L 358.543403 146.088238 
L 358.657412 146.207781 
L 358.701749 146.207781 
L 358.822093 146.585628 
L 358.923435 146.658157 
L 359.037444 146.744575 
L 359.208458 146.843274 
L 359.328802 146.869579 
L 369.849349 146.92559 
L 369.912687 147.008365 
L 369.960191 146.984336 
L 373.206296 146.890789 
L 373.269635 146.871709 
L 373.304471 146.923632 
L 373.310805 146.923632 
L 394.203053 147.00779 
L 394.298061 147.044556 
L 394.301228 146.990638 
L 394.310728 146.990638 
L 397.208471 147.062945 
L 397.24014 147.101975 
L 397.274976 147.042594 
L 397.316146 147.045738 
L 399.266976 147.143837 
L 399.298646 147.169519 
L 399.301813 147.102676 
L 399.377819 147.15519 
L 401.452159 147.244824 
L 401.486995 147.207615 
L 401.566169 147.274976 
L 403.130633 147.331177 
L 403.244642 147.41521 
L 404.17572 147.449151 
L 404.270728 147.552973 
L 404.286563 147.476232 
L 404.334067 147.576878 
L 404.368903 147.485097 
L 404.451243 147.590856 
L 404.935784 147.588217 
L 405.049793 147.725875 
L 405.442493 147.834313 
L 405.477329 147.728271 
L 405.562836 147.893369 
L 405.56917 147.893369 
L 405.632509 147.776067 
L 405.667345 147.932229 
L 405.676846 147.932229 
L 406.012541 147.990887 
L 406.12655 148.234155 
L 406.360903 148.231218 
L 406.455911 148.679016 
L 406.474913 148.593897 
L 406.48758 148.593897 
L 406.611091 149.175787 
L 406.645927 149.283783 
L 406.763103 150.122982 
L 406.772604 150.122982 
L 406.905615 151.447019 
L 406.96262 151.447019 
L 407.079797 152.433179 
L 407.089297 152.433179 
L 407.209641 153.621261 
L 407.215975 153.621261 
L 407.342652 154.598096 
L 407.374321 154.598096 
L 407.494665 155.754554 
L 407.500999 155.754554 
L 407.621342 156.896467 
L 407.659345 156.896467 
L 407.782855 157.842684 
L 407.786022 157.842684 
L 407.903199 158.779074 
L 407.9127 158.779074 
L 408.039377 159.70655 
L 408.071046 159.70655 
L 408.188223 160.815432 
L 408.229393 160.815432 
L 408.346569 162.100902 
L 408.387739 162.100902 
L 408.504916 162.84245 
L 408.514417 162.84245 
L 408.631593 164.125221 
L 408.672763 164.125221 
L 408.802607 165.228313 
L 408.83111 165.228313 
L 408.964121 166.511085 
L 408.989456 166.511085 
L 409.116134 167.424797 
L 409.147803 167.424797 
L 409.264979 168.525979 
L 409.30615 168.525979 
L 409.423326 169.627161 
L 409.464496 169.627161 
L 409.578506 170.36204 
L 409.622843 170.36204 
L 409.74952 172.198101 
L 409.876197 173.114994 
L 409.907867 173.114994 
L 410.02821 174.216176 
L 410.097882 174.216176 
L 410.215059 175.317358 
L 410.22456 175.317358 
L 410.338569 176.236526 
L 410.382906 176.236526 
L 410.496916 177.337708 
L 410.509584 177.337708 
L 410.62676 178.43889 
L 410.66793 178.43889 
L 410.785107 179.540071 
L 410.794607 179.540071 
L 410.908617 180.459239 
L 410.921285 180.459239 
L 411.035294 181.00983 
L 411.047962 181.00983 
L 411.165138 182.477314 
L 411.174639 182.477314 
L 411.288649 183.014254 
L 411.301316 183.014254 
L 411.766855 46.921539 
L 411.776356 46.921539 
L 411.871364 29.89971 
L 411.890366 30.018548 
L 411.903033 30.018548 
L 412.017043 31.566655 
L 412.029711 31.566655 
L 412.146887 38.613212 
L 412.219727 38.613212 
L 412.333736 43.631215 
L 412.409743 43.631215 
L 412.523752 49.129665 
L 412.53642 49.129665 
L 412.650429 54.841647 
L 412.694766 54.841647 
L 412.808776 60.553629 
L 412.884782 60.553629 
L 413.008293 68.988145 
L 413.01146 68.988145 
L 413.131803 75.447489 
L 413.138137 75.447489 
L 413.252146 77.689575 
L 413.264814 77.689575 
L 413.378824 84.896282 
L 413.391491 84.896282 
L 413.505501 92.636818 
L 413.549838 92.636818 
L 413.663847 101.017951 
L 413.708184 101.017951 
L 413.822194 110.039679 
L 413.834862 110.039679 
L 413.948871 119.968919 
L 413.993208 119.968919 
L 414.107218 131.446266 
L 414.183224 131.446266 
L 414.297234 141.055208 
L 414.309901 141.055208 
L 414.37324 145.365623 
L 414.420744 143.816546 
L 414.436579 143.816546 
L 414.579091 136.521987 
L 414.594925 136.521987 
L 414.712102 128.690184 
L 414.753272 128.680763 
L 414.784941 126.57565 
L 414.851447 131.896091 
L 414.857781 131.896091 
L 414.879949 131.896091 
L 414.911618 130.683253 
L 414.946455 138.637309 
L 414.97179 138.637309 
L 414.974957 138.637309 
L 415.006626 138.216938 
L 415.009793 142.209281 
L 415.057297 142.209281 
L 415.069965 142.209281 
L 415.183975 151.328896 
L 415.196642 151.328896 
L 415.310652 154.471246 
L 415.481666 154.471246 
L 415.60201 153.031002 
L 415.608343 153.031002 
L 415.72552 151.983552 
L 415.798359 151.983552 
L 415.918703 149.495859 
L 415.956706 149.495859 
L 416.073882 148.710272 
L 416.083383 148.710272 
L 416.203727 147.924684 
L 416.21006 147.924684 
L 416.333571 147.400959 
L 416.368407 147.400959 
L 416.485583 147.139097 
L 416.558423 147.139097 
L 416.672432 147.008166 
L 416.6851 147.008166 
L 416.79911 146.877235 
L 417.48 146.877235 
L 417.48 146.877235 
" style="fill:none;stroke:#e41a1c;stroke-linecap:square;stroke-width:2;"/>
   </g>
   <g id="patch_3">
    <path d="M 79.79325 230.88 
L 79.79325 14.52 
" style="fill:none;stroke:#000000;stroke-linecap:square;stroke-linejoin:miter;stroke-width:0.8;"/>
   </g>
   <g id="patch_4">
    <path d="M 417.48 230.88 
L 417.48 14.52 
" style="fill:none;"/>
   </g>
   <g id="patch_5">
    <path d="M 79.79325 230.88 
L 417.48 230.88 
" style="fill:none;stroke:#000000;stroke-linecap:square;stroke-linejoin:miter;stroke-width:0.8;"/>
   </g>
   <g id="patch_6">
    <path d="M 79.79325 14.52 
L 417.48 14.52 
" style="fill:none;"/>
   </g>
   <g id="legend_1">
    <g id="patch_7">
     <path d="M 84.59325 229.28 
L 240.97652 229.28 
Q 244.17652 229.28 244.17652 226.08 
L 244.17652 204.54415 
Q 244.17652 201.34415 240.97652 201.34415 
L 84.59325 201.34415 
Q 81.39325 201.34415 81.39325 204.54415 
L 81.39325 226.08 
Q 81.39325 229.28 84.59325 229.28 
z
" style="fill:#ffffff;stroke:#000000;stroke-linejoin:miter;"/>
    </g>
    <g id="line2d_12">
     <path d="M 87.79325 214.00011 
L 119.79325 214.00011 
" style="fill:none;stroke:#e41a1c;stroke-linecap:square;stroke-width:2;"/>
    </g>
    <g id="line2d_13"/>
    <g id="text_13">
     <!-- Surface Speed -->
     <g transform="translate(132.59325 219.60011)scale(0.16 -0.16)">
      <use transform="translate(0 -1.570628)scale(0.996264)" xlink:href="#Century_Schoolbook_L_Roman-83"/>
      <use transform="translate(62.763979 -1.570628)scale(0.996264)" xlink:href="#Century_Schoolbook_L_Roman-117"/>
      <use transform="translate(123.63561 -1.570628)scale(0.996264)" xlink:href="#Century_Schoolbook_L_Roman-114"/>
      <use transform="translate(167.869178 -1.570628)scale(0.996264)" xlink:href="#Century_Schoolbook_L_Roman-102"/>
      <use transform="translate(201.044408 -1.570628)scale(0.996264)" xlink:href="#Century_Schoolbook_L_Roman-97"/>
      <use transform="translate(256.436085 -1.570628)scale(0.996264)" xlink:href="#Century_Schoolbook_L_Roman-99"/>
      <use transform="translate(300.669654 -1.570628)scale(0.996264)" xlink:href="#Century_Schoolbook_L_Roman-101"/>
      <use transform="translate(378.178024 -1.570628)scale(0.996264)" xlink:href="#Century_Schoolbook_L_Roman-83"/>
      <use transform="translate(440.942003 -1.570628)scale(0.996264)" xlink:href="#Century_Schoolbook_L_Roman-112"/>
      <use transform="translate(498.12749 -1.570628)scale(0.996264)" xlink:href="#Century_Schoolbook_L_Roman-101"/>
      <use transform="translate(547.940691 -1.570628)scale(0.996264)" xlink:href="#Century_Schoolbook_L_Roman-101"/>
      <use transform="translate(597.753891 -1.570628)scale(0.996264)" xlink:href="#Century_Schoolbook_L_Roman-100"/>
     </g>
    </g>
   </g>
  </g>
 </g>
 <defs>
  <clipPath id="p6b597ddd78">
   <rect height="216.36" width="337.68675" x="79.79325" y="14.52"/>
  </clipPath>
 </defs>
</svg>
