<?xml version="1.0" encoding="utf-8" standalone="no"?>
<!DOCTYPE svg PUBLIC "-//W3C//DTD SVG 1.1//EN"
  "http://www.w3.org/Graphics/SVG/1.1/DTD/svg11.dtd">
<!-- Created with matplotlib (https://matplotlib.org/) -->
<svg height="288pt" version="1.1" viewBox="0 0 432 288" width="432pt" xmlns="http://www.w3.org/2000/svg" xmlns:xlink="http://www.w3.org/1999/xlink">
 <defs>
  <style type="text/css">
*{stroke-linecap:butt;stroke-linejoin:round;}
  </style>
 </defs>
 <g id="figure_1">
  <g id="patch_1">
   <path d="M 0 288 
L 432 288 
L 432 0 
L 0 0 
z
" style="fill:#ffffff;"/>
  </g>
  <g id="axes_1">
   <g id="patch_2">
    <path d="M 65.32538 230.88 
L 417.48 230.88 
L 417.48 14.52 
L 65.32538 14.52 
z
" style="fill:#ffffff;"/>
   </g>
   <g id="matplotlib.axis_1">
    <g id="xtick_1">
     <g id="line2d_1">
      <defs>
       <path d="M 0 0 
L 0 3.5 
" id="m2c02229e94" style="stroke:#000000;stroke-width:0.8;"/>
      </defs>
      <g>
       <use style="stroke:#000000;stroke-width:0.8;" x="131.377696" xlink:href="#m2c02229e94" y="230.88"/>
      </g>
     </g>
     <g id="text_1">
      <!-- $20$ -->
      <defs>
       <path d="M 41.703125 15.453125 
L 39.90625 15.453125 
C 38.90625 8.375 38.09375 7.171875 37.703125 6.5625 
C 37.203125 5.765625 30 5.765625 28.59375 5.765625 
L 9.40625 5.765625 
C 13 9.671875 20 16.75 28.5 24.953125 
C 34.59375 30.734375 41.703125 37.53125 41.703125 47.421875 
C 41.703125 59.21875 32.296875 66 21.796875 66 
C 10.796875 66 4.09375 56.3125 4.09375 47.34375 
C 4.09375 43.4375 7 42.9375 8.203125 42.9375 
C 9.203125 42.9375 12.203125 43.546875 12.203125 47.03125 
C 12.203125 50.109375 9.59375 51 8.203125 51 
C 7.59375 51 7 50.90625 6.59375 50.703125 
C 8.5 59.21875 14.296875 63.40625 20.40625 63.40625 
C 29.09375 63.40625 34.796875 56.515625 34.796875 47.421875 
C 34.796875 38.734375 29.703125 31.25 24 24.75 
L 4.09375 2.28125 
L 4.09375 0 
L 39.296875 0 
z
" id="CMR17-50"/>
       <path d="M 42 31.640625 
C 42 37.75 41.90625 48.125 37.703125 56.109375 
C 34 63.109375 28.09375 65.59375 22.90625 65.59375 
C 18.09375 65.59375 12 63.40625 8.203125 56.203125 
C 4.203125 48.71875 3.796875 39.4375 3.796875 31.640625 
C 3.796875 25.953125 3.90625 17.28125 7 9.671875 
C 11.296875 -0.609375 19 -2 22.90625 -2 
C 27.5 -2 34.5 -0.109375 38.59375 9.375 
C 41.59375 16.28125 42 24.359375 42 31.640625 
z
M 22.90625 -0.40625 
C 16.5 -0.40625 12.703125 5.078125 11.296875 12.6875 
C 10.203125 18.5625 10.203125 27.15625 10.203125 32.75 
C 10.203125 40.4375 10.203125 46.828125 11.5 52.921875 
C 13.40625 61.390625 19 64 22.90625 64 
C 27 64 32.296875 61.296875 34.203125 53.125 
C 35.5 47.4375 35.59375 40.734375 35.59375 32.75 
C 35.59375 26.25 35.59375 18.265625 34.40625 12.375 
C 32.296875 1.484375 26.40625 -0.40625 22.90625 -0.40625 
z
" id="CMR17-48"/>
      </defs>
      <g transform="translate(123.122571 251.21795)scale(0.18 -0.18)">
       <use transform="scale(0.996264)" xlink:href="#CMR17-50"/>
       <use transform="translate(45.690477 0)scale(0.996264)" xlink:href="#CMR17-48"/>
      </g>
     </g>
    </g>
    <g id="xtick_2">
     <g id="line2d_2">
      <g>
       <use style="stroke:#000000;stroke-width:0.8;" x="197.430012" xlink:href="#m2c02229e94" y="230.88"/>
      </g>
     </g>
     <g id="text_2">
      <!-- $40$ -->
      <defs>
       <path d="M 33.59375 64.40625 
C 33.59375 66.5 33.5 66.5 31.703125 66.5 
L 2 19.59375 
L 2 17 
L 27.796875 17 
L 27.796875 7.140625 
C 27.796875 3.5 27.59375 2.5 20.59375 2.5 
L 18.703125 2.5 
L 18.703125 0 
C 21.90625 0 27.296875 0 30.703125 0 
C 34.09375 0 39.5 0 42.703125 0 
L 42.703125 2.5 
L 40.796875 2.5 
C 33.796875 2.5 33.59375 3.5 33.59375 7.140625 
L 33.59375 17 
L 43.796875 17 
L 43.796875 19.59375 
L 33.59375 19.59375 
z
M 28.09375 57.859375 
L 28.09375 19.59375 
L 4 19.59375 
z
" id="CMR17-52"/>
      </defs>
      <g transform="translate(189.174887 251.21795)scale(0.18 -0.18)">
       <use transform="scale(0.996264)" xlink:href="#CMR17-52"/>
       <use transform="translate(45.690477 0)scale(0.996264)" xlink:href="#CMR17-48"/>
      </g>
     </g>
    </g>
    <g id="xtick_3">
     <g id="line2d_3">
      <g>
       <use style="stroke:#000000;stroke-width:0.8;" x="263.482328" xlink:href="#m2c02229e94" y="230.88"/>
      </g>
     </g>
     <g id="text_3">
      <!-- $60$ -->
      <defs>
       <path d="M 10.59375 34 
C 10.59375 57.65625 21.796875 63 28.296875 63 
C 30.40625 63 35.5 62.640625 37.5 59 
C 35.90625 59 32.90625 59 32.90625 55.515625 
C 32.90625 52.828125 35.09375 51.921875 36.5 51.921875 
C 37.40625 51.921875 40.09375 52.3125 40.09375 55.625 
C 40.09375 61.78125 35.09375 65.296875 28.203125 65.296875 
C 16.296875 65.296875 3.796875 52.96875 3.796875 31 
C 3.796875 3.953125 15.09375 -2 23.09375 -2 
C 32.796875 -2 42 6.671875 42 20.046875 
C 42 32.515625 33.90625 41.59375 23.703125 41.59375 
C 17.59375 41.59375 13.09375 37.609375 10.59375 30.625 
z
M 23.09375 0.390625 
C 10.796875 0.390625 10.796875 18.75 10.796875 22.4375 
C 10.796875 29.625 14.203125 40 23.5 40 
C 25.203125 40 30.09375 40 33.40625 33.125 
C 35.203125 29.21875 35.203125 25.140625 35.203125 20.140625 
C 35.203125 14.75 35.203125 10.78125 33.09375 6.78125 
C 30.90625 2.671875 27.703125 0.390625 23.09375 0.390625 
z
" id="CMR17-54"/>
      </defs>
      <g transform="translate(255.227203 251.21795)scale(0.18 -0.18)">
       <use transform="scale(0.996264)" xlink:href="#CMR17-54"/>
       <use transform="translate(45.690477 0)scale(0.996264)" xlink:href="#CMR17-48"/>
      </g>
     </g>
    </g>
    <g id="xtick_4">
     <g id="line2d_4">
      <g>
       <use style="stroke:#000000;stroke-width:0.8;" x="329.534644" xlink:href="#m2c02229e94" y="230.88"/>
      </g>
     </g>
     <g id="text_4">
      <!-- $80$ -->
      <defs>
       <path d="M 27.203125 35.375 
C 33.5 38.546875 39.90625 43.328125 39.90625 50.984375 
C 39.90625 60.015625 31.09375 65.296875 23 65.296875 
C 13.90625 65.296875 5.90625 58.734375 5.90625 49.6875 
C 5.90625 47.203125 6.5 42.921875 10.40625 39.140625 
C 11.40625 38.15625 15.59375 35.171875 18.296875 33.28125 
C 13.796875 30.984375 3.296875 25.53125 3.296875 14.59375 
C 3.296875 4.359375 13.09375 -2 22.796875 -2 
C 33.5 -2 42.5 5.65625 42.5 15.78125 
C 42.5 24.84375 36.40625 29.015625 32.40625 31.703125 
z
M 14.09375 44.09375 
C 13.296875 44.59375 9.296875 47.671875 9.296875 52.359375 
C 9.296875 58.421875 15.59375 63 22.796875 63 
C 30.703125 63 36.5 57.4375 36.5 50.96875 
C 36.5 41.703125 26.09375 36.421875 25.59375 36.421875 
C 25.5 36.421875 25.40625 36.421875 24.59375 37.03125 
z
M 32.5 23.734375 
C 34 22.640625 38.796875 19.375 38.796875 13.296875 
C 38.796875 5.953125 31.40625 0.390625 23 0.390625 
C 13.90625 0.390625 7 6.84375 7 14.6875 
C 7 22.546875 13.09375 29.09375 20 32.1875 
z
" id="CMR17-56"/>
      </defs>
      <g transform="translate(321.279519 251.21795)scale(0.18 -0.18)">
       <use transform="scale(0.996264)" xlink:href="#CMR17-56"/>
       <use transform="translate(45.690477 0)scale(0.996264)" xlink:href="#CMR17-48"/>
      </g>
     </g>
    </g>
    <g id="xtick_5">
     <g id="line2d_5">
      <g>
       <use style="stroke:#000000;stroke-width:0.8;" x="395.58696" xlink:href="#m2c02229e94" y="230.88"/>
      </g>
     </g>
     <g id="text_5">
      <!-- $100$ -->
      <defs>
       <path d="M 26.59375 63.40625 
C 26.59375 65.5 26.5 65.5 25.09375 65.5 
C 21.203125 61.1875 15.296875 59.796875 9.703125 59.796875 
C 9.40625 59.796875 8.90625 59.796875 8.796875 59.5 
C 8.703125 59.296875 8.703125 59.09375 8.703125 57 
C 11.796875 57 17 57.59375 21 59.984375 
L 21 7.203125 
C 21 3.6875 20.796875 2.5 12.203125 2.5 
L 9.203125 2.5 
L 9.203125 0 
C 14 0 19 0 23.796875 0 
C 28.59375 0 33.59375 0 38.40625 0 
L 38.40625 2.5 
L 35.40625 2.5 
C 26.796875 2.5 26.59375 3.59375 26.59375 7.15625 
z
" id="CMR17-49"/>
      </defs>
      <g transform="translate(383.20427 251.21795)scale(0.18 -0.18)">
       <use transform="scale(0.996264)" xlink:href="#CMR17-49"/>
       <use transform="translate(45.690477 0)scale(0.996264)" xlink:href="#CMR17-48"/>
       <use transform="translate(91.380954 0)scale(0.996264)" xlink:href="#CMR17-48"/>
      </g>
     </g>
    </g>
    <g id="text_6">
     <!-- Time (s) -->
     <defs>
      <path d="M 63.296875 72 
L 3.40625 72 
L 1.90625 44.265625 
L 6.203125 44.265625 
C 6.90625 49.25 7.796875 53.046875 8.90625 56.234375 
C 11.5 63.515625 16.296875 67.3125 23.09375 67.3125 
C 26.40625 67.3125 27.796875 66.203125 27.796875 63.71875 
L 27.796875 12.28125 
L 27.796875 9.375 
C 27.796875 5.1875 26.90625 4.6875 18.796875 4.6875 
L 16.203125 4.6875 
L 16.203125 0 
L 50.5 0 
L 50.5 4.6875 
L 47.90625 4.6875 
C 39.90625 4.6875 39 5.1875 39 9.375 
L 39 12.28125 
L 39 63.71875 
C 39 66.203125 40.40625 67.3125 43.703125 67.3125 
C 49.796875 67.3125 54.703125 63.90625 57.203125 57.921875 
C 58.703125 54.25 59.703125 49.953125 60.5 44.265625 
L 64.796875 44.265625 
z
" id="Century_Schoolbook_L_Roman-84"/>
      <path d="M 20.59375 46 
L 1.796875 46 
L 1.796875 41.21875 
L 6.90625 41.21875 
C 10.59375 41.21875 11.203125 40.515625 11.203125 36.203125 
L 11.203125 12.296875 
L 11.203125 8.296875 
C 11.203125 4.296875 10.09375 3.59375 3.703125 3.59375 
L 3 3.59375 
L 3 0 
L 28.90625 0 
L 28.90625 3.59375 
L 28.203125 3.59375 
C 21.703125 3.59375 20.59375 4.28125 20.59375 8.21875 
L 20.59375 12.171875 
z
M 15.90625 71.578125 
C 12.703125 71.578125 10.09375 68.984375 10.09375 65.796875 
C 10.09375 62.703125 12.703125 60 15.796875 60 
C 19.09375 60 21.703125 62.59375 21.703125 65.796875 
C 21.703125 68.984375 19.09375 71.578125 15.90625 71.578125 
z
" id="Century_Schoolbook_L_Roman-105"/>
      <path d="M 20.09375 46 
L 2.296875 46 
L 2.296875 41.21875 
L 6.40625 41.21875 
C 10.09375 41.21875 10.703125 40.515625 10.703125 36.203125 
L 10.703125 12.296875 
L 10.703125 8.40625 
C 10.703125 4.296875 9.59375 3.59375 3.203125 3.59375 
L 2.796875 3.59375 
L 2.796875 0 
L 28 0 
L 28 3.59375 
L 27.59375 3.59375 
C 21.203125 3.59375 20.09375 4.296875 20.09375 8.390625 
L 20.09375 12.28125 
L 20.09375 26.453125 
C 20.09375 35.328125 25 41.921875 31.5 41.921875 
C 34.09375 41.921875 36.90625 40.515625 38.09375 38.625 
C 39.5 36.734375 40.09375 33.828125 40.09375 29.734375 
L 40.09375 12.28125 
L 40.09375 8.28125 
C 40.09375 4.296875 39 3.59375 32.5 3.59375 
L 32.09375 3.59375 
L 32.09375 0 
L 57.40625 0 
L 57.40625 3.59375 
L 57 3.59375 
C 50.59375 3.59375 49.5 4.296875 49.5 8.28125 
L 49.5 12.28125 
L 49.5 25.546875 
C 49.5 35.53125 54 41.921875 61 41.921875 
C 64.296875 41.921875 67 40.015625 68.296875 36.921875 
C 69.203125 34.734375 69.5 32.53125 69.5 28.640625 
L 69.5 12.28125 
L 69.5 8.28125 
C 69.5 4.296875 68.40625 3.59375 61.90625 3.59375 
L 61.5 3.59375 
L 61.5 0 
L 86.796875 0 
L 86.796875 3.59375 
L 86.40625 3.59375 
C 80 3.59375 78.90625 4.296875 78.90625 8.390625 
L 78.90625 12.28125 
L 78.90625 30.640625 
C 78.90625 36.828125 78.296875 38.921875 75.703125 42.3125 
C 72.796875 46.015625 68.703125 48 63.90625 48 
C 57.40625 48 52.59375 44.9375 48.296875 38.109375 
C 46.59375 44.046875 41.203125 48 34.5 48 
C 28.5 48 24 45.140625 20.09375 38.921875 
z
" id="Century_Schoolbook_L_Roman-109"/>
      <path d="M 46.5 23 
C 46.59375 37.8125 38.09375 48.28125 25.90625 48.28125 
C 13.09375 48.28125 3.5 37.25 3.5 22.34375 
C 3.5 8.4375 12.59375 -1 26.09375 -1 
C 35.59375 -1 42.40625 3.6875 46.5 13.1875 
L 43 15.09375 
C 38.90625 7.390625 34.703125 4.390625 28 4.390625 
C 22.90625 4.390625 19.203125 6.59375 16.59375 11 
C 14.796875 14 14 17.5 14.09375 23 
z
M 14.203125 27.296875 
C 14.203125 30.34375 14.59375 32.5 15.59375 35.25 
C 17.703125 41.140625 20.90625 44 25.703125 44 
C 31.796875 44 35.796875 38.78125 35.796875 30.921875 
C 35.796875 28.078125 34.90625 27.296875 31.703125 27.296875 
z
" id="Century_Schoolbook_L_Roman-101"/>
      <path d="M 27.90625 73.453125 
C 21.90625 69.765625 18.703125 67.171875 15.296875 63.171875 
C 7.703125 54.1875 3.59375 42.71875 3.59375 30.640625 
C 3.59375 19.265625 7.203125 8.578125 13.90625 -0.296875 
C 17.703125 -5.09375 21.09375 -8.078125 27.90625 -12.28125 
L 27.90625 -8.578125 
C 17.90625 0.203125 13.90625 11.484375 13.90625 30.640625 
C 13.90625 49.796875 17.90625 60.984375 27.90625 69.765625 
z
" id="Century_Schoolbook_L_Roman-40"/>
      <path d="M 39 48 
L 35.5 48 
L 32.59375 44.40625 
C 29 47.203125 25.40625 48.390625 20.40625 48.390625 
C 11.59375 48.390625 5.796875 42.625 5.796875 33.953125 
C 5.796875 30.078125 7.09375 26.78125 9.296875 24.8125 
C 11.59375 22.703125 13.90625 21.71875 19.90625 20.3125 
L 25.203125 19.125 
C 33.09375 17.234375 35.90625 15.234375 35.90625 11.265625 
C 35.90625 6.578125 31.796875 3.296875 25.90625 3.296875 
C 17.5 3.296875 11.5 8.765625 9.09375 18.875 
L 5.09375 18.875 
L 5.09375 0 
L 8.59375 0 
L 12.09375 3.90625 
C 16.203125 0.59375 20.796875 -1 25.796875 -1 
C 35.59375 -1 42.09375 5.078125 42.09375 14.34375 
C 42.09375 18.71875 40.703125 22.09375 37.90625 24.390625 
C 35.5 26.484375 33.5 27.28125 27.40625 28.5625 
L 22.40625 29.671875 
C 16.90625 30.859375 16.90625 30.859375 15.09375 31.859375 
C 12.90625 32.859375 11.59375 34.9375 11.59375 37.140625 
C 11.59375 41.109375 15.40625 44 20.90625 44 
C 24.703125 44 27.796875 42.703125 30.59375 40.015625 
C 32.796875 37.8125 33.90625 35.828125 35.5 31.234375 
L 39 31.234375 
z
" id="Century_Schoolbook_L_Roman-115"/>
      <path d="M 5.40625 -12.28125 
C 11.40625 -8.578125 14.59375 -5.984375 18 -1.890625 
C 25.59375 6.984375 29.703125 18.5625 29.703125 30.640625 
C 29.703125 42.015625 26.09375 52.703125 19.40625 61.484375 
C 15.59375 66.375 12.203125 69.359375 5.40625 73.453125 
L 5.40625 69.765625 
C 15.40625 60.984375 19.40625 49.796875 19.40625 30.640625 
C 19.40625 11.375 15.40625 0.203125 5.40625 -8.578125 
z
" id="Century_Schoolbook_L_Roman-41"/>
     </defs>
     <g transform="translate(207.401225 273.24577)scale(0.18 -0.18)">
      <use transform="translate(0 -0.29235)scale(0.996264)" xlink:href="#Century_Schoolbook_L_Roman-84"/>
      <use transform="translate(66.450031 -0.29235)scale(0.996264)" xlink:href="#Century_Schoolbook_L_Roman-105"/>
      <use transform="translate(97.831344 -0.29235)scale(0.996264)" xlink:href="#Century_Schoolbook_L_Roman-109"/>
      <use transform="translate(186.398251 -0.29235)scale(0.996264)" xlink:href="#Century_Schoolbook_L_Roman-101"/>
      <use transform="translate(263.906621 -0.29235)scale(0.996264)" xlink:href="#Century_Schoolbook_L_Roman-40"/>
      <use transform="translate(297.081851 -0.29235)scale(0.996264)" xlink:href="#Century_Schoolbook_L_Roman-115"/>
      <use transform="translate(343.207661 -0.29235)scale(0.996264)" xlink:href="#Century_Schoolbook_L_Roman-41"/>
     </g>
    </g>
   </g>
   <g id="matplotlib.axis_2">
    <g id="ytick_1">
     <g id="line2d_6">
      <defs>
       <path d="M 0 0 
L -3.5 0 
" id="m5214af5e83" style="stroke:#000000;stroke-width:0.8;"/>
      </defs>
      <g>
       <use style="stroke:#000000;stroke-width:0.8;" x="65.32538" xlink:href="#m5214af5e83" y="230.88"/>
      </g>
     </g>
     <g id="text_7">
      <!-- $0$ -->
      <g transform="translate(50.07025 237.548975)scale(0.18 -0.18)">
       <use transform="scale(0.996264)" xlink:href="#CMR17-48"/>
      </g>
     </g>
    </g>
    <g id="ytick_2">
     <g id="line2d_7">
      <g>
       <use style="stroke:#000000;stroke-width:0.8;" x="65.32538" xlink:href="#m5214af5e83" y="185.9734"/>
      </g>
     </g>
     <g id="text_8">
      <!-- $50$ -->
      <defs>
       <path d="M 11.40625 57.6875 
C 12.40625 57.28125 16.5 56 20.703125 56 
C 30 56 35.09375 61.109375 38 64.0625 
C 38 64.953125 38 65.5 37.40625 65.5 
C 37.296875 65.5 37.09375 65.5 36.296875 65.046875 
C 32.796875 63.40625 28.703125 62.078125 23.703125 62.078125 
C 20.703125 62.078125 16.203125 62.484375 11.296875 64.671875 
C 10.203125 65.171875 10 65.171875 9.90625 65.171875 
C 9.40625 65.171875 9.296875 65.0625 9.296875 63.078125 
L 9.296875 34.421875 
C 9.296875 32.640625 9.296875 32.140625 10.296875 32.140625 
C 10.796875 32.140625 11 32.34375 11.5 33.03125 
C 14.703125 37.515625 19.09375 39.40625 24.09375 39.40625 
C 27.59375 39.40625 35.09375 37.21875 35.09375 20.140625 
C 35.09375 16.953125 35.09375 11.171875 32.09375 6.578125 
C 29.59375 2.484375 25.703125 0.390625 21.40625 0.390625 
C 14.796875 0.390625 8.09375 5 6.296875 12.71875 
C 6.703125 12.609375 7.5 12.421875 7.90625 12.421875 
C 9.203125 12.421875 11.703125 13.125 11.703125 16.21875 
C 11.703125 18.90625 9.796875 20 7.90625 20 
C 5.59375 20 4.09375 18.59375 4.09375 15.796875 
C 4.09375 7.09375 11 -2 21.59375 -2 
C 31.90625 -2 41.703125 6.875 41.703125 19.75 
C 41.703125 31.71875 33.90625 41 24.203125 41 
C 19.09375 41 14.796875 39.109375 11.40625 35.53125 
z
" id="CMR17-53"/>
      </defs>
      <g transform="translate(41.81513 192.642375)scale(0.18 -0.18)">
       <use transform="scale(0.996264)" xlink:href="#CMR17-53"/>
       <use transform="translate(45.690477 0)scale(0.996264)" xlink:href="#CMR17-48"/>
      </g>
     </g>
    </g>
    <g id="ytick_3">
     <g id="line2d_8">
      <g>
       <use style="stroke:#000000;stroke-width:0.8;" x="65.32538" xlink:href="#m5214af5e83" y="141.0668"/>
      </g>
     </g>
     <g id="text_9">
      <!-- $100$ -->
      <g transform="translate(33.56 147.735775)scale(0.18 -0.18)">
       <use transform="scale(0.996264)" xlink:href="#CMR17-49"/>
       <use transform="translate(45.690477 0)scale(0.996264)" xlink:href="#CMR17-48"/>
       <use transform="translate(91.380954 0)scale(0.996264)" xlink:href="#CMR17-48"/>
      </g>
     </g>
    </g>
    <g id="ytick_4">
     <g id="line2d_9">
      <g>
       <use style="stroke:#000000;stroke-width:0.8;" x="65.32538" xlink:href="#m5214af5e83" y="96.160199"/>
      </g>
     </g>
     <g id="text_10">
      <!-- $150$ -->
      <g transform="translate(33.56 102.829174)scale(0.18 -0.18)">
       <use transform="scale(0.996264)" xlink:href="#CMR17-49"/>
       <use transform="translate(45.690477 0)scale(0.996264)" xlink:href="#CMR17-53"/>
       <use transform="translate(91.380954 0)scale(0.996264)" xlink:href="#CMR17-48"/>
      </g>
     </g>
    </g>
    <g id="ytick_5">
     <g id="line2d_10">
      <g>
       <use style="stroke:#000000;stroke-width:0.8;" x="65.32538" xlink:href="#m5214af5e83" y="51.253599"/>
      </g>
     </g>
     <g id="text_11">
      <!-- $200$ -->
      <g transform="translate(33.56 57.922574)scale(0.18 -0.18)">
       <use transform="scale(0.996264)" xlink:href="#CMR17-50"/>
       <use transform="translate(45.690477 0)scale(0.996264)" xlink:href="#CMR17-48"/>
       <use transform="translate(91.380954 0)scale(0.996264)" xlink:href="#CMR17-48"/>
      </g>
     </g>
    </g>
    <g id="text_12">
     <!-- X Load -->
     <defs>
      <path d="M 38.90625 39.890625 
L 52.203125 57.9375 
C 57.796875 65.40625 60.59375 67.3125 65.90625 67.3125 
L 67.5 67.3125 
L 67.5 72 
L 40 72 
L 40 67.3125 
L 41.40625 67.3125 
C 46.203125 67.3125 48.296875 66.109375 48.296875 63.40625 
C 48.296875 62.3125 48 61.609375 46.90625 60.03125 
L 36.09375 44.375 
L 22.796875 63.515625 
C 22.09375 64.515625 21.703125 65.515625 21.703125 66.015625 
C 21.703125 67 22.703125 67.3125 26.5 67.3125 
L 30.296875 67.3125 
L 30.296875 72 
L -0.59375 72 
L -0.59375 67.3125 
L 1.09375 67.3125 
C 6 67.3125 7.203125 66.8125 9.5 63.515625 
L 29.203125 35.109375 
L 13 12.671875 
C 9.09375 7.09375 5 4.6875 -0.09375 4.6875 
L -0.5 4.6875 
L -0.5 0 
L 27.90625 0 
L 27.90625 4.6875 
L 25.40625 4.6875 
C 21.40625 4.6875 18.90625 6.484375 18.90625 9.484375 
C 18.90625 10.78125 19.5 12.359375 20.5 13.859375 
L 32.09375 30.609375 
L 47 9.40625 
C 47.796875 8.203125 48.296875 7.09375 48.296875 6.296875 
C 48.296875 4.6875 47.90625 4.6875 41.59375 4.6875 
L 38.796875 4.6875 
L 38.796875 0 
L 71.59375 0 
L 71.59375 4.6875 
L 70.40625 4.6875 
C 64 4.6875 63.296875 4.984375 59.90625 9.875 
z
" id="Century_Schoolbook_L_Roman-88"/>
      <path d="M 64.59375 27.328125 
L 60.203125 27.328125 
C 59.203125 20.546875 56.796875 13.765625 54.203125 10.484375 
C 51.09375 6.59375 45.296875 4.6875 36.90625 4.6875 
L 32.703125 4.6875 
C 29.703125 4.6875 27.203125 5.296875 26.296875 6.1875 
C 25.59375 6.78125 25.5 7.390625 25.5 9.484375 
L 25.5 59.734375 
L 25.5 62.609375 
C 25.5 66.8125 26.40625 67.3125 34.5 67.3125 
L 36.296875 67.3125 
L 36.296875 72 
L 3.5 72 
L 3.5 67.3125 
L 5.296875 67.3125 
C 13.40625 67.3125 14.296875 66.8125 14.296875 62.609375 
L 14.296875 59.734375 
L 14.296875 12.28125 
L 14.296875 9.375 
C 14.296875 5.1875 13.40625 4.6875 5.296875 4.6875 
L 3.5 4.6875 
L 3.5 0 
L 62.5 0 
z
" id="Century_Schoolbook_L_Roman-76"/>
      <path d="M 25.203125 48.28125 
C 13 48.28125 3.40625 37.453125 3.40625 23.546875 
C 3.40625 9.9375 13 -1 25 -1 
C 37 -1 46.59375 9.9375 46.59375 23.640625 
C 46.59375 37.25 37 48.28125 25.203125 48.28125 
z
M 25.203125 44 
C 32.203125 44 36.09375 36.75 36.09375 23.640625 
C 36.09375 10.453125 32.203125 3.296875 25 3.296875 
C 17.796875 3.296875 13.90625 10.453125 13.90625 23.546875 
C 13.90625 37.046875 17.703125 44 25.203125 44 
z
" id="Century_Schoolbook_L_Roman-111"/>
      <path d="M 45.203125 32.578125 
C 45.203125 38.796875 44.09375 41.96875 41.203125 44.34375 
C 37.90625 46.90625 33 48.28125 26.59375 48.28125 
C 15.40625 48.28125 7.09375 43.046875 7.09375 35.921875 
C 7.09375 32.15625 9.40625 29.78125 12.90625 29.78125 
C 16 29.78125 18.296875 31.859375 18.296875 34.8125 
C 18.296875 36.109375 17.796875 37.484375 16.796875 38.875 
C 16.203125 39.546875 16.09375 39.84375 16.09375 40.15625 
C 16.09375 42.21875 20.203125 44 25 44 
C 28.09375 44 31.59375 43.015625 33.203125 41.53125 
C 35.09375 39.953125 35.796875 37.578125 35.796875 33.125 
L 35.796875 29.28125 
C 25.296875 27.484375 22.09375 26.6875 17.203125 24.8125 
C 8.59375 21.609375 4.40625 16.9375 4.40625 10.65625 
C 4.40625 3.578125 10.09375 -1 18.90625 -1 
C 25.796875 -1 32 1.859375 36.296875 7.0625 
C 37.90625 1.984375 40.40625 0 45.09375 0 
C 49.59375 0 54.296875 2.890625 54.296875 5.78125 
C 54.296875 6.46875 53.796875 6.96875 53.296875 6.96875 
C 52.90625 6.96875 52.5 6.875 51.796875 6.578125 
C 50.203125 6 49.796875 5.890625 49 5.890625 
C 46.203125 5.890625 45.203125 7.78125 45.203125 12.71875 
z
M 35.796875 20.46875 
C 35.796875 14.46875 35.5 13.078125 33.796875 10.484375 
C 31.296875 6.78125 26.703125 4.296875 22.40625 4.296875 
C 17.90625 4.296875 14.5 7.59375 14.5 12.078125 
C 14.5 16.265625 16.59375 19.265625 21 21.359375 
C 24.09375 22.75 28 23.75 35.796875 25.046875 
z
" id="Century_Schoolbook_L_Roman-97"/>
      <path d="M 38 0 
L 55.40625 0 
L 55.40625 4.703125 
L 53.59375 4.703125 
C 48.203125 4.703125 47.40625 5.703125 47.40625 11.96875 
L 47.40625 73.78125 
L 27.796875 73.78125 
L 27.796875 69 
L 33.703125 69 
C 37.296875 69 38 68.28125 38 63.921875 
L 38 41 
C 34.296875 46.09375 30 48.390625 24.203125 48.390625 
C 12.90625 48.390625 4.296875 37.546875 4.296875 23.203125 
C 4.296875 9.0625 12.59375 -1 24.203125 -1 
C 30.5 -1 34.796875 1.671875 38 7.59375 
z
M 26.203125 43 
C 30.296875 43 34.203125 40.03125 36 35.4375 
C 37.203125 32.453125 37.90625 28.28125 37.90625 23.515625 
C 37.90625 11.96875 33.296875 4.390625 26.09375 4.390625 
C 19.09375 4.390625 14.796875 10.96875 14.796875 22.015625 
C 14.796875 27.890625 15.40625 32.359375 16.703125 35.734375 
C 18.40625 40.125 22.09375 43 26.203125 43 
z
" id="Century_Schoolbook_L_Roman-100"/>
     </defs>
     <g transform="translate(24.87013 152.2107)rotate(-90)scale(0.18 -0.18)">
      <use transform="translate(0 0.343476)scale(0.996264)" xlink:href="#Century_Schoolbook_L_Roman-88"/>
      <use transform="translate(97.831344 0.343476)scale(0.996264)" xlink:href="#Century_Schoolbook_L_Roman-76"/>
      <use transform="translate(164.281375 0.343476)scale(0.996264)" xlink:href="#Century_Schoolbook_L_Roman-111"/>
      <use transform="translate(214.094576 0.343476)scale(0.996264)" xlink:href="#Century_Schoolbook_L_Roman-97"/>
      <use transform="translate(269.486253 0.343476)scale(0.996264)" xlink:href="#Century_Schoolbook_L_Roman-100"/>
     </g>
    </g>
   </g>
   <g id="line2d_11">
    <path clip-path="url(#p236fd09e94)" d="M 65.32538 230.88 
L 68.195353 230.88 
L 68.307642 210.222964 
L 69.582452 210.222964 
L 69.694741 209.324832 
L 78.631619 209.324832 
L 78.743908 210.222964 
L 78.961881 210.222964 
L 79.07417 209.324832 
L 79.259116 209.324832 
L 79.371405 210.222964 
L 81.240686 210.222964 
L 81.352974 209.324832 
L 86.690002 209.324832 
L 86.802291 210.222964 
L 87.64776 210.222964 
L 87.760049 209.324832 
L 90.355905 209.324832 
L 90.468194 210.222964 
L 90.521036 210.222964 
L 90.633325 209.324832 
L 90.752219 209.324832 
L 90.864508 210.222964 
L 91.842082 210.222964 
L 91.954371 209.324832 
L 92.370501 209.324832 
L 92.48279 210.222964 
L 92.997998 210.222964 
L 93.110287 209.324832 
L 94.748384 209.324832 
L 94.860673 210.222964 
L 95.64009 210.222964 
L 95.752379 209.324832 
L 95.9043 209.324832 
L 96.016589 210.222964 
L 96.102457 210.222964 
L 96.214746 209.324832 
L 102.113217 209.324832 
L 102.225506 210.222964 
L 102.740714 210.222964 
L 102.853003 209.324832 
L 114.465 209.324832 
L 114.577289 229.083736 
L 114.795262 229.083736 
L 114.907551 228.185604 
L 115.786047 228.185604 
L 115.898336 229.083736 
L 116.413544 229.083736 
L 116.525833 229.981868 
L 117.041041 229.981868 
L 117.15333 225.491208 
L 117.371302 225.491208 
L 117.483591 230.88 
L 117.668538 230.88 
L 117.780827 229.083736 
L 117.998799 229.083736 
L 118.111088 229.981868 
L 118.296035 229.981868 
L 118.408324 221.89868 
L 118.626296 221.89868 
L 118.738585 229.981868 
L 118.956558 229.981868 
L 119.068847 229.083736 
L 119.253793 229.083736 
L 119.366082 229.981868 
L 119.914317 229.981868 
L 120.026605 228.185604 
L 120.178526 228.185604 
L 120.290815 229.981868 
L 120.508787 229.981868 
L 120.621076 230.88 
L 120.839049 230.88 
L 120.951338 228.185604 
L 121.169311 228.185604 
L 121.281599 229.083736 
L 121.43352 229.083736 
L 121.545809 229.981868 
L 121.895886 229.981868 
L 122.008175 219.204284 
L 122.094043 219.204284 
L 122.206332 225.491208 
L 122.391278 225.491208 
L 122.503567 222.796812 
L 122.72154 222.796812 
L 122.833829 228.185604 
L 123.051802 228.185604 
L 123.16409 229.083736 
L 123.679299 229.083736 
L 123.791587 227.287472 
L 124.00956 227.287472 
L 124.121849 229.981868 
L 124.637057 229.981868 
L 124.749346 229.083736 
L 124.967319 229.083736 
L 125.079608 228.185604 
L 125.56179 228.185604 
L 125.674078 227.287472 
L 126.222313 227.287472 
L 126.334602 226.38934 
L 127.180071 226.38934 
L 127.29236 225.491208 
L 129.095588 225.491208 
L 129.207877 226.38934 
L 130.020321 226.38934 
L 130.13261 227.287472 
L 130.350582 227.287472 
L 130.462871 228.185604 
L 132.2661 228.185604 
L 132.378389 227.287472 
L 132.563335 227.287472 
L 132.675624 228.185604 
L 136.064108 228.185604 
L 136.176397 229.083736 
L 138.27686 229.083736 
L 138.389149 229.981868 
L 139.234619 229.981868 
L 139.346908 230.88 
L 143.990386 230.88 
L 144.102675 229.981868 
L 144.617883 229.981868 
L 144.730172 229.083736 
L 145.014197 229.083736 
L 145.126486 229.981868 
L 145.24538 229.981868 
L 145.357669 229.083736 
L 146.500374 229.083736 
L 146.612663 229.981868 
L 148.118655 229.981868 
L 148.230944 230.88 
L 150.925879 230.88 
L 151.038168 229.981868 
L 151.916664 229.981868 
L 152.028953 230.88 
L 155.054149 230.88 
L 155.166438 229.981868 
L 156.011907 229.981868 
L 156.124196 229.083736 
L 156.342169 229.083736 
L 156.454458 228.185604 
L 157.002692 228.185604 
L 157.114981 227.287472 
L 157.299927 227.287472 
L 157.412216 228.185604 
L 157.630189 228.185604 
L 157.742478 229.083736 
L 157.993477 229.083736 
L 158.105766 229.981868 
L 158.257686 229.981868 
L 158.369975 230.88 
L 158.554921 230.88 
L 158.66721 229.981868 
L 159.182418 229.981868 
L 159.294707 229.083736 
L 159.545706 229.083736 
L 159.657995 226.38934 
L 159.875968 226.38934 
L 159.988257 79.095691 
L 160.140177 79.095691 
L 160.252466 218.306152 
L 160.437412 218.306152 
L 160.549701 194.95472 
L 160.8007 194.95472 
L 160.912989 209.324832 
L 161.130962 209.324832 
L 161.243251 210.222964 
L 161.527276 210.222964 
L 161.639565 211.121096 
L 162.980427 211.121096 
L 163.092715 223.694944 
L 163.310688 223.694944 
L 163.422977 228.185604 
L 163.64095 228.185604 
L 163.753239 224.593076 
L 163.971211 224.593076 
L 164.0835 225.491208 
L 164.268447 225.491208 
L 164.380736 227.287472 
L 164.565682 227.287472 
L 164.677971 228.185604 
L 169.024213 228.185604 
L 169.136502 229.083736 
L 171.567228 229.083736 
L 171.679517 229.981868 
L 174.737739 229.981868 
L 174.850028 230.88 
L 176.950491 230.88 
L 177.06278 229.981868 
L 177.247727 229.981868 
L 177.360016 229.083736 
L 180.451264 229.083736 
L 180.563553 229.981868 
L 181.706258 229.981868 
L 181.818547 230.88 
L 184.876769 230.88 
L 184.989058 229.981868 
L 185.174005 229.981868 
L 185.286294 230.88 
L 189.005039 230.88 
L 189.117328 229.981868 
L 189.335301 229.981868 
L 189.44759 229.083736 
L 189.632536 229.083736 
L 189.744825 228.185604 
L 190.590295 228.185604 
L 190.702584 227.287472 
L 190.920556 227.287472 
L 191.032845 229.981868 
L 191.548053 229.981868 
L 191.660342 230.88 
L 192.17555 230.88 
L 192.287839 229.083736 
L 192.60489 229.083736 
L 192.717179 228.185604 
L 192.968178 228.185604 
L 193.080467 229.981868 
L 193.199361 229.981868 
L 193.31165 230.88 
L 193.760806 230.88 
L 193.873095 226.38934 
L 194.058041 226.38934 
L 194.17033 225.491208 
L 194.388303 225.491208 
L 194.500592 226.38934 
L 195.709349 226.38934 
L 195.821638 225.491208 
L 195.940532 225.491208 
L 196.052821 226.38934 
L 196.634082 226.38934 
L 196.74637 227.287472 
L 197.261579 227.287472 
L 197.373867 226.38934 
L 197.657892 226.38934 
L 197.770181 229.083736 
L 198.516573 229.083736 
L 198.628861 229.981868 
L 198.813808 229.981868 
L 198.926097 229.083736 
L 199.177096 229.083736 
L 199.289385 229.981868 
L 200.068802 229.981868 
L 200.181091 214.713624 
L 200.43209 214.713624 
L 200.544379 158.131308 
L 200.729325 158.131308 
L 200.841614 196.750984 
L 201.356822 196.750984 
L 201.469111 222.796812 
L 201.687084 222.796812 
L 201.799373 215.611756 
L 202.017345 215.611756 
L 202.129634 209.324832 
L 202.347607 209.324832 
L 202.459896 210.222964 
L 203.569575 210.222964 
L 203.681864 218.306152 
L 203.899836 218.306152 
L 204.012125 229.981868 
L 204.197072 229.981868 
L 204.309361 229.083736 
L 204.494307 229.083736 
L 204.606596 227.287472 
L 204.857595 227.287472 
L 204.969884 224.593076 
L 205.15483 224.593076 
L 205.267119 221.89868 
L 206.112589 221.89868 
L 206.224878 223.694944 
L 206.44285 223.694944 
L 206.555139 224.593076 
L 206.740086 224.593076 
L 206.852375 225.491208 
L 207.070347 225.491208 
L 207.182636 226.38934 
L 207.697844 226.38934 
L 207.810133 227.287472 
L 208.028106 227.287472 
L 208.140395 228.185604 
L 210.57112 228.185604 
L 210.683409 229.083736 
L 210.967434 229.083736 
L 211.079723 228.185604 
L 211.198617 228.185604 
L 211.310906 229.083736 
L 211.495853 229.083736 
L 211.608142 228.185604 
L 212.156376 228.185604 
L 212.268665 229.083736 
L 213.708605 229.083736 
L 213.820894 229.981868 
L 217.242404 229.981868 
L 217.354693 230.88 
L 219.124895 230.88 
L 219.237184 229.981868 
L 219.422131 229.981868 
L 219.534419 229.083736 
L 221.965145 229.083736 
L 222.077434 229.981868 
L 222.295406 229.981868 
L 222.407695 229.083736 
L 222.922903 229.083736 
L 223.035192 229.981868 
L 223.880662 229.981868 
L 223.992951 230.88 
L 228.636429 230.88 
L 228.748718 229.981868 
L 228.96669 229.981868 
L 229.078979 230.88 
L 229.561161 230.88 
L 229.67345 229.981868 
L 229.924449 229.981868 
L 230.036738 230.88 
L 231.179443 230.88 
L 231.291732 229.981868 
L 231.476678 229.981868 
L 231.588967 229.083736 
L 232.104175 229.083736 
L 232.216464 228.185604 
L 232.731672 228.185604 
L 232.843961 230.88 
L 234.349954 230.88 
L 234.462243 229.083736 
L 234.680216 229.083736 
L 234.792504 69.216239 
L 235.010477 69.216239 
L 235.122766 211.121096 
L 235.307713 211.121096 
L 235.420001 194.95472 
L 235.604948 194.95472 
L 235.717237 209.324832 
L 235.968236 209.324832 
L 236.080525 210.222964 
L 236.595733 210.222964 
L 236.708022 211.121096 
L 237.817701 211.121096 
L 237.929989 221.89868 
L 238.147962 221.89868 
L 238.260251 222.796812 
L 238.445198 222.796812 
L 238.557486 221.89868 
L 238.775459 221.89868 
L 238.887748 223.694944 
L 239.072695 223.694944 
L 239.184983 225.491208 
L 239.402956 225.491208 
L 239.515245 226.38934 
L 239.733218 226.38934 
L 239.845507 227.287472 
L 240.393741 227.287472 
L 240.50603 228.185604 
L 242.606493 228.185604 
L 242.718782 229.083736 
L 245.116481 229.083736 
L 245.22877 229.981868 
L 247.989757 229.981868 
L 248.102046 230.88 
L 249.872248 230.88 
L 249.984537 229.981868 
L 250.20251 229.981868 
L 250.314799 229.083736 
L 254.000518 229.083736 
L 254.112807 229.981868 
L 254.92525 229.981868 
L 255.037539 230.88 
L 259.681017 230.88 
L 259.793306 229.981868 
L 260.011279 229.981868 
L 260.123568 230.88 
L 261.926796 230.88 
L 262.039085 229.981868 
L 262.554293 229.981868 
L 262.666582 229.083736 
L 263.18179 229.083736 
L 263.294079 228.185604 
L 263.809287 228.185604 
L 263.921576 229.981868 
L 264.46981 229.981868 
L 264.582099 230.88 
L 265.130333 230.88 
L 265.242622 229.981868 
L 265.394542 229.981868 
L 265.506831 219.204284 
L 265.724804 219.204284 
L 265.837093 47.661071 
L 266.088092 47.661071 
L 266.200381 147.353724 
L 266.385327 147.353724 
L 266.497616 229.981868 
L 266.715589 229.981868 
L 266.827878 210.222964 
L 267.673347 210.222964 
L 267.785636 211.121096 
L 268.895315 211.121096 
L 269.007604 229.981868 
L 269.192551 229.981868 
L 269.30484 221.89868 
L 269.522812 221.89868 
L 269.635101 223.694944 
L 269.853074 223.694944 
L 269.965363 225.491208 
L 270.150309 225.491208 
L 270.262598 226.38934 
L 270.546623 226.38934 
L 270.658912 227.287472 
L 271.108068 227.287472 
L 271.220357 228.185604 
L 272.429114 228.185604 
L 272.541403 229.083736 
L 274.311605 229.083736 
L 274.423894 228.185604 
L 274.575814 228.185604 
L 274.688103 227.287472 
L 275.533573 227.287472 
L 275.645862 228.185604 
L 275.863835 228.185604 
L 275.976123 227.287472 
L 276.194096 227.287472 
L 276.306385 228.185604 
L 278.73711 228.185604 
L 278.849399 229.083736 
L 279.331581 229.083736 
L 279.44387 228.185604 
L 279.992104 228.185604 
L 280.104393 229.083736 
L 280.388418 229.083736 
L 280.500707 228.185604 
L 280.619601 228.185604 
L 280.73189 227.287472 
L 280.949863 227.287472 
L 281.062152 226.38934 
L 281.280124 226.38934 
L 281.392413 227.287472 
L 281.57736 227.287472 
L 281.689649 226.38934 
L 281.907621 226.38934 
L 282.01991 227.287472 
L 282.535118 227.287472 
L 282.647407 226.38934 
L 282.86538 226.38934 
L 282.977669 227.287472 
L 283.162615 227.287472 
L 283.274904 226.38934 
L 283.856165 226.38934 
L 283.968454 227.287472 
L 284.747871 227.287472 
L 284.86016 228.185604 
L 286.960624 228.185604 
L 287.072913 229.083736 
L 288.843115 229.083736 
L 288.955404 228.185604 
L 289.173376 228.185604 
L 289.285665 229.083736 
L 290.131135 229.083736 
L 290.243424 228.185604 
L 290.758632 228.185604 
L 290.870921 229.083736 
L 291.749417 229.083736 
L 291.861705 229.981868 
L 293.004411 229.981868 
L 293.116699 230.88 
L 293.69796 230.88 
L 293.810249 229.981868 
L 294.292431 229.981868 
L 294.40472 230.88 
L 295.547425 230.88 
L 295.659714 229.981868 
L 295.84466 229.981868 
L 295.956949 142.863064 
L 296.108869 142.863064 
L 296.221158 137.474271 
L 296.505183 137.474271 
L 296.617472 148.251856 
L 296.802419 148.251856 
L 296.914708 209.324832 
L 297.099654 209.324832 
L 297.211943 210.222964 
L 298.68491 210.222964 
L 298.797199 211.121096 
L 299.048197 211.121096 
L 299.160486 214.713624 
L 299.312407 214.713624 
L 299.424696 225.491208 
L 299.642668 225.491208 
L 299.754957 221.000548 
L 299.97293 221.000548 
L 300.085219 221.89868 
L 300.270165 221.89868 
L 300.382454 222.796812 
L 300.600427 222.796812 
L 300.712716 221.89868 
L 300.897662 221.89868 
L 301.009951 221.000548 
L 303.770938 221.000548 
L 303.883227 221.89868 
L 304.398435 221.89868 
L 304.510724 221.000548 
L 305.38922 221.000548 
L 305.501509 221.89868 
L 306.941449 221.89868 
L 307.053738 222.796812 
L 308.82394 222.796812 
L 308.936229 223.694944 
L 309.51749 223.694944 
L 309.629778 222.796812 
L 309.781699 222.796812 
L 309.893988 223.694944 
L 310.739457 223.694944 
L 310.851746 224.593076 
L 311.102745 224.593076 
L 311.215034 225.491208 
L 313.348524 225.491208 
L 313.460813 226.38934 
L 315.495224 226.38934 
L 315.607513 227.287472 
L 316.81627 227.287472 
L 316.928559 228.185604 
L 318.038238 228.185604 
L 318.150527 227.287472 
L 318.3685 227.287472 
L 318.480789 226.38934 
L 318.665735 226.38934 
L 318.778024 225.491208 
L 320.250991 225.491208 
L 320.36328 226.38934 
L 321.836246 226.38934 
L 321.948535 225.491208 
L 322.166508 225.491208 
L 322.278797 226.38934 
L 323.09124 226.38934 
L 323.203529 227.287472 
L 323.421502 227.287472 
L 323.533791 226.38934 
L 323.751764 226.38934 
L 323.864053 227.287472 
L 324.048999 227.287472 
L 324.161288 226.38934 
L 324.379261 226.38934 
L 324.49155 227.287472 
L 325.006758 227.287472 
L 325.119047 226.38934 
L 325.634255 226.38934 
L 325.746544 225.491208 
L 328.837792 225.491208 
L 328.950081 226.38934 
L 329.135027 226.38934 
L 329.247316 225.491208 
L 329.465289 225.491208 
L 329.577578 226.38934 
L 330.423048 226.38934 
L 330.535336 227.287472 
L 333.263297 227.287472 
L 333.375586 228.185604 
L 333.857768 228.185604 
L 333.970057 229.083736 
L 334.221056 229.083736 
L 334.333345 228.185604 
L 335.178814 228.185604 
L 335.291103 229.083736 
L 335.47605 229.083736 
L 335.588339 228.185604 
L 336.499861 228.185604 
L 336.61215 229.083736 
L 336.731044 229.083736 
L 336.843333 228.185604 
L 337.358541 228.185604 
L 337.47083 229.981868 
L 337.721828 229.981868 
L 337.834117 229.083736 
L 338.019064 229.083736 
L 338.131353 229.981868 
L 338.349325 229.981868 
L 338.461614 230.88 
L 339.604319 230.88 
L 339.716608 229.981868 
L 339.934581 229.981868 
L 340.04687 230.88 
L 340.231816 230.88 
L 340.344105 229.981868 
L 340.562078 229.981868 
L 340.674367 230.88 
L 341.519837 230.88 
L 341.632126 229.981868 
L 341.817072 229.981868 
L 341.929361 103.345255 
L 342.147334 103.345255 
L 342.259623 202.139776 
L 342.510621 202.139776 
L 342.62291 176.093948 
L 342.807857 176.093948 
L 342.920146 209.324832 
L 343.105092 209.324832 
L 343.217381 210.222964 
L 344.062851 210.222964 
L 344.17514 211.121096 
L 344.987583 211.121096 
L 345.099872 130.289215 
L 345.317845 130.289215 
L 345.430134 178.788344 
L 345.648106 178.788344 
L 345.760395 193.158456 
L 345.945342 193.158456 
L 346.057631 229.083736 
L 346.341656 229.083736 
L 346.453945 210.222964 
L 346.539813 210.222964 
L 346.652102 208.4267 
L 346.9031 208.4267 
L 347.015389 209.324832 
L 347.860859 209.324832 
L 347.973148 210.222964 
L 350.701109 210.222964 
L 350.813397 209.324832 
L 354.201881 209.324832 
L 354.31417 215.611756 
L 354.466091 215.611756 
L 354.578379 106.937783 
L 354.796352 106.937783 
L 354.908641 221.89868 
L 355.15964 221.89868 
L 355.271929 143.761196 
L 355.456875 143.761196 
L 355.569164 202.139776 
L 355.787137 202.139776 
L 355.899426 227.287472 
L 356.183451 227.287472 
L 356.29574 228.185604 
L 356.711869 228.185604 
L 356.824158 229.083736 
L 357.372392 229.083736 
L 357.484681 229.981868 
L 357.702654 229.981868 
L 357.814943 230.88 
L 358.297125 230.88 
L 358.409414 229.981868 
L 358.924622 229.981868 
L 359.036911 229.083736 
L 360.840139 229.083736 
L 360.952428 228.185604 
L 361.764871 228.185604 
L 361.87716 229.083736 
L 362.095133 229.083736 
L 362.207422 228.185604 
L 362.425395 228.185604 
L 362.537684 229.083736 
L 362.755656 229.083736 
L 362.867945 228.185604 
L 366.553664 228.185604 
L 366.665953 229.083736 
L 366.883926 229.083736 
L 366.996215 228.185604 
L 367.181161 228.185604 
L 367.29345 229.083736 
L 367.511423 229.083736 
L 367.623712 228.185604 
L 368.436155 228.185604 
L 368.548444 227.287472 
L 369.42694 227.287472 
L 369.539229 226.38934 
L 370.054437 226.38934 
L 370.166726 227.287472 
L 372.597451 227.287472 
L 372.70974 228.185604 
L 372.894687 228.185604 
L 373.006976 227.287472 
L 373.224948 227.287472 
L 373.337237 228.185604 
L 374.182707 228.185604 
L 374.294996 227.287472 
L 375.107439 227.287472 
L 375.219728 228.185604 
L 375.734936 228.185604 
L 375.847225 227.287472 
L 376.065198 227.287472 
L 376.177487 228.185604 
L 381.151226 228.185604 
L 381.263515 227.287472 
L 381.415435 227.287472 
L 381.527724 226.38934 
L 385.279496 226.38934 
L 385.391785 227.287472 
L 385.576731 227.287472 
L 385.68902 226.38934 
L 385.873967 226.38934 
L 385.986256 227.287472 
L 386.204228 227.287472 
L 386.316517 226.38934 
L 386.831725 226.38934 
L 386.944014 227.287472 
L 390.002237 227.287472 
L 390.114525 228.185604 
L 391.917754 228.185604 
L 392.030043 229.083736 
L 392.248015 229.083736 
L 392.360304 228.185604 
L 393.469983 228.185604 
L 393.582272 229.083736 
L 393.800245 229.083736 
L 393.912534 228.185604 
L 394.824056 228.185604 
L 394.936345 229.083736 
L 400.501252 229.083736 
L 400.613541 228.185604 
L 401.756246 228.185604 
L 401.868535 229.083736 
L 403.968999 229.083736 
L 404.081288 229.981868 
L 405.223993 229.981868 
L 405.336282 230.88 
L 406.809248 230.88 
L 406.921537 229.981868 
L 407.767007 229.981868 
L 407.879296 230.88 
L 408.724766 230.88 
L 408.837054 229.981868 
L 409.649498 229.981868 
L 409.761787 230.88 
L 411.26778 230.88 
L 411.380069 219.204284 
L 411.565015 219.204284 
L 411.677304 34.189091 
L 411.895277 34.189091 
L 412.007566 133.881743 
L 412.225538 133.881743 
L 412.337827 229.083736 
L 412.5558 229.083736 
L 412.668089 209.324832 
L 413.216323 209.324832 
L 413.328612 210.222964 
L 414.438291 210.222964 
L 414.55058 202.139776 
L 414.735526 202.139776 
L 414.847815 34.189091 
L 415.065788 34.189091 
L 415.178077 216.509888 
L 415.396049 216.509888 
L 415.508338 160.825704 
L 415.759337 160.825704 
L 415.871626 206.630436 
L 416.023546 206.630436 
L 416.135835 210.222964 
L 417.48 210.222964 
L 417.48 210.222964 
" style="fill:none;stroke:#e41a1c;stroke-linecap:square;stroke-width:2;"/>
   </g>
   <g id="patch_3">
    <path d="M 65.32538 230.88 
L 65.32538 14.52 
" style="fill:none;stroke:#000000;stroke-linecap:square;stroke-linejoin:miter;stroke-width:0.8;"/>
   </g>
   <g id="patch_4">
    <path d="M 417.48 230.88 
L 417.48 14.52 
" style="fill:none;"/>
   </g>
   <g id="patch_5">
    <path d="M 65.32538 230.88 
L 417.48 230.88 
" style="fill:none;stroke:#000000;stroke-linecap:square;stroke-linejoin:miter;stroke-width:0.8;"/>
   </g>
   <g id="patch_6">
    <path d="M 65.32538 14.52 
L 417.48 14.52 
" style="fill:none;"/>
   </g>
   <g id="legend_1">
    <g id="patch_7">
     <path d="M 70.12538 44.05585 
L 173.78887 44.05585 
Q 176.98887 44.05585 176.98887 40.85585 
L 176.98887 19.32 
Q 176.98887 16.12 173.78887 16.12 
L 70.12538 16.12 
Q 66.92538 16.12 66.92538 19.32 
L 66.92538 40.85585 
Q 66.92538 44.05585 70.12538 44.05585 
z
" style="fill:#ffffff;stroke:#000000;stroke-linejoin:miter;"/>
    </g>
    <g id="line2d_12">
     <path d="M 73.32538 28.77596 
L 105.32538 28.77596 
" style="fill:none;stroke:#e41a1c;stroke-linecap:square;stroke-width:2;"/>
    </g>
    <g id="line2d_13"/>
    <g id="text_13">
     <!-- X Load -->
     <g transform="translate(118.12538 34.37596)scale(0.16 -0.16)">
      <use transform="translate(0 0.343476)scale(0.996264)" xlink:href="#Century_Schoolbook_L_Roman-88"/>
      <use transform="translate(97.831344 0.343476)scale(0.996264)" xlink:href="#Century_Schoolbook_L_Roman-76"/>
      <use transform="translate(164.281375 0.343476)scale(0.996264)" xlink:href="#Century_Schoolbook_L_Roman-111"/>
      <use transform="translate(214.094576 0.343476)scale(0.996264)" xlink:href="#Century_Schoolbook_L_Roman-97"/>
      <use transform="translate(269.486253 0.343476)scale(0.996264)" xlink:href="#Century_Schoolbook_L_Roman-100"/>
     </g>
    </g>
   </g>
  </g>
 </g>
 <defs>
  <clipPath id="p236fd09e94">
   <rect height="216.36" width="352.15462" x="65.32538" y="14.52"/>
  </clipPath>
 </defs>
</svg>
