<?xml version="1.0" encoding="utf-8" standalone="no"?>
<!DOCTYPE svg PUBLIC "-//W3C//DTD SVG 1.1//EN"
  "http://www.w3.org/Graphics/SVG/1.1/DTD/svg11.dtd">
<!-- Created with matplotlib (https://matplotlib.org/) -->
<svg height="288pt" version="1.1" viewBox="0 0 432 288" width="432pt" xmlns="http://www.w3.org/2000/svg" xmlns:xlink="http://www.w3.org/1999/xlink">
 <defs>
  <style type="text/css">
*{stroke-linecap:butt;stroke-linejoin:round;}
  </style>
 </defs>
 <g id="figure_1">
  <g id="patch_1">
   <path d="M 0 288 
L 432 288 
L 432 0 
L 0 0 
z
" style="fill:#ffffff;"/>
  </g>
  <g id="axes_1">
   <g id="patch_2">
    <path d="M 61.96604 230.41218 
L 417.48 230.41218 
L 417.48 14.52 
L 61.96604 14.52 
z
" style="fill:#ffffff;"/>
   </g>
   <g id="matplotlib.axis_1">
    <g id="xtick_1">
     <g id="line2d_1">
      <defs>
       <path d="M 0 0 
L 0 3.5 
" id="me8c1ce4f87" style="stroke:#000000;stroke-width:0.8;"/>
      </defs>
      <g>
       <use style="stroke:#000000;stroke-width:0.8;" x="133.068832" xlink:href="#me8c1ce4f87" y="230.41218"/>
      </g>
     </g>
     <g id="text_1">
      <!-- $50$ -->
      <defs>
       <path d="M 11.40625 58.59375 
C 12.40625 58.1875 16.5 56.890625 20.703125 56.890625 
C 30 56.890625 35.09375 61.890625 38 64.6875 
C 38 65.484375 38 66 37.40625 66 
C 37.296875 66 37.09375 66 36.296875 65.59375 
C 32.796875 64.09375 28.703125 63 23.703125 63 
C 20.703125 63 16.203125 63.359375 11.296875 65.484375 
C 10.203125 66 10 66 9.90625 66 
C 9.40625 66 9.296875 65.890625 9.296875 63.90625 
L 9.296875 34.859375 
C 9.296875 33.015625 9.296875 32.5 10.296875 32.5 
C 10.796875 32.5 11 32.703125 11.5 33.421875 
C 14.703125 38.046875 19.09375 40 24.09375 40 
C 27.59375 40 35.09375 37.734375 35.09375 20.203125 
C 35.09375 16.984375 35.09375 11.1875 32.09375 6.59375 
C 29.59375 2.484375 25.703125 0.390625 21.40625 0.390625 
C 14.796875 0.390625 8.09375 4.984375 6.296875 12.6875 
C 6.703125 12.59375 7.5 12.390625 7.90625 12.390625 
C 9.203125 12.390625 11.703125 13.09375 11.703125 16.1875 
C 11.703125 18.890625 9.796875 20 7.90625 20 
C 5.59375 20 4.09375 18.59375 4.09375 15.796875 
C 4.09375 7.09375 11 -2 21.59375 -2 
C 31.90625 -2 41.703125 6.890625 41.703125 19.796875 
C 41.703125 32.09375 33.90625 41.59375 24.203125 41.59375 
C 19.09375 41.59375 14.796875 39.6875 11.40625 36 
z
" id="CMR17-53"/>
       <path d="M 42 31.84375 
C 42 37.96875 41.90625 48.421875 37.703125 56.453125 
C 34 63.484375 28.09375 66 22.90625 66 
C 18.09375 66 12 63.78125 8.203125 56.5625 
C 4.203125 49.015625 3.796875 39.671875 3.796875 31.84375 
C 3.796875 26.109375 3.90625 17.375 7 9.734375 
C 11.296875 -0.609375 19 -2 22.90625 -2 
C 27.5 -2 34.5 -0.109375 38.59375 9.4375 
C 41.59375 16.375 42 24.5 42 31.84375 
z
M 22.90625 -0.40625 
C 16.5 -0.40625 12.703125 5.125 11.296875 12.75 
C 10.203125 18.6875 10.203125 27.328125 10.203125 32.953125 
C 10.203125 40.6875 10.203125 47.109375 11.5 53.234375 
C 13.40625 61.78125 19 64.390625 22.90625 64.390625 
C 27 64.390625 32.296875 61.671875 34.203125 53.4375 
C 35.5 47.71875 35.59375 40.984375 35.59375 32.953125 
C 35.59375 26.421875 35.59375 18.375 34.40625 12.453125 
C 32.296875 1.5 26.40625 -0.40625 22.90625 -0.40625 
z
" id="CMR17-48"/>
      </defs>
      <g transform="translate(124.813707 250.75013)scale(0.18 -0.18)">
       <use transform="scale(0.996264)" xlink:href="#CMR17-53"/>
       <use transform="translate(45.690477 0)scale(0.996264)" xlink:href="#CMR17-48"/>
      </g>
     </g>
    </g>
    <g id="xtick_2">
     <g id="line2d_2">
      <g>
       <use style="stroke:#000000;stroke-width:0.8;" x="204.171624" xlink:href="#me8c1ce4f87" y="230.41218"/>
      </g>
     </g>
     <g id="text_2">
      <!-- $100$ -->
      <defs>
       <path d="M 26.59375 63.796875 
C 26.59375 65.890625 26.5 66 25.09375 66 
C 21.203125 61.359375 15.296875 59.890625 9.703125 59.6875 
C 9.40625 59.6875 8.90625 59.6875 8.796875 59.5 
C 8.703125 59.296875 8.703125 59.09375 8.703125 57 
C 11.796875 57 17 57.59375 21 59.984375 
L 21 7.296875 
C 21 3.796875 20.796875 2.59375 12.203125 2.59375 
L 9.203125 2.59375 
L 9.203125 0 
C 14 0.09375 19 0.1875 23.796875 0.1875 
C 28.59375 0.1875 33.59375 0.09375 38.40625 0 
L 38.40625 2.59375 
L 35.40625 2.59375 
C 26.796875 2.59375 26.59375 3.6875 26.59375 7.296875 
z
" id="CMR17-49"/>
      </defs>
      <g transform="translate(191.788934 250.75013)scale(0.18 -0.18)">
       <use transform="scale(0.996264)" xlink:href="#CMR17-49"/>
       <use transform="translate(45.690477 0)scale(0.996264)" xlink:href="#CMR17-48"/>
       <use transform="translate(91.380954 0)scale(0.996264)" xlink:href="#CMR17-48"/>
      </g>
     </g>
    </g>
    <g id="xtick_3">
     <g id="line2d_3">
      <g>
       <use style="stroke:#000000;stroke-width:0.8;" x="275.274416" xlink:href="#me8c1ce4f87" y="230.41218"/>
      </g>
     </g>
     <g id="text_3">
      <!-- $150$ -->
      <g transform="translate(262.891726 250.75013)scale(0.18 -0.18)">
       <use transform="scale(0.996264)" xlink:href="#CMR17-49"/>
       <use transform="translate(45.690477 0)scale(0.996264)" xlink:href="#CMR17-53"/>
       <use transform="translate(91.380954 0)scale(0.996264)" xlink:href="#CMR17-48"/>
      </g>
     </g>
    </g>
    <g id="xtick_4">
     <g id="line2d_4">
      <g>
       <use style="stroke:#000000;stroke-width:0.8;" x="346.377208" xlink:href="#me8c1ce4f87" y="230.41218"/>
      </g>
     </g>
     <g id="text_4">
      <!-- $200$ -->
      <defs>
       <path d="M 41.703125 15.46875 
L 39.90625 15.46875 
C 38.90625 8.390625 38.09375 7.1875 37.703125 6.59375 
C 37.203125 5.796875 30 5.796875 28.59375 5.796875 
L 9.40625 5.796875 
C 13 9.6875 20 16.765625 28.5 24.9375 
C 34.59375 30.71875 41.703125 37.5 41.703125 47.390625 
C 41.703125 59.1875 32.296875 66 21.796875 66 
C 10.796875 66 4.09375 56.296875 4.09375 47.296875 
C 4.09375 43.390625 7 42.890625 8.203125 42.890625 
C 9.203125 42.890625 12.203125 43.484375 12.203125 46.984375 
C 12.203125 50.09375 9.59375 51 8.203125 51 
C 7.59375 51 7 50.890625 6.59375 50.6875 
C 8.5 59.1875 14.296875 63.390625 20.40625 63.390625 
C 29.09375 63.390625 34.796875 56.5 34.796875 47.390625 
C 34.796875 38.703125 29.703125 31.21875 24 24.734375 
L 4.09375 2.296875 
L 4.09375 0 
L 39.296875 0 
z
" id="CMR17-50"/>
      </defs>
      <g transform="translate(333.994518 250.75013)scale(0.18 -0.18)">
       <use transform="scale(0.996264)" xlink:href="#CMR17-50"/>
       <use transform="translate(45.690477 0)scale(0.996264)" xlink:href="#CMR17-48"/>
       <use transform="translate(91.380954 0)scale(0.996264)" xlink:href="#CMR17-48"/>
      </g>
     </g>
    </g>
    <g id="text_5">
     <!-- Sample Number -->
     <defs>
      <path d="M 54.59375 73.09375 
L 50.90625 73.09375 
L 46.90625 67.0625 
C 42.203125 71.59375 35.796875 74 28.703125 74 
C 15.59375 74 6.796875 65.546875 6.796875 52.890625 
C 6.796875 41.859375 12.203125 36.390625 26.90625 32.546875 
L 36.40625 30.125 
C 43.796875 28.203125 44.5 28 46.59375 26.375 
C 49.59375 24.046875 51.203125 20.703125 51.203125 16.765625 
C 51.203125 12.71875 49.703125 9.375 46.703125 6.640625 
C 43.40625 3.703125 40.09375 2.59375 34.59375 2.59375 
C 27.203125 2.59375 21.90625 4.921875 17.203125 10.1875 
C 13 14.9375 10.90625 19.703125 9.40625 27.484375 
L 5.09375 27.484375 
L 5.5 -1.3125 
L 9.40625 -1.3125 
L 13.90625 5.53125 
C 20.59375 0 26.203125 -2 34.90625 -2 
C 49.59375 -2 59 6.640625 59 20.203125 
C 59 26.484375 56.90625 31.84375 53 35.6875 
C 50.296875 38.3125 46.40625 40.046875 38.40625 42.0625 
L 27.703125 44.796875 
C 18.796875 47.125 14.59375 51.078125 14.59375 57.25 
C 14.59375 64.328125 20.296875 69.1875 28.796875 69.1875 
C 35.796875 69.1875 41.5 66.15625 45.5 60.390625 
C 48.40625 56.234375 50.203125 51.984375 51.5 46.828125 
L 55.796875 46.828125 
z
" id="Century_Schoolbook_L_Roman-83"/>
      <path d="M 45.203125 31.96875 
C 45.203125 38.34375 44.09375 41.578125 41.203125 43.984375 
C 37.90625 46.59375 33 48 26.59375 48 
C 15.40625 48 7.09375 42.6875 7.09375 35.40625 
C 7.09375 31.578125 9.40625 29.140625 12.90625 29.140625 
C 16 29.140625 18.296875 31.265625 18.296875 34.296875 
C 18.296875 35.609375 17.796875 37.03125 16.796875 38.4375 
C 16.203125 39.140625 16.09375 39.453125 16.09375 39.75 
C 16.09375 41.875 20.203125 43.6875 25 43.6875 
C 28.09375 43.6875 31.59375 42.6875 33.203125 41.171875 
C 35.09375 39.546875 35.796875 37.125 35.796875 32.578125 
L 35.796875 28.640625 
C 25.296875 26.828125 22.09375 26.015625 17.203125 24.09375 
C 8.59375 20.859375 4.40625 16.125 4.40625 9.75 
C 4.40625 2.59375 10.09375 -2 18.90625 -2 
C 25.796875 -2 32 0.796875 36.296875 5.921875 
C 37.90625 1 40.40625 -1 45.09375 -1 
C 49.59375 -1 54.296875 1.890625 54.296875 4.796875 
C 54.296875 5.5 53.796875 6 53.296875 6 
C 52.90625 6 52.5 5.890625 51.796875 5.59375 
C 50.203125 5 49.796875 4.890625 49 4.890625 
C 46.203125 4.890625 45.203125 6.796875 45.203125 11.796875 
z
M 35.796875 19.6875 
C 35.796875 13.6875 35.5 12.296875 33.796875 9.6875 
C 31.296875 5.796875 26.703125 3.296875 22.40625 3.296875 
C 17.90625 3.296875 14.5 6.59375 14.5 11.09375 
C 14.5 15.296875 16.59375 18.296875 21 20.390625 
C 24.09375 21.796875 28 22.796875 35.796875 24.09375 
z
" id="Century_Schoolbook_L_Roman-97"/>
      <path d="M 20.09375 47 
L 2.296875 46 
L 2.296875 41.6875 
L 6.40625 41.6875 
C 10.09375 41.6875 10.703125 40.984375 10.703125 36.625 
L 10.703125 12.40625 
L 10.703125 8.453125 
C 10.703125 4.296875 9.59375 3.59375 3.203125 3.59375 
L 2.796875 3.59375 
L 2.796875 0 
L 28 0 
L 28 3.59375 
L 27.59375 3.59375 
C 21.203125 3.59375 20.09375 4.296875 20.09375 8.453125 
L 20.09375 12.40625 
L 20.09375 26.796875 
C 20.09375 35.3125 25 41.890625 31.5 41.890625 
C 34.09375 41.890625 36.90625 40.5 38.09375 38.59375 
C 39.5 36.703125 40.09375 33.8125 40.09375 29.71875 
L 40.09375 12.265625 
L 40.09375 8.28125 
C 40.09375 4.296875 39 3.59375 32.5 3.59375 
L 32.09375 3.59375 
L 32.09375 0 
L 57.40625 0 
L 57.40625 3.59375 
L 57 3.59375 
C 50.59375 3.59375 49.5 4.296875 49.5 8.28125 
L 49.5 12.265625 
L 49.5 25.53125 
C 49.5 35.5 54 41.890625 61 41.890625 
C 64.296875 41.890625 67 40 68.296875 36.90625 
C 69.203125 34.703125 69.5 32.515625 69.5 28.625 
L 69.5 12.265625 
L 69.5 8.28125 
C 69.5 4.296875 68.40625 3.59375 61.90625 3.59375 
L 61.5 3.59375 
L 61.5 0 
L 86.796875 0 
L 86.796875 3.59375 
L 86.40625 3.59375 
C 80 3.59375 78.90625 4.296875 78.90625 8.375 
L 78.90625 12.265625 
L 78.90625 30.625 
C 78.90625 36.796875 78.296875 38.890625 75.703125 42.296875 
C 72.796875 45.984375 68.703125 48 63.90625 48 
C 57.40625 48 52.59375 44.890625 48.296875 38 
C 46.59375 43.984375 41.203125 48 34.5 48 
C 28.5 48 24 45.09375 20.09375 38.796875 
z
" id="Century_Schoolbook_L_Roman-109"/>
      <path d="M 20.09375 47 
L 2.796875 46 
L 2.796875 41.6875 
L 6.40625 41.6875 
C 10.09375 41.6875 10.703125 40.96875 10.703125 36.5625 
L 10.703125 -8.359375 
L 10.703125 -12.34375 
C 10.703125 -16.3125 9.59375 -17 3.203125 -17 
L 2.796875 -17 
L 2.796875 -20.609375 
L 28.796875 -20.609375 
L 28.796875 -17 
L 27.703125 -17 
C 21.203125 -17 20.09375 -16.3125 20.09375 -12.34375 
L 20.09375 -8.359375 
L 20.09375 6.171875 
C 23.40625 0.296875 27.203125 -2 33.296875 -2 
C 44.90625 -2 53.5 8.828125 53.5 23.515625 
C 53.5 37.1875 44.90625 48 33.90625 48 
C 27.703125 48 23.59375 45.390625 20.09375 39.390625 
z
M 32.09375 42.59375 
C 39 42.59375 43 35.625 43 23.796875 
C 43 10.765625 38.90625 3.390625 31.796875 3.390625 
C 24.703125 3.390625 20 10.875 20 22.484375 
C 20 35.015625 24.5 42.59375 32.09375 42.59375 
z
" id="Century_Schoolbook_L_Roman-112"/>
      <path d="M 20.40625 74 
L 1.90625 73 
L 1.90625 68.6875 
L 6.796875 68.6875 
C 10.40625 68.6875 11 67.984375 11 63.65625 
L 11 12.34375 
L 11 8.328125 
C 11 4.296875 9.90625 3.59375 3.5 3.59375 
L 2.796875 3.59375 
L 2.796875 0 
L 28.703125 0 
L 28.703125 3.59375 
L 28 3.59375 
C 21.5 3.59375 20.40625 4.296875 20.40625 8.328125 
L 20.40625 12.34375 
z
" id="Century_Schoolbook_L_Roman-108"/>
      <path d="M 46.5 22 
C 46.59375 37.25 38.09375 48 25.90625 48 
C 13.09375 48 3.5 36.734375 3.5 21.484375 
C 3.5 7.484375 12.59375 -2 26.09375 -2 
C 35.59375 -2 42.40625 2.6875 46.5 12.1875 
L 43 14.09375 
C 38.90625 6.390625 34.703125 3.390625 28 3.390625 
C 22.90625 3.390625 19.203125 5.59375 16.59375 9.984375 
C 14.796875 12.984375 14 16.484375 14.09375 22 
z
M 14.203125 26.296875 
C 14.203125 29.46875 14.59375 31.71875 15.59375 34.578125 
C 17.703125 40.71875 20.90625 43.6875 25.703125 43.6875 
C 31.796875 43.6875 35.796875 38.265625 35.796875 30.078125 
C 35.796875 27.109375 34.90625 26.296875 31.703125 26.296875 
z
" id="Century_Schoolbook_L_Roman-101"/>
      <path d="M 22.5 72 
L 1.90625 72 
L 1.90625 67.296875 
L 4.40625 67.296875 
C 9.5 67.296875 11.796875 66.5 13.59375 64 
L 13.59375 21.640625 
C 13.59375 7.984375 11.59375 5.09375 2 4.6875 
L 2 0 
L 30.5 0 
L 30.5 4.6875 
C 21 5.09375 19 7.984375 19 21.640625 
L 19 58.625 
L 63.59375 -1 
L 67.796875 -1 
L 67.796875 50.453125 
C 67.796875 64.03125 69.796875 66.890625 79.40625 67.296875 
L 79.40625 72 
L 50.90625 72 
L 50.90625 67.296875 
C 60.40625 66.890625 62.40625 64.03125 62.40625 50.453125 
L 62.40625 19.328125 
z
" id="Century_Schoolbook_L_Roman-78"/>
      <path d="M 41.203125 -0.703125 
L 59.40625 0 
L 59.40625 4.296875 
L 56.90625 4.296875 
C 51.40625 4.296875 50.59375 5.203125 50.59375 11.671875 
L 50.59375 47 
L 31.796875 46 
L 31.796875 41.6875 
L 36.90625 41.6875 
C 40.59375 41.6875 41.203125 40.96875 41.203125 36.5625 
L 41.203125 23.921875 
C 41.203125 18.0625 40.59375 14.671875 39.09375 11.28125 
C 37 6.765625 33 4.09375 28.09375 4.09375 
C 25 4.09375 22.40625 5.21875 21.09375 7.28125 
C 19.796875 9.234375 19.59375 10.25 19.59375 15.90625 
L 19.59375 47 
L 2.09375 46 
L 2.09375 41.6875 
L 5.90625 41.6875 
C 9.59375 41.6875 10.203125 40.96875 10.203125 36.5625 
L 10.203125 14.359375 
C 10.203125 9.125 10.59375 6.765625 12.09375 4.40625 
C 14.796875 0.296875 19.59375 -2 25.59375 -2 
C 32.203125 -2 36.796875 0.6875 41.203125 7.171875 
z
" id="Century_Schoolbook_L_Roman-117"/>
      <path d="M 18 74 
L 0.796875 73 
L 0.796875 68.6875 
L 4.296875 68.6875 
C 8 68.6875 8.59375 67.96875 8.59375 63.5625 
L 8.59375 24.109375 
C 8.59375 10.578125 8.09375 4.015625 6.796875 -1.90625 
L 10.59375 -1.90625 
L 15.5 5.921875 
C 19.59375 0.5 24.296875 -2 30.5 -2 
C 42.796875 -2 52 8.75 52 23.296875 
C 52 37.84375 43.59375 48 31.59375 48 
C 25.5 48 21.796875 45.890625 18 40.171875 
z
M 29.796875 42.890625 
C 37.296875 42.890625 41.5 35.515625 41.5 22.296875 
C 41.5 9.5625 37.40625 2.296875 30.09375 2.296875 
C 22.203125 2.296875 17.5 9.671875 17.5 22.09375 
C 17.5 35.515625 21.796875 42.890625 29.796875 42.890625 
z
" id="Century_Schoolbook_L_Roman-98"/>
      <path d="M 19.796875 47 
L 2.09375 45.296875 
L 2.09375 41 
L 6.203125 41 
C 9.90625 41 10.5 40.296875 10.5 36.015625 
L 10.5 12.25 
L 10.5 8.265625 
C 10.5 4.28125 9.40625 3.59375 2.90625 3.59375 
L 2.5 3.59375 
L 2.5 0 
L 29.203125 0 
L 29.203125 3.59375 
L 27.296875 3.59375 
C 20.90625 3.59375 19.796875 4.28125 19.796875 8.265625 
L 19.796875 12.25 
L 19.796875 13.234375 
C 19.796875 20.703125 21.203125 28.265625 23.703125 33.9375 
C 26.09375 39.5 29.5 42.59375 33.703125 43.09375 
C 32.296875 41.5 31.90625 40.5 31.90625 38.609375 
C 31.90625 35.421875 34.203125 33.140625 37.40625 33.140625 
C 41 33.140625 43.5 35.828125 43.5 39.90625 
C 43.5 44.6875 40.09375 48 34.796875 48 
C 28.5 48 23 42.796875 19.796875 34.03125 
z
" id="Century_Schoolbook_L_Roman-114"/>
     </defs>
     <g transform="translate(171.71073 272.77795)scale(0.18 -0.18)">
      <use transform="translate(0 -1.570628)scale(0.996264)" xlink:href="#Century_Schoolbook_L_Roman-83"/>
      <use transform="translate(62.763979 -1.570628)scale(0.996264)" xlink:href="#Century_Schoolbook_L_Roman-97"/>
      <use transform="translate(118.155656 -1.570628)scale(0.996264)" xlink:href="#Century_Schoolbook_L_Roman-109"/>
      <use transform="translate(206.722563 -1.570628)scale(0.996264)" xlink:href="#Century_Schoolbook_L_Roman-112"/>
      <use transform="translate(263.90805 -1.570628)scale(0.996264)" xlink:href="#Century_Schoolbook_L_Roman-108"/>
      <use transform="translate(295.289363 -1.570628)scale(0.996264)" xlink:href="#Century_Schoolbook_L_Roman-101"/>
      <use transform="translate(372.797733 -1.570628)scale(0.996264)" xlink:href="#Century_Schoolbook_L_Roman-78"/>
      <use transform="translate(453.992246 -1.570628)scale(0.996264)" xlink:href="#Century_Schoolbook_L_Roman-117"/>
      <use transform="translate(514.863877 -1.570628)scale(0.996264)" xlink:href="#Century_Schoolbook_L_Roman-109"/>
      <use transform="translate(603.430784 -1.570628)scale(0.996264)" xlink:href="#Century_Schoolbook_L_Roman-98"/>
      <use transform="translate(658.822461 -1.570628)scale(0.996264)" xlink:href="#Century_Schoolbook_L_Roman-101"/>
      <use transform="translate(708.635661 -1.570628)scale(0.996264)" xlink:href="#Century_Schoolbook_L_Roman-114"/>
     </g>
    </g>
   </g>
   <g id="matplotlib.axis_2">
    <g id="ytick_1">
     <g id="line2d_5">
      <defs>
       <path d="M 0 0 
L -3.5 0 
" id="mc6ee909eb3" style="stroke:#000000;stroke-width:0.8;"/>
      </defs>
      <g>
       <use style="stroke:#000000;stroke-width:0.8;" x="61.96604" xlink:href="#mc6ee909eb3" y="230.41218"/>
      </g>
     </g>
     <g id="text_6">
      <!-- $2.0$ -->
      <defs>
       <path d="M 18.40625 4.796875 
C 18.40625 7.6875 16 9.6875 13.59375 9.6875 
C 10.703125 9.6875 8.703125 7.296875 8.703125 4.890625 
C 8.703125 2 11.09375 0 13.5 0 
C 16.40625 0 18.40625 2.390625 18.40625 4.796875 
z
" id="CMMI12-58"/>
      </defs>
      <g transform="translate(33.56 237.081155)scale(0.18 -0.18)">
       <use transform="scale(0.996264)" xlink:href="#CMR17-50"/>
       <use transform="translate(45.690477 0)scale(0.996264)" xlink:href="#CMMI12-58"/>
       <use transform="translate(72.787654 0)scale(0.996264)" xlink:href="#CMR17-48"/>
      </g>
     </g>
    </g>
    <g id="ytick_2">
     <g id="line2d_6">
      <g>
       <use style="stroke:#000000;stroke-width:0.8;" x="61.96604" xlink:href="#mc6ee909eb3" y="195.464033"/>
      </g>
     </g>
     <g id="text_7">
      <!-- $2.2$ -->
      <g transform="translate(33.56 202.133008)scale(0.18 -0.18)">
       <use transform="scale(0.996264)" xlink:href="#CMR17-50"/>
       <use transform="translate(45.690477 0)scale(0.996264)" xlink:href="#CMMI12-58"/>
       <use transform="translate(72.787654 0)scale(0.996264)" xlink:href="#CMR17-50"/>
      </g>
     </g>
    </g>
    <g id="ytick_3">
     <g id="line2d_7">
      <g>
       <use style="stroke:#000000;stroke-width:0.8;" x="61.96604" xlink:href="#mc6ee909eb3" y="160.515885"/>
      </g>
     </g>
     <g id="text_8">
      <!-- $2.4$ -->
      <defs>
       <path d="M 33.59375 64.796875 
C 33.59375 66.890625 33.5 67 31.703125 67 
L 2 19.59375 
L 2 17 
L 27.796875 17 
L 27.796875 7.1875 
C 27.796875 3.59375 27.59375 2.59375 20.59375 2.59375 
L 18.703125 2.59375 
L 18.703125 0 
C 21.90625 0.1875 27.296875 0.1875 30.703125 0.1875 
C 34.09375 0.1875 39.5 0.1875 42.703125 0 
L 42.703125 2.59375 
L 40.796875 2.59375 
C 33.796875 2.59375 33.59375 3.59375 33.59375 7.1875 
L 33.59375 17 
L 43.796875 17 
L 43.796875 19.59375 
L 33.59375 19.59375 
z
M 28.09375 58.171875 
L 28.09375 19.59375 
L 4 19.59375 
z
" id="CMR17-52"/>
      </defs>
      <g transform="translate(33.56 167.18486)scale(0.18 -0.18)">
       <use transform="scale(0.996264)" xlink:href="#CMR17-50"/>
       <use transform="translate(45.690477 0)scale(0.996264)" xlink:href="#CMMI12-58"/>
       <use transform="translate(72.787654 0)scale(0.996264)" xlink:href="#CMR17-52"/>
      </g>
     </g>
    </g>
    <g id="ytick_4">
     <g id="line2d_8">
      <g>
       <use style="stroke:#000000;stroke-width:0.8;" x="61.96604" xlink:href="#mc6ee909eb3" y="125.567738"/>
      </g>
     </g>
     <g id="text_9">
      <!-- $2.6$ -->
      <defs>
       <path d="M 10.59375 34.34375 
C 10.59375 58 21.796875 63.6875 28.296875 63.6875 
C 30.40625 63.6875 35.5 63.265625 37.5 59.09375 
C 35.90625 59.09375 32.90625 59.09375 32.90625 55.59375 
C 32.90625 52.890625 35.09375 52 36.5 52 
C 37.40625 52 40.09375 52.390625 40.09375 55.796875 
C 40.09375 62.296875 35.09375 66 28.203125 66 
C 16.296875 66 3.796875 53.296875 3.796875 31.421875 
C 3.796875 4.015625 15.09375 -2 23.09375 -2 
C 32.796875 -2 42 6.734375 42 20.234375 
C 42 32.828125 33.90625 42 23.703125 42 
C 17.59375 42 13.09375 37.96875 10.59375 30.921875 
z
M 23.09375 0.390625 
C 10.796875 0.390625 10.796875 18.9375 10.796875 22.65625 
C 10.796875 29.90625 14.203125 40.390625 23.5 40.390625 
C 25.203125 40.390625 30.09375 40.390625 33.40625 33.4375 
C 35.203125 29.515625 35.203125 25.375 35.203125 20.34375 
C 35.203125 14.90625 35.203125 10.875 33.09375 6.84375 
C 30.90625 2.703125 27.703125 0.390625 23.09375 0.390625 
z
" id="CMR17-54"/>
      </defs>
      <g transform="translate(33.56 132.236713)scale(0.18 -0.18)">
       <use transform="scale(0.996264)" xlink:href="#CMR17-50"/>
       <use transform="translate(45.690477 0)scale(0.996264)" xlink:href="#CMMI12-58"/>
       <use transform="translate(72.787654 0)scale(0.996264)" xlink:href="#CMR17-54"/>
      </g>
     </g>
    </g>
    <g id="ytick_5">
     <g id="line2d_9">
      <g>
       <use style="stroke:#000000;stroke-width:0.8;" x="61.96604" xlink:href="#mc6ee909eb3" y="90.619591"/>
      </g>
     </g>
     <g id="text_10">
      <!-- $2.8$ -->
      <defs>
       <path d="M 27.203125 35.765625 
C 33.5 38.96875 39.90625 43.796875 39.90625 51.53125 
C 39.90625 60.6875 31.09375 66 23 66 
C 13.90625 66 5.90625 59.375 5.90625 50.234375 
C 5.90625 47.71875 6.5 43.390625 10.40625 39.578125 
C 11.40625 38.578125 15.59375 35.5625 18.296875 33.65625 
C 13.796875 31.34375 3.296875 25.8125 3.296875 14.765625 
C 3.296875 4.40625 13.09375 -2 22.796875 -2 
C 33.5 -2 42.5 5.71875 42.5 15.96875 
C 42.5 25.109375 36.40625 29.328125 32.40625 32.046875 
z
M 14.09375 44.609375 
C 13.296875 45.109375 9.296875 48.21875 9.296875 52.9375 
C 9.296875 59.078125 15.59375 63.6875 22.796875 63.6875 
C 30.703125 63.6875 36.5 58.0625 36.5 51.53125 
C 36.5 42.1875 26.09375 36.859375 25.59375 36.859375 
C 25.5 36.859375 25.40625 36.859375 24.59375 37.46875 
z
M 32.5 24 
C 34 22.90625 38.796875 19.578125 38.796875 13.453125 
C 38.796875 6.015625 31.40625 0.390625 23 0.390625 
C 13.90625 0.390625 7 6.921875 7 14.859375 
C 7 22.796875 13.09375 29.4375 20 32.546875 
z
" id="CMR17-56"/>
      </defs>
      <g transform="translate(33.56 97.288566)scale(0.18 -0.18)">
       <use transform="scale(0.996264)" xlink:href="#CMR17-50"/>
       <use transform="translate(45.690477 0)scale(0.996264)" xlink:href="#CMMI12-58"/>
       <use transform="translate(72.787654 0)scale(0.996264)" xlink:href="#CMR17-56"/>
      </g>
     </g>
    </g>
    <g id="ytick_6">
     <g id="line2d_10">
      <g>
       <use style="stroke:#000000;stroke-width:0.8;" x="61.96604" xlink:href="#mc6ee909eb3" y="55.671443"/>
      </g>
     </g>
     <g id="text_11">
      <!-- $3.0$ -->
      <defs>
       <path d="M 22.09375 34 
C 31 34 34.90625 26.140625 34.90625 17.09375 
C 34.90625 5.03125 28.5 0.390625 22.703125 0.390625 
C 17.40625 0.390625 8.796875 3.015625 6.09375 10.796875 
C 6.59375 10.59375 7.09375 10.59375 7.59375 10.59375 
C 10 10.59375 11.796875 12.1875 11.796875 14.796875 
C 11.796875 17.6875 9.59375 19 7.59375 19 
C 5.90625 19 3.296875 18.1875 3.296875 14.484375 
C 3.296875 5.234375 12.296875 -2 22.90625 -2 
C 34 -2 42.5 6.75 42.5 16.984375 
C 42.5 26.84375 34.5 34 25 35.09375 
C 32.59375 36.671875 39.90625 43.375 39.90625 52.390625 
C 39.90625 60.25 32 66 23 66 
C 13.90625 66 5.90625 60.34375 5.90625 52.296875 
C 5.90625 48.796875 8.5 48.1875 9.796875 48.1875 
C 11.90625 48.1875 13.703125 49.484375 13.703125 52.09375 
C 13.703125 54.6875 11.90625 56 9.796875 56 
C 9.40625 56 8.90625 56 8.5 55.796875 
C 11.40625 62.484375 19.296875 63.6875 22.796875 63.6875 
C 26.296875 63.6875 32.90625 61.96875 32.90625 52.296875 
C 32.90625 49.484375 32.5 44.546875 29.09375 40.21875 
C 26.09375 36.390625 22.703125 36.1875 19.40625 35.890625 
C 18.90625 35.890625 16.59375 35.6875 16.203125 35.6875 
C 15.5 35.59375 15.09375 35.5 15.09375 34.796875 
C 15.09375 34.09375 15.203125 34 17.203125 34 
z
" id="CMR17-51"/>
      </defs>
      <g transform="translate(33.56 62.340418)scale(0.18 -0.18)">
       <use transform="scale(0.996264)" xlink:href="#CMR17-51"/>
       <use transform="translate(45.690477 0)scale(0.996264)" xlink:href="#CMMI12-58"/>
       <use transform="translate(72.787654 0)scale(0.996264)" xlink:href="#CMR17-48"/>
      </g>
     </g>
    </g>
    <g id="ytick_7">
     <g id="line2d_11">
      <g>
       <use style="stroke:#000000;stroke-width:0.8;" x="61.96604" xlink:href="#mc6ee909eb3" y="20.723296"/>
      </g>
     </g>
     <g id="text_12">
      <!-- $3.2$ -->
      <g transform="translate(33.56 27.392271)scale(0.18 -0.18)">
       <use transform="scale(0.996264)" xlink:href="#CMR17-51"/>
       <use transform="translate(45.690477 0)scale(0.996264)" xlink:href="#CMMI12-58"/>
       <use transform="translate(72.787654 0)scale(0.996264)" xlink:href="#CMR17-50"/>
      </g>
     </g>
    </g>
    <g id="text_13">
     <!-- Volts -->
     <defs>
      <path d="M 39.296875 15.0625 
L 21 61.765625 
C 20.5 62.96875 20.203125 64.171875 20.203125 64.78125 
C 20.203125 66.59375 21.90625 67.296875 26.40625 67.296875 
L 30.40625 67.296875 
L 30.40625 72 
L -0.796875 72 
L -0.796875 67.296875 
L 1.203125 67.296875 
C 5.703125 67.296875 7 66.28125 8.90625 61.671875 
L 34.203125 -2 
L 38.203125 -2 
L 61.203125 57.453125 
C 64.203125 65.28125 66.40625 67.296875 72.09375 67.296875 
L 73.09375 67.296875 
L 73.09375 72 
L 46 72 
L 46 67.296875 
L 47.90625 67.296875 
C 53 67.296875 56 65.28125 56 62.0625 
C 56 60.65625 55.5 58.359375 54.796875 56.4375 
z
" id="Century_Schoolbook_L_Roman-86"/>
      <path d="M 25.203125 48 
C 13 48 3.40625 37.03125 3.40625 22.890625 
C 3.40625 9.0625 13 -2 25 -2 
C 37 -2 46.59375 9.0625 46.59375 22.984375 
C 46.59375 36.828125 37 48 25.203125 48 
z
M 25.203125 43.6875 
C 32.203125 43.6875 36.09375 36.3125 36.09375 22.984375 
C 36.09375 9.5625 32.203125 2.296875 25 2.296875 
C 17.796875 2.296875 13.90625 9.5625 13.90625 22.890625 
C 13.90625 36.625 17.703125 43.6875 25.203125 43.6875 
z
" id="Century_Schoolbook_L_Roman-111"/>
      <path d="M 19.40625 47 
L 19.40625 66.796875 
L 15.296875 66.796875 
C 14.296875 53.796875 9.90625 47.1875 1.796875 46.59375 
L 1.796875 42.6875 
L 10 42.6875 
L 10 16.578125 
C 10 9.421875 10.203125 6.859375 11.203125 4.5 
C 12.796875 0.296875 16.796875 -2 22.59375 -2 
C 26.5 -2 29.90625 -0.8125 32.203125 1.390625 
C 35.5 4.609375 37.40625 10.03125 37.40625 15.65625 
C 37.40625 16.28125 37.40625 17 37.296875 18.015625 
L 33.09375 18.015625 
C 32.796875 8.796875 30.203125 4.09375 25.296875 4.09375 
C 23 4.09375 21 5.328125 20.296875 7.0625 
C 19.703125 8.5 19.40625 11.0625 19.40625 14.734375 
L 19.40625 42.6875 
L 34.09375 42.6875 
L 34.09375 47 
z
" id="Century_Schoolbook_L_Roman-116"/>
      <path d="M 39 48 
L 35.5 48 
L 32.59375 44.390625 
C 29 46.796875 25.40625 48 20.40625 48 
C 11.59375 48 5.796875 42.1875 5.796875 33.390625 
C 5.796875 29.453125 7.09375 26.125 9.296875 24.109375 
C 11.59375 21.984375 13.90625 20.96875 19.90625 19.5625 
L 25.203125 18.34375 
C 33.09375 16.4375 35.90625 14.40625 35.90625 10.375 
C 35.90625 5.625 31.796875 2.296875 25.90625 2.296875 
C 17.5 2.296875 11.5 7.75 9.09375 17.84375 
L 5.09375 17.84375 
L 5.09375 -1.203125 
L 8.59375 -1.203125 
L 12.09375 2.890625 
C 16.203125 -0.40625 20.796875 -2 25.796875 -2 
C 35.59375 -2 42.09375 4.109375 42.09375 13.5 
C 42.09375 17.9375 40.703125 21.375 37.90625 23.703125 
C 35.5 25.828125 33.5 26.625 27.40625 27.9375 
L 22.40625 29.046875 
C 16.90625 30.265625 16.90625 30.265625 15.09375 31.28125 
C 12.90625 32.28125 11.59375 34.40625 11.59375 36.625 
C 11.59375 40.671875 15.40625 43.59375 20.90625 43.59375 
C 24.703125 43.59375 27.796875 42.28125 30.59375 39.5625 
C 32.796875 37.796875 33.90625 35.796875 35.5 31.1875 
L 39 31.1875 
z
" id="Century_Schoolbook_L_Roman-115"/>
     </defs>
     <g transform="translate(24.87013 143.29176)rotate(-90)scale(0.18 -0.18)">
      <use transform="translate(0 0.343476)scale(0.996264)" xlink:href="#Century_Schoolbook_L_Roman-86"/>
      <use transform="translate(64.45802 0.343476)scale(0.996264)" xlink:href="#Century_Schoolbook_L_Roman-111"/>
      <use transform="translate(114.27122 0.343476)scale(0.996264)" xlink:href="#Century_Schoolbook_L_Roman-108"/>
      <use transform="translate(145.652533 0.343476)scale(0.996264)" xlink:href="#Century_Schoolbook_L_Roman-116"/>
      <use transform="translate(184.40624 0.343476)scale(0.996264)" xlink:href="#Century_Schoolbook_L_Roman-115"/>
     </g>
    </g>
   </g>
   <g id="line2d_12">
    <path clip-path="url(#p9a796b32d4)" d="M 61.96604 117.354923 
L 63.393807 144.789219 
L 64.821574 148.109293 
L 66.249341 130.984701 
L 67.677108 86.425813 
L 69.104875 72.796036 
L 70.532641 103.725146 
L 71.960408 137.97433 
L 74.815942 110.540035 
L 76.243709 127.664627 
L 77.671476 148.109293 
L 79.099243 155.098923 
L 80.52701 127.664627 
L 81.954777 83.105739 
L 83.382544 79.610924 
L 84.810311 103.725146 
L 86.238077 137.97433 
L 87.665844 120.849738 
L 89.093611 100.230331 
L 91.949145 148.109293 
L 93.376912 144.789219 
L 94.804679 113.860109 
L 96.232446 79.610924 
L 97.660213 76.29085 
L 99.08798 103.725146 
L 100.515747 137.97433 
L 101.943513 117.354923 
L 103.37128 107.04522 
L 104.799047 130.984701 
L 106.226814 144.789219 
L 107.654581 151.604108 
L 109.082348 113.860109 
L 110.510115 79.610924 
L 111.937882 79.610924 
L 113.365649 110.540035 
L 114.793416 137.97433 
L 116.221182 117.354923 
L 117.648949 107.04522 
L 119.076716 134.479516 
L 120.504483 151.604108 
L 121.93225 148.109293 
L 124.787784 79.610924 
L 126.215551 83.105739 
L 127.643318 113.860109 
L 129.071085 141.294404 
L 130.498852 113.860109 
L 131.926618 113.860109 
L 133.354385 137.97433 
L 134.782152 155.098923 
L 136.209919 155.098923 
L 137.637686 100.230331 
L 139.065453 72.796036 
L 140.49322 96.735517 
L 143.348754 137.97433 
L 144.776521 113.860109 
L 146.204288 117.354923 
L 147.632054 141.294404 
L 149.059821 151.604108 
L 150.487588 148.109293 
L 151.915355 89.920628 
L 153.343122 76.29085 
L 154.770889 76.29085 
L 156.198656 120.849738 
L 157.626423 137.97433 
L 159.05419 100.230331 
L 160.481957 113.860109 
L 161.909724 141.294404 
L 163.33749 155.098923 
L 164.765257 158.418997 
L 166.193024 89.920628 
L 167.620791 83.105739 
L 169.048558 93.415443 
L 170.476325 124.169812 
L 171.904092 137.97433 
L 173.331859 110.540035 
L 174.759626 113.860109 
L 176.187393 141.294404 
L 177.61516 151.604108 
L 179.042926 141.294404 
L 180.470693 93.415443 
L 181.89846 76.29085 
L 183.326227 100.230331 
L 184.753994 120.849738 
L 186.181761 134.479516 
L 187.609528 103.725146 
L 189.037295 117.354923 
L 190.465062 141.294404 
L 191.892829 155.098923 
L 193.320596 141.294404 
L 194.748362 96.735517 
L 196.176129 76.29085 
L 197.603896 100.230331 
L 199.031663 127.664627 
L 200.45943 130.984701 
L 201.887197 107.04522 
L 203.314964 117.354923 
L 204.742731 144.789219 
L 206.170498 151.604108 
L 207.598265 137.97433 
L 209.026031 89.920628 
L 210.453798 76.29085 
L 211.881565 100.230331 
L 213.309332 134.479516 
L 214.737099 124.169812 
L 216.164866 100.230331 
L 217.592633 120.849738 
L 219.0204 144.789219 
L 220.448167 148.109293 
L 221.875934 130.984701 
L 223.303701 83.105739 
L 224.731467 76.29085 
L 226.159234 100.230331 
L 227.587001 134.479516 
L 230.442535 107.04522 
L 231.870302 110.540035 
L 233.298069 141.294404 
L 234.725836 151.604108 
L 236.153603 127.664627 
L 237.58137 89.920628 
L 239.009137 76.29085 
L 240.436903 113.860109 
L 241.86467 134.479516 
L 243.292437 127.664627 
L 244.720204 107.04522 
L 246.147971 113.860109 
L 247.575738 148.109293 
L 249.003505 151.604108 
L 250.431272 124.169812 
L 251.859039 83.105739 
L 253.286806 76.29085 
L 254.714573 103.725146 
L 256.142339 134.479516 
L 258.997873 107.04522 
L 261.853407 148.109293 
L 263.281174 144.789219 
L 264.708941 120.849738 
L 266.136708 79.610924 
L 267.564475 83.105739 
L 268.992242 110.540035 
L 270.420009 141.294404 
L 271.847775 120.849738 
L 273.275542 110.540035 
L 274.703309 134.479516 
L 276.131076 155.098923 
L 277.558843 151.604108 
L 278.98661 113.860109 
L 280.414377 65.981147 
L 281.842144 83.105739 
L 283.269911 113.860109 
L 284.697678 117.354923 
L 287.553211 110.540035 
L 288.980978 134.479516 
L 290.408745 148.109293 
L 291.836512 151.604108 
L 293.264279 107.04522 
L 294.692046 76.29085 
L 296.119813 86.425813 
L 297.54758 113.860109 
L 298.975347 134.479516 
L 300.403114 110.540035 
L 301.83088 110.540035 
L 303.258647 134.479516 
L 304.686414 151.604108 
L 306.114181 148.109293 
L 307.541948 107.04522 
L 308.969715 62.486332 
L 310.397482 86.425813 
L 311.825249 117.354923 
L 313.253016 134.479516 
L 314.680783 113.860109 
L 316.10855 113.860109 
L 317.536316 137.97433 
L 318.964083 148.109293 
L 320.39185 148.109293 
L 321.819617 103.725146 
L 323.247384 65.981147 
L 324.675151 89.920628 
L 326.102918 124.169812 
L 327.530685 134.479516 
L 328.958452 113.860109 
L 330.386219 110.540035 
L 331.813986 141.294404 
L 333.241752 151.604108 
L 334.669519 144.789219 
L 336.097286 89.920628 
L 337.525053 72.796036 
L 338.95282 89.920628 
L 340.380587 124.169812 
L 341.808354 130.984701 
L 343.236121 103.725146 
L 344.663888 113.860109 
L 346.091655 141.294404 
L 347.519422 148.109293 
L 348.947188 141.294404 
L 350.374955 96.735517 
L 351.802722 69.301221 
L 353.230489 93.415443 
L 354.658256 127.664627 
L 356.086023 130.984701 
L 357.51379 107.04522 
L 358.941557 117.354923 
L 360.369324 141.294404 
L 361.797091 155.098923 
L 363.224858 137.97433 
L 364.652624 89.920628 
L 366.080391 76.29085 
L 367.508158 96.735517 
L 368.935925 130.984701 
L 370.363692 130.984701 
L 371.791459 103.725146 
L 373.219226 120.849738 
L 374.646993 141.294404 
L 376.07476 151.604108 
L 377.502527 134.479516 
L 378.930293 89.920628 
L 380.35806 76.29085 
L 381.785827 96.735517 
L 383.213594 130.984701 
L 384.641361 127.664627 
L 386.069128 103.725146 
L 387.496895 130.984701 
L 388.924662 144.789219 
L 390.352429 155.098923 
L 391.780196 134.479516 
L 393.207963 86.425813 
L 394.635729 76.29085 
L 396.063496 100.230331 
L 397.491263 144.789219 
L 398.91903 124.169812 
L 400.346797 100.230331 
L 403.202331 148.109293 
L 404.630098 148.109293 
L 406.057865 127.664627 
L 407.485632 83.105739 
L 408.913399 76.29085 
L 411.768932 137.97433 
L 413.196699 124.169812 
L 414.624466 96.735517 
L 416.052233 130.984701 
L 417.48 148.109293 
L 417.48 148.109293 
" style="fill:none;stroke:#e41a1c;stroke-linecap:square;stroke-width:2;"/>
   </g>
   <g id="patch_3">
    <path d="M 61.96604 230.41218 
L 61.96604 14.52 
" style="fill:none;stroke:#000000;stroke-linecap:square;stroke-linejoin:miter;stroke-width:0.8;"/>
   </g>
   <g id="patch_4">
    <path d="M 417.48 230.41218 
L 417.48 14.52 
" style="fill:none;"/>
   </g>
   <g id="patch_5">
    <path d="M 61.96604 230.41218 
L 417.48 230.41218 
" style="fill:none;stroke:#000000;stroke-linecap:square;stroke-linejoin:miter;stroke-width:0.8;"/>
   </g>
   <g id="patch_6">
    <path d="M 61.96604 14.52 
L 417.48 14.52 
" style="fill:none;"/>
   </g>
   <g id="legend_1">
    <g id="patch_7">
     <path d="M 325.0165 44.05585 
L 412.68 44.05585 
Q 415.88 44.05585 415.88 40.85585 
L 415.88 19.32 
Q 415.88 16.12 412.68 16.12 
L 325.0165 16.12 
Q 321.8165 16.12 321.8165 19.32 
L 321.8165 40.85585 
Q 321.8165 44.05585 325.0165 44.05585 
z
" style="fill:#ffffff;stroke:#000000;stroke-linejoin:miter;"/>
    </g>
    <g id="line2d_13">
     <path d="M 328.2165 28.77596 
L 360.2165 28.77596 
" style="fill:none;stroke:#e41a1c;stroke-linecap:square;stroke-width:2;"/>
    </g>
    <g id="line2d_14"/>
    <g id="text_14">
     <!-- Data -->
     <defs>
      <path d="M 13.703125 12.265625 
L 13.703125 9.375 
C 13.703125 5.1875 12.796875 4.6875 4.796875 4.6875 
L 2.90625 4.6875 
L 2.90625 0 
L 36.5 0 
C 45.40625 0 52.203125 1.390625 57.5 4.390625 
C 67.59375 10.078125 73.203125 21.4375 73.203125 36.390625 
C 73.203125 50.046875 68.203125 60.921875 59 66.890625 
C 53.5 70.390625 46.09375 72 34.703125 72 
L 2.90625 72 
L 2.90625 67.296875 
L 4.796875 67.296875 
C 12.796875 67.296875 13.703125 66.796875 13.703125 62.609375 
L 13.703125 59.71875 
z
M 30.59375 4.6875 
C 25.59375 4.6875 24.90625 5.296875 24.90625 10.171875 
L 24.90625 61.71875 
C 24.90625 66.59375 25.59375 67.296875 30.59375 67.296875 
L 35.796875 67.296875 
C 52.90625 67.296875 60 58.03125 60 36 
C 60 13.671875 53.5 4.6875 37.40625 4.6875 
z
" id="Century_Schoolbook_L_Roman-68"/>
     </defs>
     <g transform="translate(373.0165 34.37596)scale(0.16 -0.16)">
      <use transform="translate(0 0.343476)scale(0.996264)" xlink:href="#Century_Schoolbook_L_Roman-68"/>
      <use transform="translate(77.50837 0.343476)scale(0.996264)" xlink:href="#Century_Schoolbook_L_Roman-97"/>
      <use transform="translate(132.900047 0.343476)scale(0.996264)" xlink:href="#Century_Schoolbook_L_Roman-116"/>
      <use transform="translate(171.653753 0.343476)scale(0.996264)" xlink:href="#Century_Schoolbook_L_Roman-97"/>
     </g>
    </g>
   </g>
  </g>
 </g>
 <defs>
  <clipPath id="p9a796b32d4">
   <rect height="215.89218" width="355.51396" x="61.96604" y="14.52"/>
  </clipPath>
 </defs>
</svg>
