<?xml version="1.0" encoding="utf-8" standalone="no"?>
<!DOCTYPE svg PUBLIC "-//W3C//DTD SVG 1.1//EN"
  "http://www.w3.org/Graphics/SVG/1.1/DTD/svg11.dtd">
<!-- Created with matplotlib (https://matplotlib.org/) -->
<svg height="288pt" version="1.1" viewBox="0 0 432 288" width="432pt" xmlns="http://www.w3.org/2000/svg" xmlns:xlink="http://www.w3.org/1999/xlink">
 <defs>
  <style type="text/css">
*{stroke-linecap:butt;stroke-linejoin:round;}
  </style>
 </defs>
 <g id="figure_1">
  <g id="patch_1">
   <path d="M 0 288 
L 432 288 
L 432 0 
L 0 0 
z
" style="fill:#ffffff;"/>
  </g>
  <g id="axes_1">
   <g id="patch_2">
    <path d="M 61.96604 230.41218 
L 417.48 230.41218 
L 417.48 14.52 
L 61.96604 14.52 
z
" style="fill:#ffffff;"/>
   </g>
   <g id="matplotlib.axis_1">
    <g id="xtick_1">
     <g id="line2d_1">
      <defs>
       <path d="M 0 0 
L 0 3.5 
" id="m9a6158da19" style="stroke:#000000;stroke-width:0.8;"/>
      </defs>
      <g>
       <use style="stroke:#000000;stroke-width:0.8;" x="133.068832" xlink:href="#m9a6158da19" y="230.41218"/>
      </g>
     </g>
     <g id="text_1">
      <!-- $100$ -->
      <defs>
       <path d="M 26.59375 63.796875 
C 26.59375 65.890625 26.5 66 25.09375 66 
C 21.203125 61.359375 15.296875 59.890625 9.703125 59.6875 
C 9.40625 59.6875 8.90625 59.6875 8.796875 59.5 
C 8.703125 59.296875 8.703125 59.09375 8.703125 57 
C 11.796875 57 17 57.59375 21 59.984375 
L 21 7.296875 
C 21 3.796875 20.796875 2.59375 12.203125 2.59375 
L 9.203125 2.59375 
L 9.203125 0 
C 14 0.09375 19 0.1875 23.796875 0.1875 
C 28.59375 0.1875 33.59375 0.09375 38.40625 0 
L 38.40625 2.59375 
L 35.40625 2.59375 
C 26.796875 2.59375 26.59375 3.6875 26.59375 7.296875 
z
" id="CMR17-49"/>
       <path d="M 42 31.84375 
C 42 37.96875 41.90625 48.421875 37.703125 56.453125 
C 34 63.484375 28.09375 66 22.90625 66 
C 18.09375 66 12 63.78125 8.203125 56.5625 
C 4.203125 49.015625 3.796875 39.671875 3.796875 31.84375 
C 3.796875 26.109375 3.90625 17.375 7 9.734375 
C 11.296875 -0.609375 19 -2 22.90625 -2 
C 27.5 -2 34.5 -0.109375 38.59375 9.4375 
C 41.59375 16.375 42 24.5 42 31.84375 
z
M 22.90625 -0.40625 
C 16.5 -0.40625 12.703125 5.125 11.296875 12.75 
C 10.203125 18.6875 10.203125 27.328125 10.203125 32.953125 
C 10.203125 40.6875 10.203125 47.109375 11.5 53.234375 
C 13.40625 61.78125 19 64.390625 22.90625 64.390625 
C 27 64.390625 32.296875 61.671875 34.203125 53.4375 
C 35.5 47.71875 35.59375 40.984375 35.59375 32.953125 
C 35.59375 26.421875 35.59375 18.375 34.40625 12.453125 
C 32.296875 1.5 26.40625 -0.40625 22.90625 -0.40625 
z
" id="CMR17-48"/>
      </defs>
      <g transform="translate(120.686142 250.75013)scale(0.18 -0.18)">
       <use transform="scale(0.996264)" xlink:href="#CMR17-49"/>
       <use transform="translate(45.690477 0)scale(0.996264)" xlink:href="#CMR17-48"/>
       <use transform="translate(91.380954 0)scale(0.996264)" xlink:href="#CMR17-48"/>
      </g>
     </g>
    </g>
    <g id="xtick_2">
     <g id="line2d_2">
      <g>
       <use style="stroke:#000000;stroke-width:0.8;" x="204.171624" xlink:href="#m9a6158da19" y="230.41218"/>
      </g>
     </g>
     <g id="text_2">
      <!-- $200$ -->
      <defs>
       <path d="M 41.703125 15.46875 
L 39.90625 15.46875 
C 38.90625 8.390625 38.09375 7.1875 37.703125 6.59375 
C 37.203125 5.796875 30 5.796875 28.59375 5.796875 
L 9.40625 5.796875 
C 13 9.6875 20 16.765625 28.5 24.9375 
C 34.59375 30.71875 41.703125 37.5 41.703125 47.390625 
C 41.703125 59.1875 32.296875 66 21.796875 66 
C 10.796875 66 4.09375 56.296875 4.09375 47.296875 
C 4.09375 43.390625 7 42.890625 8.203125 42.890625 
C 9.203125 42.890625 12.203125 43.484375 12.203125 46.984375 
C 12.203125 50.09375 9.59375 51 8.203125 51 
C 7.59375 51 7 50.890625 6.59375 50.6875 
C 8.5 59.1875 14.296875 63.390625 20.40625 63.390625 
C 29.09375 63.390625 34.796875 56.5 34.796875 47.390625 
C 34.796875 38.703125 29.703125 31.21875 24 24.734375 
L 4.09375 2.296875 
L 4.09375 0 
L 39.296875 0 
z
" id="CMR17-50"/>
      </defs>
      <g transform="translate(191.788934 250.75013)scale(0.18 -0.18)">
       <use transform="scale(0.996264)" xlink:href="#CMR17-50"/>
       <use transform="translate(45.690477 0)scale(0.996264)" xlink:href="#CMR17-48"/>
       <use transform="translate(91.380954 0)scale(0.996264)" xlink:href="#CMR17-48"/>
      </g>
     </g>
    </g>
    <g id="xtick_3">
     <g id="line2d_3">
      <g>
       <use style="stroke:#000000;stroke-width:0.8;" x="275.274416" xlink:href="#m9a6158da19" y="230.41218"/>
      </g>
     </g>
     <g id="text_3">
      <!-- $300$ -->
      <defs>
       <path d="M 22.09375 34 
C 31 34 34.90625 26.140625 34.90625 17.09375 
C 34.90625 5.03125 28.5 0.390625 22.703125 0.390625 
C 17.40625 0.390625 8.796875 3.015625 6.09375 10.796875 
C 6.59375 10.59375 7.09375 10.59375 7.59375 10.59375 
C 10 10.59375 11.796875 12.1875 11.796875 14.796875 
C 11.796875 17.6875 9.59375 19 7.59375 19 
C 5.90625 19 3.296875 18.1875 3.296875 14.484375 
C 3.296875 5.234375 12.296875 -2 22.90625 -2 
C 34 -2 42.5 6.75 42.5 16.984375 
C 42.5 26.84375 34.5 34 25 35.09375 
C 32.59375 36.671875 39.90625 43.375 39.90625 52.390625 
C 39.90625 60.25 32 66 23 66 
C 13.90625 66 5.90625 60.34375 5.90625 52.296875 
C 5.90625 48.796875 8.5 48.1875 9.796875 48.1875 
C 11.90625 48.1875 13.703125 49.484375 13.703125 52.09375 
C 13.703125 54.6875 11.90625 56 9.796875 56 
C 9.40625 56 8.90625 56 8.5 55.796875 
C 11.40625 62.484375 19.296875 63.6875 22.796875 63.6875 
C 26.296875 63.6875 32.90625 61.96875 32.90625 52.296875 
C 32.90625 49.484375 32.5 44.546875 29.09375 40.21875 
C 26.09375 36.390625 22.703125 36.1875 19.40625 35.890625 
C 18.90625 35.890625 16.59375 35.6875 16.203125 35.6875 
C 15.5 35.59375 15.09375 35.5 15.09375 34.796875 
C 15.09375 34.09375 15.203125 34 17.203125 34 
z
" id="CMR17-51"/>
      </defs>
      <g transform="translate(262.891726 250.75013)scale(0.18 -0.18)">
       <use transform="scale(0.996264)" xlink:href="#CMR17-51"/>
       <use transform="translate(45.690477 0)scale(0.996264)" xlink:href="#CMR17-48"/>
       <use transform="translate(91.380954 0)scale(0.996264)" xlink:href="#CMR17-48"/>
      </g>
     </g>
    </g>
    <g id="xtick_4">
     <g id="line2d_4">
      <g>
       <use style="stroke:#000000;stroke-width:0.8;" x="346.377208" xlink:href="#m9a6158da19" y="230.41218"/>
      </g>
     </g>
     <g id="text_4">
      <!-- $400$ -->
      <defs>
       <path d="M 33.59375 64.796875 
C 33.59375 66.890625 33.5 67 31.703125 67 
L 2 19.59375 
L 2 17 
L 27.796875 17 
L 27.796875 7.1875 
C 27.796875 3.59375 27.59375 2.59375 20.59375 2.59375 
L 18.703125 2.59375 
L 18.703125 0 
C 21.90625 0.1875 27.296875 0.1875 30.703125 0.1875 
C 34.09375 0.1875 39.5 0.1875 42.703125 0 
L 42.703125 2.59375 
L 40.796875 2.59375 
C 33.796875 2.59375 33.59375 3.59375 33.59375 7.1875 
L 33.59375 17 
L 43.796875 17 
L 43.796875 19.59375 
L 33.59375 19.59375 
z
M 28.09375 58.171875 
L 28.09375 19.59375 
L 4 19.59375 
z
" id="CMR17-52"/>
      </defs>
      <g transform="translate(333.994518 250.75013)scale(0.18 -0.18)">
       <use transform="scale(0.996264)" xlink:href="#CMR17-52"/>
       <use transform="translate(45.690477 0)scale(0.996264)" xlink:href="#CMR17-48"/>
       <use transform="translate(91.380954 0)scale(0.996264)" xlink:href="#CMR17-48"/>
      </g>
     </g>
    </g>
    <g id="text_5">
     <!-- Time Sample -->
     <defs>
      <path d="M 63.296875 72 
L 3.40625 72 
L 1.90625 44.265625 
L 6.203125 44.265625 
C 6.90625 49.25 7.796875 53.046875 8.90625 56.234375 
C 11.5 63.5 16.296875 67.296875 23.09375 67.296875 
C 26.40625 67.296875 27.796875 66.203125 27.796875 63.703125 
L 27.796875 12.265625 
L 27.796875 9.375 
C 27.796875 5.1875 26.90625 4.6875 18.796875 4.6875 
L 16.203125 4.6875 
L 16.203125 0 
L 50.5 0 
L 50.5 4.6875 
L 47.90625 4.6875 
C 39.90625 4.6875 39 5.1875 39 9.375 
L 39 12.265625 
L 39 63.703125 
C 39 66.203125 40.40625 67.296875 43.703125 67.296875 
C 49.796875 67.296875 54.703125 63.90625 57.203125 57.921875 
C 58.703125 54.234375 59.703125 49.953125 60.5 44.265625 
L 64.796875 44.265625 
z
" id="Century_Schoolbook_L_Roman-84"/>
      <path d="M 20.59375 47 
L 1.796875 46 
L 1.796875 41.6875 
L 6.90625 41.6875 
C 10.59375 41.6875 11.203125 40.984375 11.203125 36.625 
L 11.203125 12.40625 
L 11.203125 8.359375 
C 11.203125 4.296875 10.09375 3.59375 3.703125 3.59375 
L 3 3.59375 
L 3 0 
L 28.90625 0 
L 28.90625 3.59375 
L 28.203125 3.59375 
C 21.703125 3.59375 20.59375 4.296875 20.59375 8.359375 
L 20.59375 12.40625 
z
M 15.90625 72 
C 12.703125 72 10.09375 69.390625 10.09375 66.1875 
C 10.09375 63.09375 12.703125 60.390625 15.796875 60.390625 
C 19.09375 60.390625 21.703125 62.984375 21.703125 66.1875 
C 21.703125 69.390625 19.09375 72 15.90625 72 
z
" id="Century_Schoolbook_L_Roman-105"/>
      <path d="M 20.09375 47 
L 2.296875 46 
L 2.296875 41.6875 
L 6.40625 41.6875 
C 10.09375 41.6875 10.703125 40.984375 10.703125 36.625 
L 10.703125 12.40625 
L 10.703125 8.453125 
C 10.703125 4.296875 9.59375 3.59375 3.203125 3.59375 
L 2.796875 3.59375 
L 2.796875 0 
L 28 0 
L 28 3.59375 
L 27.59375 3.59375 
C 21.203125 3.59375 20.09375 4.296875 20.09375 8.453125 
L 20.09375 12.40625 
L 20.09375 26.796875 
C 20.09375 35.3125 25 41.890625 31.5 41.890625 
C 34.09375 41.890625 36.90625 40.5 38.09375 38.59375 
C 39.5 36.703125 40.09375 33.8125 40.09375 29.71875 
L 40.09375 12.265625 
L 40.09375 8.28125 
C 40.09375 4.296875 39 3.59375 32.5 3.59375 
L 32.09375 3.59375 
L 32.09375 0 
L 57.40625 0 
L 57.40625 3.59375 
L 57 3.59375 
C 50.59375 3.59375 49.5 4.296875 49.5 8.28125 
L 49.5 12.265625 
L 49.5 25.53125 
C 49.5 35.5 54 41.890625 61 41.890625 
C 64.296875 41.890625 67 40 68.296875 36.90625 
C 69.203125 34.703125 69.5 32.515625 69.5 28.625 
L 69.5 12.265625 
L 69.5 8.28125 
C 69.5 4.296875 68.40625 3.59375 61.90625 3.59375 
L 61.5 3.59375 
L 61.5 0 
L 86.796875 0 
L 86.796875 3.59375 
L 86.40625 3.59375 
C 80 3.59375 78.90625 4.296875 78.90625 8.375 
L 78.90625 12.265625 
L 78.90625 30.625 
C 78.90625 36.796875 78.296875 38.890625 75.703125 42.296875 
C 72.796875 45.984375 68.703125 48 63.90625 48 
C 57.40625 48 52.59375 44.890625 48.296875 38 
C 46.59375 43.984375 41.203125 48 34.5 48 
C 28.5 48 24 45.09375 20.09375 38.796875 
z
" id="Century_Schoolbook_L_Roman-109"/>
      <path d="M 46.5 22 
C 46.59375 37.25 38.09375 48 25.90625 48 
C 13.09375 48 3.5 36.734375 3.5 21.484375 
C 3.5 7.484375 12.59375 -2 26.09375 -2 
C 35.59375 -2 42.40625 2.6875 46.5 12.1875 
L 43 14.09375 
C 38.90625 6.390625 34.703125 3.390625 28 3.390625 
C 22.90625 3.390625 19.203125 5.59375 16.59375 9.984375 
C 14.796875 12.984375 14 16.484375 14.09375 22 
z
M 14.203125 26.296875 
C 14.203125 29.46875 14.59375 31.71875 15.59375 34.578125 
C 17.703125 40.71875 20.90625 43.6875 25.703125 43.6875 
C 31.796875 43.6875 35.796875 38.265625 35.796875 30.078125 
C 35.796875 27.109375 34.90625 26.296875 31.703125 26.296875 
z
" id="Century_Schoolbook_L_Roman-101"/>
      <path d="M 54.59375 73.09375 
L 50.90625 73.09375 
L 46.90625 67.0625 
C 42.203125 71.59375 35.796875 74 28.703125 74 
C 15.59375 74 6.796875 65.546875 6.796875 52.890625 
C 6.796875 41.859375 12.203125 36.390625 26.90625 32.546875 
L 36.40625 30.125 
C 43.796875 28.203125 44.5 28 46.59375 26.375 
C 49.59375 24.046875 51.203125 20.703125 51.203125 16.765625 
C 51.203125 12.71875 49.703125 9.375 46.703125 6.640625 
C 43.40625 3.703125 40.09375 2.59375 34.59375 2.59375 
C 27.203125 2.59375 21.90625 4.921875 17.203125 10.1875 
C 13 14.9375 10.90625 19.703125 9.40625 27.484375 
L 5.09375 27.484375 
L 5.5 -1.3125 
L 9.40625 -1.3125 
L 13.90625 5.53125 
C 20.59375 0 26.203125 -2 34.90625 -2 
C 49.59375 -2 59 6.640625 59 20.203125 
C 59 26.484375 56.90625 31.84375 53 35.6875 
C 50.296875 38.3125 46.40625 40.046875 38.40625 42.0625 
L 27.703125 44.796875 
C 18.796875 47.125 14.59375 51.078125 14.59375 57.25 
C 14.59375 64.328125 20.296875 69.1875 28.796875 69.1875 
C 35.796875 69.1875 41.5 66.15625 45.5 60.390625 
C 48.40625 56.234375 50.203125 51.984375 51.5 46.828125 
L 55.796875 46.828125 
z
" id="Century_Schoolbook_L_Roman-83"/>
      <path d="M 45.203125 31.96875 
C 45.203125 38.34375 44.09375 41.578125 41.203125 43.984375 
C 37.90625 46.59375 33 48 26.59375 48 
C 15.40625 48 7.09375 42.6875 7.09375 35.40625 
C 7.09375 31.578125 9.40625 29.140625 12.90625 29.140625 
C 16 29.140625 18.296875 31.265625 18.296875 34.296875 
C 18.296875 35.609375 17.796875 37.03125 16.796875 38.4375 
C 16.203125 39.140625 16.09375 39.453125 16.09375 39.75 
C 16.09375 41.875 20.203125 43.6875 25 43.6875 
C 28.09375 43.6875 31.59375 42.6875 33.203125 41.171875 
C 35.09375 39.546875 35.796875 37.125 35.796875 32.578125 
L 35.796875 28.640625 
C 25.296875 26.828125 22.09375 26.015625 17.203125 24.09375 
C 8.59375 20.859375 4.40625 16.125 4.40625 9.75 
C 4.40625 2.59375 10.09375 -2 18.90625 -2 
C 25.796875 -2 32 0.796875 36.296875 5.921875 
C 37.90625 1 40.40625 -1 45.09375 -1 
C 49.59375 -1 54.296875 1.890625 54.296875 4.796875 
C 54.296875 5.5 53.796875 6 53.296875 6 
C 52.90625 6 52.5 5.890625 51.796875 5.59375 
C 50.203125 5 49.796875 4.890625 49 4.890625 
C 46.203125 4.890625 45.203125 6.796875 45.203125 11.796875 
z
M 35.796875 19.6875 
C 35.796875 13.6875 35.5 12.296875 33.796875 9.6875 
C 31.296875 5.796875 26.703125 3.296875 22.40625 3.296875 
C 17.90625 3.296875 14.5 6.59375 14.5 11.09375 
C 14.5 15.296875 16.59375 18.296875 21 20.390625 
C 24.09375 21.796875 28 22.796875 35.796875 24.09375 
z
" id="Century_Schoolbook_L_Roman-97"/>
      <path d="M 20.09375 47 
L 2.796875 46 
L 2.796875 41.6875 
L 6.40625 41.6875 
C 10.09375 41.6875 10.703125 40.96875 10.703125 36.5625 
L 10.703125 -8.359375 
L 10.703125 -12.34375 
C 10.703125 -16.3125 9.59375 -17 3.203125 -17 
L 2.796875 -17 
L 2.796875 -20.609375 
L 28.796875 -20.609375 
L 28.796875 -17 
L 27.703125 -17 
C 21.203125 -17 20.09375 -16.3125 20.09375 -12.34375 
L 20.09375 -8.359375 
L 20.09375 6.171875 
C 23.40625 0.296875 27.203125 -2 33.296875 -2 
C 44.90625 -2 53.5 8.828125 53.5 23.515625 
C 53.5 37.1875 44.90625 48 33.90625 48 
C 27.703125 48 23.59375 45.390625 20.09375 39.390625 
z
M 32.09375 42.59375 
C 39 42.59375 43 35.625 43 23.796875 
C 43 10.765625 38.90625 3.390625 31.796875 3.390625 
C 24.703125 3.390625 20 10.875 20 22.484375 
C 20 35.015625 24.5 42.59375 32.09375 42.59375 
z
" id="Century_Schoolbook_L_Roman-112"/>
      <path d="M 20.40625 74 
L 1.90625 73 
L 1.90625 68.6875 
L 6.796875 68.6875 
C 10.40625 68.6875 11 67.984375 11 63.65625 
L 11 12.34375 
L 11 8.328125 
C 11 4.296875 9.90625 3.59375 3.5 3.59375 
L 2.796875 3.59375 
L 2.796875 0 
L 28.703125 0 
L 28.703125 3.59375 
L 28 3.59375 
C 21.5 3.59375 20.40625 4.296875 20.40625 8.328125 
L 20.40625 12.34375 
z
" id="Century_Schoolbook_L_Roman-108"/>
     </defs>
     <g transform="translate(184.70668 272.77795)scale(0.18 -0.18)">
      <use transform="translate(0 -1.570628)scale(0.996264)" xlink:href="#Century_Schoolbook_L_Roman-84"/>
      <use transform="translate(66.450031 -1.570628)scale(0.996264)" xlink:href="#Century_Schoolbook_L_Roman-105"/>
      <use transform="translate(97.831344 -1.570628)scale(0.996264)" xlink:href="#Century_Schoolbook_L_Roman-109"/>
      <use transform="translate(186.398251 -1.570628)scale(0.996264)" xlink:href="#Century_Schoolbook_L_Roman-101"/>
      <use transform="translate(263.906621 -1.570628)scale(0.996264)" xlink:href="#Century_Schoolbook_L_Roman-83"/>
      <use transform="translate(326.6706 -1.570628)scale(0.996264)" xlink:href="#Century_Schoolbook_L_Roman-97"/>
      <use transform="translate(382.062277 -1.570628)scale(0.996264)" xlink:href="#Century_Schoolbook_L_Roman-109"/>
      <use transform="translate(470.629184 -1.570628)scale(0.996264)" xlink:href="#Century_Schoolbook_L_Roman-112"/>
      <use transform="translate(527.814671 -1.570628)scale(0.996264)" xlink:href="#Century_Schoolbook_L_Roman-108"/>
      <use transform="translate(559.195984 -1.570628)scale(0.996264)" xlink:href="#Century_Schoolbook_L_Roman-101"/>
     </g>
    </g>
   </g>
   <g id="matplotlib.axis_2">
    <g id="ytick_1">
     <g id="line2d_5">
      <defs>
       <path d="M 0 0 
L -3.5 0 
" id="m4df447f449" style="stroke:#000000;stroke-width:0.8;"/>
      </defs>
      <g>
       <use style="stroke:#000000;stroke-width:0.8;" x="61.96604" xlink:href="#m4df447f449" y="230.41218"/>
      </g>
     </g>
     <g id="text_6">
      <!-- $0.0$ -->
      <defs>
       <path d="M 18.40625 4.796875 
C 18.40625 7.6875 16 9.6875 13.59375 9.6875 
C 10.703125 9.6875 8.703125 7.296875 8.703125 4.890625 
C 8.703125 2 11.09375 0 13.5 0 
C 16.40625 0 18.40625 2.390625 18.40625 4.796875 
z
" id="CMMI12-58"/>
      </defs>
      <g transform="translate(33.56 237.081155)scale(0.18 -0.18)">
       <use transform="scale(0.996264)" xlink:href="#CMR17-48"/>
       <use transform="translate(45.690477 0)scale(0.996264)" xlink:href="#CMMI12-58"/>
       <use transform="translate(72.787654 0)scale(0.996264)" xlink:href="#CMR17-48"/>
      </g>
     </g>
    </g>
    <g id="ytick_2">
     <g id="line2d_6">
      <g>
       <use style="stroke:#000000;stroke-width:0.8;" x="61.96604" xlink:href="#m4df447f449" y="180.367632"/>
      </g>
     </g>
     <g id="text_7">
      <!-- $0.5$ -->
      <defs>
       <path d="M 11.40625 58.59375 
C 12.40625 58.1875 16.5 56.890625 20.703125 56.890625 
C 30 56.890625 35.09375 61.890625 38 64.6875 
C 38 65.484375 38 66 37.40625 66 
C 37.296875 66 37.09375 66 36.296875 65.59375 
C 32.796875 64.09375 28.703125 63 23.703125 63 
C 20.703125 63 16.203125 63.359375 11.296875 65.484375 
C 10.203125 66 10 66 9.90625 66 
C 9.40625 66 9.296875 65.890625 9.296875 63.90625 
L 9.296875 34.859375 
C 9.296875 33.015625 9.296875 32.5 10.296875 32.5 
C 10.796875 32.5 11 32.703125 11.5 33.421875 
C 14.703125 38.046875 19.09375 40 24.09375 40 
C 27.59375 40 35.09375 37.734375 35.09375 20.203125 
C 35.09375 16.984375 35.09375 11.1875 32.09375 6.59375 
C 29.59375 2.484375 25.703125 0.390625 21.40625 0.390625 
C 14.796875 0.390625 8.09375 4.984375 6.296875 12.6875 
C 6.703125 12.59375 7.5 12.390625 7.90625 12.390625 
C 9.203125 12.390625 11.703125 13.09375 11.703125 16.1875 
C 11.703125 18.890625 9.796875 20 7.90625 20 
C 5.59375 20 4.09375 18.59375 4.09375 15.796875 
C 4.09375 7.09375 11 -2 21.59375 -2 
C 31.90625 -2 41.703125 6.890625 41.703125 19.796875 
C 41.703125 32.09375 33.90625 41.59375 24.203125 41.59375 
C 19.09375 41.59375 14.796875 39.6875 11.40625 36 
z
" id="CMR17-53"/>
      </defs>
      <g transform="translate(33.56 187.036607)scale(0.18 -0.18)">
       <use transform="scale(0.996264)" xlink:href="#CMR17-48"/>
       <use transform="translate(45.690477 0)scale(0.996264)" xlink:href="#CMMI12-58"/>
       <use transform="translate(72.787654 0)scale(0.996264)" xlink:href="#CMR17-53"/>
      </g>
     </g>
    </g>
    <g id="ytick_3">
     <g id="line2d_7">
      <g>
       <use style="stroke:#000000;stroke-width:0.8;" x="61.96604" xlink:href="#m4df447f449" y="130.323084"/>
      </g>
     </g>
     <g id="text_8">
      <!-- $1.0$ -->
      <g transform="translate(33.56 136.992059)scale(0.18 -0.18)">
       <use transform="scale(0.996264)" xlink:href="#CMR17-49"/>
       <use transform="translate(45.690477 0)scale(0.996264)" xlink:href="#CMMI12-58"/>
       <use transform="translate(72.787654 0)scale(0.996264)" xlink:href="#CMR17-48"/>
      </g>
     </g>
    </g>
    <g id="ytick_4">
     <g id="line2d_8">
      <g>
       <use style="stroke:#000000;stroke-width:0.8;" x="61.96604" xlink:href="#m4df447f449" y="80.278536"/>
      </g>
     </g>
     <g id="text_9">
      <!-- $1.5$ -->
      <g transform="translate(33.56 86.947511)scale(0.18 -0.18)">
       <use transform="scale(0.996264)" xlink:href="#CMR17-49"/>
       <use transform="translate(45.690477 0)scale(0.996264)" xlink:href="#CMMI12-58"/>
       <use transform="translate(72.787654 0)scale(0.996264)" xlink:href="#CMR17-53"/>
      </g>
     </g>
    </g>
    <g id="ytick_5">
     <g id="line2d_9">
      <g>
       <use style="stroke:#000000;stroke-width:0.8;" x="61.96604" xlink:href="#m4df447f449" y="30.233988"/>
      </g>
     </g>
     <g id="text_10">
      <!-- $2.0$ -->
      <g transform="translate(33.56 36.902963)scale(0.18 -0.18)">
       <use transform="scale(0.996264)" xlink:href="#CMR17-50"/>
       <use transform="translate(45.690477 0)scale(0.996264)" xlink:href="#CMMI12-58"/>
       <use transform="translate(72.787654 0)scale(0.996264)" xlink:href="#CMR17-48"/>
      </g>
     </g>
    </g>
    <g id="text_11">
     <!-- Volts -->
     <defs>
      <path d="M 39.296875 15.0625 
L 21 61.765625 
C 20.5 62.96875 20.203125 64.171875 20.203125 64.78125 
C 20.203125 66.59375 21.90625 67.296875 26.40625 67.296875 
L 30.40625 67.296875 
L 30.40625 72 
L -0.796875 72 
L -0.796875 67.296875 
L 1.203125 67.296875 
C 5.703125 67.296875 7 66.28125 8.90625 61.671875 
L 34.203125 -2 
L 38.203125 -2 
L 61.203125 57.453125 
C 64.203125 65.28125 66.40625 67.296875 72.09375 67.296875 
L 73.09375 67.296875 
L 73.09375 72 
L 46 72 
L 46 67.296875 
L 47.90625 67.296875 
C 53 67.296875 56 65.28125 56 62.0625 
C 56 60.65625 55.5 58.359375 54.796875 56.4375 
z
" id="Century_Schoolbook_L_Roman-86"/>
      <path d="M 25.203125 48 
C 13 48 3.40625 37.03125 3.40625 22.890625 
C 3.40625 9.0625 13 -2 25 -2 
C 37 -2 46.59375 9.0625 46.59375 22.984375 
C 46.59375 36.828125 37 48 25.203125 48 
z
M 25.203125 43.6875 
C 32.203125 43.6875 36.09375 36.3125 36.09375 22.984375 
C 36.09375 9.5625 32.203125 2.296875 25 2.296875 
C 17.796875 2.296875 13.90625 9.5625 13.90625 22.890625 
C 13.90625 36.625 17.703125 43.6875 25.203125 43.6875 
z
" id="Century_Schoolbook_L_Roman-111"/>
      <path d="M 19.40625 47 
L 19.40625 66.796875 
L 15.296875 66.796875 
C 14.296875 53.796875 9.90625 47.1875 1.796875 46.59375 
L 1.796875 42.6875 
L 10 42.6875 
L 10 16.578125 
C 10 9.421875 10.203125 6.859375 11.203125 4.5 
C 12.796875 0.296875 16.796875 -2 22.59375 -2 
C 26.5 -2 29.90625 -0.8125 32.203125 1.390625 
C 35.5 4.609375 37.40625 10.03125 37.40625 15.65625 
C 37.40625 16.28125 37.40625 17 37.296875 18.015625 
L 33.09375 18.015625 
C 32.796875 8.796875 30.203125 4.09375 25.296875 4.09375 
C 23 4.09375 21 5.328125 20.296875 7.0625 
C 19.703125 8.5 19.40625 11.0625 19.40625 14.734375 
L 19.40625 42.6875 
L 34.09375 42.6875 
L 34.09375 47 
z
" id="Century_Schoolbook_L_Roman-116"/>
      <path d="M 39 48 
L 35.5 48 
L 32.59375 44.390625 
C 29 46.796875 25.40625 48 20.40625 48 
C 11.59375 48 5.796875 42.1875 5.796875 33.390625 
C 5.796875 29.453125 7.09375 26.125 9.296875 24.109375 
C 11.59375 21.984375 13.90625 20.96875 19.90625 19.5625 
L 25.203125 18.34375 
C 33.09375 16.4375 35.90625 14.40625 35.90625 10.375 
C 35.90625 5.625 31.796875 2.296875 25.90625 2.296875 
C 17.5 2.296875 11.5 7.75 9.09375 17.84375 
L 5.09375 17.84375 
L 5.09375 -1.203125 
L 8.59375 -1.203125 
L 12.09375 2.890625 
C 16.203125 -0.40625 20.796875 -2 25.796875 -2 
C 35.59375 -2 42.09375 4.109375 42.09375 13.5 
C 42.09375 17.9375 40.703125 21.375 37.90625 23.703125 
C 35.5 25.828125 33.5 26.625 27.40625 27.9375 
L 22.40625 29.046875 
C 16.90625 30.265625 16.90625 30.265625 15.09375 31.28125 
C 12.90625 32.28125 11.59375 34.40625 11.59375 36.625 
C 11.59375 40.671875 15.40625 43.59375 20.90625 43.59375 
C 24.703125 43.59375 27.796875 42.28125 30.59375 39.5625 
C 32.796875 37.796875 33.90625 35.796875 35.5 31.1875 
L 39 31.1875 
z
" id="Century_Schoolbook_L_Roman-115"/>
     </defs>
     <g transform="translate(24.87013 143.29176)rotate(-90)scale(0.18 -0.18)">
      <use transform="translate(0 0.343476)scale(0.996264)" xlink:href="#Century_Schoolbook_L_Roman-86"/>
      <use transform="translate(64.45802 0.343476)scale(0.996264)" xlink:href="#Century_Schoolbook_L_Roman-111"/>
      <use transform="translate(114.27122 0.343476)scale(0.996264)" xlink:href="#Century_Schoolbook_L_Roman-108"/>
      <use transform="translate(145.652533 0.343476)scale(0.996264)" xlink:href="#Century_Schoolbook_L_Roman-116"/>
      <use transform="translate(184.40624 0.343476)scale(0.996264)" xlink:href="#Century_Schoolbook_L_Roman-115"/>
     </g>
    </g>
   </g>
   <g id="line2d_10">
    <path clip-path="url(#p129e6cc790)" d="M 61.96604 222.605231 
L 62.678493 226.508705 
L 63.390946 226.508705 
L 64.103398 116.610878 
L 64.815851 185.271998 
L 65.528304 224.506923 
L 66.240757 226.508705 
L 66.95321 197.082511 
L 67.665663 130.323084 
L 68.378115 222.605231 
L 69.090568 224.506923 
L 69.803021 214.698192 
L 70.515474 118.512571 
L 71.227927 159.749278 
L 71.94038 224.506923 
L 72.652832 226.508705 
L 74.077738 132.324866 
L 74.790191 224.506923 
L 75.502644 224.506923 
L 76.215097 218.601667 
L 76.927549 122.516135 
L 77.640002 157.847585 
L 78.352455 224.506923 
L 79.064908 226.508705 
L 79.777361 159.749278 
L 80.489813 124.417827 
L 81.202266 222.605231 
L 81.914719 226.508705 
L 82.627172 224.506923 
L 83.339625 130.323084 
L 84.052078 171.559792 
L 84.76453 224.506923 
L 85.476983 226.508705 
L 86.189436 140.131815 
L 86.901889 126.419609 
L 87.614342 224.506923 
L 88.326795 224.506923 
L 89.039247 226.508705 
L 89.7517 126.419609 
L 90.464153 187.27378 
L 91.176606 224.506923 
L 91.889059 226.508705 
L 92.601512 146.037072 
L 93.313964 134.226559 
L 94.026417 224.506923 
L 94.73887 226.508705 
L 95.451323 226.508705 
L 96.163776 126.419609 
L 96.876228 198.984204 
L 97.588681 224.506923 
L 98.301134 226.508705 
L 99.013587 204.889461 
L 99.72604 130.323084 
L 100.438493 224.506923 
L 101.863398 224.506923 
L 102.575851 116.610878 
L 103.288304 187.27378 
L 104.000757 224.506923 
L 104.71321 226.508705 
L 105.425662 204.889461 
L 106.138115 124.417827 
L 106.850568 224.506923 
L 107.563021 224.506923 
L 108.275474 216.699974 
L 108.987926 116.610878 
L 109.700379 161.75106 
L 110.412832 224.506923 
L 111.125285 226.508705 
L 111.837738 163.652753 
L 112.550191 126.419609 
L 113.262643 222.605231 
L 113.975096 224.506923 
L 114.687549 214.698192 
L 115.400002 118.512571 
L 116.112455 177.465048 
L 116.824908 222.605231 
L 117.53736 226.508705 
L 118.249813 142.133597 
L 118.962266 116.610878 
L 119.674719 222.605231 
L 120.387172 224.506923 
L 121.099625 212.796499 
L 121.812077 122.516135 
L 123.236983 224.506923 
L 123.949436 226.508705 
L 124.661889 122.516135 
L 125.374341 122.516135 
L 126.086794 222.605231 
L 126.799247 226.508705 
L 127.5117 216.699974 
L 128.224153 124.417827 
L 128.936606 189.175472 
L 129.649058 224.506923 
L 130.361511 226.508705 
L 131.073964 136.228341 
L 131.786417 132.324866 
L 132.49887 224.506923 
L 133.211323 226.508705 
L 133.923775 226.508705 
L 134.636228 122.516135 
L 135.348681 200.985986 
L 136.061134 224.506923 
L 136.773587 226.508705 
L 137.48604 187.27378 
L 138.198492 126.419609 
L 138.910945 224.506923 
L 139.623398 224.506923 
L 140.335851 218.601667 
L 141.048304 112.707403 
L 141.760756 183.270216 
L 142.473209 224.506923 
L 143.185662 226.508705 
L 143.898115 202.887679 
L 144.610568 128.321302 
L 145.323021 224.506923 
L 146.035473 224.506923 
L 146.747926 206.891242 
L 147.460379 104.800365 
L 148.172832 183.270216 
L 148.885285 222.605231 
L 149.597738 226.508705 
L 151.022643 126.419609 
L 151.735096 222.605231 
L 152.447549 224.506923 
L 153.160002 206.891242 
L 153.872455 114.609096 
L 155.29736 224.506923 
L 156.009813 226.508705 
L 156.722266 153.844022 
L 157.434719 124.417827 
L 158.147171 222.605231 
L 158.859624 224.506923 
L 159.572077 212.796499 
L 160.28453 126.419609 
L 160.996983 183.270216 
L 161.709436 224.506923 
L 162.421888 226.508705 
L 163.134341 120.514353 
L 163.846794 128.321302 
L 164.559247 222.605231 
L 165.2717 226.508705 
L 165.984153 226.508705 
L 166.696605 132.324866 
L 167.409058 187.27378 
L 168.121511 224.506923 
L 168.833964 226.508705 
L 169.546417 171.559792 
L 170.258869 132.324866 
L 170.971322 224.506923 
L 171.683775 226.508705 
L 172.396228 226.508705 
L 173.108681 124.417827 
L 173.821134 198.984204 
L 174.533586 224.506923 
L 175.246039 226.508705 
L 175.958492 193.078947 
L 176.670945 126.419609 
L 177.383398 224.506923 
L 178.095851 226.508705 
L 178.808303 226.508705 
L 179.520756 118.512571 
L 180.233209 181.368523 
L 180.945662 224.506923 
L 181.658115 226.508705 
L 182.370568 200.985986 
L 183.08302 128.321302 
L 183.795473 224.506923 
L 184.507926 224.506923 
L 185.220379 214.698192 
L 185.932832 106.802146 
L 186.645284 189.175472 
L 187.357737 224.506923 
L 188.07019 226.508705 
L 189.495096 130.323084 
L 190.207549 222.605231 
L 190.920001 226.508705 
L 191.632454 210.794717 
L 192.344907 126.419609 
L 193.769813 224.506923 
L 194.482266 226.508705 
L 195.194718 151.942329 
L 195.907171 122.516135 
L 196.619624 222.605231 
L 197.332077 224.506923 
L 199.469435 224.506923 
L 200.181888 212.796499 
L 200.894341 108.703839 
L 201.606794 197.082511 
L 202.319247 226.508705 
L 203.031699 226.508705 
L 203.744152 185.271998 
L 204.456605 132.324866 
L 205.169058 222.605231 
L 205.881511 226.508705 
L 206.593964 204.889461 
L 207.306416 122.516135 
L 208.018869 185.271998 
L 208.731322 226.508705 
L 209.443775 226.508705 
L 210.156228 157.847585 
L 210.868681 134.226559 
L 211.581133 224.506923 
L 212.293586 226.508705 
L 213.006039 214.698192 
L 213.718492 138.130034 
L 214.430945 175.463266 
L 215.143398 224.506923 
L 215.85585 226.508705 
L 216.568303 142.133597 
L 217.280756 126.419609 
L 217.993209 224.506923 
L 218.705662 224.506923 
L 219.418114 226.508705 
L 220.130567 126.419609 
L 220.84302 187.27378 
L 221.555473 226.508705 
L 222.267926 226.508705 
L 222.980379 142.133597 
L 223.692831 128.321302 
L 224.405284 224.506923 
L 225.117737 224.506923 
L 225.83019 226.508705 
L 226.542643 120.514353 
L 227.255096 189.175472 
L 227.967548 224.506923 
L 228.680001 226.508705 
L 229.392454 153.844022 
L 230.104907 128.321302 
L 230.81736 224.506923 
L 231.529813 224.506923 
L 232.242265 216.699974 
L 232.954718 85.182902 
L 233.667171 206.891242 
L 234.379624 224.506923 
L 235.092077 226.508705 
L 235.804529 159.749278 
L 236.516982 134.226559 
L 237.229435 224.506923 
L 237.941888 226.508705 
L 238.654341 202.887679 
L 239.366794 92.989851 
L 240.079246 202.887679 
L 240.791699 226.508705 
L 241.504152 226.508705 
L 242.216605 159.749278 
L 242.929058 128.321302 
L 243.641511 224.506923 
L 244.353963 226.508705 
L 245.066416 202.887679 
L 245.778869 108.703839 
L 246.491322 183.270216 
L 247.203775 224.506923 
L 247.916227 226.508705 
L 248.62868 151.942329 
L 249.341133 132.324866 
L 250.053586 222.605231 
L 250.766039 226.508705 
L 251.478492 214.698192 
L 252.190944 122.516135 
L 252.903397 185.271998 
L 253.61585 224.506923 
L 254.328303 226.508705 
L 255.040756 130.323084 
L 255.753209 118.512571 
L 256.465661 224.506923 
L 257.178114 224.506923 
L 257.890567 218.601667 
L 258.60302 128.321302 
L 259.315473 183.270216 
L 260.027926 224.506923 
L 260.740378 226.508705 
L 261.452831 149.940547 
L 262.165284 126.419609 
L 262.877737 224.506923 
L 263.59019 224.506923 
L 264.302642 226.508705 
L 265.015095 120.514353 
L 265.727548 195.080729 
L 266.440001 224.506923 
L 267.152454 226.508705 
L 267.864907 142.133597 
L 268.577359 128.321302 
L 269.289812 224.506923 
L 270.002265 226.508705 
L 270.714718 218.601667 
L 271.427171 94.991633 
L 272.139624 214.698192 
L 272.852076 224.506923 
L 273.564529 226.508705 
L 274.276982 171.559792 
L 274.989435 134.226559 
L 275.701888 224.506923 
L 276.414341 226.508705 
L 277.126793 208.792935 
L 277.839246 102.798583 
L 278.551699 204.889461 
L 279.264152 224.506923 
L 279.976605 226.508705 
L 280.689057 165.654535 
L 281.40151 134.226559 
L 282.113963 224.506923 
L 282.826416 226.508705 
L 283.538869 210.794717 
L 284.251322 124.417827 
L 284.963774 183.270216 
L 285.676227 224.506923 
L 286.38868 226.508705 
L 287.101133 153.844022 
L 287.813586 132.324866 
L 288.526039 222.605231 
L 289.238491 226.508705 
L 289.950944 214.698192 
L 290.663397 124.417827 
L 291.37585 183.270216 
L 292.088303 224.506923 
L 292.800756 226.508705 
L 293.513208 149.940547 
L 294.225661 128.321302 
L 294.938114 224.506923 
L 295.650567 224.506923 
L 296.36302 222.605231 
L 297.075472 128.321302 
L 297.787925 187.27378 
L 298.500378 226.508705 
L 299.212831 226.508705 
L 299.925284 134.226559 
L 300.637737 128.321302 
L 301.350189 224.506923 
L 302.062642 224.506923 
L 302.775095 226.508705 
L 303.487548 120.514353 
L 304.200001 198.984204 
L 304.912454 224.506923 
L 305.624906 226.508705 
L 306.337359 138.130034 
L 307.049812 134.226559 
L 307.762265 224.506923 
L 308.474718 224.506923 
L 309.187171 226.508705 
L 309.899623 102.798583 
L 310.612076 216.699974 
L 311.324529 224.506923 
L 312.036982 226.508705 
L 312.749435 155.845804 
L 313.461887 136.228341 
L 314.17434 224.506923 
L 314.886793 226.508705 
L 315.599246 212.796499 
L 316.311699 108.703839 
L 317.024152 200.985986 
L 317.736604 224.506923 
L 318.449057 226.508705 
L 319.16151 173.461484 
L 319.873963 136.228341 
L 320.586416 224.506923 
L 321.298869 226.508705 
L 322.011321 212.796499 
L 322.723774 118.512571 
L 323.436227 191.177254 
L 324.14868 224.506923 
L 324.861133 226.508705 
L 325.573585 151.942329 
L 326.286038 134.226559 
L 326.998491 224.506923 
L 327.710944 226.508705 
L 328.423397 214.698192 
L 329.13585 132.324866 
L 329.848302 173.461484 
L 330.560755 226.508705 
L 331.273208 226.508705 
L 331.985661 153.844022 
L 332.698114 124.417827 
L 333.410567 224.506923 
L 334.123019 224.506923 
L 334.835472 216.699974 
L 335.547925 134.226559 
L 336.260378 185.271998 
L 336.972831 224.506923 
L 337.685284 226.508705 
L 338.397736 126.419609 
L 339.110189 130.323084 
L 339.822642 224.506923 
L 340.535095 224.506923 
L 341.247548 226.508705 
L 341.96 134.226559 
L 342.672453 197.082511 
L 343.384906 224.506923 
L 344.097359 226.508705 
L 344.809812 147.938765 
L 345.522265 136.228341 
L 346.234717 224.506923 
L 346.94717 226.508705 
L 347.659623 218.601667 
L 348.372076 106.802146 
L 349.084529 214.698192 
L 349.796982 224.506923 
L 350.509434 226.508705 
L 351.221887 159.749278 
L 351.93434 136.228341 
L 352.646793 224.506923 
L 353.359246 226.508705 
L 354.071699 214.698192 
L 354.784151 110.705621 
L 355.496604 202.887679 
L 356.209057 224.506923 
L 356.92151 226.508705 
L 357.633963 155.845804 
L 358.346415 136.228341 
L 359.058868 224.506923 
L 359.771321 226.508705 
L 360.483774 204.889461 
L 361.196227 112.707403 
L 361.90868 198.984204 
L 362.621132 226.508705 
L 363.333585 226.508705 
L 364.046038 155.845804 
L 364.758491 134.226559 
L 365.470944 222.605231 
L 366.183397 226.508705 
L 366.895849 204.889461 
L 367.608302 116.610878 
L 368.320755 195.080729 
L 369.033208 224.506923 
L 369.745661 226.508705 
L 370.458114 128.321302 
L 371.170566 128.321302 
L 371.883019 222.605231 
L 372.595472 226.508705 
L 373.307925 200.985986 
L 374.020378 124.417827 
L 374.73283 197.082511 
L 375.445283 224.506923 
L 376.157736 226.508705 
L 376.870189 110.705621 
L 377.582642 128.321302 
L 378.295095 224.506923 
L 379.007547 226.508705 
L 379.72 218.601667 
L 380.432453 116.610878 
L 381.144906 214.698192 
L 381.857359 224.506923 
L 382.569812 226.508705 
L 383.282264 114.609096 
L 383.994717 138.130034 
L 384.70717 224.506923 
L 385.419623 226.508705 
L 386.132076 216.699974 
L 386.844528 114.609096 
L 387.556981 218.601667 
L 388.269434 224.506923 
L 388.981887 226.508705 
L 389.69434 159.749278 
L 390.406793 134.226559 
L 391.119245 224.506923 
L 391.831698 226.508705 
L 392.544151 202.887679 
L 393.256604 94.991633 
L 393.969057 216.699974 
L 394.68151 226.508705 
L 395.393962 226.508705 
L 396.106415 151.942329 
L 396.818868 138.130034 
L 397.531321 224.506923 
L 398.243774 226.508705 
L 398.956227 204.889461 
L 399.668679 114.609096 
L 400.381132 197.082511 
L 401.093585 226.508705 
L 401.806038 226.508705 
L 402.518491 157.847585 
L 403.230943 132.324866 
L 403.943396 222.605231 
L 404.655849 226.508705 
L 405.368302 200.985986 
L 406.080755 124.417827 
L 406.793208 187.27378 
L 407.50566 226.508705 
L 408.218113 226.508705 
L 408.930566 130.323084 
L 409.643019 130.323084 
L 410.355472 224.506923 
L 411.067925 226.508705 
L 411.780377 208.792935 
L 412.49283 130.323084 
L 413.205283 195.080729 
L 413.917736 224.506923 
L 414.630189 226.508705 
L 415.342642 114.609096 
L 416.055094 128.321302 
L 416.767547 224.506923 
L 417.48 226.508705 
L 417.48 226.508705 
" style="fill:none;stroke:#e41a1c;stroke-linecap:square;stroke-width:2;"/>
   </g>
   <g id="patch_3">
    <path d="M 61.96604 230.41218 
L 61.96604 14.52 
" style="fill:none;stroke:#000000;stroke-linecap:square;stroke-linejoin:miter;stroke-width:0.8;"/>
   </g>
   <g id="patch_4">
    <path d="M 417.48 230.41218 
L 417.48 14.52 
" style="fill:none;"/>
   </g>
   <g id="patch_5">
    <path d="M 61.96604 230.41218 
L 417.48 230.41218 
" style="fill:none;stroke:#000000;stroke-linecap:square;stroke-linejoin:miter;stroke-width:0.8;"/>
   </g>
   <g id="patch_6">
    <path d="M 61.96604 14.52 
L 417.48 14.52 
" style="fill:none;"/>
   </g>
   <g id="legend_1">
    <g id="patch_7">
     <path d="M 319.57628 44.05585 
L 412.68 44.05585 
Q 415.88 44.05585 415.88 40.85585 
L 415.88 19.32 
Q 415.88 16.12 412.68 16.12 
L 319.57628 16.12 
Q 316.37628 16.12 316.37628 19.32 
L 316.37628 40.85585 
Q 316.37628 44.05585 319.57628 44.05585 
z
" style="fill:#ffffff;stroke:#000000;stroke-linejoin:miter;"/>
    </g>
    <g id="line2d_11">
     <path d="M 322.77628 28.77596 
L 354.77628 28.77596 
" style="fill:none;stroke:#e41a1c;stroke-linecap:square;stroke-width:2;"/>
    </g>
    <g id="line2d_12"/>
    <g id="text_12">
     <!-- Value -->
     <defs>
      <path d="M 41.203125 -0.703125 
L 59.40625 0 
L 59.40625 4.296875 
L 56.90625 4.296875 
C 51.40625 4.296875 50.59375 5.203125 50.59375 11.671875 
L 50.59375 47 
L 31.796875 46 
L 31.796875 41.6875 
L 36.90625 41.6875 
C 40.59375 41.6875 41.203125 40.96875 41.203125 36.5625 
L 41.203125 23.921875 
C 41.203125 18.0625 40.59375 14.671875 39.09375 11.28125 
C 37 6.765625 33 4.09375 28.09375 4.09375 
C 25 4.09375 22.40625 5.21875 21.09375 7.28125 
C 19.796875 9.234375 19.59375 10.25 19.59375 15.90625 
L 19.59375 47 
L 2.09375 46 
L 2.09375 41.6875 
L 5.90625 41.6875 
C 9.59375 41.6875 10.203125 40.96875 10.203125 36.5625 
L 10.203125 14.359375 
C 10.203125 9.125 10.59375 6.765625 12.09375 4.40625 
C 14.796875 0.296875 19.59375 -2 25.59375 -2 
C 32.203125 -2 36.796875 0.6875 41.203125 7.171875 
z
" id="Century_Schoolbook_L_Roman-117"/>
     </defs>
     <g transform="translate(367.57628 34.37596)scale(0.16 -0.16)">
      <use transform="translate(0 0.343476)scale(0.996264)" xlink:href="#Century_Schoolbook_L_Roman-86"/>
      <use transform="translate(63.461923 0.343476)scale(0.996264)" xlink:href="#Century_Schoolbook_L_Roman-97"/>
      <use transform="translate(118.8536 0.343476)scale(0.996264)" xlink:href="#Century_Schoolbook_L_Roman-108"/>
      <use transform="translate(150.234913 0.343476)scale(0.996264)" xlink:href="#Century_Schoolbook_L_Roman-117"/>
      <use transform="translate(211.106544 0.343476)scale(0.996264)" xlink:href="#Century_Schoolbook_L_Roman-101"/>
     </g>
    </g>
   </g>
  </g>
 </g>
 <defs>
  <clipPath id="p129e6cc790">
   <rect height="215.89218" width="355.51396" x="61.96604" y="14.52"/>
  </clipPath>
 </defs>
</svg>
