<?xml version="1.0" encoding="utf-8" standalone="no"?>
<!DOCTYPE svg PUBLIC "-//W3C//DTD SVG 1.1//EN"
  "http://www.w3.org/Graphics/SVG/1.1/DTD/svg11.dtd">
<!-- Created with matplotlib (https://matplotlib.org/) -->
<svg height="288pt" version="1.1" viewBox="0 0 432 288" width="432pt" xmlns="http://www.w3.org/2000/svg" xmlns:xlink="http://www.w3.org/1999/xlink">
 <defs>
  <style type="text/css">
*{stroke-linecap:butt;stroke-linejoin:round;}
  </style>
 </defs>
 <g id="figure_1">
  <g id="patch_1">
   <path d="M 0 288 
L 432 288 
L 432 0 
L 0 0 
z
" style="fill:#ffffff;"/>
  </g>
  <g id="axes_1">
   <g id="patch_2">
    <path d="M 61.96604 230.41218 
L 417.48 230.41218 
L 417.48 14.52 
L 61.96604 14.52 
z
" style="fill:#ffffff;"/>
   </g>
   <g id="matplotlib.axis_1">
    <g id="xtick_1">
     <g id="line2d_1">
      <defs>
       <path d="M 0 0 
L 0 3.5 
" id="m925db94191" style="stroke:#000000;stroke-width:0.8;"/>
      </defs>
      <g>
       <use style="stroke:#000000;stroke-width:0.8;" x="133.140006" xlink:href="#m925db94191" y="230.41218"/>
      </g>
     </g>
     <g id="text_1">
      <!-- $200$ -->
      <defs>
       <path d="M 41.703125 15.46875 
L 39.90625 15.46875 
C 38.90625 8.390625 38.09375 7.1875 37.703125 6.59375 
C 37.203125 5.796875 30 5.796875 28.59375 5.796875 
L 9.40625 5.796875 
C 13 9.6875 20 16.765625 28.5 24.9375 
C 34.59375 30.71875 41.703125 37.5 41.703125 47.390625 
C 41.703125 59.1875 32.296875 66 21.796875 66 
C 10.796875 66 4.09375 56.296875 4.09375 47.296875 
C 4.09375 43.390625 7 42.890625 8.203125 42.890625 
C 9.203125 42.890625 12.203125 43.484375 12.203125 46.984375 
C 12.203125 50.09375 9.59375 51 8.203125 51 
C 7.59375 51 7 50.890625 6.59375 50.6875 
C 8.5 59.1875 14.296875 63.390625 20.40625 63.390625 
C 29.09375 63.390625 34.796875 56.5 34.796875 47.390625 
C 34.796875 38.703125 29.703125 31.21875 24 24.734375 
L 4.09375 2.296875 
L 4.09375 0 
L 39.296875 0 
z
" id="CMR17-50"/>
       <path d="M 42 31.84375 
C 42 37.96875 41.90625 48.421875 37.703125 56.453125 
C 34 63.484375 28.09375 66 22.90625 66 
C 18.09375 66 12 63.78125 8.203125 56.5625 
C 4.203125 49.015625 3.796875 39.671875 3.796875 31.84375 
C 3.796875 26.109375 3.90625 17.375 7 9.734375 
C 11.296875 -0.609375 19 -2 22.90625 -2 
C 27.5 -2 34.5 -0.109375 38.59375 9.4375 
C 41.59375 16.375 42 24.5 42 31.84375 
z
M 22.90625 -0.40625 
C 16.5 -0.40625 12.703125 5.125 11.296875 12.75 
C 10.203125 18.6875 10.203125 27.328125 10.203125 32.953125 
C 10.203125 40.6875 10.203125 47.109375 11.5 53.234375 
C 13.40625 61.78125 19 64.390625 22.90625 64.390625 
C 27 64.390625 32.296875 61.671875 34.203125 53.4375 
C 35.5 47.71875 35.59375 40.984375 35.59375 32.953125 
C 35.59375 26.421875 35.59375 18.375 34.40625 12.453125 
C 32.296875 1.5 26.40625 -0.40625 22.90625 -0.40625 
z
" id="CMR17-48"/>
      </defs>
      <g transform="translate(120.757316 250.75013)scale(0.18 -0.18)">
       <use transform="scale(0.996264)" xlink:href="#CMR17-50"/>
       <use transform="translate(45.690477 0)scale(0.996264)" xlink:href="#CMR17-48"/>
       <use transform="translate(91.380954 0)scale(0.996264)" xlink:href="#CMR17-48"/>
      </g>
     </g>
    </g>
    <g id="xtick_2">
     <g id="line2d_2">
      <g>
       <use style="stroke:#000000;stroke-width:0.8;" x="204.313972" xlink:href="#m925db94191" y="230.41218"/>
      </g>
     </g>
     <g id="text_2">
      <!-- $400$ -->
      <defs>
       <path d="M 33.59375 64.796875 
C 33.59375 66.890625 33.5 67 31.703125 67 
L 2 19.59375 
L 2 17 
L 27.796875 17 
L 27.796875 7.1875 
C 27.796875 3.59375 27.59375 2.59375 20.59375 2.59375 
L 18.703125 2.59375 
L 18.703125 0 
C 21.90625 0.1875 27.296875 0.1875 30.703125 0.1875 
C 34.09375 0.1875 39.5 0.1875 42.703125 0 
L 42.703125 2.59375 
L 40.796875 2.59375 
C 33.796875 2.59375 33.59375 3.59375 33.59375 7.1875 
L 33.59375 17 
L 43.796875 17 
L 43.796875 19.59375 
L 33.59375 19.59375 
z
M 28.09375 58.171875 
L 28.09375 19.59375 
L 4 19.59375 
z
" id="CMR17-52"/>
      </defs>
      <g transform="translate(191.931282 250.75013)scale(0.18 -0.18)">
       <use transform="scale(0.996264)" xlink:href="#CMR17-52"/>
       <use transform="translate(45.690477 0)scale(0.996264)" xlink:href="#CMR17-48"/>
       <use transform="translate(91.380954 0)scale(0.996264)" xlink:href="#CMR17-48"/>
      </g>
     </g>
    </g>
    <g id="xtick_3">
     <g id="line2d_3">
      <g>
       <use style="stroke:#000000;stroke-width:0.8;" x="275.487938" xlink:href="#m925db94191" y="230.41218"/>
      </g>
     </g>
     <g id="text_3">
      <!-- $600$ -->
      <defs>
       <path d="M 10.59375 34.34375 
C 10.59375 58 21.796875 63.6875 28.296875 63.6875 
C 30.40625 63.6875 35.5 63.265625 37.5 59.09375 
C 35.90625 59.09375 32.90625 59.09375 32.90625 55.59375 
C 32.90625 52.890625 35.09375 52 36.5 52 
C 37.40625 52 40.09375 52.390625 40.09375 55.796875 
C 40.09375 62.296875 35.09375 66 28.203125 66 
C 16.296875 66 3.796875 53.296875 3.796875 31.421875 
C 3.796875 4.015625 15.09375 -2 23.09375 -2 
C 32.796875 -2 42 6.734375 42 20.234375 
C 42 32.828125 33.90625 42 23.703125 42 
C 17.59375 42 13.09375 37.96875 10.59375 30.921875 
z
M 23.09375 0.390625 
C 10.796875 0.390625 10.796875 18.9375 10.796875 22.65625 
C 10.796875 29.90625 14.203125 40.390625 23.5 40.390625 
C 25.203125 40.390625 30.09375 40.390625 33.40625 33.4375 
C 35.203125 29.515625 35.203125 25.375 35.203125 20.34375 
C 35.203125 14.90625 35.203125 10.875 33.09375 6.84375 
C 30.90625 2.703125 27.703125 0.390625 23.09375 0.390625 
z
" id="CMR17-54"/>
      </defs>
      <g transform="translate(263.105248 250.75013)scale(0.18 -0.18)">
       <use transform="scale(0.996264)" xlink:href="#CMR17-54"/>
       <use transform="translate(45.690477 0)scale(0.996264)" xlink:href="#CMR17-48"/>
       <use transform="translate(91.380954 0)scale(0.996264)" xlink:href="#CMR17-48"/>
      </g>
     </g>
    </g>
    <g id="xtick_4">
     <g id="line2d_4">
      <g>
       <use style="stroke:#000000;stroke-width:0.8;" x="346.661904" xlink:href="#m925db94191" y="230.41218"/>
      </g>
     </g>
     <g id="text_4">
      <!-- $800$ -->
      <defs>
       <path d="M 27.203125 35.765625 
C 33.5 38.96875 39.90625 43.796875 39.90625 51.53125 
C 39.90625 60.6875 31.09375 66 23 66 
C 13.90625 66 5.90625 59.375 5.90625 50.234375 
C 5.90625 47.71875 6.5 43.390625 10.40625 39.578125 
C 11.40625 38.578125 15.59375 35.5625 18.296875 33.65625 
C 13.796875 31.34375 3.296875 25.8125 3.296875 14.765625 
C 3.296875 4.40625 13.09375 -2 22.796875 -2 
C 33.5 -2 42.5 5.71875 42.5 15.96875 
C 42.5 25.109375 36.40625 29.328125 32.40625 32.046875 
z
M 14.09375 44.609375 
C 13.296875 45.109375 9.296875 48.21875 9.296875 52.9375 
C 9.296875 59.078125 15.59375 63.6875 22.796875 63.6875 
C 30.703125 63.6875 36.5 58.0625 36.5 51.53125 
C 36.5 42.1875 26.09375 36.859375 25.59375 36.859375 
C 25.5 36.859375 25.40625 36.859375 24.59375 37.46875 
z
M 32.5 24 
C 34 22.90625 38.796875 19.578125 38.796875 13.453125 
C 38.796875 6.015625 31.40625 0.390625 23 0.390625 
C 13.90625 0.390625 7 6.921875 7 14.859375 
C 7 22.796875 13.09375 29.4375 20 32.546875 
z
" id="CMR17-56"/>
      </defs>
      <g transform="translate(334.279214 250.75013)scale(0.18 -0.18)">
       <use transform="scale(0.996264)" xlink:href="#CMR17-56"/>
       <use transform="translate(45.690477 0)scale(0.996264)" xlink:href="#CMR17-48"/>
       <use transform="translate(91.380954 0)scale(0.996264)" xlink:href="#CMR17-48"/>
      </g>
     </g>
    </g>
    <g id="text_5">
     <!-- Time Sample -->
     <defs>
      <path d="M 63.296875 72 
L 3.40625 72 
L 1.90625 44.265625 
L 6.203125 44.265625 
C 6.90625 49.25 7.796875 53.046875 8.90625 56.234375 
C 11.5 63.5 16.296875 67.296875 23.09375 67.296875 
C 26.40625 67.296875 27.796875 66.203125 27.796875 63.703125 
L 27.796875 12.265625 
L 27.796875 9.375 
C 27.796875 5.1875 26.90625 4.6875 18.796875 4.6875 
L 16.203125 4.6875 
L 16.203125 0 
L 50.5 0 
L 50.5 4.6875 
L 47.90625 4.6875 
C 39.90625 4.6875 39 5.1875 39 9.375 
L 39 12.265625 
L 39 63.703125 
C 39 66.203125 40.40625 67.296875 43.703125 67.296875 
C 49.796875 67.296875 54.703125 63.90625 57.203125 57.921875 
C 58.703125 54.234375 59.703125 49.953125 60.5 44.265625 
L 64.796875 44.265625 
z
" id="Century_Schoolbook_L_Roman-84"/>
      <path d="M 20.59375 47 
L 1.796875 46 
L 1.796875 41.6875 
L 6.90625 41.6875 
C 10.59375 41.6875 11.203125 40.984375 11.203125 36.625 
L 11.203125 12.40625 
L 11.203125 8.359375 
C 11.203125 4.296875 10.09375 3.59375 3.703125 3.59375 
L 3 3.59375 
L 3 0 
L 28.90625 0 
L 28.90625 3.59375 
L 28.203125 3.59375 
C 21.703125 3.59375 20.59375 4.296875 20.59375 8.359375 
L 20.59375 12.40625 
z
M 15.90625 72 
C 12.703125 72 10.09375 69.390625 10.09375 66.1875 
C 10.09375 63.09375 12.703125 60.390625 15.796875 60.390625 
C 19.09375 60.390625 21.703125 62.984375 21.703125 66.1875 
C 21.703125 69.390625 19.09375 72 15.90625 72 
z
" id="Century_Schoolbook_L_Roman-105"/>
      <path d="M 20.09375 47 
L 2.296875 46 
L 2.296875 41.6875 
L 6.40625 41.6875 
C 10.09375 41.6875 10.703125 40.984375 10.703125 36.625 
L 10.703125 12.40625 
L 10.703125 8.453125 
C 10.703125 4.296875 9.59375 3.59375 3.203125 3.59375 
L 2.796875 3.59375 
L 2.796875 0 
L 28 0 
L 28 3.59375 
L 27.59375 3.59375 
C 21.203125 3.59375 20.09375 4.296875 20.09375 8.453125 
L 20.09375 12.40625 
L 20.09375 26.796875 
C 20.09375 35.3125 25 41.890625 31.5 41.890625 
C 34.09375 41.890625 36.90625 40.5 38.09375 38.59375 
C 39.5 36.703125 40.09375 33.8125 40.09375 29.71875 
L 40.09375 12.265625 
L 40.09375 8.28125 
C 40.09375 4.296875 39 3.59375 32.5 3.59375 
L 32.09375 3.59375 
L 32.09375 0 
L 57.40625 0 
L 57.40625 3.59375 
L 57 3.59375 
C 50.59375 3.59375 49.5 4.296875 49.5 8.28125 
L 49.5 12.265625 
L 49.5 25.53125 
C 49.5 35.5 54 41.890625 61 41.890625 
C 64.296875 41.890625 67 40 68.296875 36.90625 
C 69.203125 34.703125 69.5 32.515625 69.5 28.625 
L 69.5 12.265625 
L 69.5 8.28125 
C 69.5 4.296875 68.40625 3.59375 61.90625 3.59375 
L 61.5 3.59375 
L 61.5 0 
L 86.796875 0 
L 86.796875 3.59375 
L 86.40625 3.59375 
C 80 3.59375 78.90625 4.296875 78.90625 8.375 
L 78.90625 12.265625 
L 78.90625 30.625 
C 78.90625 36.796875 78.296875 38.890625 75.703125 42.296875 
C 72.796875 45.984375 68.703125 48 63.90625 48 
C 57.40625 48 52.59375 44.890625 48.296875 38 
C 46.59375 43.984375 41.203125 48 34.5 48 
C 28.5 48 24 45.09375 20.09375 38.796875 
z
" id="Century_Schoolbook_L_Roman-109"/>
      <path d="M 46.5 22 
C 46.59375 37.25 38.09375 48 25.90625 48 
C 13.09375 48 3.5 36.734375 3.5 21.484375 
C 3.5 7.484375 12.59375 -2 26.09375 -2 
C 35.59375 -2 42.40625 2.6875 46.5 12.1875 
L 43 14.09375 
C 38.90625 6.390625 34.703125 3.390625 28 3.390625 
C 22.90625 3.390625 19.203125 5.59375 16.59375 9.984375 
C 14.796875 12.984375 14 16.484375 14.09375 22 
z
M 14.203125 26.296875 
C 14.203125 29.46875 14.59375 31.71875 15.59375 34.578125 
C 17.703125 40.71875 20.90625 43.6875 25.703125 43.6875 
C 31.796875 43.6875 35.796875 38.265625 35.796875 30.078125 
C 35.796875 27.109375 34.90625 26.296875 31.703125 26.296875 
z
" id="Century_Schoolbook_L_Roman-101"/>
      <path d="M 54.59375 73.09375 
L 50.90625 73.09375 
L 46.90625 67.0625 
C 42.203125 71.59375 35.796875 74 28.703125 74 
C 15.59375 74 6.796875 65.546875 6.796875 52.890625 
C 6.796875 41.859375 12.203125 36.390625 26.90625 32.546875 
L 36.40625 30.125 
C 43.796875 28.203125 44.5 28 46.59375 26.375 
C 49.59375 24.046875 51.203125 20.703125 51.203125 16.765625 
C 51.203125 12.71875 49.703125 9.375 46.703125 6.640625 
C 43.40625 3.703125 40.09375 2.59375 34.59375 2.59375 
C 27.203125 2.59375 21.90625 4.921875 17.203125 10.1875 
C 13 14.9375 10.90625 19.703125 9.40625 27.484375 
L 5.09375 27.484375 
L 5.5 -1.3125 
L 9.40625 -1.3125 
L 13.90625 5.53125 
C 20.59375 0 26.203125 -2 34.90625 -2 
C 49.59375 -2 59 6.640625 59 20.203125 
C 59 26.484375 56.90625 31.84375 53 35.6875 
C 50.296875 38.3125 46.40625 40.046875 38.40625 42.0625 
L 27.703125 44.796875 
C 18.796875 47.125 14.59375 51.078125 14.59375 57.25 
C 14.59375 64.328125 20.296875 69.1875 28.796875 69.1875 
C 35.796875 69.1875 41.5 66.15625 45.5 60.390625 
C 48.40625 56.234375 50.203125 51.984375 51.5 46.828125 
L 55.796875 46.828125 
z
" id="Century_Schoolbook_L_Roman-83"/>
      <path d="M 45.203125 31.96875 
C 45.203125 38.34375 44.09375 41.578125 41.203125 43.984375 
C 37.90625 46.59375 33 48 26.59375 48 
C 15.40625 48 7.09375 42.6875 7.09375 35.40625 
C 7.09375 31.578125 9.40625 29.140625 12.90625 29.140625 
C 16 29.140625 18.296875 31.265625 18.296875 34.296875 
C 18.296875 35.609375 17.796875 37.03125 16.796875 38.4375 
C 16.203125 39.140625 16.09375 39.453125 16.09375 39.75 
C 16.09375 41.875 20.203125 43.6875 25 43.6875 
C 28.09375 43.6875 31.59375 42.6875 33.203125 41.171875 
C 35.09375 39.546875 35.796875 37.125 35.796875 32.578125 
L 35.796875 28.640625 
C 25.296875 26.828125 22.09375 26.015625 17.203125 24.09375 
C 8.59375 20.859375 4.40625 16.125 4.40625 9.75 
C 4.40625 2.59375 10.09375 -2 18.90625 -2 
C 25.796875 -2 32 0.796875 36.296875 5.921875 
C 37.90625 1 40.40625 -1 45.09375 -1 
C 49.59375 -1 54.296875 1.890625 54.296875 4.796875 
C 54.296875 5.5 53.796875 6 53.296875 6 
C 52.90625 6 52.5 5.890625 51.796875 5.59375 
C 50.203125 5 49.796875 4.890625 49 4.890625 
C 46.203125 4.890625 45.203125 6.796875 45.203125 11.796875 
z
M 35.796875 19.6875 
C 35.796875 13.6875 35.5 12.296875 33.796875 9.6875 
C 31.296875 5.796875 26.703125 3.296875 22.40625 3.296875 
C 17.90625 3.296875 14.5 6.59375 14.5 11.09375 
C 14.5 15.296875 16.59375 18.296875 21 20.390625 
C 24.09375 21.796875 28 22.796875 35.796875 24.09375 
z
" id="Century_Schoolbook_L_Roman-97"/>
      <path d="M 20.09375 47 
L 2.796875 46 
L 2.796875 41.6875 
L 6.40625 41.6875 
C 10.09375 41.6875 10.703125 40.96875 10.703125 36.5625 
L 10.703125 -8.359375 
L 10.703125 -12.34375 
C 10.703125 -16.3125 9.59375 -17 3.203125 -17 
L 2.796875 -17 
L 2.796875 -20.609375 
L 28.796875 -20.609375 
L 28.796875 -17 
L 27.703125 -17 
C 21.203125 -17 20.09375 -16.3125 20.09375 -12.34375 
L 20.09375 -8.359375 
L 20.09375 6.171875 
C 23.40625 0.296875 27.203125 -2 33.296875 -2 
C 44.90625 -2 53.5 8.828125 53.5 23.515625 
C 53.5 37.1875 44.90625 48 33.90625 48 
C 27.703125 48 23.59375 45.390625 20.09375 39.390625 
z
M 32.09375 42.59375 
C 39 42.59375 43 35.625 43 23.796875 
C 43 10.765625 38.90625 3.390625 31.796875 3.390625 
C 24.703125 3.390625 20 10.875 20 22.484375 
C 20 35.015625 24.5 42.59375 32.09375 42.59375 
z
" id="Century_Schoolbook_L_Roman-112"/>
      <path d="M 20.40625 74 
L 1.90625 73 
L 1.90625 68.6875 
L 6.796875 68.6875 
C 10.40625 68.6875 11 67.984375 11 63.65625 
L 11 12.34375 
L 11 8.328125 
C 11 4.296875 9.90625 3.59375 3.5 3.59375 
L 2.796875 3.59375 
L 2.796875 0 
L 28.703125 0 
L 28.703125 3.59375 
L 28 3.59375 
C 21.5 3.59375 20.40625 4.296875 20.40625 8.328125 
L 20.40625 12.34375 
z
" id="Century_Schoolbook_L_Roman-108"/>
     </defs>
     <g transform="translate(184.70668 272.77795)scale(0.18 -0.18)">
      <use transform="translate(0 -1.570628)scale(0.996264)" xlink:href="#Century_Schoolbook_L_Roman-84"/>
      <use transform="translate(66.450031 -1.570628)scale(0.996264)" xlink:href="#Century_Schoolbook_L_Roman-105"/>
      <use transform="translate(97.831344 -1.570628)scale(0.996264)" xlink:href="#Century_Schoolbook_L_Roman-109"/>
      <use transform="translate(186.398251 -1.570628)scale(0.996264)" xlink:href="#Century_Schoolbook_L_Roman-101"/>
      <use transform="translate(263.906621 -1.570628)scale(0.996264)" xlink:href="#Century_Schoolbook_L_Roman-83"/>
      <use transform="translate(326.6706 -1.570628)scale(0.996264)" xlink:href="#Century_Schoolbook_L_Roman-97"/>
      <use transform="translate(382.062277 -1.570628)scale(0.996264)" xlink:href="#Century_Schoolbook_L_Roman-109"/>
      <use transform="translate(470.629184 -1.570628)scale(0.996264)" xlink:href="#Century_Schoolbook_L_Roman-112"/>
      <use transform="translate(527.814671 -1.570628)scale(0.996264)" xlink:href="#Century_Schoolbook_L_Roman-108"/>
      <use transform="translate(559.195984 -1.570628)scale(0.996264)" xlink:href="#Century_Schoolbook_L_Roman-101"/>
     </g>
    </g>
   </g>
   <g id="matplotlib.axis_2">
    <g id="ytick_1">
     <g id="line2d_5">
      <defs>
       <path d="M 0 0 
L -3.5 0 
" id="m2244abe534" style="stroke:#000000;stroke-width:0.8;"/>
      </defs>
      <g>
       <use style="stroke:#000000;stroke-width:0.8;" x="61.96604" xlink:href="#m2244abe534" y="230.41218"/>
      </g>
     </g>
     <g id="text_6">
      <!-- $2.2$ -->
      <defs>
       <path d="M 18.40625 4.796875 
C 18.40625 7.6875 16 9.6875 13.59375 9.6875 
C 10.703125 9.6875 8.703125 7.296875 8.703125 4.890625 
C 8.703125 2 11.09375 0 13.5 0 
C 16.40625 0 18.40625 2.390625 18.40625 4.796875 
z
" id="CMMI12-58"/>
      </defs>
      <g transform="translate(33.56 237.081155)scale(0.18 -0.18)">
       <use transform="scale(0.996264)" xlink:href="#CMR17-50"/>
       <use transform="translate(45.690477 0)scale(0.996264)" xlink:href="#CMMI12-58"/>
       <use transform="translate(72.787654 0)scale(0.996264)" xlink:href="#CMR17-50"/>
      </g>
     </g>
    </g>
    <g id="ytick_2">
     <g id="line2d_6">
      <g>
       <use style="stroke:#000000;stroke-width:0.8;" x="61.96604" xlink:href="#m2244abe534" y="173.673105"/>
      </g>
     </g>
     <g id="text_7">
      <!-- $2.4$ -->
      <g transform="translate(33.56 180.34208)scale(0.18 -0.18)">
       <use transform="scale(0.996264)" xlink:href="#CMR17-50"/>
       <use transform="translate(45.690477 0)scale(0.996264)" xlink:href="#CMMI12-58"/>
       <use transform="translate(72.787654 0)scale(0.996264)" xlink:href="#CMR17-52"/>
      </g>
     </g>
    </g>
    <g id="ytick_3">
     <g id="line2d_7">
      <g>
       <use style="stroke:#000000;stroke-width:0.8;" x="61.96604" xlink:href="#m2244abe534" y="116.93403"/>
      </g>
     </g>
     <g id="text_8">
      <!-- $2.6$ -->
      <g transform="translate(33.56 123.603005)scale(0.18 -0.18)">
       <use transform="scale(0.996264)" xlink:href="#CMR17-50"/>
       <use transform="translate(45.690477 0)scale(0.996264)" xlink:href="#CMMI12-58"/>
       <use transform="translate(72.787654 0)scale(0.996264)" xlink:href="#CMR17-54"/>
      </g>
     </g>
    </g>
    <g id="ytick_4">
     <g id="line2d_8">
      <g>
       <use style="stroke:#000000;stroke-width:0.8;" x="61.96604" xlink:href="#m2244abe534" y="60.194955"/>
      </g>
     </g>
     <g id="text_9">
      <!-- $2.8$ -->
      <g transform="translate(33.56 66.86393)scale(0.18 -0.18)">
       <use transform="scale(0.996264)" xlink:href="#CMR17-50"/>
       <use transform="translate(45.690477 0)scale(0.996264)" xlink:href="#CMMI12-58"/>
       <use transform="translate(72.787654 0)scale(0.996264)" xlink:href="#CMR17-56"/>
      </g>
     </g>
    </g>
    <g id="text_10">
     <!-- Volts -->
     <defs>
      <path d="M 39.296875 15.0625 
L 21 61.765625 
C 20.5 62.96875 20.203125 64.171875 20.203125 64.78125 
C 20.203125 66.59375 21.90625 67.296875 26.40625 67.296875 
L 30.40625 67.296875 
L 30.40625 72 
L -0.796875 72 
L -0.796875 67.296875 
L 1.203125 67.296875 
C 5.703125 67.296875 7 66.28125 8.90625 61.671875 
L 34.203125 -2 
L 38.203125 -2 
L 61.203125 57.453125 
C 64.203125 65.28125 66.40625 67.296875 72.09375 67.296875 
L 73.09375 67.296875 
L 73.09375 72 
L 46 72 
L 46 67.296875 
L 47.90625 67.296875 
C 53 67.296875 56 65.28125 56 62.0625 
C 56 60.65625 55.5 58.359375 54.796875 56.4375 
z
" id="Century_Schoolbook_L_Roman-86"/>
      <path d="M 25.203125 48 
C 13 48 3.40625 37.03125 3.40625 22.890625 
C 3.40625 9.0625 13 -2 25 -2 
C 37 -2 46.59375 9.0625 46.59375 22.984375 
C 46.59375 36.828125 37 48 25.203125 48 
z
M 25.203125 43.6875 
C 32.203125 43.6875 36.09375 36.3125 36.09375 22.984375 
C 36.09375 9.5625 32.203125 2.296875 25 2.296875 
C 17.796875 2.296875 13.90625 9.5625 13.90625 22.890625 
C 13.90625 36.625 17.703125 43.6875 25.203125 43.6875 
z
" id="Century_Schoolbook_L_Roman-111"/>
      <path d="M 19.40625 47 
L 19.40625 66.796875 
L 15.296875 66.796875 
C 14.296875 53.796875 9.90625 47.1875 1.796875 46.59375 
L 1.796875 42.6875 
L 10 42.6875 
L 10 16.578125 
C 10 9.421875 10.203125 6.859375 11.203125 4.5 
C 12.796875 0.296875 16.796875 -2 22.59375 -2 
C 26.5 -2 29.90625 -0.8125 32.203125 1.390625 
C 35.5 4.609375 37.40625 10.03125 37.40625 15.65625 
C 37.40625 16.28125 37.40625 17 37.296875 18.015625 
L 33.09375 18.015625 
C 32.796875 8.796875 30.203125 4.09375 25.296875 4.09375 
C 23 4.09375 21 5.328125 20.296875 7.0625 
C 19.703125 8.5 19.40625 11.0625 19.40625 14.734375 
L 19.40625 42.6875 
L 34.09375 42.6875 
L 34.09375 47 
z
" id="Century_Schoolbook_L_Roman-116"/>
      <path d="M 39 48 
L 35.5 48 
L 32.59375 44.390625 
C 29 46.796875 25.40625 48 20.40625 48 
C 11.59375 48 5.796875 42.1875 5.796875 33.390625 
C 5.796875 29.453125 7.09375 26.125 9.296875 24.109375 
C 11.59375 21.984375 13.90625 20.96875 19.90625 19.5625 
L 25.203125 18.34375 
C 33.09375 16.4375 35.90625 14.40625 35.90625 10.375 
C 35.90625 5.625 31.796875 2.296875 25.90625 2.296875 
C 17.5 2.296875 11.5 7.75 9.09375 17.84375 
L 5.09375 17.84375 
L 5.09375 -1.203125 
L 8.59375 -1.203125 
L 12.09375 2.890625 
C 16.203125 -0.40625 20.796875 -2 25.796875 -2 
C 35.59375 -2 42.09375 4.109375 42.09375 13.5 
C 42.09375 17.9375 40.703125 21.375 37.90625 23.703125 
C 35.5 25.828125 33.5 26.625 27.40625 27.9375 
L 22.40625 29.046875 
C 16.90625 30.265625 16.90625 30.265625 15.09375 31.28125 
C 12.90625 32.28125 11.59375 34.40625 11.59375 36.625 
C 11.59375 40.671875 15.40625 43.59375 20.90625 43.59375 
C 24.703125 43.59375 27.796875 42.28125 30.59375 39.5625 
C 32.796875 37.796875 33.90625 35.796875 35.5 31.1875 
L 39 31.1875 
z
" id="Century_Schoolbook_L_Roman-115"/>
     </defs>
     <g transform="translate(24.87013 143.29176)rotate(-90)scale(0.18 -0.18)">
      <use transform="translate(0 0.343476)scale(0.996264)" xlink:href="#Century_Schoolbook_L_Roman-86"/>
      <use transform="translate(64.45802 0.343476)scale(0.996264)" xlink:href="#Century_Schoolbook_L_Roman-111"/>
      <use transform="translate(114.27122 0.343476)scale(0.996264)" xlink:href="#Century_Schoolbook_L_Roman-108"/>
      <use transform="translate(145.652533 0.343476)scale(0.996264)" xlink:href="#Century_Schoolbook_L_Roman-116"/>
      <use transform="translate(184.40624 0.343476)scale(0.996264)" xlink:href="#Century_Schoolbook_L_Roman-115"/>
     </g>
    </g>
   </g>
   <g id="line2d_9">
    <path clip-path="url(#p24c9a15eaf)" d="M 61.96604 97.92644 
L 62.678493 109.274255 
L 63.034719 109.274255 
L 63.390946 103.600348 
L 63.747172 103.600348 
L 64.103398 109.274255 
L 64.459625 103.600348 
L 64.815851 114.664467 
L 65.172078 103.600348 
L 65.528304 114.664467 
L 66.240757 103.600348 
L 66.596983 109.274255 
L 67.309436 109.274255 
L 67.665663 103.600348 
L 68.021889 109.274255 
L 68.378115 109.274255 
L 68.734342 103.600348 
L 69.090568 86.86232 
L 69.446795 103.600348 
L 71.584153 103.600348 
L 71.94038 97.92644 
L 72.296606 97.92644 
L 72.652832 103.600348 
L 74.790191 103.600348 
L 75.146417 109.274255 
L 75.502644 103.600348 
L 75.85887 109.274255 
L 76.215097 109.274255 
L 76.571323 103.600348 
L 76.927549 103.600348 
L 77.283776 109.274255 
L 77.640002 109.274255 
L 77.996229 103.600348 
L 78.708681 103.600348 
L 79.064908 109.274255 
L 79.421134 103.600348 
L 80.133587 103.600348 
L 80.489813 109.274255 
L 80.84604 103.600348 
L 81.202266 103.600348 
L 81.558493 109.274255 
L 82.270946 109.274255 
L 82.627172 103.600348 
L 82.983398 103.600348 
L 83.339625 109.274255 
L 83.695851 109.274255 
L 84.052078 81.472108 
L 84.408304 109.274255 
L 84.76453 109.274255 
L 85.120757 103.600348 
L 85.476983 103.600348 
L 85.83321 114.664467 
L 86.545662 103.600348 
L 87.970568 103.600348 
L 88.326795 97.92644 
L 88.683021 103.600348 
L 89.395474 103.600348 
L 89.7517 97.92644 
L 90.107927 97.92644 
L 90.464153 103.600348 
L 90.820379 103.600348 
L 91.532832 92.536228 
L 91.889059 103.600348 
L 92.245285 109.274255 
L 92.957738 97.92644 
L 93.313964 103.600348 
L 94.73887 103.600348 
L 95.095096 109.274255 
L 95.451323 103.600348 
L 96.520002 103.600348 
L 96.876228 109.274255 
L 97.232455 120.338375 
L 97.588681 103.600348 
L 97.944908 103.600348 
L 98.301134 109.274255 
L 98.657361 103.600348 
L 99.369813 103.600348 
L 99.72604 109.274255 
L 100.082266 109.274255 
L 100.438493 97.92644 
L 101.150945 109.274255 
L 101.507172 103.600348 
L 102.219625 103.600348 
L 102.575851 109.274255 
L 102.932077 109.274255 
L 103.288304 103.600348 
L 103.64453 103.600348 
L 104.000757 109.274255 
L 104.356983 125.728587 
L 104.71321 103.600348 
L 105.069436 103.600348 
L 105.425662 97.92644 
L 105.781889 103.600348 
L 106.138115 103.600348 
L 106.494342 97.92644 
L 107.206794 109.274255 
L 107.919247 97.92644 
L 108.6317 109.274255 
L 108.987926 109.274255 
L 109.700379 97.92644 
L 110.056606 103.600348 
L 110.412832 97.92644 
L 111.125285 97.92644 
L 111.481511 103.600348 
L 111.837738 97.92644 
L 112.550191 97.92644 
L 112.906417 109.274255 
L 113.262643 109.274255 
L 113.61887 97.92644 
L 114.331323 109.274255 
L 114.687549 109.274255 
L 115.400002 97.92644 
L 115.756228 109.274255 
L 116.468681 97.92644 
L 116.824908 97.92644 
L 117.53736 109.274255 
L 117.893587 103.600348 
L 118.249813 103.600348 
L 118.60604 109.274255 
L 118.962266 103.600348 
L 120.743398 103.600348 
L 121.099625 86.86232 
L 121.455851 103.600348 
L 121.812077 109.274255 
L 122.168304 103.600348 
L 122.52453 92.536228 
L 122.880757 103.600348 
L 123.236983 109.274255 
L 123.593209 109.274255 
L 123.949436 103.600348 
L 124.305662 103.600348 
L 124.661889 125.728587 
L 125.018115 109.274255 
L 125.730568 97.92644 
L 126.086794 109.274255 
L 126.799247 97.92644 
L 127.155474 97.92644 
L 127.867926 109.274255 
L 128.580379 97.92644 
L 128.936606 103.600348 
L 129.292832 103.600348 
L 129.649058 109.274255 
L 130.005285 109.274255 
L 130.361511 103.600348 
L 130.717738 109.274255 
L 131.073964 103.600348 
L 131.430191 120.338375 
L 131.786417 103.600348 
L 132.142643 103.600348 
L 132.49887 109.274255 
L 133.211323 75.798201 
L 133.567549 109.274255 
L 133.923775 109.274255 
L 134.280002 103.600348 
L 134.636228 103.600348 
L 134.992455 109.274255 
L 135.348681 103.600348 
L 135.704907 103.600348 
L 136.061134 97.92644 
L 136.41736 109.274255 
L 136.773587 109.274255 
L 137.129813 97.92644 
L 137.842266 109.274255 
L 138.198492 109.274255 
L 138.554719 103.600348 
L 139.267172 103.600348 
L 139.623398 109.274255 
L 139.979624 125.728587 
L 140.335851 97.92644 
L 140.692077 81.472108 
L 141.048304 109.274255 
L 141.40453 109.274255 
L 141.760756 103.600348 
L 142.116983 109.274255 
L 142.473209 109.274255 
L 142.829436 103.600348 
L 143.185662 103.600348 
L 143.541889 131.402494 
L 143.898115 109.274255 
L 144.254341 97.92644 
L 144.610568 103.600348 
L 145.679247 103.600348 
L 146.035473 86.86232 
L 146.3917 97.92644 
L 146.747926 103.600348 
L 148.172832 103.600348 
L 148.529058 92.536228 
L 148.885285 125.728587 
L 149.241511 103.600348 
L 149.597738 103.600348 
L 149.953964 109.274255 
L 150.31019 103.600348 
L 152.091322 103.600348 
L 152.447549 97.92644 
L 153.160002 109.274255 
L 153.516228 103.600348 
L 153.872455 120.338375 
L 154.228681 109.274255 
L 154.941134 97.92644 
L 155.29736 103.600348 
L 155.653587 114.664467 
L 156.009813 103.600348 
L 156.366039 97.92644 
L 157.078492 109.274255 
L 157.434719 103.600348 
L 158.147171 103.600348 
L 158.503398 109.274255 
L 158.859624 109.274255 
L 159.215851 97.92644 
L 159.572077 109.274255 
L 160.640756 109.274255 
L 160.996983 103.600348 
L 161.353209 109.274255 
L 161.709436 109.274255 
L 162.065662 103.600348 
L 162.778115 103.600348 
L 163.134341 109.274255 
L 163.490568 103.600348 
L 163.846794 109.274255 
L 164.20302 103.600348 
L 164.559247 92.536228 
L 164.915473 103.600348 
L 166.696605 103.600348 
L 167.052832 97.92644 
L 167.409058 103.600348 
L 167.765285 97.92644 
L 168.121511 75.798201 
L 168.477737 97.92644 
L 168.833964 109.274255 
L 169.19019 103.600348 
L 169.546417 103.600348 
L 169.902643 97.92644 
L 170.258869 97.92644 
L 170.971322 109.274255 
L 171.327549 97.92644 
L 172.040002 109.274255 
L 172.396228 109.274255 
L 172.752454 103.600348 
L 173.464907 103.600348 
L 173.821134 97.92644 
L 174.17736 97.92644 
L 174.533586 109.274255 
L 175.246039 97.92644 
L 175.602266 114.664467 
L 175.958492 103.600348 
L 176.314719 103.600348 
L 176.670945 109.274255 
L 177.027171 137.076402 
L 177.383398 97.92644 
L 177.739624 109.274255 
L 178.095851 109.274255 
L 178.452077 114.664467 
L 178.808303 103.600348 
L 179.16453 97.92644 
L 179.520756 109.274255 
L 179.876983 97.92644 
L 180.233209 109.274255 
L 180.589435 103.600348 
L 180.945662 109.274255 
L 181.301888 109.274255 
L 181.658115 103.600348 
L 182.014341 103.600348 
L 182.370568 97.92644 
L 182.726794 103.600348 
L 183.08302 103.600348 
L 183.439247 97.92644 
L 183.795473 81.472108 
L 184.1517 103.600348 
L 184.507926 103.600348 
L 184.864152 86.86232 
L 185.220379 109.274255 
L 185.576605 97.92644 
L 186.289058 109.274255 
L 186.645284 103.600348 
L 187.001511 125.728587 
L 187.357737 92.536228 
L 187.713964 103.600348 
L 188.07019 109.274255 
L 188.426417 97.92644 
L 188.782643 120.338375 
L 189.138869 114.664467 
L 189.495096 120.338375 
L 189.851322 109.274255 
L 190.207549 92.536228 
L 190.563775 103.600348 
L 190.920001 109.274255 
L 191.276228 120.338375 
L 191.632454 103.600348 
L 191.988681 109.274255 
L 192.701134 97.92644 
L 193.05736 109.274255 
L 193.413586 109.274255 
L 193.769813 97.92644 
L 194.126039 97.92644 
L 194.482266 120.338375 
L 194.838492 103.600348 
L 195.194718 103.600348 
L 195.550945 109.274255 
L 195.907171 125.728587 
L 196.263398 109.274255 
L 196.619624 109.274255 
L 196.97585 103.600348 
L 197.332077 109.274255 
L 197.688303 103.600348 
L 198.04453 103.600348 
L 198.400756 97.92644 
L 198.756983 109.274255 
L 199.113209 103.600348 
L 199.469435 114.664467 
L 199.825662 103.600348 
L 200.181888 125.728587 
L 200.538115 103.600348 
L 200.894341 103.600348 
L 201.250567 109.274255 
L 201.606794 103.600348 
L 201.96302 103.600348 
L 202.319247 97.92644 
L 202.675473 109.274255 
L 203.031699 92.536228 
L 203.387926 120.338375 
L 203.744152 97.92644 
L 204.100379 97.92644 
L 204.456605 103.600348 
L 204.812832 103.600348 
L 205.169058 97.92644 
L 205.525284 137.076402 
L 205.881511 103.600348 
L 206.593964 92.536228 
L 206.95019 103.600348 
L 207.306416 97.92644 
L 207.662643 103.600348 
L 208.018869 97.92644 
L 208.731322 109.274255 
L 209.443775 97.92644 
L 209.800001 103.600348 
L 210.156228 114.664467 
L 210.512454 103.600348 
L 210.868681 109.274255 
L 211.581133 97.92644 
L 211.93736 103.600348 
L 212.293586 103.600348 
L 212.649813 109.274255 
L 213.006039 97.92644 
L 213.718492 109.274255 
L 214.074718 103.600348 
L 214.787171 103.600348 
L 215.143398 92.536228 
L 215.499624 103.600348 
L 215.85585 109.274255 
L 216.212077 103.600348 
L 216.568303 120.338375 
L 216.92453 109.274255 
L 217.280756 114.664467 
L 217.636982 103.600348 
L 217.993209 103.600348 
L 218.349435 109.274255 
L 218.705662 103.600348 
L 219.061888 103.600348 
L 219.418114 109.274255 
L 219.774341 103.600348 
L 221.199247 103.600348 
L 221.555473 97.92644 
L 221.911699 97.92644 
L 222.267926 109.274255 
L 222.980379 97.92644 
L 223.336605 109.274255 
L 224.049058 97.92644 
L 224.405284 97.92644 
L 224.761511 109.274255 
L 225.117737 109.274255 
L 225.473963 97.92644 
L 225.83019 97.92644 
L 226.186416 120.338375 
L 226.542643 109.274255 
L 226.898869 103.600348 
L 227.255096 103.600348 
L 227.611322 109.274255 
L 227.967548 103.600348 
L 228.323775 103.600348 
L 228.680001 109.274255 
L 229.036228 103.600348 
L 229.392454 109.274255 
L 229.74868 109.274255 
L 230.104907 86.86232 
L 230.461133 97.92644 
L 230.81736 97.92644 
L 231.173586 109.274255 
L 231.529813 109.274255 
L 231.886039 81.472108 
L 232.242265 131.402494 
L 232.598492 109.274255 
L 232.954718 103.600348 
L 233.310945 103.600348 
L 233.667171 109.274255 
L 234.023397 109.274255 
L 234.379624 103.600348 
L 235.092077 103.600348 
L 235.448303 81.472108 
L 235.804529 103.600348 
L 236.160756 109.274255 
L 236.516982 103.600348 
L 236.873209 114.664467 
L 237.585662 103.600348 
L 237.941888 109.274255 
L 238.298114 109.274255 
L 238.654341 92.536228 
L 239.010567 114.664467 
L 239.366794 103.600348 
L 239.72302 131.402494 
L 240.079246 97.92644 
L 240.435473 103.600348 
L 240.791699 103.600348 
L 241.147926 97.92644 
L 241.504152 103.600348 
L 241.860378 70.124293 
L 242.216605 97.92644 
L 242.572831 97.92644 
L 242.929058 103.600348 
L 243.285284 103.600348 
L 243.641511 92.536228 
L 243.997737 97.92644 
L 244.353963 92.536228 
L 244.71019 109.274255 
L 245.066416 103.600348 
L 246.135095 103.600348 
L 246.491322 131.402494 
L 246.847548 109.274255 
L 247.560001 97.92644 
L 247.916227 109.274255 
L 248.272454 109.274255 
L 248.62868 92.536228 
L 248.984907 59.060174 
L 249.341133 114.664467 
L 249.69736 114.664467 
L 250.053586 97.92644 
L 250.409812 97.92644 
L 250.766039 109.274255 
L 251.478492 97.92644 
L 251.834718 109.274255 
L 252.190944 75.798201 
L 252.547171 103.600348 
L 252.903397 103.600348 
L 253.259624 109.274255 
L 253.61585 109.274255 
L 253.972077 103.600348 
L 254.328303 109.274255 
L 254.684529 103.600348 
L 255.040756 103.600348 
L 255.396982 92.536228 
L 255.753209 109.274255 
L 256.109435 103.600348 
L 256.465661 109.274255 
L 257.178114 109.274255 
L 257.890567 97.92644 
L 258.246793 109.274255 
L 258.959246 97.92644 
L 259.315473 103.600348 
L 259.671699 103.600348 
L 260.027926 97.92644 
L 260.384152 97.92644 
L 260.740378 103.600348 
L 261.096605 97.92644 
L 261.809058 97.92644 
L 262.165284 103.600348 
L 263.233963 103.600348 
L 263.59019 109.274255 
L 263.946416 103.600348 
L 264.302642 103.600348 
L 264.658869 109.274255 
L 265.015095 103.600348 
L 265.371322 103.600348 
L 265.727548 109.274255 
L 266.440001 97.92644 
L 266.796227 109.274255 
L 267.152454 137.076402 
L 267.50868 103.600348 
L 267.864907 92.536228 
L 268.221133 92.536228 
L 268.577359 114.664467 
L 268.933586 97.92644 
L 269.289812 97.92644 
L 269.646039 109.274255 
L 270.002265 103.600348 
L 270.358492 125.728587 
L 270.714718 103.600348 
L 271.070944 103.600348 
L 271.427171 120.338375 
L 271.783397 103.600348 
L 272.139624 97.92644 
L 272.852076 109.274255 
L 273.208303 109.274255 
L 273.564529 103.600348 
L 273.920756 103.600348 
L 274.276982 114.664467 
L 274.989435 103.600348 
L 275.345661 109.274255 
L 276.414341 109.274255 
L 276.770567 103.600348 
L 277.126793 109.274255 
L 277.839246 97.92644 
L 278.195473 97.92644 
L 278.551699 109.274255 
L 278.907925 103.600348 
L 279.264152 103.600348 
L 279.620378 109.274255 
L 279.976605 97.92644 
L 280.332831 103.600348 
L 280.689057 97.92644 
L 281.40151 97.92644 
L 281.757737 103.600348 
L 282.826416 103.600348 
L 283.182642 109.274255 
L 283.895095 97.92644 
L 284.251322 97.92644 
L 284.963774 120.338375 
L 285.320001 97.92644 
L 285.676227 103.600348 
L 286.032454 97.92644 
L 286.38868 109.274255 
L 286.744906 97.92644 
L 287.101133 103.600348 
L 287.457359 114.664467 
L 287.813586 103.600348 
L 288.169812 97.92644 
L 288.526039 103.600348 
L 289.238491 103.600348 
L 289.594718 97.92644 
L 290.307171 109.274255 
L 290.663397 109.274255 
L 291.019623 97.92644 
L 291.37585 109.274255 
L 292.088303 109.274255 
L 292.444529 97.92644 
L 292.800756 97.92644 
L 293.156982 114.664467 
L 293.513208 109.274255 
L 293.869435 92.536228 
L 294.225661 114.664467 
L 294.581888 103.600348 
L 296.719246 103.600348 
L 297.075472 97.92644 
L 297.431699 103.600348 
L 297.787925 103.600348 
L 298.144152 86.86232 
L 298.500378 120.338375 
L 298.856605 97.92644 
L 299.212831 103.600348 
L 299.569057 92.536228 
L 299.925284 97.92644 
L 300.28151 120.338375 
L 300.637737 103.600348 
L 301.350189 103.600348 
L 301.706416 81.472108 
L 302.062642 103.600348 
L 303.131321 103.600348 
L 303.487548 109.274255 
L 303.843774 109.274255 
L 304.556227 97.92644 
L 304.912454 114.664467 
L 305.26868 109.274255 
L 305.624906 97.92644 
L 305.981133 103.600348 
L 306.337359 114.664467 
L 306.693586 97.92644 
L 307.049812 103.600348 
L 307.406038 103.600348 
L 307.762265 109.274255 
L 308.118491 103.600348 
L 308.474718 103.600348 
L 308.830944 109.274255 
L 309.543397 109.274255 
L 309.899623 125.728587 
L 310.25585 109.274255 
L 310.968303 109.274255 
L 311.324529 103.600348 
L 311.680755 109.274255 
L 312.036982 109.274255 
L 312.393208 103.600348 
L 312.749435 103.600348 
L 313.105661 114.664467 
L 313.461887 109.274255 
L 313.818114 109.274255 
L 314.530567 97.92644 
L 314.886793 148.140521 
L 315.24302 109.274255 
L 315.955472 97.92644 
L 316.311699 103.600348 
L 316.667925 103.600348 
L 317.024152 97.92644 
L 317.380378 97.92644 
L 317.736604 103.600348 
L 318.449057 103.600348 
L 318.805284 97.92644 
L 319.517736 109.274255 
L 319.873963 103.600348 
L 321.298869 103.600348 
L 321.655095 81.472108 
L 322.011321 97.92644 
L 322.723774 109.274255 
L 323.080001 97.92644 
L 323.792453 109.274255 
L 324.504906 97.92644 
L 324.861133 97.92644 
L 325.217359 125.728587 
L 325.573585 97.92644 
L 325.929812 109.274255 
L 326.286038 97.92644 
L 326.998491 109.274255 
L 327.354718 103.600348 
L 327.710944 109.274255 
L 328.06717 109.274255 
L 328.423397 86.86232 
L 328.779623 97.92644 
L 329.13585 103.600348 
L 329.492076 103.600348 
L 329.848302 109.274255 
L 330.204529 97.92644 
L 330.916982 109.274255 
L 331.273208 109.274255 
L 331.629435 97.92644 
L 331.985661 103.600348 
L 332.341887 103.600348 
L 332.698114 109.274255 
L 333.05434 103.600348 
L 333.410567 103.600348 
L 333.766793 97.92644 
L 334.123019 103.600348 
L 334.479246 97.92644 
L 335.191699 97.92644 
L 335.904151 109.274255 
L 336.260378 97.92644 
L 336.616604 103.600348 
L 337.329057 103.600348 
L 337.685284 97.92644 
L 338.04151 97.92644 
L 338.397736 103.600348 
L 338.753963 97.92644 
L 339.110189 97.92644 
L 339.466416 103.600348 
L 340.535095 103.600348 
L 340.891321 97.92644 
L 341.247548 109.274255 
L 341.603774 114.664467 
L 341.96 97.92644 
L 342.316227 109.274255 
L 342.672453 109.274255 
L 343.384906 97.92644 
L 344.097359 109.274255 
L 344.453585 92.536228 
L 344.809812 109.274255 
L 345.166038 97.92644 
L 345.522265 109.274255 
L 345.878491 103.600348 
L 348.015849 103.600348 
L 348.372076 114.664467 
L 349.084529 103.600348 
L 349.796982 114.664467 
L 350.153208 103.600348 
L 350.509434 103.600348 
L 350.865661 81.472108 
L 351.221887 114.664467 
L 351.93434 70.124293 
L 352.290566 109.274255 
L 352.646793 103.600348 
L 353.003019 103.600348 
L 353.359246 75.798201 
L 353.715472 109.274255 
L 354.071699 86.86232 
L 354.427925 103.600348 
L 354.784151 103.600348 
L 355.140378 97.92644 
L 355.496604 70.124293 
L 355.852831 103.600348 
L 356.209057 103.600348 
L 356.565283 97.92644 
L 356.92151 97.92644 
L 357.277736 103.600348 
L 357.990189 103.600348 
L 358.346415 97.92644 
L 358.702642 109.274255 
L 359.058868 103.600348 
L 359.771321 103.600348 
L 360.127548 109.274255 
L 360.483774 103.600348 
L 360.84 103.600348 
L 361.196227 109.274255 
L 361.552453 109.274255 
L 361.90868 86.86232 
L 362.264906 103.600348 
L 362.621132 109.274255 
L 362.977359 103.600348 
L 364.046038 103.600348 
L 364.402264 109.274255 
L 364.758491 120.338375 
L 365.114717 103.600348 
L 365.470944 109.274255 
L 365.82717 109.274255 
L 366.183397 97.92644 
L 366.539623 103.600348 
L 366.895849 103.600348 
L 367.252076 114.664467 
L 367.608302 103.600348 
L 367.964529 109.274255 
L 368.676981 109.274255 
L 369.033208 103.600348 
L 369.389434 103.600348 
L 369.745661 109.274255 
L 370.101887 109.274255 
L 370.458114 103.600348 
L 370.81434 103.600348 
L 371.170566 109.274255 
L 371.883019 97.92644 
L 372.239246 97.92644 
L 372.595472 103.600348 
L 372.951698 97.92644 
L 373.307925 103.600348 
L 373.664151 103.600348 
L 374.020378 97.92644 
L 374.376604 103.600348 
L 375.089057 103.600348 
L 375.445283 97.92644 
L 375.80151 103.600348 
L 376.157736 103.600348 
L 376.513963 92.536228 
L 376.870189 97.92644 
L 377.226415 109.274255 
L 377.582642 109.274255 
L 377.938868 103.600348 
L 378.295095 103.600348 
L 378.651321 109.274255 
L 379.363774 97.92644 
L 379.72 109.274255 
L 380.076227 109.274255 
L 380.432453 103.600348 
L 380.788679 81.472108 
L 381.144906 120.338375 
L 381.501132 103.600348 
L 381.857359 97.92644 
L 382.213585 103.600348 
L 382.569812 97.92644 
L 383.282264 109.274255 
L 384.350944 109.274255 
L 384.70717 103.600348 
L 385.063396 109.274255 
L 385.419623 103.600348 
L 386.132076 114.664467 
L 386.488302 131.402494 
L 386.844528 109.274255 
L 387.556981 109.274255 
L 387.913208 103.600348 
L 388.625661 103.600348 
L 388.981887 109.274255 
L 389.338113 109.274255 
L 389.69434 125.728587 
L 390.050566 103.600348 
L 391.119245 103.600348 
L 391.831698 92.536228 
L 392.187925 109.274255 
L 392.544151 97.92644 
L 392.900378 103.600348 
L 393.256604 120.338375 
L 393.61283 103.600348 
L 393.969057 103.600348 
L 394.325283 97.92644 
L 394.68151 103.600348 
L 395.037736 131.402494 
L 395.393962 103.600348 
L 395.750189 86.86232 
L 396.106415 103.600348 
L 396.462642 97.92644 
L 396.818868 103.600348 
L 397.175094 103.600348 
L 397.531321 109.274255 
L 397.887547 103.600348 
L 398.243774 109.274255 
L 398.6 109.274255 
L 398.956227 103.600348 
L 399.312453 109.274255 
L 399.668679 125.728587 
L 400.024906 103.600348 
L 400.381132 103.600348 
L 400.737359 109.274255 
L 401.093585 103.600348 
L 401.449811 92.536228 
L 402.162264 114.664467 
L 402.518491 92.536228 
L 402.874717 103.600348 
L 403.230943 64.734081 
L 403.58717 103.600348 
L 403.943396 109.274255 
L 404.655849 109.274255 
L 405.012076 103.600348 
L 405.368302 109.274255 
L 405.724528 109.274255 
L 406.080755 103.600348 
L 406.436981 103.600348 
L 406.793208 114.664467 
L 407.149434 97.92644 
L 407.50566 109.274255 
L 407.861887 103.600348 
L 408.218113 86.86232 
L 408.57434 109.274255 
L 408.930566 97.92644 
L 409.286793 103.600348 
L 410.711698 103.600348 
L 411.067925 97.92644 
L 411.424151 97.92644 
L 411.780377 70.124293 
L 412.136604 109.274255 
L 412.49283 103.600348 
L 412.849057 109.274255 
L 413.205283 103.600348 
L 413.917736 103.600348 
L 414.273962 97.92644 
L 414.630189 103.600348 
L 416.411321 103.600348 
L 416.767547 109.274255 
L 417.123774 142.466614 
L 417.48 97.92644 
L 417.48 97.92644 
" style="fill:none;stroke:#e41a1c;stroke-linecap:square;stroke-width:2;"/>
   </g>
   <g id="patch_3">
    <path d="M 61.96604 230.41218 
L 61.96604 14.52 
" style="fill:none;stroke:#000000;stroke-linecap:square;stroke-linejoin:miter;stroke-width:0.8;"/>
   </g>
   <g id="patch_4">
    <path d="M 417.48 230.41218 
L 417.48 14.52 
" style="fill:none;"/>
   </g>
   <g id="patch_5">
    <path d="M 61.96604 230.41218 
L 417.48 230.41218 
" style="fill:none;stroke:#000000;stroke-linecap:square;stroke-linejoin:miter;stroke-width:0.8;"/>
   </g>
   <g id="patch_6">
    <path d="M 61.96604 14.52 
L 417.48 14.52 
" style="fill:none;"/>
   </g>
   <g id="legend_1">
    <g id="patch_7">
     <path d="M 319.57628 44.05585 
L 412.68 44.05585 
Q 415.88 44.05585 415.88 40.85585 
L 415.88 19.32 
Q 415.88 16.12 412.68 16.12 
L 319.57628 16.12 
Q 316.37628 16.12 316.37628 19.32 
L 316.37628 40.85585 
Q 316.37628 44.05585 319.57628 44.05585 
z
" style="fill:#ffffff;stroke:#000000;stroke-linejoin:miter;"/>
    </g>
    <g id="line2d_10">
     <path d="M 322.77628 28.77596 
L 354.77628 28.77596 
" style="fill:none;stroke:#e41a1c;stroke-linecap:square;stroke-width:2;"/>
    </g>
    <g id="line2d_11"/>
    <g id="text_11">
     <!-- Value -->
     <defs>
      <path d="M 41.203125 -0.703125 
L 59.40625 0 
L 59.40625 4.296875 
L 56.90625 4.296875 
C 51.40625 4.296875 50.59375 5.203125 50.59375 11.671875 
L 50.59375 47 
L 31.796875 46 
L 31.796875 41.6875 
L 36.90625 41.6875 
C 40.59375 41.6875 41.203125 40.96875 41.203125 36.5625 
L 41.203125 23.921875 
C 41.203125 18.0625 40.59375 14.671875 39.09375 11.28125 
C 37 6.765625 33 4.09375 28.09375 4.09375 
C 25 4.09375 22.40625 5.21875 21.09375 7.28125 
C 19.796875 9.234375 19.59375 10.25 19.59375 15.90625 
L 19.59375 47 
L 2.09375 46 
L 2.09375 41.6875 
L 5.90625 41.6875 
C 9.59375 41.6875 10.203125 40.96875 10.203125 36.5625 
L 10.203125 14.359375 
C 10.203125 9.125 10.59375 6.765625 12.09375 4.40625 
C 14.796875 0.296875 19.59375 -2 25.59375 -2 
C 32.203125 -2 36.796875 0.6875 41.203125 7.171875 
z
" id="Century_Schoolbook_L_Roman-117"/>
     </defs>
     <g transform="translate(367.57628 34.37596)scale(0.16 -0.16)">
      <use transform="translate(0 0.343476)scale(0.996264)" xlink:href="#Century_Schoolbook_L_Roman-86"/>
      <use transform="translate(63.461923 0.343476)scale(0.996264)" xlink:href="#Century_Schoolbook_L_Roman-97"/>
      <use transform="translate(118.8536 0.343476)scale(0.996264)" xlink:href="#Century_Schoolbook_L_Roman-108"/>
      <use transform="translate(150.234913 0.343476)scale(0.996264)" xlink:href="#Century_Schoolbook_L_Roman-117"/>
      <use transform="translate(211.106544 0.343476)scale(0.996264)" xlink:href="#Century_Schoolbook_L_Roman-101"/>
     </g>
    </g>
   </g>
  </g>
 </g>
 <defs>
  <clipPath id="p24c9a15eaf">
   <rect height="215.89218" width="355.51396" x="61.96604" y="14.52"/>
  </clipPath>
 </defs>
</svg>
