<?xml version="1.0" encoding="utf-8" standalone="no"?>
<!DOCTYPE svg PUBLIC "-//W3C//DTD SVG 1.1//EN"
  "http://www.w3.org/Graphics/SVG/1.1/DTD/svg11.dtd">
<!-- Created with matplotlib (https://matplotlib.org/) -->
<svg height="288pt" version="1.1" viewBox="0 0 432 288" width="432pt" xmlns="http://www.w3.org/2000/svg" xmlns:xlink="http://www.w3.org/1999/xlink">
 <defs>
  <style type="text/css">
*{stroke-linecap:butt;stroke-linejoin:round;}
  </style>
 </defs>
 <g id="figure_1">
  <g id="patch_1">
   <path d="M 0 288 
L 432 288 
L 432 0 
L 0 0 
z
" style="fill:#ffffff;"/>
  </g>
  <g id="axes_1">
   <g id="patch_2">
    <path d="M 103.70949 230.75419 
L 417.48 230.75419 
L 417.48 14.52 
L 103.70949 14.52 
z
" style="fill:#ffffff;"/>
   </g>
   <g id="matplotlib.axis_1">
    <g id="xtick_1">
     <g id="line2d_1">
      <defs>
       <path d="M 0 0 
L 0 3.5 
" id="m08058c662d" style="stroke:#000000;stroke-width:0.8;"/>
      </defs>
      <g>
       <use style="stroke:#000000;stroke-width:0.8;" x="166.589604" xlink:href="#m08058c662d" y="230.75419"/>
      </g>
     </g>
     <g id="text_1">
      <!-- $50$ -->
      <defs>
       <path d="M 11.40625 58.59375 
C 12.40625 58.1875 16.5 56.890625 20.703125 56.890625 
C 30 56.890625 35.09375 61.890625 38 64.6875 
C 38 65.484375 38 66 37.40625 66 
C 37.296875 66 37.09375 66 36.296875 65.59375 
C 32.796875 64.09375 28.703125 63 23.703125 63 
C 20.703125 63 16.203125 63.359375 11.296875 65.484375 
C 10.203125 66 10 66 9.90625 66 
C 9.40625 66 9.296875 65.890625 9.296875 63.90625 
L 9.296875 34.859375 
C 9.296875 33.015625 9.296875 32.5 10.296875 32.5 
C 10.796875 32.5 11 32.703125 11.5 33.421875 
C 14.703125 38.046875 19.09375 40 24.09375 40 
C 27.59375 40 35.09375 37.734375 35.09375 20.203125 
C 35.09375 16.984375 35.09375 11.1875 32.09375 6.59375 
C 29.59375 2.484375 25.703125 0.390625 21.40625 0.390625 
C 14.796875 0.390625 8.09375 4.984375 6.296875 12.6875 
C 6.703125 12.59375 7.5 12.390625 7.90625 12.390625 
C 9.203125 12.390625 11.703125 13.09375 11.703125 16.1875 
C 11.703125 18.890625 9.796875 20 7.90625 20 
C 5.59375 20 4.09375 18.59375 4.09375 15.796875 
C 4.09375 7.09375 11 -2 21.59375 -2 
C 31.90625 -2 41.703125 6.890625 41.703125 19.796875 
C 41.703125 32.09375 33.90625 41.59375 24.203125 41.59375 
C 19.09375 41.59375 14.796875 39.6875 11.40625 36 
z
" id="CMR17-53"/>
       <path d="M 42 31.84375 
C 42 37.96875 41.90625 48.421875 37.703125 56.453125 
C 34 63.484375 28.09375 66 22.90625 66 
C 18.09375 66 12 63.78125 8.203125 56.5625 
C 4.203125 49.015625 3.796875 39.671875 3.796875 31.84375 
C 3.796875 26.109375 3.90625 17.375 7 9.734375 
C 11.296875 -0.609375 19 -2 22.90625 -2 
C 27.5 -2 34.5 -0.109375 38.59375 9.4375 
C 41.59375 16.375 42 24.5 42 31.84375 
z
M 22.90625 -0.40625 
C 16.5 -0.40625 12.703125 5.125 11.296875 12.75 
C 10.203125 18.6875 10.203125 27.328125 10.203125 32.953125 
C 10.203125 40.6875 10.203125 47.109375 11.5 53.234375 
C 13.40625 61.78125 19 64.390625 22.90625 64.390625 
C 27 64.390625 32.296875 61.671875 34.203125 53.4375 
C 35.5 47.71875 35.59375 40.984375 35.59375 32.953125 
C 35.59375 26.421875 35.59375 18.375 34.40625 12.453125 
C 32.296875 1.5 26.40625 -0.40625 22.90625 -0.40625 
z
" id="CMR17-48"/>
      </defs>
      <g transform="translate(158.334479 251.09214)scale(0.18 -0.18)">
       <use transform="scale(0.996264)" xlink:href="#CMR17-53"/>
       <use transform="translate(45.690477 0)scale(0.996264)" xlink:href="#CMR17-48"/>
      </g>
     </g>
    </g>
    <g id="xtick_2">
     <g id="line2d_2">
      <g>
       <use style="stroke:#000000;stroke-width:0.8;" x="229.469719" xlink:href="#m08058c662d" y="230.75419"/>
      </g>
     </g>
     <g id="text_2">
      <!-- $100$ -->
      <defs>
       <path d="M 26.59375 63.796875 
C 26.59375 65.890625 26.5 66 25.09375 66 
C 21.203125 61.359375 15.296875 59.890625 9.703125 59.6875 
C 9.40625 59.6875 8.90625 59.6875 8.796875 59.5 
C 8.703125 59.296875 8.703125 59.09375 8.703125 57 
C 11.796875 57 17 57.59375 21 59.984375 
L 21 7.296875 
C 21 3.796875 20.796875 2.59375 12.203125 2.59375 
L 9.203125 2.59375 
L 9.203125 0 
C 14 0.09375 19 0.1875 23.796875 0.1875 
C 28.59375 0.1875 33.59375 0.09375 38.40625 0 
L 38.40625 2.59375 
L 35.40625 2.59375 
C 26.796875 2.59375 26.59375 3.6875 26.59375 7.296875 
z
" id="CMR17-49"/>
      </defs>
      <g transform="translate(217.087029 251.09214)scale(0.18 -0.18)">
       <use transform="scale(0.996264)" xlink:href="#CMR17-49"/>
       <use transform="translate(45.690477 0)scale(0.996264)" xlink:href="#CMR17-48"/>
       <use transform="translate(91.380954 0)scale(0.996264)" xlink:href="#CMR17-48"/>
      </g>
     </g>
    </g>
    <g id="xtick_3">
     <g id="line2d_3">
      <g>
       <use style="stroke:#000000;stroke-width:0.8;" x="292.349833" xlink:href="#m08058c662d" y="230.75419"/>
      </g>
     </g>
     <g id="text_3">
      <!-- $150$ -->
      <g transform="translate(279.967143 251.09214)scale(0.18 -0.18)">
       <use transform="scale(0.996264)" xlink:href="#CMR17-49"/>
       <use transform="translate(45.690477 0)scale(0.996264)" xlink:href="#CMR17-53"/>
       <use transform="translate(91.380954 0)scale(0.996264)" xlink:href="#CMR17-48"/>
      </g>
     </g>
    </g>
    <g id="xtick_4">
     <g id="line2d_4">
      <g>
       <use style="stroke:#000000;stroke-width:0.8;" x="355.229947" xlink:href="#m08058c662d" y="230.75419"/>
      </g>
     </g>
     <g id="text_4">
      <!-- $200$ -->
      <defs>
       <path d="M 41.703125 15.46875 
L 39.90625 15.46875 
C 38.90625 8.390625 38.09375 7.1875 37.703125 6.59375 
C 37.203125 5.796875 30 5.796875 28.59375 5.796875 
L 9.40625 5.796875 
C 13 9.6875 20 16.765625 28.5 24.9375 
C 34.59375 30.71875 41.703125 37.5 41.703125 47.390625 
C 41.703125 59.1875 32.296875 66 21.796875 66 
C 10.796875 66 4.09375 56.296875 4.09375 47.296875 
C 4.09375 43.390625 7 42.890625 8.203125 42.890625 
C 9.203125 42.890625 12.203125 43.484375 12.203125 46.984375 
C 12.203125 50.09375 9.59375 51 8.203125 51 
C 7.59375 51 7 50.890625 6.59375 50.6875 
C 8.5 59.1875 14.296875 63.390625 20.40625 63.390625 
C 29.09375 63.390625 34.796875 56.5 34.796875 47.390625 
C 34.796875 38.703125 29.703125 31.21875 24 24.734375 
L 4.09375 2.296875 
L 4.09375 0 
L 39.296875 0 
z
" id="CMR17-50"/>
      </defs>
      <g transform="translate(342.847257 251.09214)scale(0.18 -0.18)">
       <use transform="scale(0.996264)" xlink:href="#CMR17-50"/>
       <use transform="translate(45.690477 0)scale(0.996264)" xlink:href="#CMR17-48"/>
       <use transform="translate(91.380954 0)scale(0.996264)" xlink:href="#CMR17-48"/>
      </g>
     </g>
    </g>
    <g id="text_5">
     <!-- Frequency -->
     <defs>
      <path d="M 62.40625 72 
L 2.90625 72 
L 2.90625 67.296875 
L 4.703125 67.296875 
C 12.796875 67.296875 13.703125 66.796875 13.703125 62.625 
L 13.703125 59.75 
L 13.703125 12.296875 
L 13.703125 9.390625 
C 13.703125 5.1875 12.796875 4.6875 4.703125 4.6875 
L 2.90625 4.6875 
L 2.90625 0 
L 37.203125 0 
L 37.203125 4.6875 
L 33.90625 4.6875 
C 25.796875 4.6875 24.90625 5.1875 24.90625 9.390625 
L 24.90625 12.296875 
L 24.90625 35 
L 26.90625 35 
C 33.09375 35 35.5 34.390625 37.59375 32.296875 
C 40.09375 29.6875 41.09375 26.5 41.296875 20.59375 
L 46 20.59375 
L 46 53.296875 
L 41.296875 53.296875 
C 40.796875 43.5625 36.796875 39.6875 27.296875 39.6875 
L 24.90625 39.6875 
L 24.90625 62.328125 
C 24.90625 66.59375 25.796875 67.296875 31.203125 67.296875 
L 35.796875 67.296875 
C 52.296875 67.296875 56.59375 63.515625 59.40625 46.546875 
L 63.796875 46.546875 
z
" id="Century_Schoolbook_L_Roman-70"/>
      <path d="M 19.796875 47 
L 2.09375 45.296875 
L 2.09375 41 
L 6.203125 41 
C 9.90625 41 10.5 40.296875 10.5 36.015625 
L 10.5 12.25 
L 10.5 8.265625 
C 10.5 4.28125 9.40625 3.59375 2.90625 3.59375 
L 2.5 3.59375 
L 2.5 0 
L 29.203125 0 
L 29.203125 3.59375 
L 27.296875 3.59375 
C 20.90625 3.59375 19.796875 4.28125 19.796875 8.265625 
L 19.796875 12.25 
L 19.796875 13.234375 
C 19.796875 20.703125 21.203125 28.265625 23.703125 33.9375 
C 26.09375 39.5 29.5 42.59375 33.703125 43.09375 
C 32.296875 41.5 31.90625 40.5 31.90625 38.609375 
C 31.90625 35.421875 34.203125 33.140625 37.40625 33.140625 
C 41 33.140625 43.5 35.828125 43.5 39.90625 
C 43.5 44.6875 40.09375 48 34.796875 48 
C 28.5 48 23 42.796875 19.796875 34.03125 
z
" id="Century_Schoolbook_L_Roman-114"/>
      <path d="M 46.5 22 
C 46.59375 37.25 38.09375 48 25.90625 48 
C 13.09375 48 3.5 36.734375 3.5 21.484375 
C 3.5 7.484375 12.59375 -2 26.09375 -2 
C 35.59375 -2 42.40625 2.6875 46.5 12.1875 
L 43 14.09375 
C 38.90625 6.390625 34.703125 3.390625 28 3.390625 
C 22.90625 3.390625 19.203125 5.59375 16.59375 9.984375 
C 14.796875 12.984375 14 16.484375 14.09375 22 
z
M 14.203125 26.296875 
C 14.203125 29.46875 14.59375 31.71875 15.59375 34.578125 
C 17.703125 40.71875 20.90625 43.6875 25.703125 43.6875 
C 31.796875 43.6875 35.796875 38.265625 35.796875 30.078125 
C 35.796875 27.109375 34.90625 26.296875 31.703125 26.296875 
z
" id="Century_Schoolbook_L_Roman-101"/>
      <path d="M 44.90625 46.484375 
L 40.203125 39.65625 
C 36.203125 45.296875 31.296875 48 25 48 
C 12.796875 48 3.59375 36.828125 3.59375 21.875 
C 3.59375 8.03125 12.203125 -2 23.90625 -2 
C 30.09375 -2 33.5 -0.203125 37.5 5.3125 
L 37.5 -8.359375 
L 37.5 -12.34375 
C 37.5 -16.3125 36.40625 -17 29.90625 -17 
L 28.796875 -17 
L 28.796875 -20.609375 
L 54.796875 -20.609375 
L 54.796875 -17 
L 54.40625 -17 
C 48 -17 46.90625 -16.3125 46.90625 -12.34375 
L 46.90625 -8.359375 
L 46.90625 30.65625 
C 47 36.421875 47 36.828125 47 37.9375 
C 47.203125 39.859375 47.5 41.265625 48.59375 46.484375 
z
M 25.90625 43.6875 
C 29.90625 43.6875 33.5 41.0625 35.40625 36.828125 
C 36.90625 33.484375 37.5 29.859375 37.5 24.09375 
C 37.5 10.265625 33.59375 3.390625 25.796875 3.390625 
C 18.40625 3.390625 14.09375 10.359375 14.09375 22.484375 
C 14.09375 36.625 18 43.6875 25.90625 43.6875 
z
" id="Century_Schoolbook_L_Roman-113"/>
      <path d="M 41.203125 -0.703125 
L 59.40625 0 
L 59.40625 4.296875 
L 56.90625 4.296875 
C 51.40625 4.296875 50.59375 5.203125 50.59375 11.671875 
L 50.59375 47 
L 31.796875 46 
L 31.796875 41.6875 
L 36.90625 41.6875 
C 40.59375 41.6875 41.203125 40.96875 41.203125 36.5625 
L 41.203125 23.921875 
C 41.203125 18.0625 40.59375 14.671875 39.09375 11.28125 
C 37 6.765625 33 4.09375 28.09375 4.09375 
C 25 4.09375 22.40625 5.21875 21.09375 7.28125 
C 19.796875 9.234375 19.59375 10.25 19.59375 15.90625 
L 19.59375 47 
L 2.09375 46 
L 2.09375 41.6875 
L 5.90625 41.6875 
C 9.59375 41.6875 10.203125 40.96875 10.203125 36.5625 
L 10.203125 14.359375 
C 10.203125 9.125 10.59375 6.765625 12.09375 4.40625 
C 14.796875 0.296875 19.59375 -2 25.59375 -2 
C 32.203125 -2 36.796875 0.6875 41.203125 7.171875 
z
" id="Century_Schoolbook_L_Roman-117"/>
      <path d="M 20 47 
L 2.703125 46 
L 2.703125 41.6875 
L 6.296875 41.6875 
C 10 41.6875 10.59375 40.984375 10.59375 36.625 
L 10.59375 12.40625 
L 10.59375 8.359375 
C 10.59375 4.296875 9.5 3.59375 3.09375 3.59375 
L 2.703125 3.59375 
L 2.703125 0 
L 28 0 
L 28 3.59375 
L 27.59375 3.59375 
C 21.09375 3.59375 20 4.296875 20 8.359375 
L 20 12.40625 
L 20 22.953125 
C 20 27.90625 20.703125 32.46875 21.796875 34.796875 
C 23.90625 38.796875 28.40625 41.890625 32.703125 41.890625 
C 35.296875 41.890625 38.296875 40.390625 39.796875 38.40625 
C 41.296875 36.296875 42 33.21875 42 28.421875 
L 42 12.265625 
L 42 8.28125 
C 42 4.296875 40.90625 3.59375 34.40625 3.59375 
L 34 3.59375 
L 34 0 
L 59.296875 0 
L 59.296875 3.59375 
L 58.90625 3.59375 
C 52.5 3.59375 51.40625 4.296875 51.40625 8.28125 
L 51.40625 12.265625 
L 51.40625 27.921875 
C 51.40625 35.109375 51.09375 36.90625 49.296875 40.296875 
C 46.796875 45.09375 41.703125 48 35.796875 48 
C 29.40625 48 24.40625 44.984375 20 38.40625 
z
" id="Century_Schoolbook_L_Roman-110"/>
      <path d="M 38.703125 14.296875 
C 35.5 7.015625 32.09375 4.09375 26.90625 4.09375 
C 18.90625 4.09375 13.90625 11.46875 13.90625 23.28125 
C 13.90625 35.5 18.796875 43.6875 26.203125 43.6875 
C 29.203125 43.6875 31.796875 42.28125 31.796875 40.65625 
C 31.796875 40.359375 31.59375 40.046875 31.203125 39.453125 
C 29.59375 37.53125 29.203125 36.515625 29.203125 34.796875 
C 29.203125 31.46875 31.703125 29.140625 35.203125 29.140625 
C 38.703125 29.140625 41.296875 31.96875 41.296875 36.015625 
C 41.296875 42.78125 34.59375 48 25.703125 48 
C 12.703125 48 3.40625 37.21875 3.40625 22.171875 
C 3.40625 7.828125 11.90625 -2 24.296875 -2 
C 33.203125 -2 38.296875 2.09375 42.59375 12.78125 
z
" id="Century_Schoolbook_L_Roman-99"/>
      <path d="M 30 12.71875 
L 19 38.71875 
C 18.59375 39.640625 18.40625 40.34375 18.40625 40.84375 
C 18.40625 42.671875 19.59375 43.375 23 43.375 
L 25.09375 43.375 
L 25.09375 47 
L 1.296875 47 
L 1.296875 43.375 
L 2.40625 43.375 
C 5.59375 43.375 7.40625 41.953125 9.203125 37.90625 
L 25.5 0.578125 
L 23.796875 -2.953125 
C 20.203125 -10.640625 15.5 -16 12.296875 -16 
C 11.40625 -16 10.703125 -15.609375 10.703125 -15 
C 10.703125 -14.796875 10.796875 -14.484375 10.90625 -14.078125 
C 11.203125 -13.171875 11.40625 -12.265625 11.40625 -11.453125 
C 11.40625 -8.828125 9.203125 -6.90625 6.296875 -6.90625 
C 2.796875 -6.90625 0.296875 -9.53125 0.296875 -13.171875 
C 0.296875 -17.609375 4.203125 -20.90625 9.40625 -20.90625 
C 14.703125 -20.90625 19.203125 -18.3125 23.203125 -12.875 
C 26.296875 -8.625 28.296875 -4.578125 32.703125 6.65625 
L 44.09375 35.1875 
C 46.59375 41.359375 48.703125 43.375 52.5 43.375 
L 53.09375 43.375 
L 53.09375 47 
L 33.09375 47 
L 33.09375 43.375 
L 34.703125 43.375 
C 38.5 43.375 40.09375 42.265625 40.09375 39.640625 
C 40.09375 38.625 39.796875 37.3125 39.09375 35.59375 
z
" id="Century_Schoolbook_L_Roman-121"/>
     </defs>
     <g transform="translate(216.855 273.11996)scale(0.18 -0.18)">
      <use transform="translate(0 -1.570628)scale(0.996264)" xlink:href="#Century_Schoolbook_L_Roman-70"/>
      <use transform="translate(65.453934 -1.570628)scale(0.996264)" xlink:href="#Century_Schoolbook_L_Roman-114"/>
      <use transform="translate(109.687503 -1.570628)scale(0.996264)" xlink:href="#Century_Schoolbook_L_Roman-101"/>
      <use transform="translate(159.500704 -1.570628)scale(0.996264)" xlink:href="#Century_Schoolbook_L_Roman-113"/>
      <use transform="translate(214.892381 -1.570628)scale(0.996264)" xlink:href="#Century_Schoolbook_L_Roman-117"/>
      <use transform="translate(275.764011 -1.570628)scale(0.996264)" xlink:href="#Century_Schoolbook_L_Roman-101"/>
      <use transform="translate(325.577212 -1.570628)scale(0.996264)" xlink:href="#Century_Schoolbook_L_Roman-110"/>
      <use transform="translate(386.448842 -1.570628)scale(0.996264)" xlink:href="#Century_Schoolbook_L_Roman-99"/>
      <use transform="translate(430.682411 -1.570628)scale(0.996264)" xlink:href="#Century_Schoolbook_L_Roman-121"/>
     </g>
    </g>
   </g>
   <g id="matplotlib.axis_2">
    <g id="ytick_1">
     <g id="line2d_5">
      <defs>
       <path d="M 0 0 
L -3.5 0 
" id="m451a4743da" style="stroke:#000000;stroke-width:0.8;"/>
      </defs>
      <g>
       <use style="stroke:#000000;stroke-width:0.8;" x="103.70949" xlink:href="#m451a4743da" y="230.75419"/>
      </g>
     </g>
     <g id="text_6">
      <!-- $0.000000$ -->
      <defs>
       <path d="M 18.40625 4.796875 
C 18.40625 7.6875 16 9.6875 13.59375 9.6875 
C 10.703125 9.6875 8.703125 7.296875 8.703125 4.890625 
C 8.703125 2 11.09375 0 13.5 0 
C 16.40625 0 18.40625 2.390625 18.40625 4.796875 
z
" id="CMMI12-58"/>
      </defs>
      <g transform="translate(34.02782 237.423165)scale(0.18 -0.18)">
       <use transform="scale(0.996264)" xlink:href="#CMR17-48"/>
       <use transform="translate(45.690477 0)scale(0.996264)" xlink:href="#CMMI12-58"/>
       <use transform="translate(72.787654 0)scale(0.996264)" xlink:href="#CMR17-48"/>
       <use transform="translate(118.478131 0)scale(0.996264)" xlink:href="#CMR17-48"/>
       <use transform="translate(164.168608 0)scale(0.996264)" xlink:href="#CMR17-48"/>
       <use transform="translate(209.859086 0)scale(0.996264)" xlink:href="#CMR17-48"/>
       <use transform="translate(255.549563 0)scale(0.996264)" xlink:href="#CMR17-48"/>
       <use transform="translate(301.24004 0)scale(0.996264)" xlink:href="#CMR17-48"/>
      </g>
     </g>
    </g>
    <g id="ytick_2">
     <g id="line2d_6">
      <g>
       <use style="stroke:#000000;stroke-width:0.8;" x="103.70949" xlink:href="#m451a4743da" y="165.779996"/>
      </g>
     </g>
     <g id="text_7">
      <!-- $0.000005$ -->
      <g transform="translate(34.02782 172.448971)scale(0.18 -0.18)">
       <use transform="scale(0.996264)" xlink:href="#CMR17-48"/>
       <use transform="translate(45.690477 0)scale(0.996264)" xlink:href="#CMMI12-58"/>
       <use transform="translate(72.787654 0)scale(0.996264)" xlink:href="#CMR17-48"/>
       <use transform="translate(118.478131 0)scale(0.996264)" xlink:href="#CMR17-48"/>
       <use transform="translate(164.168608 0)scale(0.996264)" xlink:href="#CMR17-48"/>
       <use transform="translate(209.859086 0)scale(0.996264)" xlink:href="#CMR17-48"/>
       <use transform="translate(255.549563 0)scale(0.996264)" xlink:href="#CMR17-48"/>
       <use transform="translate(301.24004 0)scale(0.996264)" xlink:href="#CMR17-53"/>
      </g>
     </g>
    </g>
    <g id="ytick_3">
     <g id="line2d_7">
      <g>
       <use style="stroke:#000000;stroke-width:0.8;" x="103.70949" xlink:href="#m451a4743da" y="100.805803"/>
      </g>
     </g>
     <g id="text_8">
      <!-- $0.000010$ -->
      <g transform="translate(34.02782 107.474778)scale(0.18 -0.18)">
       <use transform="scale(0.996264)" xlink:href="#CMR17-48"/>
       <use transform="translate(45.690477 0)scale(0.996264)" xlink:href="#CMMI12-58"/>
       <use transform="translate(72.787654 0)scale(0.996264)" xlink:href="#CMR17-48"/>
       <use transform="translate(118.478131 0)scale(0.996264)" xlink:href="#CMR17-48"/>
       <use transform="translate(164.168608 0)scale(0.996264)" xlink:href="#CMR17-48"/>
       <use transform="translate(209.859086 0)scale(0.996264)" xlink:href="#CMR17-48"/>
       <use transform="translate(255.549563 0)scale(0.996264)" xlink:href="#CMR17-49"/>
       <use transform="translate(301.24004 0)scale(0.996264)" xlink:href="#CMR17-48"/>
      </g>
     </g>
    </g>
    <g id="ytick_4">
     <g id="line2d_8">
      <g>
       <use style="stroke:#000000;stroke-width:0.8;" x="103.70949" xlink:href="#m451a4743da" y="35.831609"/>
      </g>
     </g>
     <g id="text_9">
      <!-- $0.000015$ -->
      <g transform="translate(34.02782 42.500584)scale(0.18 -0.18)">
       <use transform="scale(0.996264)" xlink:href="#CMR17-48"/>
       <use transform="translate(45.690477 0)scale(0.996264)" xlink:href="#CMMI12-58"/>
       <use transform="translate(72.787654 0)scale(0.996264)" xlink:href="#CMR17-48"/>
       <use transform="translate(118.478131 0)scale(0.996264)" xlink:href="#CMR17-48"/>
       <use transform="translate(164.168608 0)scale(0.996264)" xlink:href="#CMR17-48"/>
       <use transform="translate(209.859086 0)scale(0.996264)" xlink:href="#CMR17-48"/>
       <use transform="translate(255.549563 0)scale(0.996264)" xlink:href="#CMR17-49"/>
       <use transform="translate(301.24004 0)scale(0.996264)" xlink:href="#CMR17-53"/>
      </g>
     </g>
    </g>
    <g id="text_10">
     <!-- FFT Magnitude -->
     <defs>
      <path d="M 63.296875 72 
L 3.40625 72 
L 1.90625 44.265625 
L 6.203125 44.265625 
C 6.90625 49.25 7.796875 53.046875 8.90625 56.234375 
C 11.5 63.5 16.296875 67.296875 23.09375 67.296875 
C 26.40625 67.296875 27.796875 66.203125 27.796875 63.703125 
L 27.796875 12.265625 
L 27.796875 9.375 
C 27.796875 5.1875 26.90625 4.6875 18.796875 4.6875 
L 16.203125 4.6875 
L 16.203125 0 
L 50.5 0 
L 50.5 4.6875 
L 47.90625 4.6875 
C 39.90625 4.6875 39 5.1875 39 9.375 
L 39 12.265625 
L 39 63.703125 
C 39 66.203125 40.40625 67.296875 43.703125 67.296875 
C 49.796875 67.296875 54.703125 63.90625 57.203125 57.921875 
C 58.703125 54.234375 59.703125 49.953125 60.5 44.265625 
L 64.796875 44.265625 
z
" id="Century_Schoolbook_L_Roman-84"/>
      <path d="M 28.703125 72 
L 2.90625 72 
L 2.90625 67.296875 
L 4.796875 67.296875 
C 12.90625 67.296875 13.796875 66.796875 13.796875 62.609375 
L 13.796875 59.71875 
L 13.796875 21.546875 
C 13.796875 7.984375 11.796875 5.09375 2.203125 4.6875 
L 2.203125 0 
L 30.703125 0 
L 30.703125 4.6875 
C 21.203125 5.09375 19.203125 7.984375 19.203125 21.546875 
L 19.203125 65.59375 
L 43 0 
L 47 0 
L 69.296875 65.59375 
L 69.296875 12.265625 
L 69.296875 9.375 
C 69.296875 5.09375 68.40625 4.6875 60.296875 4.6875 
L 58.5 4.6875 
L 58.5 0 
L 91.296875 0 
L 91.296875 4.6875 
L 89.5 4.6875 
C 81.40625 4.6875 80.5 5.09375 80.5 9.375 
L 80.5 12.265625 
L 80.5 59.71875 
L 80.5 62.609375 
C 80.5 66.796875 81.40625 67.296875 89.5 67.296875 
L 91.296875 67.296875 
L 91.296875 72 
L 66.203125 72 
L 47.90625 18.84375 
z
" id="Century_Schoolbook_L_Roman-77"/>
      <path d="M 45.203125 31.96875 
C 45.203125 38.34375 44.09375 41.578125 41.203125 43.984375 
C 37.90625 46.59375 33 48 26.59375 48 
C 15.40625 48 7.09375 42.6875 7.09375 35.40625 
C 7.09375 31.578125 9.40625 29.140625 12.90625 29.140625 
C 16 29.140625 18.296875 31.265625 18.296875 34.296875 
C 18.296875 35.609375 17.796875 37.03125 16.796875 38.4375 
C 16.203125 39.140625 16.09375 39.453125 16.09375 39.75 
C 16.09375 41.875 20.203125 43.6875 25 43.6875 
C 28.09375 43.6875 31.59375 42.6875 33.203125 41.171875 
C 35.09375 39.546875 35.796875 37.125 35.796875 32.578125 
L 35.796875 28.640625 
C 25.296875 26.828125 22.09375 26.015625 17.203125 24.09375 
C 8.59375 20.859375 4.40625 16.125 4.40625 9.75 
C 4.40625 2.59375 10.09375 -2 18.90625 -2 
C 25.796875 -2 32 0.796875 36.296875 5.921875 
C 37.90625 1 40.40625 -1 45.09375 -1 
C 49.59375 -1 54.296875 1.890625 54.296875 4.796875 
C 54.296875 5.5 53.796875 6 53.296875 6 
C 52.90625 6 52.5 5.890625 51.796875 5.59375 
C 50.203125 5 49.796875 4.890625 49 4.890625 
C 46.203125 4.890625 45.203125 6.796875 45.203125 11.796875 
z
M 35.796875 19.6875 
C 35.796875 13.6875 35.5 12.296875 33.796875 9.6875 
C 31.296875 5.796875 26.703125 3.296875 22.40625 3.296875 
C 17.90625 3.296875 14.5 6.59375 14.5 11.09375 
C 14.5 15.296875 16.59375 18.296875 21 20.390625 
C 24.09375 21.796875 28 22.796875 35.796875 24.09375 
z
" id="Century_Schoolbook_L_Roman-97"/>
      <path d="M 19.59375 7.59375 
C 14.09375 7.6875 13.796875 7.796875 12.59375 8.484375 
C 11.90625 8.890625 11.40625 9.984375 11.40625 11.078125 
C 11.40625 14.0625 14.09375 15.34375 20.796875 15.546875 
C 30.296875 15.75 31.796875 15.953125 35.09375 17.4375 
C 41.09375 20.125 44.5 25.296875 44.5 31.859375 
C 44.5 35.84375 43.59375 38.328125 40.796875 41.609375 
C 42.5 43.390625 43.40625 44 44.203125 44 
C 44.703125 44 45 43.703125 45.203125 42.59375 
C 45.59375 40.21875 47.203125 38.921875 49.703125 38.921875 
C 52.203125 38.921875 54.203125 41.015625 54.203125 43.703125 
C 54.203125 47.09375 51.5 49.5 47.59375 49.5 
C 44.40625 49.5 42.59375 48.5 38 44.296875 
C 33.796875 46.984375 30.59375 48 25.59375 48 
C 13.703125 48 5.90625 41.40625 5.90625 31.484375 
C 5.90625 25.640625 9.09375 20.578125 14.296875 18.203125 
C 7.59375 16.71875 4.796875 13.734375 4.796875 8.28125 
C 4.796875 3.890625 6.796875 1.296875 11.5 -0.3125 
C 5.296875 -2.5 2.296875 -5.703125 2.296875 -9.8125 
C 2.296875 -16.40625 10 -20.109375 23.40625 -20.109375 
C 40.09375 -20.109375 48.5 -14.8125 48.5 -4.3125 
C 48.5 0.6875 46.203125 4.6875 42.5 6.1875 
C 39.90625 7.1875 36.703125 7.59375 29.796875 7.59375 
z
M 25.5 43.6875 
C 31.796875 43.6875 35.296875 39.328125 35.296875 31.6875 
C 35.296875 23.953125 31.5 19.296875 25.09375 19.296875 
C 18.90625 19.296875 15 23.953125 15 31.390625 
C 15 39.234375 18.796875 43.6875 25.5 43.6875 
z
M 24.59375 -1 
C 32.90625 -1 33.5 -1 35 -1.203125 
C 39 -1.609375 41.5 -3.8125 41.5 -7 
C 41.5 -12.703125 35 -16 23.796875 -16 
C 15.40625 -16 10.59375 -13.5 10.59375 -9 
C 10.59375 -5.703125 12.40625 -3.5 17.203125 -1 
z
" id="Century_Schoolbook_L_Roman-103"/>
      <path d="M 20.59375 47 
L 1.796875 46 
L 1.796875 41.6875 
L 6.90625 41.6875 
C 10.59375 41.6875 11.203125 40.984375 11.203125 36.625 
L 11.203125 12.40625 
L 11.203125 8.359375 
C 11.203125 4.296875 10.09375 3.59375 3.703125 3.59375 
L 3 3.59375 
L 3 0 
L 28.90625 0 
L 28.90625 3.59375 
L 28.203125 3.59375 
C 21.703125 3.59375 20.59375 4.296875 20.59375 8.359375 
L 20.59375 12.40625 
z
M 15.90625 72 
C 12.703125 72 10.09375 69.390625 10.09375 66.1875 
C 10.09375 63.09375 12.703125 60.390625 15.796875 60.390625 
C 19.09375 60.390625 21.703125 62.984375 21.703125 66.1875 
C 21.703125 69.390625 19.09375 72 15.90625 72 
z
" id="Century_Schoolbook_L_Roman-105"/>
      <path d="M 19.40625 47 
L 19.40625 66.796875 
L 15.296875 66.796875 
C 14.296875 53.796875 9.90625 47.1875 1.796875 46.59375 
L 1.796875 42.6875 
L 10 42.6875 
L 10 16.578125 
C 10 9.421875 10.203125 6.859375 11.203125 4.5 
C 12.796875 0.296875 16.796875 -2 22.59375 -2 
C 26.5 -2 29.90625 -0.8125 32.203125 1.390625 
C 35.5 4.609375 37.40625 10.03125 37.40625 15.65625 
C 37.40625 16.28125 37.40625 17 37.296875 18.015625 
L 33.09375 18.015625 
C 32.796875 8.796875 30.203125 4.09375 25.296875 4.09375 
C 23 4.09375 21 5.328125 20.296875 7.0625 
C 19.703125 8.5 19.40625 11.0625 19.40625 14.734375 
L 19.40625 42.6875 
L 34.09375 42.6875 
L 34.09375 47 
z
" id="Century_Schoolbook_L_Roman-116"/>
      <path d="M 38 -0.703125 
L 55.40625 0 
L 55.40625 4.296875 
L 53.59375 4.296875 
C 48.203125 4.296875 47.40625 5.296875 47.40625 11.625 
L 47.40625 74 
L 27.796875 73 
L 27.796875 68.6875 
L 33.703125 68.6875 
C 37.296875 68.6875 38 67.96875 38 63.5625 
L 38 40.578125 
C 34.296875 45.6875 30 48 24.203125 48 
C 12.90625 48 4.296875 37.03125 4.296875 22.484375 
C 4.296875 8.140625 12.59375 -2 24.203125 -2 
C 30.5 -2 34.796875 0.6875 38 6.71875 
z
M 26.203125 42.59375 
C 30.296875 42.59375 34.203125 39.5625 36 34.90625 
C 37.203125 31.875 37.90625 27.640625 37.90625 22.796875 
C 37.90625 11.078125 33.296875 3.390625 26.09375 3.390625 
C 19.09375 3.390625 14.796875 10.0625 14.796875 21.28125 
C 14.796875 27.234375 15.40625 31.78125 16.703125 35.21875 
C 18.40625 39.65625 22.09375 42.59375 26.203125 42.59375 
z
" id="Century_Schoolbook_L_Roman-100"/>
     </defs>
     <g transform="translate(25.33795 188.480455)rotate(-90)scale(0.18 -0.18)">
      <use transform="translate(0 -1.570628)scale(0.996264)" xlink:href="#Century_Schoolbook_L_Roman-70"/>
      <use transform="translate(66.450031 -1.570628)scale(0.996264)" xlink:href="#Century_Schoolbook_L_Roman-70"/>
      <use transform="translate(132.900062 -1.570628)scale(0.996264)" xlink:href="#Century_Schoolbook_L_Roman-84"/>
      <use transform="translate(227.045263 -1.570628)scale(0.996264)" xlink:href="#Century_Schoolbook_L_Roman-77"/>
      <use transform="translate(321.092032 -1.570628)scale(0.996264)" xlink:href="#Century_Schoolbook_L_Roman-97"/>
      <use transform="translate(376.483709 -1.570628)scale(0.996264)" xlink:href="#Century_Schoolbook_L_Roman-103"/>
      <use transform="translate(429.983053 -1.570628)scale(0.996264)" xlink:href="#Century_Schoolbook_L_Roman-110"/>
      <use transform="translate(490.854684 -1.570628)scale(0.996264)" xlink:href="#Century_Schoolbook_L_Roman-105"/>
      <use transform="translate(522.235997 -1.570628)scale(0.996264)" xlink:href="#Century_Schoolbook_L_Roman-116"/>
      <use transform="translate(560.989703 -1.570628)scale(0.996264)" xlink:href="#Century_Schoolbook_L_Roman-117"/>
      <use transform="translate(621.861334 -1.570628)scale(0.996264)" xlink:href="#Century_Schoolbook_L_Roman-100"/>
      <use transform="translate(679.046821 -1.570628)scale(0.996264)" xlink:href="#Century_Schoolbook_L_Roman-101"/>
     </g>
    </g>
   </g>
   <g id="line2d_9">
    <path clip-path="url(#p3982efc63a)" d="M 103.70949 229.110921 
L 104.969613 213.476179 
L 106.229735 199.514841 
L 107.489858 204.553607 
L 108.74998 210.116956 
L 110.010103 210.813827 
L 111.270225 208.353607 
L 112.530348 202.688451 
L 113.79047 226.600597 
L 115.050593 164.899502 
L 116.310715 155.075784 
L 117.570838 205.979202 
L 118.83096 219.511371 
L 120.091083 227.317753 
L 121.351205 217.139186 
L 122.611328 213.896346 
L 123.87145 224.12095 
L 125.131573 219.805535 
L 126.391696 198.452563 
L 127.651818 173.790771 
L 128.911941 210.756909 
L 130.172063 217.999067 
L 131.432186 220.985546 
L 132.692308 219.03101 
L 133.952431 211.77145 
L 135.212553 213.035002 
L 136.472676 212.658977 
L 137.732798 207.164891 
L 138.992921 207.512536 
L 140.253043 215.763403 
L 141.513166 204.999962 
L 142.773288 177.889599 
L 145.293533 211.880329 
L 146.553656 214.686811 
L 147.813779 212.426662 
L 149.073901 212.289157 
L 151.594146 206.60835 
L 152.854269 213.613641 
L 154.114391 218.813614 
L 155.374514 217.526563 
L 156.634636 217.528974 
L 157.894759 208.450989 
L 159.154881 225.63596 
L 160.415004 223.30237 
L 161.675126 210.58324 
L 162.935249 213.042202 
L 164.195371 220.421075 
L 165.455494 221.677212 
L 167.975739 216.200878 
L 169.235862 190.556625 
L 170.495984 182.30335 
L 171.756107 209.335288 
L 174.276352 219.375704 
L 175.536474 226.714792 
L 176.796597 225.644555 
L 178.056719 221.767516 
L 179.316842 211.021099 
L 180.576964 226.076635 
L 181.837087 218.515614 
L 183.097209 205.958345 
L 184.357332 217.316275 
L 185.617454 219.285037 
L 188.1377 207.824663 
L 189.397822 224.103958 
L 190.657945 227.398813 
L 191.918067 221.348127 
L 193.17819 209.672938 
L 194.438312 206.423195 
L 195.698435 222.729563 
L 196.958557 222.516533 
L 198.21868 211.820746 
L 199.478802 222.287218 
L 200.738925 227.404397 
L 201.999047 227.772062 
L 203.25917 216.479667 
L 204.519292 215.356422 
L 205.779415 223.940576 
L 208.29966 228.73741 
L 209.559783 218.438163 
L 210.819905 205.366558 
L 212.080028 210.11394 
L 213.34015 218.720425 
L 214.600273 226.141323 
L 215.860395 209.864615 
L 217.120518 208.234885 
L 218.38064 203.969435 
L 219.640763 211.239135 
L 220.900885 227.671385 
L 222.161008 227.600787 
L 223.42113 221.780524 
L 224.681253 219.254871 
L 225.941375 212.203131 
L 227.201498 207.795636 
L 228.46162 207.590904 
L 229.721743 197.134281 
L 230.981866 212.167115 
L 232.241988 214.183187 
L 233.502111 183.321692 
L 234.762233 158.835165 
L 236.022356 165.57225 
L 237.282478 195.502093 
L 238.542601 210.874308 
L 239.802723 212.402806 
L 241.062846 209.548583 
L 242.322968 209.174471 
L 243.583091 214.515657 
L 244.843213 189.279156 
L 246.103336 202.122583 
L 247.363458 217.602078 
L 248.623581 204.857127 
L 249.883703 208.282815 
L 251.143826 217.306466 
L 252.403949 220.050525 
L 253.664071 217.20255 
L 254.924194 186.553148 
L 256.184316 180.971061 
L 257.444439 86.050307 
L 258.704561 120.958103 
L 259.964684 214.724419 
L 261.224806 215.671585 
L 262.484929 216.372255 
L 263.745051 218.743765 
L 265.005174 224.395667 
L 266.265296 211.848927 
L 267.525419 198.085394 
L 268.785541 203.627894 
L 270.045664 189.871933 
L 271.305787 209.835237 
L 272.565909 226.403302 
L 273.826032 226.466921 
L 275.086154 216.364145 
L 276.346277 197.815529 
L 277.606399 206.546252 
L 278.866522 207.564071 
L 280.126644 196.529845 
L 281.386767 204.859014 
L 282.646889 159.759438 
L 283.907012 181.051883 
L 285.167134 192.163804 
L 286.427257 197.30172 
L 287.687379 210.967736 
L 288.947502 209.285782 
L 290.207624 208.594108 
L 291.467747 202.821472 
L 292.72787 210.066628 
L 293.987992 227.54745 
L 295.248115 216.414056 
L 296.508237 219.001467 
L 297.76836 211.898911 
L 299.028482 219.95453 
L 300.288605 224.60597 
L 301.548727 222.720721 
L 302.80885 203.00995 
L 304.068972 188.374869 
L 305.329095 204.952057 
L 306.589217 200.948415 
L 307.84934 196.253483 
L 309.109462 203.061657 
L 310.369585 203.493018 
L 311.629707 207.810043 
L 312.88983 209.332999 
L 314.149953 225.025431 
L 315.410075 226.624198 
L 316.670198 219.011185 
L 317.93032 212.955335 
L 319.190443 219.044087 
L 320.450565 223.717239 
L 321.710688 216.701915 
L 322.97081 214.997632 
L 324.230933 220.399655 
L 325.491055 215.499242 
L 326.751178 212.879138 
L 328.0113 205.407096 
L 329.271423 213.20304 
L 330.531545 206.380048 
L 331.791668 217.584865 
L 333.05179 210.128137 
L 334.311913 222.645039 
L 335.572036 220.852257 
L 336.832158 201.069516 
L 339.352403 223.935978 
L 340.612526 221.85623 
L 341.872648 218.546862 
L 343.132771 211.714198 
L 344.392893 203.90753 
L 345.653016 194.93716 
L 346.913138 200.828069 
L 348.173261 220.702805 
L 349.433383 207.726041 
L 350.693506 197.397615 
L 351.953628 223.249757 
L 353.213751 220.782295 
L 354.473873 202.901607 
L 355.733996 198.78702 
L 356.994119 215.603152 
L 358.254241 215.572632 
L 359.514364 225.457382 
L 360.774486 213.490107 
L 362.034609 215.425253 
L 363.294731 198.487299 
L 364.554854 204.493696 
L 365.814976 202.571993 
L 367.075099 187.136884 
L 368.335221 208.221962 
L 369.595344 209.776164 
L 372.115589 220.973125 
L 373.375711 213.54538 
L 374.635834 193.732042 
L 375.895957 216.787774 
L 377.156079 220.669753 
L 378.416202 218.245719 
L 379.676324 206.265989 
L 380.936447 185.550288 
L 382.196569 199.96621 
L 383.456692 211.598629 
L 384.716814 207.801709 
L 385.976937 209.051609 
L 387.237059 208.588434 
L 388.497182 209.252232 
L 389.757304 214.487236 
L 391.017427 207.736366 
L 392.277549 217.673652 
L 393.537672 221.635596 
L 394.797794 220.774946 
L 396.057917 223.463159 
L 397.31804 218.421068 
L 398.578162 204.942411 
L 399.838285 203.486381 
L 401.098407 217.018112 
L 402.35853 207.662582 
L 403.618652 193.927056 
L 404.878775 197.830778 
L 406.138897 216.88446 
L 407.39902 228.204594 
L 408.659142 218.154666 
L 409.919265 220.139332 
L 411.179387 217.625099 
L 412.43951 216.213898 
L 413.699632 227.163213 
L 414.959755 223.093066 
L 416.219877 211.768745 
L 417.48 215.219371 
L 417.48 215.219371 
" style="fill:none;stroke:#e41a1c;stroke-linecap:square;stroke-width:2;"/>
   </g>
   <g id="patch_3">
    <path d="M 103.70949 230.75419 
L 103.70949 14.52 
" style="fill:none;stroke:#000000;stroke-linecap:square;stroke-linejoin:miter;stroke-width:0.8;"/>
   </g>
   <g id="patch_4">
    <path d="M 417.48 230.75419 
L 417.48 14.52 
" style="fill:none;"/>
   </g>
   <g id="patch_5">
    <path d="M 103.70949 230.75419 
L 417.48 230.75419 
" style="fill:none;stroke:#000000;stroke-linecap:square;stroke-linejoin:miter;stroke-width:0.8;"/>
   </g>
   <g id="patch_6">
    <path d="M 103.70949 14.52 
L 417.48 14.52 
" style="fill:none;"/>
   </g>
   <g id="legend_1">
    <g id="patch_7">
     <path d="M 329.46437 44.05585 
L 412.68 44.05585 
Q 415.88 44.05585 415.88 40.85585 
L 415.88 19.32 
Q 415.88 16.12 412.68 16.12 
L 329.46437 16.12 
Q 326.26437 16.12 326.26437 19.32 
L 326.26437 40.85585 
Q 326.26437 44.05585 329.46437 44.05585 
z
" style="fill:#ffffff;stroke:#000000;stroke-linejoin:miter;"/>
    </g>
    <g id="line2d_10">
     <path d="M 332.66437 28.77596 
L 364.66437 28.77596 
" style="fill:none;stroke:#e41a1c;stroke-linecap:square;stroke-width:2;"/>
    </g>
    <g id="line2d_11"/>
    <g id="text_11">
     <!-- FFT -->
     <g transform="translate(377.46437 34.37596)scale(0.16 -0.16)">
      <use transform="scale(0.996264)" xlink:href="#Century_Schoolbook_L_Roman-70"/>
      <use transform="translate(66.450031 0)scale(0.996264)" xlink:href="#Century_Schoolbook_L_Roman-70"/>
      <use transform="translate(132.900062 0)scale(0.996264)" xlink:href="#Century_Schoolbook_L_Roman-84"/>
     </g>
    </g>
   </g>
  </g>
 </g>
 <defs>
  <clipPath id="p3982efc63a">
   <rect height="216.23419" width="313.77051" x="103.70949" y="14.52"/>
  </clipPath>
 </defs>
</svg>
