<?xml version="1.0" encoding="utf-8" standalone="no"?>
<!DOCTYPE svg PUBLIC "-//W3C//DTD SVG 1.1//EN"
  "http://www.w3.org/Graphics/SVG/1.1/DTD/svg11.dtd">
<!-- Created with matplotlib (https://matplotlib.org/) -->
<svg height="288pt" version="1.1" viewBox="0 0 432 288" width="432pt" xmlns="http://www.w3.org/2000/svg" xmlns:xlink="http://www.w3.org/1999/xlink">
 <defs>
  <style type="text/css">
*{stroke-linecap:butt;stroke-linejoin:round;}
  </style>
 </defs>
 <g id="figure_1">
  <g id="patch_1">
   <path d="M 0 288 
L 432 288 
L 432 0 
L 0 0 
z
" style="fill:#ffffff;"/>
  </g>
  <g id="axes_1">
   <g id="patch_2">
    <path d="M 70.68898 230.75419 
L 417.48 230.75419 
L 417.48 14.52 
L 70.68898 14.52 
z
" style="fill:#ffffff;"/>
   </g>
   <g id="matplotlib.axis_1">
    <g id="xtick_1">
     <g id="line2d_1">
      <defs>
       <path d="M 0 0 
L 0 3.5 
" id="m10bf0a1c15" style="stroke:#000000;stroke-width:0.8;"/>
      </defs>
      <g>
       <use style="stroke:#000000;stroke-width:0.8;" x="140.047184" xlink:href="#m10bf0a1c15" y="230.75419"/>
      </g>
     </g>
     <g id="text_1">
      <!-- $10$ -->
      <defs>
       <path d="M 26.59375 63.796875 
C 26.59375 65.890625 26.5 66 25.09375 66 
C 21.203125 61.359375 15.296875 59.890625 9.703125 59.6875 
C 9.40625 59.6875 8.90625 59.6875 8.796875 59.5 
C 8.703125 59.296875 8.703125 59.09375 8.703125 57 
C 11.796875 57 17 57.59375 21 59.984375 
L 21 7.296875 
C 21 3.796875 20.796875 2.59375 12.203125 2.59375 
L 9.203125 2.59375 
L 9.203125 0 
C 14 0.09375 19 0.1875 23.796875 0.1875 
C 28.59375 0.1875 33.59375 0.09375 38.40625 0 
L 38.40625 2.59375 
L 35.40625 2.59375 
C 26.796875 2.59375 26.59375 3.6875 26.59375 7.296875 
z
" id="CMR17-49"/>
       <path d="M 42 31.84375 
C 42 37.96875 41.90625 48.421875 37.703125 56.453125 
C 34 63.484375 28.09375 66 22.90625 66 
C 18.09375 66 12 63.78125 8.203125 56.5625 
C 4.203125 49.015625 3.796875 39.671875 3.796875 31.84375 
C 3.796875 26.109375 3.90625 17.375 7 9.734375 
C 11.296875 -0.609375 19 -2 22.90625 -2 
C 27.5 -2 34.5 -0.109375 38.59375 9.4375 
C 41.59375 16.375 42 24.5 42 31.84375 
z
M 22.90625 -0.40625 
C 16.5 -0.40625 12.703125 5.125 11.296875 12.75 
C 10.203125 18.6875 10.203125 27.328125 10.203125 32.953125 
C 10.203125 40.6875 10.203125 47.109375 11.5 53.234375 
C 13.40625 61.78125 19 64.390625 22.90625 64.390625 
C 27 64.390625 32.296875 61.671875 34.203125 53.4375 
C 35.5 47.71875 35.59375 40.984375 35.59375 32.953125 
C 35.59375 26.421875 35.59375 18.375 34.40625 12.453125 
C 32.296875 1.5 26.40625 -0.40625 22.90625 -0.40625 
z
" id="CMR17-48"/>
      </defs>
      <g transform="translate(131.792059 251.09214)scale(0.18 -0.18)">
       <use transform="scale(0.996264)" xlink:href="#CMR17-49"/>
       <use transform="translate(45.690477 0)scale(0.996264)" xlink:href="#CMR17-48"/>
      </g>
     </g>
    </g>
    <g id="xtick_2">
     <g id="line2d_2">
      <g>
       <use style="stroke:#000000;stroke-width:0.8;" x="209.405388" xlink:href="#m10bf0a1c15" y="230.75419"/>
      </g>
     </g>
     <g id="text_2">
      <!-- $20$ -->
      <defs>
       <path d="M 41.703125 15.46875 
L 39.90625 15.46875 
C 38.90625 8.390625 38.09375 7.1875 37.703125 6.59375 
C 37.203125 5.796875 30 5.796875 28.59375 5.796875 
L 9.40625 5.796875 
C 13 9.6875 20 16.765625 28.5 24.9375 
C 34.59375 30.71875 41.703125 37.5 41.703125 47.390625 
C 41.703125 59.1875 32.296875 66 21.796875 66 
C 10.796875 66 4.09375 56.296875 4.09375 47.296875 
C 4.09375 43.390625 7 42.890625 8.203125 42.890625 
C 9.203125 42.890625 12.203125 43.484375 12.203125 46.984375 
C 12.203125 50.09375 9.59375 51 8.203125 51 
C 7.59375 51 7 50.890625 6.59375 50.6875 
C 8.5 59.1875 14.296875 63.390625 20.40625 63.390625 
C 29.09375 63.390625 34.796875 56.5 34.796875 47.390625 
C 34.796875 38.703125 29.703125 31.21875 24 24.734375 
L 4.09375 2.296875 
L 4.09375 0 
L 39.296875 0 
z
" id="CMR17-50"/>
      </defs>
      <g transform="translate(201.150263 251.09214)scale(0.18 -0.18)">
       <use transform="scale(0.996264)" xlink:href="#CMR17-50"/>
       <use transform="translate(45.690477 0)scale(0.996264)" xlink:href="#CMR17-48"/>
      </g>
     </g>
    </g>
    <g id="xtick_3">
     <g id="line2d_3">
      <g>
       <use style="stroke:#000000;stroke-width:0.8;" x="278.763592" xlink:href="#m10bf0a1c15" y="230.75419"/>
      </g>
     </g>
     <g id="text_3">
      <!-- $30$ -->
      <defs>
       <path d="M 22.09375 34 
C 31 34 34.90625 26.140625 34.90625 17.09375 
C 34.90625 5.03125 28.5 0.390625 22.703125 0.390625 
C 17.40625 0.390625 8.796875 3.015625 6.09375 10.796875 
C 6.59375 10.59375 7.09375 10.59375 7.59375 10.59375 
C 10 10.59375 11.796875 12.1875 11.796875 14.796875 
C 11.796875 17.6875 9.59375 19 7.59375 19 
C 5.90625 19 3.296875 18.1875 3.296875 14.484375 
C 3.296875 5.234375 12.296875 -2 22.90625 -2 
C 34 -2 42.5 6.75 42.5 16.984375 
C 42.5 26.84375 34.5 34 25 35.09375 
C 32.59375 36.671875 39.90625 43.375 39.90625 52.390625 
C 39.90625 60.25 32 66 23 66 
C 13.90625 66 5.90625 60.34375 5.90625 52.296875 
C 5.90625 48.796875 8.5 48.1875 9.796875 48.1875 
C 11.90625 48.1875 13.703125 49.484375 13.703125 52.09375 
C 13.703125 54.6875 11.90625 56 9.796875 56 
C 9.40625 56 8.90625 56 8.5 55.796875 
C 11.40625 62.484375 19.296875 63.6875 22.796875 63.6875 
C 26.296875 63.6875 32.90625 61.96875 32.90625 52.296875 
C 32.90625 49.484375 32.5 44.546875 29.09375 40.21875 
C 26.09375 36.390625 22.703125 36.1875 19.40625 35.890625 
C 18.90625 35.890625 16.59375 35.6875 16.203125 35.6875 
C 15.5 35.59375 15.09375 35.5 15.09375 34.796875 
C 15.09375 34.09375 15.203125 34 17.203125 34 
z
" id="CMR17-51"/>
      </defs>
      <g transform="translate(270.508467 251.09214)scale(0.18 -0.18)">
       <use transform="scale(0.996264)" xlink:href="#CMR17-51"/>
       <use transform="translate(45.690477 0)scale(0.996264)" xlink:href="#CMR17-48"/>
      </g>
     </g>
    </g>
    <g id="xtick_4">
     <g id="line2d_4">
      <g>
       <use style="stroke:#000000;stroke-width:0.8;" x="348.121796" xlink:href="#m10bf0a1c15" y="230.75419"/>
      </g>
     </g>
     <g id="text_4">
      <!-- $40$ -->
      <defs>
       <path d="M 33.59375 64.796875 
C 33.59375 66.890625 33.5 67 31.703125 67 
L 2 19.59375 
L 2 17 
L 27.796875 17 
L 27.796875 7.1875 
C 27.796875 3.59375 27.59375 2.59375 20.59375 2.59375 
L 18.703125 2.59375 
L 18.703125 0 
C 21.90625 0.1875 27.296875 0.1875 30.703125 0.1875 
C 34.09375 0.1875 39.5 0.1875 42.703125 0 
L 42.703125 2.59375 
L 40.796875 2.59375 
C 33.796875 2.59375 33.59375 3.59375 33.59375 7.1875 
L 33.59375 17 
L 43.796875 17 
L 43.796875 19.59375 
L 33.59375 19.59375 
z
M 28.09375 58.171875 
L 28.09375 19.59375 
L 4 19.59375 
z
" id="CMR17-52"/>
      </defs>
      <g transform="translate(339.866671 251.09214)scale(0.18 -0.18)">
       <use transform="scale(0.996264)" xlink:href="#CMR17-52"/>
       <use transform="translate(45.690477 0)scale(0.996264)" xlink:href="#CMR17-48"/>
      </g>
     </g>
    </g>
    <g id="text_5">
     <!-- Frequency -->
     <defs>
      <path d="M 62.40625 72 
L 2.90625 72 
L 2.90625 67.296875 
L 4.703125 67.296875 
C 12.796875 67.296875 13.703125 66.796875 13.703125 62.625 
L 13.703125 59.75 
L 13.703125 12.296875 
L 13.703125 9.390625 
C 13.703125 5.1875 12.796875 4.6875 4.703125 4.6875 
L 2.90625 4.6875 
L 2.90625 0 
L 37.203125 0 
L 37.203125 4.6875 
L 33.90625 4.6875 
C 25.796875 4.6875 24.90625 5.1875 24.90625 9.390625 
L 24.90625 12.296875 
L 24.90625 35 
L 26.90625 35 
C 33.09375 35 35.5 34.390625 37.59375 32.296875 
C 40.09375 29.6875 41.09375 26.5 41.296875 20.59375 
L 46 20.59375 
L 46 53.296875 
L 41.296875 53.296875 
C 40.796875 43.5625 36.796875 39.6875 27.296875 39.6875 
L 24.90625 39.6875 
L 24.90625 62.328125 
C 24.90625 66.59375 25.796875 67.296875 31.203125 67.296875 
L 35.796875 67.296875 
C 52.296875 67.296875 56.59375 63.515625 59.40625 46.546875 
L 63.796875 46.546875 
z
" id="Century_Schoolbook_L_Roman-70"/>
      <path d="M 19.796875 47 
L 2.09375 45.296875 
L 2.09375 41 
L 6.203125 41 
C 9.90625 41 10.5 40.296875 10.5 36.015625 
L 10.5 12.25 
L 10.5 8.265625 
C 10.5 4.28125 9.40625 3.59375 2.90625 3.59375 
L 2.5 3.59375 
L 2.5 0 
L 29.203125 0 
L 29.203125 3.59375 
L 27.296875 3.59375 
C 20.90625 3.59375 19.796875 4.28125 19.796875 8.265625 
L 19.796875 12.25 
L 19.796875 13.234375 
C 19.796875 20.703125 21.203125 28.265625 23.703125 33.9375 
C 26.09375 39.5 29.5 42.59375 33.703125 43.09375 
C 32.296875 41.5 31.90625 40.5 31.90625 38.609375 
C 31.90625 35.421875 34.203125 33.140625 37.40625 33.140625 
C 41 33.140625 43.5 35.828125 43.5 39.90625 
C 43.5 44.6875 40.09375 48 34.796875 48 
C 28.5 48 23 42.796875 19.796875 34.03125 
z
" id="Century_Schoolbook_L_Roman-114"/>
      <path d="M 46.5 22 
C 46.59375 37.25 38.09375 48 25.90625 48 
C 13.09375 48 3.5 36.734375 3.5 21.484375 
C 3.5 7.484375 12.59375 -2 26.09375 -2 
C 35.59375 -2 42.40625 2.6875 46.5 12.1875 
L 43 14.09375 
C 38.90625 6.390625 34.703125 3.390625 28 3.390625 
C 22.90625 3.390625 19.203125 5.59375 16.59375 9.984375 
C 14.796875 12.984375 14 16.484375 14.09375 22 
z
M 14.203125 26.296875 
C 14.203125 29.46875 14.59375 31.71875 15.59375 34.578125 
C 17.703125 40.71875 20.90625 43.6875 25.703125 43.6875 
C 31.796875 43.6875 35.796875 38.265625 35.796875 30.078125 
C 35.796875 27.109375 34.90625 26.296875 31.703125 26.296875 
z
" id="Century_Schoolbook_L_Roman-101"/>
      <path d="M 44.90625 46.484375 
L 40.203125 39.65625 
C 36.203125 45.296875 31.296875 48 25 48 
C 12.796875 48 3.59375 36.828125 3.59375 21.875 
C 3.59375 8.03125 12.203125 -2 23.90625 -2 
C 30.09375 -2 33.5 -0.203125 37.5 5.3125 
L 37.5 -8.359375 
L 37.5 -12.34375 
C 37.5 -16.3125 36.40625 -17 29.90625 -17 
L 28.796875 -17 
L 28.796875 -20.609375 
L 54.796875 -20.609375 
L 54.796875 -17 
L 54.40625 -17 
C 48 -17 46.90625 -16.3125 46.90625 -12.34375 
L 46.90625 -8.359375 
L 46.90625 30.65625 
C 47 36.421875 47 36.828125 47 37.9375 
C 47.203125 39.859375 47.5 41.265625 48.59375 46.484375 
z
M 25.90625 43.6875 
C 29.90625 43.6875 33.5 41.0625 35.40625 36.828125 
C 36.90625 33.484375 37.5 29.859375 37.5 24.09375 
C 37.5 10.265625 33.59375 3.390625 25.796875 3.390625 
C 18.40625 3.390625 14.09375 10.359375 14.09375 22.484375 
C 14.09375 36.625 18 43.6875 25.90625 43.6875 
z
" id="Century_Schoolbook_L_Roman-113"/>
      <path d="M 41.203125 -0.703125 
L 59.40625 0 
L 59.40625 4.296875 
L 56.90625 4.296875 
C 51.40625 4.296875 50.59375 5.203125 50.59375 11.671875 
L 50.59375 47 
L 31.796875 46 
L 31.796875 41.6875 
L 36.90625 41.6875 
C 40.59375 41.6875 41.203125 40.96875 41.203125 36.5625 
L 41.203125 23.921875 
C 41.203125 18.0625 40.59375 14.671875 39.09375 11.28125 
C 37 6.765625 33 4.09375 28.09375 4.09375 
C 25 4.09375 22.40625 5.21875 21.09375 7.28125 
C 19.796875 9.234375 19.59375 10.25 19.59375 15.90625 
L 19.59375 47 
L 2.09375 46 
L 2.09375 41.6875 
L 5.90625 41.6875 
C 9.59375 41.6875 10.203125 40.96875 10.203125 36.5625 
L 10.203125 14.359375 
C 10.203125 9.125 10.59375 6.765625 12.09375 4.40625 
C 14.796875 0.296875 19.59375 -2 25.59375 -2 
C 32.203125 -2 36.796875 0.6875 41.203125 7.171875 
z
" id="Century_Schoolbook_L_Roman-117"/>
      <path d="M 20 47 
L 2.703125 46 
L 2.703125 41.6875 
L 6.296875 41.6875 
C 10 41.6875 10.59375 40.984375 10.59375 36.625 
L 10.59375 12.40625 
L 10.59375 8.359375 
C 10.59375 4.296875 9.5 3.59375 3.09375 3.59375 
L 2.703125 3.59375 
L 2.703125 0 
L 28 0 
L 28 3.59375 
L 27.59375 3.59375 
C 21.09375 3.59375 20 4.296875 20 8.359375 
L 20 12.40625 
L 20 22.953125 
C 20 27.90625 20.703125 32.46875 21.796875 34.796875 
C 23.90625 38.796875 28.40625 41.890625 32.703125 41.890625 
C 35.296875 41.890625 38.296875 40.390625 39.796875 38.40625 
C 41.296875 36.296875 42 33.21875 42 28.421875 
L 42 12.265625 
L 42 8.28125 
C 42 4.296875 40.90625 3.59375 34.40625 3.59375 
L 34 3.59375 
L 34 0 
L 59.296875 0 
L 59.296875 3.59375 
L 58.90625 3.59375 
C 52.5 3.59375 51.40625 4.296875 51.40625 8.28125 
L 51.40625 12.265625 
L 51.40625 27.921875 
C 51.40625 35.109375 51.09375 36.90625 49.296875 40.296875 
C 46.796875 45.09375 41.703125 48 35.796875 48 
C 29.40625 48 24.40625 44.984375 20 38.40625 
z
" id="Century_Schoolbook_L_Roman-110"/>
      <path d="M 38.703125 14.296875 
C 35.5 7.015625 32.09375 4.09375 26.90625 4.09375 
C 18.90625 4.09375 13.90625 11.46875 13.90625 23.28125 
C 13.90625 35.5 18.796875 43.6875 26.203125 43.6875 
C 29.203125 43.6875 31.796875 42.28125 31.796875 40.65625 
C 31.796875 40.359375 31.59375 40.046875 31.203125 39.453125 
C 29.59375 37.53125 29.203125 36.515625 29.203125 34.796875 
C 29.203125 31.46875 31.703125 29.140625 35.203125 29.140625 
C 38.703125 29.140625 41.296875 31.96875 41.296875 36.015625 
C 41.296875 42.78125 34.59375 48 25.703125 48 
C 12.703125 48 3.40625 37.21875 3.40625 22.171875 
C 3.40625 7.828125 11.90625 -2 24.296875 -2 
C 33.203125 -2 38.296875 2.09375 42.59375 12.78125 
z
" id="Century_Schoolbook_L_Roman-99"/>
      <path d="M 30 12.71875 
L 19 38.71875 
C 18.59375 39.640625 18.40625 40.34375 18.40625 40.84375 
C 18.40625 42.671875 19.59375 43.375 23 43.375 
L 25.09375 43.375 
L 25.09375 47 
L 1.296875 47 
L 1.296875 43.375 
L 2.40625 43.375 
C 5.59375 43.375 7.40625 41.953125 9.203125 37.90625 
L 25.5 0.578125 
L 23.796875 -2.953125 
C 20.203125 -10.640625 15.5 -16 12.296875 -16 
C 11.40625 -16 10.703125 -15.609375 10.703125 -15 
C 10.703125 -14.796875 10.796875 -14.484375 10.90625 -14.078125 
C 11.203125 -13.171875 11.40625 -12.265625 11.40625 -11.453125 
C 11.40625 -8.828125 9.203125 -6.90625 6.296875 -6.90625 
C 2.796875 -6.90625 0.296875 -9.53125 0.296875 -13.171875 
C 0.296875 -17.609375 4.203125 -20.90625 9.40625 -20.90625 
C 14.703125 -20.90625 19.203125 -18.3125 23.203125 -12.875 
C 26.296875 -8.625 28.296875 -4.578125 32.703125 6.65625 
L 44.09375 35.1875 
C 46.59375 41.359375 48.703125 43.375 52.5 43.375 
L 53.09375 43.375 
L 53.09375 47 
L 33.09375 47 
L 33.09375 43.375 
L 34.703125 43.375 
C 38.5 43.375 40.09375 42.265625 40.09375 39.640625 
C 40.09375 38.625 39.796875 37.3125 39.09375 35.59375 
z
" id="Century_Schoolbook_L_Roman-121"/>
     </defs>
     <g transform="translate(200.344745 273.11996)scale(0.18 -0.18)">
      <use transform="translate(0 -1.570628)scale(0.996264)" xlink:href="#Century_Schoolbook_L_Roman-70"/>
      <use transform="translate(65.453934 -1.570628)scale(0.996264)" xlink:href="#Century_Schoolbook_L_Roman-114"/>
      <use transform="translate(109.687503 -1.570628)scale(0.996264)" xlink:href="#Century_Schoolbook_L_Roman-101"/>
      <use transform="translate(159.500704 -1.570628)scale(0.996264)" xlink:href="#Century_Schoolbook_L_Roman-113"/>
      <use transform="translate(214.892381 -1.570628)scale(0.996264)" xlink:href="#Century_Schoolbook_L_Roman-117"/>
      <use transform="translate(275.764011 -1.570628)scale(0.996264)" xlink:href="#Century_Schoolbook_L_Roman-101"/>
      <use transform="translate(325.577212 -1.570628)scale(0.996264)" xlink:href="#Century_Schoolbook_L_Roman-110"/>
      <use transform="translate(386.448842 -1.570628)scale(0.996264)" xlink:href="#Century_Schoolbook_L_Roman-99"/>
      <use transform="translate(430.682411 -1.570628)scale(0.996264)" xlink:href="#Century_Schoolbook_L_Roman-121"/>
     </g>
    </g>
   </g>
   <g id="matplotlib.axis_2">
    <g id="ytick_1">
     <g id="line2d_5">
      <defs>
       <path d="M 0 0 
L -3.5 0 
" id="m332c1fd91a" style="stroke:#000000;stroke-width:0.8;"/>
      </defs>
      <g>
       <use style="stroke:#000000;stroke-width:0.8;" x="70.68898" xlink:href="#m332c1fd91a" y="230.75419"/>
      </g>
     </g>
     <g id="text_6">
      <!-- $0.00$ -->
      <defs>
       <path d="M 18.40625 4.796875 
C 18.40625 7.6875 16 9.6875 13.59375 9.6875 
C 10.703125 9.6875 8.703125 7.296875 8.703125 4.890625 
C 8.703125 2 11.09375 0 13.5 0 
C 16.40625 0 18.40625 2.390625 18.40625 4.796875 
z
" id="CMMI12-58"/>
      </defs>
      <g transform="translate(34.02782 237.423165)scale(0.18 -0.18)">
       <use transform="scale(0.996264)" xlink:href="#CMR17-48"/>
       <use transform="translate(45.690477 0)scale(0.996264)" xlink:href="#CMMI12-58"/>
       <use transform="translate(72.787654 0)scale(0.996264)" xlink:href="#CMR17-48"/>
       <use transform="translate(118.478131 0)scale(0.996264)" xlink:href="#CMR17-48"/>
      </g>
     </g>
    </g>
    <g id="ytick_2">
     <g id="line2d_6">
      <g>
       <use style="stroke:#000000;stroke-width:0.8;" x="70.68898" xlink:href="#m332c1fd91a" y="162.042814"/>
      </g>
     </g>
     <g id="text_7">
      <!-- $0.02$ -->
      <g transform="translate(34.02782 168.711789)scale(0.18 -0.18)">
       <use transform="scale(0.996264)" xlink:href="#CMR17-48"/>
       <use transform="translate(45.690477 0)scale(0.996264)" xlink:href="#CMMI12-58"/>
       <use transform="translate(72.787654 0)scale(0.996264)" xlink:href="#CMR17-48"/>
       <use transform="translate(118.478131 0)scale(0.996264)" xlink:href="#CMR17-50"/>
      </g>
     </g>
    </g>
    <g id="ytick_3">
     <g id="line2d_7">
      <g>
       <use style="stroke:#000000;stroke-width:0.8;" x="70.68898" xlink:href="#m332c1fd91a" y="93.331439"/>
      </g>
     </g>
     <g id="text_8">
      <!-- $0.04$ -->
      <g transform="translate(34.02782 100.000414)scale(0.18 -0.18)">
       <use transform="scale(0.996264)" xlink:href="#CMR17-48"/>
       <use transform="translate(45.690477 0)scale(0.996264)" xlink:href="#CMMI12-58"/>
       <use transform="translate(72.787654 0)scale(0.996264)" xlink:href="#CMR17-48"/>
       <use transform="translate(118.478131 0)scale(0.996264)" xlink:href="#CMR17-52"/>
      </g>
     </g>
    </g>
    <g id="ytick_4">
     <g id="line2d_8">
      <g>
       <use style="stroke:#000000;stroke-width:0.8;" x="70.68898" xlink:href="#m332c1fd91a" y="24.620063"/>
      </g>
     </g>
     <g id="text_9">
      <!-- $0.06$ -->
      <defs>
       <path d="M 10.59375 34.34375 
C 10.59375 58 21.796875 63.6875 28.296875 63.6875 
C 30.40625 63.6875 35.5 63.265625 37.5 59.09375 
C 35.90625 59.09375 32.90625 59.09375 32.90625 55.59375 
C 32.90625 52.890625 35.09375 52 36.5 52 
C 37.40625 52 40.09375 52.390625 40.09375 55.796875 
C 40.09375 62.296875 35.09375 66 28.203125 66 
C 16.296875 66 3.796875 53.296875 3.796875 31.421875 
C 3.796875 4.015625 15.09375 -2 23.09375 -2 
C 32.796875 -2 42 6.734375 42 20.234375 
C 42 32.828125 33.90625 42 23.703125 42 
C 17.59375 42 13.09375 37.96875 10.59375 30.921875 
z
M 23.09375 0.390625 
C 10.796875 0.390625 10.796875 18.9375 10.796875 22.65625 
C 10.796875 29.90625 14.203125 40.390625 23.5 40.390625 
C 25.203125 40.390625 30.09375 40.390625 33.40625 33.4375 
C 35.203125 29.515625 35.203125 25.375 35.203125 20.34375 
C 35.203125 14.90625 35.203125 10.875 33.09375 6.84375 
C 30.90625 2.703125 27.703125 0.390625 23.09375 0.390625 
z
" id="CMR17-54"/>
      </defs>
      <g transform="translate(34.02782 31.289038)scale(0.18 -0.18)">
       <use transform="scale(0.996264)" xlink:href="#CMR17-48"/>
       <use transform="translate(45.690477 0)scale(0.996264)" xlink:href="#CMMI12-58"/>
       <use transform="translate(72.787654 0)scale(0.996264)" xlink:href="#CMR17-48"/>
       <use transform="translate(118.478131 0)scale(0.996264)" xlink:href="#CMR17-54"/>
      </g>
     </g>
    </g>
    <g id="text_10">
     <!-- FFT Magnitude -->
     <defs>
      <path d="M 63.296875 72 
L 3.40625 72 
L 1.90625 44.265625 
L 6.203125 44.265625 
C 6.90625 49.25 7.796875 53.046875 8.90625 56.234375 
C 11.5 63.5 16.296875 67.296875 23.09375 67.296875 
C 26.40625 67.296875 27.796875 66.203125 27.796875 63.703125 
L 27.796875 12.265625 
L 27.796875 9.375 
C 27.796875 5.1875 26.90625 4.6875 18.796875 4.6875 
L 16.203125 4.6875 
L 16.203125 0 
L 50.5 0 
L 50.5 4.6875 
L 47.90625 4.6875 
C 39.90625 4.6875 39 5.1875 39 9.375 
L 39 12.265625 
L 39 63.703125 
C 39 66.203125 40.40625 67.296875 43.703125 67.296875 
C 49.796875 67.296875 54.703125 63.90625 57.203125 57.921875 
C 58.703125 54.234375 59.703125 49.953125 60.5 44.265625 
L 64.796875 44.265625 
z
" id="Century_Schoolbook_L_Roman-84"/>
      <path d="M 28.703125 72 
L 2.90625 72 
L 2.90625 67.296875 
L 4.796875 67.296875 
C 12.90625 67.296875 13.796875 66.796875 13.796875 62.609375 
L 13.796875 59.71875 
L 13.796875 21.546875 
C 13.796875 7.984375 11.796875 5.09375 2.203125 4.6875 
L 2.203125 0 
L 30.703125 0 
L 30.703125 4.6875 
C 21.203125 5.09375 19.203125 7.984375 19.203125 21.546875 
L 19.203125 65.59375 
L 43 0 
L 47 0 
L 69.296875 65.59375 
L 69.296875 12.265625 
L 69.296875 9.375 
C 69.296875 5.09375 68.40625 4.6875 60.296875 4.6875 
L 58.5 4.6875 
L 58.5 0 
L 91.296875 0 
L 91.296875 4.6875 
L 89.5 4.6875 
C 81.40625 4.6875 80.5 5.09375 80.5 9.375 
L 80.5 12.265625 
L 80.5 59.71875 
L 80.5 62.609375 
C 80.5 66.796875 81.40625 67.296875 89.5 67.296875 
L 91.296875 67.296875 
L 91.296875 72 
L 66.203125 72 
L 47.90625 18.84375 
z
" id="Century_Schoolbook_L_Roman-77"/>
      <path d="M 45.203125 31.96875 
C 45.203125 38.34375 44.09375 41.578125 41.203125 43.984375 
C 37.90625 46.59375 33 48 26.59375 48 
C 15.40625 48 7.09375 42.6875 7.09375 35.40625 
C 7.09375 31.578125 9.40625 29.140625 12.90625 29.140625 
C 16 29.140625 18.296875 31.265625 18.296875 34.296875 
C 18.296875 35.609375 17.796875 37.03125 16.796875 38.4375 
C 16.203125 39.140625 16.09375 39.453125 16.09375 39.75 
C 16.09375 41.875 20.203125 43.6875 25 43.6875 
C 28.09375 43.6875 31.59375 42.6875 33.203125 41.171875 
C 35.09375 39.546875 35.796875 37.125 35.796875 32.578125 
L 35.796875 28.640625 
C 25.296875 26.828125 22.09375 26.015625 17.203125 24.09375 
C 8.59375 20.859375 4.40625 16.125 4.40625 9.75 
C 4.40625 2.59375 10.09375 -2 18.90625 -2 
C 25.796875 -2 32 0.796875 36.296875 5.921875 
C 37.90625 1 40.40625 -1 45.09375 -1 
C 49.59375 -1 54.296875 1.890625 54.296875 4.796875 
C 54.296875 5.5 53.796875 6 53.296875 6 
C 52.90625 6 52.5 5.890625 51.796875 5.59375 
C 50.203125 5 49.796875 4.890625 49 4.890625 
C 46.203125 4.890625 45.203125 6.796875 45.203125 11.796875 
z
M 35.796875 19.6875 
C 35.796875 13.6875 35.5 12.296875 33.796875 9.6875 
C 31.296875 5.796875 26.703125 3.296875 22.40625 3.296875 
C 17.90625 3.296875 14.5 6.59375 14.5 11.09375 
C 14.5 15.296875 16.59375 18.296875 21 20.390625 
C 24.09375 21.796875 28 22.796875 35.796875 24.09375 
z
" id="Century_Schoolbook_L_Roman-97"/>
      <path d="M 19.59375 7.59375 
C 14.09375 7.6875 13.796875 7.796875 12.59375 8.484375 
C 11.90625 8.890625 11.40625 9.984375 11.40625 11.078125 
C 11.40625 14.0625 14.09375 15.34375 20.796875 15.546875 
C 30.296875 15.75 31.796875 15.953125 35.09375 17.4375 
C 41.09375 20.125 44.5 25.296875 44.5 31.859375 
C 44.5 35.84375 43.59375 38.328125 40.796875 41.609375 
C 42.5 43.390625 43.40625 44 44.203125 44 
C 44.703125 44 45 43.703125 45.203125 42.59375 
C 45.59375 40.21875 47.203125 38.921875 49.703125 38.921875 
C 52.203125 38.921875 54.203125 41.015625 54.203125 43.703125 
C 54.203125 47.09375 51.5 49.5 47.59375 49.5 
C 44.40625 49.5 42.59375 48.5 38 44.296875 
C 33.796875 46.984375 30.59375 48 25.59375 48 
C 13.703125 48 5.90625 41.40625 5.90625 31.484375 
C 5.90625 25.640625 9.09375 20.578125 14.296875 18.203125 
C 7.59375 16.71875 4.796875 13.734375 4.796875 8.28125 
C 4.796875 3.890625 6.796875 1.296875 11.5 -0.3125 
C 5.296875 -2.5 2.296875 -5.703125 2.296875 -9.8125 
C 2.296875 -16.40625 10 -20.109375 23.40625 -20.109375 
C 40.09375 -20.109375 48.5 -14.8125 48.5 -4.3125 
C 48.5 0.6875 46.203125 4.6875 42.5 6.1875 
C 39.90625 7.1875 36.703125 7.59375 29.796875 7.59375 
z
M 25.5 43.6875 
C 31.796875 43.6875 35.296875 39.328125 35.296875 31.6875 
C 35.296875 23.953125 31.5 19.296875 25.09375 19.296875 
C 18.90625 19.296875 15 23.953125 15 31.390625 
C 15 39.234375 18.796875 43.6875 25.5 43.6875 
z
M 24.59375 -1 
C 32.90625 -1 33.5 -1 35 -1.203125 
C 39 -1.609375 41.5 -3.8125 41.5 -7 
C 41.5 -12.703125 35 -16 23.796875 -16 
C 15.40625 -16 10.59375 -13.5 10.59375 -9 
C 10.59375 -5.703125 12.40625 -3.5 17.203125 -1 
z
" id="Century_Schoolbook_L_Roman-103"/>
      <path d="M 20.59375 47 
L 1.796875 46 
L 1.796875 41.6875 
L 6.90625 41.6875 
C 10.59375 41.6875 11.203125 40.984375 11.203125 36.625 
L 11.203125 12.40625 
L 11.203125 8.359375 
C 11.203125 4.296875 10.09375 3.59375 3.703125 3.59375 
L 3 3.59375 
L 3 0 
L 28.90625 0 
L 28.90625 3.59375 
L 28.203125 3.59375 
C 21.703125 3.59375 20.59375 4.296875 20.59375 8.359375 
L 20.59375 12.40625 
z
M 15.90625 72 
C 12.703125 72 10.09375 69.390625 10.09375 66.1875 
C 10.09375 63.09375 12.703125 60.390625 15.796875 60.390625 
C 19.09375 60.390625 21.703125 62.984375 21.703125 66.1875 
C 21.703125 69.390625 19.09375 72 15.90625 72 
z
" id="Century_Schoolbook_L_Roman-105"/>
      <path d="M 19.40625 47 
L 19.40625 66.796875 
L 15.296875 66.796875 
C 14.296875 53.796875 9.90625 47.1875 1.796875 46.59375 
L 1.796875 42.6875 
L 10 42.6875 
L 10 16.578125 
C 10 9.421875 10.203125 6.859375 11.203125 4.5 
C 12.796875 0.296875 16.796875 -2 22.59375 -2 
C 26.5 -2 29.90625 -0.8125 32.203125 1.390625 
C 35.5 4.609375 37.40625 10.03125 37.40625 15.65625 
C 37.40625 16.28125 37.40625 17 37.296875 18.015625 
L 33.09375 18.015625 
C 32.796875 8.796875 30.203125 4.09375 25.296875 4.09375 
C 23 4.09375 21 5.328125 20.296875 7.0625 
C 19.703125 8.5 19.40625 11.0625 19.40625 14.734375 
L 19.40625 42.6875 
L 34.09375 42.6875 
L 34.09375 47 
z
" id="Century_Schoolbook_L_Roman-116"/>
      <path d="M 38 -0.703125 
L 55.40625 0 
L 55.40625 4.296875 
L 53.59375 4.296875 
C 48.203125 4.296875 47.40625 5.296875 47.40625 11.625 
L 47.40625 74 
L 27.796875 73 
L 27.796875 68.6875 
L 33.703125 68.6875 
C 37.296875 68.6875 38 67.96875 38 63.5625 
L 38 40.578125 
C 34.296875 45.6875 30 48 24.203125 48 
C 12.90625 48 4.296875 37.03125 4.296875 22.484375 
C 4.296875 8.140625 12.59375 -2 24.203125 -2 
C 30.5 -2 34.796875 0.6875 38 6.71875 
z
M 26.203125 42.59375 
C 30.296875 42.59375 34.203125 39.5625 36 34.90625 
C 37.203125 31.875 37.90625 27.640625 37.90625 22.796875 
C 37.90625 11.078125 33.296875 3.390625 26.09375 3.390625 
C 19.09375 3.390625 14.796875 10.0625 14.796875 21.28125 
C 14.796875 27.234375 15.40625 31.78125 16.703125 35.21875 
C 18.40625 39.65625 22.09375 42.59375 26.203125 42.59375 
z
" id="Century_Schoolbook_L_Roman-100"/>
     </defs>
     <g transform="translate(25.33795 188.480455)rotate(-90)scale(0.18 -0.18)">
      <use transform="translate(0 -1.570628)scale(0.996264)" xlink:href="#Century_Schoolbook_L_Roman-70"/>
      <use transform="translate(66.450031 -1.570628)scale(0.996264)" xlink:href="#Century_Schoolbook_L_Roman-70"/>
      <use transform="translate(132.900062 -1.570628)scale(0.996264)" xlink:href="#Century_Schoolbook_L_Roman-84"/>
      <use transform="translate(227.045263 -1.570628)scale(0.996264)" xlink:href="#Century_Schoolbook_L_Roman-77"/>
      <use transform="translate(321.092032 -1.570628)scale(0.996264)" xlink:href="#Century_Schoolbook_L_Roman-97"/>
      <use transform="translate(376.483709 -1.570628)scale(0.996264)" xlink:href="#Century_Schoolbook_L_Roman-103"/>
      <use transform="translate(429.983053 -1.570628)scale(0.996264)" xlink:href="#Century_Schoolbook_L_Roman-110"/>
      <use transform="translate(490.854684 -1.570628)scale(0.996264)" xlink:href="#Century_Schoolbook_L_Roman-105"/>
      <use transform="translate(522.235997 -1.570628)scale(0.996264)" xlink:href="#Century_Schoolbook_L_Roman-116"/>
      <use transform="translate(560.989703 -1.570628)scale(0.996264)" xlink:href="#Century_Schoolbook_L_Roman-117"/>
      <use transform="translate(621.861334 -1.570628)scale(0.996264)" xlink:href="#Century_Schoolbook_L_Roman-100"/>
      <use transform="translate(679.046821 -1.570628)scale(0.996264)" xlink:href="#Century_Schoolbook_L_Roman-101"/>
     </g>
    </g>
   </g>
   <g id="line2d_9">
    <path clip-path="url(#p3bf866bac0)" d="M 70.68898 230.634586 
L 77.6248 230.368182 
L 84.560621 230.07311 
L 91.496441 230.469151 
L 98.432262 230.632142 
L 105.368082 230.637966 
L 112.303902 230.613959 
L 119.239723 230.599076 
L 126.175543 230.470543 
L 133.111364 229.373914 
L 140.047184 229.59926 
L 146.983004 229.716963 
L 153.918825 230.106551 
L 160.854645 229.553901 
L 167.790466 230.081938 
L 174.726286 230.372341 
L 181.662106 230.386204 
L 188.597927 230.343215 
L 195.533747 230.248411 
L 202.469568 229.985643 
L 209.405388 228.992612 
L 216.341208 208.040468 
L 223.277029 86.570367 
L 230.212849 152.439107 
L 237.14867 227.248068 
L 244.08449 229.788758 
L 251.02031 230.460904 
L 257.956131 230.58309 
L 264.891951 230.620221 
L 271.827772 230.607141 
L 278.763592 230.583127 
L 285.699412 230.173218 
L 292.635233 230.207555 
L 299.571053 230.631011 
L 306.506874 230.412241 
L 313.442694 229.450286 
L 320.378514 229.960365 
L 327.314335 230.455237 
L 334.250155 230.572848 
L 341.185976 230.670157 
L 348.121796 230.593902 
L 355.057616 230.393343 
L 361.993437 229.905419 
L 368.929257 226.699871 
L 375.865078 207.187273 
L 382.800898 212.65769 
L 389.736718 229.430157 
L 396.672539 230.423736 
L 403.608359 230.671101 
L 410.54418 230.650235 
L 417.48 230.614577 
" style="fill:none;stroke:#e41a1c;stroke-linecap:square;stroke-width:2;"/>
   </g>
   <g id="patch_3">
    <path d="M 70.68898 230.75419 
L 70.68898 14.52 
" style="fill:none;stroke:#000000;stroke-linecap:square;stroke-linejoin:miter;stroke-width:0.8;"/>
   </g>
   <g id="patch_4">
    <path d="M 417.48 230.75419 
L 417.48 14.52 
" style="fill:none;"/>
   </g>
   <g id="patch_5">
    <path d="M 70.68898 230.75419 
L 417.48 230.75419 
" style="fill:none;stroke:#000000;stroke-linecap:square;stroke-linejoin:miter;stroke-width:0.8;"/>
   </g>
   <g id="patch_6">
    <path d="M 70.68898 14.52 
L 417.48 14.52 
" style="fill:none;"/>
   </g>
   <g id="legend_1">
    <g id="patch_7">
     <path d="M 329.46437 44.05585 
L 412.68 44.05585 
Q 415.88 44.05585 415.88 40.85585 
L 415.88 19.32 
Q 415.88 16.12 412.68 16.12 
L 329.46437 16.12 
Q 326.26437 16.12 326.26437 19.32 
L 326.26437 40.85585 
Q 326.26437 44.05585 329.46437 44.05585 
z
" style="fill:#ffffff;stroke:#000000;stroke-linejoin:miter;"/>
    </g>
    <g id="line2d_10">
     <path d="M 332.66437 28.77596 
L 364.66437 28.77596 
" style="fill:none;stroke:#e41a1c;stroke-linecap:square;stroke-width:2;"/>
    </g>
    <g id="line2d_11"/>
    <g id="text_11">
     <!-- FFT -->
     <g transform="translate(377.46437 34.37596)scale(0.16 -0.16)">
      <use transform="scale(0.996264)" xlink:href="#Century_Schoolbook_L_Roman-70"/>
      <use transform="translate(66.450031 0)scale(0.996264)" xlink:href="#Century_Schoolbook_L_Roman-70"/>
      <use transform="translate(132.900062 0)scale(0.996264)" xlink:href="#Century_Schoolbook_L_Roman-84"/>
     </g>
    </g>
   </g>
  </g>
 </g>
 <defs>
  <clipPath id="p3bf866bac0">
   <rect height="216.23419" width="346.79102" x="70.68898" y="14.52"/>
  </clipPath>
 </defs>
</svg>
