<?xml version="1.0" encoding="utf-8" standalone="no"?>
<!DOCTYPE svg PUBLIC "-//W3C//DTD SVG 1.1//EN"
  "http://www.w3.org/Graphics/SVG/1.1/DTD/svg11.dtd">
<!-- Created with matplotlib (https://matplotlib.org/) -->
<svg height="288pt" version="1.1" viewBox="0 0 432 288" width="432pt" xmlns="http://www.w3.org/2000/svg" xmlns:xlink="http://www.w3.org/1999/xlink">
 <defs>
  <style type="text/css">
*{stroke-linecap:butt;stroke-linejoin:round;}
  </style>
 </defs>
 <g id="figure_1">
  <g id="patch_1">
   <path d="M 0 288 
L 432 288 
L 432 0 
L 0 0 
z
" style="fill:#ffffff;"/>
  </g>
  <g id="axes_1">
   <g id="patch_2">
    <path d="M 65.7932 230.88 
L 417.48 230.88 
L 417.48 15.38288 
L 65.7932 15.38288 
z
" style="fill:#ffffff;"/>
   </g>
   <g id="matplotlib.axis_1">
    <g id="xtick_1">
     <g id="line2d_1">
      <defs>
       <path d="M 0 0 
L 0 3.5 
" id="m0dcabfa3bf" style="stroke:#000000;stroke-width:0.8;"/>
      </defs>
      <g>
       <use style="stroke:#000000;stroke-width:0.8;" x="128.775488" xlink:href="#m0dcabfa3bf" y="230.88"/>
      </g>
     </g>
     <g id="text_1">
      <!-- $10$ -->
      <defs>
       <path d="M 26.59375 63.40625 
C 26.59375 65.5 26.5 65.5 25.09375 65.5 
C 21.203125 61.1875 15.296875 59.796875 9.703125 59.796875 
C 9.40625 59.796875 8.90625 59.796875 8.796875 59.5 
C 8.703125 59.296875 8.703125 59.09375 8.703125 57 
C 11.796875 57 17 57.59375 21 59.984375 
L 21 7.203125 
C 21 3.6875 20.796875 2.5 12.203125 2.5 
L 9.203125 2.5 
L 9.203125 0 
C 14 0 19 0 23.796875 0 
C 28.59375 0 33.59375 0 38.40625 0 
L 38.40625 2.5 
L 35.40625 2.5 
C 26.796875 2.5 26.59375 3.59375 26.59375 7.15625 
z
" id="CMR17-49"/>
       <path d="M 42 31.640625 
C 42 37.75 41.90625 48.125 37.703125 56.109375 
C 34 63.109375 28.09375 65.59375 22.90625 65.59375 
C 18.09375 65.59375 12 63.40625 8.203125 56.203125 
C 4.203125 48.71875 3.796875 39.4375 3.796875 31.640625 
C 3.796875 25.953125 3.90625 17.28125 7 9.671875 
C 11.296875 -0.609375 19 -2 22.90625 -2 
C 27.5 -2 34.5 -0.109375 38.59375 9.375 
C 41.59375 16.28125 42 24.359375 42 31.640625 
z
M 22.90625 -0.40625 
C 16.5 -0.40625 12.703125 5.078125 11.296875 12.6875 
C 10.203125 18.5625 10.203125 27.15625 10.203125 32.75 
C 10.203125 40.4375 10.203125 46.828125 11.5 52.921875 
C 13.40625 61.390625 19 64 22.90625 64 
C 27 64 32.296875 61.296875 34.203125 53.125 
C 35.5 47.4375 35.59375 40.734375 35.59375 32.75 
C 35.59375 26.25 35.59375 18.265625 34.40625 12.375 
C 32.296875 1.484375 26.40625 -0.40625 22.90625 -0.40625 
z
" id="CMR17-48"/>
      </defs>
      <g transform="translate(120.520363 251.21795)scale(0.18 -0.18)">
       <use transform="scale(0.996264)" xlink:href="#CMR17-49"/>
       <use transform="translate(45.690477 0)scale(0.996264)" xlink:href="#CMR17-48"/>
      </g>
     </g>
    </g>
    <g id="xtick_2">
     <g id="line2d_2">
      <g>
       <use style="stroke:#000000;stroke-width:0.8;" x="191.757777" xlink:href="#m0dcabfa3bf" y="230.88"/>
      </g>
     </g>
     <g id="text_2">
      <!-- $20$ -->
      <defs>
       <path d="M 41.703125 15.453125 
L 39.90625 15.453125 
C 38.90625 8.375 38.09375 7.171875 37.703125 6.5625 
C 37.203125 5.765625 30 5.765625 28.59375 5.765625 
L 9.40625 5.765625 
C 13 9.671875 20 16.75 28.5 24.953125 
C 34.59375 30.734375 41.703125 37.53125 41.703125 47.421875 
C 41.703125 59.21875 32.296875 66 21.796875 66 
C 10.796875 66 4.09375 56.3125 4.09375 47.34375 
C 4.09375 43.4375 7 42.9375 8.203125 42.9375 
C 9.203125 42.9375 12.203125 43.546875 12.203125 47.03125 
C 12.203125 50.109375 9.59375 51 8.203125 51 
C 7.59375 51 7 50.90625 6.59375 50.703125 
C 8.5 59.21875 14.296875 63.40625 20.40625 63.40625 
C 29.09375 63.40625 34.796875 56.515625 34.796875 47.421875 
C 34.796875 38.734375 29.703125 31.25 24 24.75 
L 4.09375 2.28125 
L 4.09375 0 
L 39.296875 0 
z
" id="CMR17-50"/>
      </defs>
      <g transform="translate(183.502652 251.21795)scale(0.18 -0.18)">
       <use transform="scale(0.996264)" xlink:href="#CMR17-50"/>
       <use transform="translate(45.690477 0)scale(0.996264)" xlink:href="#CMR17-48"/>
      </g>
     </g>
    </g>
    <g id="xtick_3">
     <g id="line2d_3">
      <g>
       <use style="stroke:#000000;stroke-width:0.8;" x="254.740065" xlink:href="#m0dcabfa3bf" y="230.88"/>
      </g>
     </g>
     <g id="text_3">
      <!-- $30$ -->
      <defs>
       <path d="M 22.09375 33.703125 
C 31 33.703125 34.90625 25.96875 34.90625 17.03125 
C 34.90625 5 28.5 0.390625 22.703125 0.390625 
C 17.40625 0.390625 8.796875 3.03125 6.09375 10.828125 
C 6.59375 10.625 7.09375 10.625 7.59375 10.625 
C 10 10.625 11.796875 12.21875 11.796875 14.8125 
C 11.796875 17.703125 9.59375 19 7.59375 19 
C 5.90625 19 3.296875 18.203125 3.296875 14.46875 
C 3.296875 5.234375 12.296875 -2 22.90625 -2 
C 34 -2 42.5 6.71875 42.5 16.953125 
C 42.5 26.671875 34.5 33.703125 25 34.796875 
C 32.59375 36.375 39.90625 43.0625 39.90625 52.015625 
C 39.90625 59.6875 32 65.296875 23 65.296875 
C 13.90625 65.296875 5.90625 59.828125 5.90625 52.015625 
C 5.90625 48.59375 8.5 48 9.796875 48 
C 11.90625 48 13.703125 49.296875 13.703125 51.890625 
C 13.703125 54.46875 11.90625 55.765625 9.796875 55.765625 
C 9.40625 55.765625 8.90625 55.765625 8.5 55.578125 
C 11.40625 61.859375 19.296875 63 22.796875 63 
C 26.296875 63 32.90625 61.328125 32.90625 51.875 
C 32.90625 49.109375 32.5 44.1875 29.09375 39.84375 
C 26.09375 36 22.703125 36 19.40625 35.6875 
C 18.90625 35.6875 16.59375 35.453125 16.203125 35.453125 
C 15.5 35.359375 15.09375 35.265625 15.09375 34.5 
C 15.09375 33.796875 15.203125 33.703125 17.203125 33.703125 
z
" id="CMR17-51"/>
      </defs>
      <g transform="translate(246.48494 251.21795)scale(0.18 -0.18)">
       <use transform="scale(0.996264)" xlink:href="#CMR17-51"/>
       <use transform="translate(45.690477 0)scale(0.996264)" xlink:href="#CMR17-48"/>
      </g>
     </g>
    </g>
    <g id="xtick_4">
     <g id="line2d_4">
      <g>
       <use style="stroke:#000000;stroke-width:0.8;" x="317.722353" xlink:href="#m0dcabfa3bf" y="230.88"/>
      </g>
     </g>
     <g id="text_4">
      <!-- $40$ -->
      <defs>
       <path d="M 33.59375 64.40625 
C 33.59375 66.5 33.5 66.5 31.703125 66.5 
L 2 19.59375 
L 2 17 
L 27.796875 17 
L 27.796875 7.140625 
C 27.796875 3.5 27.59375 2.5 20.59375 2.5 
L 18.703125 2.5 
L 18.703125 0 
C 21.90625 0 27.296875 0 30.703125 0 
C 34.09375 0 39.5 0 42.703125 0 
L 42.703125 2.5 
L 40.796875 2.5 
C 33.796875 2.5 33.59375 3.5 33.59375 7.140625 
L 33.59375 17 
L 43.796875 17 
L 43.796875 19.59375 
L 33.59375 19.59375 
z
M 28.09375 57.859375 
L 28.09375 19.59375 
L 4 19.59375 
z
" id="CMR17-52"/>
      </defs>
      <g transform="translate(309.467228 251.21795)scale(0.18 -0.18)">
       <use transform="scale(0.996264)" xlink:href="#CMR17-52"/>
       <use transform="translate(45.690477 0)scale(0.996264)" xlink:href="#CMR17-48"/>
      </g>
     </g>
    </g>
    <g id="xtick_5">
     <g id="line2d_5">
      <g>
       <use style="stroke:#000000;stroke-width:0.8;" x="380.704642" xlink:href="#m0dcabfa3bf" y="230.88"/>
      </g>
     </g>
     <g id="text_5">
      <!-- $50$ -->
      <defs>
       <path d="M 11.40625 57.6875 
C 12.40625 57.28125 16.5 56 20.703125 56 
C 30 56 35.09375 61.109375 38 64.0625 
C 38 64.953125 38 65.5 37.40625 65.5 
C 37.296875 65.5 37.09375 65.5 36.296875 65.046875 
C 32.796875 63.40625 28.703125 62.078125 23.703125 62.078125 
C 20.703125 62.078125 16.203125 62.484375 11.296875 64.671875 
C 10.203125 65.171875 10 65.171875 9.90625 65.171875 
C 9.40625 65.171875 9.296875 65.0625 9.296875 63.078125 
L 9.296875 34.421875 
C 9.296875 32.640625 9.296875 32.140625 10.296875 32.140625 
C 10.796875 32.140625 11 32.34375 11.5 33.03125 
C 14.703125 37.515625 19.09375 39.40625 24.09375 39.40625 
C 27.59375 39.40625 35.09375 37.21875 35.09375 20.140625 
C 35.09375 16.953125 35.09375 11.171875 32.09375 6.578125 
C 29.59375 2.484375 25.703125 0.390625 21.40625 0.390625 
C 14.796875 0.390625 8.09375 5 6.296875 12.71875 
C 6.703125 12.609375 7.5 12.421875 7.90625 12.421875 
C 9.203125 12.421875 11.703125 13.125 11.703125 16.21875 
C 11.703125 18.90625 9.796875 20 7.90625 20 
C 5.59375 20 4.09375 18.59375 4.09375 15.796875 
C 4.09375 7.09375 11 -2 21.59375 -2 
C 31.90625 -2 41.703125 6.875 41.703125 19.75 
C 41.703125 31.71875 33.90625 41 24.203125 41 
C 19.09375 41 14.796875 39.109375 11.40625 35.53125 
z
" id="CMR17-53"/>
      </defs>
      <g transform="translate(372.449517 251.21795)scale(0.18 -0.18)">
       <use transform="scale(0.996264)" xlink:href="#CMR17-53"/>
       <use transform="translate(45.690477 0)scale(0.996264)" xlink:href="#CMR17-48"/>
      </g>
     </g>
    </g>
    <g id="text_6">
     <!-- Time (s) -->
     <defs>
      <path d="M 63.296875 72 
L 3.40625 72 
L 1.90625 44.265625 
L 6.203125 44.265625 
C 6.90625 49.25 7.796875 53.046875 8.90625 56.234375 
C 11.5 63.515625 16.296875 67.3125 23.09375 67.3125 
C 26.40625 67.3125 27.796875 66.203125 27.796875 63.71875 
L 27.796875 12.28125 
L 27.796875 9.375 
C 27.796875 5.1875 26.90625 4.6875 18.796875 4.6875 
L 16.203125 4.6875 
L 16.203125 0 
L 50.5 0 
L 50.5 4.6875 
L 47.90625 4.6875 
C 39.90625 4.6875 39 5.1875 39 9.375 
L 39 12.28125 
L 39 63.71875 
C 39 66.203125 40.40625 67.3125 43.703125 67.3125 
C 49.796875 67.3125 54.703125 63.90625 57.203125 57.921875 
C 58.703125 54.25 59.703125 49.953125 60.5 44.265625 
L 64.796875 44.265625 
z
" id="Century_Schoolbook_L_Roman-84"/>
      <path d="M 20.59375 46 
L 1.796875 46 
L 1.796875 41.21875 
L 6.90625 41.21875 
C 10.59375 41.21875 11.203125 40.515625 11.203125 36.203125 
L 11.203125 12.296875 
L 11.203125 8.296875 
C 11.203125 4.296875 10.09375 3.59375 3.703125 3.59375 
L 3 3.59375 
L 3 0 
L 28.90625 0 
L 28.90625 3.59375 
L 28.203125 3.59375 
C 21.703125 3.59375 20.59375 4.28125 20.59375 8.21875 
L 20.59375 12.171875 
z
M 15.90625 71.578125 
C 12.703125 71.578125 10.09375 68.984375 10.09375 65.796875 
C 10.09375 62.703125 12.703125 60 15.796875 60 
C 19.09375 60 21.703125 62.59375 21.703125 65.796875 
C 21.703125 68.984375 19.09375 71.578125 15.90625 71.578125 
z
" id="Century_Schoolbook_L_Roman-105"/>
      <path d="M 20.09375 46 
L 2.296875 46 
L 2.296875 41.21875 
L 6.40625 41.21875 
C 10.09375 41.21875 10.703125 40.515625 10.703125 36.203125 
L 10.703125 12.296875 
L 10.703125 8.40625 
C 10.703125 4.296875 9.59375 3.59375 3.203125 3.59375 
L 2.796875 3.59375 
L 2.796875 0 
L 28 0 
L 28 3.59375 
L 27.59375 3.59375 
C 21.203125 3.59375 20.09375 4.296875 20.09375 8.390625 
L 20.09375 12.28125 
L 20.09375 26.453125 
C 20.09375 35.328125 25 41.921875 31.5 41.921875 
C 34.09375 41.921875 36.90625 40.515625 38.09375 38.625 
C 39.5 36.734375 40.09375 33.828125 40.09375 29.734375 
L 40.09375 12.28125 
L 40.09375 8.28125 
C 40.09375 4.296875 39 3.59375 32.5 3.59375 
L 32.09375 3.59375 
L 32.09375 0 
L 57.40625 0 
L 57.40625 3.59375 
L 57 3.59375 
C 50.59375 3.59375 49.5 4.296875 49.5 8.28125 
L 49.5 12.28125 
L 49.5 25.546875 
C 49.5 35.53125 54 41.921875 61 41.921875 
C 64.296875 41.921875 67 40.015625 68.296875 36.921875 
C 69.203125 34.734375 69.5 32.53125 69.5 28.640625 
L 69.5 12.28125 
L 69.5 8.28125 
C 69.5 4.296875 68.40625 3.59375 61.90625 3.59375 
L 61.5 3.59375 
L 61.5 0 
L 86.796875 0 
L 86.796875 3.59375 
L 86.40625 3.59375 
C 80 3.59375 78.90625 4.296875 78.90625 8.390625 
L 78.90625 12.28125 
L 78.90625 30.640625 
C 78.90625 36.828125 78.296875 38.921875 75.703125 42.3125 
C 72.796875 46.015625 68.703125 48 63.90625 48 
C 57.40625 48 52.59375 44.9375 48.296875 38.109375 
C 46.59375 44.046875 41.203125 48 34.5 48 
C 28.5 48 24 45.140625 20.09375 38.921875 
z
" id="Century_Schoolbook_L_Roman-109"/>
      <path d="M 46.5 23 
C 46.59375 37.8125 38.09375 48.28125 25.90625 48.28125 
C 13.09375 48.28125 3.5 37.25 3.5 22.34375 
C 3.5 8.4375 12.59375 -1 26.09375 -1 
C 35.59375 -1 42.40625 3.6875 46.5 13.1875 
L 43 15.09375 
C 38.90625 7.390625 34.703125 4.390625 28 4.390625 
C 22.90625 4.390625 19.203125 6.59375 16.59375 11 
C 14.796875 14 14 17.5 14.09375 23 
z
M 14.203125 27.296875 
C 14.203125 30.34375 14.59375 32.5 15.59375 35.25 
C 17.703125 41.140625 20.90625 44 25.703125 44 
C 31.796875 44 35.796875 38.78125 35.796875 30.921875 
C 35.796875 28.078125 34.90625 27.296875 31.703125 27.296875 
z
" id="Century_Schoolbook_L_Roman-101"/>
      <path d="M 27.90625 73.453125 
C 21.90625 69.765625 18.703125 67.171875 15.296875 63.171875 
C 7.703125 54.1875 3.59375 42.71875 3.59375 30.640625 
C 3.59375 19.265625 7.203125 8.578125 13.90625 -0.296875 
C 17.703125 -5.09375 21.09375 -8.078125 27.90625 -12.28125 
L 27.90625 -8.578125 
C 17.90625 0.203125 13.90625 11.484375 13.90625 30.640625 
C 13.90625 49.796875 17.90625 60.984375 27.90625 69.765625 
z
" id="Century_Schoolbook_L_Roman-40"/>
      <path d="M 39 48 
L 35.5 48 
L 32.59375 44.40625 
C 29 47.203125 25.40625 48.390625 20.40625 48.390625 
C 11.59375 48.390625 5.796875 42.625 5.796875 33.953125 
C 5.796875 30.078125 7.09375 26.78125 9.296875 24.8125 
C 11.59375 22.703125 13.90625 21.71875 19.90625 20.3125 
L 25.203125 19.125 
C 33.09375 17.234375 35.90625 15.234375 35.90625 11.265625 
C 35.90625 6.578125 31.796875 3.296875 25.90625 3.296875 
C 17.5 3.296875 11.5 8.765625 9.09375 18.875 
L 5.09375 18.875 
L 5.09375 0 
L 8.59375 0 
L 12.09375 3.90625 
C 16.203125 0.59375 20.796875 -1 25.796875 -1 
C 35.59375 -1 42.09375 5.078125 42.09375 14.34375 
C 42.09375 18.71875 40.703125 22.09375 37.90625 24.390625 
C 35.5 26.484375 33.5 27.28125 27.40625 28.5625 
L 22.40625 29.671875 
C 16.90625 30.859375 16.90625 30.859375 15.09375 31.859375 
C 12.90625 32.859375 11.59375 34.9375 11.59375 37.140625 
C 11.59375 41.109375 15.40625 44 20.90625 44 
C 24.703125 44 27.796875 42.703125 30.59375 40.015625 
C 32.796875 37.8125 33.90625 35.828125 35.5 31.234375 
L 39 31.234375 
z
" id="Century_Schoolbook_L_Roman-115"/>
      <path d="M 5.40625 -12.28125 
C 11.40625 -8.578125 14.59375 -5.984375 18 -1.890625 
C 25.59375 6.984375 29.703125 18.5625 29.703125 30.640625 
C 29.703125 42.015625 26.09375 52.703125 19.40625 61.484375 
C 15.59375 66.375 12.203125 69.359375 5.40625 73.453125 
L 5.40625 69.765625 
C 15.40625 60.984375 19.40625 49.796875 19.40625 30.640625 
C 19.40625 11.375 15.40625 0.203125 5.40625 -8.578125 
z
" id="Century_Schoolbook_L_Roman-41"/>
     </defs>
     <g transform="translate(207.635135 273.24577)scale(0.18 -0.18)">
      <use transform="translate(0 -0.29235)scale(0.996264)" xlink:href="#Century_Schoolbook_L_Roman-84"/>
      <use transform="translate(66.450031 -0.29235)scale(0.996264)" xlink:href="#Century_Schoolbook_L_Roman-105"/>
      <use transform="translate(97.831344 -0.29235)scale(0.996264)" xlink:href="#Century_Schoolbook_L_Roman-109"/>
      <use transform="translate(186.398251 -0.29235)scale(0.996264)" xlink:href="#Century_Schoolbook_L_Roman-101"/>
      <use transform="translate(263.906621 -0.29235)scale(0.996264)" xlink:href="#Century_Schoolbook_L_Roman-40"/>
      <use transform="translate(297.081851 -0.29235)scale(0.996264)" xlink:href="#Century_Schoolbook_L_Roman-115"/>
      <use transform="translate(343.207661 -0.29235)scale(0.996264)" xlink:href="#Century_Schoolbook_L_Roman-41"/>
     </g>
    </g>
   </g>
   <g id="matplotlib.axis_2">
    <g id="ytick_1">
     <g id="line2d_6">
      <defs>
       <path d="M 0 0 
L -3.5 0 
" id="mcfe46674d3" style="stroke:#000000;stroke-width:0.8;"/>
      </defs>
      <g>
       <use style="stroke:#000000;stroke-width:0.8;" x="65.7932" xlink:href="#mcfe46674d3" y="230.88"/>
      </g>
     </g>
     <g id="text_7">
      <!-- $0$ -->
      <g transform="translate(50.53807 237.548975)scale(0.18 -0.18)">
       <use transform="scale(0.996264)" xlink:href="#CMR17-48"/>
      </g>
     </g>
    </g>
    <g id="ytick_2">
     <g id="line2d_7">
      <g>
       <use style="stroke:#000000;stroke-width:0.8;" x="65.7932" xlink:href="#mcfe46674d3" y="194.963813"/>
      </g>
     </g>
     <g id="text_8">
      <!-- $25$ -->
      <g transform="translate(42.28295 201.632788)scale(0.18 -0.18)">
       <use transform="scale(0.996264)" xlink:href="#CMR17-50"/>
       <use transform="translate(45.690477 0)scale(0.996264)" xlink:href="#CMR17-53"/>
      </g>
     </g>
    </g>
    <g id="ytick_3">
     <g id="line2d_8">
      <g>
       <use style="stroke:#000000;stroke-width:0.8;" x="65.7932" xlink:href="#mcfe46674d3" y="159.047627"/>
      </g>
     </g>
     <g id="text_9">
      <!-- $50$ -->
      <g transform="translate(42.28295 165.716602)scale(0.18 -0.18)">
       <use transform="scale(0.996264)" xlink:href="#CMR17-53"/>
       <use transform="translate(45.690477 0)scale(0.996264)" xlink:href="#CMR17-48"/>
      </g>
     </g>
    </g>
    <g id="ytick_4">
     <g id="line2d_9">
      <g>
       <use style="stroke:#000000;stroke-width:0.8;" x="65.7932" xlink:href="#mcfe46674d3" y="123.13144"/>
      </g>
     </g>
     <g id="text_10">
      <!-- $75$ -->
      <defs>
       <path d="M 45.09375 61.578125 
L 45.09375 63.765625 
L 21.59375 63.765625 
C 9.90625 63.765625 9.703125 65.078125 9.296875 67 
L 7.5 67 
L 4.59375 48.34375 
L 6.40625 48.34375 
C 6.703125 50.234375 7.40625 55.3125 8.59375 57.203125 
C 9.203125 58 16.59375 58 18.296875 58 
L 40.296875 58 
L 29.203125 41.578125 
C 21.796875 30.53125 16.703125 15.609375 16.703125 2.578125 
C 16.703125 1.390625 16.703125 -2 20.296875 -2 
C 23.90625 -2 23.90625 1.390625 23.90625 2.671875 
L 23.90625 7.265625 
C 23.90625 23.5625 26.703125 34.3125 31.296875 41.1875 
z
" id="CMR17-55"/>
      </defs>
      <g transform="translate(42.28295 129.800415)scale(0.18 -0.18)">
       <use transform="scale(0.996264)" xlink:href="#CMR17-55"/>
       <use transform="translate(45.690477 0)scale(0.996264)" xlink:href="#CMR17-53"/>
      </g>
     </g>
    </g>
    <g id="ytick_5">
     <g id="line2d_10">
      <g>
       <use style="stroke:#000000;stroke-width:0.8;" x="65.7932" xlink:href="#mcfe46674d3" y="87.215253"/>
      </g>
     </g>
     <g id="text_11">
      <!-- $100$ -->
      <g transform="translate(34.02782 93.884228)scale(0.18 -0.18)">
       <use transform="scale(0.996264)" xlink:href="#CMR17-49"/>
       <use transform="translate(45.690477 0)scale(0.996264)" xlink:href="#CMR17-48"/>
       <use transform="translate(91.380954 0)scale(0.996264)" xlink:href="#CMR17-48"/>
      </g>
     </g>
    </g>
    <g id="ytick_6">
     <g id="line2d_11">
      <g>
       <use style="stroke:#000000;stroke-width:0.8;" x="65.7932" xlink:href="#mcfe46674d3" y="51.299067"/>
      </g>
     </g>
     <g id="text_12">
      <!-- $125$ -->
      <g transform="translate(34.02782 57.968042)scale(0.18 -0.18)">
       <use transform="scale(0.996264)" xlink:href="#CMR17-49"/>
       <use transform="translate(45.690477 0)scale(0.996264)" xlink:href="#CMR17-50"/>
       <use transform="translate(91.380954 0)scale(0.996264)" xlink:href="#CMR17-53"/>
      </g>
     </g>
    </g>
    <g id="text_13">
     <!-- Spindle Current (Volts) -->
     <defs>
      <path d="M 54.59375 72 
L 50.90625 72 
L 46.90625 66.09375 
C 42.203125 70.59375 35.796875 73 28.703125 73 
C 15.59375 73 6.796875 64.609375 6.796875 52.15625 
C 6.796875 41.28125 12.203125 35.890625 26.90625 32.109375 
L 36.40625 29.703125 
C 43.796875 27.828125 44.5 27.625 46.59375 26.03125 
C 49.59375 23.734375 51.203125 20.4375 51.203125 16.546875 
C 51.203125 12.5625 49.703125 9.28125 46.703125 6.59375 
C 43.40625 3.6875 40.09375 2.59375 34.59375 2.59375 
C 27.203125 2.59375 21.90625 4.875 17.203125 10.03125 
C 13 14.703125 10.90625 19.375 9.40625 27 
L 5.09375 27 
L 5.5 -1.4375 
L 9.40625 -1.4375 
L 13.90625 5.46875 
C 20.59375 0 26.203125 -2 34.90625 -2 
C 49.59375 -2 59 6.59375 59 19.9375 
C 59 26.109375 56.90625 31.40625 53 35.203125 
C 50.296875 37.796875 46.40625 39.484375 38.40625 41.484375 
L 27.703125 44.171875 
C 18.796875 46.46875 14.59375 50.359375 14.59375 56.4375 
C 14.59375 63.40625 20.296875 68.203125 28.796875 68.203125 
C 35.796875 68.203125 41.5 65.1875 45.5 59.484375 
C 48.40625 55.375 50.203125 51.15625 51.5 46.046875 
L 55.796875 46.046875 
z
" id="Century_Schoolbook_L_Roman-83"/>
      <path d="M 20.09375 46 
L 2.796875 46 
L 2.796875 41.21875 
L 6.40625 41.21875 
C 10.09375 41.21875 10.703125 40.515625 10.703125 36.21875 
L 10.703125 -7.75 
L 10.703125 -11.71875 
C 10.703125 -15.71875 9.59375 -16.40625 3.203125 -16.40625 
L 2.796875 -16.40625 
L 2.796875 -20 
L 28.796875 -20 
L 28.796875 -16.40625 
L 27.703125 -16.40625 
C 21.203125 -16.40625 20.09375 -15.71875 20.09375 -11.734375 
L 20.09375 -7.75 
L 20.09375 6.6875 
C 23.40625 0.90625 27.203125 -1.390625 33.296875 -1.390625 
C 44.90625 -1.390625 53.5 9.265625 53.5 23.5 
C 53.5 37.265625 44.90625 48 33.90625 48 
C 27.703125 48 23.59375 45.4375 20.09375 39.515625 
z
M 32.09375 42.609375 
C 39 42.609375 43 35.75 43 24.09375 
C 43 11.265625 38.90625 4 31.796875 4 
C 24.703125 4 20 11.375 20 22.8125 
C 20 35.140625 24.5 42.609375 32.09375 42.609375 
z
" id="Century_Schoolbook_L_Roman-112"/>
      <path d="M 20 46 
L 2.703125 46 
L 2.703125 41.21875 
L 6.296875 41.21875 
C 10 41.21875 10.59375 40.515625 10.59375 36.203125 
L 10.59375 12.296875 
L 10.59375 8.296875 
C 10.59375 4.296875 9.5 3.59375 3.09375 3.59375 
L 2.703125 3.59375 
L 2.703125 0 
L 28 0 
L 28 3.59375 
L 27.59375 3.59375 
C 21.09375 3.59375 20 4.296875 20 8.28125 
L 20 12.28125 
L 20 22.65625 
C 20 27.546875 20.703125 32.03125 21.796875 34.328125 
C 23.90625 38.828125 28.40625 41.921875 32.703125 41.921875 
C 35.296875 41.921875 38.296875 40.421875 39.796875 38.421875 
C 41.296875 36.328125 42 33.234375 42 28.4375 
L 42 12.28125 
L 42 8.28125 
C 42 4.296875 40.90625 3.59375 34.40625 3.59375 
L 34 3.59375 
L 34 0 
L 59.296875 0 
L 59.296875 3.59375 
L 58.90625 3.59375 
C 52.5 3.59375 51.40625 4.296875 51.40625 8.28125 
L 51.40625 12.28125 
L 51.40625 27.953125 
C 51.40625 35.125 51.09375 36.921875 49.296875 40.328125 
C 46.796875 45.109375 41.703125 48 35.796875 48 
C 29.40625 48 24.40625 45.046875 20 38.515625 
z
" id="Century_Schoolbook_L_Roman-110"/>
      <path d="M 38 0 
L 55.40625 0 
L 55.40625 4.703125 
L 53.59375 4.703125 
C 48.203125 4.703125 47.40625 5.703125 47.40625 11.96875 
L 47.40625 73.78125 
L 27.796875 73.78125 
L 27.796875 69 
L 33.703125 69 
C 37.296875 69 38 68.28125 38 63.921875 
L 38 41 
C 34.296875 46.09375 30 48.390625 24.203125 48.390625 
C 12.90625 48.390625 4.296875 37.546875 4.296875 23.203125 
C 4.296875 9.0625 12.59375 -1 24.203125 -1 
C 30.5 -1 34.796875 1.671875 38 7.59375 
z
M 26.203125 43 
C 30.296875 43 34.203125 40.03125 36 35.4375 
C 37.203125 32.453125 37.90625 28.28125 37.90625 23.515625 
C 37.90625 11.96875 33.296875 4.390625 26.09375 4.390625 
C 19.09375 4.390625 14.796875 10.96875 14.796875 22.015625 
C 14.796875 27.890625 15.40625 32.359375 16.703125 35.734375 
C 18.40625 40.125 22.09375 43 26.203125 43 
z
" id="Century_Schoolbook_L_Roman-100"/>
      <path d="M 20.40625 73 
L 1.90625 73 
L 1.90625 68.21875 
L 6.796875 68.21875 
C 10.40625 68.21875 11 67.515625 11 63.21875 
L 11 12.28125 
L 11 8.28125 
C 11 4.296875 9.90625 3.59375 3.5 3.59375 
L 2.796875 3.59375 
L 2.796875 0 
L 28.703125 0 
L 28.703125 3.59375 
L 28 3.59375 
C 21.5 3.59375 20.40625 4.296875 20.40625 8.25 
L 20.40625 12.21875 
z
" id="Century_Schoolbook_L_Roman-108"/>
      <path d="M 63.90625 72 
L 60.09375 72 
L 56.09375 66.015625 
C 49 71.203125 45.09375 72.703125 38.40625 72.703125 
C 28.703125 72.703125 20.703125 68.8125 13.90625 60.78125 
C 7.5 53.234375 4.5 44.890625 4.5 34.65625 
C 4.5 13.296875 18.59375 -2 38.296875 -2 
C 54.296875 -2 64.5 7.34375 66.796875 24.015625 
L 62.09375 24.8125 
C 61.09375 19.546875 59.90625 15.984375 58.09375 13.015625 
C 54 6.171875 47.59375 2.6875 39.5 2.6875 
C 24.703125 2.6875 17.703125 12.90625 17.703125 34.265625 
C 17.703125 45.46875 19.203125 53.015625 22.59375 58.96875 
C 25.703125 64.53125 31.90625 68 38.296875 68 
C 45.296875 68 51.5 64.328125 55.296875 57.96875 
C 57.203125 54.6875 58.703125 50.8125 61 43.171875 
L 65.40625 43.171875 
z
" id="Century_Schoolbook_L_Roman-67"/>
      <path d="M 41.203125 0 
L 59.40625 0 
L 59.40625 4.703125 
L 56.90625 4.703125 
C 51.40625 4.703125 50.59375 5.59375 50.59375 11.953125 
L 50.59375 46.78125 
L 31.796875 46.78125 
L 31.796875 42 
L 36.90625 42 
C 40.59375 42 41.203125 41.296875 41.203125 36.953125 
L 41.203125 24.5625 
C 41.203125 18.8125 40.59375 15.484375 39.09375 12.15625 
C 37 7.71875 33 5.09375 28.09375 5.09375 
C 25 5.09375 22.40625 6.1875 21.09375 8.171875 
C 19.796875 10.046875 19.59375 11.046875 19.59375 16.5 
L 19.59375 46.78125 
L 2.09375 46.78125 
L 2.09375 42 
L 5.90625 42 
C 9.59375 42 10.203125 41.296875 10.203125 36.953125 
L 10.203125 15.21875 
C 10.203125 10.078125 10.59375 7.765625 12.09375 5.453125 
C 14.796875 1.3125 19.59375 -1 25.59375 -1 
C 32.203125 -1 36.796875 1.71875 41.203125 8.125 
z
" id="Century_Schoolbook_L_Roman-117"/>
      <path d="M 19.796875 46 
L 2.09375 46 
L 2.09375 41.21875 
L 6.203125 41.21875 
C 9.90625 41.21875 10.5 40.515625 10.5 36.203125 
L 10.5 12.296875 
L 10.5 8.296875 
C 10.5 4.296875 9.40625 3.59375 2.90625 3.59375 
L 2.5 3.59375 
L 2.5 0 
L 29.203125 0 
L 29.203125 3.59375 
L 27.296875 3.59375 
C 20.90625 3.59375 19.796875 4.296875 19.796875 8.296875 
L 19.796875 12.296875 
L 19.796875 13.296875 
C 19.796875 20.8125 21.203125 28.40625 23.703125 34.109375 
C 26.09375 39.703125 29.5 42.8125 33.703125 43.3125 
C 32.296875 41.703125 31.90625 40.6875 31.90625 38.765625 
C 31.90625 35.546875 34.203125 33.234375 37.40625 33.234375 
C 41 33.234375 43.5 35.9375 43.5 40.015625 
C 43.5 44.8125 40.09375 48 34.796875 48 
C 28.5 48 23 42.921875 19.796875 34.140625 
z
" id="Century_Schoolbook_L_Roman-114"/>
      <path d="M 19.40625 47 
L 19.40625 67 
L 15.296875 67 
C 14.296875 53.875 9.90625 47.1875 1.796875 46.59375 
L 1.796875 42.703125 
L 10 42.703125 
L 10 17.265625 
C 10 10.28125 10.203125 7.78125 11.203125 5.484375 
C 12.796875 1.296875 16.796875 -1 22.59375 -1 
C 26.5 -1 29.90625 0.203125 32.203125 2.390625 
C 35.5 5.59375 37.40625 10.875 37.40625 16.375 
C 37.40625 16.96875 37.40625 17.671875 37.296875 18.671875 
L 33.09375 18.671875 
C 32.796875 9.6875 30.203125 5.09375 25.296875 5.09375 
C 23 5.09375 21 6.28125 20.296875 7.984375 
C 19.703125 9.375 19.40625 11.875 19.40625 15.46875 
L 19.40625 42.703125 
L 34.09375 42.703125 
L 34.09375 47 
z
" id="Century_Schoolbook_L_Roman-116"/>
      <path d="M 39.296875 15.40625 
L 21 61.8125 
C 20.5 63.015625 20.203125 64.21875 20.203125 64.8125 
C 20.203125 66.609375 21.90625 67.3125 26.40625 67.3125 
L 30.40625 67.3125 
L 30.40625 72 
L -0.796875 72 
L -0.796875 67.3125 
L 1.203125 67.3125 
C 5.703125 67.3125 7 66.3125 8.90625 61.703125 
L 34.203125 -1.6875 
L 38.203125 -1.6875 
L 61.203125 57.515625 
C 64.203125 65.3125 66.40625 67.3125 72.09375 67.3125 
L 73.09375 67.3125 
L 73.09375 72 
L 46 72 
L 46 67.3125 
L 47.90625 67.3125 
C 53 67.3125 56 65.3125 56 62.109375 
C 56 60.71875 55.5 58.421875 54.796875 56.53125 
z
" id="Century_Schoolbook_L_Roman-86"/>
      <path d="M 25.203125 48.28125 
C 13 48.28125 3.40625 37.453125 3.40625 23.546875 
C 3.40625 9.9375 13 -1 25 -1 
C 37 -1 46.59375 9.9375 46.59375 23.640625 
C 46.59375 37.25 37 48.28125 25.203125 48.28125 
z
M 25.203125 44 
C 32.203125 44 36.09375 36.75 36.09375 23.640625 
C 36.09375 10.453125 32.203125 3.296875 25 3.296875 
C 17.796875 3.296875 13.90625 10.453125 13.90625 23.546875 
C 13.90625 37.046875 17.703125 44 25.203125 44 
z
" id="Century_Schoolbook_L_Roman-111"/>
     </defs>
     <g transform="translate(25.33795 220.11432)rotate(-90)scale(0.18 -0.18)">
      <use transform="translate(0 -1.570628)scale(0.996264)" xlink:href="#Century_Schoolbook_L_Roman-83"/>
      <use transform="translate(62.763979 -1.570628)scale(0.996264)" xlink:href="#Century_Schoolbook_L_Roman-112"/>
      <use transform="translate(119.949466 -1.570628)scale(0.996264)" xlink:href="#Century_Schoolbook_L_Roman-105"/>
      <use transform="translate(151.330779 -1.570628)scale(0.996264)" xlink:href="#Century_Schoolbook_L_Roman-110"/>
      <use transform="translate(212.20241 -1.570628)scale(0.996264)" xlink:href="#Century_Schoolbook_L_Roman-100"/>
      <use transform="translate(269.387897 -1.570628)scale(0.996264)" xlink:href="#Century_Schoolbook_L_Roman-108"/>
      <use transform="translate(300.76921 -1.570628)scale(0.996264)" xlink:href="#Century_Schoolbook_L_Roman-101"/>
      <use transform="translate(378.27758 -1.570628)scale(0.996264)" xlink:href="#Century_Schoolbook_L_Roman-67"/>
      <use transform="translate(450.207565 -1.570628)scale(0.996264)" xlink:href="#Century_Schoolbook_L_Roman-117"/>
      <use transform="translate(511.079196 -1.570628)scale(0.996264)" xlink:href="#Century_Schoolbook_L_Roman-114"/>
      <use transform="translate(555.312765 -1.570628)scale(0.996264)" xlink:href="#Century_Schoolbook_L_Roman-114"/>
      <use transform="translate(599.546333 -1.570628)scale(0.996264)" xlink:href="#Century_Schoolbook_L_Roman-101"/>
      <use transform="translate(649.359534 -1.570628)scale(0.996264)" xlink:href="#Century_Schoolbook_L_Roman-110"/>
      <use transform="translate(710.231164 -1.570628)scale(0.996264)" xlink:href="#Century_Schoolbook_L_Roman-116"/>
      <use transform="translate(776.68004 -1.570628)scale(0.996264)" xlink:href="#Century_Schoolbook_L_Roman-40"/>
      <use transform="translate(809.85527 -1.570628)scale(0.996264)" xlink:href="#Century_Schoolbook_L_Roman-86"/>
      <use transform="translate(874.31329 -1.570628)scale(0.996264)" xlink:href="#Century_Schoolbook_L_Roman-111"/>
      <use transform="translate(924.12649 -1.570628)scale(0.996264)" xlink:href="#Century_Schoolbook_L_Roman-108"/>
      <use transform="translate(955.507803 -1.570628)scale(0.996264)" xlink:href="#Century_Schoolbook_L_Roman-116"/>
      <use transform="translate(994.26151 -1.570628)scale(0.996264)" xlink:href="#Century_Schoolbook_L_Roman-115"/>
      <use transform="translate(1040.38732 -1.570628)scale(0.996264)" xlink:href="#Century_Schoolbook_L_Roman-41"/>
     </g>
    </g>
   </g>
   <g id="line2d_12">
    <path clip-path="url(#p302456f9c7)" d="M 65.7932 230.88 
L 77.942483 230.88 
L 77.980273 88.052785 
L 78.055852 99.998093 
L 78.074746 98.448646 
L 78.099939 104.699406 
L 78.106237 106.262096 
L 78.156623 92.475992 
L 78.16922 89.377099 
L 78.2385 98.713509 
L 78.295184 101.031058 
L 78.307781 97.932164 
L 78.326675 93.283823 
L 78.358167 103.613469 
L 78.389658 103.613469 
L 78.421149 106.262096 
L 78.458938 101.309164 
L 78.515622 95.866235 
L 78.534517 105.997233 
L 78.610096 112.751232 
L 78.635289 103.375093 
L 78.73606 98.448646 
L 78.704569 106.262096 
L 78.754955 99.998093 
L 78.792744 110.407198 
L 78.799043 112.751232 
L 78.830534 104.937783 
L 78.899814 109.347747 
L 78.956498 116.657957 
L 78.975393 104.182924 
L 79.019481 95.866235 
L 79.050972 112.751232 
L 79.076165 110.632331 
L 79.239919 103.613469 
L 79.176936 111.426919 
L 79.258813 104.408057 
L 79.284006 109.625853 
L 79.302901 116.657957 
L 79.334392 103.613469 
L 79.409971 116.101746 
L 79.428865 119.240369 
L 79.472953 108.818021 
L 79.523339 101.031058 
L 79.573725 112.221507 
L 79.649303 114.00933 
L 79.674496 111.943401 
L 79.712286 108.844508 
L 79.756373 112.724746 
L 79.806759 117.916055 
L 79.857145 111.969888 
L 79.869741 108.844508 
L 79.932724 119.240369 
L 79.939022 118.975506 
L 79.989408 112.724746 
L 80.058688 107.520194 
L 80.071285 114.803918 
L 80.090179 125.729505 
L 80.178355 114.565542 
L 80.184653 112.751232 
L 80.247635 120.498467 
L 80.272828 118.432538 
L 80.279126 117.916055 
L 80.323214 122.339262 
L 80.342109 126.987603 
L 80.405091 117.916055 
L 80.411389 117.916055 
L 80.436582 117.916055 
L 80.468073 132.218641 
L 80.531055 111.426919 
L 80.562547 108.844508 
L 80.575143 116.101746 
L 80.594038 126.987603 
L 80.688511 117.916055 
L 80.845967 130.894328 
L 80.864862 123.901952 
L 80.908949 119.240369 
L 80.959335 129.093262 
L 80.971931 132.218641 
L 81.022317 118.975506 
L 81.066405 111.426919 
L 81.097896 132.218641 
L 81.110493 130.126226 
L 81.129387 126.987603 
L 81.217562 130.642708 
L 81.286843 137.383464 
L 81.255352 128.311917 
L 81.349825 132.218641 
L 81.381316 124.405192 
L 81.431702 137.674813 
L 81.444299 138.707778 
L 81.469492 132.457018 
L 81.507281 124.405192 
L 81.551369 138.416429 
L 81.570263 139.965876 
L 81.608053 134.827539 
L 81.696228 128.311917 
L 81.721421 133.503226 
L 81.790701 139.965876 
L 81.853684 138.707778 
L 81.885175 130.894328 
L 81.916666 141.290189 
L 81.967052 137.383464 
L 81.979648 137.383464 
L 82.011139 129.63623 
L 82.08042 139.489123 
L 82.105613 142.614503 
L 82.137104 133.476739 
L 82.143402 133.741602 
L 82.168595 134.801053 
L 82.181191 132.205398 
L 82.200086 128.311917 
L 82.231577 142.614503 
L 82.25677 139.489123 
L 82.29456 137.383464 
L 82.338647 143.091256 
L 82.357542 147.779326 
L 82.389033 142.614503 
L 82.445717 142.614503 
L 82.452015 142.614503 
L 82.483506 145.196914 
L 82.502401 138.959397 
L 82.546489 132.218641 
L 82.590576 142.866122 
L 82.609471 149.103639 
L 82.672453 133.476739 
L 82.703944 133.476739 
L 82.848804 148.057431 
L 82.8614 151.68605 
L 82.943277 144.402326 
L 82.955874 143.872601 
L 82.96847 147.527706 
L 82.987365 153.010364 
L 83.044049 138.429672 
L 83.050347 137.383464 
L 83.100733 147.262843 
L 83.113329 150.361737 
L 83.176312 138.707778 
L 83.207803 133.476739 
L 83.239294 145.196914 
L 83.245592 144.932051 
L 83.321171 137.158331 
L 83.333767 136.125366 
L 83.352662 143.117742 
L 83.365258 147.779326 
L 83.453434 140.230738 
L 83.459732 139.965876 
L 83.478627 143.104499 
L 83.491223 145.196914 
L 83.535311 134.284571 
L 83.554205 129.63623 
L 83.604591 144.150706 
L 83.617188 147.779326 
L 83.686468 136.085637 
L 83.711661 130.894328 
L 83.743152 142.614503 
L 83.762047 142.614503 
L 83.806134 142.614503 
L 83.837626 137.383464 
L 83.913204 142.323154 
L 83.995081 146.455012 
L 84.032871 143.091256 
L 84.089555 139.965876 
L 84.121046 145.196914 
L 84.184028 145.196914 
L 84.410764 125.032916 
L 93.247179 125.032916 
L 93.253478 159.4995 
L 93.360548 152.732258 
L 93.379442 158.175187 
L 93.436126 143.369361 
L 93.442425 141.290189 
L 93.499109 156.360877 
L 93.536898 160.757598 
L 93.562091 147.2496 
L 93.568389 143.872601 
L 93.631371 155.592775 
L 93.656564 155.592775 
L 93.662863 155.592775 
L 93.725845 147.779326 
L 93.751038 156.096015 
L 93.788827 159.4995 
L 93.820318 150.361737 
L 93.870704 158.956532 
L 93.883301 162.081912 
L 93.933686 147.792569 
L 93.946283 145.196914 
L 94.002967 155.036564 
L 94.040756 159.4995 
L 94.072247 145.196914 
L 94.078546 145.713396 
L 94.292685 163.34001 
L 94.298984 158.665183 
L 94.500527 87.215253 
L 95.564928 87.215253 
L 95.583822 228.297589 
L 95.671998 87.215253 
L 95.722383 87.215253 
L 95.835752 228.297589 
L 95.873541 157.645461 
L 95.961716 223.06655 
L 95.986909 87.215253 
L 96.005804 87.215253 
L 96.150663 217.901727 
L 96.175856 202.3278 
L 96.182154 198.434318 
L 96.213645 230.88 
L 96.276628 203.599141 
L 96.33961 217.901727 
L 96.364803 197.136491 
L 96.604135 87.215253 
L 96.900152 87.215253 
L 96.90645 89.377099 
L 97.007222 87.215253 
L 97.12059 87.215253 
L 97.126888 88.052785 
L 97.22766 87.215253 
L 97.366221 87.215253 
L 97.504782 94.541921 
L 97.517379 93.508957 
L 97.700027 87.215253 
L 97.851185 95.866235 
L 97.863781 95.336509 
L 97.882676 94.541921 
L 97.888974 96.621094 
L 98.00864 106.262096 
L 97.945658 87.215253 
L 98.021237 104.169681 
L 98.172394 87.215253 
L 98.184991 91.933024 
L 98.197587 97.124333 
L 98.229079 87.215253 
L 98.285763 88.317648 
L 98.292061 88.052785 
L 98.298359 91.429785 
L 98.323552 104.937783 
L 98.355043 88.052785 
L 98.424324 100.024579 
L 98.512499 106.262096 
L 98.531393 101.574026 
L 98.638463 93.283823 
L 98.606972 103.613469 
L 98.657358 95.588129 
L 98.732937 103.613469 
L 98.701446 90.635196 
L 98.745533 96.356231 
L 98.770726 87.215253 
L 98.82741 97.124333 
L 98.858901 94.541921 
L 98.921884 108.844508 
L 98.978568 98.713509 
L 98.984866 98.448646 
L 99.016357 101.031058 
L 99.047848 114.00933 
L 99.142322 110.102605 
L 99.268286 94.541921 
L 99.280883 95.071647 
L 99.331269 101.031058 
L 99.343865 94.806784 
L 99.381654 87.215253 
L 99.43204 102.871854 
L 99.545408 108.844508 
L 99.658776 87.215253 
L 105.906619 87.215253 
L 105.912918 93.283823 
L 106.013689 87.215253 
L 106.19004 87.215253 
L 106.196338 90.635196 
L 106.29711 87.215253 
L 106.309706 87.284683 
L 106.322303 89.377099 
L 106.328601 87.215253 
L 106.416776 87.215253 
L 107.29223 87.215253 
L 107.330019 89.377099 
L 107.3993 87.215253 
L 107.544159 87.215253 
L 107.550457 88.052785 
L 107.651229 87.215253 
L 115.605892 87.215253 
L 115.675172 107.520194 
L 115.712962 87.215253 
L 115.750751 87.215253 
L 115.769646 108.844508 
L 115.857821 87.215253 
L 115.864119 87.215253 
L 116.179031 217.901727 
L 116.185329 216.087418 
L 116.242013 217.901727 
L 116.349083 154.824674 
L 116.462451 87.215253 
L 116.475047 105.970747 
L 116.588416 217.901727 
L 116.619907 216.577414 
L 116.682889 186.714144 
L 116.783661 87.215253 
L 116.796257 147.276086 
L 116.871836 217.901727 
L 116.915923 196.355146 
L 117.004099 87.215253 
L 117.022993 170.372114 
L 117.092274 217.901727 
L 117.130063 186.979006 
L 117.199344 87.215253 
L 117.230835 211.664211 
L 117.281221 217.901727 
L 117.293817 200.76511 
L 117.375694 133.476739 
L 117.344203 225.715177 
L 117.400887 201.01673 
L 117.407185 217.901727 
L 117.470168 126.987603 
L 117.514255 87.215253 
L 117.564641 217.901727 
L 117.596132 217.901727 
L 117.646518 87.215253 
L 117.703202 212.458799 
L 117.753588 221.808452 
L 117.81657 217.901727 
L 117.892149 87.215253 
L 117.92364 213.213657 
L 117.974026 221.808452 
L 118.037008 216.577414 
L 118.081096 87.215253 
L 118.144078 216.842277 
L 118.162973 226.973275 
L 118.194464 210.088277 
L 118.257446 221.808452 
L 118.320428 216.577414 
L 118.427498 87.215253 
L 118.383411 217.901727 
L 118.433797 103.639955 
L 118.446393 217.901727 
L 118.509375 90.635196 
L 118.553463 214.021489 
L 118.63534 221.808452 
L 118.603849 210.088277 
L 118.660533 212.432312 
L 118.673129 166.46539 
L 118.710919 87.215253 
L 118.773901 213.743383 
L 118.792796 219.226041 
L 118.824287 210.088277 
L 118.855778 217.901727 
L 118.962848 87.215253 
L 118.91876 221.808452 
L 118.975444 156.599254 
L 119.044725 217.901727 
L 119.088812 213.213657 
L 119.107707 217.901727 
L 119.202181 221.808452 
L 119.23997 87.215253 
L 119.258865 87.215253 
L 119.296654 219.226041 
L 119.391127 217.901727 
L 119.422619 208.83018 
L 119.485601 219.226041 
L 119.52339 211.650967 
L 119.580074 217.901727 
L 119.611565 210.088277 
L 119.643057 216.577414 
L 119.706039 199.692416 
L 119.756425 213.981759 
L 119.863495 217.901727 
L 119.800512 210.088277 
L 119.869793 216.339037 
L 119.989459 210.088277 
L 119.957968 219.226041 
L 119.995757 211.650967 
L 120.052441 219.226041 
L 120.083933 210.088277 
L 120.134318 218.696315 
L 120.146915 219.226041 
L 120.216195 87.215253 
L 120.253985 222.841417 
L 120.272879 224.390864 
L 120.316967 87.215253 
L 120.379949 214.776347 
L 120.461826 219.226041 
L 120.493317 178.966909 
L 120.594089 87.215253 
L 120.5563 221.808452 
L 120.606686 147.011224 
L 120.682264 217.901727 
L 120.726352 212.458799 
L 120.776738 217.901727 
L 120.789334 200.235385 
L 120.83972 208.83018 
L 120.978281 87.215253 
L 121.129439 87.215253 
L 121.343578 129.63623 
L 121.356175 117.161197 
L 121.375069 98.448646 
L 121.438052 125.729505 
L 121.475841 101.587269 
L 121.532525 128.311917 
L 121.564016 101.031058 
L 121.639595 118.180918 
L 121.702577 87.215253 
L 121.708876 113.519334 
L 121.721472 217.901727 
L 121.803349 87.215253 
L 121.815946 87.215253 
L 121.828542 87.215253 
L 121.847437 221.808452 
L 121.948208 153.123924 
L 128.328314 153.123924 
L 128.334612 217.901727 
L 128.397595 104.937783 
L 128.441682 181.536078 
L 128.536156 87.215253 
L 128.492068 217.901727 
L 128.548752 159.221395 
L 128.55505 217.901727 
L 128.586541 87.215253 
L 128.649524 87.215253 
L 128.655822 87.215253 
L 128.681015 217.901727 
L 128.76919 106.500473 
L 128.775488 87.215253 
L 128.80698 208.83018 
L 128.851067 164.942429 
L 128.932944 217.901727 
L 128.901453 156.850873 
L 128.977032 207.744243 
L 128.995926 210.088277 
L 129.115593 87.215253 
L 157.28757 87.215253 
L 157.306465 229.555686 
L 157.39464 87.215253 
L 157.413535 87.215253 
L 157.463921 217.901727 
L 157.520605 87.215253 
L 157.539499 87.215253 
L 157.652868 225.715177 
L 157.703253 218.696315 
L 157.71585 219.226041 
L 157.791429 87.215253 
L 157.82292 209.849901 
L 157.841814 207.505866 
L 157.860709 218.431453 
L 157.873306 225.715177 
L 157.955183 213.213657 
L 157.967779 210.088277 
L 157.99927 217.901727 
L 158.081147 87.215253 
L 158.112638 195.798934 
L 158.125235 193.20328 
L 158.137831 206.208039 
L 158.156726 225.715177 
L 158.163024 161.830292 
L 158.200813 87.215253 
L 158.219708 217.901727 
L 158.263796 214.776347 
L 158.377164 201.01673 
L 158.314182 217.901727 
L 158.408655 204.923455 
L 158.440146 221.808452 
L 158.465339 187.535218 
L 158.503128 154.268462 
L 158.553514 213.981759 
L 158.566111 229.555686 
L 158.597602 210.088277 
L 158.660584 217.901727 
L 158.786549 208.83018 
L 158.792847 210.644489 
L 158.81804 217.901727 
L 158.88732 206.459658 
L 159.132951 110.102605 
L 159.145548 119.981984 
L 159.227425 147.779326 
L 159.252618 117.637949 
L 159.258916 110.102605 
L 159.321898 159.4995 
L 159.340793 144.680432 
L 159.479354 121.82278 
L 159.52974 115.055538 
L 159.655704 87.215253 
L 159.687195 97.667301 
L 159.718687 87.215253 
L 159.838353 193.494629 
L 159.970616 217.901727 
L 159.983212 217.901727 
L 160.014703 208.83018 
L 160.071387 217.901727 
L 160.184756 87.215253 
L 160.512263 87.215253 
L 160.518562 224.390864 
L 160.619333 87.215253 
L 160.694912 87.215253 
L 160.713807 102.077265 
L 160.770491 153.010364 
L 160.84607 131.159191 
L 161.035016 87.215253 
L 161.085402 224.390864 
L 161.142086 87.215253 
L 161.192472 87.215253 
L 161.274349 219.226041 
L 161.362524 218.961178 
L 161.368823 219.226041 
L 161.381419 215.570936 
L 161.431805 181.549321 
L 161.545173 87.215253 
L 161.494787 224.390864 
L 161.551471 102.328885 
L 161.677436 217.901727 
L 161.683734 217.901727 
L 161.809699 87.215253 
L 161.815997 107.308304 
L 161.904172 217.901727 
L 161.954558 214.776347 
L 161.967154 217.901727 
L 162.086821 87.215253 
L 162.219083 87.215253 
L 162.23168 92.237616 
L 162.282066 112.751232 
L 162.363943 112.221507 
L 162.395434 117.399573 
L 162.439521 120.498467 
L 162.489907 114.313922 
L 162.596977 103.613469 
L 162.533995 121.82278 
L 162.65996 106.262096 
L 162.691451 106.262096 
L 162.722942 114.00933 
L 162.754433 98.448646 
L 162.798521 87.215253 
L 162.811117 162.055425 
L 162.817415 223.06655 
L 162.848906 87.215253 
L 162.924485 215.570936 
L 162.94338 210.088277 
L 162.974871 216.577414 
L 163.018959 87.215253 
L 163.037853 221.808452 
L 163.081941 204.14211 
L 163.132327 217.901727 
L 163.144923 201.268349 
L 163.2268 90.635196 
L 163.195309 221.808452 
L 163.251993 185.191183 
L 163.352765 221.808452 
L 163.321274 149.103639 
L 163.365361 212.458799 
L 163.384256 198.434318 
L 163.459835 220.497382 
L 163.478729 224.390864 
L 163.491326 208.287211 
L 163.51022 184.131732 
L 163.541712 217.901727 
L 163.592097 217.120382 
L 163.604694 221.808452 
L 163.667676 208.83018 
L 163.705465 219.742523 
L 163.825132 224.390864 
L 163.76215 217.901727 
L 163.837728 221.795209 
L 163.919605 223.06655 
L 163.9385 188.025214 
L 164.014079 121.82278 
L 163.982588 217.901727 
L 164.039272 203.877247 
L 164.04557 224.390864 
L 164.121149 114.525813 
L 164.184131 87.215253 
L 164.203026 217.901727 
L 164.234517 217.901727 
L 164.266008 126.987603 
L 164.297499 221.808452 
L 164.347885 206.486145 
L 164.360481 217.901727 
L 164.410867 176.848008 
L 164.499042 87.215253 
L 164.454955 221.808452 
L 164.511639 167.286464 
L 164.61241 219.226041 
L 164.618709 198.182699 
L 164.675393 224.390864 
L 164.75727 87.215253 
L 164.763568 87.215253 
L 164.795059 192.713284 
L 164.86434 219.226041 
L 164.908427 214.776347 
L 165.021795 210.088277 
L 164.958813 217.901727 
L 165.028094 211.650967 
L 165.116269 210.088277 
L 165.160356 217.901727 
L 165.179251 217.901727 
L 165.248532 178.159078 
L 165.336707 224.390864 
L 165.380794 87.215253 
L 165.387093 87.215253 
L 165.557145 224.390864 
L 165.594934 87.215253 
L 165.664215 212.180693 
L 165.7146 221.808452 
L 165.720899 208.300454 
L 165.746092 154.268462 
L 165.82167 220.259005 
L 165.840565 221.808452 
L 165.853162 216.087418 
L 165.916144 155.553046 
L 165.96653 217.901727 
L 166.03581 87.215253 
L 166.155477 216.577414 
L 166.174371 151.93767 
L 166.256248 87.215253 
L 166.218459 210.088277 
L 166.275143 184.144975 
L 166.344423 217.901727 
L 166.300336 87.215253 
L 166.363318 87.215253 
L 166.388511 87.215253 
L 166.470388 217.901727 
L 166.495581 94.316788 
L 166.501879 87.215253 
L 166.520774 156.109258 
L 166.53337 217.901727 
L 166.564861 112.751232 
L 166.634142 184.634971 
L 166.690826 224.390864 
L 166.722317 216.577414 
L 166.810492 87.215253 
L 166.835685 150.664012 
L 417.48 150.664012 
L 417.48 150.664012 
" style="fill:none;stroke:#e41a1c;stroke-linecap:square;stroke-width:2;"/>
   </g>
   <g id="line2d_13">
    <path clip-path="url(#p302456f9c7)" d="M 65.7932 230.88 
L 66.920583 230.88 
L 67.033951 217.950173 
L 67.550406 217.950173 
L 67.663774 87.215253 
L 68.117246 87.215253 
L 68.230615 167.667511 
L 68.810052 167.667511 
L 68.92342 225.13341 
L 69.31391 225.13341 
L 69.427278 223.696763 
L 69.880751 223.696763 
L 69.994119 228.006705 
L 70.510573 228.006705 
L 70.623942 230.88 
L 71.707237 230.88 
L 71.820605 229.443353 
L 89.846136 229.443353 
L 89.959504 228.006705 
L 90.412977 228.006705 
L 90.526345 205.020346 
L 91.042799 205.020346 
L 91.156168 190.653871 
L 91.672622 190.653871 
L 91.78599 177.724044 
L 92.239463 177.724044 
L 92.352831 159.047627 
L 92.869286 159.047627 
L 92.982654 128.87803 
L 93.436126 128.87803 
L 93.549494 171.977454 
L 94.065949 171.977454 
L 94.179317 228.006705 
L 94.695772 228.006705 
L 94.80914 229.443353 
L 95.892436 229.443353 
L 96.005804 225.13341 
L 96.459276 225.13341 
L 96.572644 223.696763 
L 97.089099 223.696763 
L 97.202467 222.260115 
L 97.65594 222.260115 
L 97.769308 220.823468 
L 98.285763 220.823468 
L 98.399131 219.38682 
L 99.545408 219.38682 
L 99.658776 217.950173 
L 101.308912 217.950173 
L 101.422281 216.513525 
L 102.505576 216.513525 
L 102.618944 215.076878 
L 103.765222 215.076878 
L 103.87859 213.64023 
L 104.332062 213.64023 
L 104.44543 212.203583 
L 104.898903 212.203583 
L 105.012271 210.766935 
L 106.284513 210.766935 
L 106.397881 209.330288 
L 107.355212 209.330288 
L 107.46858 206.456993 
L 107.985035 206.456993 
L 108.098403 205.020346 
L 108.614858 205.020346 
L 108.728226 203.583698 
L 109.181698 203.583698 
L 109.295067 200.710403 
L 109.811521 200.710403 
L 109.924889 199.273756 
L 110.378362 199.273756 
L 110.49173 194.963813 
L 111.008185 194.963813 
L 111.121553 192.090518 
L 111.638008 192.090518 
L 111.751376 184.907281 
L 112.204848 184.907281 
L 112.318216 179.160691 
L 112.897653 179.160691 
L 113.011022 169.104159 
L 113.527476 169.104159 
L 113.640844 159.047627 
L 114.094317 159.047627 
L 114.207685 143.244505 
L 114.598175 143.244505 
L 114.711543 123.13144 
L 115.227998 123.13144 
L 115.341366 92.961843 
L 115.857821 92.961843 
L 115.971189 87.215253 
L 121.274298 87.215253 
L 121.387666 197.837108 
L 121.904121 197.837108 
L 122.017489 87.215253 
L 127.320598 87.215253 
L 127.433966 144.681152 
L 127.95042 144.681152 
L 128.063789 220.823468 
L 128.517261 220.823468 
L 128.630629 213.64023 
L 129.713924 213.64023 
L 129.827293 216.513525 
L 130.343747 216.513525 
L 130.457115 217.950173 
L 130.910588 217.950173 
L 131.023956 219.38682 
L 132.170234 219.38682 
L 132.283602 217.950173 
L 133.429879 217.950173 
L 133.543248 216.513525 
L 133.99672 216.513525 
L 134.110088 215.076878 
L 135.193384 215.076878 
L 135.306752 213.64023 
L 137.01987 213.64023 
L 137.133238 212.203583 
L 137.586711 212.203583 
L 137.700079 210.766935 
L 138.279516 210.766935 
L 138.392884 209.330288 
L 138.846356 209.330288 
L 138.959724 207.893641 
L 139.413197 207.893641 
L 139.526565 206.456993 
L 140.04302 206.456993 
L 140.156388 205.020346 
L 140.924772 205.020346 
L 141.03814 203.583698 
L 141.239683 203.583698 
L 141.353051 202.147051 
L 141.869506 202.147051 
L 141.982874 199.273756 
L 142.436347 199.273756 
L 142.549715 196.400461 
L 143.06617 196.400461 
L 143.179538 193.527166 
L 143.63301 193.527166 
L 143.746378 189.217223 
L 144.262833 189.217223 
L 144.376201 182.033986 
L 144.892656 182.033986 
L 145.006024 174.850749 
L 145.522479 174.850749 
L 145.635847 166.230864 
L 146.089319 166.230864 
L 146.202688 153.301037 
L 146.65616 153.301037 
L 146.769528 136.061267 
L 147.285983 136.061267 
L 147.399351 111.63826 
L 147.852824 111.63826 
L 147.966192 87.215253 
L 153.332283 87.215253 
L 153.445651 104.455023 
L 153.899123 104.455023 
L 154.012491 150.427742 
L 155.095787 150.427742 
L 155.209155 87.215253 
L 160.13437 87.215253 
L 160.247738 200.710403 
L 160.575246 200.710403 
L 160.688614 217.950173 
L 161.205069 217.950173 
L 161.318437 212.203583 
L 161.771909 212.203583 
L 161.885277 215.076878 
L 162.401732 215.076878 
L 162.5151 217.950173 
L 162.968573 217.950173 
L 163.081941 219.38682 
L 164.228218 219.38682 
L 164.341587 217.950173 
L 165.424882 217.950173 
L 165.53825 215.076878 
L 165.991723 215.076878 
L 166.105091 207.893641 
L 166.621545 207.893641 
L 166.734914 203.583698 
L 167.188386 203.583698 
L 167.301754 202.147051 
L 168.448032 202.147051 
L 168.5614 203.583698 
L 169.014872 203.583698 
L 169.128241 200.710403 
L 170.904341 200.710403 
L 171.017709 197.837108 
L 172.101005 197.837108 
L 172.214373 196.400461 
L 172.667845 196.400461 
L 172.781213 194.963813 
L 173.297668 194.963813 
L 173.411036 193.527166 
L 173.927491 193.527166 
L 174.040859 190.653871 
L 174.557314 190.653871 
L 174.670682 189.217223 
L 175.124154 189.217223 
L 175.237522 186.343929 
L 175.690995 186.343929 
L 175.804363 182.033986 
L 176.320818 182.033986 
L 176.434186 177.724044 
L 176.950641 177.724044 
L 177.064009 170.540806 
L 177.517481 170.540806 
L 177.630849 163.357569 
L 178.084322 163.357569 
L 178.19769 151.864389 
L 178.777127 151.864389 
L 178.890495 136.061267 
L 179.343968 136.061267 
L 179.457336 117.38485 
L 179.910808 117.38485 
L 180.024176 90.088548 
L 180.540631 90.088548 
L 180.653999 87.215253 
L 186.02009 87.215253 
L 186.133458 184.907281 
L 186.586931 184.907281 
L 186.700299 87.215253 
L 192.06639 87.215253 
L 192.179758 146.117799 
L 192.633231 146.117799 
L 192.746599 220.823468 
L 193.200071 220.823468 
L 193.313439 213.64023 
L 194.396735 213.64023 
L 194.510103 216.513525 
L 195.08954 216.513525 
L 195.202908 219.38682 
L 196.916026 219.38682 
L 197.029394 217.950173 
L 197.482867 217.950173 
L 197.596235 210.766935 
L 198.11269 210.766935 
L 198.226058 196.400461 
L 198.67953 196.400461 
L 198.792898 186.343929 
L 199.309353 186.343929 
L 199.422721 183.470634 
L 199.876194 183.470634 
L 199.989562 184.907281 
L 200.506017 184.907281 
L 200.619385 186.343929 
L 201.072857 186.343929 
L 201.186225 184.907281 
L 201.70268 184.907281 
L 201.816048 186.343929 
L 202.332503 186.343929 
L 202.445871 184.907281 
L 202.899344 184.907281 
L 203.012712 183.470634 
L 204.347936 183.470634 
L 204.461304 182.033986 
L 204.72583 182.033986 
L 204.839198 180.597339 
L 205.922493 180.597339 
L 206.035862 177.724044 
L 207.182139 177.724044 
L 207.295507 174.850749 
L 207.74898 174.850749 
L 207.862348 171.977454 
L 208.31582 171.977454 
L 208.429188 166.230864 
L 208.945643 166.230864 
L 209.059011 160.484274 
L 209.512484 160.484274 
L 209.625852 153.301037 
L 210.205289 153.301037 
L 210.318657 144.681152 
L 210.961076 144.681152 
L 211.074445 131.751325 
L 211.33897 131.751325 
L 211.452338 114.511555 
L 211.968793 114.511555 
L 212.082161 91.525196 
L 212.535634 91.525196 
L 212.649002 87.215253 
L 218.644916 87.215253 
L 218.758284 186.343929 
L 219.274739 186.343929 
L 219.388107 87.215253 
L 224.691215 87.215253 
L 224.804583 187.780576 
L 225.258056 187.780576 
L 225.371424 220.823468 
L 225.950861 220.823468 
L 226.064229 212.203583 
L 226.454719 212.203583 
L 226.568088 215.076878 
L 227.084542 215.076878 
L 227.19791 217.950173 
L 227.714365 217.950173 
L 227.827733 219.38682 
L 228.974011 219.38682 
L 229.087379 217.950173 
L 229.540852 217.950173 
L 229.65422 213.64023 
L 230.107692 213.64023 
L 230.22106 199.273756 
L 230.737515 199.273756 
L 230.850883 183.470634 
L 231.304356 183.470634 
L 231.417724 177.724044 
L 231.934178 177.724044 
L 232.047547 179.160691 
L 233.130842 179.160691 
L 233.24421 180.597339 
L 234.327505 180.597339 
L 234.440874 179.160691 
L 237.350655 179.160691 
L 237.464023 176.287396 
L 238.610301 176.287396 
L 238.723669 174.850749 
L 239.177142 174.850749 
L 239.29051 171.977454 
L 240.436787 171.977454 
L 240.550156 167.667511 
L 241.003628 167.667511 
L 241.116996 161.920922 
L 241.633451 161.920922 
L 241.746819 154.737684 
L 242.200291 154.737684 
L 242.31366 148.991094 
L 242.830114 148.991094 
L 242.943482 137.497915 
L 243.396955 137.497915 
L 243.510323 124.568087 
L 244.026778 124.568087 
L 244.140146 105.89167 
L 244.593618 105.89167 
L 244.706987 87.215253 
L 250.639918 87.215253 
L 250.753286 108.764965 
L 251.269741 108.764965 
L 251.383109 92.961843 
L 251.899564 92.961843 
L 252.012932 87.215253 
L 256.686218 87.215253 
L 256.799586 90.088548 
L 257.379023 90.088548 
L 257.492391 212.203583 
L 258.008846 212.203583 
L 258.122214 216.513525 
L 258.512704 216.513525 
L 258.626072 213.64023 
L 259.079545 213.64023 
L 259.192913 216.513525 
L 259.77235 216.513525 
L 259.885718 217.950173 
L 260.339191 217.950173 
L 260.452559 219.38682 
L 261.535854 219.38682 
L 261.649222 217.950173 
L 262.165677 217.950173 
L 262.279045 209.330288 
L 262.7955 209.330288 
L 262.908868 190.653871 
L 263.36234 190.653871 
L 263.475708 180.597339 
L 263.992163 180.597339 
L 264.105531 177.724044 
L 264.559004 177.724044 
L 264.672372 179.160691 
L 265.251809 179.160691 
L 265.365177 180.597339 
L 267.645136 180.597339 
L 267.758504 179.160691 
L 269.40864 179.160691 
L 269.522008 177.724044 
L 270.038463 177.724044 
L 270.151831 176.287396 
L 270.605304 176.287396 
L 270.718672 174.850749 
L 271.298109 174.850749 
L 271.411477 173.414101 
L 271.864949 173.414101 
L 271.978317 171.977454 
L 272.43179 171.977454 
L 272.545158 170.540806 
L 272.99863 170.540806 
L 273.111999 166.230864 
L 273.691436 166.230864 
L 273.804804 159.047627 
L 274.258276 159.047627 
L 274.371644 153.301037 
L 274.951081 153.301037 
L 275.06445 144.681152 
L 275.45494 144.681152 
L 275.568308 134.62462 
L 276.084763 134.62462 
L 276.198131 117.38485 
L 276.651603 117.38485 
L 276.764971 98.708433 
L 277.281426 98.708433 
L 277.394794 87.215253 
L 283.327726 87.215253 
L 283.441094 176.287396 
L 283.957549 176.287396 
L 284.070917 87.215253 
L 289.374025 87.215253 
L 289.487394 146.117799 
L 290.003848 146.117799 
L 290.117216 92.961843 
L 290.570689 92.961843 
L 290.684057 87.215253 
L 291.200512 87.215253 
L 291.31388 192.090518 
L 291.767352 192.090518 
L 291.880721 210.766935 
L 292.397175 210.766935 
L 292.510543 212.203583 
L 293.08998 212.203583 
L 293.203349 220.823468 
L 293.656821 220.823468 
L 293.770189 226.570058 
L 294.223662 226.570058 
L 294.33703 229.443353 
L 294.853485 229.443353 
L 294.966853 228.006705 
L 295.420325 228.006705 
L 295.533693 229.443353 
L 300.269961 229.443353 
L 300.383329 219.38682 
L 300.899784 219.38682 
L 301.013152 120.258145 
L 301.466625 120.258145 
L 301.579993 87.215253 
L 302.033465 87.215253 
L 302.146834 197.837108 
L 302.663288 197.837108 
L 302.776656 217.950173 
L 303.293111 217.950173 
L 303.406479 222.260115 
L 303.859952 222.260115 
L 303.97332 229.443353 
L 305.056615 229.443353 
L 305.169983 226.570058 
L 320.235347 226.570058 
L 320.348715 225.13341 
L 320.802187 225.13341 
L 320.915555 226.570058 
L 321.43201 226.570058 
L 321.545378 225.13341 
L 322.565691 225.13341 
L 322.67906 223.696763 
L 323.258497 223.696763 
L 323.371865 220.823468 
L 323.825337 220.823468 
L 323.938705 219.38682 
L 324.45516 219.38682 
L 324.568528 217.950173 
L 325.084983 217.950173 
L 325.198351 215.076878 
L 325.651824 215.076878 
L 325.765192 212.203583 
L 326.281646 212.203583 
L 326.395015 210.766935 
L 326.911469 210.766935 
L 327.024837 209.330288 
L 327.415328 209.330288 
L 327.528696 207.893641 
L 335.288114 207.893641 
L 335.401482 209.330288 
L 339.004069 209.330288 
L 339.117437 207.893641 
L 339.570909 207.893641 
L 339.684277 209.330288 
L 340.13775 209.330288 
L 340.251118 207.893641 
L 343.1609 207.893641 
L 343.274268 209.330288 
L 343.790723 209.330288 
L 343.904091 207.893641 
L 350.403863 207.893641 
L 350.517231 209.330288 
L 351.096668 209.330288 
L 351.210036 207.893641 
L 364.385931 207.893641 
L 364.499299 206.456993 
L 367.346098 206.456993 
L 367.459467 205.020346 
L 369.802408 205.020346 
L 369.915776 203.583698 
L 370.999071 203.583698 
L 371.112439 202.147051 
L 373.392398 202.147051 
L 373.505766 200.710403 
L 373.959239 200.710403 
L 374.072607 199.273756 
L 375.218885 199.273756 
L 375.332253 197.837108 
L 376.47853 197.837108 
L 376.591898 196.400461 
L 376.982389 196.400461 
L 377.095757 194.963813 
L 378.305017 194.963813 
L 378.418385 193.527166 
L 378.871857 193.527166 
L 378.985225 192.090518 
L 379.438698 192.090518 
L 379.552066 190.653871 
L 380.068521 190.653871 
L 380.181889 189.217223 
L 380.698344 189.217223 
L 380.811712 187.780576 
L 381.328166 187.780576 
L 381.441535 186.343929 
L 381.895007 186.343929 
L 382.008375 184.907281 
L 382.461848 184.907281 
L 382.575216 182.033986 
L 383.091671 182.033986 
L 383.205039 180.597339 
L 383.721493 180.597339 
L 383.834862 177.724044 
L 384.288334 177.724044 
L 384.401702 174.850749 
L 384.855175 174.850749 
L 384.968543 171.977454 
L 385.54798 171.977454 
L 385.661348 169.104159 
L 386.11482 169.104159 
L 386.228189 164.794217 
L 386.681661 164.794217 
L 386.795029 160.484274 
L 387.311484 160.484274 
L 387.424852 156.174332 
L 387.878324 156.174332 
L 387.991693 150.427742 
L 388.508147 150.427742 
L 388.621515 144.681152 
L 389.13797 144.681152 
L 389.251338 136.061267 
L 389.704811 136.061267 
L 389.818179 128.87803 
L 390.334634 128.87803 
L 390.448002 118.821498 
L 390.901474 118.821498 
L 391.014842 108.764965 
L 391.531297 108.764965 
L 391.644665 94.398491 
L 392.16112 94.398491 
L 392.274488 87.215253 
L 397.010756 87.215253 
L 397.124124 171.977454 
L 397.577597 171.977454 
L 397.690965 228.006705 
L 398.20742 228.006705 
L 398.320788 222.260115 
L 398.77426 222.260115 
L 398.887628 212.203583 
L 399.404083 212.203583 
L 399.517451 205.020346 
L 400.159871 205.020346 
L 400.273239 200.710403 
L 400.663729 200.710403 
L 400.777097 197.837108 
L 401.860392 197.837108 
L 401.973761 199.273756 
L 402.427233 199.273756 
L 402.540601 200.710403 
L 403.749861 200.710403 
L 403.863229 202.147051 
L 405.450383 202.147051 
L 405.563751 203.583698 
L 406.647046 203.583698 
L 406.760415 87.215253 
L 412.126505 87.215253 
L 412.239874 134.62462 
L 412.756328 134.62462 
L 412.869696 98.708433 
L 413.323169 98.708433 
L 413.436537 87.215253 
L 413.952992 87.215253 
L 414.06636 196.400461 
L 414.519832 196.400461 
L 414.633201 209.330288 
L 415.086673 209.330288 
L 415.200041 213.64023 
L 415.716496 213.64023 
L 415.829864 220.823468 
L 416.283337 220.823468 
L 416.396705 226.570058 
L 416.913159 226.570058 
L 417.026528 228.006705 
L 417.48 228.006705 
L 417.48 228.006705 
" style="fill:none;stroke:#377eb8;stroke-dasharray:7.4,3.2;stroke-dashoffset:0;stroke-linecap:round;stroke-width:2;"/>
   </g>
   <g id="patch_3">
    <path d="M 65.7932 230.88 
L 65.7932 15.38288 
" style="fill:none;stroke:#000000;stroke-linecap:square;stroke-linejoin:miter;stroke-width:0.8;"/>
   </g>
   <g id="patch_4">
    <path d="M 417.48 230.88 
L 417.48 15.38288 
" style="fill:none;"/>
   </g>
   <g id="patch_5">
    <path d="M 65.7932 230.88 
L 417.48 230.88 
" style="fill:none;stroke:#000000;stroke-linecap:square;stroke-linejoin:miter;stroke-width:0.8;"/>
   </g>
   <g id="patch_6">
    <path d="M 65.7932 15.38288 
L 417.48 15.38288 
" style="fill:none;"/>
   </g>
   <g id="legend_1">
    <g id="patch_7">
     <path d="M 241.19301 68.05458 
L 412.68 68.05458 
Q 415.88 68.05458 415.88 64.85458 
L 415.88 20.18288 
Q 415.88 16.98288 412.68 16.98288 
L 241.19301 16.98288 
Q 237.99301 16.98288 237.99301 20.18288 
L 237.99301 64.85458 
Q 237.99301 68.05458 241.19301 68.05458 
z
" style="fill:#ffffff;stroke:#000000;stroke-linejoin:miter;"/>
    </g>
    <g id="line2d_14">
     <path d="M 244.39301 29.63884 
L 276.39301 29.63884 
" style="fill:none;stroke:#e41a1c;stroke-linecap:square;stroke-width:2;"/>
    </g>
    <g id="line2d_15"/>
    <g id="text_14">
     <!-- Spindle Current -->
     <g transform="translate(289.19301 35.23884)scale(0.16 -0.16)">
      <use transform="translate(0 -1.570628)scale(0.996264)" xlink:href="#Century_Schoolbook_L_Roman-83"/>
      <use transform="translate(62.763979 -1.570628)scale(0.996264)" xlink:href="#Century_Schoolbook_L_Roman-112"/>
      <use transform="translate(119.949466 -1.570628)scale(0.996264)" xlink:href="#Century_Schoolbook_L_Roman-105"/>
      <use transform="translate(151.330779 -1.570628)scale(0.996264)" xlink:href="#Century_Schoolbook_L_Roman-110"/>
      <use transform="translate(212.20241 -1.570628)scale(0.996264)" xlink:href="#Century_Schoolbook_L_Roman-100"/>
      <use transform="translate(269.387897 -1.570628)scale(0.996264)" xlink:href="#Century_Schoolbook_L_Roman-108"/>
      <use transform="translate(300.76921 -1.570628)scale(0.996264)" xlink:href="#Century_Schoolbook_L_Roman-101"/>
      <use transform="translate(378.27758 -1.570628)scale(0.996264)" xlink:href="#Century_Schoolbook_L_Roman-67"/>
      <use transform="translate(450.207565 -1.570628)scale(0.996264)" xlink:href="#Century_Schoolbook_L_Roman-117"/>
      <use transform="translate(511.079196 -1.570628)scale(0.996264)" xlink:href="#Century_Schoolbook_L_Roman-114"/>
      <use transform="translate(555.312765 -1.570628)scale(0.996264)" xlink:href="#Century_Schoolbook_L_Roman-114"/>
      <use transform="translate(599.546333 -1.570628)scale(0.996264)" xlink:href="#Century_Schoolbook_L_Roman-101"/>
      <use transform="translate(649.359534 -1.570628)scale(0.996264)" xlink:href="#Century_Schoolbook_L_Roman-110"/>
      <use transform="translate(710.231164 -1.570628)scale(0.996264)" xlink:href="#Century_Schoolbook_L_Roman-116"/>
     </g>
    </g>
    <g id="line2d_16">
     <path d="M 244.39301 52.77469 
L 276.39301 52.77469 
" style="fill:none;stroke:#377eb8;stroke-dasharray:7.4,3.2;stroke-dashoffset:0;stroke-linecap:round;stroke-width:2;"/>
    </g>
    <g id="line2d_17"/>
    <g id="text_15">
     <!-- Spindle Load -->
     <defs>
      <path d="M 64.59375 27.328125 
L 60.203125 27.328125 
C 59.203125 20.546875 56.796875 13.765625 54.203125 10.484375 
C 51.09375 6.59375 45.296875 4.6875 36.90625 4.6875 
L 32.703125 4.6875 
C 29.703125 4.6875 27.203125 5.296875 26.296875 6.1875 
C 25.59375 6.78125 25.5 7.390625 25.5 9.484375 
L 25.5 59.734375 
L 25.5 62.609375 
C 25.5 66.8125 26.40625 67.3125 34.5 67.3125 
L 36.296875 67.3125 
L 36.296875 72 
L 3.5 72 
L 3.5 67.3125 
L 5.296875 67.3125 
C 13.40625 67.3125 14.296875 66.8125 14.296875 62.609375 
L 14.296875 59.734375 
L 14.296875 12.28125 
L 14.296875 9.375 
C 14.296875 5.1875 13.40625 4.6875 5.296875 4.6875 
L 3.5 4.6875 
L 3.5 0 
L 62.5 0 
z
" id="Century_Schoolbook_L_Roman-76"/>
      <path d="M 45.203125 32.578125 
C 45.203125 38.796875 44.09375 41.96875 41.203125 44.34375 
C 37.90625 46.90625 33 48.28125 26.59375 48.28125 
C 15.40625 48.28125 7.09375 43.046875 7.09375 35.921875 
C 7.09375 32.15625 9.40625 29.78125 12.90625 29.78125 
C 16 29.78125 18.296875 31.859375 18.296875 34.8125 
C 18.296875 36.109375 17.796875 37.484375 16.796875 38.875 
C 16.203125 39.546875 16.09375 39.84375 16.09375 40.15625 
C 16.09375 42.21875 20.203125 44 25 44 
C 28.09375 44 31.59375 43.015625 33.203125 41.53125 
C 35.09375 39.953125 35.796875 37.578125 35.796875 33.125 
L 35.796875 29.28125 
C 25.296875 27.484375 22.09375 26.6875 17.203125 24.8125 
C 8.59375 21.609375 4.40625 16.9375 4.40625 10.65625 
C 4.40625 3.578125 10.09375 -1 18.90625 -1 
C 25.796875 -1 32 1.859375 36.296875 7.0625 
C 37.90625 1.984375 40.40625 0 45.09375 0 
C 49.59375 0 54.296875 2.890625 54.296875 5.78125 
C 54.296875 6.46875 53.796875 6.96875 53.296875 6.96875 
C 52.90625 6.96875 52.5 6.875 51.796875 6.578125 
C 50.203125 6 49.796875 5.890625 49 5.890625 
C 46.203125 5.890625 45.203125 7.78125 45.203125 12.71875 
z
M 35.796875 20.46875 
C 35.796875 14.46875 35.5 13.078125 33.796875 10.484375 
C 31.296875 6.78125 26.703125 4.296875 22.40625 4.296875 
C 17.90625 4.296875 14.5 7.59375 14.5 12.078125 
C 14.5 16.265625 16.59375 19.265625 21 21.359375 
C 24.09375 22.75 28 23.75 35.796875 25.046875 
z
" id="Century_Schoolbook_L_Roman-97"/>
     </defs>
     <g transform="translate(289.19301 58.37469)scale(0.16 -0.16)">
      <use transform="translate(0 -1.570628)scale(0.996264)" xlink:href="#Century_Schoolbook_L_Roman-83"/>
      <use transform="translate(62.763979 -1.570628)scale(0.996264)" xlink:href="#Century_Schoolbook_L_Roman-112"/>
      <use transform="translate(119.949466 -1.570628)scale(0.996264)" xlink:href="#Century_Schoolbook_L_Roman-105"/>
      <use transform="translate(151.330779 -1.570628)scale(0.996264)" xlink:href="#Century_Schoolbook_L_Roman-110"/>
      <use transform="translate(212.20241 -1.570628)scale(0.996264)" xlink:href="#Century_Schoolbook_L_Roman-100"/>
      <use transform="translate(269.387897 -1.570628)scale(0.996264)" xlink:href="#Century_Schoolbook_L_Roman-108"/>
      <use transform="translate(300.76921 -1.570628)scale(0.996264)" xlink:href="#Century_Schoolbook_L_Roman-101"/>
      <use transform="translate(378.27758 -1.570628)scale(0.996264)" xlink:href="#Century_Schoolbook_L_Roman-76"/>
      <use transform="translate(444.727611 -1.570628)scale(0.996264)" xlink:href="#Century_Schoolbook_L_Roman-111"/>
      <use transform="translate(494.540812 -1.570628)scale(0.996264)" xlink:href="#Century_Schoolbook_L_Roman-97"/>
      <use transform="translate(549.932489 -1.570628)scale(0.996264)" xlink:href="#Century_Schoolbook_L_Roman-100"/>
     </g>
    </g>
   </g>
  </g>
 </g>
 <defs>
  <clipPath id="p302456f9c7">
   <rect height="215.49712" width="351.6868" x="65.7932" y="15.38288"/>
  </clipPath>
 </defs>
</svg>
