<?xml version="1.0" encoding="utf-8" standalone="no"?>
<!DOCTYPE svg PUBLIC "-//W3C//DTD SVG 1.1//EN"
  "http://www.w3.org/Graphics/SVG/1.1/DTD/svg11.dtd">
<!-- Created with matplotlib (https://matplotlib.org/) -->
<svg height="288pt" version="1.1" viewBox="0 0 432 288" width="432pt" xmlns="http://www.w3.org/2000/svg" xmlns:xlink="http://www.w3.org/1999/xlink">
 <defs>
  <style type="text/css">
*{stroke-linecap:butt;stroke-linejoin:round;}
  </style>
 </defs>
 <g id="figure_1">
  <g id="patch_1">
   <path d="M 0 288 
L 432 288 
L 432 0 
L 0 0 
z
" style="fill:#ffffff;"/>
  </g>
  <g id="axes_1">
   <g id="patch_2">
    <path d="M 79.79325 230.88 
L 417.48 230.88 
L 417.48 14.52 
L 79.79325 14.52 
z
" style="fill:#ffffff;"/>
   </g>
   <g id="matplotlib.axis_1">
    <g id="xtick_1">
     <g id="line2d_1">
      <defs>
       <path d="M 0 0 
L 0 3.5 
" id="m18077f9c7c" style="stroke:#000000;stroke-width:0.8;"/>
      </defs>
      <g>
       <use style="stroke:#000000;stroke-width:0.8;" x="140.268321" xlink:href="#m18077f9c7c" y="230.88"/>
      </g>
     </g>
     <g id="text_1">
      <!-- $10$ -->
      <defs>
       <path d="M 26.59375 63.40625 
C 26.59375 65.5 26.5 65.5 25.09375 65.5 
C 21.203125 61.1875 15.296875 59.796875 9.703125 59.796875 
C 9.40625 59.796875 8.90625 59.796875 8.796875 59.5 
C 8.703125 59.296875 8.703125 59.09375 8.703125 57 
C 11.796875 57 17 57.59375 21 59.984375 
L 21 7.203125 
C 21 3.6875 20.796875 2.5 12.203125 2.5 
L 9.203125 2.5 
L 9.203125 0 
C 14 0 19 0 23.796875 0 
C 28.59375 0 33.59375 0 38.40625 0 
L 38.40625 2.5 
L 35.40625 2.5 
C 26.796875 2.5 26.59375 3.59375 26.59375 7.15625 
z
" id="CMR17-49"/>
       <path d="M 42 31.640625 
C 42 37.75 41.90625 48.125 37.703125 56.109375 
C 34 63.109375 28.09375 65.59375 22.90625 65.59375 
C 18.09375 65.59375 12 63.40625 8.203125 56.203125 
C 4.203125 48.71875 3.796875 39.4375 3.796875 31.640625 
C 3.796875 25.953125 3.90625 17.28125 7 9.671875 
C 11.296875 -0.609375 19 -2 22.90625 -2 
C 27.5 -2 34.5 -0.109375 38.59375 9.375 
C 41.59375 16.28125 42 24.359375 42 31.640625 
z
M 22.90625 -0.40625 
C 16.5 -0.40625 12.703125 5.078125 11.296875 12.6875 
C 10.203125 18.5625 10.203125 27.15625 10.203125 32.75 
C 10.203125 40.4375 10.203125 46.828125 11.5 52.921875 
C 13.40625 61.390625 19 64 22.90625 64 
C 27 64 32.296875 61.296875 34.203125 53.125 
C 35.5 47.4375 35.59375 40.734375 35.59375 32.75 
C 35.59375 26.25 35.59375 18.265625 34.40625 12.375 
C 32.296875 1.484375 26.40625 -0.40625 22.90625 -0.40625 
z
" id="CMR17-48"/>
      </defs>
      <g transform="translate(132.013196 251.21795)scale(0.18 -0.18)">
       <use transform="scale(0.996264)" xlink:href="#CMR17-49"/>
       <use transform="translate(45.690477 0)scale(0.996264)" xlink:href="#CMR17-48"/>
      </g>
     </g>
    </g>
    <g id="xtick_2">
     <g id="line2d_2">
      <g>
       <use style="stroke:#000000;stroke-width:0.8;" x="200.743392" xlink:href="#m18077f9c7c" y="230.88"/>
      </g>
     </g>
     <g id="text_2">
      <!-- $20$ -->
      <defs>
       <path d="M 41.703125 15.453125 
L 39.90625 15.453125 
C 38.90625 8.375 38.09375 7.171875 37.703125 6.5625 
C 37.203125 5.765625 30 5.765625 28.59375 5.765625 
L 9.40625 5.765625 
C 13 9.671875 20 16.75 28.5 24.953125 
C 34.59375 30.734375 41.703125 37.53125 41.703125 47.421875 
C 41.703125 59.21875 32.296875 66 21.796875 66 
C 10.796875 66 4.09375 56.3125 4.09375 47.34375 
C 4.09375 43.4375 7 42.9375 8.203125 42.9375 
C 9.203125 42.9375 12.203125 43.546875 12.203125 47.03125 
C 12.203125 50.109375 9.59375 51 8.203125 51 
C 7.59375 51 7 50.90625 6.59375 50.703125 
C 8.5 59.21875 14.296875 63.40625 20.40625 63.40625 
C 29.09375 63.40625 34.796875 56.515625 34.796875 47.421875 
C 34.796875 38.734375 29.703125 31.25 24 24.75 
L 4.09375 2.28125 
L 4.09375 0 
L 39.296875 0 
z
" id="CMR17-50"/>
      </defs>
      <g transform="translate(192.488267 251.21795)scale(0.18 -0.18)">
       <use transform="scale(0.996264)" xlink:href="#CMR17-50"/>
       <use transform="translate(45.690477 0)scale(0.996264)" xlink:href="#CMR17-48"/>
      </g>
     </g>
    </g>
    <g id="xtick_3">
     <g id="line2d_3">
      <g>
       <use style="stroke:#000000;stroke-width:0.8;" x="261.218464" xlink:href="#m18077f9c7c" y="230.88"/>
      </g>
     </g>
     <g id="text_3">
      <!-- $30$ -->
      <defs>
       <path d="M 22.09375 33.703125 
C 31 33.703125 34.90625 25.96875 34.90625 17.03125 
C 34.90625 5 28.5 0.390625 22.703125 0.390625 
C 17.40625 0.390625 8.796875 3.03125 6.09375 10.828125 
C 6.59375 10.625 7.09375 10.625 7.59375 10.625 
C 10 10.625 11.796875 12.21875 11.796875 14.8125 
C 11.796875 17.703125 9.59375 19 7.59375 19 
C 5.90625 19 3.296875 18.203125 3.296875 14.46875 
C 3.296875 5.234375 12.296875 -2 22.90625 -2 
C 34 -2 42.5 6.71875 42.5 16.953125 
C 42.5 26.671875 34.5 33.703125 25 34.796875 
C 32.59375 36.375 39.90625 43.0625 39.90625 52.015625 
C 39.90625 59.6875 32 65.296875 23 65.296875 
C 13.90625 65.296875 5.90625 59.828125 5.90625 52.015625 
C 5.90625 48.59375 8.5 48 9.796875 48 
C 11.90625 48 13.703125 49.296875 13.703125 51.890625 
C 13.703125 54.46875 11.90625 55.765625 9.796875 55.765625 
C 9.40625 55.765625 8.90625 55.765625 8.5 55.578125 
C 11.40625 61.859375 19.296875 63 22.796875 63 
C 26.296875 63 32.90625 61.328125 32.90625 51.875 
C 32.90625 49.109375 32.5 44.1875 29.09375 39.84375 
C 26.09375 36 22.703125 36 19.40625 35.6875 
C 18.90625 35.6875 16.59375 35.453125 16.203125 35.453125 
C 15.5 35.359375 15.09375 35.265625 15.09375 34.5 
C 15.09375 33.796875 15.203125 33.703125 17.203125 33.703125 
z
" id="CMR17-51"/>
      </defs>
      <g transform="translate(252.963339 251.21795)scale(0.18 -0.18)">
       <use transform="scale(0.996264)" xlink:href="#CMR17-51"/>
       <use transform="translate(45.690477 0)scale(0.996264)" xlink:href="#CMR17-48"/>
      </g>
     </g>
    </g>
    <g id="xtick_4">
     <g id="line2d_4">
      <g>
       <use style="stroke:#000000;stroke-width:0.8;" x="321.693535" xlink:href="#m18077f9c7c" y="230.88"/>
      </g>
     </g>
     <g id="text_4">
      <!-- $40$ -->
      <defs>
       <path d="M 33.59375 64.40625 
C 33.59375 66.5 33.5 66.5 31.703125 66.5 
L 2 19.59375 
L 2 17 
L 27.796875 17 
L 27.796875 7.140625 
C 27.796875 3.5 27.59375 2.5 20.59375 2.5 
L 18.703125 2.5 
L 18.703125 0 
C 21.90625 0 27.296875 0 30.703125 0 
C 34.09375 0 39.5 0 42.703125 0 
L 42.703125 2.5 
L 40.796875 2.5 
C 33.796875 2.5 33.59375 3.5 33.59375 7.140625 
L 33.59375 17 
L 43.796875 17 
L 43.796875 19.59375 
L 33.59375 19.59375 
z
M 28.09375 57.859375 
L 28.09375 19.59375 
L 4 19.59375 
z
" id="CMR17-52"/>
      </defs>
      <g transform="translate(313.43841 251.21795)scale(0.18 -0.18)">
       <use transform="scale(0.996264)" xlink:href="#CMR17-52"/>
       <use transform="translate(45.690477 0)scale(0.996264)" xlink:href="#CMR17-48"/>
      </g>
     </g>
    </g>
    <g id="xtick_5">
     <g id="line2d_5">
      <g>
       <use style="stroke:#000000;stroke-width:0.8;" x="382.168606" xlink:href="#m18077f9c7c" y="230.88"/>
      </g>
     </g>
     <g id="text_5">
      <!-- $50$ -->
      <defs>
       <path d="M 11.40625 57.6875 
C 12.40625 57.28125 16.5 56 20.703125 56 
C 30 56 35.09375 61.109375 38 64.0625 
C 38 64.953125 38 65.5 37.40625 65.5 
C 37.296875 65.5 37.09375 65.5 36.296875 65.046875 
C 32.796875 63.40625 28.703125 62.078125 23.703125 62.078125 
C 20.703125 62.078125 16.203125 62.484375 11.296875 64.671875 
C 10.203125 65.171875 10 65.171875 9.90625 65.171875 
C 9.40625 65.171875 9.296875 65.0625 9.296875 63.078125 
L 9.296875 34.421875 
C 9.296875 32.640625 9.296875 32.140625 10.296875 32.140625 
C 10.796875 32.140625 11 32.34375 11.5 33.03125 
C 14.703125 37.515625 19.09375 39.40625 24.09375 39.40625 
C 27.59375 39.40625 35.09375 37.21875 35.09375 20.140625 
C 35.09375 16.953125 35.09375 11.171875 32.09375 6.578125 
C 29.59375 2.484375 25.703125 0.390625 21.40625 0.390625 
C 14.796875 0.390625 8.09375 5 6.296875 12.71875 
C 6.703125 12.609375 7.5 12.421875 7.90625 12.421875 
C 9.203125 12.421875 11.703125 13.125 11.703125 16.21875 
C 11.703125 18.90625 9.796875 20 7.90625 20 
C 5.59375 20 4.09375 18.59375 4.09375 15.796875 
C 4.09375 7.09375 11 -2 21.59375 -2 
C 31.90625 -2 41.703125 6.875 41.703125 19.75 
C 41.703125 31.71875 33.90625 41 24.203125 41 
C 19.09375 41 14.796875 39.109375 11.40625 35.53125 
z
" id="CMR17-53"/>
      </defs>
      <g transform="translate(373.913481 251.21795)scale(0.18 -0.18)">
       <use transform="scale(0.996264)" xlink:href="#CMR17-53"/>
       <use transform="translate(45.690477 0)scale(0.996264)" xlink:href="#CMR17-48"/>
      </g>
     </g>
    </g>
    <g id="text_6">
     <!-- Time (s) -->
     <defs>
      <path d="M 63.296875 72 
L 3.40625 72 
L 1.90625 44.265625 
L 6.203125 44.265625 
C 6.90625 49.25 7.796875 53.046875 8.90625 56.234375 
C 11.5 63.515625 16.296875 67.3125 23.09375 67.3125 
C 26.40625 67.3125 27.796875 66.203125 27.796875 63.71875 
L 27.796875 12.28125 
L 27.796875 9.375 
C 27.796875 5.1875 26.90625 4.6875 18.796875 4.6875 
L 16.203125 4.6875 
L 16.203125 0 
L 50.5 0 
L 50.5 4.6875 
L 47.90625 4.6875 
C 39.90625 4.6875 39 5.1875 39 9.375 
L 39 12.28125 
L 39 63.71875 
C 39 66.203125 40.40625 67.3125 43.703125 67.3125 
C 49.796875 67.3125 54.703125 63.90625 57.203125 57.921875 
C 58.703125 54.25 59.703125 49.953125 60.5 44.265625 
L 64.796875 44.265625 
z
" id="Century_Schoolbook_L_Roman-84"/>
      <path d="M 20.59375 46 
L 1.796875 46 
L 1.796875 41.21875 
L 6.90625 41.21875 
C 10.59375 41.21875 11.203125 40.515625 11.203125 36.203125 
L 11.203125 12.296875 
L 11.203125 8.296875 
C 11.203125 4.296875 10.09375 3.59375 3.703125 3.59375 
L 3 3.59375 
L 3 0 
L 28.90625 0 
L 28.90625 3.59375 
L 28.203125 3.59375 
C 21.703125 3.59375 20.59375 4.28125 20.59375 8.21875 
L 20.59375 12.171875 
z
M 15.90625 71.578125 
C 12.703125 71.578125 10.09375 68.984375 10.09375 65.796875 
C 10.09375 62.703125 12.703125 60 15.796875 60 
C 19.09375 60 21.703125 62.59375 21.703125 65.796875 
C 21.703125 68.984375 19.09375 71.578125 15.90625 71.578125 
z
" id="Century_Schoolbook_L_Roman-105"/>
      <path d="M 20.09375 46 
L 2.296875 46 
L 2.296875 41.21875 
L 6.40625 41.21875 
C 10.09375 41.21875 10.703125 40.515625 10.703125 36.203125 
L 10.703125 12.296875 
L 10.703125 8.40625 
C 10.703125 4.296875 9.59375 3.59375 3.203125 3.59375 
L 2.796875 3.59375 
L 2.796875 0 
L 28 0 
L 28 3.59375 
L 27.59375 3.59375 
C 21.203125 3.59375 20.09375 4.296875 20.09375 8.390625 
L 20.09375 12.28125 
L 20.09375 26.453125 
C 20.09375 35.328125 25 41.921875 31.5 41.921875 
C 34.09375 41.921875 36.90625 40.515625 38.09375 38.625 
C 39.5 36.734375 40.09375 33.828125 40.09375 29.734375 
L 40.09375 12.28125 
L 40.09375 8.28125 
C 40.09375 4.296875 39 3.59375 32.5 3.59375 
L 32.09375 3.59375 
L 32.09375 0 
L 57.40625 0 
L 57.40625 3.59375 
L 57 3.59375 
C 50.59375 3.59375 49.5 4.296875 49.5 8.28125 
L 49.5 12.28125 
L 49.5 25.546875 
C 49.5 35.53125 54 41.921875 61 41.921875 
C 64.296875 41.921875 67 40.015625 68.296875 36.921875 
C 69.203125 34.734375 69.5 32.53125 69.5 28.640625 
L 69.5 12.28125 
L 69.5 8.28125 
C 69.5 4.296875 68.40625 3.59375 61.90625 3.59375 
L 61.5 3.59375 
L 61.5 0 
L 86.796875 0 
L 86.796875 3.59375 
L 86.40625 3.59375 
C 80 3.59375 78.90625 4.296875 78.90625 8.390625 
L 78.90625 12.28125 
L 78.90625 30.640625 
C 78.90625 36.828125 78.296875 38.921875 75.703125 42.3125 
C 72.796875 46.015625 68.703125 48 63.90625 48 
C 57.40625 48 52.59375 44.9375 48.296875 38.109375 
C 46.59375 44.046875 41.203125 48 34.5 48 
C 28.5 48 24 45.140625 20.09375 38.921875 
z
" id="Century_Schoolbook_L_Roman-109"/>
      <path d="M 46.5 23 
C 46.59375 37.8125 38.09375 48.28125 25.90625 48.28125 
C 13.09375 48.28125 3.5 37.25 3.5 22.34375 
C 3.5 8.4375 12.59375 -1 26.09375 -1 
C 35.59375 -1 42.40625 3.6875 46.5 13.1875 
L 43 15.09375 
C 38.90625 7.390625 34.703125 4.390625 28 4.390625 
C 22.90625 4.390625 19.203125 6.59375 16.59375 11 
C 14.796875 14 14 17.5 14.09375 23 
z
M 14.203125 27.296875 
C 14.203125 30.34375 14.59375 32.5 15.59375 35.25 
C 17.703125 41.140625 20.90625 44 25.703125 44 
C 31.796875 44 35.796875 38.78125 35.796875 30.921875 
C 35.796875 28.078125 34.90625 27.296875 31.703125 27.296875 
z
" id="Century_Schoolbook_L_Roman-101"/>
      <path d="M 27.90625 73.453125 
C 21.90625 69.765625 18.703125 67.171875 15.296875 63.171875 
C 7.703125 54.1875 3.59375 42.71875 3.59375 30.640625 
C 3.59375 19.265625 7.203125 8.578125 13.90625 -0.296875 
C 17.703125 -5.09375 21.09375 -8.078125 27.90625 -12.28125 
L 27.90625 -8.578125 
C 17.90625 0.203125 13.90625 11.484375 13.90625 30.640625 
C 13.90625 49.796875 17.90625 60.984375 27.90625 69.765625 
z
" id="Century_Schoolbook_L_Roman-40"/>
      <path d="M 39 48 
L 35.5 48 
L 32.59375 44.40625 
C 29 47.203125 25.40625 48.390625 20.40625 48.390625 
C 11.59375 48.390625 5.796875 42.625 5.796875 33.953125 
C 5.796875 30.078125 7.09375 26.78125 9.296875 24.8125 
C 11.59375 22.703125 13.90625 21.71875 19.90625 20.3125 
L 25.203125 19.125 
C 33.09375 17.234375 35.90625 15.234375 35.90625 11.265625 
C 35.90625 6.578125 31.796875 3.296875 25.90625 3.296875 
C 17.5 3.296875 11.5 8.765625 9.09375 18.875 
L 5.09375 18.875 
L 5.09375 0 
L 8.59375 0 
L 12.09375 3.90625 
C 16.203125 0.59375 20.796875 -1 25.796875 -1 
C 35.59375 -1 42.09375 5.078125 42.09375 14.34375 
C 42.09375 18.71875 40.703125 22.09375 37.90625 24.390625 
C 35.5 26.484375 33.5 27.28125 27.40625 28.5625 
L 22.40625 29.671875 
C 16.90625 30.859375 16.90625 30.859375 15.09375 31.859375 
C 12.90625 32.859375 11.59375 34.9375 11.59375 37.140625 
C 11.59375 41.109375 15.40625 44 20.90625 44 
C 24.703125 44 27.796875 42.703125 30.59375 40.015625 
C 32.796875 37.8125 33.90625 35.828125 35.5 31.234375 
L 39 31.234375 
z
" id="Century_Schoolbook_L_Roman-115"/>
      <path d="M 5.40625 -12.28125 
C 11.40625 -8.578125 14.59375 -5.984375 18 -1.890625 
C 25.59375 6.984375 29.703125 18.5625 29.703125 30.640625 
C 29.703125 42.015625 26.09375 52.703125 19.40625 61.484375 
C 15.59375 66.375 12.203125 69.359375 5.40625 73.453125 
L 5.40625 69.765625 
C 15.40625 60.984375 19.40625 49.796875 19.40625 30.640625 
C 19.40625 11.375 15.40625 0.203125 5.40625 -8.578125 
z
" id="Century_Schoolbook_L_Roman-41"/>
     </defs>
     <g transform="translate(214.63516 273.24577)scale(0.18 -0.18)">
      <use transform="translate(0 -0.29235)scale(0.996264)" xlink:href="#Century_Schoolbook_L_Roman-84"/>
      <use transform="translate(66.450031 -0.29235)scale(0.996264)" xlink:href="#Century_Schoolbook_L_Roman-105"/>
      <use transform="translate(97.831344 -0.29235)scale(0.996264)" xlink:href="#Century_Schoolbook_L_Roman-109"/>
      <use transform="translate(186.398251 -0.29235)scale(0.996264)" xlink:href="#Century_Schoolbook_L_Roman-101"/>
      <use transform="translate(263.906621 -0.29235)scale(0.996264)" xlink:href="#Century_Schoolbook_L_Roman-40"/>
      <use transform="translate(297.081851 -0.29235)scale(0.996264)" xlink:href="#Century_Schoolbook_L_Roman-115"/>
      <use transform="translate(343.207661 -0.29235)scale(0.996264)" xlink:href="#Century_Schoolbook_L_Roman-41"/>
     </g>
    </g>
   </g>
   <g id="matplotlib.axis_2">
    <g id="ytick_1">
     <g id="line2d_6">
      <defs>
       <path d="M 0 0 
L -3.5 0 
" id="m1e674dd20b" style="stroke:#000000;stroke-width:0.8;"/>
      </defs>
      <g>
       <use style="stroke:#000000;stroke-width:0.8;" x="79.79325" xlink:href="#m1e674dd20b" y="230.88"/>
      </g>
     </g>
     <g id="text_7">
      <!-- $-200$ -->
      <defs>
       <path d="M 65.90625 23 
C 67.59375 23 69.40625 23 69.40625 25 
C 69.40625 27 67.59375 27 65.90625 27 
L 11.796875 27 
C 10.09375 27 8.296875 27 8.296875 25 
C 8.296875 23 10.09375 23 11.796875 23 
z
" id="CMSY10-0"/>
      </defs>
      <g transform="translate(34.02782 237.548975)scale(0.18 -0.18)">
       <use transform="translate(0 -0.031134)scale(0.996264)" xlink:href="#CMSY10-0"/>
       <use transform="translate(77.487468 -0.031134)scale(0.996264)" xlink:href="#CMR17-50"/>
       <use transform="translate(123.177945 -0.031134)scale(0.996264)" xlink:href="#CMR17-48"/>
       <use transform="translate(168.868422 -0.031134)scale(0.996264)" xlink:href="#CMR17-48"/>
      </g>
     </g>
    </g>
    <g id="ytick_2">
     <g id="line2d_7">
      <g>
       <use style="stroke:#000000;stroke-width:0.8;" x="79.79325" xlink:href="#m1e674dd20b" y="182.969641"/>
      </g>
     </g>
     <g id="text_8">
      <!-- $0$ -->
      <g transform="translate(64.53812 189.638616)scale(0.18 -0.18)">
       <use transform="scale(0.996264)" xlink:href="#CMR17-48"/>
      </g>
     </g>
    </g>
    <g id="ytick_3">
     <g id="line2d_8">
      <g>
       <use style="stroke:#000000;stroke-width:0.8;" x="79.79325" xlink:href="#m1e674dd20b" y="135.059283"/>
      </g>
     </g>
     <g id="text_9">
      <!-- $200$ -->
      <g transform="translate(48.02787 141.728258)scale(0.18 -0.18)">
       <use transform="scale(0.996264)" xlink:href="#CMR17-50"/>
       <use transform="translate(45.690477 0)scale(0.996264)" xlink:href="#CMR17-48"/>
       <use transform="translate(91.380954 0)scale(0.996264)" xlink:href="#CMR17-48"/>
      </g>
     </g>
    </g>
    <g id="ytick_4">
     <g id="line2d_9">
      <g>
       <use style="stroke:#000000;stroke-width:0.8;" x="79.79325" xlink:href="#m1e674dd20b" y="87.148924"/>
      </g>
     </g>
     <g id="text_10">
      <!-- $400$ -->
      <g transform="translate(48.02787 93.817899)scale(0.18 -0.18)">
       <use transform="scale(0.996264)" xlink:href="#CMR17-52"/>
       <use transform="translate(45.690477 0)scale(0.996264)" xlink:href="#CMR17-48"/>
       <use transform="translate(91.380954 0)scale(0.996264)" xlink:href="#CMR17-48"/>
      </g>
     </g>
    </g>
    <g id="ytick_5">
     <g id="line2d_10">
      <g>
       <use style="stroke:#000000;stroke-width:0.8;" x="79.79325" xlink:href="#m1e674dd20b" y="39.238565"/>
      </g>
     </g>
     <g id="text_11">
      <!-- $600$ -->
      <defs>
       <path d="M 10.59375 34 
C 10.59375 57.65625 21.796875 63 28.296875 63 
C 30.40625 63 35.5 62.640625 37.5 59 
C 35.90625 59 32.90625 59 32.90625 55.515625 
C 32.90625 52.828125 35.09375 51.921875 36.5 51.921875 
C 37.40625 51.921875 40.09375 52.3125 40.09375 55.625 
C 40.09375 61.78125 35.09375 65.296875 28.203125 65.296875 
C 16.296875 65.296875 3.796875 52.96875 3.796875 31 
C 3.796875 3.953125 15.09375 -2 23.09375 -2 
C 32.796875 -2 42 6.671875 42 20.046875 
C 42 32.515625 33.90625 41.59375 23.703125 41.59375 
C 17.59375 41.59375 13.09375 37.609375 10.59375 30.625 
z
M 23.09375 0.390625 
C 10.796875 0.390625 10.796875 18.75 10.796875 22.4375 
C 10.796875 29.625 14.203125 40 23.5 40 
C 25.203125 40 30.09375 40 33.40625 33.125 
C 35.203125 29.21875 35.203125 25.140625 35.203125 20.140625 
C 35.203125 14.75 35.203125 10.78125 33.09375 6.78125 
C 30.90625 2.671875 27.703125 0.390625 23.09375 0.390625 
z
" id="CMR17-54"/>
      </defs>
      <g transform="translate(48.02787 45.90754)scale(0.18 -0.18)">
       <use transform="scale(0.996264)" xlink:href="#CMR17-54"/>
       <use transform="translate(45.690477 0)scale(0.996264)" xlink:href="#CMR17-48"/>
       <use transform="translate(91.380954 0)scale(0.996264)" xlink:href="#CMR17-48"/>
      </g>
     </g>
    </g>
    <g id="text_12">
     <!-- Surface Speed -->
     <defs>
      <path d="M 54.59375 72 
L 50.90625 72 
L 46.90625 66.09375 
C 42.203125 70.59375 35.796875 73 28.703125 73 
C 15.59375 73 6.796875 64.609375 6.796875 52.15625 
C 6.796875 41.28125 12.203125 35.890625 26.90625 32.109375 
L 36.40625 29.703125 
C 43.796875 27.828125 44.5 27.625 46.59375 26.03125 
C 49.59375 23.734375 51.203125 20.4375 51.203125 16.546875 
C 51.203125 12.5625 49.703125 9.28125 46.703125 6.59375 
C 43.40625 3.6875 40.09375 2.59375 34.59375 2.59375 
C 27.203125 2.59375 21.90625 4.875 17.203125 10.03125 
C 13 14.703125 10.90625 19.375 9.40625 27 
L 5.09375 27 
L 5.5 -1.4375 
L 9.40625 -1.4375 
L 13.90625 5.46875 
C 20.59375 0 26.203125 -2 34.90625 -2 
C 49.59375 -2 59 6.59375 59 19.9375 
C 59 26.109375 56.90625 31.40625 53 35.203125 
C 50.296875 37.796875 46.40625 39.484375 38.40625 41.484375 
L 27.703125 44.171875 
C 18.796875 46.46875 14.59375 50.359375 14.59375 56.4375 
C 14.59375 63.40625 20.296875 68.203125 28.796875 68.203125 
C 35.796875 68.203125 41.5 65.1875 45.5 59.484375 
C 48.40625 55.375 50.203125 51.15625 51.5 46.046875 
L 55.796875 46.046875 
z
" id="Century_Schoolbook_L_Roman-83"/>
      <path d="M 41.203125 0 
L 59.40625 0 
L 59.40625 4.703125 
L 56.90625 4.703125 
C 51.40625 4.703125 50.59375 5.59375 50.59375 11.953125 
L 50.59375 46.78125 
L 31.796875 46.78125 
L 31.796875 42 
L 36.90625 42 
C 40.59375 42 41.203125 41.296875 41.203125 36.953125 
L 41.203125 24.5625 
C 41.203125 18.8125 40.59375 15.484375 39.09375 12.15625 
C 37 7.71875 33 5.09375 28.09375 5.09375 
C 25 5.09375 22.40625 6.1875 21.09375 8.171875 
C 19.796875 10.046875 19.59375 11.046875 19.59375 16.5 
L 19.59375 46.78125 
L 2.09375 46.78125 
L 2.09375 42 
L 5.90625 42 
C 9.59375 42 10.203125 41.296875 10.203125 36.953125 
L 10.203125 15.21875 
C 10.203125 10.078125 10.59375 7.765625 12.09375 5.453125 
C 14.796875 1.3125 19.59375 -1 25.59375 -1 
C 32.203125 -1 36.796875 1.71875 41.203125 8.125 
z
" id="Century_Schoolbook_L_Roman-117"/>
      <path d="M 19.796875 46 
L 2.09375 46 
L 2.09375 41.21875 
L 6.203125 41.21875 
C 9.90625 41.21875 10.5 40.515625 10.5 36.203125 
L 10.5 12.296875 
L 10.5 8.296875 
C 10.5 4.296875 9.40625 3.59375 2.90625 3.59375 
L 2.5 3.59375 
L 2.5 0 
L 29.203125 0 
L 29.203125 3.59375 
L 27.296875 3.59375 
C 20.90625 3.59375 19.796875 4.296875 19.796875 8.296875 
L 19.796875 12.296875 
L 19.796875 13.296875 
C 19.796875 20.8125 21.203125 28.40625 23.703125 34.109375 
C 26.09375 39.703125 29.5 42.8125 33.703125 43.3125 
C 32.296875 41.703125 31.90625 40.6875 31.90625 38.765625 
C 31.90625 35.546875 34.203125 33.234375 37.40625 33.234375 
C 41 33.234375 43.5 35.9375 43.5 40.015625 
C 43.5 44.8125 40.09375 48 34.796875 48 
C 28.5 48 23 42.921875 19.796875 34.140625 
z
" id="Century_Schoolbook_L_Roman-114"/>
      <path d="M 20.09375 46.296875 
L 20.09375 52.140625 
C 20.09375 57.265625 20.40625 60.65625 21.203125 62.71875 
C 22.796875 67.234375 26.296875 70 30.296875 70 
C 32.40625 70 33.703125 69.390625 33.703125 68.25 
C 33.703125 67.921875 33.59375 67.734375 33.09375 66.90625 
C 32.5 65.890625 32.203125 64.75 32.203125 63.625 
C 32.203125 60.546875 34.59375 58.203125 37.703125 58.203125 
C 41 58.203125 43.296875 60.734375 43.296875 64.40625 
C 43.296875 70.328125 38.296875 74 30.203125 74 
C 23.296875 74 18.296875 71.53125 14.703125 66.4375 
C 11.703125 62.140625 10.703125 57.734375 10.703125 49.46875 
L 10.703125 46.296875 
L 1.90625 46.296875 
L 1.90625 42 
L 10.703125 42 
L 10.703125 12.234375 
L 10.703125 8.25 
C 10.703125 4.296875 9.59375 3.59375 3.203125 3.59375 
L 2.796875 3.59375 
L 2.796875 0 
L 29.5 0 
L 29.5 3.59375 
L 27.703125 3.59375 
C 21.203125 3.59375 20.09375 4.296875 20.09375 8.25 
L 20.09375 12.234375 
L 20.09375 42 
L 31.09375 42 
L 31.09375 46.296875 
z
" id="Century_Schoolbook_L_Roman-102"/>
      <path d="M 45.203125 32.578125 
C 45.203125 38.796875 44.09375 41.96875 41.203125 44.34375 
C 37.90625 46.90625 33 48.28125 26.59375 48.28125 
C 15.40625 48.28125 7.09375 43.046875 7.09375 35.921875 
C 7.09375 32.15625 9.40625 29.78125 12.90625 29.78125 
C 16 29.78125 18.296875 31.859375 18.296875 34.8125 
C 18.296875 36.109375 17.796875 37.484375 16.796875 38.875 
C 16.203125 39.546875 16.09375 39.84375 16.09375 40.15625 
C 16.09375 42.21875 20.203125 44 25 44 
C 28.09375 44 31.59375 43.015625 33.203125 41.53125 
C 35.09375 39.953125 35.796875 37.578125 35.796875 33.125 
L 35.796875 29.28125 
C 25.296875 27.484375 22.09375 26.6875 17.203125 24.8125 
C 8.59375 21.609375 4.40625 16.9375 4.40625 10.65625 
C 4.40625 3.578125 10.09375 -1 18.90625 -1 
C 25.796875 -1 32 1.859375 36.296875 7.0625 
C 37.90625 1.984375 40.40625 0 45.09375 0 
C 49.59375 0 54.296875 2.890625 54.296875 5.78125 
C 54.296875 6.46875 53.796875 6.96875 53.296875 6.96875 
C 52.90625 6.96875 52.5 6.875 51.796875 6.578125 
C 50.203125 6 49.796875 5.890625 49 5.890625 
C 46.203125 5.890625 45.203125 7.78125 45.203125 12.71875 
z
M 35.796875 20.46875 
C 35.796875 14.46875 35.5 13.078125 33.796875 10.484375 
C 31.296875 6.78125 26.703125 4.296875 22.40625 4.296875 
C 17.90625 4.296875 14.5 7.59375 14.5 12.078125 
C 14.5 16.265625 16.59375 19.265625 21 21.359375 
C 24.09375 22.75 28 23.75 35.796875 25.046875 
z
" id="Century_Schoolbook_L_Roman-97"/>
      <path d="M 38.703125 15.125 
C 35.5 7.96875 32.09375 5.09375 26.90625 5.09375 
C 18.90625 5.09375 13.90625 12.328125 13.90625 23.9375 
C 13.90625 35.953125 18.796875 44 26.203125 44 
C 29.203125 44 31.796875 42.59375 31.796875 41.015625 
C 31.796875 40.71875 31.59375 40.421875 31.203125 39.8125 
C 29.59375 37.9375 29.203125 36.9375 29.203125 35.265625 
C 29.203125 31.984375 31.703125 29.703125 35.203125 29.703125 
C 38.703125 29.703125 41.296875 32.484375 41.296875 36.453125 
C 41.296875 43.109375 34.59375 48.28125 25.703125 48.28125 
C 12.703125 48.28125 3.40625 37.65625 3.40625 22.84375 
C 3.40625 8.734375 11.90625 -1 24.296875 -1 
C 33.203125 -1 38.296875 3.078125 42.59375 13.625 
z
" id="Century_Schoolbook_L_Roman-99"/>
      <path d="M 20.09375 46 
L 2.796875 46 
L 2.796875 41.21875 
L 6.40625 41.21875 
C 10.09375 41.21875 10.703125 40.515625 10.703125 36.21875 
L 10.703125 -7.75 
L 10.703125 -11.71875 
C 10.703125 -15.71875 9.59375 -16.40625 3.203125 -16.40625 
L 2.796875 -16.40625 
L 2.796875 -20 
L 28.796875 -20 
L 28.796875 -16.40625 
L 27.703125 -16.40625 
C 21.203125 -16.40625 20.09375 -15.71875 20.09375 -11.734375 
L 20.09375 -7.75 
L 20.09375 6.6875 
C 23.40625 0.90625 27.203125 -1.390625 33.296875 -1.390625 
C 44.90625 -1.390625 53.5 9.265625 53.5 23.5 
C 53.5 37.265625 44.90625 48 33.90625 48 
C 27.703125 48 23.59375 45.4375 20.09375 39.515625 
z
M 32.09375 42.609375 
C 39 42.609375 43 35.75 43 24.09375 
C 43 11.265625 38.90625 4 31.796875 4 
C 24.703125 4 20 11.375 20 22.8125 
C 20 35.140625 24.5 42.609375 32.09375 42.609375 
z
" id="Century_Schoolbook_L_Roman-112"/>
      <path d="M 38 0 
L 55.40625 0 
L 55.40625 4.703125 
L 53.59375 4.703125 
C 48.203125 4.703125 47.40625 5.703125 47.40625 11.96875 
L 47.40625 73.78125 
L 27.796875 73.78125 
L 27.796875 69 
L 33.703125 69 
C 37.296875 69 38 68.28125 38 63.921875 
L 38 41 
C 34.296875 46.09375 30 48.390625 24.203125 48.390625 
C 12.90625 48.390625 4.296875 37.546875 4.296875 23.203125 
C 4.296875 9.0625 12.59375 -1 24.203125 -1 
C 30.5 -1 34.796875 1.671875 38 7.59375 
z
M 26.203125 43 
C 30.296875 43 34.203125 40.03125 36 35.4375 
C 37.203125 32.453125 37.90625 28.28125 37.90625 23.515625 
C 37.90625 11.96875 33.296875 4.390625 26.09375 4.390625 
C 19.09375 4.390625 14.796875 10.96875 14.796875 22.015625 
C 14.796875 27.890625 15.40625 32.359375 16.703125 35.734375 
C 18.40625 40.125 22.09375 43 26.203125 43 
z
" id="Century_Schoolbook_L_Roman-100"/>
     </defs>
     <g transform="translate(25.33795 181.86556)rotate(-90)scale(0.18 -0.18)">
      <use transform="translate(0 -1.570628)scale(0.996264)" xlink:href="#Century_Schoolbook_L_Roman-83"/>
      <use transform="translate(62.763979 -1.570628)scale(0.996264)" xlink:href="#Century_Schoolbook_L_Roman-117"/>
      <use transform="translate(123.63561 -1.570628)scale(0.996264)" xlink:href="#Century_Schoolbook_L_Roman-114"/>
      <use transform="translate(167.869178 -1.570628)scale(0.996264)" xlink:href="#Century_Schoolbook_L_Roman-102"/>
      <use transform="translate(201.044408 -1.570628)scale(0.996264)" xlink:href="#Century_Schoolbook_L_Roman-97"/>
      <use transform="translate(256.436085 -1.570628)scale(0.996264)" xlink:href="#Century_Schoolbook_L_Roman-99"/>
      <use transform="translate(300.669654 -1.570628)scale(0.996264)" xlink:href="#Century_Schoolbook_L_Roman-101"/>
      <use transform="translate(378.178024 -1.570628)scale(0.996264)" xlink:href="#Century_Schoolbook_L_Roman-83"/>
      <use transform="translate(440.942003 -1.570628)scale(0.996264)" xlink:href="#Century_Schoolbook_L_Roman-112"/>
      <use transform="translate(498.12749 -1.570628)scale(0.996264)" xlink:href="#Century_Schoolbook_L_Roman-101"/>
      <use transform="translate(547.940691 -1.570628)scale(0.996264)" xlink:href="#Century_Schoolbook_L_Roman-101"/>
      <use transform="translate(597.753891 -1.570628)scale(0.996264)" xlink:href="#Century_Schoolbook_L_Roman-100"/>
     </g>
    </g>
   </g>
   <g id="line2d_11">
    <path clip-path="url(#pf47b860222)" d="M 79.79325 182.969641 
L 80.815279 182.969641 
L 80.936229 177.072244 
L 81.057179 177.072244 
L 81.172082 160.42848 
L 81.359554 160.42848 
L 81.474457 150.992645 
L 81.480504 150.992645 
L 81.595407 148.502633 
L 81.601455 148.502633 
L 81.716357 145.619461 
L 81.722405 145.619461 
L 81.843355 144.308929 
L 81.958258 144.046822 
L 82.02478 144.046822 
L 82.139683 143.915769 
L 82.206205 143.915769 
L 82.33925 144.439982 
L 82.629531 144.439982 
L 82.756528 145.357355 
L 82.871431 145.357355 
L 82.986334 145.750515 
L 83.052856 145.750515 
L 83.167759 145.881568 
L 83.173806 145.881568 
L 83.288709 146.012621 
L 83.294757 146.012621 
L 83.421754 146.405781 
L 83.597132 146.405781 
L 83.712035 146.536834 
L 83.839032 146.536834 
L 83.953935 146.667887 
L 84.201883 146.667887 
L 84.316785 146.798941 
L 87.104686 146.798941 
L 87.219589 146.667887 
L 87.407061 146.667887 
L 87.521964 146.798941 
L 87.528012 146.798941 
L 87.642914 146.667887 
L 88.253712 146.667887 
L 88.368615 146.798941 
L 88.435138 146.798941 
L 88.55004 146.667887 
L 89.523689 146.667887 
L 89.638592 146.798941 
L 89.705114 146.798941 
L 89.820017 146.667887 
L 89.826064 146.667887 
L 89.940967 146.798941 
L 90.00749 146.798941 
L 90.122392 146.667887 
L 90.309865 146.667887 
L 90.424768 146.798941 
L 91.096041 146.798941 
L 91.210943 146.667887 
L 91.761267 146.667887 
L 91.876169 146.798941 
L 91.942692 146.798941 
L 92.057594 146.667887 
L 92.245067 146.667887 
L 92.35997 146.798941 
L 92.426492 146.798941 
L 92.541395 146.667887 
L 92.789343 146.667887 
L 92.849818 146.798941 
L 92.898198 146.667887 
L 93.515044 146.667887 
L 93.629946 146.798941 
L 93.756944 146.798941 
L 93.871847 146.667887 
L 94.78502 146.667887 
L 94.899923 146.798941 
L 94.966445 146.798941 
L 95.081348 146.667887 
L 95.147871 146.667887 
L 95.262773 146.798941 
L 95.450246 146.798941 
L 95.565149 146.667887 
L 95.631671 146.667887 
L 95.746574 146.798941 
L 96.478322 146.798941 
L 96.593225 146.667887 
L 97.083073 146.667887 
L 97.197975 146.798941 
L 97.264498 146.798941 
L 97.379401 146.667887 
L 97.385448 146.667887 
L 97.500351 146.798941 
L 97.748299 146.798941 
L 97.863201 146.667887 
L 98.292574 146.667887 
L 98.407477 146.798941 
L 98.473999 146.798941 
L 98.588902 146.667887 
L 98.655425 146.667887 
L 98.770327 146.798941 
L 99.139225 146.798941 
L 99.254128 146.667887 
L 100.046351 146.667887 
L 100.161254 146.798941 
L 100.409202 146.798941 
L 100.524104 146.667887 
L 100.590627 146.667887 
L 100.70553 146.798941 
L 100.711577 146.798941 
L 100.82648 146.667887 
L 100.953477 146.667887 
L 101.06838 146.798941 
L 101.800128 146.798941 
L 101.915031 146.667887 
L 102.223454 146.667887 
L 102.338357 147.00122 
L 102.344404 147.00122 
L 102.471402 148.127872 
L 102.525829 148.127872 
L 102.640732 148.792338 
L 102.646779 148.792338 
L 102.76773 149.645628 
L 102.900775 150.427227 
L 102.949155 150.427227 
L 103.064057 150.103271 
L 103.070105 150.103271 
L 103.185008 150.51601 
L 103.191055 150.51601 
L 103.25153 150.128423 
L 103.29991 150.498087 
L 103.37248 150.51388 
L 103.487383 150.151663 
L 103.553905 150.151663 
L 103.668808 150.571021 
L 103.674856 150.571021 
L 103.735331 150.217076 
L 103.741378 150.632497 
L 103.783711 150.632497 
L 103.856281 150.641435 
L 103.916756 150.256627 
L 103.971183 150.341145 
L 103.977231 150.341145 
L 104.037706 150.789077 
L 104.086086 150.383981 
L 104.158656 150.474982 
L 104.273559 150.946997 
L 104.279606 150.946997 
L 104.340081 150.533359 
L 104.394509 150.566933 
L 104.400556 150.566933 
L 104.515459 151.172463 
L 104.521507 151.172463 
L 104.581982 150.73388 
L 104.588029 151.263692 
L 104.630362 151.263692 
L 104.642457 151.263692 
L 104.702932 151.417857 
L 104.708979 151.00507 
L 104.739217 151.00507 
L 104.763407 151.00507 
L 104.823882 152.129365 
L 104.87831 151.719164 
L 104.944832 151.719164 
L 105.005307 151.281454 
L 105.059735 151.439971 
L 105.065782 151.439971 
L 105.126257 152.060093 
L 105.174637 151.562338 
L 105.186732 151.562338 
L 105.325825 152.387279 
L 105.368158 152.387279 
L 105.501203 149.743824 
L 105.610058 149.753654 
L 105.731008 147.222128 
L 105.791483 147.233221 
L 105.912433 145.721666 
L 106.033383 145.733765 
L 106.148286 145.085727 
L 106.577659 145.167917 
L 106.692562 145.306177 
L 106.819559 145.306177 
L 106.946557 145.873064 
L 107.06146 145.873064 
L 107.176362 146.008907 
L 107.242885 146.089414 
L 107.357787 146.249659 
L 107.42431 146.305132 
L 107.539213 146.412226 
L 107.66621 146.495052 
L 107.781113 146.550445 
L 107.908111 146.660704 
L 108.023013 146.688137 
L 108.270961 146.751277 
L 108.391911 146.842275 
L 108.512861 146.854992 
L 108.633811 146.835527 
L 108.694287 146.931029 
L 108.742667 146.861248 
L 109.238562 146.958998 
L 109.359512 147.018421 
L 109.419987 146.954705 
L 109.474415 146.982466 
L 113.592767 147.056298 
L 113.653242 147.107154 
L 113.65929 147.022871 
L 113.695575 147.022871 
L 115.104644 147.083706 
L 115.165119 147.139499 
L 115.171167 147.067083 
L 115.213499 147.067083 
L 116.25367 147.145443 
L 116.368573 147.182851 
L 119.579799 147.285304 
L 119.640274 147.294551 
L 119.646322 147.227149 
L 119.670512 147.227149 
L 120.245025 147.32024 
L 120.3055 147.344042 
L 120.311548 147.250686 
L 120.341785 147.250686 
L 121.031201 147.280941 
L 121.146104 147.379771 
L 122.482603 147.388549 
L 122.543078 147.49285 
L 122.597505 147.48413 
L 123.571154 147.497244 
L 123.686057 147.623502 
L 124.538755 147.634363 
L 124.653658 147.775568 
L 124.659705 147.775568 
L 124.72018 147.646357 
L 124.726228 147.786214 
L 124.76856 147.786214 
L 125.264456 147.8869 
L 125.324931 147.912848 
L 125.330979 147.764429 
L 125.349121 147.764429 
L 125.506356 147.802354 
L 125.621259 147.961903 
L 126.050632 147.917525 
L 126.165535 148.09486 
L 126.232057 148.125681 
L 126.292532 147.983696 
L 126.34696 148.009148 
L 126.473957 148.046573 
L 126.58886 148.268068 
L 126.594908 148.268068 
L 126.655383 148.109991 
L 126.70981 148.1384 
L 126.715858 148.1384 
L 126.776333 148.342889 
L 126.824713 148.158656 
L 127.018233 148.191873 
L 127.078708 148.405886 
L 127.127088 148.281808 
L 127.139183 148.281808 
L 127.254086 148.568398 
L 127.260133 148.568398 
L 127.320608 148.371759 
L 127.375036 148.422056 
L 127.381084 148.422056 
L 127.441559 148.661943 
L 127.489939 148.469463 
L 127.622984 148.516351 
L 127.737886 148.82546 
L 127.864884 148.882415 
L 127.925359 148.686501 
L 127.931407 148.962363 
L 127.967692 148.962363 
L 128.046309 149.046076 
L 128.106784 148.827242 
L 128.112832 149.119753 
L 128.155164 149.119753 
L 128.227735 149.201771 
L 128.28821 148.965632 
L 128.33659 149.060748 
L 128.469635 149.060748 
L 128.584537 149.634767 
L 128.590585 149.634767 
L 128.705488 149.434085 
L 128.711535 149.434085 
L 128.826438 149.98796 
L 128.832485 149.98796 
L 128.89296 149.848437 
L 128.899008 150.106816 
L 128.935293 150.106816 
L 128.953435 150.106816 
L 129.068338 150.493244 
L 129.074386 150.493244 
L 129.189288 150.798967 
L 129.195336 150.798967 
L 129.316286 151.54341 
L 129.376761 151.546452 
L 129.497711 152.464876 
L 129.769849 154.149405 
L 129.800086 154.149405 
L 129.963369 155.451091 
L 129.981512 155.451091 
L 130.096414 156.164405 
L 130.102462 156.164405 
L 130.253649 157.702048 
L 130.283887 157.702048 
L 130.39879 158.528212 
L 130.404837 158.528212 
L 130.549977 160.287071 
L 130.586262 160.287071 
L 130.701165 161.600521 
L 130.707212 161.600521 
L 130.83421 163.616267 
L 130.888638 163.616267 
L 131.015635 165.788452 
L 131.251488 165.788452 
L 131.366391 166.423855 
L 131.372438 166.423855 
L 131.487341 170.534115 
L 131.493388 170.534115 
L 131.626434 173.113547 
L 131.674814 173.113547 
L 131.807859 175.831481 
L 131.856239 175.831481 
L 131.971141 176.554761 
L 131.977189 176.554761 
L 132.098139 179.423608 
L 132.231184 182.401017 
L 132.340039 182.401017 
L 132.460989 183.662536 
L 132.575892 179.968428 
L 132.642415 179.968428 
L 132.757317 157.818821 
L 132.763365 157.818821 
L 132.878267 128.301229 
L 132.884315 128.301229 
L 132.999218 103.767028 
L 133.005265 103.767028 
L 133.144358 44.661419 
L 133.18669 44.661419 
L 133.301593 40.099456 
L 133.368116 40.099456 
L 133.483018 31.179971 
L 133.489066 31.179971 
L 133.549541 30.001295 
L 133.597921 30.565849 
L 133.670491 30.565849 
L 133.785394 32.146255 
L 133.912391 32.146255 
L 134.027294 37.256234 
L 134.154291 37.256234 
L 134.269194 42.260852 
L 134.456667 42.260852 
L 134.571569 45.737744 
L 134.577617 45.737744 
L 134.69252 47.581551 
L 134.698567 47.581551 
L 134.81347 51.269164 
L 134.819517 51.269164 
L 134.93442 53.112971 
L 135.061418 53.112971 
L 135.17632 58.749751 
L 135.303318 58.749751 
L 135.41822 62.700766 
L 135.484743 62.700766 
L 135.599646 64.755293 
L 135.605693 64.755293 
L 135.720596 68.864348 
L 135.726643 68.864348 
L 135.841546 70.971556 
L 135.908069 70.971556 
L 136.022971 75.291331 
L 136.029019 75.291331 
L 136.143921 77.503899 
L 136.210444 77.503899 
L 136.325347 82.139756 
L 136.331394 82.139756 
L 136.446297 84.563045 
L 136.512819 84.563045 
L 136.627722 92.096312 
L 136.815195 92.096312 
L 136.930097 94.730322 
L 136.936145 94.730322 
L 137.051047 103.106472 
L 137.057095 103.106472 
L 137.178045 109.059334 
L 137.35947 109.059334 
L 137.474373 115.433637 
L 137.540895 115.433637 
L 137.655798 118.805169 
L 137.661846 118.805169 
L 137.776748 129.973369 
L 137.843271 129.973369 
L 137.958173 133.819023 
L 138.024696 133.819023 
L 138.139599 141.826412 
L 138.327071 141.826412 
L 138.441974 145.566706 
L 138.448022 145.566706 
L 138.562924 146.328656 
L 138.629447 146.328656 
L 138.750397 147.334412 
L 138.956012 147.934702 
L 138.992297 147.934702 
L 139.052772 148.059554 
L 139.1072 148.043433 
L 139.476098 147.989266 
L 139.597048 147.843867 
L 139.657523 147.843867 
L 139.717998 147.713637 
L 139.772426 147.751896 
L 139.838948 147.687222 
L 139.899423 147.559576 
L 139.953851 147.59817 
L 139.959898 147.59817 
L 140.074801 147.460106 
L 140.262274 147.426186 
L 140.383224 147.24221 
L 140.443699 147.282115 
L 140.449746 147.221712 
L 140.492079 147.221712 
L 140.927499 147.139149 
L 141.042402 147.065052 
L 148.063558 147.116681 
L 148.17846 147.185607 
L 150.603511 147.228555 
L 150.718413 147.305995 
L 152.659663 147.405245 
L 152.720138 147.427581 
L 152.726186 147.324931 
L 152.750376 147.324931 
L 152.901564 147.319481 
L 153.016466 147.446024 
L 153.022514 147.446024 
L 153.082989 147.317386 
L 153.131369 147.415425 
L 154.05059 147.443995 
L 154.165493 147.56264 
L 154.232015 147.56264 
L 154.29249 147.433148 
L 154.298538 147.592956 
L 154.34087 147.592956 
L 154.352965 147.592956 
L 154.41344 147.468743 
L 154.46182 147.583857 
L 155.381041 147.691455 
L 155.441517 147.70342 
L 155.447564 147.58843 
L 155.501992 147.58843 
L 155.616894 147.721988 
L 156.046267 147.701054 
L 156.16117 147.854964 
L 156.167217 147.854964 
L 156.28212 147.719991 
L 156.288168 147.719991 
L 156.40307 147.894178 
L 156.832443 147.988333 
L 156.892918 148.026401 
L 156.898966 147.877997 
L 156.923156 147.877997 
L 157.013868 147.882464 
L 157.128771 148.056424 
L 157.195294 148.097203 
L 157.255769 147.944727 
L 157.310196 147.978965 
L 157.316244 147.978965 
L 157.376719 148.162328 
L 157.425099 148.000373 
L 157.497669 148.033713 
L 157.612572 148.224197 
L 157.920994 148.169498 
L 158.035897 148.409329 
L 158.041945 148.409329 
L 158.10242 148.239943 
L 158.108467 148.456504 
L 158.1508 148.456504 
L 158.22337 148.497323 
L 158.338272 148.305993 
L 158.525745 148.353351 
L 158.664838 148.747334 
L 158.70717 148.747334 
L 158.767645 148.556004 
L 158.822073 148.596771 
L 158.888596 148.596771 
L 159.003498 148.931904 
L 159.009546 148.931904 
L 159.070021 148.727094 
L 159.076068 149.008149 
L 159.118401 149.008149 
L 159.190971 149.071189 
L 159.305874 148.863212 
L 159.372396 148.935776 
L 159.487299 149.33539 
L 159.493346 149.33539 
L 159.553821 149.11517 
L 159.559869 149.44293 
L 159.596154 149.44293 
L 159.614296 149.44293 
L 159.674772 149.580484 
L 159.680819 149.370064 
L 159.717104 149.370064 
L 159.735247 149.370064 
L 159.850149 149.532539 
L 159.856197 149.532539 
L 159.971099 150.115264 
L 159.977147 150.115264 
L 160.037622 149.989666 
L 160.043669 150.269104 
L 160.079955 150.269104 
L 160.098097 150.269104 
L 160.213 150.664226 
L 160.219047 150.664226 
L 160.279522 150.991455 
L 160.33395 150.94973 
L 160.339997 150.94973 
L 160.460947 151.794641 
L 160.521423 151.794641 
L 160.642373 152.761103 
L 160.847988 154.024818 
L 160.944748 154.024818 
L 161.065698 155.167987 
L 161.222933 156.596748 
L 161.307598 156.596748 
L 161.422501 158.190063 
L 161.428549 158.190063 
L 161.573689 159.920963 
L 161.609974 159.920963 
L 161.743019 161.207331 
L 161.791399 161.207331 
L 161.906302 161.79616 
L 161.912349 161.79616 
L 162.033299 163.822653 
L 162.172392 165.989507 
L 162.214725 165.989507 
L 162.329627 167.637298 
L 162.335675 167.637298 
L 162.450577 168.293388 
L 162.456625 168.293388 
L 162.571527 170.062814 
L 162.577575 170.062814 
L 162.692478 172.017219 
L 162.698525 172.017219 
L 162.813428 173.957707 
L 162.819475 173.957707 
L 162.95252 176.722469 
L 163.061376 176.722469 
L 163.194421 179.62292 
L 163.242801 179.62292 
L 163.357703 181.867284 
L 163.424226 181.867284 
L 163.539129 183.662536 
L 163.545176 183.662536 
L 163.714506 171.344531 
L 163.726601 171.344531 
L 163.841504 165.196884 
L 163.847551 165.196884 
L 163.962454 149.21533 
L 163.968502 149.21533 
L 164.113642 91.55932 
L 164.149927 91.55932 
L 164.276924 51.830276 
L 164.331352 51.830276 
L 164.45835 33.136482 
L 164.573252 33.136482 
L 164.688155 32.255559 
L 164.754678 32.255559 
L 164.815153 31.414761 
L 164.8212 33.726661 
L 164.851438 33.726661 
L 164.936103 33.726661 
L 165.051005 35.412427 
L 165.540853 35.412427 
L 165.655756 47.528871 
L 165.722279 47.528871 
L 165.837181 49.319997 
L 165.903704 49.319997 
L 166.018606 54.904098 
L 166.206079 54.904098 
L 166.320982 60.646238 
L 166.44798 60.646238 
L 166.562882 64.702613 
L 166.56893 64.702613 
L 166.683832 66.75714 
L 166.68988 66.75714 
L 166.804782 68.864348 
L 166.81083 68.864348 
L 166.93178 73.078763 
L 167.05273 73.078763 
L 167.167633 77.503899 
L 167.17368 77.503899 
L 167.288583 79.769148 
L 167.415581 79.769148 
L 167.530483 86.986334 
L 167.657481 86.986334 
L 167.772384 94.730322 
L 167.959856 94.730322 
L 168.074759 100.261742 
L 168.080806 100.261742 
L 168.195709 103.159152 
L 168.201757 103.159152 
L 168.316659 109.164694 
L 168.322707 109.164694 
L 168.437609 112.272825 
L 168.564607 112.272825 
L 168.67951 122.334742 
L 168.806507 122.334742 
L 168.92141 133.977064 
L 169.108883 133.977064 
L 169.223785 139.824565 
L 169.229833 139.824565 
L 169.344735 141.826412 
L 169.350783 141.826412 
L 169.465686 145.514026 
L 169.592683 145.514026 
L 169.713633 146.892611 
L 169.828536 147.371258 
L 169.895059 147.371258 
L 170.009961 147.846606 
L 170.076484 147.883073 
L 170.191386 148.007527 
L 170.499809 147.989776 
L 170.560284 147.872411 
L 170.614712 147.909311 
L 170.74171 147.83053 
L 170.86266 147.636533 
L 170.977562 147.67496 
L 171.10456 147.598691 
L 171.165035 147.409758 
L 171.219463 147.449212 
L 171.285985 147.387147 
L 171.34646 147.31434 
L 171.39484 147.354605 
L 171.406935 147.354605 
L 171.521838 147.222246 
L 171.890736 147.157052 
L 172.005639 147.081608 
L 173.281663 146.975893 
L 173.402613 146.969214 
L 173.523563 147.055559 
L 173.644513 146.952064 
L 173.759416 146.99559 
L 175.095915 147.050367 
L 175.210817 147.199145 
L 175.579715 147.275544 
L 175.694618 147.325296 
L 175.76114 147.380226 
L 175.876043 147.171071 
L 176.003041 147.234266 
L 176.117943 147.374747 
L 176.244941 147.350608 
L 176.305416 147.180089 
L 176.359844 147.23219 
L 176.365891 147.23219 
L 176.480794 147.115677 
L 176.970642 147.220684 
L 177.031117 147.275056 
L 177.085545 147.253766 
L 177.091592 147.253766 
L 177.212542 146.987275 
L 177.333492 146.987275 
L 177.454442 147.210718 
L 177.514918 147.267206 
L 177.520965 147.166185 
L 177.55725 147.166185 
L 177.575393 147.166185 
L 177.690295 147.009981 
L 177.817293 147.054905 
L 177.932196 147.212546 
L 177.998718 147.185451 
L 178.113621 146.999797 
L 178.180143 146.999797 
L 178.301093 147.194479 
L 178.361569 147.253953 
L 178.367616 147.166353 
L 178.403901 147.166353 
L 178.422044 147.166353 
L 178.536946 147.019979 
L 178.663944 147.119468 
L 178.724419 147.180429 
L 178.772799 147.13921 
L 179.20822 147.191523 
L 179.268695 147.2542 
L 179.274742 147.140552 
L 179.311027 147.140552 
L 179.93392 147.209222 
L 179.994395 147.303615 
L 180.000443 147.136344 
L 180.036728 147.136344 
L 180.357246 147.235144 
L 180.417721 147.304061 
L 180.466101 147.251253 
L 180.478196 147.251253 
L 180.538671 147.091253 
L 180.587051 147.161693 
L 181.082947 147.27249 
L 181.143422 147.343959 
L 181.149469 147.194313 
L 181.185754 147.194313 
L 181.506272 147.273521 
L 181.566747 147.349441 
L 181.615127 147.282623 
L 181.627222 147.282623 
L 181.687697 147.140834 
L 181.736077 147.218432 
L 181.808648 147.218432 
L 181.869123 147.337379 
L 181.917503 147.271121 
L 182.594824 147.300604 
L 182.709726 147.384111 
L 183.018149 147.408271 
L 183.078624 147.255434 
L 183.127004 147.343431 
L 183.925275 147.365907 
L 184.040178 147.460261 
L 184.046225 147.460261 
L 184.161128 147.299107 
L 184.22765 147.397147 
L 184.348601 147.505021 
L 184.409076 147.351345 
L 184.457456 147.452581 
L 185.195252 147.460523 
L 185.310154 147.583831 
L 185.316202 147.583831 
L 185.376677 147.427256 
L 185.431104 147.476885 
L 185.497627 147.476885 
L 185.558102 147.591902 
L 185.56415 147.470237 
L 185.606482 147.470237 
L 185.679052 147.470237 
L 185.739527 147.587706 
L 185.787907 147.502082 
L 185.860477 147.509551 
L 185.920952 147.631243 
L 185.927 147.494199 
L 185.969332 147.494199 
L 186.102378 147.511907 
L 186.21728 147.688051 
L 186.223328 147.688051 
L 186.283803 147.533483 
L 186.33823 147.537818 
L 186.344278 147.537818 
L 186.459181 147.734665 
L 186.525703 147.734665 
L 186.640606 147.585437 
L 186.646653 147.585437 
L 186.761556 147.749731 
L 186.767603 147.749731 
L 186.882506 147.618083 
L 186.888554 147.618083 
L 186.949029 147.757515 
L 186.997409 147.675715 
L 187.009504 147.675715 
L 187.069979 147.81917 
L 187.076026 147.648495 
L 187.118359 147.648495 
L 187.190929 147.706632 
L 187.305832 147.854385 
L 187.311879 147.854385 
L 187.372354 147.719087 
L 187.426782 147.73843 
L 187.553779 147.765756 
L 187.614254 147.921285 
L 187.662634 147.793734 
L 187.674729 147.793734 
L 187.789632 147.954078 
L 187.856155 147.843765 
L 187.91663 147.828634 
L 188.031532 148.0417 
L 188.03758 148.0417 
L 188.098055 147.875639 
L 188.152483 147.913251 
L 188.15853 147.913251 
L 188.273433 148.088638 
L 188.27948 148.088638 
L 188.339955 147.935737 
L 188.394383 147.946141 
L 188.460905 148.013307 
L 188.575808 148.199397 
L 188.642331 148.212237 
L 188.702806 148.041818 
L 188.757233 148.096716 
L 188.763281 148.096716 
L 188.878183 148.320901 
L 189.126131 148.320901 
L 189.186606 148.153981 
L 189.234986 148.256924 
L 189.247081 148.256924 
L 189.307556 148.478357 
L 189.355936 148.28641 
L 189.428507 148.3522 
L 189.488982 148.58395 
L 189.537362 148.394383 
L 189.609932 148.433449 
L 189.724834 148.741288 
L 189.791357 148.741288 
L 189.851832 148.547742 
L 189.90626 148.58863 
L 189.912307 148.58863 
L 190.02721 148.920861 
L 190.093732 148.920861 
L 190.154207 148.696611 
L 190.202587 148.786424 
L 190.214682 148.786424 
L 190.329585 149.143468 
L 190.335633 149.143468 
L 190.450535 148.934249 
L 190.517058 149.015461 
L 190.63196 149.108464 
L 190.638008 149.108464 
L 190.752911 149.569852 
L 190.758958 149.569852 
L 190.819433 149.374171 
L 190.825481 149.721399 
L 190.861766 149.721399 
L 190.879908 149.721399 
L 190.940383 149.906122 
L 190.988763 149.754992 
L 191.000858 149.754992 
L 191.121809 150.377184 
L 191.242759 150.271995 
L 191.369756 151.371833 
L 191.424184 151.371833 
L 191.539087 151.804808 
L 191.605609 151.819717 
L 191.732607 153.317943 
L 191.907984 153.425765 
L 192.034982 155.159163 
L 192.08941 155.159163 
L 192.228502 156.061711 
L 192.270835 156.061711 
L 192.397833 157.615574 
L 192.45226 157.615574 
L 192.567163 158.153617 
L 192.57321 158.153617 
L 192.69416 159.872111 
L 192.833253 161.732664 
L 192.875586 161.732664 
L 193.002583 163.129691 
L 193.057011 163.129691 
L 193.184008 164.783538 
L 193.238436 164.783538 
L 193.383576 167.505453 
L 193.419861 167.505453 
L 193.552906 169.905673 
L 193.601286 169.905673 
L 193.716189 171.839554 
L 193.782712 171.839554 
L 193.915757 174.465614 
L 193.964137 174.465614 
L 194.07904 175.829287 
L 194.085087 175.829287 
L 194.218132 178.653906 
L 194.266512 178.653906 
L 194.381415 180.853544 
L 194.387462 180.853544 
L 194.502365 183.107904 
L 194.750313 183.107904 
L 194.810788 183.662085 
L 194.925691 157.802425 
L 194.931738 157.802425 
L 195.046641 128.319053 
L 195.052688 128.319053 
L 195.167591 103.792877 
L 195.173638 103.792877 
L 195.300636 60.259253 
L 195.355064 60.259253 
L 195.482061 36.597622 
L 195.596964 36.597622 
L 195.711866 30.972182 
L 195.717914 30.972182 
L 195.778389 30.355129 
L 195.784437 31.988215 
L 195.814674 31.988215 
L 195.899339 31.988215 
L 196.014242 33.6213 
L 196.080764 33.6213 
L 196.195667 37.098193 
L 196.201715 37.098193 
L 196.322665 40.469725 
L 196.443615 40.469725 
L 196.564565 43.841257 
L 196.685515 43.841257 
L 196.800418 49.267317 
L 196.86694 49.267317 
L 196.98789 53.007611 
L 197.108841 53.007611 
L 197.223743 54.851417 
L 197.290266 54.851417 
L 197.405168 60.593558 
L 197.592641 60.593558 
L 197.707544 66.70446 
L 197.834541 66.70446 
L 197.949444 73.026083 
L 198.136917 73.026083 
L 198.251819 77.451219 
L 198.257867 77.451219 
L 198.37277 79.716467 
L 198.439292 79.716467 
L 198.554195 86.933654 
L 198.681192 86.933654 
L 198.796095 92.096312 
L 198.802143 92.096312 
L 198.917045 94.730322 
L 198.983568 94.730322 
L 199.09847 100.261742 
L 199.104518 100.261742 
L 199.219421 103.106472 
L 199.285943 103.106472 
L 199.400846 109.112014 
L 199.406893 109.112014 
L 199.521796 112.272825 
L 199.588319 112.272825 
L 199.703221 122.282062 
L 199.830219 122.282062 
L 199.945121 130.07873 
L 200.011644 130.07873 
L 200.126547 133.924384 
L 200.132594 133.924384 
L 200.247497 139.824565 
L 200.253544 139.824565 
L 200.368447 141.826412 
L 200.495445 141.826412 
L 200.610347 145.566706 
L 200.616395 145.566706 
L 200.737345 146.892611 
L 200.852248 146.929837 
L 201.03972 146.929837 
L 201.154623 148.008032 
L 201.583996 147.990287 
L 201.698898 147.872411 
L 201.765421 147.792953 
L 201.825896 147.714671 
L 201.874276 147.752413 
L 201.886371 147.752413 
L 202.007321 147.560619 
L 202.067796 147.599213 
L 202.073844 147.524139 
L 202.110129 147.524139 
L 202.128272 147.524139 
L 202.188747 147.410285 
L 202.243174 147.449738 
L 202.491122 147.355135 
L 202.612072 147.222779 
L 202.672547 147.263331 
L 202.726975 147.24394 
L 202.853972 147.134036 
L 202.914447 147.1161 
L 202.920495 147.15759 
L 202.962827 147.15759 
L 203.277298 147.050592 
L 203.337773 147.036056 
L 203.34382 147.078673 
L 203.380105 147.078673 
L 204.002999 147.012421 
L 204.063474 146.953489 
L 204.111854 146.997485 
L 205.514875 147.079083 
L 205.629778 147.126894 
L 205.877726 147.225445 
L 205.992629 147.274947 
L 206.059151 147.37081 
L 206.180101 147.468387 
L 206.784852 147.54771 
L 206.845327 147.597208 
L 206.893707 147.561057 
L 206.905802 147.561057 
L 206.966277 147.386411 
L 207.020705 147.436415 
L 207.389603 147.397711 
L 207.504505 147.24373 
L 208.236254 147.262808 
L 208.296729 147.102324 
L 208.351156 147.126961 
L 210.715732 147.230139 
L 210.776207 147.241888 
L 210.836682 147.110051 
L 210.885062 147.176262 
L 212.529984 147.250961 
L 212.644886 147.291528 
L 214.404711 147.322205 
L 214.465186 147.412093 
L 214.519614 147.391849 
L 215.735163 147.402129 
L 215.795638 147.506613 
L 215.801685 147.393602 
L 215.844018 147.393602 
L 215.977063 147.420266 
L 216.091965 147.557992 
L 217.186564 147.655792 
L 217.247039 147.67873 
L 217.253087 147.551936 
L 217.271229 147.551936 
L 217.367989 147.555594 
L 217.482892 147.685169 
L 218.09369 147.66009 
L 218.208593 147.829284 
L 218.21464 147.829284 
L 218.329543 147.688892 
L 218.335591 147.688892 
L 218.450493 147.876389 
L 218.456541 147.876389 
L 218.571443 147.745242 
L 218.577491 147.745242 
L 218.692394 147.936687 
L 218.698441 147.936687 
L 218.758916 147.795876 
L 218.764964 147.955993 
L 218.807296 147.955993 
L 219.121767 147.983963 
L 219.182242 147.829013 
L 219.230622 147.908684 
L 219.242717 147.908684 
L 219.303192 148.084942 
L 219.351572 147.931316 
L 219.424142 147.96291 
L 219.484617 148.144777 
L 219.532997 147.981587 
L 219.666042 148.012165 
L 219.780945 148.224295 
L 219.786992 148.224295 
L 219.847467 148.061376 
L 219.901895 148.104491 
L 219.907942 148.104491 
L 220.022845 148.34409 
L 220.089368 148.34409 
L 220.149843 148.163711 
L 220.20427 148.202955 
L 220.210318 148.202955 
L 220.270793 148.41789 
L 220.319173 148.256594 
L 220.512693 148.34621 
L 220.633643 148.622232 
L 220.694118 148.422779 
L 220.748546 148.477648 
L 220.815069 148.477648 
L 220.929971 148.769735 
L 220.936019 148.769735 
L 220.996494 148.569829 
L 221.002541 148.83292 
L 221.044874 148.83292 
L 221.117444 148.916955 
L 221.232346 148.708053 
L 221.298869 148.75741 
L 221.413772 149.128079 
L 221.419819 149.128079 
L 221.480294 148.916925 
L 221.486342 149.221592 
L 221.522627 149.221592 
L 221.601244 149.307975 
L 221.661719 149.099676 
L 221.667767 149.424625 
L 221.704052 149.424625 
L 221.722195 149.424625 
L 221.837097 149.570506 
L 221.843145 149.570506 
L 221.90362 149.37068 
L 221.952 149.554273 
L 221.964095 149.554273 
L 222.078997 149.7706 
L 222.085045 149.7706 
L 222.205995 150.397123 
L 222.26647 150.301833 
L 222.272518 150.690971 
L 222.296708 150.690971 
L 222.326945 150.690971 
L 222.447895 151.420995 
L 222.629321 151.854157 
L 222.744223 152.377893 
L 222.750271 152.377893 
L 222.865173 153.352995 
L 222.871221 153.352995 
L 223.046599 154.538865 
L 223.113121 154.538865 
L 223.228024 155.369491 
L 223.234071 155.369491 
L 223.355021 156.585189 
L 223.488067 157.600587 
L 223.536447 157.600587 
L 223.663444 159.262265 
L 223.717872 159.262265 
L 223.838822 160.705109 
L 223.899297 160.705109 
L 224.020247 162.600356 
L 224.15934 164.633864 
L 224.262148 164.633864 
L 224.40124 166.795434 
L 224.443573 166.795434 
L 224.558475 168.446167 
L 224.745948 168.446167 
L 224.872946 172.793203 
L 224.927373 172.793203 
L 225.060418 175.426101 
L 225.108799 175.426101 
L 225.223701 177.465057 
L 225.290224 177.465057 
L 225.405126 179.61947 
L 225.411174 179.61947 
L 225.526077 180.338401 
L 225.532124 180.338401 
L 225.653074 183.317262 
L 225.713549 183.660279 
L 225.719597 182.432194 
L 225.743787 182.432194 
L 225.774024 182.432194 
L 225.907069 171.348316 
L 225.95545 171.348316 
L 226.070352 139.344971 
L 226.19735 139.344971 
L 226.3183 91.469731 
L 226.445298 51.786766 
L 226.499725 51.786766 
L 226.620675 35.210679 
L 226.735578 33.085743 
L 226.741625 33.085743 
L 226.856528 29.896594 
L 226.862576 29.896594 
L 226.977478 30.513169 
L 226.983526 30.513169 
L 227.104476 33.779341 
L 227.164951 33.779341 
L 227.285901 37.203553 
L 227.467326 37.203553 
L 227.582229 42.260852 
L 227.648752 42.260852 
L 227.769702 45.790425 
L 227.830177 45.790425 
L 227.945079 47.581551 
L 228.072077 47.581551 
L 228.18698 53.112971 
L 228.313977 53.112971 
L 228.42888 58.802432 
L 228.616353 58.802432 
L 228.731255 62.753446 
L 228.737303 62.753446 
L 228.852205 64.807973 
L 228.858253 64.807973 
L 228.973156 68.969708 
L 228.979203 68.969708 
L 229.094106 71.076916 
L 229.221103 71.076916 
L 229.336006 77.66194 
L 229.463004 77.66194 
L 229.577906 82.297797 
L 229.583954 82.297797 
L 229.698856 84.721086 
L 229.825854 84.721086 
L 229.940757 92.307033 
L 230.067754 92.307033 
L 230.182657 100.525143 
L 230.37013 100.525143 
L 230.485032 109.480775 
L 230.61203 109.480775 
L 230.726933 115.855078 
L 230.73298 115.855078 
L 230.847883 119.22661 
L 230.97488 119.22661 
L 231.089783 122.756183 
L 231.095831 122.756183 
L 231.210733 134.398505 
L 231.216781 134.398505 
L 231.337731 140.035286 
L 231.519156 140.035286 
L 231.634059 143.459498 
L 231.640106 143.459498 
L 231.761056 145.514026 
L 231.821531 145.514026 
L 231.942482 146.840097 
L 232.057384 147.318908 
L 232.063432 147.318908 
L 232.178334 147.794924 
L 232.305332 147.831445 
L 232.426282 148.02894 
L 232.541185 147.961679 
L 232.849608 147.910849 
L 232.970558 147.715188 
L 233.151983 147.675998 
L 233.272933 147.485902 
L 233.333408 147.524663 
L 233.339456 147.45079 
L 233.375741 147.45079 
L 233.393883 147.45079 
L 233.508786 147.337972 
L 233.817209 147.264398 
L 233.932111 147.135111 
L 234.301009 147.083233 
L 234.361484 147.0175 
L 234.409865 147.059396 
L 236.538587 147.126577 
L 236.65349 147.219647 
L 236.961913 147.315646 
L 237.08891 147.456672 
L 237.445713 147.464349 
L 237.560616 147.610332 
L 238.171414 147.522697 
L 238.231889 147.438581 
L 238.280269 147.488648 
L 238.352839 147.455961 
L 238.467742 147.342253 
L 238.83664 147.309525 
L 238.897115 147.23068 
L 238.951542 147.249484 
L 239.501865 147.196706 
L 239.616768 147.1232 
L 241.920868 147.132282 
L 241.981343 147.26344 
L 242.029723 147.210952 
L 244.158446 147.243638 
L 244.218921 147.322373 
L 244.273349 147.300059 
L 245.851748 147.328481 
L 245.912223 147.421345 
L 245.966651 147.410145 
L 247.1822 147.413222 
L 247.242675 147.521285 
L 247.291055 147.446239 
L 247.666 147.467107 
L 247.780903 147.582028 
L 248.754551 147.571949 
L 248.869454 147.705299 
L 249.298827 147.795418 
L 249.359302 147.821204 
L 249.36535 147.706828 
L 249.38954 147.706828 
L 249.419777 147.706828 
L 249.53468 147.854363 
L 249.601202 147.868183 
L 249.716105 147.736898 
L 249.722153 147.736898 
L 249.837055 147.928276 
L 249.843103 147.928276 
L 249.958005 147.787393 
L 250.024528 147.811788 
L 250.085003 147.975408 
L 250.133383 147.844891 
L 250.205953 147.861416 
L 250.266428 148.031179 
L 250.314808 147.88836 
L 250.447853 147.899815 
L 250.562756 148.100297 
L 250.629279 148.13574 
L 250.689754 147.97246 
L 250.695801 148.344394 
L 250.732086 148.344394 
L 250.750229 148.344394 
L 250.865131 148.191907 
L 250.871179 148.191907 
L 250.931654 148.020554 
L 250.986082 148.074306 
L 250.992129 148.074306 
L 251.107032 148.270618 
L 251.234029 148.33328 
L 251.294504 148.384356 
L 251.300552 148.213211 
L 251.330789 148.213211 
L 251.354979 148.213211 
L 251.469882 148.465208 
L 251.47593 148.465208 
L 251.590832 148.271939 
L 251.59688 148.271939 
L 251.711782 148.545741 
L 251.71783 148.545741 
L 251.778305 148.353629 
L 251.826685 148.431001 
L 251.83878 148.431001 
L 251.899255 148.673304 
L 251.947635 148.465768 
L 252.020205 148.520168 
L 252.08068 148.776934 
L 252.12906 148.575365 
L 252.262106 148.63387 
L 252.322581 148.904587 
L 252.370961 148.695509 
L 252.443531 148.762881 
L 252.558433 149.115156 
L 252.685431 149.207015 
L 252.745906 148.99645 
L 252.751954 149.310276 
L 252.788239 149.310276 
L 252.806381 149.310276 
L 252.866856 149.42637 
L 252.872904 149.237282 
L 252.909189 149.237282 
L 252.927331 149.237282 
L 253.042234 149.371448 
L 253.048281 149.371448 
L 253.163184 149.910615 
L 253.169232 149.910615 
L 253.229707 150.136603 
L 253.278087 150.017565 
L 253.350657 150.017565 
L 253.471607 150.687574 
L 253.532082 150.628423 
L 253.53813 151.004717 
L 253.550225 151.004717 
L 253.592557 151.004717 
L 253.713507 151.835275 
L 253.82841 151.868837 
L 253.834457 151.868837 
L 253.955408 152.813256 
L 254.209403 154.681481 
L 254.318258 154.681481 
L 254.439208 155.854304 
L 254.499683 155.854304 
L 254.620633 157.321372 
L 254.765773 158.937637 
L 254.802059 158.937637 
L 254.947199 160.685779 
L 255.043959 160.685779 
L 255.158861 161.995448 
L 255.285859 161.995448 
L 255.424952 165.054614 
L 255.467284 165.054614 
L 255.594282 167.258536 
L 255.64871 167.258536 
L 255.763612 169.065105 
L 255.76966 169.065105 
L 255.884562 170.262674 
L 255.89061 170.262674 
L 256.005512 170.827673 
L 256.01156 170.827673 
L 256.138558 174.689869 
L 256.192985 174.689869 
L 256.307888 175.390943 
L 256.313935 175.390943 
L 256.428838 177.430856 
L 256.434885 177.430856 
L 256.549788 179.580884 
L 256.555836 179.580884 
L 256.670738 181.041893 
L 256.676786 181.041893 
L 256.803783 183.661633 
L 256.858211 183.661633 
L 257.003351 176.276275 
L 257.039636 176.276275 
L 257.154539 171.348316 
L 257.160586 171.348316 
L 257.275489 139.344971 
L 257.281536 139.344971 
L 257.396439 116.020652 
L 257.402487 116.020652 
L 257.535532 68.741484 
L 257.583912 68.741484 
L 257.698814 44.523662 
L 257.704862 44.523662 
L 257.819765 35.161145 
L 257.825812 35.161145 
L 257.946762 31.076077 
L 258.061665 29.896594 
L 258.067712 29.896594 
L 258.19471 32.093575 
L 258.309613 32.093575 
L 258.424515 37.203553 
L 258.491038 37.203553 
L 258.60594 38.942 
L 258.732938 38.942 
L 258.847841 43.999298 
L 258.974838 43.999298 
L 259.089741 49.478038 
L 259.277214 49.478038 
L 259.392116 53.165651 
L 259.398164 53.165651 
L 259.513067 55.009458 
L 259.579589 55.009458 
L 259.694492 60.804279 
L 259.881964 60.804279 
L 259.996867 66.915181 
L 260.123865 66.915181 
L 260.238767 71.129596 
L 260.244815 71.129596 
L 260.359718 73.236804 
L 260.486715 73.236804 
L 260.601618 80.032549 
L 260.789091 80.032549 
L 260.903993 87.249735 
L 261.030991 87.249735 
L 261.145893 95.046403 
L 261.272891 95.046403 
L 261.387794 100.577823 
L 261.635742 100.577823 
L 261.750644 103.475233 
L 261.817167 103.475233 
L 261.932069 119.331971 
L 262.059067 119.331971 
L 262.17397 126.601837 
L 262.180017 126.601837 
L 262.29492 130.605532 
L 262.361442 130.605532 
L 262.476345 137.717357 
L 262.482393 137.717357 
L 262.597295 140.087966 
L 262.724293 140.087966 
L 262.839195 144.671143 
L 262.845243 144.671143 
L 262.960146 145.566706 
L 262.966193 145.566706 
L 263.087143 146.877895 
L 263.202046 147.282008 
L 263.268568 147.318908 
L 263.389519 147.794924 
L 263.534659 147.992979 
L 263.933794 147.939206 
L 264.060792 147.664389 
L 264.417595 147.561663 
L 264.538545 147.411863 
L 264.544592 147.451316 
L 264.659495 147.378123 
L 264.774398 147.24487 
L 265.143296 147.176486 
L 265.203771 147.117716 
L 265.252151 147.158668 
L 265.627096 147.052227 
L 265.687571 147.037695 
L 265.693619 147.080312 
L 265.729904 147.080312 
L 266.776123 146.971462 
L 266.891025 147.010364 
L 267.441348 147.036354 
L 267.556251 147.128889 
L 267.925149 147.174201 
L 268.040052 147.361381 
L 268.106574 147.361381 
L 268.167049 147.501673 
L 268.221477 147.456096 
L 268.40895 147.554288 
L 268.523852 147.601744 
L 269.316076 147.557508 
L 269.376551 147.437985 
L 269.424931 147.488648 
L 269.497501 147.455961 
L 269.557976 147.372994 
L 269.606356 147.424041 
L 269.678926 147.394094 
L 269.739401 147.312284 
L 269.787781 147.36432 
L 269.981301 147.256491 
L 270.041776 147.186721 
L 270.090157 147.240017 
L 270.646527 147.141738 
L 270.707002 147.1232 
L 270.71305 147.178994 
L 270.749335 147.178994 
L 274.395982 147.175053 
L 274.456457 147.321209 
L 274.504837 147.244811 
L 276.270709 147.29237 
L 276.331184 147.377803 
L 276.385611 147.344294 
L 277.60116 147.428416 
L 277.661635 147.464603 
L 277.667683 147.339856 
L 277.69792 147.339856 
L 278.084961 147.39699 
L 278.145436 147.501475 
L 278.199864 147.494421 
L 279.052562 147.488004 
L 279.167465 147.639005 
L 279.294462 147.618638 
L 279.354937 147.509046 
L 279.360985 147.631432 
L 279.403317 147.631432 
L 280.080638 147.728635 
L 280.141113 147.755736 
L 280.147161 147.624496 
L 280.165303 147.624496 
L 280.262063 147.63566 
L 280.376966 147.775941 
L 280.383014 147.775941 
L 280.443489 147.653073 
L 280.497916 147.676781 
L 280.564439 147.676781 
L 280.624914 147.822214 
L 280.673294 147.693586 
L 280.745864 147.737936 
L 280.806339 147.88994 
L 280.854719 147.737941 
L 280.927289 147.771625 
L 281.042192 147.929327 
L 281.048239 147.929327 
L 281.108714 147.788454 
L 281.163142 147.812858 
L 281.16919 147.812858 
L 281.229665 147.976477 
L 281.278045 147.821459 
L 281.471565 147.865414 
L 281.53204 148.037919 
L 281.58042 147.900924 
L 281.65299 147.922364 
L 281.767893 148.13687 
L 281.77394 148.13687 
L 281.834415 147.973601 
L 281.840463 148.159568 
L 281.882795 148.159568 
L 282.197266 148.096173 
L 282.257741 148.296998 
L 282.306121 148.129091 
L 282.439166 148.153994 
L 282.499641 148.365344 
L 282.548021 148.193129 
L 282.620591 148.24666 
L 282.735494 148.52006 
L 282.741541 148.52006 
L 282.802016 148.337312 
L 282.808064 148.568652 
L 282.850397 148.568652 
L 282.922967 148.613224 
L 283.037869 148.432304 
L 283.043917 148.432304 
L 283.158819 148.71657 
L 283.164867 148.71657 
L 283.225342 148.521505 
L 283.27977 148.55898 
L 283.285817 148.55898 
L 283.40072 148.887307 
L 283.406767 148.887307 
L 283.467242 148.698296 
L 283.47329 148.975656 
L 283.509575 148.975656 
L 283.648667 149.051354 
L 283.709143 148.820794 
L 283.71519 149.116592 
L 283.757523 149.116592 
L 283.830093 149.20993 
L 283.890568 148.980659 
L 283.938948 149.10459 
L 283.951043 149.10459 
L 284.065945 149.427873 
L 284.071993 149.427873 
L 284.132468 149.558284 
L 284.138516 149.374552 
L 284.174801 149.374552 
L 284.192943 149.374552 
L 284.313893 149.912191 
L 284.428796 149.771809 
L 284.434843 149.771809 
L 284.555794 150.779247 
L 284.567889 150.69087 
L 284.737219 150.631765 
L 284.852121 151.418135 
L 284.858169 151.418135 
L 284.979119 152.305187 
L 285.202877 153.347688 
L 285.281494 153.458699 
L 285.396397 154.044496 
L 285.46292 154.044496 
L 285.602012 156.56633 
L 285.70482 156.56633 
L 285.84996 158.118723 
L 285.886245 158.118723 
L 286.001148 159.249738 
L 286.007195 159.249738 
L 286.128145 160.69173 
L 286.18862 160.69173 
L 286.327713 162.578112 
L 286.370046 162.578112 
L 286.490996 164.611215 
L 286.551471 164.611215 
L 286.690564 166.772379 
L 286.732896 166.772379 
L 286.847799 167.905414 
L 286.853846 167.905414 
L 286.986891 170.268975 
L 287.035271 170.268975 
L 287.150174 172.089722 
L 287.156222 172.089722 
L 287.271124 172.769171 
L 287.277172 172.769171 
L 287.392074 174.698157 
L 287.398122 174.698157 
L 287.531167 177.440271 
L 287.640022 177.440271 
L 287.760972 180.312401 
L 287.894017 183.291939 
L 287.942398 183.291939 
L 288.0573 183.660279 
L 288.123823 183.661633 
L 288.244773 176.274094 
L 288.365723 176.274094 
L 288.486673 139.344971 
L 288.619718 91.469731 
L 288.668098 91.469731 
L 288.795096 51.699746 
L 288.909999 51.699746 
L 289.024901 36.548088 
L 289.030949 36.548088 
L 289.145851 30.920235 
L 289.151899 30.920235 
L 289.212374 31.257709 
L 289.218422 30.302448 
L 289.248659 30.302448 
L 289.272849 30.302448 
L 289.387752 31.882854 
L 289.454274 31.882854 
L 289.569177 35.254386 
L 289.575224 35.254386 
L 289.690127 36.992833 
L 289.75665 36.992833 
L 289.871552 40.364365 
L 289.8776 40.364365 
L 289.992502 42.050131 
L 290.059025 42.050131 
L 290.173928 47.37083 
L 290.3614 47.37083 
L 290.476303 52.90225 
L 290.603301 52.90225 
L 290.718203 56.642544 
L 290.724251 56.642544 
L 290.839153 58.591711 
L 290.905676 58.591711 
L 291.020579 62.542725 
L 291.026626 62.542725 
L 291.141529 64.597253 
L 291.268526 64.597253 
L 291.383429 70.813515 
L 291.510427 70.813515 
L 291.625329 75.185971 
L 291.691852 75.185971 
L 291.806755 77.398539 
L 291.933752 77.398539 
L 292.048655 86.933654 
L 292.175653 86.933654 
L 292.290555 92.043632 
L 292.296603 92.043632 
L 292.411505 94.730322 
L 292.478028 94.730322 
L 292.59293 100.261742 
L 292.598978 100.261742 
L 292.713881 103.159152 
L 292.719928 103.159152 
L 292.834831 109.112014 
L 292.840878 109.112014 
L 292.955781 112.272825 
L 293.082779 112.272825 
L 293.197681 122.387422 
L 293.324679 122.387422 
L 293.439581 130.13141 
L 293.445629 130.13141 
L 293.560532 134.029744 
L 293.687529 134.029744 
L 293.802432 141.826412 
L 293.92943 141.826412 
L 294.044332 144.604549 
L 294.110855 144.518969 
L 294.237852 140.930259 
L 294.29228 140.930259 
L 294.431373 132.967309 
L 294.473705 132.967309 
L 294.612798 126.403849 
L 294.65513 126.403849 
L 294.770033 125.158321 
L 294.776081 125.158321 
L 294.836556 127.438067 
L 294.884936 125.270789 
L 294.897031 125.270789 
L 295.017981 130.716705 
L 295.024028 129.469015 
L 295.078456 129.469015 
L 295.205454 141.454761 
L 295.259881 141.454761 
L 295.374784 141.197321 
L 295.380831 141.197321 
L 295.501781 148.37158 
L 295.562256 148.37158 
L 295.683207 152.565284 
L 295.804157 152.565284 
L 295.919059 154.268977 
L 295.925107 154.268977 
L 296.04001 154.40003 
L 296.046057 154.40003 
L 296.173055 154.00687 
L 296.227482 154.00687 
L 296.342385 153.482657 
L 296.348432 153.482657 
L 296.47543 152.434231 
L 296.529858 152.434231 
L 296.650808 151.254752 
L 296.711283 151.254752 
L 296.832233 150.337379 
L 296.892708 150.337379 
L 297.013658 149.420006 
L 297.134608 149.420006 
L 297.261606 148.37158 
L 297.376509 148.37158 
L 297.491411 147.97842 
L 297.618409 147.97842 
L 297.733312 147.58526 
L 297.981259 147.58526 
L 298.108257 147.1921 
L 298.162685 147.1921 
L 298.283635 146.929994 
L 298.58601 146.929994 
L 298.700913 146.798941 
L 299.735036 146.798941 
L 299.849939 146.667887 
L 299.916462 146.667887 
L 300.031364 146.798941 
L 300.037412 146.798941 
L 300.152314 146.667887 
L 300.944538 146.667887 
L 301.05944 146.798941 
L 301.125963 146.798941 
L 301.240866 146.667887 
L 301.428338 146.667887 
L 301.543241 146.798941 
L 301.549289 146.798941 
L 301.664191 146.667887 
L 301.730714 146.667887 
L 301.845616 146.798941 
L 302.456415 146.798941 
L 302.571317 146.667887 
L 302.940215 146.667887 
L 303.00069 146.798941 
L 303.04907 146.667887 
L 303.544966 146.667887 
L 303.605441 146.798941 
L 303.653821 146.667887 
L 303.907816 146.667887 
L 304.022719 146.798941 
L 304.149717 146.778998 
L 304.264619 147.00122 
L 304.270667 147.00122 
L 304.385569 149.001214 
L 304.452092 149.001214 
L 304.566995 151.667873 
L 304.573042 151.667873 
L 304.706087 155.532475 
L 304.754467 155.532475 
L 304.86937 155.924788 
L 304.875417 155.924788 
L 304.996368 159.651161 
L 305.056843 159.214184 
L 305.06289 160.315637 
L 305.093128 160.315637 
L 305.117318 160.315637 
L 305.238268 158.677109 
L 305.262458 159.340695 
L 305.298743 159.340695 
L 305.413646 157.815662 
L 305.419693 157.815662 
L 305.480168 155.539066 
L 305.534596 155.743983 
L 305.540643 155.743983 
L 305.661593 150.909982 
L 305.782544 150.909982 
L 305.903494 147.178765 
L 305.963969 146.013437 
L 306.018396 146.023332 
L 306.024444 146.023332 
L 306.145394 144.719323 
L 306.260297 144.366594 
L 306.326819 144.377491 
L 306.441722 144.196052 
L 306.568719 144.281045 
L 306.701765 144.535809 
L 306.750145 144.535809 
L 306.871095 144.886058 
L 306.992045 144.896311 
L 307.119043 145.477334 
L 307.233945 145.477334 
L 307.348848 145.666624 
L 307.354895 145.666624 
L 307.469798 145.845105 
L 307.475846 145.845105 
L 307.590748 145.970487 
L 307.596796 145.970487 
L 307.723793 146.283718 
L 307.838696 146.293119 
L 307.953599 146.427979 
L 308.141071 146.509386 
L 308.255974 146.590711 
L 308.624872 146.691138 
L 308.745822 146.738842 
L 308.89701 146.776695 
L 326.162643 146.828607 
L 326.223118 146.898913 
L 326.271498 146.863634 
L 328.097845 146.924303 
L 328.15832 146.994813 
L 328.2067 146.960278 
L 328.823546 146.871001 
L 328.938448 146.860737 
L 374.119374 146.96456 
L 374.240324 146.972858 
L 374.300799 146.920492 
L 374.355227 146.929199 
L 381.194957 147.027433 
L 381.315907 147.03308 
L 381.376383 147.005037 
L 381.38243 147.04974 
L 381.424763 147.04974 
L 386.395813 147.102884 
L 386.510716 147.161031 
L 389.359092 147.183656 
L 389.419567 147.330503 
L 389.473995 147.27523 
L 391.354769 147.301576 
L 391.415244 147.38991 
L 391.463624 147.308915 
L 391.83857 147.333253 
L 391.899045 147.427012 
L 391.947425 147.337611 
L 392.261895 147.352464 
L 392.376798 147.467395 
L 393.471397 147.576067 
L 393.531872 147.588268 
L 393.537919 147.492447 
L 393.550014 147.492447 
L 393.894722 147.517882 
L 393.955197 147.636115 
L 394.003577 147.521231 
L 394.076147 147.542183 
L 394.19105 147.677791 
L 394.257573 147.571804 
L 394.318048 147.453184 
L 394.324095 147.704993 
L 394.36038 147.704993 
L 395.043749 147.804729 
L 395.104224 147.82451 
L 395.110271 147.697756 
L 395.122366 147.697756 
L 395.164699 147.697756 
L 395.279601 147.870907 
L 395.467074 147.78273 
L 395.527549 148.077581 
L 395.581977 147.968853 
L 395.588024 147.968853 
L 395.648499 147.836716 
L 395.702927 147.87581 
L 395.708974 147.87581 
L 395.823877 148.029795 
L 396.071825 148.026972 
L 396.1323 148.190266 
L 396.18068 148.064733 
L 396.313725 148.124397 
L 396.3742 148.294747 
L 396.42258 148.191628 
L 396.49515 148.266478 
L 396.610053 148.527871 
L 396.797526 148.576038 
L 396.918476 148.94757 
L 397.087806 149.468991 
L 397.160376 149.468991 
L 397.275279 149.591677 
L 397.281326 149.591677 
L 397.396229 150.28805 
L 397.462751 150.28805 
L 397.577654 151.049464 
L 397.583702 151.049464 
L 397.698604 151.437444 
L 397.704652 151.437444 
L 397.837697 152.23825 
L 397.886077 152.23825 
L 398.00098 152.818808 
L 398.007027 152.818808 
L 398.12193 153.425425 
L 398.127977 153.425425 
L 398.254975 154.003965 
L 398.309402 154.003965 
L 398.448495 154.996513 
L 398.490828 154.996513 
L 398.60573 155.375982 
L 398.611778 155.375982 
L 398.72668 155.755208 
L 398.732728 155.755208 
L 398.865773 156.521649 
L 398.914153 156.521649 
L 399.047198 157.275869 
L 399.095578 157.275869 
L 399.210481 157.460634 
L 399.216529 157.460634 
L 399.331431 158.029116 
L 399.397954 158.029116 
L 399.518904 158.957983 
L 399.633806 159.142566 
L 399.700329 159.142566 
L 399.821279 160.068485 
L 399.942229 160.068485 
L 400.063179 160.996076 
L 400.123655 160.996076 
L 400.238557 161.36272 
L 400.244605 161.36272 
L 400.359507 161.73164 
L 400.365555 161.73164 
L 400.486505 162.656103 
L 400.54698 162.656103 
L 400.661883 162.833849 
L 400.78888 162.833849 
L 400.921926 164.493269 
L 401.030781 164.493269 
L 401.151731 165.220448 
L 401.212206 165.220448 
L 401.345251 165.961635 
L 401.393631 165.961635 
L 401.520629 166.507116 
L 401.575056 166.507116 
L 401.689959 167.247878 
L 401.756481 167.247878 
L 401.889527 167.978245 
L 401.998382 167.978245 
L 402.113284 168.711532 
L 402.119332 168.711532 
L 402.234235 169.080453 
L 402.300757 169.080453 
L 402.41566 169.816018 
L 402.421707 169.816018 
L 402.548705 170.367122 
L 402.603132 170.367122 
L 402.718035 171.100409 
L 402.724083 171.100409 
L 402.838985 171.284869 
L 402.905508 171.284869 
L 403.02041 172.204894 
L 403.026458 172.204894 
L 403.141361 172.387078 
L 403.207883 172.387078 
L 403.328833 173.307102 
L 403.443736 173.489286 
L 403.510259 173.489286 
L 403.631209 174.409311 
L 403.746111 174.593771 
L 403.752159 174.593771 
L 403.867061 175.327058 
L 403.873109 175.327058 
L 403.988012 175.695979 
L 403.994059 175.695979 
L 404.115009 176.431543 
L 404.175484 176.431543 
L 404.290387 176.613727 
L 404.296434 176.613727 
L 404.411337 177.164831 
L 404.417385 177.164831 
L 404.538335 177.900395 
L 404.67138 178.63596 
L 404.71976 178.63596 
L 404.834663 178.82042 
L 404.901185 178.82042 
L 405.016088 179.922628 
L 405.143085 179.922628 
L 405.264036 180.655915 
L 405.378938 180.840376 
L 405.384986 180.840376 
L 405.505936 181.760401 
L 405.566411 181.760401 
L 405.681314 181.942584 
L 405.687361 181.942584 
L 405.802264 182.678148 
L 405.808311 182.678148 
L 405.923214 182.969641 
L 405.929261 182.969641 
L 406.044164 181.755846 
L 406.110687 181.755846 
L 406.237684 164.762713 
L 406.352587 164.762713 
L 406.509822 104.066119 
L 406.534012 104.066119 
L 406.654962 59.619476 
L 406.715437 59.619476 
L 406.842435 36.179262 
L 406.896863 36.179262 
L 407.02386 30.631203 
L 407.078288 30.631203 
L 407.19319 29.938203 
L 407.259713 29.938203 
L 407.380663 33.144168 
L 407.501613 33.144168 
L 407.616516 38.59431 
L 407.743514 38.59431 
L 407.858416 40.250726 
L 407.985414 40.250726 
L 408.100316 45.380272 
L 408.106364 45.380272 
L 408.227314 49.227431 
L 408.287789 49.227431 
L 408.408739 53.021157 
L 408.590165 53.021157 
L 408.705067 58.631597 
L 408.832065 58.631597 
L 408.946967 62.74592 
L 408.953015 62.74592 
L 409.067918 64.829798 
L 409.194915 64.829798 
L 409.309818 71.24173 
L 409.436816 71.24173 
L 409.551718 77.974258 
L 409.739191 77.974258 
L 409.854094 82.729774 
L 409.860141 82.729774 
L 409.975044 85.187681 
L 410.041566 85.187681 
L 410.156469 93.042298 
L 410.343942 93.042298 
L 410.458844 98.599305 
L 410.464892 98.599305 
L 410.579794 101.484675 
L 410.585842 101.484675 
L 410.700745 107.522577 
L 410.706792 107.522577 
L 410.821695 110.621678 
L 410.948692 110.621678 
L 411.063595 120.827336 
L 411.190593 120.827336 
L 411.305495 132.529111 
L 411.492968 132.529111 
L 411.607871 139.368505 
L 411.613918 139.368505 
L 411.728821 141.666114 
L 411.795343 141.666114 
L 411.910246 145.106803 
L 411.976769 145.106803 
L 412.091671 143.257312 
L 412.097719 143.257312 
L 412.230764 136.505525 
L 412.279144 136.505525 
L 412.394047 130.184096 
L 412.460569 130.184096 
L 412.575472 130.011021 
L 412.641994 130.011021 
L 412.756897 127.890593 
L 412.762944 127.890593 
L 412.877847 131.803834 
L 412.883895 131.803834 
L 412.94437 130.589866 
L 412.950417 134.211102 
L 412.980655 134.211102 
L 413.004845 134.211102 
L 413.06532 138.678608 
L 413.119747 138.259051 
L 413.125795 138.259051 
L 413.252793 149.026846 
L 413.42817 149.026846 
L 413.54912 152.827391 
L 413.609595 152.827391 
L 413.724498 154.268977 
L 413.730546 154.268977 
L 413.845448 154.40003 
L 413.851496 154.40003 
L 413.984541 153.875817 
L 414.093396 153.875817 
L 414.214346 152.827391 
L 414.274821 152.827391 
L 414.395771 151.778965 
L 414.456246 151.778965 
L 414.577197 150.599485 
L 414.637672 150.599485 
L 414.752574 150.206326 
L 414.758622 150.206326 
L 414.879572 149.288953 
L 414.940047 149.288953 
L 415.060997 148.633686 
L 415.121472 148.633686 
L 415.242422 148.109473 
L 415.363373 148.109473 
L 415.478275 147.716314 
L 415.484323 147.716314 
L 415.599225 147.58526 
L 415.605273 147.58526 
L 415.726223 147.323154 
L 415.786698 147.323154 
L 415.901601 147.1921 
L 415.907648 147.1921 
L 416.022551 147.061047 
L 416.089073 147.061047 
L 416.203976 146.929994 
L 416.270499 146.929994 
L 416.385401 146.798941 
L 417.48 146.798941 
L 417.48 146.798941 
" style="fill:none;stroke:#e41a1c;stroke-linecap:square;stroke-width:2;"/>
   </g>
   <g id="patch_3">
    <path d="M 79.79325 230.88 
L 79.79325 14.52 
" style="fill:none;stroke:#000000;stroke-linecap:square;stroke-linejoin:miter;stroke-width:0.8;"/>
   </g>
   <g id="patch_4">
    <path d="M 417.48 230.88 
L 417.48 14.52 
" style="fill:none;"/>
   </g>
   <g id="patch_5">
    <path d="M 79.79325 230.88 
L 417.48 230.88 
" style="fill:none;stroke:#000000;stroke-linecap:square;stroke-linejoin:miter;stroke-width:0.8;"/>
   </g>
   <g id="patch_6">
    <path d="M 79.79325 14.52 
L 417.48 14.52 
" style="fill:none;"/>
   </g>
   <g id="legend_1">
    <g id="patch_7">
     <path d="M 84.59325 229.28 
L 240.97652 229.28 
Q 244.17652 229.28 244.17652 226.08 
L 244.17652 204.54415 
Q 244.17652 201.34415 240.97652 201.34415 
L 84.59325 201.34415 
Q 81.39325 201.34415 81.39325 204.54415 
L 81.39325 226.08 
Q 81.39325 229.28 84.59325 229.28 
z
" style="fill:#ffffff;stroke:#000000;stroke-linejoin:miter;"/>
    </g>
    <g id="line2d_12">
     <path d="M 87.79325 214.00011 
L 119.79325 214.00011 
" style="fill:none;stroke:#e41a1c;stroke-linecap:square;stroke-width:2;"/>
    </g>
    <g id="line2d_13"/>
    <g id="text_13">
     <!-- Surface Speed -->
     <g transform="translate(132.59325 219.60011)scale(0.16 -0.16)">
      <use transform="translate(0 -1.570628)scale(0.996264)" xlink:href="#Century_Schoolbook_L_Roman-83"/>
      <use transform="translate(62.763979 -1.570628)scale(0.996264)" xlink:href="#Century_Schoolbook_L_Roman-117"/>
      <use transform="translate(123.63561 -1.570628)scale(0.996264)" xlink:href="#Century_Schoolbook_L_Roman-114"/>
      <use transform="translate(167.869178 -1.570628)scale(0.996264)" xlink:href="#Century_Schoolbook_L_Roman-102"/>
      <use transform="translate(201.044408 -1.570628)scale(0.996264)" xlink:href="#Century_Schoolbook_L_Roman-97"/>
      <use transform="translate(256.436085 -1.570628)scale(0.996264)" xlink:href="#Century_Schoolbook_L_Roman-99"/>
      <use transform="translate(300.669654 -1.570628)scale(0.996264)" xlink:href="#Century_Schoolbook_L_Roman-101"/>
      <use transform="translate(378.178024 -1.570628)scale(0.996264)" xlink:href="#Century_Schoolbook_L_Roman-83"/>
      <use transform="translate(440.942003 -1.570628)scale(0.996264)" xlink:href="#Century_Schoolbook_L_Roman-112"/>
      <use transform="translate(498.12749 -1.570628)scale(0.996264)" xlink:href="#Century_Schoolbook_L_Roman-101"/>
      <use transform="translate(547.940691 -1.570628)scale(0.996264)" xlink:href="#Century_Schoolbook_L_Roman-101"/>
      <use transform="translate(597.753891 -1.570628)scale(0.996264)" xlink:href="#Century_Schoolbook_L_Roman-100"/>
     </g>
    </g>
   </g>
  </g>
 </g>
 <defs>
  <clipPath id="pf47b860222">
   <rect height="216.36" width="337.68675" x="79.79325" y="14.52"/>
  </clipPath>
 </defs>
</svg>
