<?xml version="1.0" encoding="utf-8" standalone="no"?>
<!DOCTYPE svg PUBLIC "-//W3C//DTD SVG 1.1//EN"
  "http://www.w3.org/Graphics/SVG/1.1/DTD/svg11.dtd">
<!-- Created with matplotlib (https://matplotlib.org/) -->
<svg height="288pt" version="1.1" viewBox="0 0 432 288" width="432pt" xmlns="http://www.w3.org/2000/svg" xmlns:xlink="http://www.w3.org/1999/xlink">
 <defs>
  <style type="text/css">
*{stroke-linecap:butt;stroke-linejoin:round;}
  </style>
 </defs>
 <g id="figure_1">
  <g id="patch_1">
   <path d="M 0 288 
L 432 288 
L 432 0 
L 0 0 
z
" style="fill:#ffffff;"/>
  </g>
  <g id="axes_1">
   <g id="patch_2">
    <path d="M 65.32538 230.88 
L 417.48 230.88 
L 417.48 14.52 
L 65.32538 14.52 
z
" style="fill:#ffffff;"/>
   </g>
   <g id="matplotlib.axis_1">
    <g id="xtick_1">
     <g id="line2d_1">
      <defs>
       <path d="M 0 0 
L 0 3.5 
" id="mb6a02b50c8" style="stroke:#000000;stroke-width:0.8;"/>
      </defs>
      <g>
       <use style="stroke:#000000;stroke-width:0.8;" x="128.391449" xlink:href="#mb6a02b50c8" y="230.88"/>
      </g>
     </g>
     <g id="text_1">
      <!-- $10$ -->
      <defs>
       <path d="M 26.59375 63.40625 
C 26.59375 65.5 26.5 65.5 25.09375 65.5 
C 21.203125 61.1875 15.296875 59.796875 9.703125 59.796875 
C 9.40625 59.796875 8.90625 59.796875 8.796875 59.5 
C 8.703125 59.296875 8.703125 59.09375 8.703125 57 
C 11.796875 57 17 57.59375 21 59.984375 
L 21 7.203125 
C 21 3.6875 20.796875 2.5 12.203125 2.5 
L 9.203125 2.5 
L 9.203125 0 
C 14 0 19 0 23.796875 0 
C 28.59375 0 33.59375 0 38.40625 0 
L 38.40625 2.5 
L 35.40625 2.5 
C 26.796875 2.5 26.59375 3.59375 26.59375 7.15625 
z
" id="CMR17-49"/>
       <path d="M 42 31.640625 
C 42 37.75 41.90625 48.125 37.703125 56.109375 
C 34 63.109375 28.09375 65.59375 22.90625 65.59375 
C 18.09375 65.59375 12 63.40625 8.203125 56.203125 
C 4.203125 48.71875 3.796875 39.4375 3.796875 31.640625 
C 3.796875 25.953125 3.90625 17.28125 7 9.671875 
C 11.296875 -0.609375 19 -2 22.90625 -2 
C 27.5 -2 34.5 -0.109375 38.59375 9.375 
C 41.59375 16.28125 42 24.359375 42 31.640625 
z
M 22.90625 -0.40625 
C 16.5 -0.40625 12.703125 5.078125 11.296875 12.6875 
C 10.203125 18.5625 10.203125 27.15625 10.203125 32.75 
C 10.203125 40.4375 10.203125 46.828125 11.5 52.921875 
C 13.40625 61.390625 19 64 22.90625 64 
C 27 64 32.296875 61.296875 34.203125 53.125 
C 35.5 47.4375 35.59375 40.734375 35.59375 32.75 
C 35.59375 26.25 35.59375 18.265625 34.40625 12.375 
C 32.296875 1.484375 26.40625 -0.40625 22.90625 -0.40625 
z
" id="CMR17-48"/>
      </defs>
      <g transform="translate(120.136324 251.21795)scale(0.18 -0.18)">
       <use transform="scale(0.996264)" xlink:href="#CMR17-49"/>
       <use transform="translate(45.690477 0)scale(0.996264)" xlink:href="#CMR17-48"/>
      </g>
     </g>
    </g>
    <g id="xtick_2">
     <g id="line2d_2">
      <g>
       <use style="stroke:#000000;stroke-width:0.8;" x="191.457517" xlink:href="#mb6a02b50c8" y="230.88"/>
      </g>
     </g>
     <g id="text_2">
      <!-- $20$ -->
      <defs>
       <path d="M 41.703125 15.453125 
L 39.90625 15.453125 
C 38.90625 8.375 38.09375 7.171875 37.703125 6.5625 
C 37.203125 5.765625 30 5.765625 28.59375 5.765625 
L 9.40625 5.765625 
C 13 9.671875 20 16.75 28.5 24.953125 
C 34.59375 30.734375 41.703125 37.53125 41.703125 47.421875 
C 41.703125 59.21875 32.296875 66 21.796875 66 
C 10.796875 66 4.09375 56.3125 4.09375 47.34375 
C 4.09375 43.4375 7 42.9375 8.203125 42.9375 
C 9.203125 42.9375 12.203125 43.546875 12.203125 47.03125 
C 12.203125 50.109375 9.59375 51 8.203125 51 
C 7.59375 51 7 50.90625 6.59375 50.703125 
C 8.5 59.21875 14.296875 63.40625 20.40625 63.40625 
C 29.09375 63.40625 34.796875 56.515625 34.796875 47.421875 
C 34.796875 38.734375 29.703125 31.25 24 24.75 
L 4.09375 2.28125 
L 4.09375 0 
L 39.296875 0 
z
" id="CMR17-50"/>
      </defs>
      <g transform="translate(183.202392 251.21795)scale(0.18 -0.18)">
       <use transform="scale(0.996264)" xlink:href="#CMR17-50"/>
       <use transform="translate(45.690477 0)scale(0.996264)" xlink:href="#CMR17-48"/>
      </g>
     </g>
    </g>
    <g id="xtick_3">
     <g id="line2d_3">
      <g>
       <use style="stroke:#000000;stroke-width:0.8;" x="254.523586" xlink:href="#mb6a02b50c8" y="230.88"/>
      </g>
     </g>
     <g id="text_3">
      <!-- $30$ -->
      <defs>
       <path d="M 22.09375 33.703125 
C 31 33.703125 34.90625 25.96875 34.90625 17.03125 
C 34.90625 5 28.5 0.390625 22.703125 0.390625 
C 17.40625 0.390625 8.796875 3.03125 6.09375 10.828125 
C 6.59375 10.625 7.09375 10.625 7.59375 10.625 
C 10 10.625 11.796875 12.21875 11.796875 14.8125 
C 11.796875 17.703125 9.59375 19 7.59375 19 
C 5.90625 19 3.296875 18.203125 3.296875 14.46875 
C 3.296875 5.234375 12.296875 -2 22.90625 -2 
C 34 -2 42.5 6.71875 42.5 16.953125 
C 42.5 26.671875 34.5 33.703125 25 34.796875 
C 32.59375 36.375 39.90625 43.0625 39.90625 52.015625 
C 39.90625 59.6875 32 65.296875 23 65.296875 
C 13.90625 65.296875 5.90625 59.828125 5.90625 52.015625 
C 5.90625 48.59375 8.5 48 9.796875 48 
C 11.90625 48 13.703125 49.296875 13.703125 51.890625 
C 13.703125 54.46875 11.90625 55.765625 9.796875 55.765625 
C 9.40625 55.765625 8.90625 55.765625 8.5 55.578125 
C 11.40625 61.859375 19.296875 63 22.796875 63 
C 26.296875 63 32.90625 61.328125 32.90625 51.875 
C 32.90625 49.109375 32.5 44.1875 29.09375 39.84375 
C 26.09375 36 22.703125 36 19.40625 35.6875 
C 18.90625 35.6875 16.59375 35.453125 16.203125 35.453125 
C 15.5 35.359375 15.09375 35.265625 15.09375 34.5 
C 15.09375 33.796875 15.203125 33.703125 17.203125 33.703125 
z
" id="CMR17-51"/>
      </defs>
      <g transform="translate(246.268461 251.21795)scale(0.18 -0.18)">
       <use transform="scale(0.996264)" xlink:href="#CMR17-51"/>
       <use transform="translate(45.690477 0)scale(0.996264)" xlink:href="#CMR17-48"/>
      </g>
     </g>
    </g>
    <g id="xtick_4">
     <g id="line2d_4">
      <g>
       <use style="stroke:#000000;stroke-width:0.8;" x="317.589654" xlink:href="#mb6a02b50c8" y="230.88"/>
      </g>
     </g>
     <g id="text_4">
      <!-- $40$ -->
      <defs>
       <path d="M 33.59375 64.40625 
C 33.59375 66.5 33.5 66.5 31.703125 66.5 
L 2 19.59375 
L 2 17 
L 27.796875 17 
L 27.796875 7.140625 
C 27.796875 3.5 27.59375 2.5 20.59375 2.5 
L 18.703125 2.5 
L 18.703125 0 
C 21.90625 0 27.296875 0 30.703125 0 
C 34.09375 0 39.5 0 42.703125 0 
L 42.703125 2.5 
L 40.796875 2.5 
C 33.796875 2.5 33.59375 3.5 33.59375 7.140625 
L 33.59375 17 
L 43.796875 17 
L 43.796875 19.59375 
L 33.59375 19.59375 
z
M 28.09375 57.859375 
L 28.09375 19.59375 
L 4 19.59375 
z
" id="CMR17-52"/>
      </defs>
      <g transform="translate(309.334529 251.21795)scale(0.18 -0.18)">
       <use transform="scale(0.996264)" xlink:href="#CMR17-52"/>
       <use transform="translate(45.690477 0)scale(0.996264)" xlink:href="#CMR17-48"/>
      </g>
     </g>
    </g>
    <g id="xtick_5">
     <g id="line2d_5">
      <g>
       <use style="stroke:#000000;stroke-width:0.8;" x="380.655723" xlink:href="#mb6a02b50c8" y="230.88"/>
      </g>
     </g>
     <g id="text_5">
      <!-- $50$ -->
      <defs>
       <path d="M 11.40625 57.6875 
C 12.40625 57.28125 16.5 56 20.703125 56 
C 30 56 35.09375 61.109375 38 64.0625 
C 38 64.953125 38 65.5 37.40625 65.5 
C 37.296875 65.5 37.09375 65.5 36.296875 65.046875 
C 32.796875 63.40625 28.703125 62.078125 23.703125 62.078125 
C 20.703125 62.078125 16.203125 62.484375 11.296875 64.671875 
C 10.203125 65.171875 10 65.171875 9.90625 65.171875 
C 9.40625 65.171875 9.296875 65.0625 9.296875 63.078125 
L 9.296875 34.421875 
C 9.296875 32.640625 9.296875 32.140625 10.296875 32.140625 
C 10.796875 32.140625 11 32.34375 11.5 33.03125 
C 14.703125 37.515625 19.09375 39.40625 24.09375 39.40625 
C 27.59375 39.40625 35.09375 37.21875 35.09375 20.140625 
C 35.09375 16.953125 35.09375 11.171875 32.09375 6.578125 
C 29.59375 2.484375 25.703125 0.390625 21.40625 0.390625 
C 14.796875 0.390625 8.09375 5 6.296875 12.71875 
C 6.703125 12.609375 7.5 12.421875 7.90625 12.421875 
C 9.203125 12.421875 11.703125 13.125 11.703125 16.21875 
C 11.703125 18.90625 9.796875 20 7.90625 20 
C 5.59375 20 4.09375 18.59375 4.09375 15.796875 
C 4.09375 7.09375 11 -2 21.59375 -2 
C 31.90625 -2 41.703125 6.875 41.703125 19.75 
C 41.703125 31.71875 33.90625 41 24.203125 41 
C 19.09375 41 14.796875 39.109375 11.40625 35.53125 
z
" id="CMR17-53"/>
      </defs>
      <g transform="translate(372.400598 251.21795)scale(0.18 -0.18)">
       <use transform="scale(0.996264)" xlink:href="#CMR17-53"/>
       <use transform="translate(45.690477 0)scale(0.996264)" xlink:href="#CMR17-48"/>
      </g>
     </g>
    </g>
    <g id="text_6">
     <!-- Time (s) -->
     <defs>
      <path d="M 63.296875 72 
L 3.40625 72 
L 1.90625 44.265625 
L 6.203125 44.265625 
C 6.90625 49.25 7.796875 53.046875 8.90625 56.234375 
C 11.5 63.515625 16.296875 67.3125 23.09375 67.3125 
C 26.40625 67.3125 27.796875 66.203125 27.796875 63.71875 
L 27.796875 12.28125 
L 27.796875 9.375 
C 27.796875 5.1875 26.90625 4.6875 18.796875 4.6875 
L 16.203125 4.6875 
L 16.203125 0 
L 50.5 0 
L 50.5 4.6875 
L 47.90625 4.6875 
C 39.90625 4.6875 39 5.1875 39 9.375 
L 39 12.28125 
L 39 63.71875 
C 39 66.203125 40.40625 67.3125 43.703125 67.3125 
C 49.796875 67.3125 54.703125 63.90625 57.203125 57.921875 
C 58.703125 54.25 59.703125 49.953125 60.5 44.265625 
L 64.796875 44.265625 
z
" id="Century_Schoolbook_L_Roman-84"/>
      <path d="M 20.59375 46 
L 1.796875 46 
L 1.796875 41.21875 
L 6.90625 41.21875 
C 10.59375 41.21875 11.203125 40.515625 11.203125 36.203125 
L 11.203125 12.296875 
L 11.203125 8.296875 
C 11.203125 4.296875 10.09375 3.59375 3.703125 3.59375 
L 3 3.59375 
L 3 0 
L 28.90625 0 
L 28.90625 3.59375 
L 28.203125 3.59375 
C 21.703125 3.59375 20.59375 4.28125 20.59375 8.21875 
L 20.59375 12.171875 
z
M 15.90625 71.578125 
C 12.703125 71.578125 10.09375 68.984375 10.09375 65.796875 
C 10.09375 62.703125 12.703125 60 15.796875 60 
C 19.09375 60 21.703125 62.59375 21.703125 65.796875 
C 21.703125 68.984375 19.09375 71.578125 15.90625 71.578125 
z
" id="Century_Schoolbook_L_Roman-105"/>
      <path d="M 20.09375 46 
L 2.296875 46 
L 2.296875 41.21875 
L 6.40625 41.21875 
C 10.09375 41.21875 10.703125 40.515625 10.703125 36.203125 
L 10.703125 12.296875 
L 10.703125 8.40625 
C 10.703125 4.296875 9.59375 3.59375 3.203125 3.59375 
L 2.796875 3.59375 
L 2.796875 0 
L 28 0 
L 28 3.59375 
L 27.59375 3.59375 
C 21.203125 3.59375 20.09375 4.296875 20.09375 8.390625 
L 20.09375 12.28125 
L 20.09375 26.453125 
C 20.09375 35.328125 25 41.921875 31.5 41.921875 
C 34.09375 41.921875 36.90625 40.515625 38.09375 38.625 
C 39.5 36.734375 40.09375 33.828125 40.09375 29.734375 
L 40.09375 12.28125 
L 40.09375 8.28125 
C 40.09375 4.296875 39 3.59375 32.5 3.59375 
L 32.09375 3.59375 
L 32.09375 0 
L 57.40625 0 
L 57.40625 3.59375 
L 57 3.59375 
C 50.59375 3.59375 49.5 4.296875 49.5 8.28125 
L 49.5 12.28125 
L 49.5 25.546875 
C 49.5 35.53125 54 41.921875 61 41.921875 
C 64.296875 41.921875 67 40.015625 68.296875 36.921875 
C 69.203125 34.734375 69.5 32.53125 69.5 28.640625 
L 69.5 12.28125 
L 69.5 8.28125 
C 69.5 4.296875 68.40625 3.59375 61.90625 3.59375 
L 61.5 3.59375 
L 61.5 0 
L 86.796875 0 
L 86.796875 3.59375 
L 86.40625 3.59375 
C 80 3.59375 78.90625 4.296875 78.90625 8.390625 
L 78.90625 12.28125 
L 78.90625 30.640625 
C 78.90625 36.828125 78.296875 38.921875 75.703125 42.3125 
C 72.796875 46.015625 68.703125 48 63.90625 48 
C 57.40625 48 52.59375 44.9375 48.296875 38.109375 
C 46.59375 44.046875 41.203125 48 34.5 48 
C 28.5 48 24 45.140625 20.09375 38.921875 
z
" id="Century_Schoolbook_L_Roman-109"/>
      <path d="M 46.5 23 
C 46.59375 37.8125 38.09375 48.28125 25.90625 48.28125 
C 13.09375 48.28125 3.5 37.25 3.5 22.34375 
C 3.5 8.4375 12.59375 -1 26.09375 -1 
C 35.59375 -1 42.40625 3.6875 46.5 13.1875 
L 43 15.09375 
C 38.90625 7.390625 34.703125 4.390625 28 4.390625 
C 22.90625 4.390625 19.203125 6.59375 16.59375 11 
C 14.796875 14 14 17.5 14.09375 23 
z
M 14.203125 27.296875 
C 14.203125 30.34375 14.59375 32.5 15.59375 35.25 
C 17.703125 41.140625 20.90625 44 25.703125 44 
C 31.796875 44 35.796875 38.78125 35.796875 30.921875 
C 35.796875 28.078125 34.90625 27.296875 31.703125 27.296875 
z
" id="Century_Schoolbook_L_Roman-101"/>
      <path d="M 27.90625 73.453125 
C 21.90625 69.765625 18.703125 67.171875 15.296875 63.171875 
C 7.703125 54.1875 3.59375 42.71875 3.59375 30.640625 
C 3.59375 19.265625 7.203125 8.578125 13.90625 -0.296875 
C 17.703125 -5.09375 21.09375 -8.078125 27.90625 -12.28125 
L 27.90625 -8.578125 
C 17.90625 0.203125 13.90625 11.484375 13.90625 30.640625 
C 13.90625 49.796875 17.90625 60.984375 27.90625 69.765625 
z
" id="Century_Schoolbook_L_Roman-40"/>
      <path d="M 39 48 
L 35.5 48 
L 32.59375 44.40625 
C 29 47.203125 25.40625 48.390625 20.40625 48.390625 
C 11.59375 48.390625 5.796875 42.625 5.796875 33.953125 
C 5.796875 30.078125 7.09375 26.78125 9.296875 24.8125 
C 11.59375 22.703125 13.90625 21.71875 19.90625 20.3125 
L 25.203125 19.125 
C 33.09375 17.234375 35.90625 15.234375 35.90625 11.265625 
C 35.90625 6.578125 31.796875 3.296875 25.90625 3.296875 
C 17.5 3.296875 11.5 8.765625 9.09375 18.875 
L 5.09375 18.875 
L 5.09375 0 
L 8.59375 0 
L 12.09375 3.90625 
C 16.203125 0.59375 20.796875 -1 25.796875 -1 
C 35.59375 -1 42.09375 5.078125 42.09375 14.34375 
C 42.09375 18.71875 40.703125 22.09375 37.90625 24.390625 
C 35.5 26.484375 33.5 27.28125 27.40625 28.5625 
L 22.40625 29.671875 
C 16.90625 30.859375 16.90625 30.859375 15.09375 31.859375 
C 12.90625 32.859375 11.59375 34.9375 11.59375 37.140625 
C 11.59375 41.109375 15.40625 44 20.90625 44 
C 24.703125 44 27.796875 42.703125 30.59375 40.015625 
C 32.796875 37.8125 33.90625 35.828125 35.5 31.234375 
L 39 31.234375 
z
" id="Century_Schoolbook_L_Roman-115"/>
      <path d="M 5.40625 -12.28125 
C 11.40625 -8.578125 14.59375 -5.984375 18 -1.890625 
C 25.59375 6.984375 29.703125 18.5625 29.703125 30.640625 
C 29.703125 42.015625 26.09375 52.703125 19.40625 61.484375 
C 15.59375 66.375 12.203125 69.359375 5.40625 73.453125 
L 5.40625 69.765625 
C 15.40625 60.984375 19.40625 49.796875 19.40625 30.640625 
C 19.40625 11.375 15.40625 0.203125 5.40625 -8.578125 
z
" id="Century_Schoolbook_L_Roman-41"/>
     </defs>
     <g transform="translate(207.401225 273.24577)scale(0.18 -0.18)">
      <use transform="translate(0 -0.29235)scale(0.996264)" xlink:href="#Century_Schoolbook_L_Roman-84"/>
      <use transform="translate(66.450031 -0.29235)scale(0.996264)" xlink:href="#Century_Schoolbook_L_Roman-105"/>
      <use transform="translate(97.831344 -0.29235)scale(0.996264)" xlink:href="#Century_Schoolbook_L_Roman-109"/>
      <use transform="translate(186.398251 -0.29235)scale(0.996264)" xlink:href="#Century_Schoolbook_L_Roman-101"/>
      <use transform="translate(263.906621 -0.29235)scale(0.996264)" xlink:href="#Century_Schoolbook_L_Roman-40"/>
      <use transform="translate(297.081851 -0.29235)scale(0.996264)" xlink:href="#Century_Schoolbook_L_Roman-115"/>
      <use transform="translate(343.207661 -0.29235)scale(0.996264)" xlink:href="#Century_Schoolbook_L_Roman-41"/>
     </g>
    </g>
   </g>
   <g id="matplotlib.axis_2">
    <g id="ytick_1">
     <g id="line2d_6">
      <defs>
       <path d="M 0 0 
L -3.5 0 
" id="m7a0a3111a7" style="stroke:#000000;stroke-width:0.8;"/>
      </defs>
      <g>
       <use style="stroke:#000000;stroke-width:0.8;" x="65.32538" xlink:href="#m7a0a3111a7" y="230.88"/>
      </g>
     </g>
     <g id="text_7">
      <!-- $0$ -->
      <g transform="translate(50.07025 237.548975)scale(0.18 -0.18)">
       <use transform="scale(0.996264)" xlink:href="#CMR17-48"/>
      </g>
     </g>
    </g>
    <g id="ytick_2">
     <g id="line2d_7">
      <g>
       <use style="stroke:#000000;stroke-width:0.8;" x="65.32538" xlink:href="#m7a0a3111a7" y="184.92418"/>
      </g>
     </g>
     <g id="text_8">
      <!-- $50$ -->
      <g transform="translate(41.81513 191.593155)scale(0.18 -0.18)">
       <use transform="scale(0.996264)" xlink:href="#CMR17-53"/>
       <use transform="translate(45.690477 0)scale(0.996264)" xlink:href="#CMR17-48"/>
      </g>
     </g>
    </g>
    <g id="ytick_3">
     <g id="line2d_8">
      <g>
       <use style="stroke:#000000;stroke-width:0.8;" x="65.32538" xlink:href="#m7a0a3111a7" y="138.96836"/>
      </g>
     </g>
     <g id="text_9">
      <!-- $100$ -->
      <g transform="translate(33.56 145.637335)scale(0.18 -0.18)">
       <use transform="scale(0.996264)" xlink:href="#CMR17-49"/>
       <use transform="translate(45.690477 0)scale(0.996264)" xlink:href="#CMR17-48"/>
       <use transform="translate(91.380954 0)scale(0.996264)" xlink:href="#CMR17-48"/>
      </g>
     </g>
    </g>
    <g id="ytick_4">
     <g id="line2d_9">
      <g>
       <use style="stroke:#000000;stroke-width:0.8;" x="65.32538" xlink:href="#m7a0a3111a7" y="93.01254"/>
      </g>
     </g>
     <g id="text_10">
      <!-- $150$ -->
      <g transform="translate(33.56 99.681515)scale(0.18 -0.18)">
       <use transform="scale(0.996264)" xlink:href="#CMR17-49"/>
       <use transform="translate(45.690477 0)scale(0.996264)" xlink:href="#CMR17-53"/>
       <use transform="translate(91.380954 0)scale(0.996264)" xlink:href="#CMR17-48"/>
      </g>
     </g>
    </g>
    <g id="ytick_5">
     <g id="line2d_10">
      <g>
       <use style="stroke:#000000;stroke-width:0.8;" x="65.32538" xlink:href="#m7a0a3111a7" y="47.05672"/>
      </g>
     </g>
     <g id="text_11">
      <!-- $200$ -->
      <g transform="translate(33.56 53.725695)scale(0.18 -0.18)">
       <use transform="scale(0.996264)" xlink:href="#CMR17-50"/>
       <use transform="translate(45.690477 0)scale(0.996264)" xlink:href="#CMR17-48"/>
       <use transform="translate(91.380954 0)scale(0.996264)" xlink:href="#CMR17-48"/>
      </g>
     </g>
    </g>
    <g id="text_12">
     <!-- X Load -->
     <defs>
      <path d="M 38.90625 39.890625 
L 52.203125 57.9375 
C 57.796875 65.40625 60.59375 67.3125 65.90625 67.3125 
L 67.5 67.3125 
L 67.5 72 
L 40 72 
L 40 67.3125 
L 41.40625 67.3125 
C 46.203125 67.3125 48.296875 66.109375 48.296875 63.40625 
C 48.296875 62.3125 48 61.609375 46.90625 60.03125 
L 36.09375 44.375 
L 22.796875 63.515625 
C 22.09375 64.515625 21.703125 65.515625 21.703125 66.015625 
C 21.703125 67 22.703125 67.3125 26.5 67.3125 
L 30.296875 67.3125 
L 30.296875 72 
L -0.59375 72 
L -0.59375 67.3125 
L 1.09375 67.3125 
C 6 67.3125 7.203125 66.8125 9.5 63.515625 
L 29.203125 35.109375 
L 13 12.671875 
C 9.09375 7.09375 5 4.6875 -0.09375 4.6875 
L -0.5 4.6875 
L -0.5 0 
L 27.90625 0 
L 27.90625 4.6875 
L 25.40625 4.6875 
C 21.40625 4.6875 18.90625 6.484375 18.90625 9.484375 
C 18.90625 10.78125 19.5 12.359375 20.5 13.859375 
L 32.09375 30.609375 
L 47 9.40625 
C 47.796875 8.203125 48.296875 7.09375 48.296875 6.296875 
C 48.296875 4.6875 47.90625 4.6875 41.59375 4.6875 
L 38.796875 4.6875 
L 38.796875 0 
L 71.59375 0 
L 71.59375 4.6875 
L 70.40625 4.6875 
C 64 4.6875 63.296875 4.984375 59.90625 9.875 
z
" id="Century_Schoolbook_L_Roman-88"/>
      <path d="M 64.59375 27.328125 
L 60.203125 27.328125 
C 59.203125 20.546875 56.796875 13.765625 54.203125 10.484375 
C 51.09375 6.59375 45.296875 4.6875 36.90625 4.6875 
L 32.703125 4.6875 
C 29.703125 4.6875 27.203125 5.296875 26.296875 6.1875 
C 25.59375 6.78125 25.5 7.390625 25.5 9.484375 
L 25.5 59.734375 
L 25.5 62.609375 
C 25.5 66.8125 26.40625 67.3125 34.5 67.3125 
L 36.296875 67.3125 
L 36.296875 72 
L 3.5 72 
L 3.5 67.3125 
L 5.296875 67.3125 
C 13.40625 67.3125 14.296875 66.8125 14.296875 62.609375 
L 14.296875 59.734375 
L 14.296875 12.28125 
L 14.296875 9.375 
C 14.296875 5.1875 13.40625 4.6875 5.296875 4.6875 
L 3.5 4.6875 
L 3.5 0 
L 62.5 0 
z
" id="Century_Schoolbook_L_Roman-76"/>
      <path d="M 25.203125 48.28125 
C 13 48.28125 3.40625 37.453125 3.40625 23.546875 
C 3.40625 9.9375 13 -1 25 -1 
C 37 -1 46.59375 9.9375 46.59375 23.640625 
C 46.59375 37.25 37 48.28125 25.203125 48.28125 
z
M 25.203125 44 
C 32.203125 44 36.09375 36.75 36.09375 23.640625 
C 36.09375 10.453125 32.203125 3.296875 25 3.296875 
C 17.796875 3.296875 13.90625 10.453125 13.90625 23.546875 
C 13.90625 37.046875 17.703125 44 25.203125 44 
z
" id="Century_Schoolbook_L_Roman-111"/>
      <path d="M 45.203125 32.578125 
C 45.203125 38.796875 44.09375 41.96875 41.203125 44.34375 
C 37.90625 46.90625 33 48.28125 26.59375 48.28125 
C 15.40625 48.28125 7.09375 43.046875 7.09375 35.921875 
C 7.09375 32.15625 9.40625 29.78125 12.90625 29.78125 
C 16 29.78125 18.296875 31.859375 18.296875 34.8125 
C 18.296875 36.109375 17.796875 37.484375 16.796875 38.875 
C 16.203125 39.546875 16.09375 39.84375 16.09375 40.15625 
C 16.09375 42.21875 20.203125 44 25 44 
C 28.09375 44 31.59375 43.015625 33.203125 41.53125 
C 35.09375 39.953125 35.796875 37.578125 35.796875 33.125 
L 35.796875 29.28125 
C 25.296875 27.484375 22.09375 26.6875 17.203125 24.8125 
C 8.59375 21.609375 4.40625 16.9375 4.40625 10.65625 
C 4.40625 3.578125 10.09375 -1 18.90625 -1 
C 25.796875 -1 32 1.859375 36.296875 7.0625 
C 37.90625 1.984375 40.40625 0 45.09375 0 
C 49.59375 0 54.296875 2.890625 54.296875 5.78125 
C 54.296875 6.46875 53.796875 6.96875 53.296875 6.96875 
C 52.90625 6.96875 52.5 6.875 51.796875 6.578125 
C 50.203125 6 49.796875 5.890625 49 5.890625 
C 46.203125 5.890625 45.203125 7.78125 45.203125 12.71875 
z
M 35.796875 20.46875 
C 35.796875 14.46875 35.5 13.078125 33.796875 10.484375 
C 31.296875 6.78125 26.703125 4.296875 22.40625 4.296875 
C 17.90625 4.296875 14.5 7.59375 14.5 12.078125 
C 14.5 16.265625 16.59375 19.265625 21 21.359375 
C 24.09375 22.75 28 23.75 35.796875 25.046875 
z
" id="Century_Schoolbook_L_Roman-97"/>
      <path d="M 38 0 
L 55.40625 0 
L 55.40625 4.703125 
L 53.59375 4.703125 
C 48.203125 4.703125 47.40625 5.703125 47.40625 11.96875 
L 47.40625 73.78125 
L 27.796875 73.78125 
L 27.796875 69 
L 33.703125 69 
C 37.296875 69 38 68.28125 38 63.921875 
L 38 41 
C 34.296875 46.09375 30 48.390625 24.203125 48.390625 
C 12.90625 48.390625 4.296875 37.546875 4.296875 23.203125 
C 4.296875 9.0625 12.59375 -1 24.203125 -1 
C 30.5 -1 34.796875 1.671875 38 7.59375 
z
M 26.203125 43 
C 30.296875 43 34.203125 40.03125 36 35.4375 
C 37.203125 32.453125 37.90625 28.28125 37.90625 23.515625 
C 37.90625 11.96875 33.296875 4.390625 26.09375 4.390625 
C 19.09375 4.390625 14.796875 10.96875 14.796875 22.015625 
C 14.796875 27.890625 15.40625 32.359375 16.703125 35.734375 
C 18.40625 40.125 22.09375 43 26.203125 43 
z
" id="Century_Schoolbook_L_Roman-100"/>
     </defs>
     <g transform="translate(24.87013 152.2107)rotate(-90)scale(0.18 -0.18)">
      <use transform="translate(0 0.343476)scale(0.996264)" xlink:href="#Century_Schoolbook_L_Roman-88"/>
      <use transform="translate(97.831344 0.343476)scale(0.996264)" xlink:href="#Century_Schoolbook_L_Roman-76"/>
      <use transform="translate(164.281375 0.343476)scale(0.996264)" xlink:href="#Century_Schoolbook_L_Roman-111"/>
      <use transform="translate(214.094576 0.343476)scale(0.996264)" xlink:href="#Century_Schoolbook_L_Roman-97"/>
      <use transform="translate(269.486253 0.343476)scale(0.996264)" xlink:href="#Century_Schoolbook_L_Roman-100"/>
     </g>
    </g>
   </g>
   <g id="line2d_11">
    <path clip-path="url(#p7134a981aa)" d="M 65.32538 230.88 
L 89.410312 230.88 
L 89.52383 186.762413 
L 89.977906 186.762413 
L 90.091425 226.284418 
L 90.608567 226.284418 
L 90.722086 229.041767 
L 91.239228 229.041767 
L 91.352746 229.960884 
L 91.806822 229.960884 
L 91.920341 229.041767 
L 92.437483 229.041767 
L 92.551002 214.335905 
L 93.005077 214.335905 
L 93.118596 194.115344 
L 93.635738 194.115344 
L 93.749257 227.203534 
L 94.833993 227.203534 
L 94.947512 229.041767 
L 96.032249 229.041767 
L 96.145768 229.960884 
L 96.662909 229.960884 
L 96.776428 230.88 
L 100.888336 230.88 
L 101.001855 229.960884 
L 103.915507 229.960884 
L 104.029026 229.041767 
L 105.870555 229.041767 
L 105.984074 229.960884 
L 106.375084 229.960884 
L 106.488603 230.88 
L 109.96985 230.88 
L 110.083369 229.960884 
L 110.600511 229.960884 
L 110.71403 229.041767 
L 113.123153 229.041767 
L 113.236672 228.122651 
L 113.690748 228.122651 
L 113.804267 229.041767 
L 115.456598 229.041767 
L 115.570117 230.88 
L 116.087259 230.88 
L 116.200777 229.041767 
L 116.717919 229.041767 
L 116.831438 229.960884 
L 117.222448 229.960884 
L 117.335967 227.203534 
L 118.483769 227.203534 
L 118.597288 228.122651 
L 119.11443 228.122651 
L 119.227949 227.203534 
L 119.745091 227.203534 
L 119.858609 229.960884 
L 120.249619 229.960884 
L 120.363138 229.041767 
L 120.88028 229.041767 
L 120.993799 133.453662 
L 121.51094 133.453662 
L 121.624459 134.372778 
L 122.078535 134.372778 
L 122.192054 146.321291 
L 122.64613 146.321291 
L 122.759649 209.740323 
L 123.970517 209.740323 
L 124.084036 210.659439 
L 126.934622 210.659439 
L 127.048141 213.416788 
L 127.565283 213.416788 
L 127.678802 227.203534 
L 128.132878 227.203534 
L 128.246397 229.960884 
L 131.349247 229.960884 
L 131.462766 230.88 
L 136.646797 230.88 
L 136.760316 229.960884 
L 138.475713 229.960884 
L 138.589232 230.88 
L 142.701139 230.88 
L 142.814658 229.960884 
L 145.160716 229.960884 
L 145.274235 229.041767 
L 146.295905 229.041767 
L 146.409424 229.960884 
L 147.494161 229.960884 
L 147.60768 230.88 
L 148.124821 230.88 
L 148.23834 229.960884 
L 148.692416 229.960884 
L 148.805935 230.88 
L 149.386143 230.88 
L 149.499662 229.041767 
L 149.953737 229.041767 
L 150.067256 229.960884 
L 150.521332 229.960884 
L 150.634851 227.203534 
L 151.782653 227.203534 
L 151.896172 229.960884 
L 152.980909 229.960884 
L 153.094428 225.365302 
L 153.548503 225.365302 
L 153.662022 43.380255 
L 154.746759 43.380255 
L 154.866584 217.093254 
L 155.440485 217.093254 
L 155.554004 209.740323 
L 156.071146 209.740323 
L 156.184665 210.659439 
L 159.792044 210.659439 
L 159.905563 227.203534 
L 160.233507 227.203534 
L 160.347025 224.446185 
L 160.864167 224.446185 
L 160.977686 227.203534 
L 161.431762 227.203534 
L 161.545281 229.960884 
L 163.260678 229.960884 
L 163.374197 230.88 
L 163.891338 230.88 
L 164.004857 229.960884 
L 166.855444 229.960884 
L 166.968963 230.88 
L 168.116765 230.88 
L 168.230284 229.960884 
L 168.68436 229.960884 
L 168.797879 230.88 
L 169.945681 230.88 
L 170.0592 229.960884 
L 170.576342 229.960884 
L 170.689861 230.88 
L 171.207002 230.88 
L 171.320521 229.960884 
L 174.234174 229.960884 
L 174.347693 230.88 
L 177.198279 230.88 
L 177.311798 229.960884 
L 177.765874 229.960884 
L 177.879392 229.041767 
L 178.4596 229.041767 
L 178.573119 230.88 
L 181.486772 230.88 
L 181.600291 229.960884 
L 182.054366 229.960884 
L 182.167885 230.88 
L 182.685027 230.88 
L 182.798546 229.960884 
L 183.252622 229.960884 
L 183.36614 228.122651 
L 183.883282 228.122651 
L 183.996801 229.041767 
L 184.513943 229.041767 
L 184.627462 229.960884 
L 185.712198 229.960884 
L 185.825717 157.350688 
L 186.279793 157.350688 
L 186.393312 103.122821 
L 186.97352 103.122821 
L 187.087038 130.696313 
L 187.478048 130.696313 
L 187.591567 210.659439 
L 191.766541 210.659439 
L 191.88006 213.416788 
L 192.334135 213.416788 
L 192.447654 224.446185 
L 192.90173 224.446185 
L 193.015249 226.284418 
L 193.532391 226.284418 
L 193.64591 229.041767 
L 194.793712 229.041767 
L 194.907231 229.960884 
L 197.190223 229.960884 
L 197.303742 229.041767 
L 197.820883 229.041767 
L 197.934402 228.122651 
L 198.388478 228.122651 
L 198.501997 229.041767 
L 199.586733 229.041767 
L 199.700252 228.122651 
L 200.217394 228.122651 
L 200.330913 229.041767 
L 200.784989 229.041767 
L 200.898507 229.960884 
L 201.415649 229.960884 
L 201.529168 229.041767 
L 202.04631 229.041767 
L 202.159829 228.122651 
L 202.613905 228.122651 
L 202.727423 229.041767 
L 203.307631 229.041767 
L 203.42115 228.122651 
L 204.064424 228.122651 
L 204.177943 226.284418 
L 204.442821 226.284418 
L 204.556339 227.203534 
L 205.073481 227.203534 
L 205.187 228.122651 
L 208.037586 228.122651 
L 208.151105 229.960884 
L 208.668247 229.960884 
L 208.781766 229.041767 
L 209.235842 229.041767 
L 209.349361 229.960884 
L 209.929569 229.960884 
L 210.043087 230.88 
L 210.686361 230.88 
L 210.79988 229.960884 
L 212.263013 229.960884 
L 212.376532 228.122651 
L 212.95674 228.122651 
L 213.070259 229.960884 
L 214.785656 229.960884 
L 214.899175 230.88 
L 215.983911 230.88 
L 216.09743 229.960884 
L 216.551506 229.960884 
L 216.665025 230.88 
L 217.749761 230.88 
L 217.86328 229.960884 
L 218.380422 229.960884 
L 218.493941 54.409652 
L 219.011082 54.409652 
L 219.124601 195.03446 
L 219.578677 195.03446 
L 219.692196 203.306508 
L 220.209338 203.306508 
L 220.322857 209.740323 
L 220.776932 209.740323 
L 220.890451 210.659439 
L 224.434764 210.659439 
L 224.548283 222.607952 
L 225.002359 222.607952 
L 225.115878 223.527069 
L 225.696086 223.527069 
L 225.809605 226.284418 
L 226.200614 226.284418 
L 226.314133 229.041767 
L 227.461936 229.041767 
L 227.575454 229.960884 
L 229.290852 229.960884 
L 229.40437 229.041767 
L 229.858446 229.041767 
L 229.971965 227.203534 
L 232.318023 227.203534 
L 232.431542 228.122651 
L 236.101987 228.122651 
L 236.215506 227.203534 
L 237.111044 227.203534 
L 237.224563 226.284418 
L 238.372365 226.284418 
L 238.485884 227.203534 
L 239.570621 227.203534 
L 239.68414 228.122651 
L 241.967131 228.122651 
L 242.08065 229.041767 
L 243.165387 229.041767 
L 243.278906 229.960884 
L 243.796047 229.960884 
L 243.909566 229.041767 
L 246.192558 229.041767 
L 246.306077 229.960884 
L 247.516945 229.960884 
L 247.630464 230.88 
L 248.652135 230.88 
L 248.765653 229.960884 
L 249.219729 229.960884 
L 249.333248 230.88 
L 250.417984 230.88 
L 250.531503 206.063857 
L 251.048645 206.063857 
L 251.162164 34.189091 
L 251.679306 34.189091 
L 251.792825 119.666916 
L 252.2469 119.666916 
L 252.360419 219.850603 
L 252.877561 219.850603 
L 252.99108 209.740323 
L 253.508222 209.740323 
L 253.621741 210.659439 
L 257.166054 210.659439 
L 257.279573 230.88 
L 257.796715 230.88 
L 257.910233 225.365302 
L 258.301243 225.365302 
L 258.414762 227.203534 
L 258.868838 227.203534 
L 258.982357 229.041767 
L 260.130159 229.041767 
L 260.243678 229.960884 
L 261.959075 229.960884 
L 262.072594 228.122651 
L 262.52667 228.122651 
L 262.640189 227.203534 
L 265.049312 227.203534 
L 265.162831 228.122651 
L 266.247568 228.122651 
L 266.361087 227.203534 
L 266.815162 227.203534 
L 266.928681 228.122651 
L 268.644078 228.122651 
L 268.757597 226.284418 
L 270.409928 226.284418 
L 270.523447 227.203534 
L 271.103655 227.203534 
L 271.217174 226.284418 
L 271.67125 226.284418 
L 271.784769 227.203534 
L 272.806439 227.203534 
L 272.919958 228.122651 
L 274.761487 228.122651 
L 274.875006 229.041767 
L 277.094931 229.041767 
L 277.20845 229.960884 
L 277.662526 229.960884 
L 277.776045 228.122651 
L 278.356253 228.122651 
L 278.469772 229.041767 
L 278.986914 229.041767 
L 279.100432 229.960884 
L 279.554508 229.960884 
L 279.668027 229.041767 
L 280.122103 229.041767 
L 280.235622 230.88 
L 280.752763 230.88 
L 280.866282 229.960884 
L 281.320358 229.960884 
L 281.433877 230.88 
L 281.951019 230.88 
L 282.064538 229.960884 
L 283.149274 229.960884 
L 283.262793 157.350688 
L 283.779935 157.350688 
L 283.893454 104.041937 
L 284.410595 104.041937 
L 284.524114 130.696313 
L 284.97819 130.696313 
L 285.091709 210.659439 
L 285.608851 210.659439 
L 285.72237 209.740323 
L 286.302577 209.740323 
L 286.416096 210.659439 
L 289.203617 210.659439 
L 289.317136 183.085947 
L 289.834277 183.085947 
L 289.947796 38.784673 
L 290.401872 38.784673 
L 290.515391 182.166831 
L 291.032533 182.166831 
L 291.146052 183.085947 
L 291.600127 183.085947 
L 291.713646 206.982974 
L 292.230788 206.982974 
L 292.344307 209.740323 
L 292.924515 209.740323 
L 293.038034 210.659439 
L 295.88862 210.659439 
L 296.002139 209.740323 
L 297.086875 209.740323 
L 297.200394 210.659439 
L 300.114046 210.659439 
L 300.227565 89.336075 
L 300.744707 89.336075 
L 300.858226 208.821206 
L 301.312302 208.821206 
L 301.425821 89.336075 
L 301.879896 89.336075 
L 301.993415 221.688836 
L 302.510557 221.688836 
L 302.624076 227.203534 
L 303.141218 227.203534 
L 303.254737 228.122651 
L 304.339473 228.122651 
L 304.452992 229.960884 
L 304.907068 229.960884 
L 305.020587 230.88 
L 306.168389 230.88 
L 306.281908 229.960884 
L 307.366644 229.960884 
L 307.480163 229.041767 
L 312.853392 229.041767 
L 312.966911 228.122651 
L 313.357921 228.122651 
L 313.47144 229.041767 
L 314.051648 229.041767 
L 314.165167 228.122651 
L 317.646414 228.122651 
L 317.759932 229.041767 
L 318.277074 229.041767 
L 318.390593 228.122651 
L 319.47533 228.122651 
L 319.588848 229.041767 
L 321.87184 229.041767 
L 321.985359 228.122651 
L 322.439435 228.122651 
L 322.552954 229.041767 
L 323.133161 229.041767 
L 323.24668 228.122651 
L 324.331417 228.122651 
L 324.444936 227.203534 
L 324.962077 227.203534 
L 325.075596 228.122651 
L 325.529672 228.122651 
L 325.643191 227.203534 
L 331.584015 227.203534 
L 331.697534 228.122651 
L 334.611186 228.122651 
L 334.724705 227.203534 
L 338.269018 227.203534 
L 338.382537 228.122651 
L 339.467273 228.122651 
L 339.580792 227.203534 
L 340.034868 227.203534 
L 340.148387 228.122651 
L 347.287466 228.122651 
L 347.400985 227.203534 
L 348.485721 227.203534 
L 348.59924 226.284418 
L 353.341808 226.284418 
L 353.455327 225.365302 
L 353.972469 225.365302 
L 354.085988 226.284418 
L 360.026812 226.284418 
L 360.140331 227.203534 
L 362.423322 227.203534 
L 362.536841 226.284418 
L 363.053983 226.284418 
L 363.167502 227.203534 
L 365.450493 227.203534 
L 365.564012 228.122651 
L 373.901347 228.122651 
L 374.014866 229.041767 
L 384.244182 229.041767 
L 384.357701 228.122651 
L 387.271353 228.122651 
L 387.384872 229.041767 
L 391.49678 229.041767 
L 391.610299 229.960884 
L 393.89329 229.960884 
L 394.006809 230.88 
L 398.749378 230.88 
L 398.862897 229.960884 
L 399.380038 229.960884 
L 399.493557 230.88 
L 400.64136 230.88 
L 400.754879 229.960884 
L 403.731597 229.960884 
L 403.845116 230.88 
L 406.065042 230.88 
L 406.178561 183.085947 
L 406.632636 183.085947 
L 406.746155 75.549329 
L 407.326363 75.549329 
L 407.439882 122.424265 
L 407.893958 122.424265 
L 408.007477 210.659439 
L 408.461552 210.659439 
L 408.575071 208.821206 
L 409.092213 208.821206 
L 409.205732 209.740323 
L 412.056318 209.740323 
L 412.169837 182.166831 
L 412.750045 182.166831 
L 412.863564 38.784673 
L 413.317639 38.784673 
L 413.431158 176.652133 
L 413.9483 176.652133 
L 414.061819 188.600646 
L 414.515895 188.600646 
L 414.629414 206.982974 
L 415.083489 206.982974 
L 415.197008 209.740323 
L 415.71415 209.740323 
L 415.827669 210.659439 
L 417.48 210.659439 
L 417.48 210.659439 
" style="fill:none;stroke:#e41a1c;stroke-linecap:square;stroke-width:2;"/>
   </g>
   <g id="patch_3">
    <path d="M 65.32538 230.88 
L 65.32538 14.52 
" style="fill:none;stroke:#000000;stroke-linecap:square;stroke-linejoin:miter;stroke-width:0.8;"/>
   </g>
   <g id="patch_4">
    <path d="M 417.48 230.88 
L 417.48 14.52 
" style="fill:none;"/>
   </g>
   <g id="patch_5">
    <path d="M 65.32538 230.88 
L 417.48 230.88 
" style="fill:none;stroke:#000000;stroke-linecap:square;stroke-linejoin:miter;stroke-width:0.8;"/>
   </g>
   <g id="patch_6">
    <path d="M 65.32538 14.52 
L 417.48 14.52 
" style="fill:none;"/>
   </g>
   <g id="legend_1">
    <g id="patch_7">
     <path d="M 309.01651 44.05585 
L 412.68 44.05585 
Q 415.88 44.05585 415.88 40.85585 
L 415.88 19.32 
Q 415.88 16.12 412.68 16.12 
L 309.01651 16.12 
Q 305.81651 16.12 305.81651 19.32 
L 305.81651 40.85585 
Q 305.81651 44.05585 309.01651 44.05585 
z
" style="fill:#ffffff;stroke:#000000;stroke-linejoin:miter;"/>
    </g>
    <g id="line2d_12">
     <path d="M 312.21651 28.77596 
L 344.21651 28.77596 
" style="fill:none;stroke:#e41a1c;stroke-linecap:square;stroke-width:2;"/>
    </g>
    <g id="line2d_13"/>
    <g id="text_13">
     <!-- X Load -->
     <g transform="translate(357.01651 34.37596)scale(0.16 -0.16)">
      <use transform="translate(0 0.343476)scale(0.996264)" xlink:href="#Century_Schoolbook_L_Roman-88"/>
      <use transform="translate(97.831344 0.343476)scale(0.996264)" xlink:href="#Century_Schoolbook_L_Roman-76"/>
      <use transform="translate(164.281375 0.343476)scale(0.996264)" xlink:href="#Century_Schoolbook_L_Roman-111"/>
      <use transform="translate(214.094576 0.343476)scale(0.996264)" xlink:href="#Century_Schoolbook_L_Roman-97"/>
      <use transform="translate(269.486253 0.343476)scale(0.996264)" xlink:href="#Century_Schoolbook_L_Roman-100"/>
     </g>
    </g>
   </g>
  </g>
 </g>
 <defs>
  <clipPath id="p7134a981aa">
   <rect height="216.36" width="352.15462" x="65.32538" y="14.52"/>
  </clipPath>
 </defs>
</svg>
