<?xml version="1.0" encoding="utf-8" standalone="no"?>
<!DOCTYPE svg PUBLIC "-//W3C//DTD SVG 1.1//EN"
  "http://www.w3.org/Graphics/SVG/1.1/DTD/svg11.dtd">
<!-- Created with matplotlib (https://matplotlib.org/) -->
<svg height="288pt" version="1.1" viewBox="0 0 432 288" width="432pt" xmlns="http://www.w3.org/2000/svg" xmlns:xlink="http://www.w3.org/1999/xlink">
 <defs>
  <style type="text/css">
*{stroke-linecap:butt;stroke-linejoin:round;}
  </style>
 </defs>
 <g id="figure_1">
  <g id="patch_1">
   <path d="M 0 288 
L 432 288 
L 432 0 
L 0 0 
z
" style="fill:#ffffff;"/>
  </g>
  <g id="axes_1">
   <g id="patch_2">
    <path d="M 61.96604 230.41218 
L 417.48 230.41218 
L 417.48 14.52 
L 61.96604 14.52 
z
" style="fill:#ffffff;"/>
   </g>
   <g id="matplotlib.axis_1">
    <g id="xtick_1">
     <g id="line2d_1">
      <defs>
       <path d="M 0 0 
L 0 3.5 
" id="m386a2c4359" style="stroke:#000000;stroke-width:0.8;"/>
      </defs>
      <g>
       <use style="stroke:#000000;stroke-width:0.8;" x="133.068832" xlink:href="#m386a2c4359" y="230.41218"/>
      </g>
     </g>
     <g id="text_1">
      <!-- $50$ -->
      <defs>
       <path d="M 11.40625 57.6875 
C 12.40625 57.28125 16.5 56 20.703125 56 
C 30 56 35.09375 61.109375 38 64.0625 
C 38 64.953125 38 65.5 37.40625 65.5 
C 37.296875 65.5 37.09375 65.5 36.296875 65.046875 
C 32.796875 63.40625 28.703125 62.078125 23.703125 62.078125 
C 20.703125 62.078125 16.203125 62.484375 11.296875 64.671875 
C 10.203125 65.171875 10 65.171875 9.90625 65.171875 
C 9.40625 65.171875 9.296875 65.0625 9.296875 63.078125 
L 9.296875 34.421875 
C 9.296875 32.640625 9.296875 32.140625 10.296875 32.140625 
C 10.796875 32.140625 11 32.34375 11.5 33.03125 
C 14.703125 37.515625 19.09375 39.40625 24.09375 39.40625 
C 27.59375 39.40625 35.09375 37.21875 35.09375 20.140625 
C 35.09375 16.953125 35.09375 11.171875 32.09375 6.578125 
C 29.59375 2.484375 25.703125 0.390625 21.40625 0.390625 
C 14.796875 0.390625 8.09375 5 6.296875 12.71875 
C 6.703125 12.609375 7.5 12.421875 7.90625 12.421875 
C 9.203125 12.421875 11.703125 13.125 11.703125 16.21875 
C 11.703125 18.90625 9.796875 20 7.90625 20 
C 5.59375 20 4.09375 18.59375 4.09375 15.796875 
C 4.09375 7.09375 11 -2 21.59375 -2 
C 31.90625 -2 41.703125 6.875 41.703125 19.75 
C 41.703125 31.71875 33.90625 41 24.203125 41 
C 19.09375 41 14.796875 39.109375 11.40625 35.53125 
z
" id="CMR17-53"/>
       <path d="M 42 31.640625 
C 42 37.75 41.90625 48.125 37.703125 56.109375 
C 34 63.109375 28.09375 65.59375 22.90625 65.59375 
C 18.09375 65.59375 12 63.40625 8.203125 56.203125 
C 4.203125 48.71875 3.796875 39.4375 3.796875 31.640625 
C 3.796875 25.953125 3.90625 17.28125 7 9.671875 
C 11.296875 -0.609375 19 -2 22.90625 -2 
C 27.5 -2 34.5 -0.109375 38.59375 9.375 
C 41.59375 16.28125 42 24.359375 42 31.640625 
z
M 22.90625 -0.40625 
C 16.5 -0.40625 12.703125 5.078125 11.296875 12.6875 
C 10.203125 18.5625 10.203125 27.15625 10.203125 32.75 
C 10.203125 40.4375 10.203125 46.828125 11.5 52.921875 
C 13.40625 61.390625 19 64 22.90625 64 
C 27 64 32.296875 61.296875 34.203125 53.125 
C 35.5 47.4375 35.59375 40.734375 35.59375 32.75 
C 35.59375 26.25 35.59375 18.265625 34.40625 12.375 
C 32.296875 1.484375 26.40625 -0.40625 22.90625 -0.40625 
z
" id="CMR17-48"/>
      </defs>
      <g transform="translate(124.813707 250.75013)scale(0.18 -0.18)">
       <use transform="scale(0.996264)" xlink:href="#CMR17-53"/>
       <use transform="translate(45.690477 0)scale(0.996264)" xlink:href="#CMR17-48"/>
      </g>
     </g>
    </g>
    <g id="xtick_2">
     <g id="line2d_2">
      <g>
       <use style="stroke:#000000;stroke-width:0.8;" x="204.171624" xlink:href="#m386a2c4359" y="230.41218"/>
      </g>
     </g>
     <g id="text_2">
      <!-- $100$ -->
      <defs>
       <path d="M 26.59375 63.40625 
C 26.59375 65.5 26.5 65.5 25.09375 65.5 
C 21.203125 61.1875 15.296875 59.796875 9.703125 59.796875 
C 9.40625 59.796875 8.90625 59.796875 8.796875 59.5 
C 8.703125 59.296875 8.703125 59.09375 8.703125 57 
C 11.796875 57 17 57.59375 21 59.984375 
L 21 7.203125 
C 21 3.6875 20.796875 2.5 12.203125 2.5 
L 9.203125 2.5 
L 9.203125 0 
C 14 0 19 0 23.796875 0 
C 28.59375 0 33.59375 0 38.40625 0 
L 38.40625 2.5 
L 35.40625 2.5 
C 26.796875 2.5 26.59375 3.59375 26.59375 7.15625 
z
" id="CMR17-49"/>
      </defs>
      <g transform="translate(191.788934 250.75013)scale(0.18 -0.18)">
       <use transform="scale(0.996264)" xlink:href="#CMR17-49"/>
       <use transform="translate(45.690477 0)scale(0.996264)" xlink:href="#CMR17-48"/>
       <use transform="translate(91.380954 0)scale(0.996264)" xlink:href="#CMR17-48"/>
      </g>
     </g>
    </g>
    <g id="xtick_3">
     <g id="line2d_3">
      <g>
       <use style="stroke:#000000;stroke-width:0.8;" x="275.274416" xlink:href="#m386a2c4359" y="230.41218"/>
      </g>
     </g>
     <g id="text_3">
      <!-- $150$ -->
      <g transform="translate(262.891726 250.75013)scale(0.18 -0.18)">
       <use transform="scale(0.996264)" xlink:href="#CMR17-49"/>
       <use transform="translate(45.690477 0)scale(0.996264)" xlink:href="#CMR17-53"/>
       <use transform="translate(91.380954 0)scale(0.996264)" xlink:href="#CMR17-48"/>
      </g>
     </g>
    </g>
    <g id="xtick_4">
     <g id="line2d_4">
      <g>
       <use style="stroke:#000000;stroke-width:0.8;" x="346.377208" xlink:href="#m386a2c4359" y="230.41218"/>
      </g>
     </g>
     <g id="text_4">
      <!-- $200$ -->
      <defs>
       <path d="M 41.703125 15.453125 
L 39.90625 15.453125 
C 38.90625 8.375 38.09375 7.171875 37.703125 6.5625 
C 37.203125 5.765625 30 5.765625 28.59375 5.765625 
L 9.40625 5.765625 
C 13 9.671875 20 16.75 28.5 24.953125 
C 34.59375 30.734375 41.703125 37.53125 41.703125 47.421875 
C 41.703125 59.21875 32.296875 66 21.796875 66 
C 10.796875 66 4.09375 56.3125 4.09375 47.34375 
C 4.09375 43.4375 7 42.9375 8.203125 42.9375 
C 9.203125 42.9375 12.203125 43.546875 12.203125 47.03125 
C 12.203125 50.109375 9.59375 51 8.203125 51 
C 7.59375 51 7 50.90625 6.59375 50.703125 
C 8.5 59.21875 14.296875 63.40625 20.40625 63.40625 
C 29.09375 63.40625 34.796875 56.515625 34.796875 47.421875 
C 34.796875 38.734375 29.703125 31.25 24 24.75 
L 4.09375 2.28125 
L 4.09375 0 
L 39.296875 0 
z
" id="CMR17-50"/>
      </defs>
      <g transform="translate(333.994518 250.75013)scale(0.18 -0.18)">
       <use transform="scale(0.996264)" xlink:href="#CMR17-50"/>
       <use transform="translate(45.690477 0)scale(0.996264)" xlink:href="#CMR17-48"/>
       <use transform="translate(91.380954 0)scale(0.996264)" xlink:href="#CMR17-48"/>
      </g>
     </g>
    </g>
    <g id="text_5">
     <!-- Sample Number -->
     <defs>
      <path d="M 54.59375 72 
L 50.90625 72 
L 46.90625 66.09375 
C 42.203125 70.59375 35.796875 73 28.703125 73 
C 15.59375 73 6.796875 64.609375 6.796875 52.15625 
C 6.796875 41.28125 12.203125 35.890625 26.90625 32.109375 
L 36.40625 29.703125 
C 43.796875 27.828125 44.5 27.625 46.59375 26.03125 
C 49.59375 23.734375 51.203125 20.4375 51.203125 16.546875 
C 51.203125 12.5625 49.703125 9.28125 46.703125 6.59375 
C 43.40625 3.6875 40.09375 2.59375 34.59375 2.59375 
C 27.203125 2.59375 21.90625 4.875 17.203125 10.03125 
C 13 14.703125 10.90625 19.375 9.40625 27 
L 5.09375 27 
L 5.5 -1.4375 
L 9.40625 -1.4375 
L 13.90625 5.46875 
C 20.59375 0 26.203125 -2 34.90625 -2 
C 49.59375 -2 59 6.59375 59 19.9375 
C 59 26.109375 56.90625 31.40625 53 35.203125 
C 50.296875 37.796875 46.40625 39.484375 38.40625 41.484375 
L 27.703125 44.171875 
C 18.796875 46.46875 14.59375 50.359375 14.59375 56.4375 
C 14.59375 63.40625 20.296875 68.203125 28.796875 68.203125 
C 35.796875 68.203125 41.5 65.1875 45.5 59.484375 
C 48.40625 55.375 50.203125 51.15625 51.5 46.046875 
L 55.796875 46.046875 
z
" id="Century_Schoolbook_L_Roman-83"/>
      <path d="M 45.203125 32.578125 
C 45.203125 38.796875 44.09375 41.96875 41.203125 44.34375 
C 37.90625 46.90625 33 48.28125 26.59375 48.28125 
C 15.40625 48.28125 7.09375 43.046875 7.09375 35.921875 
C 7.09375 32.15625 9.40625 29.78125 12.90625 29.78125 
C 16 29.78125 18.296875 31.859375 18.296875 34.8125 
C 18.296875 36.109375 17.796875 37.484375 16.796875 38.875 
C 16.203125 39.546875 16.09375 39.84375 16.09375 40.15625 
C 16.09375 42.21875 20.203125 44 25 44 
C 28.09375 44 31.59375 43.015625 33.203125 41.53125 
C 35.09375 39.953125 35.796875 37.578125 35.796875 33.125 
L 35.796875 29.28125 
C 25.296875 27.484375 22.09375 26.6875 17.203125 24.8125 
C 8.59375 21.609375 4.40625 16.9375 4.40625 10.65625 
C 4.40625 3.578125 10.09375 -1 18.90625 -1 
C 25.796875 -1 32 1.859375 36.296875 7.0625 
C 37.90625 1.984375 40.40625 0 45.09375 0 
C 49.59375 0 54.296875 2.890625 54.296875 5.78125 
C 54.296875 6.46875 53.796875 6.96875 53.296875 6.96875 
C 52.90625 6.96875 52.5 6.875 51.796875 6.578125 
C 50.203125 6 49.796875 5.890625 49 5.890625 
C 46.203125 5.890625 45.203125 7.78125 45.203125 12.71875 
z
M 35.796875 20.46875 
C 35.796875 14.46875 35.5 13.078125 33.796875 10.484375 
C 31.296875 6.78125 26.703125 4.296875 22.40625 4.296875 
C 17.90625 4.296875 14.5 7.59375 14.5 12.078125 
C 14.5 16.265625 16.59375 19.265625 21 21.359375 
C 24.09375 22.75 28 23.75 35.796875 25.046875 
z
" id="Century_Schoolbook_L_Roman-97"/>
      <path d="M 20.09375 46 
L 2.296875 46 
L 2.296875 41.21875 
L 6.40625 41.21875 
C 10.09375 41.21875 10.703125 40.515625 10.703125 36.203125 
L 10.703125 12.296875 
L 10.703125 8.40625 
C 10.703125 4.296875 9.59375 3.59375 3.203125 3.59375 
L 2.796875 3.59375 
L 2.796875 0 
L 28 0 
L 28 3.59375 
L 27.59375 3.59375 
C 21.203125 3.59375 20.09375 4.296875 20.09375 8.390625 
L 20.09375 12.28125 
L 20.09375 26.453125 
C 20.09375 35.328125 25 41.921875 31.5 41.921875 
C 34.09375 41.921875 36.90625 40.515625 38.09375 38.625 
C 39.5 36.734375 40.09375 33.828125 40.09375 29.734375 
L 40.09375 12.28125 
L 40.09375 8.28125 
C 40.09375 4.296875 39 3.59375 32.5 3.59375 
L 32.09375 3.59375 
L 32.09375 0 
L 57.40625 0 
L 57.40625 3.59375 
L 57 3.59375 
C 50.59375 3.59375 49.5 4.296875 49.5 8.28125 
L 49.5 12.28125 
L 49.5 25.546875 
C 49.5 35.53125 54 41.921875 61 41.921875 
C 64.296875 41.921875 67 40.015625 68.296875 36.921875 
C 69.203125 34.734375 69.5 32.53125 69.5 28.640625 
L 69.5 12.28125 
L 69.5 8.28125 
C 69.5 4.296875 68.40625 3.59375 61.90625 3.59375 
L 61.5 3.59375 
L 61.5 0 
L 86.796875 0 
L 86.796875 3.59375 
L 86.40625 3.59375 
C 80 3.59375 78.90625 4.296875 78.90625 8.390625 
L 78.90625 12.28125 
L 78.90625 30.640625 
C 78.90625 36.828125 78.296875 38.921875 75.703125 42.3125 
C 72.796875 46.015625 68.703125 48 63.90625 48 
C 57.40625 48 52.59375 44.9375 48.296875 38.109375 
C 46.59375 44.046875 41.203125 48 34.5 48 
C 28.5 48 24 45.140625 20.09375 38.921875 
z
" id="Century_Schoolbook_L_Roman-109"/>
      <path d="M 20.09375 46 
L 2.796875 46 
L 2.796875 41.21875 
L 6.40625 41.21875 
C 10.09375 41.21875 10.703125 40.515625 10.703125 36.21875 
L 10.703125 -7.75 
L 10.703125 -11.71875 
C 10.703125 -15.71875 9.59375 -16.40625 3.203125 -16.40625 
L 2.796875 -16.40625 
L 2.796875 -20 
L 28.796875 -20 
L 28.796875 -16.40625 
L 27.703125 -16.40625 
C 21.203125 -16.40625 20.09375 -15.71875 20.09375 -11.734375 
L 20.09375 -7.75 
L 20.09375 6.6875 
C 23.40625 0.90625 27.203125 -1.390625 33.296875 -1.390625 
C 44.90625 -1.390625 53.5 9.265625 53.5 23.5 
C 53.5 37.265625 44.90625 48 33.90625 48 
C 27.703125 48 23.59375 45.4375 20.09375 39.515625 
z
M 32.09375 42.609375 
C 39 42.609375 43 35.75 43 24.09375 
C 43 11.265625 38.90625 4 31.796875 4 
C 24.703125 4 20 11.375 20 22.8125 
C 20 35.140625 24.5 42.609375 32.09375 42.609375 
z
" id="Century_Schoolbook_L_Roman-112"/>
      <path d="M 20.40625 73 
L 1.90625 73 
L 1.90625 68.21875 
L 6.796875 68.21875 
C 10.40625 68.21875 11 67.515625 11 63.21875 
L 11 12.28125 
L 11 8.28125 
C 11 4.296875 9.90625 3.59375 3.5 3.59375 
L 2.796875 3.59375 
L 2.796875 0 
L 28.703125 0 
L 28.703125 3.59375 
L 28 3.59375 
C 21.5 3.59375 20.40625 4.296875 20.40625 8.25 
L 20.40625 12.21875 
z
" id="Century_Schoolbook_L_Roman-108"/>
      <path d="M 46.5 23 
C 46.59375 37.8125 38.09375 48.28125 25.90625 48.28125 
C 13.09375 48.28125 3.5 37.25 3.5 22.34375 
C 3.5 8.4375 12.59375 -1 26.09375 -1 
C 35.59375 -1 42.40625 3.6875 46.5 13.1875 
L 43 15.09375 
C 38.90625 7.390625 34.703125 4.390625 28 4.390625 
C 22.90625 4.390625 19.203125 6.59375 16.59375 11 
C 14.796875 14 14 17.5 14.09375 23 
z
M 14.203125 27.296875 
C 14.203125 30.34375 14.59375 32.5 15.59375 35.25 
C 17.703125 41.140625 20.90625 44 25.703125 44 
C 31.796875 44 35.796875 38.78125 35.796875 30.921875 
C 35.796875 28.078125 34.90625 27.296875 31.703125 27.296875 
z
" id="Century_Schoolbook_L_Roman-101"/>
      <path d="M 22.5 72 
L 1.90625 72 
L 1.90625 67.3125 
L 4.40625 67.3125 
C 9.5 67.3125 11.796875 66.5 13.59375 64.015625 
L 13.59375 21.5 
C 13.59375 7.78125 11.59375 4.890625 2 4.890625 
L 2 0 
L 30.5 0 
L 30.5 4.890625 
C 21 4.890625 19 7.796875 19 21.5 
L 19 58.640625 
L 63.59375 -1.6875 
L 67.796875 -1.6875 
L 67.796875 50.59375 
C 67.796875 64.390625 69.796875 67.3125 79.40625 67.3125 
L 79.40625 72 
L 50.90625 72 
L 50.90625 67.3125 
C 60.40625 67.3125 62.40625 64.40625 62.40625 50.625 
L 62.40625 19.046875 
z
" id="Century_Schoolbook_L_Roman-78"/>
      <path d="M 41.203125 0 
L 59.40625 0 
L 59.40625 4.703125 
L 56.90625 4.703125 
C 51.40625 4.703125 50.59375 5.59375 50.59375 11.953125 
L 50.59375 46.78125 
L 31.796875 46.78125 
L 31.796875 42 
L 36.90625 42 
C 40.59375 42 41.203125 41.296875 41.203125 36.953125 
L 41.203125 24.5625 
C 41.203125 18.8125 40.59375 15.484375 39.09375 12.15625 
C 37 7.71875 33 5.09375 28.09375 5.09375 
C 25 5.09375 22.40625 6.1875 21.09375 8.171875 
C 19.796875 10.046875 19.59375 11.046875 19.59375 16.5 
L 19.59375 46.78125 
L 2.09375 46.78125 
L 2.09375 42 
L 5.90625 42 
C 9.59375 42 10.203125 41.296875 10.203125 36.953125 
L 10.203125 15.21875 
C 10.203125 10.078125 10.59375 7.765625 12.09375 5.453125 
C 14.796875 1.3125 19.59375 -1 25.59375 -1 
C 32.203125 -1 36.796875 1.71875 41.203125 8.125 
z
" id="Century_Schoolbook_L_Roman-117"/>
      <path d="M 18 73 
L 0.796875 73 
L 0.796875 68.21875 
L 4.296875 68.21875 
C 8 68.21875 8.59375 67.515625 8.59375 63.25 
L 8.59375 24.625 
C 8.59375 11.3125 8.09375 4.84375 6.796875 -1 
L 10.59375 -1 
L 15.5 6.75 
C 19.59375 1.453125 24.296875 -1 30.5 -1 
C 42.796875 -1 52 9.59375 52 23.828125 
C 52 38.078125 43.59375 48.078125 31.59375 48.078125 
C 25.5 48.078125 21.796875 46 18 40.328125 
z
M 29.796875 43 
C 37.296875 43 41.5 35.765625 41.5 22.796875 
C 41.5 10.3125 37.40625 3.1875 30.09375 3.1875 
C 22.203125 3.1875 17.5 10.40625 17.5 22.59375 
C 17.5 35.765625 21.796875 43 29.796875 43 
z
" id="Century_Schoolbook_L_Roman-98"/>
      <path d="M 19.796875 46 
L 2.09375 46 
L 2.09375 41.21875 
L 6.203125 41.21875 
C 9.90625 41.21875 10.5 40.515625 10.5 36.203125 
L 10.5 12.296875 
L 10.5 8.296875 
C 10.5 4.296875 9.40625 3.59375 2.90625 3.59375 
L 2.5 3.59375 
L 2.5 0 
L 29.203125 0 
L 29.203125 3.59375 
L 27.296875 3.59375 
C 20.90625 3.59375 19.796875 4.296875 19.796875 8.296875 
L 19.796875 12.296875 
L 19.796875 13.296875 
C 19.796875 20.8125 21.203125 28.40625 23.703125 34.109375 
C 26.09375 39.703125 29.5 42.8125 33.703125 43.3125 
C 32.296875 41.703125 31.90625 40.6875 31.90625 38.765625 
C 31.90625 35.546875 34.203125 33.234375 37.40625 33.234375 
C 41 33.234375 43.5 35.9375 43.5 40.015625 
C 43.5 44.8125 40.09375 48 34.796875 48 
C 28.5 48 23 42.921875 19.796875 34.140625 
z
" id="Century_Schoolbook_L_Roman-114"/>
     </defs>
     <g transform="translate(171.71073 272.77795)scale(0.18 -0.18)">
      <use transform="translate(0 -1.570628)scale(0.996264)" xlink:href="#Century_Schoolbook_L_Roman-83"/>
      <use transform="translate(62.763979 -1.570628)scale(0.996264)" xlink:href="#Century_Schoolbook_L_Roman-97"/>
      <use transform="translate(118.155656 -1.570628)scale(0.996264)" xlink:href="#Century_Schoolbook_L_Roman-109"/>
      <use transform="translate(206.722563 -1.570628)scale(0.996264)" xlink:href="#Century_Schoolbook_L_Roman-112"/>
      <use transform="translate(263.90805 -1.570628)scale(0.996264)" xlink:href="#Century_Schoolbook_L_Roman-108"/>
      <use transform="translate(295.289363 -1.570628)scale(0.996264)" xlink:href="#Century_Schoolbook_L_Roman-101"/>
      <use transform="translate(372.797733 -1.570628)scale(0.996264)" xlink:href="#Century_Schoolbook_L_Roman-78"/>
      <use transform="translate(453.992246 -1.570628)scale(0.996264)" xlink:href="#Century_Schoolbook_L_Roman-117"/>
      <use transform="translate(514.863877 -1.570628)scale(0.996264)" xlink:href="#Century_Schoolbook_L_Roman-109"/>
      <use transform="translate(603.430784 -1.570628)scale(0.996264)" xlink:href="#Century_Schoolbook_L_Roman-98"/>
      <use transform="translate(658.822461 -1.570628)scale(0.996264)" xlink:href="#Century_Schoolbook_L_Roman-101"/>
      <use transform="translate(708.635661 -1.570628)scale(0.996264)" xlink:href="#Century_Schoolbook_L_Roman-114"/>
     </g>
    </g>
   </g>
   <g id="matplotlib.axis_2">
    <g id="ytick_1">
     <g id="line2d_5">
      <defs>
       <path d="M 0 0 
L -3.5 0 
" id="m66fe306355" style="stroke:#000000;stroke-width:0.8;"/>
      </defs>
      <g>
       <use style="stroke:#000000;stroke-width:0.8;" x="61.96604" xlink:href="#m66fe306355" y="230.41218"/>
      </g>
     </g>
     <g id="text_6">
      <!-- $2.3$ -->
      <defs>
       <path d="M 18.40625 4.796875 
C 18.40625 7.6875 16 9.671875 13.59375 9.671875 
C 10.703125 9.671875 8.703125 7.28125 8.703125 4.890625 
C 8.703125 2 11.09375 0 13.5 0 
C 16.40625 0 18.40625 2.390625 18.40625 4.796875 
z
" id="CMMI12-58"/>
       <path d="M 22.09375 33.703125 
C 31 33.703125 34.90625 25.96875 34.90625 17.03125 
C 34.90625 5 28.5 0.390625 22.703125 0.390625 
C 17.40625 0.390625 8.796875 3.03125 6.09375 10.828125 
C 6.59375 10.625 7.09375 10.625 7.59375 10.625 
C 10 10.625 11.796875 12.21875 11.796875 14.8125 
C 11.796875 17.703125 9.59375 19 7.59375 19 
C 5.90625 19 3.296875 18.203125 3.296875 14.46875 
C 3.296875 5.234375 12.296875 -2 22.90625 -2 
C 34 -2 42.5 6.71875 42.5 16.953125 
C 42.5 26.671875 34.5 33.703125 25 34.796875 
C 32.59375 36.375 39.90625 43.0625 39.90625 52.015625 
C 39.90625 59.6875 32 65.296875 23 65.296875 
C 13.90625 65.296875 5.90625 59.828125 5.90625 52.015625 
C 5.90625 48.59375 8.5 48 9.796875 48 
C 11.90625 48 13.703125 49.296875 13.703125 51.890625 
C 13.703125 54.46875 11.90625 55.765625 9.796875 55.765625 
C 9.40625 55.765625 8.90625 55.765625 8.5 55.578125 
C 11.40625 61.859375 19.296875 63 22.796875 63 
C 26.296875 63 32.90625 61.328125 32.90625 51.875 
C 32.90625 49.109375 32.5 44.1875 29.09375 39.84375 
C 26.09375 36 22.703125 36 19.40625 35.6875 
C 18.90625 35.6875 16.59375 35.453125 16.203125 35.453125 
C 15.5 35.359375 15.09375 35.265625 15.09375 34.5 
C 15.09375 33.796875 15.203125 33.703125 17.203125 33.703125 
z
" id="CMR17-51"/>
      </defs>
      <g transform="translate(33.56 237.081155)scale(0.18 -0.18)">
       <use transform="scale(0.996264)" xlink:href="#CMR17-50"/>
       <use transform="translate(45.690477 0)scale(0.996264)" xlink:href="#CMMI12-58"/>
       <use transform="translate(72.787654 0)scale(0.996264)" xlink:href="#CMR17-51"/>
      </g>
     </g>
    </g>
    <g id="ytick_2">
     <g id="line2d_6">
      <g>
       <use style="stroke:#000000;stroke-width:0.8;" x="61.96604" xlink:href="#m66fe306355" y="174.626087"/>
      </g>
     </g>
     <g id="text_7">
      <!-- $2.4$ -->
      <defs>
       <path d="M 33.59375 64.40625 
C 33.59375 66.5 33.5 66.5 31.703125 66.5 
L 2 19.59375 
L 2 17 
L 27.796875 17 
L 27.796875 7.140625 
C 27.796875 3.5 27.59375 2.5 20.59375 2.5 
L 18.703125 2.5 
L 18.703125 0 
C 21.90625 0 27.296875 0 30.703125 0 
C 34.09375 0 39.5 0 42.703125 0 
L 42.703125 2.5 
L 40.796875 2.5 
C 33.796875 2.5 33.59375 3.5 33.59375 7.140625 
L 33.59375 17 
L 43.796875 17 
L 43.796875 19.59375 
L 33.59375 19.59375 
z
M 28.09375 57.859375 
L 28.09375 19.59375 
L 4 19.59375 
z
" id="CMR17-52"/>
      </defs>
      <g transform="translate(33.56 181.295062)scale(0.18 -0.18)">
       <use transform="scale(0.996264)" xlink:href="#CMR17-50"/>
       <use transform="translate(45.690477 0)scale(0.996264)" xlink:href="#CMMI12-58"/>
       <use transform="translate(72.787654 0)scale(0.996264)" xlink:href="#CMR17-52"/>
      </g>
     </g>
    </g>
    <g id="ytick_3">
     <g id="line2d_7">
      <g>
       <use style="stroke:#000000;stroke-width:0.8;" x="61.96604" xlink:href="#m66fe306355" y="118.839994"/>
      </g>
     </g>
     <g id="text_8">
      <!-- $2.5$ -->
      <g transform="translate(33.56 125.508969)scale(0.18 -0.18)">
       <use transform="scale(0.996264)" xlink:href="#CMR17-50"/>
       <use transform="translate(45.690477 0)scale(0.996264)" xlink:href="#CMMI12-58"/>
       <use transform="translate(72.787654 0)scale(0.996264)" xlink:href="#CMR17-53"/>
      </g>
     </g>
    </g>
    <g id="ytick_4">
     <g id="line2d_8">
      <g>
       <use style="stroke:#000000;stroke-width:0.8;" x="61.96604" xlink:href="#m66fe306355" y="63.053901"/>
      </g>
     </g>
     <g id="text_9">
      <!-- $2.6$ -->
      <defs>
       <path d="M 10.59375 34 
C 10.59375 57.65625 21.796875 63 28.296875 63 
C 30.40625 63 35.5 62.640625 37.5 59 
C 35.90625 59 32.90625 59 32.90625 55.515625 
C 32.90625 52.828125 35.09375 51.921875 36.5 51.921875 
C 37.40625 51.921875 40.09375 52.3125 40.09375 55.625 
C 40.09375 61.78125 35.09375 65.296875 28.203125 65.296875 
C 16.296875 65.296875 3.796875 52.96875 3.796875 31 
C 3.796875 3.953125 15.09375 -2 23.09375 -2 
C 32.796875 -2 42 6.671875 42 20.046875 
C 42 32.515625 33.90625 41.59375 23.703125 41.59375 
C 17.59375 41.59375 13.09375 37.609375 10.59375 30.625 
z
M 23.09375 0.390625 
C 10.796875 0.390625 10.796875 18.75 10.796875 22.4375 
C 10.796875 29.625 14.203125 40 23.5 40 
C 25.203125 40 30.09375 40 33.40625 33.125 
C 35.203125 29.21875 35.203125 25.140625 35.203125 20.140625 
C 35.203125 14.75 35.203125 10.78125 33.09375 6.78125 
C 30.90625 2.671875 27.703125 0.390625 23.09375 0.390625 
z
" id="CMR17-54"/>
      </defs>
      <g transform="translate(33.56 69.722876)scale(0.18 -0.18)">
       <use transform="scale(0.996264)" xlink:href="#CMR17-50"/>
       <use transform="translate(45.690477 0)scale(0.996264)" xlink:href="#CMMI12-58"/>
       <use transform="translate(72.787654 0)scale(0.996264)" xlink:href="#CMR17-54"/>
      </g>
     </g>
    </g>
    <g id="text_10">
     <!-- Volts -->
     <defs>
      <path d="M 39.296875 15.40625 
L 21 61.8125 
C 20.5 63.015625 20.203125 64.21875 20.203125 64.8125 
C 20.203125 66.609375 21.90625 67.3125 26.40625 67.3125 
L 30.40625 67.3125 
L 30.40625 72 
L -0.796875 72 
L -0.796875 67.3125 
L 1.203125 67.3125 
C 5.703125 67.3125 7 66.3125 8.90625 61.703125 
L 34.203125 -1.6875 
L 38.203125 -1.6875 
L 61.203125 57.515625 
C 64.203125 65.3125 66.40625 67.3125 72.09375 67.3125 
L 73.09375 67.3125 
L 73.09375 72 
L 46 72 
L 46 67.3125 
L 47.90625 67.3125 
C 53 67.3125 56 65.3125 56 62.109375 
C 56 60.71875 55.5 58.421875 54.796875 56.53125 
z
" id="Century_Schoolbook_L_Roman-86"/>
      <path d="M 25.203125 48.28125 
C 13 48.28125 3.40625 37.453125 3.40625 23.546875 
C 3.40625 9.9375 13 -1 25 -1 
C 37 -1 46.59375 9.9375 46.59375 23.640625 
C 46.59375 37.25 37 48.28125 25.203125 48.28125 
z
M 25.203125 44 
C 32.203125 44 36.09375 36.75 36.09375 23.640625 
C 36.09375 10.453125 32.203125 3.296875 25 3.296875 
C 17.796875 3.296875 13.90625 10.453125 13.90625 23.546875 
C 13.90625 37.046875 17.703125 44 25.203125 44 
z
" id="Century_Schoolbook_L_Roman-111"/>
      <path d="M 19.40625 47 
L 19.40625 67 
L 15.296875 67 
C 14.296875 53.875 9.90625 47.1875 1.796875 46.59375 
L 1.796875 42.703125 
L 10 42.703125 
L 10 17.265625 
C 10 10.28125 10.203125 7.78125 11.203125 5.484375 
C 12.796875 1.296875 16.796875 -1 22.59375 -1 
C 26.5 -1 29.90625 0.203125 32.203125 2.390625 
C 35.5 5.59375 37.40625 10.875 37.40625 16.375 
C 37.40625 16.96875 37.40625 17.671875 37.296875 18.671875 
L 33.09375 18.671875 
C 32.796875 9.6875 30.203125 5.09375 25.296875 5.09375 
C 23 5.09375 21 6.28125 20.296875 7.984375 
C 19.703125 9.375 19.40625 11.875 19.40625 15.46875 
L 19.40625 42.703125 
L 34.09375 42.703125 
L 34.09375 47 
z
" id="Century_Schoolbook_L_Roman-116"/>
      <path d="M 39 48 
L 35.5 48 
L 32.59375 44.40625 
C 29 47.203125 25.40625 48.390625 20.40625 48.390625 
C 11.59375 48.390625 5.796875 42.625 5.796875 33.953125 
C 5.796875 30.078125 7.09375 26.78125 9.296875 24.8125 
C 11.59375 22.703125 13.90625 21.71875 19.90625 20.3125 
L 25.203125 19.125 
C 33.09375 17.234375 35.90625 15.234375 35.90625 11.265625 
C 35.90625 6.578125 31.796875 3.296875 25.90625 3.296875 
C 17.5 3.296875 11.5 8.765625 9.09375 18.875 
L 5.09375 18.875 
L 5.09375 0 
L 8.59375 0 
L 12.09375 3.90625 
C 16.203125 0.59375 20.796875 -1 25.796875 -1 
C 35.59375 -1 42.09375 5.078125 42.09375 14.34375 
C 42.09375 18.71875 40.703125 22.09375 37.90625 24.390625 
C 35.5 26.484375 33.5 27.28125 27.40625 28.5625 
L 22.40625 29.671875 
C 16.90625 30.859375 16.90625 30.859375 15.09375 31.859375 
C 12.90625 32.859375 11.59375 34.9375 11.59375 37.140625 
C 11.59375 41.109375 15.40625 44 20.90625 44 
C 24.703125 44 27.796875 42.703125 30.59375 40.015625 
C 32.796875 37.8125 33.90625 35.828125 35.5 31.234375 
L 39 31.234375 
z
" id="Century_Schoolbook_L_Roman-115"/>
     </defs>
     <g transform="translate(24.87013 143.29176)rotate(-90)scale(0.18 -0.18)">
      <use transform="translate(0 0.343476)scale(0.996264)" xlink:href="#Century_Schoolbook_L_Roman-86"/>
      <use transform="translate(64.45802 0.343476)scale(0.996264)" xlink:href="#Century_Schoolbook_L_Roman-111"/>
      <use transform="translate(114.27122 0.343476)scale(0.996264)" xlink:href="#Century_Schoolbook_L_Roman-108"/>
      <use transform="translate(145.652533 0.343476)scale(0.996264)" xlink:href="#Century_Schoolbook_L_Roman-116"/>
      <use transform="translate(184.40624 0.343476)scale(0.996264)" xlink:href="#Century_Schoolbook_L_Roman-115"/>
     </g>
    </g>
   </g>
   <g id="line2d_9">
    <path clip-path="url(#pe44e96efb1)" d="M 61.96604 36.834437 
L 71.960408 36.834437 
L 73.388175 47.991656 
L 74.815942 36.834437 
L 76.243709 47.991656 
L 87.665844 47.991656 
L 89.093611 36.834437 
L 97.660213 36.834437 
L 99.08798 25.677219 
L 100.515747 36.834437 
L 101.943513 25.677219 
L 103.37128 36.834437 
L 120.504483 36.834437 
L 121.93225 47.991656 
L 129.071085 47.991656 
L 130.498852 36.834437 
L 131.926618 47.991656 
L 133.354385 47.991656 
L 134.782152 36.834437 
L 147.632054 36.834437 
L 149.059821 25.677219 
L 151.915355 25.677219 
L 153.343122 36.834437 
L 154.770889 25.677219 
L 156.198656 36.834437 
L 164.765257 36.834437 
L 166.193024 47.991656 
L 167.620791 36.834437 
L 169.048558 47.991656 
L 170.476325 36.834437 
L 171.904092 47.991656 
L 181.89846 47.991656 
L 183.326227 36.834437 
L 190.465062 36.834437 
L 191.892829 25.677219 
L 193.320596 36.834437 
L 196.176129 36.834437 
L 197.603896 25.677219 
L 200.45943 25.677219 
L 201.887197 36.834437 
L 213.309332 36.834437 
L 214.737099 47.991656 
L 221.875934 47.991656 
L 223.303701 36.834437 
L 224.731467 47.991656 
L 226.159234 47.991656 
L 227.587001 36.834437 
L 229.014768 47.991656 
L 230.442535 36.834437 
L 241.86467 36.834437 
L 243.292437 25.677219 
L 247.575738 25.677219 
L 249.003505 36.834437 
L 260.42564 36.834437 
L 261.853407 47.991656 
L 263.281174 36.834437 
L 264.708941 36.834437 
L 266.136708 47.991656 
L 273.275542 47.991656 
L 274.703309 36.834437 
L 276.131076 47.991656 
L 277.558843 36.834437 
L 290.408745 36.834437 
L 291.836512 25.677219 
L 293.264279 36.834437 
L 294.692046 36.834437 
L 296.119813 25.677219 
L 297.54758 36.834437 
L 310.397482 36.834437 
L 311.825249 47.991656 
L 320.39185 47.991656 
L 321.819617 36.834437 
L 323.247384 47.991656 
L 324.675151 36.834437 
L 337.525053 36.834437 
L 338.95282 25.677219 
L 340.380587 25.677219 
L 341.808354 36.834437 
L 343.236121 36.834437 
L 344.663888 25.677219 
L 346.091655 36.834437 
L 347.519422 25.677219 
L 348.947188 36.834437 
L 360.369324 36.834437 
L 361.797091 47.991656 
L 368.935925 47.991656 
L 370.363692 36.834437 
L 384.641361 36.834437 
L 386.069128 25.677219 
L 387.496895 25.677219 
L 388.924662 36.834437 
L 390.352429 36.834437 
L 391.780196 25.677219 
L 393.207963 36.834437 
L 403.202331 36.834437 
L 404.630098 47.991656 
L 417.48 47.991656 
L 417.48 47.991656 
" style="fill:none;stroke:#e41a1c;stroke-linecap:square;stroke-width:2;"/>
   </g>
   <g id="patch_3">
    <path d="M 61.96604 230.41218 
L 61.96604 14.52 
" style="fill:none;stroke:#000000;stroke-linecap:square;stroke-linejoin:miter;stroke-width:0.8;"/>
   </g>
   <g id="patch_4">
    <path d="M 417.48 230.41218 
L 417.48 14.52 
" style="fill:none;"/>
   </g>
   <g id="patch_5">
    <path d="M 61.96604 230.41218 
L 417.48 230.41218 
" style="fill:none;stroke:#000000;stroke-linecap:square;stroke-linejoin:miter;stroke-width:0.8;"/>
   </g>
   <g id="patch_6">
    <path d="M 61.96604 14.52 
L 417.48 14.52 
" style="fill:none;"/>
   </g>
   <g id="legend_1">
    <g id="patch_7">
     <path d="M 325.0165 44.05585 
L 412.68 44.05585 
Q 415.88 44.05585 415.88 40.85585 
L 415.88 19.32 
Q 415.88 16.12 412.68 16.12 
L 325.0165 16.12 
Q 321.8165 16.12 321.8165 19.32 
L 321.8165 40.85585 
Q 321.8165 44.05585 325.0165 44.05585 
z
" style="fill:#ffffff;stroke:#000000;stroke-linejoin:miter;"/>
    </g>
    <g id="line2d_10">
     <path d="M 328.2165 28.77596 
L 360.2165 28.77596 
" style="fill:none;stroke:#e41a1c;stroke-linecap:square;stroke-width:2;"/>
    </g>
    <g id="line2d_11"/>
    <g id="text_11">
     <!-- Data -->
     <defs>
      <path d="M 13.703125 12.28125 
L 13.703125 9.375 
C 13.703125 5.1875 12.796875 4.6875 4.796875 4.6875 
L 2.90625 4.6875 
L 2.90625 0 
L 36.5 0 
C 45.40625 0 52.203125 1.390625 57.5 4.390625 
C 67.59375 10.0625 73.203125 21.4375 73.203125 36.390625 
C 73.203125 50.0625 68.203125 60.9375 59 66.90625 
C 53.5 70.40625 46.09375 72 34.703125 72 
L 2.90625 72 
L 2.90625 67.3125 
L 4.796875 67.3125 
C 12.796875 67.3125 13.703125 66.8125 13.703125 62.609375 
L 13.703125 59.734375 
z
M 30.59375 4.6875 
C 25.59375 4.6875 24.90625 5.296875 24.90625 10.1875 
L 24.90625 61.71875 
C 24.90625 66.609375 25.59375 67.3125 30.59375 67.3125 
L 35.796875 67.3125 
C 52.90625 67.3125 60 58.046875 60 36 
C 60 13.65625 53.5 4.6875 37.40625 4.6875 
z
" id="Century_Schoolbook_L_Roman-68"/>
     </defs>
     <g transform="translate(373.0165 34.37596)scale(0.16 -0.16)">
      <use transform="translate(0 0.343476)scale(0.996264)" xlink:href="#Century_Schoolbook_L_Roman-68"/>
      <use transform="translate(77.50837 0.343476)scale(0.996264)" xlink:href="#Century_Schoolbook_L_Roman-97"/>
      <use transform="translate(132.900047 0.343476)scale(0.996264)" xlink:href="#Century_Schoolbook_L_Roman-116"/>
      <use transform="translate(171.653753 0.343476)scale(0.996264)" xlink:href="#Century_Schoolbook_L_Roman-97"/>
     </g>
    </g>
   </g>
  </g>
 </g>
 <defs>
  <clipPath id="pe44e96efb1">
   <rect height="215.89218" width="355.51396" x="61.96604" y="14.52"/>
  </clipPath>
 </defs>
</svg>
