<?xml version="1.0" encoding="utf-8" standalone="no"?>
<!DOCTYPE svg PUBLIC "-//W3C//DTD SVG 1.1//EN"
  "http://www.w3.org/Graphics/SVG/1.1/DTD/svg11.dtd">
<!-- Created with matplotlib (https://matplotlib.org/) -->
<svg height="288pt" version="1.1" viewBox="0 0 432 288" width="432pt" xmlns="http://www.w3.org/2000/svg" xmlns:xlink="http://www.w3.org/1999/xlink">
 <defs>
  <style type="text/css">
*{stroke-linecap:butt;stroke-linejoin:round;}
  </style>
 </defs>
 <g id="figure_1">
  <g id="patch_1">
   <path d="M 0 288 
L 432 288 
L 432 0 
L 0 0 
z
" style="fill:#ffffff;"/>
  </g>
  <g id="axes_1">
   <g id="patch_2">
    <path d="M 70.22116 230.88 
L 417.48 230.88 
L 417.48 14.52 
L 70.22116 14.52 
z
" style="fill:#ffffff;"/>
   </g>
   <g id="matplotlib.axis_1">
    <g id="xtick_1">
     <g id="line2d_1">
      <defs>
       <path d="M 0 0 
L 0 3.5 
" id="mc333ebbd55" style="stroke:#000000;stroke-width:0.8;"/>
      </defs>
      <g>
       <use style="stroke:#000000;stroke-width:0.8;" x="128.097633" xlink:href="#mc333ebbd55" y="230.88"/>
      </g>
     </g>
     <g id="text_1">
      <!-- $10$ -->
      <defs>
       <path d="M 26.59375 63.40625 
C 26.59375 65.5 26.5 65.5 25.09375 65.5 
C 21.203125 61.1875 15.296875 59.796875 9.703125 59.796875 
C 9.40625 59.796875 8.90625 59.796875 8.796875 59.5 
C 8.703125 59.296875 8.703125 59.09375 8.703125 57 
C 11.796875 57 17 57.59375 21 59.984375 
L 21 7.203125 
C 21 3.6875 20.796875 2.5 12.203125 2.5 
L 9.203125 2.5 
L 9.203125 0 
C 14 0 19 0 23.796875 0 
C 28.59375 0 33.59375 0 38.40625 0 
L 38.40625 2.5 
L 35.40625 2.5 
C 26.796875 2.5 26.59375 3.59375 26.59375 7.15625 
z
" id="CMR17-49"/>
       <path d="M 42 31.640625 
C 42 37.75 41.90625 48.125 37.703125 56.109375 
C 34 63.109375 28.09375 65.59375 22.90625 65.59375 
C 18.09375 65.59375 12 63.40625 8.203125 56.203125 
C 4.203125 48.71875 3.796875 39.4375 3.796875 31.640625 
C 3.796875 25.953125 3.90625 17.28125 7 9.671875 
C 11.296875 -0.609375 19 -2 22.90625 -2 
C 27.5 -2 34.5 -0.109375 38.59375 9.375 
C 41.59375 16.28125 42 24.359375 42 31.640625 
z
M 22.90625 -0.40625 
C 16.5 -0.40625 12.703125 5.078125 11.296875 12.6875 
C 10.203125 18.5625 10.203125 27.15625 10.203125 32.75 
C 10.203125 40.4375 10.203125 46.828125 11.5 52.921875 
C 13.40625 61.390625 19 64 22.90625 64 
C 27 64 32.296875 61.296875 34.203125 53.125 
C 35.5 47.4375 35.59375 40.734375 35.59375 32.75 
C 35.59375 26.25 35.59375 18.265625 34.40625 12.375 
C 32.296875 1.484375 26.40625 -0.40625 22.90625 -0.40625 
z
" id="CMR17-48"/>
      </defs>
      <g transform="translate(119.842508 251.21795)scale(0.18 -0.18)">
       <use transform="scale(0.996264)" xlink:href="#CMR17-49"/>
       <use transform="translate(45.690477 0)scale(0.996264)" xlink:href="#CMR17-48"/>
      </g>
     </g>
    </g>
    <g id="xtick_2">
     <g id="line2d_2">
      <g>
       <use style="stroke:#000000;stroke-width:0.8;" x="185.974107" xlink:href="#mc333ebbd55" y="230.88"/>
      </g>
     </g>
     <g id="text_2">
      <!-- $20$ -->
      <defs>
       <path d="M 41.703125 15.453125 
L 39.90625 15.453125 
C 38.90625 8.375 38.09375 7.171875 37.703125 6.5625 
C 37.203125 5.765625 30 5.765625 28.59375 5.765625 
L 9.40625 5.765625 
C 13 9.671875 20 16.75 28.5 24.953125 
C 34.59375 30.734375 41.703125 37.53125 41.703125 47.421875 
C 41.703125 59.21875 32.296875 66 21.796875 66 
C 10.796875 66 4.09375 56.3125 4.09375 47.34375 
C 4.09375 43.4375 7 42.9375 8.203125 42.9375 
C 9.203125 42.9375 12.203125 43.546875 12.203125 47.03125 
C 12.203125 50.109375 9.59375 51 8.203125 51 
C 7.59375 51 7 50.90625 6.59375 50.703125 
C 8.5 59.21875 14.296875 63.40625 20.40625 63.40625 
C 29.09375 63.40625 34.796875 56.515625 34.796875 47.421875 
C 34.796875 38.734375 29.703125 31.25 24 24.75 
L 4.09375 2.28125 
L 4.09375 0 
L 39.296875 0 
z
" id="CMR17-50"/>
      </defs>
      <g transform="translate(177.718982 251.21795)scale(0.18 -0.18)">
       <use transform="scale(0.996264)" xlink:href="#CMR17-50"/>
       <use transform="translate(45.690477 0)scale(0.996264)" xlink:href="#CMR17-48"/>
      </g>
     </g>
    </g>
    <g id="xtick_3">
     <g id="line2d_3">
      <g>
       <use style="stroke:#000000;stroke-width:0.8;" x="243.85058" xlink:href="#mc333ebbd55" y="230.88"/>
      </g>
     </g>
     <g id="text_3">
      <!-- $30$ -->
      <defs>
       <path d="M 22.09375 33.703125 
C 31 33.703125 34.90625 25.96875 34.90625 17.03125 
C 34.90625 5 28.5 0.390625 22.703125 0.390625 
C 17.40625 0.390625 8.796875 3.03125 6.09375 10.828125 
C 6.59375 10.625 7.09375 10.625 7.59375 10.625 
C 10 10.625 11.796875 12.21875 11.796875 14.8125 
C 11.796875 17.703125 9.59375 19 7.59375 19 
C 5.90625 19 3.296875 18.203125 3.296875 14.46875 
C 3.296875 5.234375 12.296875 -2 22.90625 -2 
C 34 -2 42.5 6.71875 42.5 16.953125 
C 42.5 26.671875 34.5 33.703125 25 34.796875 
C 32.59375 36.375 39.90625 43.0625 39.90625 52.015625 
C 39.90625 59.6875 32 65.296875 23 65.296875 
C 13.90625 65.296875 5.90625 59.828125 5.90625 52.015625 
C 5.90625 48.59375 8.5 48 9.796875 48 
C 11.90625 48 13.703125 49.296875 13.703125 51.890625 
C 13.703125 54.46875 11.90625 55.765625 9.796875 55.765625 
C 9.40625 55.765625 8.90625 55.765625 8.5 55.578125 
C 11.40625 61.859375 19.296875 63 22.796875 63 
C 26.296875 63 32.90625 61.328125 32.90625 51.875 
C 32.90625 49.109375 32.5 44.1875 29.09375 39.84375 
C 26.09375 36 22.703125 36 19.40625 35.6875 
C 18.90625 35.6875 16.59375 35.453125 16.203125 35.453125 
C 15.5 35.359375 15.09375 35.265625 15.09375 34.5 
C 15.09375 33.796875 15.203125 33.703125 17.203125 33.703125 
z
" id="CMR17-51"/>
      </defs>
      <g transform="translate(235.595455 251.21795)scale(0.18 -0.18)">
       <use transform="scale(0.996264)" xlink:href="#CMR17-51"/>
       <use transform="translate(45.690477 0)scale(0.996264)" xlink:href="#CMR17-48"/>
      </g>
     </g>
    </g>
    <g id="xtick_4">
     <g id="line2d_4">
      <g>
       <use style="stroke:#000000;stroke-width:0.8;" x="301.727053" xlink:href="#mc333ebbd55" y="230.88"/>
      </g>
     </g>
     <g id="text_4">
      <!-- $40$ -->
      <defs>
       <path d="M 33.59375 64.40625 
C 33.59375 66.5 33.5 66.5 31.703125 66.5 
L 2 19.59375 
L 2 17 
L 27.796875 17 
L 27.796875 7.140625 
C 27.796875 3.5 27.59375 2.5 20.59375 2.5 
L 18.703125 2.5 
L 18.703125 0 
C 21.90625 0 27.296875 0 30.703125 0 
C 34.09375 0 39.5 0 42.703125 0 
L 42.703125 2.5 
L 40.796875 2.5 
C 33.796875 2.5 33.59375 3.5 33.59375 7.140625 
L 33.59375 17 
L 43.796875 17 
L 43.796875 19.59375 
L 33.59375 19.59375 
z
M 28.09375 57.859375 
L 28.09375 19.59375 
L 4 19.59375 
z
" id="CMR17-52"/>
      </defs>
      <g transform="translate(293.471928 251.21795)scale(0.18 -0.18)">
       <use transform="scale(0.996264)" xlink:href="#CMR17-52"/>
       <use transform="translate(45.690477 0)scale(0.996264)" xlink:href="#CMR17-48"/>
      </g>
     </g>
    </g>
    <g id="xtick_5">
     <g id="line2d_5">
      <g>
       <use style="stroke:#000000;stroke-width:0.8;" x="359.603527" xlink:href="#mc333ebbd55" y="230.88"/>
      </g>
     </g>
     <g id="text_5">
      <!-- $50$ -->
      <defs>
       <path d="M 11.40625 57.6875 
C 12.40625 57.28125 16.5 56 20.703125 56 
C 30 56 35.09375 61.109375 38 64.0625 
C 38 64.953125 38 65.5 37.40625 65.5 
C 37.296875 65.5 37.09375 65.5 36.296875 65.046875 
C 32.796875 63.40625 28.703125 62.078125 23.703125 62.078125 
C 20.703125 62.078125 16.203125 62.484375 11.296875 64.671875 
C 10.203125 65.171875 10 65.171875 9.90625 65.171875 
C 9.40625 65.171875 9.296875 65.0625 9.296875 63.078125 
L 9.296875 34.421875 
C 9.296875 32.640625 9.296875 32.140625 10.296875 32.140625 
C 10.796875 32.140625 11 32.34375 11.5 33.03125 
C 14.703125 37.515625 19.09375 39.40625 24.09375 39.40625 
C 27.59375 39.40625 35.09375 37.21875 35.09375 20.140625 
C 35.09375 16.953125 35.09375 11.171875 32.09375 6.578125 
C 29.59375 2.484375 25.703125 0.390625 21.40625 0.390625 
C 14.796875 0.390625 8.09375 5 6.296875 12.71875 
C 6.703125 12.609375 7.5 12.421875 7.90625 12.421875 
C 9.203125 12.421875 11.703125 13.125 11.703125 16.21875 
C 11.703125 18.90625 9.796875 20 7.90625 20 
C 5.59375 20 4.09375 18.59375 4.09375 15.796875 
C 4.09375 7.09375 11 -2 21.59375 -2 
C 31.90625 -2 41.703125 6.875 41.703125 19.75 
C 41.703125 31.71875 33.90625 41 24.203125 41 
C 19.09375 41 14.796875 39.109375 11.40625 35.53125 
z
" id="CMR17-53"/>
      </defs>
      <g transform="translate(351.348402 251.21795)scale(0.18 -0.18)">
       <use transform="scale(0.996264)" xlink:href="#CMR17-53"/>
       <use transform="translate(45.690477 0)scale(0.996264)" xlink:href="#CMR17-48"/>
      </g>
     </g>
    </g>
    <g id="text_6">
     <!-- Time Series -->
     <defs>
      <path d="M 63.296875 72 
L 3.40625 72 
L 1.90625 44.265625 
L 6.203125 44.265625 
C 6.90625 49.25 7.796875 53.046875 8.90625 56.234375 
C 11.5 63.515625 16.296875 67.3125 23.09375 67.3125 
C 26.40625 67.3125 27.796875 66.203125 27.796875 63.71875 
L 27.796875 12.28125 
L 27.796875 9.375 
C 27.796875 5.1875 26.90625 4.6875 18.796875 4.6875 
L 16.203125 4.6875 
L 16.203125 0 
L 50.5 0 
L 50.5 4.6875 
L 47.90625 4.6875 
C 39.90625 4.6875 39 5.1875 39 9.375 
L 39 12.28125 
L 39 63.71875 
C 39 66.203125 40.40625 67.3125 43.703125 67.3125 
C 49.796875 67.3125 54.703125 63.90625 57.203125 57.921875 
C 58.703125 54.25 59.703125 49.953125 60.5 44.265625 
L 64.796875 44.265625 
z
" id="Century_Schoolbook_L_Roman-84"/>
      <path d="M 20.59375 46 
L 1.796875 46 
L 1.796875 41.21875 
L 6.90625 41.21875 
C 10.59375 41.21875 11.203125 40.515625 11.203125 36.203125 
L 11.203125 12.296875 
L 11.203125 8.296875 
C 11.203125 4.296875 10.09375 3.59375 3.703125 3.59375 
L 3 3.59375 
L 3 0 
L 28.90625 0 
L 28.90625 3.59375 
L 28.203125 3.59375 
C 21.703125 3.59375 20.59375 4.28125 20.59375 8.21875 
L 20.59375 12.171875 
z
M 15.90625 71.578125 
C 12.703125 71.578125 10.09375 68.984375 10.09375 65.796875 
C 10.09375 62.703125 12.703125 60 15.796875 60 
C 19.09375 60 21.703125 62.59375 21.703125 65.796875 
C 21.703125 68.984375 19.09375 71.578125 15.90625 71.578125 
z
" id="Century_Schoolbook_L_Roman-105"/>
      <path d="M 20.09375 46 
L 2.296875 46 
L 2.296875 41.21875 
L 6.40625 41.21875 
C 10.09375 41.21875 10.703125 40.515625 10.703125 36.203125 
L 10.703125 12.296875 
L 10.703125 8.40625 
C 10.703125 4.296875 9.59375 3.59375 3.203125 3.59375 
L 2.796875 3.59375 
L 2.796875 0 
L 28 0 
L 28 3.59375 
L 27.59375 3.59375 
C 21.203125 3.59375 20.09375 4.296875 20.09375 8.390625 
L 20.09375 12.28125 
L 20.09375 26.453125 
C 20.09375 35.328125 25 41.921875 31.5 41.921875 
C 34.09375 41.921875 36.90625 40.515625 38.09375 38.625 
C 39.5 36.734375 40.09375 33.828125 40.09375 29.734375 
L 40.09375 12.28125 
L 40.09375 8.28125 
C 40.09375 4.296875 39 3.59375 32.5 3.59375 
L 32.09375 3.59375 
L 32.09375 0 
L 57.40625 0 
L 57.40625 3.59375 
L 57 3.59375 
C 50.59375 3.59375 49.5 4.296875 49.5 8.28125 
L 49.5 12.28125 
L 49.5 25.546875 
C 49.5 35.53125 54 41.921875 61 41.921875 
C 64.296875 41.921875 67 40.015625 68.296875 36.921875 
C 69.203125 34.734375 69.5 32.53125 69.5 28.640625 
L 69.5 12.28125 
L 69.5 8.28125 
C 69.5 4.296875 68.40625 3.59375 61.90625 3.59375 
L 61.5 3.59375 
L 61.5 0 
L 86.796875 0 
L 86.796875 3.59375 
L 86.40625 3.59375 
C 80 3.59375 78.90625 4.296875 78.90625 8.390625 
L 78.90625 12.28125 
L 78.90625 30.640625 
C 78.90625 36.828125 78.296875 38.921875 75.703125 42.3125 
C 72.796875 46.015625 68.703125 48 63.90625 48 
C 57.40625 48 52.59375 44.9375 48.296875 38.109375 
C 46.59375 44.046875 41.203125 48 34.5 48 
C 28.5 48 24 45.140625 20.09375 38.921875 
z
" id="Century_Schoolbook_L_Roman-109"/>
      <path d="M 46.5 23 
C 46.59375 37.8125 38.09375 48.28125 25.90625 48.28125 
C 13.09375 48.28125 3.5 37.25 3.5 22.34375 
C 3.5 8.4375 12.59375 -1 26.09375 -1 
C 35.59375 -1 42.40625 3.6875 46.5 13.1875 
L 43 15.09375 
C 38.90625 7.390625 34.703125 4.390625 28 4.390625 
C 22.90625 4.390625 19.203125 6.59375 16.59375 11 
C 14.796875 14 14 17.5 14.09375 23 
z
M 14.203125 27.296875 
C 14.203125 30.34375 14.59375 32.5 15.59375 35.25 
C 17.703125 41.140625 20.90625 44 25.703125 44 
C 31.796875 44 35.796875 38.78125 35.796875 30.921875 
C 35.796875 28.078125 34.90625 27.296875 31.703125 27.296875 
z
" id="Century_Schoolbook_L_Roman-101"/>
      <path d="M 54.59375 72 
L 50.90625 72 
L 46.90625 66.09375 
C 42.203125 70.59375 35.796875 73 28.703125 73 
C 15.59375 73 6.796875 64.609375 6.796875 52.15625 
C 6.796875 41.28125 12.203125 35.890625 26.90625 32.109375 
L 36.40625 29.703125 
C 43.796875 27.828125 44.5 27.625 46.59375 26.03125 
C 49.59375 23.734375 51.203125 20.4375 51.203125 16.546875 
C 51.203125 12.5625 49.703125 9.28125 46.703125 6.59375 
C 43.40625 3.6875 40.09375 2.59375 34.59375 2.59375 
C 27.203125 2.59375 21.90625 4.875 17.203125 10.03125 
C 13 14.703125 10.90625 19.375 9.40625 27 
L 5.09375 27 
L 5.5 -1.4375 
L 9.40625 -1.4375 
L 13.90625 5.46875 
C 20.59375 0 26.203125 -2 34.90625 -2 
C 49.59375 -2 59 6.59375 59 19.9375 
C 59 26.109375 56.90625 31.40625 53 35.203125 
C 50.296875 37.796875 46.40625 39.484375 38.40625 41.484375 
L 27.703125 44.171875 
C 18.796875 46.46875 14.59375 50.359375 14.59375 56.4375 
C 14.59375 63.40625 20.296875 68.203125 28.796875 68.203125 
C 35.796875 68.203125 41.5 65.1875 45.5 59.484375 
C 48.40625 55.375 50.203125 51.15625 51.5 46.046875 
L 55.796875 46.046875 
z
" id="Century_Schoolbook_L_Roman-83"/>
      <path d="M 19.796875 46 
L 2.09375 46 
L 2.09375 41.21875 
L 6.203125 41.21875 
C 9.90625 41.21875 10.5 40.515625 10.5 36.203125 
L 10.5 12.296875 
L 10.5 8.296875 
C 10.5 4.296875 9.40625 3.59375 2.90625 3.59375 
L 2.5 3.59375 
L 2.5 0 
L 29.203125 0 
L 29.203125 3.59375 
L 27.296875 3.59375 
C 20.90625 3.59375 19.796875 4.296875 19.796875 8.296875 
L 19.796875 12.296875 
L 19.796875 13.296875 
C 19.796875 20.8125 21.203125 28.40625 23.703125 34.109375 
C 26.09375 39.703125 29.5 42.8125 33.703125 43.3125 
C 32.296875 41.703125 31.90625 40.6875 31.90625 38.765625 
C 31.90625 35.546875 34.203125 33.234375 37.40625 33.234375 
C 41 33.234375 43.5 35.9375 43.5 40.015625 
C 43.5 44.8125 40.09375 48 34.796875 48 
C 28.5 48 23 42.921875 19.796875 34.140625 
z
" id="Century_Schoolbook_L_Roman-114"/>
      <path d="M 39 48 
L 35.5 48 
L 32.59375 44.40625 
C 29 47.203125 25.40625 48.390625 20.40625 48.390625 
C 11.59375 48.390625 5.796875 42.625 5.796875 33.953125 
C 5.796875 30.078125 7.09375 26.78125 9.296875 24.8125 
C 11.59375 22.703125 13.90625 21.71875 19.90625 20.3125 
L 25.203125 19.125 
C 33.09375 17.234375 35.90625 15.234375 35.90625 11.265625 
C 35.90625 6.578125 31.796875 3.296875 25.90625 3.296875 
C 17.5 3.296875 11.5 8.765625 9.09375 18.875 
L 5.09375 18.875 
L 5.09375 0 
L 8.59375 0 
L 12.09375 3.90625 
C 16.203125 0.59375 20.796875 -1 25.796875 -1 
C 35.59375 -1 42.09375 5.078125 42.09375 14.34375 
C 42.09375 18.71875 40.703125 22.09375 37.90625 24.390625 
C 35.5 26.484375 33.5 27.28125 27.40625 28.5625 
L 22.40625 29.671875 
C 16.90625 30.859375 16.90625 30.859375 15.09375 31.859375 
C 12.90625 32.859375 11.59375 34.9375 11.59375 37.140625 
C 11.59375 41.109375 15.40625 44 20.90625 44 
C 24.703125 44 27.796875 42.703125 30.59375 40.015625 
C 32.796875 37.8125 33.90625 35.828125 35.5 31.234375 
L 39 31.234375 
z
" id="Century_Schoolbook_L_Roman-115"/>
     </defs>
     <g transform="translate(194.34225 273.24577)scale(0.18 -0.18)">
      <use transform="translate(0 0.343476)scale(0.996264)" xlink:href="#Century_Schoolbook_L_Roman-84"/>
      <use transform="translate(66.450031 0.343476)scale(0.996264)" xlink:href="#Century_Schoolbook_L_Roman-105"/>
      <use transform="translate(97.831344 0.343476)scale(0.996264)" xlink:href="#Century_Schoolbook_L_Roman-109"/>
      <use transform="translate(186.398251 0.343476)scale(0.996264)" xlink:href="#Century_Schoolbook_L_Roman-101"/>
      <use transform="translate(263.906621 0.343476)scale(0.996264)" xlink:href="#Century_Schoolbook_L_Roman-83"/>
      <use transform="translate(326.6706 0.343476)scale(0.996264)" xlink:href="#Century_Schoolbook_L_Roman-101"/>
      <use transform="translate(376.4838 0.343476)scale(0.996264)" xlink:href="#Century_Schoolbook_L_Roman-114"/>
      <use transform="translate(420.717369 0.343476)scale(0.996264)" xlink:href="#Century_Schoolbook_L_Roman-105"/>
      <use transform="translate(452.098682 0.343476)scale(0.996264)" xlink:href="#Century_Schoolbook_L_Roman-101"/>
      <use transform="translate(501.911883 0.343476)scale(0.996264)" xlink:href="#Century_Schoolbook_L_Roman-115"/>
     </g>
    </g>
   </g>
   <g id="matplotlib.axis_2">
    <g id="ytick_1">
     <g id="line2d_6">
      <defs>
       <path d="M 0 0 
L -3.5 0 
" id="mb2ecc1f4ae" style="stroke:#000000;stroke-width:0.8;"/>
      </defs>
      <g>
       <use style="stroke:#000000;stroke-width:0.8;" x="70.22116" xlink:href="#mb2ecc1f4ae" y="230.88"/>
      </g>
     </g>
     <g id="text_7">
      <!-- $2.25$ -->
      <defs>
       <path d="M 18.40625 4.796875 
C 18.40625 7.6875 16 9.671875 13.59375 9.671875 
C 10.703125 9.671875 8.703125 7.28125 8.703125 4.890625 
C 8.703125 2 11.09375 0 13.5 0 
C 16.40625 0 18.40625 2.390625 18.40625 4.796875 
z
" id="CMMI12-58"/>
      </defs>
      <g transform="translate(33.56 237.548975)scale(0.18 -0.18)">
       <use transform="scale(0.996264)" xlink:href="#CMR17-50"/>
       <use transform="translate(45.690477 0)scale(0.996264)" xlink:href="#CMMI12-58"/>
       <use transform="translate(72.787654 0)scale(0.996264)" xlink:href="#CMR17-50"/>
       <use transform="translate(118.478131 0)scale(0.996264)" xlink:href="#CMR17-53"/>
      </g>
     </g>
    </g>
    <g id="ytick_2">
     <g id="line2d_7">
      <g>
       <use style="stroke:#000000;stroke-width:0.8;" x="70.22116" xlink:href="#mb2ecc1f4ae" y="194.233659"/>
      </g>
     </g>
     <g id="text_8">
      <!-- $2.50$ -->
      <g transform="translate(33.56 200.902634)scale(0.18 -0.18)">
       <use transform="scale(0.996264)" xlink:href="#CMR17-50"/>
       <use transform="translate(45.690477 0)scale(0.996264)" xlink:href="#CMMI12-58"/>
       <use transform="translate(72.787654 0)scale(0.996264)" xlink:href="#CMR17-53"/>
       <use transform="translate(118.478131 0)scale(0.996264)" xlink:href="#CMR17-48"/>
      </g>
     </g>
    </g>
    <g id="ytick_3">
     <g id="line2d_8">
      <g>
       <use style="stroke:#000000;stroke-width:0.8;" x="70.22116" xlink:href="#mb2ecc1f4ae" y="157.587317"/>
      </g>
     </g>
     <g id="text_9">
      <!-- $2.75$ -->
      <defs>
       <path d="M 45.09375 61.578125 
L 45.09375 63.765625 
L 21.59375 63.765625 
C 9.90625 63.765625 9.703125 65.078125 9.296875 67 
L 7.5 67 
L 4.59375 48.34375 
L 6.40625 48.34375 
C 6.703125 50.234375 7.40625 55.3125 8.59375 57.203125 
C 9.203125 58 16.59375 58 18.296875 58 
L 40.296875 58 
L 29.203125 41.578125 
C 21.796875 30.53125 16.703125 15.609375 16.703125 2.578125 
C 16.703125 1.390625 16.703125 -2 20.296875 -2 
C 23.90625 -2 23.90625 1.390625 23.90625 2.671875 
L 23.90625 7.265625 
C 23.90625 23.5625 26.703125 34.3125 31.296875 41.1875 
z
" id="CMR17-55"/>
      </defs>
      <g transform="translate(33.56 164.256292)scale(0.18 -0.18)">
       <use transform="scale(0.996264)" xlink:href="#CMR17-50"/>
       <use transform="translate(45.690477 0)scale(0.996264)" xlink:href="#CMMI12-58"/>
       <use transform="translate(72.787654 0)scale(0.996264)" xlink:href="#CMR17-55"/>
       <use transform="translate(118.478131 0)scale(0.996264)" xlink:href="#CMR17-53"/>
      </g>
     </g>
    </g>
    <g id="ytick_4">
     <g id="line2d_9">
      <g>
       <use style="stroke:#000000;stroke-width:0.8;" x="70.22116" xlink:href="#mb2ecc1f4ae" y="120.940976"/>
      </g>
     </g>
     <g id="text_10">
      <!-- $3.00$ -->
      <g transform="translate(33.56 127.609951)scale(0.18 -0.18)">
       <use transform="scale(0.996264)" xlink:href="#CMR17-51"/>
       <use transform="translate(45.690477 0)scale(0.996264)" xlink:href="#CMMI12-58"/>
       <use transform="translate(72.787654 0)scale(0.996264)" xlink:href="#CMR17-48"/>
       <use transform="translate(118.478131 0)scale(0.996264)" xlink:href="#CMR17-48"/>
      </g>
     </g>
    </g>
    <g id="ytick_5">
     <g id="line2d_10">
      <g>
       <use style="stroke:#000000;stroke-width:0.8;" x="70.22116" xlink:href="#mb2ecc1f4ae" y="84.294634"/>
      </g>
     </g>
     <g id="text_11">
      <!-- $3.25$ -->
      <g transform="translate(33.56 90.963609)scale(0.18 -0.18)">
       <use transform="scale(0.996264)" xlink:href="#CMR17-51"/>
       <use transform="translate(45.690477 0)scale(0.996264)" xlink:href="#CMMI12-58"/>
       <use transform="translate(72.787654 0)scale(0.996264)" xlink:href="#CMR17-50"/>
       <use transform="translate(118.478131 0)scale(0.996264)" xlink:href="#CMR17-53"/>
      </g>
     </g>
    </g>
    <g id="ytick_6">
     <g id="line2d_11">
      <g>
       <use style="stroke:#000000;stroke-width:0.8;" x="70.22116" xlink:href="#mb2ecc1f4ae" y="47.648293"/>
      </g>
     </g>
     <g id="text_12">
      <!-- $3.50$ -->
      <g transform="translate(33.56 54.317268)scale(0.18 -0.18)">
       <use transform="scale(0.996264)" xlink:href="#CMR17-51"/>
       <use transform="translate(45.690477 0)scale(0.996264)" xlink:href="#CMMI12-58"/>
       <use transform="translate(72.787654 0)scale(0.996264)" xlink:href="#CMR17-53"/>
       <use transform="translate(118.478131 0)scale(0.996264)" xlink:href="#CMR17-48"/>
      </g>
     </g>
    </g>
    <g id="text_13">
     <!-- Peak Value -->
     <defs>
      <path d="M 24.796875 32 
L 36.09375 32 
C 45.09375 32 49.796875 32.703125 53.796875 34.59375 
C 60.90625 38 64.90625 44.359375 64.90625 52.25 
C 64.90625 59.84375 61.40625 65.609375 54.796875 68.90625 
C 50.90625 70.90625 44.703125 72 37.796875 72 
L 2.796875 72 
L 2.796875 67.3125 
L 4.59375 67.3125 
C 12.703125 67.3125 13.59375 66.8125 13.59375 62.609375 
L 13.59375 59.734375 
L 13.59375 12.28125 
L 13.59375 9.375 
C 13.59375 5.1875 12.703125 4.6875 4.59375 4.6875 
L 2.796875 4.6875 
L 2.796875 0 
L 36.40625 0 
L 36.40625 4.6875 
L 33.796875 4.6875 
C 25.703125 4.6875 24.796875 5.1875 24.796875 9.375 
L 24.796875 12.265625 
z
M 24.796875 36.703125 
L 24.796875 62.21875 
C 24.796875 66.8125 25.40625 67.3125 30.90625 67.3125 
L 37.296875 67.3125 
C 47.703125 67.3125 52.59375 62.421875 52.59375 51.859375 
C 52.59375 41.59375 47.5 36.703125 36.90625 36.703125 
z
" id="Century_Schoolbook_L_Roman-80"/>
      <path d="M 45.203125 32.578125 
C 45.203125 38.796875 44.09375 41.96875 41.203125 44.34375 
C 37.90625 46.90625 33 48.28125 26.59375 48.28125 
C 15.40625 48.28125 7.09375 43.046875 7.09375 35.921875 
C 7.09375 32.15625 9.40625 29.78125 12.90625 29.78125 
C 16 29.78125 18.296875 31.859375 18.296875 34.8125 
C 18.296875 36.109375 17.796875 37.484375 16.796875 38.875 
C 16.203125 39.546875 16.09375 39.84375 16.09375 40.15625 
C 16.09375 42.21875 20.203125 44 25 44 
C 28.09375 44 31.59375 43.015625 33.203125 41.53125 
C 35.09375 39.953125 35.796875 37.578125 35.796875 33.125 
L 35.796875 29.28125 
C 25.296875 27.484375 22.09375 26.6875 17.203125 24.8125 
C 8.59375 21.609375 4.40625 16.9375 4.40625 10.65625 
C 4.40625 3.578125 10.09375 -1 18.90625 -1 
C 25.796875 -1 32 1.859375 36.296875 7.0625 
C 37.90625 1.984375 40.40625 0 45.09375 0 
C 49.59375 0 54.296875 2.890625 54.296875 5.78125 
C 54.296875 6.46875 53.796875 6.96875 53.296875 6.96875 
C 52.90625 6.96875 52.5 6.875 51.796875 6.578125 
C 50.203125 6 49.796875 5.890625 49 5.890625 
C 46.203125 5.890625 45.203125 7.78125 45.203125 12.71875 
z
M 35.796875 20.46875 
C 35.796875 14.46875 35.5 13.078125 33.796875 10.484375 
C 31.296875 6.78125 26.703125 4.296875 22.40625 4.296875 
C 17.90625 4.296875 14.5 7.59375 14.5 12.078125 
C 14.5 16.265625 16.59375 19.265625 21 21.359375 
C 24.09375 22.75 28 23.75 35.796875 25.046875 
z
" id="Century_Schoolbook_L_Roman-97"/>
      <path d="M 19.90625 24.203125 
L 19.90625 73 
L 1.40625 73 
L 1.40625 68.21875 
L 6.203125 68.21875 
C 9.90625 68.21875 10.5 67.515625 10.5 63.21875 
L 10.5 12.28125 
L 10.5 8.28125 
C 10.5 4.296875 9.40625 3.59375 3 3.59375 
L 2.59375 3.59375 
L 2.59375 0 
L 27.90625 0 
L 27.90625 3.59375 
L 27.5 3.59375 
C 21 3.59375 19.90625 4.296875 19.90625 8.296875 
L 19.90625 12.296875 
L 19.90625 18 
L 26 23.796875 
L 37.90625 7.109375 
C 38.296875 6.390625 38.59375 5.78125 38.59375 5.296875 
C 38.59375 4 37.5 3.59375 34.203125 3.59375 
L 32.296875 3.59375 
L 32.296875 0 
L 58.703125 0 
L 58.703125 3.59375 
C 53.09375 4.09375 51.09375 5.296875 47 10.5 
L 32.796875 29.890625 
L 37.296875 34.296875 
C 43.09375 40 47.40625 42.203125 54.203125 43 
L 54.203125 46.59375 
L 27.90625 46.59375 
L 27.90625 43 
L 31 43 
C 34.203125 43 35.703125 42.390625 35.703125 41.09375 
C 35.703125 40 35 38.796875 33.40625 37.1875 
z
" id="Century_Schoolbook_L_Roman-107"/>
      <path d="M 39.296875 15.40625 
L 21 61.8125 
C 20.5 63.015625 20.203125 64.21875 20.203125 64.8125 
C 20.203125 66.609375 21.90625 67.3125 26.40625 67.3125 
L 30.40625 67.3125 
L 30.40625 72 
L -0.796875 72 
L -0.796875 67.3125 
L 1.203125 67.3125 
C 5.703125 67.3125 7 66.3125 8.90625 61.703125 
L 34.203125 -1.6875 
L 38.203125 -1.6875 
L 61.203125 57.515625 
C 64.203125 65.3125 66.40625 67.3125 72.09375 67.3125 
L 73.09375 67.3125 
L 73.09375 72 
L 46 72 
L 46 67.3125 
L 47.90625 67.3125 
C 53 67.3125 56 65.3125 56 62.109375 
C 56 60.71875 55.5 58.421875 54.796875 56.53125 
z
" id="Century_Schoolbook_L_Roman-86"/>
      <path d="M 20.40625 73 
L 1.90625 73 
L 1.90625 68.21875 
L 6.796875 68.21875 
C 10.40625 68.21875 11 67.515625 11 63.21875 
L 11 12.28125 
L 11 8.28125 
C 11 4.296875 9.90625 3.59375 3.5 3.59375 
L 2.796875 3.59375 
L 2.796875 0 
L 28.703125 0 
L 28.703125 3.59375 
L 28 3.59375 
C 21.5 3.59375 20.40625 4.296875 20.40625 8.25 
L 20.40625 12.21875 
z
" id="Century_Schoolbook_L_Roman-108"/>
      <path d="M 41.203125 0 
L 59.40625 0 
L 59.40625 4.703125 
L 56.90625 4.703125 
C 51.40625 4.703125 50.59375 5.59375 50.59375 11.953125 
L 50.59375 46.78125 
L 31.796875 46.78125 
L 31.796875 42 
L 36.90625 42 
C 40.59375 42 41.203125 41.296875 41.203125 36.953125 
L 41.203125 24.5625 
C 41.203125 18.8125 40.59375 15.484375 39.09375 12.15625 
C 37 7.71875 33 5.09375 28.09375 5.09375 
C 25 5.09375 22.40625 6.1875 21.09375 8.171875 
C 19.796875 10.046875 19.59375 11.046875 19.59375 16.5 
L 19.59375 46.78125 
L 2.09375 46.78125 
L 2.09375 42 
L 5.90625 42 
C 9.59375 42 10.203125 41.296875 10.203125 36.953125 
L 10.203125 15.21875 
C 10.203125 10.078125 10.59375 7.765625 12.09375 5.453125 
C 14.796875 1.3125 19.59375 -1 25.59375 -1 
C 32.203125 -1 36.796875 1.71875 41.203125 8.125 
z
" id="Century_Schoolbook_L_Roman-117"/>
     </defs>
     <g transform="translate(24.87013 169.283535)rotate(-90)scale(0.18 -0.18)">
      <use transform="translate(0 0.343476)scale(0.996264)" xlink:href="#Century_Schoolbook_L_Roman-80"/>
      <use transform="translate(62.763873 0.343476)scale(0.996264)" xlink:href="#Century_Schoolbook_L_Roman-101"/>
      <use transform="translate(112.577073 0.343476)scale(0.996264)" xlink:href="#Century_Schoolbook_L_Roman-97"/>
      <use transform="translate(167.96875 0.343476)scale(0.996264)" xlink:href="#Century_Schoolbook_L_Roman-107"/>
      <use transform="translate(254.741649 0.343476)scale(0.996264)" xlink:href="#Century_Schoolbook_L_Roman-86"/>
      <use transform="translate(318.203572 0.343476)scale(0.996264)" xlink:href="#Century_Schoolbook_L_Roman-97"/>
      <use transform="translate(373.595249 0.343476)scale(0.996264)" xlink:href="#Century_Schoolbook_L_Roman-108"/>
      <use transform="translate(404.976562 0.343476)scale(0.996264)" xlink:href="#Century_Schoolbook_L_Roman-117"/>
      <use transform="translate(465.848193 0.343476)scale(0.996264)" xlink:href="#Century_Schoolbook_L_Roman-101"/>
     </g>
    </g>
   </g>
   <g id="line2d_12">
    <path clip-path="url(#p5a0d61c66c)" d="M 70.22116 161.251951 
L 76.106903 146.74 
L 81.992646 118.009268 
L 87.878389 120.940976 
L 93.764132 138.238049 
L 99.649875 135.306341 
L 105.535618 115.224146 
L 111.421361 152.603415 
L 117.307104 123.872683 
L 123.192847 103.643902 
L 129.078591 143.954878 
L 134.964334 106.57561 
L 140.850077 103.643902 
L 146.73582 83.561707 
L 152.621563 149.671707 
L 158.507306 149.671707 
L 164.393049 129.589512 
L 170.278792 92.210244 
L 176.164535 149.671707 
L 182.050278 120.940976 
L 187.936021 106.57561 
L 193.821764 69.196341 
L 199.707507 135.306341 
L 205.59325 109.507317 
L 211.478993 109.507317 
L 217.364736 149.671707 
L 223.250479 103.643902 
L 229.136222 112.292439 
L 235.021965 129.589512 
L 240.907708 149.671707 
L 246.793452 115.224146 
L 252.679195 149.671707 
L 258.564938 112.292439 
L 264.450681 141.023171 
L 270.336424 112.292439 
L 276.222167 97.927073 
L 282.10791 149.671707 
L 287.993653 138.238049 
L 293.879396 152.603415 
L 299.765139 149.671707 
L 305.650882 109.507317 
L 311.536625 129.589512 
L 317.422368 152.603415 
L 323.308111 152.603415 
L 329.193854 106.57561 
L 335.079597 126.657805 
L 340.96534 152.603415 
L 346.851083 152.603415 
L 352.736826 126.657805 
L 358.622569 115.224146 
L 364.508313 152.603415 
L 370.394056 100.85878 
L 376.279799 152.603415 
L 382.165542 112.292439 
L 388.051285 166.96878 
L 393.937028 169.753902 
L 399.822771 169.753902 
L 405.708514 169.753902 
L 411.594257 169.753902 
L 417.48 169.753902 
" style="fill:none;stroke:#e41a1c;stroke-linecap:square;stroke-width:2;"/>
   </g>
   <g id="line2d_13">
    <path clip-path="url(#p5a0d61c66c)" d="M 70.22116 166.96878 
L 76.106903 149.671707 
L 81.992646 126.657805 
L 87.878389 143.954878 
L 93.764132 149.671707 
L 99.649875 106.57561 
L 105.535618 135.306341 
L 111.421361 149.671707 
L 117.307104 72.128049 
L 123.192847 109.507317 
L 129.078591 152.603415 
L 134.964334 149.671707 
L 140.850077 112.292439 
L 146.73582 95.141951 
L 152.621563 152.603415 
L 158.507306 132.374634 
L 164.393049 149.671707 
L 170.278792 115.224146 
L 176.164535 89.278537 
L 182.050278 120.940976 
L 187.936021 100.85878 
L 193.821764 149.671707 
L 199.707507 66.264634 
L 205.59325 92.210244 
L 211.478993 152.603415 
L 217.364736 152.603415 
L 223.250479 103.643902 
L 229.136222 106.57561 
L 235.021965 146.74 
L 240.907708 141.023171 
L 246.793452 138.238049 
L 252.679195 118.009268 
L 258.564938 141.023171 
L 264.450681 132.374634 
L 270.336424 129.589512 
L 276.222167 129.589512 
L 282.10791 97.927073 
L 287.993653 135.306341 
L 293.879396 143.954878 
L 299.765139 152.603415 
L 305.650882 138.238049 
L 311.536625 112.292439 
L 317.422368 152.603415 
L 323.308111 149.671707 
L 329.193854 143.954878 
L 335.079597 138.238049 
L 340.96534 123.872683 
L 346.851083 146.74 
L 352.736826 118.009268 
L 358.622569 132.374634 
L 364.508313 112.292439 
L 370.394056 112.292439 
L 376.279799 149.671707 
L 382.165542 146.74 
L 388.051285 118.009268 
L 393.937028 129.589512 
L 399.822771 169.753902 
L 405.708514 169.753902 
L 411.594257 169.753902 
L 417.48 169.753902 
" style="fill:none;stroke:#377eb8;stroke-dasharray:7.4,3.2;stroke-dashoffset:0;stroke-linecap:round;stroke-width:2;"/>
   </g>
   <g id="patch_3">
    <path d="M 70.22116 230.88 
L 70.22116 14.52 
" style="fill:none;stroke:#000000;stroke-linecap:square;stroke-linejoin:miter;stroke-width:0.8;"/>
   </g>
   <g id="patch_4">
    <path d="M 417.48 230.88 
L 417.48 14.52 
" style="fill:none;"/>
   </g>
   <g id="patch_5">
    <path d="M 70.22116 230.88 
L 417.48 230.88 
" style="fill:none;stroke:#000000;stroke-linecap:square;stroke-linejoin:miter;stroke-width:0.8;"/>
   </g>
   <g id="patch_6">
    <path d="M 70.22116 14.52 
L 417.48 14.52 
" style="fill:none;"/>
   </g>
   <g id="legend_1">
    <g id="patch_7">
     <path d="M 138.60155 44.05585 
L 412.68 44.05585 
Q 415.88 44.05585 415.88 40.85585 
L 415.88 19.32 
Q 415.88 16.12 412.68 16.12 
L 138.60155 16.12 
Q 135.40155 16.12 135.40155 19.32 
L 135.40155 40.85585 
Q 135.40155 44.05585 138.60155 44.05585 
z
" style="fill:#ffffff;stroke:#000000;stroke-linejoin:miter;"/>
    </g>
    <g id="line2d_14">
     <path d="M 141.80155 28.77596 
L 173.80155 28.77596 
" style="fill:none;stroke:#e41a1c;stroke-linecap:square;stroke-width:2;"/>
    </g>
    <g id="line2d_15"/>
    <g id="text_14">
     <!-- Not Cutting -->
     <defs>
      <path d="M 22.5 72 
L 1.90625 72 
L 1.90625 67.3125 
L 4.40625 67.3125 
C 9.5 67.3125 11.796875 66.5 13.59375 64.015625 
L 13.59375 21.5 
C 13.59375 7.78125 11.59375 4.890625 2 4.890625 
L 2 0 
L 30.5 0 
L 30.5 4.890625 
C 21 4.890625 19 7.796875 19 21.5 
L 19 58.640625 
L 63.59375 -1.6875 
L 67.796875 -1.6875 
L 67.796875 50.59375 
C 67.796875 64.390625 69.796875 67.3125 79.40625 67.3125 
L 79.40625 72 
L 50.90625 72 
L 50.90625 67.3125 
C 60.40625 67.3125 62.40625 64.40625 62.40625 50.625 
L 62.40625 19.046875 
z
" id="Century_Schoolbook_L_Roman-78"/>
      <path d="M 25.203125 48.28125 
C 13 48.28125 3.40625 37.453125 3.40625 23.546875 
C 3.40625 9.9375 13 -1 25 -1 
C 37 -1 46.59375 9.9375 46.59375 23.640625 
C 46.59375 37.25 37 48.28125 25.203125 48.28125 
z
M 25.203125 44 
C 32.203125 44 36.09375 36.75 36.09375 23.640625 
C 36.09375 10.453125 32.203125 3.296875 25 3.296875 
C 17.796875 3.296875 13.90625 10.453125 13.90625 23.546875 
C 13.90625 37.046875 17.703125 44 25.203125 44 
z
" id="Century_Schoolbook_L_Roman-111"/>
      <path d="M 19.40625 47 
L 19.40625 67 
L 15.296875 67 
C 14.296875 53.875 9.90625 47.1875 1.796875 46.59375 
L 1.796875 42.703125 
L 10 42.703125 
L 10 17.265625 
C 10 10.28125 10.203125 7.78125 11.203125 5.484375 
C 12.796875 1.296875 16.796875 -1 22.59375 -1 
C 26.5 -1 29.90625 0.203125 32.203125 2.390625 
C 35.5 5.59375 37.40625 10.875 37.40625 16.375 
C 37.40625 16.96875 37.40625 17.671875 37.296875 18.671875 
L 33.09375 18.671875 
C 32.796875 9.6875 30.203125 5.09375 25.296875 5.09375 
C 23 5.09375 21 6.28125 20.296875 7.984375 
C 19.703125 9.375 19.40625 11.875 19.40625 15.46875 
L 19.40625 42.703125 
L 34.09375 42.703125 
L 34.09375 47 
z
" id="Century_Schoolbook_L_Roman-116"/>
      <path d="M 63.90625 72 
L 60.09375 72 
L 56.09375 66.015625 
C 49 71.203125 45.09375 72.703125 38.40625 72.703125 
C 28.703125 72.703125 20.703125 68.8125 13.90625 60.78125 
C 7.5 53.234375 4.5 44.890625 4.5 34.65625 
C 4.5 13.296875 18.59375 -2 38.296875 -2 
C 54.296875 -2 64.5 7.34375 66.796875 24.015625 
L 62.09375 24.8125 
C 61.09375 19.546875 59.90625 15.984375 58.09375 13.015625 
C 54 6.171875 47.59375 2.6875 39.5 2.6875 
C 24.703125 2.6875 17.703125 12.90625 17.703125 34.265625 
C 17.703125 45.46875 19.203125 53.015625 22.59375 58.96875 
C 25.703125 64.53125 31.90625 68 38.296875 68 
C 45.296875 68 51.5 64.328125 55.296875 57.96875 
C 57.203125 54.6875 58.703125 50.8125 61 43.171875 
L 65.40625 43.171875 
z
" id="Century_Schoolbook_L_Roman-67"/>
      <path d="M 20 46 
L 2.703125 46 
L 2.703125 41.21875 
L 6.296875 41.21875 
C 10 41.21875 10.59375 40.515625 10.59375 36.203125 
L 10.59375 12.296875 
L 10.59375 8.296875 
C 10.59375 4.296875 9.5 3.59375 3.09375 3.59375 
L 2.703125 3.59375 
L 2.703125 0 
L 28 0 
L 28 3.59375 
L 27.59375 3.59375 
C 21.09375 3.59375 20 4.296875 20 8.28125 
L 20 12.28125 
L 20 22.65625 
C 20 27.546875 20.703125 32.03125 21.796875 34.328125 
C 23.90625 38.828125 28.40625 41.921875 32.703125 41.921875 
C 35.296875 41.921875 38.296875 40.421875 39.796875 38.421875 
C 41.296875 36.328125 42 33.234375 42 28.4375 
L 42 12.28125 
L 42 8.28125 
C 42 4.296875 40.90625 3.59375 34.40625 3.59375 
L 34 3.59375 
L 34 0 
L 59.296875 0 
L 59.296875 3.59375 
L 58.90625 3.59375 
C 52.5 3.59375 51.40625 4.296875 51.40625 8.28125 
L 51.40625 12.28125 
L 51.40625 27.953125 
C 51.40625 35.125 51.09375 36.921875 49.296875 40.328125 
C 46.796875 45.109375 41.703125 48 35.796875 48 
C 29.40625 48 24.40625 45.046875 20 38.515625 
z
" id="Century_Schoolbook_L_Roman-110"/>
      <path d="M 19.59375 7.59375 
C 14.09375 7.59375 13.796875 7.703125 12.59375 8.46875 
C 11.90625 8.90625 11.40625 10.109375 11.40625 11.296875 
C 11.40625 14.578125 14.09375 16 20.796875 16 
C 30.296875 16 31.796875 16.203125 35.09375 17.6875 
C 41.09375 20.359375 44.5 25.484375 44.5 31.984375 
C 44.5 35.921875 43.59375 38.390625 40.796875 41.640625 
C 42.5 43.40625 43.40625 44 44.203125 44 
C 44.703125 44 45 43.6875 45.203125 42.625 
C 45.59375 40.265625 47.203125 39 49.703125 39 
C 52.203125 39 54.203125 41.09375 54.203125 43.78125 
C 54.203125 47.1875 51.5 49.578125 47.59375 49.578125 
C 44.40625 49.578125 42.59375 48.5625 38 44.296875 
C 33.796875 47.09375 30.59375 48.078125 25.59375 48.078125 
C 13.703125 48.078125 5.90625 41.625 5.90625 31.8125 
C 5.90625 26.03125 9.09375 21.03125 14.296875 18.6875 
C 7.59375 17.15625 4.796875 14.09375 4.796875 8.46875 
C 4.796875 3.984375 6.796875 1.328125 11.5 -0.296875 
C 5.296875 -2.484375 2.296875 -5.671875 2.296875 -9.75 
C 2.296875 -16.3125 10 -20 23.40625 -20 
C 40.09375 -20 48.5 -14.71875 48.5 -4.25 
C 48.5 0.71875 46.203125 4.6875 42.5 6.1875 
C 39.90625 7.1875 36.703125 7.59375 29.796875 7.59375 
z
M 25.5 44 
C 31.796875 44 35.296875 39.671875 35.296875 32.09375 
C 35.296875 24.421875 31.5 19.78125 25.09375 19.78125 
C 18.90625 19.78125 15 24.421875 15 31.796875 
C 15 39.5625 18.796875 44 25.5 44 
z
M 24.59375 -1 
C 32.90625 -1 33.5 -1 35 -1.1875 
C 39 -1.59375 41.5 -3.78125 41.5 -6.953125 
C 41.5 -12.625 35 -15.90625 23.796875 -15.90625 
C 15.40625 -15.90625 10.59375 -13.421875 10.59375 -8.953125 
C 10.59375 -5.671875 12.40625 -3.46875 17.203125 -1 
z
" id="Century_Schoolbook_L_Roman-103"/>
     </defs>
     <g transform="translate(186.60155 34.37596)scale(0.16 -0.16)">
      <use transform="translate(0 -1.570628)scale(0.996264)" xlink:href="#Century_Schoolbook_L_Roman-78"/>
      <use transform="translate(81.194513 -1.570628)scale(0.996264)" xlink:href="#Century_Schoolbook_L_Roman-111"/>
      <use transform="translate(131.007714 -1.570628)scale(0.996264)" xlink:href="#Century_Schoolbook_L_Roman-116"/>
      <use transform="translate(197.45659 -1.570628)scale(0.996264)" xlink:href="#Century_Schoolbook_L_Roman-67"/>
      <use transform="translate(269.386575 -1.570628)scale(0.996264)" xlink:href="#Century_Schoolbook_L_Roman-117"/>
      <use transform="translate(330.258205 -1.570628)scale(0.996264)" xlink:href="#Century_Schoolbook_L_Roman-116"/>
      <use transform="translate(369.011912 -1.570628)scale(0.996264)" xlink:href="#Century_Schoolbook_L_Roman-116"/>
      <use transform="translate(407.765618 -1.570628)scale(0.996264)" xlink:href="#Century_Schoolbook_L_Roman-105"/>
      <use transform="translate(439.146931 -1.570628)scale(0.996264)" xlink:href="#Century_Schoolbook_L_Roman-110"/>
      <use transform="translate(500.018561 -1.570628)scale(0.996264)" xlink:href="#Century_Schoolbook_L_Roman-103"/>
     </g>
    </g>
    <g id="line2d_16">
     <path d="M 307.49654 28.77596 
L 339.49654 28.77596 
" style="fill:none;stroke:#377eb8;stroke-dasharray:7.4,3.2;stroke-dashoffset:0;stroke-linecap:round;stroke-width:2;"/>
    </g>
    <g id="line2d_17"/>
    <g id="text_15">
     <!-- Cutting -->
     <g transform="translate(352.29654 34.37596)scale(0.16 -0.16)">
      <use transform="translate(0 -1.570628)scale(0.996264)" xlink:href="#Century_Schoolbook_L_Roman-67"/>
      <use transform="translate(71.929985 -1.570628)scale(0.996264)" xlink:href="#Century_Schoolbook_L_Roman-117"/>
      <use transform="translate(132.801616 -1.570628)scale(0.996264)" xlink:href="#Century_Schoolbook_L_Roman-116"/>
      <use transform="translate(171.555322 -1.570628)scale(0.996264)" xlink:href="#Century_Schoolbook_L_Roman-116"/>
      <use transform="translate(210.309028 -1.570628)scale(0.996264)" xlink:href="#Century_Schoolbook_L_Roman-105"/>
      <use transform="translate(241.690341 -1.570628)scale(0.996264)" xlink:href="#Century_Schoolbook_L_Roman-110"/>
      <use transform="translate(302.561972 -1.570628)scale(0.996264)" xlink:href="#Century_Schoolbook_L_Roman-103"/>
     </g>
    </g>
   </g>
  </g>
 </g>
 <defs>
  <clipPath id="p5a0d61c66c">
   <rect height="216.36" width="347.25884" x="70.22116" y="14.52"/>
  </clipPath>
 </defs>
</svg>
