<?xml version="1.0" encoding="utf-8" standalone="no"?>
<!DOCTYPE svg PUBLIC "-//W3C//DTD SVG 1.1//EN"
  "http://www.w3.org/Graphics/SVG/1.1/DTD/svg11.dtd">
<!-- Created with matplotlib (https://matplotlib.org/) -->
<svg height="288pt" version="1.1" viewBox="0 0 432 288" width="432pt" xmlns="http://www.w3.org/2000/svg" xmlns:xlink="http://www.w3.org/1999/xlink">
 <defs>
  <style type="text/css">
*{stroke-linecap:butt;stroke-linejoin:round;}
  </style>
 </defs>
 <g id="figure_1">
  <g id="patch_1">
   <path d="M 0 288 
L 432 288 
L 432 0 
L 0 0 
z
" style="fill:#ffffff;"/>
  </g>
  <g id="axes_1">
   <g id="patch_2">
    <path d="M 100.73146 230.88 
L 417.48 230.88 
L 417.48 14.52 
L 100.73146 14.52 
z
" style="fill:#ffffff;"/>
   </g>
   <g id="matplotlib.axis_1">
    <g id="xtick_1">
     <g id="line2d_1">
      <defs>
       <path d="M 0 0 
L 0 3.5 
" id="m6f2eaf5bd6" style="stroke:#000000;stroke-width:0.8;"/>
      </defs>
      <g>
       <use style="stroke:#000000;stroke-width:0.8;" x="153.522883" xlink:href="#m6f2eaf5bd6" y="230.88"/>
      </g>
     </g>
     <g id="text_1">
      <!-- $10$ -->
      <defs>
       <path d="M 26.59375 63.40625 
C 26.59375 65.5 26.5 65.5 25.09375 65.5 
C 21.203125 61.1875 15.296875 59.796875 9.703125 59.796875 
C 9.40625 59.796875 8.90625 59.796875 8.796875 59.5 
C 8.703125 59.296875 8.703125 59.09375 8.703125 57 
C 11.796875 57 17 57.59375 21 59.984375 
L 21 7.203125 
C 21 3.6875 20.796875 2.5 12.203125 2.5 
L 9.203125 2.5 
L 9.203125 0 
C 14 0 19 0 23.796875 0 
C 28.59375 0 33.59375 0 38.40625 0 
L 38.40625 2.5 
L 35.40625 2.5 
C 26.796875 2.5 26.59375 3.59375 26.59375 7.15625 
z
" id="CMR17-49"/>
       <path d="M 42 31.640625 
C 42 37.75 41.90625 48.125 37.703125 56.109375 
C 34 63.109375 28.09375 65.59375 22.90625 65.59375 
C 18.09375 65.59375 12 63.40625 8.203125 56.203125 
C 4.203125 48.71875 3.796875 39.4375 3.796875 31.640625 
C 3.796875 25.953125 3.90625 17.28125 7 9.671875 
C 11.296875 -0.609375 19 -2 22.90625 -2 
C 27.5 -2 34.5 -0.109375 38.59375 9.375 
C 41.59375 16.28125 42 24.359375 42 31.640625 
z
M 22.90625 -0.40625 
C 16.5 -0.40625 12.703125 5.078125 11.296875 12.6875 
C 10.203125 18.5625 10.203125 27.15625 10.203125 32.75 
C 10.203125 40.4375 10.203125 46.828125 11.5 52.921875 
C 13.40625 61.390625 19 64 22.90625 64 
C 27 64 32.296875 61.296875 34.203125 53.125 
C 35.5 47.4375 35.59375 40.734375 35.59375 32.75 
C 35.59375 26.25 35.59375 18.265625 34.40625 12.375 
C 32.296875 1.484375 26.40625 -0.40625 22.90625 -0.40625 
z
" id="CMR17-48"/>
      </defs>
      <g transform="translate(145.267758 251.21795)scale(0.18 -0.18)">
       <use transform="scale(0.996264)" xlink:href="#CMR17-49"/>
       <use transform="translate(45.690477 0)scale(0.996264)" xlink:href="#CMR17-48"/>
      </g>
     </g>
    </g>
    <g id="xtick_2">
     <g id="line2d_2">
      <g>
       <use style="stroke:#000000;stroke-width:0.8;" x="206.314307" xlink:href="#m6f2eaf5bd6" y="230.88"/>
      </g>
     </g>
     <g id="text_2">
      <!-- $20$ -->
      <defs>
       <path d="M 41.703125 15.453125 
L 39.90625 15.453125 
C 38.90625 8.375 38.09375 7.171875 37.703125 6.5625 
C 37.203125 5.765625 30 5.765625 28.59375 5.765625 
L 9.40625 5.765625 
C 13 9.671875 20 16.75 28.5 24.953125 
C 34.59375 30.734375 41.703125 37.53125 41.703125 47.421875 
C 41.703125 59.21875 32.296875 66 21.796875 66 
C 10.796875 66 4.09375 56.3125 4.09375 47.34375 
C 4.09375 43.4375 7 42.9375 8.203125 42.9375 
C 9.203125 42.9375 12.203125 43.546875 12.203125 47.03125 
C 12.203125 50.109375 9.59375 51 8.203125 51 
C 7.59375 51 7 50.90625 6.59375 50.703125 
C 8.5 59.21875 14.296875 63.40625 20.40625 63.40625 
C 29.09375 63.40625 34.796875 56.515625 34.796875 47.421875 
C 34.796875 38.734375 29.703125 31.25 24 24.75 
L 4.09375 2.28125 
L 4.09375 0 
L 39.296875 0 
z
" id="CMR17-50"/>
      </defs>
      <g transform="translate(198.059182 251.21795)scale(0.18 -0.18)">
       <use transform="scale(0.996264)" xlink:href="#CMR17-50"/>
       <use transform="translate(45.690477 0)scale(0.996264)" xlink:href="#CMR17-48"/>
      </g>
     </g>
    </g>
    <g id="xtick_3">
     <g id="line2d_3">
      <g>
       <use style="stroke:#000000;stroke-width:0.8;" x="259.10573" xlink:href="#m6f2eaf5bd6" y="230.88"/>
      </g>
     </g>
     <g id="text_3">
      <!-- $30$ -->
      <defs>
       <path d="M 22.09375 33.703125 
C 31 33.703125 34.90625 25.96875 34.90625 17.03125 
C 34.90625 5 28.5 0.390625 22.703125 0.390625 
C 17.40625 0.390625 8.796875 3.03125 6.09375 10.828125 
C 6.59375 10.625 7.09375 10.625 7.59375 10.625 
C 10 10.625 11.796875 12.21875 11.796875 14.8125 
C 11.796875 17.703125 9.59375 19 7.59375 19 
C 5.90625 19 3.296875 18.203125 3.296875 14.46875 
C 3.296875 5.234375 12.296875 -2 22.90625 -2 
C 34 -2 42.5 6.71875 42.5 16.953125 
C 42.5 26.671875 34.5 33.703125 25 34.796875 
C 32.59375 36.375 39.90625 43.0625 39.90625 52.015625 
C 39.90625 59.6875 32 65.296875 23 65.296875 
C 13.90625 65.296875 5.90625 59.828125 5.90625 52.015625 
C 5.90625 48.59375 8.5 48 9.796875 48 
C 11.90625 48 13.703125 49.296875 13.703125 51.890625 
C 13.703125 54.46875 11.90625 55.765625 9.796875 55.765625 
C 9.40625 55.765625 8.90625 55.765625 8.5 55.578125 
C 11.40625 61.859375 19.296875 63 22.796875 63 
C 26.296875 63 32.90625 61.328125 32.90625 51.875 
C 32.90625 49.109375 32.5 44.1875 29.09375 39.84375 
C 26.09375 36 22.703125 36 19.40625 35.6875 
C 18.90625 35.6875 16.59375 35.453125 16.203125 35.453125 
C 15.5 35.359375 15.09375 35.265625 15.09375 34.5 
C 15.09375 33.796875 15.203125 33.703125 17.203125 33.703125 
z
" id="CMR17-51"/>
      </defs>
      <g transform="translate(250.850605 251.21795)scale(0.18 -0.18)">
       <use transform="scale(0.996264)" xlink:href="#CMR17-51"/>
       <use transform="translate(45.690477 0)scale(0.996264)" xlink:href="#CMR17-48"/>
      </g>
     </g>
    </g>
    <g id="xtick_4">
     <g id="line2d_4">
      <g>
       <use style="stroke:#000000;stroke-width:0.8;" x="311.897153" xlink:href="#m6f2eaf5bd6" y="230.88"/>
      </g>
     </g>
     <g id="text_4">
      <!-- $40$ -->
      <defs>
       <path d="M 33.59375 64.40625 
C 33.59375 66.5 33.5 66.5 31.703125 66.5 
L 2 19.59375 
L 2 17 
L 27.796875 17 
L 27.796875 7.140625 
C 27.796875 3.5 27.59375 2.5 20.59375 2.5 
L 18.703125 2.5 
L 18.703125 0 
C 21.90625 0 27.296875 0 30.703125 0 
C 34.09375 0 39.5 0 42.703125 0 
L 42.703125 2.5 
L 40.796875 2.5 
C 33.796875 2.5 33.59375 3.5 33.59375 7.140625 
L 33.59375 17 
L 43.796875 17 
L 43.796875 19.59375 
L 33.59375 19.59375 
z
M 28.09375 57.859375 
L 28.09375 19.59375 
L 4 19.59375 
z
" id="CMR17-52"/>
      </defs>
      <g transform="translate(303.642028 251.21795)scale(0.18 -0.18)">
       <use transform="scale(0.996264)" xlink:href="#CMR17-52"/>
       <use transform="translate(45.690477 0)scale(0.996264)" xlink:href="#CMR17-48"/>
      </g>
     </g>
    </g>
    <g id="xtick_5">
     <g id="line2d_5">
      <g>
       <use style="stroke:#000000;stroke-width:0.8;" x="364.688577" xlink:href="#m6f2eaf5bd6" y="230.88"/>
      </g>
     </g>
     <g id="text_5">
      <!-- $50$ -->
      <defs>
       <path d="M 11.40625 57.6875 
C 12.40625 57.28125 16.5 56 20.703125 56 
C 30 56 35.09375 61.109375 38 64.0625 
C 38 64.953125 38 65.5 37.40625 65.5 
C 37.296875 65.5 37.09375 65.5 36.296875 65.046875 
C 32.796875 63.40625 28.703125 62.078125 23.703125 62.078125 
C 20.703125 62.078125 16.203125 62.484375 11.296875 64.671875 
C 10.203125 65.171875 10 65.171875 9.90625 65.171875 
C 9.40625 65.171875 9.296875 65.0625 9.296875 63.078125 
L 9.296875 34.421875 
C 9.296875 32.640625 9.296875 32.140625 10.296875 32.140625 
C 10.796875 32.140625 11 32.34375 11.5 33.03125 
C 14.703125 37.515625 19.09375 39.40625 24.09375 39.40625 
C 27.59375 39.40625 35.09375 37.21875 35.09375 20.140625 
C 35.09375 16.953125 35.09375 11.171875 32.09375 6.578125 
C 29.59375 2.484375 25.703125 0.390625 21.40625 0.390625 
C 14.796875 0.390625 8.09375 5 6.296875 12.71875 
C 6.703125 12.609375 7.5 12.421875 7.90625 12.421875 
C 9.203125 12.421875 11.703125 13.125 11.703125 16.21875 
C 11.703125 18.90625 9.796875 20 7.90625 20 
C 5.59375 20 4.09375 18.59375 4.09375 15.796875 
C 4.09375 7.09375 11 -2 21.59375 -2 
C 31.90625 -2 41.703125 6.875 41.703125 19.75 
C 41.703125 31.71875 33.90625 41 24.203125 41 
C 19.09375 41 14.796875 39.109375 11.40625 35.53125 
z
" id="CMR17-53"/>
      </defs>
      <g transform="translate(356.433452 251.21795)scale(0.18 -0.18)">
       <use transform="scale(0.996264)" xlink:href="#CMR17-53"/>
       <use transform="translate(45.690477 0)scale(0.996264)" xlink:href="#CMR17-48"/>
      </g>
     </g>
    </g>
    <g id="text_6">
     <!-- Time Series -->
     <defs>
      <path d="M 63.296875 72 
L 3.40625 72 
L 1.90625 44.265625 
L 6.203125 44.265625 
C 6.90625 49.25 7.796875 53.046875 8.90625 56.234375 
C 11.5 63.515625 16.296875 67.3125 23.09375 67.3125 
C 26.40625 67.3125 27.796875 66.203125 27.796875 63.71875 
L 27.796875 12.28125 
L 27.796875 9.375 
C 27.796875 5.1875 26.90625 4.6875 18.796875 4.6875 
L 16.203125 4.6875 
L 16.203125 0 
L 50.5 0 
L 50.5 4.6875 
L 47.90625 4.6875 
C 39.90625 4.6875 39 5.1875 39 9.375 
L 39 12.28125 
L 39 63.71875 
C 39 66.203125 40.40625 67.3125 43.703125 67.3125 
C 49.796875 67.3125 54.703125 63.90625 57.203125 57.921875 
C 58.703125 54.25 59.703125 49.953125 60.5 44.265625 
L 64.796875 44.265625 
z
" id="Century_Schoolbook_L_Roman-84"/>
      <path d="M 20.59375 46 
L 1.796875 46 
L 1.796875 41.21875 
L 6.90625 41.21875 
C 10.59375 41.21875 11.203125 40.515625 11.203125 36.203125 
L 11.203125 12.296875 
L 11.203125 8.296875 
C 11.203125 4.296875 10.09375 3.59375 3.703125 3.59375 
L 3 3.59375 
L 3 0 
L 28.90625 0 
L 28.90625 3.59375 
L 28.203125 3.59375 
C 21.703125 3.59375 20.59375 4.28125 20.59375 8.21875 
L 20.59375 12.171875 
z
M 15.90625 71.578125 
C 12.703125 71.578125 10.09375 68.984375 10.09375 65.796875 
C 10.09375 62.703125 12.703125 60 15.796875 60 
C 19.09375 60 21.703125 62.59375 21.703125 65.796875 
C 21.703125 68.984375 19.09375 71.578125 15.90625 71.578125 
z
" id="Century_Schoolbook_L_Roman-105"/>
      <path d="M 20.09375 46 
L 2.296875 46 
L 2.296875 41.21875 
L 6.40625 41.21875 
C 10.09375 41.21875 10.703125 40.515625 10.703125 36.203125 
L 10.703125 12.296875 
L 10.703125 8.40625 
C 10.703125 4.296875 9.59375 3.59375 3.203125 3.59375 
L 2.796875 3.59375 
L 2.796875 0 
L 28 0 
L 28 3.59375 
L 27.59375 3.59375 
C 21.203125 3.59375 20.09375 4.296875 20.09375 8.390625 
L 20.09375 12.28125 
L 20.09375 26.453125 
C 20.09375 35.328125 25 41.921875 31.5 41.921875 
C 34.09375 41.921875 36.90625 40.515625 38.09375 38.625 
C 39.5 36.734375 40.09375 33.828125 40.09375 29.734375 
L 40.09375 12.28125 
L 40.09375 8.28125 
C 40.09375 4.296875 39 3.59375 32.5 3.59375 
L 32.09375 3.59375 
L 32.09375 0 
L 57.40625 0 
L 57.40625 3.59375 
L 57 3.59375 
C 50.59375 3.59375 49.5 4.296875 49.5 8.28125 
L 49.5 12.28125 
L 49.5 25.546875 
C 49.5 35.53125 54 41.921875 61 41.921875 
C 64.296875 41.921875 67 40.015625 68.296875 36.921875 
C 69.203125 34.734375 69.5 32.53125 69.5 28.640625 
L 69.5 12.28125 
L 69.5 8.28125 
C 69.5 4.296875 68.40625 3.59375 61.90625 3.59375 
L 61.5 3.59375 
L 61.5 0 
L 86.796875 0 
L 86.796875 3.59375 
L 86.40625 3.59375 
C 80 3.59375 78.90625 4.296875 78.90625 8.390625 
L 78.90625 12.28125 
L 78.90625 30.640625 
C 78.90625 36.828125 78.296875 38.921875 75.703125 42.3125 
C 72.796875 46.015625 68.703125 48 63.90625 48 
C 57.40625 48 52.59375 44.9375 48.296875 38.109375 
C 46.59375 44.046875 41.203125 48 34.5 48 
C 28.5 48 24 45.140625 20.09375 38.921875 
z
" id="Century_Schoolbook_L_Roman-109"/>
      <path d="M 46.5 23 
C 46.59375 37.8125 38.09375 48.28125 25.90625 48.28125 
C 13.09375 48.28125 3.5 37.25 3.5 22.34375 
C 3.5 8.4375 12.59375 -1 26.09375 -1 
C 35.59375 -1 42.40625 3.6875 46.5 13.1875 
L 43 15.09375 
C 38.90625 7.390625 34.703125 4.390625 28 4.390625 
C 22.90625 4.390625 19.203125 6.59375 16.59375 11 
C 14.796875 14 14 17.5 14.09375 23 
z
M 14.203125 27.296875 
C 14.203125 30.34375 14.59375 32.5 15.59375 35.25 
C 17.703125 41.140625 20.90625 44 25.703125 44 
C 31.796875 44 35.796875 38.78125 35.796875 30.921875 
C 35.796875 28.078125 34.90625 27.296875 31.703125 27.296875 
z
" id="Century_Schoolbook_L_Roman-101"/>
      <path d="M 54.59375 72 
L 50.90625 72 
L 46.90625 66.09375 
C 42.203125 70.59375 35.796875 73 28.703125 73 
C 15.59375 73 6.796875 64.609375 6.796875 52.15625 
C 6.796875 41.28125 12.203125 35.890625 26.90625 32.109375 
L 36.40625 29.703125 
C 43.796875 27.828125 44.5 27.625 46.59375 26.03125 
C 49.59375 23.734375 51.203125 20.4375 51.203125 16.546875 
C 51.203125 12.5625 49.703125 9.28125 46.703125 6.59375 
C 43.40625 3.6875 40.09375 2.59375 34.59375 2.59375 
C 27.203125 2.59375 21.90625 4.875 17.203125 10.03125 
C 13 14.703125 10.90625 19.375 9.40625 27 
L 5.09375 27 
L 5.5 -1.4375 
L 9.40625 -1.4375 
L 13.90625 5.46875 
C 20.59375 0 26.203125 -2 34.90625 -2 
C 49.59375 -2 59 6.59375 59 19.9375 
C 59 26.109375 56.90625 31.40625 53 35.203125 
C 50.296875 37.796875 46.40625 39.484375 38.40625 41.484375 
L 27.703125 44.171875 
C 18.796875 46.46875 14.59375 50.359375 14.59375 56.4375 
C 14.59375 63.40625 20.296875 68.203125 28.796875 68.203125 
C 35.796875 68.203125 41.5 65.1875 45.5 59.484375 
C 48.40625 55.375 50.203125 51.15625 51.5 46.046875 
L 55.796875 46.046875 
z
" id="Century_Schoolbook_L_Roman-83"/>
      <path d="M 19.796875 46 
L 2.09375 46 
L 2.09375 41.21875 
L 6.203125 41.21875 
C 9.90625 41.21875 10.5 40.515625 10.5 36.203125 
L 10.5 12.296875 
L 10.5 8.296875 
C 10.5 4.296875 9.40625 3.59375 2.90625 3.59375 
L 2.5 3.59375 
L 2.5 0 
L 29.203125 0 
L 29.203125 3.59375 
L 27.296875 3.59375 
C 20.90625 3.59375 19.796875 4.296875 19.796875 8.296875 
L 19.796875 12.296875 
L 19.796875 13.296875 
C 19.796875 20.8125 21.203125 28.40625 23.703125 34.109375 
C 26.09375 39.703125 29.5 42.8125 33.703125 43.3125 
C 32.296875 41.703125 31.90625 40.6875 31.90625 38.765625 
C 31.90625 35.546875 34.203125 33.234375 37.40625 33.234375 
C 41 33.234375 43.5 35.9375 43.5 40.015625 
C 43.5 44.8125 40.09375 48 34.796875 48 
C 28.5 48 23 42.921875 19.796875 34.140625 
z
" id="Century_Schoolbook_L_Roman-114"/>
      <path d="M 39 48 
L 35.5 48 
L 32.59375 44.40625 
C 29 47.203125 25.40625 48.390625 20.40625 48.390625 
C 11.59375 48.390625 5.796875 42.625 5.796875 33.953125 
C 5.796875 30.078125 7.09375 26.78125 9.296875 24.8125 
C 11.59375 22.703125 13.90625 21.71875 19.90625 20.3125 
L 25.203125 19.125 
C 33.09375 17.234375 35.90625 15.234375 35.90625 11.265625 
C 35.90625 6.578125 31.796875 3.296875 25.90625 3.296875 
C 17.5 3.296875 11.5 8.765625 9.09375 18.875 
L 5.09375 18.875 
L 5.09375 0 
L 8.59375 0 
L 12.09375 3.90625 
C 16.203125 0.59375 20.796875 -1 25.796875 -1 
C 35.59375 -1 42.09375 5.078125 42.09375 14.34375 
C 42.09375 18.71875 40.703125 22.09375 37.90625 24.390625 
C 35.5 26.484375 33.5 27.28125 27.40625 28.5625 
L 22.40625 29.671875 
C 16.90625 30.859375 16.90625 30.859375 15.09375 31.859375 
C 12.90625 32.859375 11.59375 34.9375 11.59375 37.140625 
C 11.59375 41.109375 15.40625 44 20.90625 44 
C 24.703125 44 27.796875 42.703125 30.59375 40.015625 
C 32.796875 37.8125 33.90625 35.828125 35.5 31.234375 
L 39 31.234375 
z
" id="Century_Schoolbook_L_Roman-115"/>
     </defs>
     <g transform="translate(209.5974 273.24577)scale(0.18 -0.18)">
      <use transform="translate(0 0.343476)scale(0.996264)" xlink:href="#Century_Schoolbook_L_Roman-84"/>
      <use transform="translate(66.450031 0.343476)scale(0.996264)" xlink:href="#Century_Schoolbook_L_Roman-105"/>
      <use transform="translate(97.831344 0.343476)scale(0.996264)" xlink:href="#Century_Schoolbook_L_Roman-109"/>
      <use transform="translate(186.398251 0.343476)scale(0.996264)" xlink:href="#Century_Schoolbook_L_Roman-101"/>
      <use transform="translate(263.906621 0.343476)scale(0.996264)" xlink:href="#Century_Schoolbook_L_Roman-83"/>
      <use transform="translate(326.6706 0.343476)scale(0.996264)" xlink:href="#Century_Schoolbook_L_Roman-101"/>
      <use transform="translate(376.4838 0.343476)scale(0.996264)" xlink:href="#Century_Schoolbook_L_Roman-114"/>
      <use transform="translate(420.717369 0.343476)scale(0.996264)" xlink:href="#Century_Schoolbook_L_Roman-105"/>
      <use transform="translate(452.098682 0.343476)scale(0.996264)" xlink:href="#Century_Schoolbook_L_Roman-101"/>
      <use transform="translate(501.911883 0.343476)scale(0.996264)" xlink:href="#Century_Schoolbook_L_Roman-115"/>
     </g>
    </g>
   </g>
   <g id="matplotlib.axis_2">
    <g id="ytick_1">
     <g id="line2d_6">
      <defs>
       <path d="M 0 0 
L -3.5 0 
" id="m4de3d5f621" style="stroke:#000000;stroke-width:0.8;"/>
      </defs>
      <g>
       <use style="stroke:#000000;stroke-width:0.8;" x="100.73146" xlink:href="#m4de3d5f621" y="230.88"/>
      </g>
     </g>
     <g id="text_7">
      <!-- $-0.0010$ -->
      <defs>
       <path d="M 65.90625 23 
C 67.59375 23 69.40625 23 69.40625 25 
C 69.40625 27 67.59375 27 65.90625 27 
L 11.796875 27 
C 10.09375 27 8.296875 27 8.296875 25 
C 8.296875 23 10.09375 23 11.796875 23 
z
" id="CMSY10-0"/>
       <path d="M 18.40625 4.796875 
C 18.40625 7.6875 16 9.671875 13.59375 9.671875 
C 10.703125 9.671875 8.703125 7.28125 8.703125 4.890625 
C 8.703125 2 11.09375 0 13.5 0 
C 16.40625 0 18.40625 2.390625 18.40625 4.796875 
z
" id="CMMI12-58"/>
      </defs>
      <g transform="translate(33.56 237.548975)scale(0.18 -0.18)">
       <use transform="translate(0 -0.031134)scale(0.996264)" xlink:href="#CMSY10-0"/>
       <use transform="translate(77.487468 -0.031134)scale(0.996264)" xlink:href="#CMR17-48"/>
       <use transform="translate(123.177945 -0.031134)scale(0.996264)" xlink:href="#CMMI12-58"/>
       <use transform="translate(150.275122 -0.031134)scale(0.996264)" xlink:href="#CMR17-48"/>
       <use transform="translate(195.965599 -0.031134)scale(0.996264)" xlink:href="#CMR17-48"/>
       <use transform="translate(241.656076 -0.031134)scale(0.996264)" xlink:href="#CMR17-49"/>
       <use transform="translate(287.346553 -0.031134)scale(0.996264)" xlink:href="#CMR17-48"/>
      </g>
     </g>
    </g>
    <g id="ytick_2">
     <g id="line2d_7">
      <g>
       <use style="stroke:#000000;stroke-width:0.8;" x="100.73146" xlink:href="#m4de3d5f621" y="181.544432"/>
      </g>
     </g>
     <g id="text_8">
      <!-- $-0.0005$ -->
      <g transform="translate(33.56 188.213407)scale(0.18 -0.18)">
       <use transform="translate(0 -0.031134)scale(0.996264)" xlink:href="#CMSY10-0"/>
       <use transform="translate(77.487468 -0.031134)scale(0.996264)" xlink:href="#CMR17-48"/>
       <use transform="translate(123.177945 -0.031134)scale(0.996264)" xlink:href="#CMMI12-58"/>
       <use transform="translate(150.275122 -0.031134)scale(0.996264)" xlink:href="#CMR17-48"/>
       <use transform="translate(195.965599 -0.031134)scale(0.996264)" xlink:href="#CMR17-48"/>
       <use transform="translate(241.656076 -0.031134)scale(0.996264)" xlink:href="#CMR17-48"/>
       <use transform="translate(287.346553 -0.031134)scale(0.996264)" xlink:href="#CMR17-53"/>
      </g>
     </g>
    </g>
    <g id="ytick_3">
     <g id="line2d_8">
      <g>
       <use style="stroke:#000000;stroke-width:0.8;" x="100.73146" xlink:href="#m4de3d5f621" y="132.208864"/>
      </g>
     </g>
     <g id="text_9">
      <!-- $0.0000$ -->
      <g transform="translate(47.56004 138.877839)scale(0.18 -0.18)">
       <use transform="scale(0.996264)" xlink:href="#CMR17-48"/>
       <use transform="translate(45.690477 0)scale(0.996264)" xlink:href="#CMMI12-58"/>
       <use transform="translate(72.787654 0)scale(0.996264)" xlink:href="#CMR17-48"/>
       <use transform="translate(118.478131 0)scale(0.996264)" xlink:href="#CMR17-48"/>
       <use transform="translate(164.168608 0)scale(0.996264)" xlink:href="#CMR17-48"/>
       <use transform="translate(209.859086 0)scale(0.996264)" xlink:href="#CMR17-48"/>
      </g>
     </g>
    </g>
    <g id="ytick_4">
     <g id="line2d_9">
      <g>
       <use style="stroke:#000000;stroke-width:0.8;" x="100.73146" xlink:href="#m4de3d5f621" y="82.873296"/>
      </g>
     </g>
     <g id="text_10">
      <!-- $0.0005$ -->
      <g transform="translate(47.56004 89.542271)scale(0.18 -0.18)">
       <use transform="scale(0.996264)" xlink:href="#CMR17-48"/>
       <use transform="translate(45.690477 0)scale(0.996264)" xlink:href="#CMMI12-58"/>
       <use transform="translate(72.787654 0)scale(0.996264)" xlink:href="#CMR17-48"/>
       <use transform="translate(118.478131 0)scale(0.996264)" xlink:href="#CMR17-48"/>
       <use transform="translate(164.168608 0)scale(0.996264)" xlink:href="#CMR17-48"/>
       <use transform="translate(209.859086 0)scale(0.996264)" xlink:href="#CMR17-53"/>
      </g>
     </g>
    </g>
    <g id="ytick_5">
     <g id="line2d_10">
      <g>
       <use style="stroke:#000000;stroke-width:0.8;" x="100.73146" xlink:href="#m4de3d5f621" y="33.537728"/>
      </g>
     </g>
     <g id="text_11">
      <!-- $0.0010$ -->
      <g transform="translate(47.56004 40.206703)scale(0.18 -0.18)">
       <use transform="scale(0.996264)" xlink:href="#CMR17-48"/>
       <use transform="translate(45.690477 0)scale(0.996264)" xlink:href="#CMMI12-58"/>
       <use transform="translate(72.787654 0)scale(0.996264)" xlink:href="#CMR17-48"/>
       <use transform="translate(118.478131 0)scale(0.996264)" xlink:href="#CMR17-48"/>
       <use transform="translate(164.168608 0)scale(0.996264)" xlink:href="#CMR17-49"/>
       <use transform="translate(209.859086 0)scale(0.996264)" xlink:href="#CMR17-48"/>
      </g>
     </g>
    </g>
    <g id="text_12">
     <!-- Skew -->
     <defs>
      <path d="M 19.90625 24.203125 
L 19.90625 73 
L 1.40625 73 
L 1.40625 68.21875 
L 6.203125 68.21875 
C 9.90625 68.21875 10.5 67.515625 10.5 63.21875 
L 10.5 12.28125 
L 10.5 8.28125 
C 10.5 4.296875 9.40625 3.59375 3 3.59375 
L 2.59375 3.59375 
L 2.59375 0 
L 27.90625 0 
L 27.90625 3.59375 
L 27.5 3.59375 
C 21 3.59375 19.90625 4.296875 19.90625 8.296875 
L 19.90625 12.296875 
L 19.90625 18 
L 26 23.796875 
L 37.90625 7.109375 
C 38.296875 6.390625 38.59375 5.78125 38.59375 5.296875 
C 38.59375 4 37.5 3.59375 34.203125 3.59375 
L 32.296875 3.59375 
L 32.296875 0 
L 58.703125 0 
L 58.703125 3.59375 
C 53.09375 4.09375 51.09375 5.296875 47 10.5 
L 32.796875 29.890625 
L 37.296875 34.296875 
C 43.09375 40 47.40625 42.203125 54.203125 43 
L 54.203125 46.59375 
L 27.90625 46.59375 
L 27.90625 43 
L 31 43 
C 34.203125 43 35.703125 42.390625 35.703125 41.09375 
C 35.703125 40 35 38.796875 33.40625 37.1875 
z
" id="Century_Schoolbook_L_Roman-107"/>
      <path d="M 54.703125 12.953125 
L 44.90625 38.609375 
C 44.59375 39.296875 44.5 39.796875 44.5 40.703125 
C 44.5 42.5 45.40625 43 48.703125 43 
L 51.09375 43 
L 51.09375 46.59375 
L 28.703125 46.59375 
L 28.703125 43 
L 30.40625 43 
C 33.5 43 34.703125 42.203125 35.59375 39.296875 
L 36.5 36.703125 
L 27.703125 13.40625 
L 18 38.5 
C 17.796875 39.203125 17.59375 40.09375 17.59375 40.703125 
C 17.59375 42.390625 18.703125 43 21.703125 43 
L 23.5 43 
L 23.5 46.59375 
L 1.5 46.59375 
L 1.5 43 
L 3.296875 43 
C 6.09375 43 7.09375 42.09375 8.5 38.09375 
L 23.5 -1.5 
L 27 -1.5 
L 38.90625 30.09375 
L 51.09375 -1.5 
L 54.203125 -1.5 
L 68.203125 35.390625 
C 70.40625 41.296875 72.09375 43 75.59375 43 
L 76.296875 43 
L 76.296875 46.59375 
L 57.40625 46.59375 
L 57.40625 43 
L 59.09375 43 
C 62.59375 43 64 41.890625 64 39.40625 
C 64 38.40625 63.703125 36.90625 63.203125 35.703125 
z
" id="Century_Schoolbook_L_Roman-119"/>
     </defs>
     <g transform="translate(24.87013 145.208775)rotate(-90)scale(0.18 -0.18)">
      <use transform="translate(0 0.343476)scale(0.996264)" xlink:href="#Century_Schoolbook_L_Roman-83"/>
      <use transform="translate(62.763979 0.343476)scale(0.996264)" xlink:href="#Century_Schoolbook_L_Roman-107"/>
      <use transform="translate(121.841708 0.343476)scale(0.996264)" xlink:href="#Century_Schoolbook_L_Roman-101"/>
      <use transform="translate(171.654909 0.343476)scale(0.996264)" xlink:href="#Century_Schoolbook_L_Roman-119"/>
     </g>
    </g>
   </g>
   <g id="line2d_11">
    <path clip-path="url(#p8f34dba1aa)" d="M 100.73146 132.21702 
L 106.100079 123.81141 
L 111.468699 127.124465 
L 116.837318 115.48878 
L 122.205937 129.674821 
L 127.574557 154.918697 
L 132.943176 134.750202 
L 138.311795 123.752744 
L 143.680415 139.614803 
L 149.049034 121.932454 
L 154.417653 122.30656 
L 159.786273 118.393236 
L 165.154892 134.268577 
L 170.523511 166.603012 
L 175.892131 127.435122 
L 181.26075 128.822548 
L 186.629369 126.159332 
L 191.997988 89.360404 
L 197.366608 128.314172 
L 202.735227 119.521691 
L 208.103846 108.145352 
L 213.472466 94.919886 
L 218.841085 125.455897 
L 224.209704 122.568756 
L 229.578324 125.83111 
L 234.946943 124.924658 
L 240.315562 124.102319 
L 245.684182 111.996479 
L 251.052801 124.860979 
L 256.42142 124.459319 
L 261.79004 132.799515 
L 267.158659 124.568868 
L 272.527278 145.005487 
L 277.895898 124.462393 
L 283.264517 131.396277 
L 288.633136 151.627004 
L 294.001756 123.579399 
L 299.370375 128.810464 
L 304.738994 132.102823 
L 310.107614 128.809726 
L 315.476233 130.636165 
L 320.844852 132.312456 
L 326.213472 129.016129 
L 331.582091 126.408952 
L 336.95071 117.194833 
L 342.319329 132.912062 
L 347.687949 127.538747 
L 353.056568 125.030374 
L 358.425187 121.058131 
L 363.793807 122.026053 
L 369.162426 124.195766 
L 374.531045 139.722037 
L 379.899665 127.121884 
L 385.268284 119.318268 
L 390.636903 132.205157 
L 396.005523 132.206035 
L 401.374142 132.209942 
L 406.742761 132.200698 
L 412.111381 132.201202 
L 417.48 132.19904 
" style="fill:none;stroke:#e41a1c;stroke-linecap:square;stroke-width:2;"/>
   </g>
   <g id="line2d_12">
    <path clip-path="url(#p8f34dba1aa)" d="M 100.73146 132.174158 
L 106.100079 127.015415 
L 111.468699 124.683217 
L 116.837318 126.350382 
L 122.205937 128.726818 
L 127.574557 113.2415 
L 132.943176 124.626452 
L 138.311795 124.776147 
L 143.680415 80.746081 
L 149.049034 123.559782 
L 154.417653 124.048865 
L 159.786273 126.092907 
L 165.154892 121.366203 
L 170.523511 108.346247 
L 175.892131 125.774704 
L 181.26075 122.297429 
L 186.629369 127.84325 
L 191.997988 128.98504 
L 197.366608 108.913725 
L 202.735227 113.6267 
L 208.103846 107.90542 
L 213.472466 121.019079 
L 218.841085 75.093009 
L 224.209704 104.440074 
L 229.578324 122.363672 
L 234.946943 125.857138 
L 240.315562 128.268173 
L 245.684182 131.688505 
L 251.052801 126.781714 
L 256.42142 125.96865 
L 261.79004 125.21071 
L 267.158659 133.96107 
L 272.527278 131.921485 
L 277.895898 125.414476 
L 283.264517 125.49951 
L 288.633136 124.611655 
L 294.001756 127.541398 
L 299.370375 162.082821 
L 304.738994 124.259707 
L 310.107614 125.178477 
L 315.476233 129.84 
L 320.844852 140.983487 
L 326.213472 127.425414 
L 331.582091 126.329013 
L 336.95071 132.861007 
L 342.319329 126.127911 
L 347.687949 121.626022 
L 353.056568 125.835201 
L 358.425187 117.334798 
L 363.793807 122.956795 
L 369.162426 196.239027 
L 374.531045 136.905882 
L 379.899665 128.123332 
L 385.268284 129.794283 
L 390.636903 137.610013 
L 396.005523 128.004704 
L 401.374142 132.206247 
L 406.742761 132.202594 
L 412.111381 132.210622 
L 417.48 132.195095 
" style="fill:none;stroke:#377eb8;stroke-dasharray:7.4,3.2;stroke-dashoffset:0;stroke-linecap:round;stroke-width:2;"/>
   </g>
   <g id="patch_3">
    <path d="M 100.73146 230.88 
L 100.73146 14.52 
" style="fill:none;stroke:#000000;stroke-linecap:square;stroke-linejoin:miter;stroke-width:0.8;"/>
   </g>
   <g id="patch_4">
    <path d="M 417.48 230.88 
L 417.48 14.52 
" style="fill:none;"/>
   </g>
   <g id="patch_5">
    <path d="M 100.73146 230.88 
L 417.48 230.88 
" style="fill:none;stroke:#000000;stroke-linecap:square;stroke-linejoin:miter;stroke-width:0.8;"/>
   </g>
   <g id="patch_6">
    <path d="M 100.73146 14.52 
L 417.48 14.52 
" style="fill:none;"/>
   </g>
   <g id="legend_1">
    <g id="patch_7">
     <path d="M 138.60155 44.05585 
L 412.68 44.05585 
Q 415.88 44.05585 415.88 40.85585 
L 415.88 19.32 
Q 415.88 16.12 412.68 16.12 
L 138.60155 16.12 
Q 135.40155 16.12 135.40155 19.32 
L 135.40155 40.85585 
Q 135.40155 44.05585 138.60155 44.05585 
z
" style="fill:#ffffff;stroke:#000000;stroke-linejoin:miter;"/>
    </g>
    <g id="line2d_13">
     <path d="M 141.80155 28.77596 
L 173.80155 28.77596 
" style="fill:none;stroke:#e41a1c;stroke-linecap:square;stroke-width:2;"/>
    </g>
    <g id="line2d_14"/>
    <g id="text_13">
     <!-- Not Cutting -->
     <defs>
      <path d="M 22.5 72 
L 1.90625 72 
L 1.90625 67.3125 
L 4.40625 67.3125 
C 9.5 67.3125 11.796875 66.5 13.59375 64.015625 
L 13.59375 21.5 
C 13.59375 7.78125 11.59375 4.890625 2 4.890625 
L 2 0 
L 30.5 0 
L 30.5 4.890625 
C 21 4.890625 19 7.796875 19 21.5 
L 19 58.640625 
L 63.59375 -1.6875 
L 67.796875 -1.6875 
L 67.796875 50.59375 
C 67.796875 64.390625 69.796875 67.3125 79.40625 67.3125 
L 79.40625 72 
L 50.90625 72 
L 50.90625 67.3125 
C 60.40625 67.3125 62.40625 64.40625 62.40625 50.625 
L 62.40625 19.046875 
z
" id="Century_Schoolbook_L_Roman-78"/>
      <path d="M 25.203125 48.28125 
C 13 48.28125 3.40625 37.453125 3.40625 23.546875 
C 3.40625 9.9375 13 -1 25 -1 
C 37 -1 46.59375 9.9375 46.59375 23.640625 
C 46.59375 37.25 37 48.28125 25.203125 48.28125 
z
M 25.203125 44 
C 32.203125 44 36.09375 36.75 36.09375 23.640625 
C 36.09375 10.453125 32.203125 3.296875 25 3.296875 
C 17.796875 3.296875 13.90625 10.453125 13.90625 23.546875 
C 13.90625 37.046875 17.703125 44 25.203125 44 
z
" id="Century_Schoolbook_L_Roman-111"/>
      <path d="M 19.40625 47 
L 19.40625 67 
L 15.296875 67 
C 14.296875 53.875 9.90625 47.1875 1.796875 46.59375 
L 1.796875 42.703125 
L 10 42.703125 
L 10 17.265625 
C 10 10.28125 10.203125 7.78125 11.203125 5.484375 
C 12.796875 1.296875 16.796875 -1 22.59375 -1 
C 26.5 -1 29.90625 0.203125 32.203125 2.390625 
C 35.5 5.59375 37.40625 10.875 37.40625 16.375 
C 37.40625 16.96875 37.40625 17.671875 37.296875 18.671875 
L 33.09375 18.671875 
C 32.796875 9.6875 30.203125 5.09375 25.296875 5.09375 
C 23 5.09375 21 6.28125 20.296875 7.984375 
C 19.703125 9.375 19.40625 11.875 19.40625 15.46875 
L 19.40625 42.703125 
L 34.09375 42.703125 
L 34.09375 47 
z
" id="Century_Schoolbook_L_Roman-116"/>
      <path d="M 63.90625 72 
L 60.09375 72 
L 56.09375 66.015625 
C 49 71.203125 45.09375 72.703125 38.40625 72.703125 
C 28.703125 72.703125 20.703125 68.8125 13.90625 60.78125 
C 7.5 53.234375 4.5 44.890625 4.5 34.65625 
C 4.5 13.296875 18.59375 -2 38.296875 -2 
C 54.296875 -2 64.5 7.34375 66.796875 24.015625 
L 62.09375 24.8125 
C 61.09375 19.546875 59.90625 15.984375 58.09375 13.015625 
C 54 6.171875 47.59375 2.6875 39.5 2.6875 
C 24.703125 2.6875 17.703125 12.90625 17.703125 34.265625 
C 17.703125 45.46875 19.203125 53.015625 22.59375 58.96875 
C 25.703125 64.53125 31.90625 68 38.296875 68 
C 45.296875 68 51.5 64.328125 55.296875 57.96875 
C 57.203125 54.6875 58.703125 50.8125 61 43.171875 
L 65.40625 43.171875 
z
" id="Century_Schoolbook_L_Roman-67"/>
      <path d="M 41.203125 0 
L 59.40625 0 
L 59.40625 4.703125 
L 56.90625 4.703125 
C 51.40625 4.703125 50.59375 5.59375 50.59375 11.953125 
L 50.59375 46.78125 
L 31.796875 46.78125 
L 31.796875 42 
L 36.90625 42 
C 40.59375 42 41.203125 41.296875 41.203125 36.953125 
L 41.203125 24.5625 
C 41.203125 18.8125 40.59375 15.484375 39.09375 12.15625 
C 37 7.71875 33 5.09375 28.09375 5.09375 
C 25 5.09375 22.40625 6.1875 21.09375 8.171875 
C 19.796875 10.046875 19.59375 11.046875 19.59375 16.5 
L 19.59375 46.78125 
L 2.09375 46.78125 
L 2.09375 42 
L 5.90625 42 
C 9.59375 42 10.203125 41.296875 10.203125 36.953125 
L 10.203125 15.21875 
C 10.203125 10.078125 10.59375 7.765625 12.09375 5.453125 
C 14.796875 1.3125 19.59375 -1 25.59375 -1 
C 32.203125 -1 36.796875 1.71875 41.203125 8.125 
z
" id="Century_Schoolbook_L_Roman-117"/>
      <path d="M 20 46 
L 2.703125 46 
L 2.703125 41.21875 
L 6.296875 41.21875 
C 10 41.21875 10.59375 40.515625 10.59375 36.203125 
L 10.59375 12.296875 
L 10.59375 8.296875 
C 10.59375 4.296875 9.5 3.59375 3.09375 3.59375 
L 2.703125 3.59375 
L 2.703125 0 
L 28 0 
L 28 3.59375 
L 27.59375 3.59375 
C 21.09375 3.59375 20 4.296875 20 8.28125 
L 20 12.28125 
L 20 22.65625 
C 20 27.546875 20.703125 32.03125 21.796875 34.328125 
C 23.90625 38.828125 28.40625 41.921875 32.703125 41.921875 
C 35.296875 41.921875 38.296875 40.421875 39.796875 38.421875 
C 41.296875 36.328125 42 33.234375 42 28.4375 
L 42 12.28125 
L 42 8.28125 
C 42 4.296875 40.90625 3.59375 34.40625 3.59375 
L 34 3.59375 
L 34 0 
L 59.296875 0 
L 59.296875 3.59375 
L 58.90625 3.59375 
C 52.5 3.59375 51.40625 4.296875 51.40625 8.28125 
L 51.40625 12.28125 
L 51.40625 27.953125 
C 51.40625 35.125 51.09375 36.921875 49.296875 40.328125 
C 46.796875 45.109375 41.703125 48 35.796875 48 
C 29.40625 48 24.40625 45.046875 20 38.515625 
z
" id="Century_Schoolbook_L_Roman-110"/>
      <path d="M 19.59375 7.59375 
C 14.09375 7.59375 13.796875 7.703125 12.59375 8.46875 
C 11.90625 8.90625 11.40625 10.109375 11.40625 11.296875 
C 11.40625 14.578125 14.09375 16 20.796875 16 
C 30.296875 16 31.796875 16.203125 35.09375 17.6875 
C 41.09375 20.359375 44.5 25.484375 44.5 31.984375 
C 44.5 35.921875 43.59375 38.390625 40.796875 41.640625 
C 42.5 43.40625 43.40625 44 44.203125 44 
C 44.703125 44 45 43.6875 45.203125 42.625 
C 45.59375 40.265625 47.203125 39 49.703125 39 
C 52.203125 39 54.203125 41.09375 54.203125 43.78125 
C 54.203125 47.1875 51.5 49.578125 47.59375 49.578125 
C 44.40625 49.578125 42.59375 48.5625 38 44.296875 
C 33.796875 47.09375 30.59375 48.078125 25.59375 48.078125 
C 13.703125 48.078125 5.90625 41.625 5.90625 31.8125 
C 5.90625 26.03125 9.09375 21.03125 14.296875 18.6875 
C 7.59375 17.15625 4.796875 14.09375 4.796875 8.46875 
C 4.796875 3.984375 6.796875 1.328125 11.5 -0.296875 
C 5.296875 -2.484375 2.296875 -5.671875 2.296875 -9.75 
C 2.296875 -16.3125 10 -20 23.40625 -20 
C 40.09375 -20 48.5 -14.71875 48.5 -4.25 
C 48.5 0.71875 46.203125 4.6875 42.5 6.1875 
C 39.90625 7.1875 36.703125 7.59375 29.796875 7.59375 
z
M 25.5 44 
C 31.796875 44 35.296875 39.671875 35.296875 32.09375 
C 35.296875 24.421875 31.5 19.78125 25.09375 19.78125 
C 18.90625 19.78125 15 24.421875 15 31.796875 
C 15 39.5625 18.796875 44 25.5 44 
z
M 24.59375 -1 
C 32.90625 -1 33.5 -1 35 -1.1875 
C 39 -1.59375 41.5 -3.78125 41.5 -6.953125 
C 41.5 -12.625 35 -15.90625 23.796875 -15.90625 
C 15.40625 -15.90625 10.59375 -13.421875 10.59375 -8.953125 
C 10.59375 -5.671875 12.40625 -3.46875 17.203125 -1 
z
" id="Century_Schoolbook_L_Roman-103"/>
     </defs>
     <g transform="translate(186.60155 34.37596)scale(0.16 -0.16)">
      <use transform="translate(0 -1.570628)scale(0.996264)" xlink:href="#Century_Schoolbook_L_Roman-78"/>
      <use transform="translate(81.194513 -1.570628)scale(0.996264)" xlink:href="#Century_Schoolbook_L_Roman-111"/>
      <use transform="translate(131.007714 -1.570628)scale(0.996264)" xlink:href="#Century_Schoolbook_L_Roman-116"/>
      <use transform="translate(197.45659 -1.570628)scale(0.996264)" xlink:href="#Century_Schoolbook_L_Roman-67"/>
      <use transform="translate(269.386575 -1.570628)scale(0.996264)" xlink:href="#Century_Schoolbook_L_Roman-117"/>
      <use transform="translate(330.258205 -1.570628)scale(0.996264)" xlink:href="#Century_Schoolbook_L_Roman-116"/>
      <use transform="translate(369.011912 -1.570628)scale(0.996264)" xlink:href="#Century_Schoolbook_L_Roman-116"/>
      <use transform="translate(407.765618 -1.570628)scale(0.996264)" xlink:href="#Century_Schoolbook_L_Roman-105"/>
      <use transform="translate(439.146931 -1.570628)scale(0.996264)" xlink:href="#Century_Schoolbook_L_Roman-110"/>
      <use transform="translate(500.018561 -1.570628)scale(0.996264)" xlink:href="#Century_Schoolbook_L_Roman-103"/>
     </g>
    </g>
    <g id="line2d_15">
     <path d="M 307.49654 28.77596 
L 339.49654 28.77596 
" style="fill:none;stroke:#377eb8;stroke-dasharray:7.4,3.2;stroke-dashoffset:0;stroke-linecap:round;stroke-width:2;"/>
    </g>
    <g id="line2d_16"/>
    <g id="text_14">
     <!-- Cutting -->
     <g transform="translate(352.29654 34.37596)scale(0.16 -0.16)">
      <use transform="translate(0 -1.570628)scale(0.996264)" xlink:href="#Century_Schoolbook_L_Roman-67"/>
      <use transform="translate(71.929985 -1.570628)scale(0.996264)" xlink:href="#Century_Schoolbook_L_Roman-117"/>
      <use transform="translate(132.801616 -1.570628)scale(0.996264)" xlink:href="#Century_Schoolbook_L_Roman-116"/>
      <use transform="translate(171.555322 -1.570628)scale(0.996264)" xlink:href="#Century_Schoolbook_L_Roman-116"/>
      <use transform="translate(210.309028 -1.570628)scale(0.996264)" xlink:href="#Century_Schoolbook_L_Roman-105"/>
      <use transform="translate(241.690341 -1.570628)scale(0.996264)" xlink:href="#Century_Schoolbook_L_Roman-110"/>
      <use transform="translate(302.561972 -1.570628)scale(0.996264)" xlink:href="#Century_Schoolbook_L_Roman-103"/>
     </g>
    </g>
   </g>
  </g>
 </g>
 <defs>
  <clipPath id="p8f34dba1aa">
   <rect height="216.36" width="316.74854" x="100.73146" y="14.52"/>
  </clipPath>
 </defs>
</svg>
