<?xml version="1.0" encoding="utf-8" standalone="no"?>
<!DOCTYPE svg PUBLIC "-//W3C//DTD SVG 1.1//EN"
  "http://www.w3.org/Graphics/SVG/1.1/DTD/svg11.dtd">
<!-- Created with matplotlib (https://matplotlib.org/) -->
<svg height="288pt" version="1.1" viewBox="0 0 432 288" width="432pt" xmlns="http://www.w3.org/2000/svg" xmlns:xlink="http://www.w3.org/1999/xlink">
 <defs>
  <style type="text/css">
*{stroke-linecap:butt;stroke-linejoin:round;}
  </style>
 </defs>
 <g id="figure_1">
  <g id="patch_1">
   <path d="M 0 288 
L 432 288 
L 432 0 
L 0 0 
z
" style="fill:#ffffff;"/>
  </g>
  <g id="axes_1">
   <g id="patch_2">
    <path d="M 74.04833 230.88 
L 413.542477 230.88 
L 413.542477 14.52 
L 74.04833 14.52 
z
" style="fill:#ffffff;"/>
   </g>
   <g id="matplotlib.axis_1">
    <g id="xtick_1">
     <g id="line2d_1">
      <defs>
       <path d="M 0 0 
L 0 3.5 
" id="mff07b23980" style="stroke:#000000;stroke-width:0.8;"/>
      </defs>
      <g>
       <use style="stroke:#000000;stroke-width:0.8;" x="141.543538" xlink:href="#mff07b23980" y="230.88"/>
      </g>
     </g>
     <g id="text_1">
      <!-- $10$ -->
      <defs>
       <path d="M 26.59375 63.40625 
C 26.59375 65.5 26.5 65.5 25.09375 65.5 
C 21.203125 61.1875 15.296875 59.796875 9.703125 59.796875 
C 9.40625 59.796875 8.90625 59.796875 8.796875 59.5 
C 8.703125 59.296875 8.703125 59.09375 8.703125 57 
C 11.796875 57 17 57.59375 21 59.984375 
L 21 7.203125 
C 21 3.6875 20.796875 2.5 12.203125 2.5 
L 9.203125 2.5 
L 9.203125 0 
C 14 0 19 0 23.796875 0 
C 28.59375 0 33.59375 0 38.40625 0 
L 38.40625 2.5 
L 35.40625 2.5 
C 26.796875 2.5 26.59375 3.59375 26.59375 7.15625 
z
" id="CMR17-49"/>
       <path d="M 42 31.640625 
C 42 37.75 41.90625 48.125 37.703125 56.109375 
C 34 63.109375 28.09375 65.59375 22.90625 65.59375 
C 18.09375 65.59375 12 63.40625 8.203125 56.203125 
C 4.203125 48.71875 3.796875 39.4375 3.796875 31.640625 
C 3.796875 25.953125 3.90625 17.28125 7 9.671875 
C 11.296875 -0.609375 19 -2 22.90625 -2 
C 27.5 -2 34.5 -0.109375 38.59375 9.375 
C 41.59375 16.28125 42 24.359375 42 31.640625 
z
M 22.90625 -0.40625 
C 16.5 -0.40625 12.703125 5.078125 11.296875 12.6875 
C 10.203125 18.5625 10.203125 27.15625 10.203125 32.75 
C 10.203125 40.4375 10.203125 46.828125 11.5 52.921875 
C 13.40625 61.390625 19 64 22.90625 64 
C 27 64 32.296875 61.296875 34.203125 53.125 
C 35.5 47.4375 35.59375 40.734375 35.59375 32.75 
C 35.59375 26.25 35.59375 18.265625 34.40625 12.375 
C 32.296875 1.484375 26.40625 -0.40625 22.90625 -0.40625 
z
" id="CMR17-48"/>
      </defs>
      <g transform="translate(133.288413 251.21795)scale(0.18 -0.18)">
       <use transform="scale(0.996264)" xlink:href="#CMR17-49"/>
       <use transform="translate(45.690477 0)scale(0.996264)" xlink:href="#CMR17-48"/>
      </g>
     </g>
    </g>
    <g id="xtick_2">
     <g id="line2d_2">
      <g>
       <use style="stroke:#000000;stroke-width:0.8;" x="209.038746" xlink:href="#mff07b23980" y="230.88"/>
      </g>
     </g>
     <g id="text_2">
      <!-- $20$ -->
      <defs>
       <path d="M 41.703125 15.453125 
L 39.90625 15.453125 
C 38.90625 8.375 38.09375 7.171875 37.703125 6.5625 
C 37.203125 5.765625 30 5.765625 28.59375 5.765625 
L 9.40625 5.765625 
C 13 9.671875 20 16.75 28.5 24.953125 
C 34.59375 30.734375 41.703125 37.53125 41.703125 47.421875 
C 41.703125 59.21875 32.296875 66 21.796875 66 
C 10.796875 66 4.09375 56.3125 4.09375 47.34375 
C 4.09375 43.4375 7 42.9375 8.203125 42.9375 
C 9.203125 42.9375 12.203125 43.546875 12.203125 47.03125 
C 12.203125 50.109375 9.59375 51 8.203125 51 
C 7.59375 51 7 50.90625 6.59375 50.703125 
C 8.5 59.21875 14.296875 63.40625 20.40625 63.40625 
C 29.09375 63.40625 34.796875 56.515625 34.796875 47.421875 
C 34.796875 38.734375 29.703125 31.25 24 24.75 
L 4.09375 2.28125 
L 4.09375 0 
L 39.296875 0 
z
" id="CMR17-50"/>
      </defs>
      <g transform="translate(200.783621 251.21795)scale(0.18 -0.18)">
       <use transform="scale(0.996264)" xlink:href="#CMR17-50"/>
       <use transform="translate(45.690477 0)scale(0.996264)" xlink:href="#CMR17-48"/>
      </g>
     </g>
    </g>
    <g id="xtick_3">
     <g id="line2d_3">
      <g>
       <use style="stroke:#000000;stroke-width:0.8;" x="276.533954" xlink:href="#mff07b23980" y="230.88"/>
      </g>
     </g>
     <g id="text_3">
      <!-- $30$ -->
      <defs>
       <path d="M 22.09375 33.703125 
C 31 33.703125 34.90625 25.96875 34.90625 17.03125 
C 34.90625 5 28.5 0.390625 22.703125 0.390625 
C 17.40625 0.390625 8.796875 3.03125 6.09375 10.828125 
C 6.59375 10.625 7.09375 10.625 7.59375 10.625 
C 10 10.625 11.796875 12.21875 11.796875 14.8125 
C 11.796875 17.703125 9.59375 19 7.59375 19 
C 5.90625 19 3.296875 18.203125 3.296875 14.46875 
C 3.296875 5.234375 12.296875 -2 22.90625 -2 
C 34 -2 42.5 6.71875 42.5 16.953125 
C 42.5 26.671875 34.5 33.703125 25 34.796875 
C 32.59375 36.375 39.90625 43.0625 39.90625 52.015625 
C 39.90625 59.6875 32 65.296875 23 65.296875 
C 13.90625 65.296875 5.90625 59.828125 5.90625 52.015625 
C 5.90625 48.59375 8.5 48 9.796875 48 
C 11.90625 48 13.703125 49.296875 13.703125 51.890625 
C 13.703125 54.46875 11.90625 55.765625 9.796875 55.765625 
C 9.40625 55.765625 8.90625 55.765625 8.5 55.578125 
C 11.40625 61.859375 19.296875 63 22.796875 63 
C 26.296875 63 32.90625 61.328125 32.90625 51.875 
C 32.90625 49.109375 32.5 44.1875 29.09375 39.84375 
C 26.09375 36 22.703125 36 19.40625 35.6875 
C 18.90625 35.6875 16.59375 35.453125 16.203125 35.453125 
C 15.5 35.359375 15.09375 35.265625 15.09375 34.5 
C 15.09375 33.796875 15.203125 33.703125 17.203125 33.703125 
z
" id="CMR17-51"/>
      </defs>
      <g transform="translate(268.278829 251.21795)scale(0.18 -0.18)">
       <use transform="scale(0.996264)" xlink:href="#CMR17-51"/>
       <use transform="translate(45.690477 0)scale(0.996264)" xlink:href="#CMR17-48"/>
      </g>
     </g>
    </g>
    <g id="xtick_4">
     <g id="line2d_4">
      <g>
       <use style="stroke:#000000;stroke-width:0.8;" x="344.029162" xlink:href="#mff07b23980" y="230.88"/>
      </g>
     </g>
     <g id="text_4">
      <!-- $40$ -->
      <defs>
       <path d="M 33.59375 64.40625 
C 33.59375 66.5 33.5 66.5 31.703125 66.5 
L 2 19.59375 
L 2 17 
L 27.796875 17 
L 27.796875 7.140625 
C 27.796875 3.5 27.59375 2.5 20.59375 2.5 
L 18.703125 2.5 
L 18.703125 0 
C 21.90625 0 27.296875 0 30.703125 0 
C 34.09375 0 39.5 0 42.703125 0 
L 42.703125 2.5 
L 40.796875 2.5 
C 33.796875 2.5 33.59375 3.5 33.59375 7.140625 
L 33.59375 17 
L 43.796875 17 
L 43.796875 19.59375 
L 33.59375 19.59375 
z
M 28.09375 57.859375 
L 28.09375 19.59375 
L 4 19.59375 
z
" id="CMR17-52"/>
      </defs>
      <g transform="translate(335.774037 251.21795)scale(0.18 -0.18)">
       <use transform="scale(0.996264)" xlink:href="#CMR17-52"/>
       <use transform="translate(45.690477 0)scale(0.996264)" xlink:href="#CMR17-48"/>
      </g>
     </g>
    </g>
    <g id="xtick_5">
     <g id="line2d_5">
      <g>
       <use style="stroke:#000000;stroke-width:0.8;" x="411.524371" xlink:href="#mff07b23980" y="230.88"/>
      </g>
     </g>
     <g id="text_5">
      <!-- $50$ -->
      <defs>
       <path d="M 11.40625 57.6875 
C 12.40625 57.28125 16.5 56 20.703125 56 
C 30 56 35.09375 61.109375 38 64.0625 
C 38 64.953125 38 65.5 37.40625 65.5 
C 37.296875 65.5 37.09375 65.5 36.296875 65.046875 
C 32.796875 63.40625 28.703125 62.078125 23.703125 62.078125 
C 20.703125 62.078125 16.203125 62.484375 11.296875 64.671875 
C 10.203125 65.171875 10 65.171875 9.90625 65.171875 
C 9.40625 65.171875 9.296875 65.0625 9.296875 63.078125 
L 9.296875 34.421875 
C 9.296875 32.640625 9.296875 32.140625 10.296875 32.140625 
C 10.796875 32.140625 11 32.34375 11.5 33.03125 
C 14.703125 37.515625 19.09375 39.40625 24.09375 39.40625 
C 27.59375 39.40625 35.09375 37.21875 35.09375 20.140625 
C 35.09375 16.953125 35.09375 11.171875 32.09375 6.578125 
C 29.59375 2.484375 25.703125 0.390625 21.40625 0.390625 
C 14.796875 0.390625 8.09375 5 6.296875 12.71875 
C 6.703125 12.609375 7.5 12.421875 7.90625 12.421875 
C 9.203125 12.421875 11.703125 13.125 11.703125 16.21875 
C 11.703125 18.90625 9.796875 20 7.90625 20 
C 5.59375 20 4.09375 18.59375 4.09375 15.796875 
C 4.09375 7.09375 11 -2 21.59375 -2 
C 31.90625 -2 41.703125 6.875 41.703125 19.75 
C 41.703125 31.71875 33.90625 41 24.203125 41 
C 19.09375 41 14.796875 39.109375 11.40625 35.53125 
z
" id="CMR17-53"/>
      </defs>
      <g transform="translate(403.269246 251.21795)scale(0.18 -0.18)">
       <use transform="scale(0.996264)" xlink:href="#CMR17-53"/>
       <use transform="translate(45.690477 0)scale(0.996264)" xlink:href="#CMR17-48"/>
      </g>
     </g>
    </g>
    <g id="text_6">
     <!-- Time (s) -->
     <defs>
      <path d="M 63.296875 72 
L 3.40625 72 
L 1.90625 44.265625 
L 6.203125 44.265625 
C 6.90625 49.25 7.796875 53.046875 8.90625 56.234375 
C 11.5 63.515625 16.296875 67.3125 23.09375 67.3125 
C 26.40625 67.3125 27.796875 66.203125 27.796875 63.71875 
L 27.796875 12.28125 
L 27.796875 9.375 
C 27.796875 5.1875 26.90625 4.6875 18.796875 4.6875 
L 16.203125 4.6875 
L 16.203125 0 
L 50.5 0 
L 50.5 4.6875 
L 47.90625 4.6875 
C 39.90625 4.6875 39 5.1875 39 9.375 
L 39 12.28125 
L 39 63.71875 
C 39 66.203125 40.40625 67.3125 43.703125 67.3125 
C 49.796875 67.3125 54.703125 63.90625 57.203125 57.921875 
C 58.703125 54.25 59.703125 49.953125 60.5 44.265625 
L 64.796875 44.265625 
z
" id="Century_Schoolbook_L_Roman-84"/>
      <path d="M 20.59375 46 
L 1.796875 46 
L 1.796875 41.21875 
L 6.90625 41.21875 
C 10.59375 41.21875 11.203125 40.515625 11.203125 36.203125 
L 11.203125 12.296875 
L 11.203125 8.296875 
C 11.203125 4.296875 10.09375 3.59375 3.703125 3.59375 
L 3 3.59375 
L 3 0 
L 28.90625 0 
L 28.90625 3.59375 
L 28.203125 3.59375 
C 21.703125 3.59375 20.59375 4.28125 20.59375 8.21875 
L 20.59375 12.171875 
z
M 15.90625 71.578125 
C 12.703125 71.578125 10.09375 68.984375 10.09375 65.796875 
C 10.09375 62.703125 12.703125 60 15.796875 60 
C 19.09375 60 21.703125 62.59375 21.703125 65.796875 
C 21.703125 68.984375 19.09375 71.578125 15.90625 71.578125 
z
" id="Century_Schoolbook_L_Roman-105"/>
      <path d="M 20.09375 46 
L 2.296875 46 
L 2.296875 41.21875 
L 6.40625 41.21875 
C 10.09375 41.21875 10.703125 40.515625 10.703125 36.203125 
L 10.703125 12.296875 
L 10.703125 8.40625 
C 10.703125 4.296875 9.59375 3.59375 3.203125 3.59375 
L 2.796875 3.59375 
L 2.796875 0 
L 28 0 
L 28 3.59375 
L 27.59375 3.59375 
C 21.203125 3.59375 20.09375 4.296875 20.09375 8.390625 
L 20.09375 12.28125 
L 20.09375 26.453125 
C 20.09375 35.328125 25 41.921875 31.5 41.921875 
C 34.09375 41.921875 36.90625 40.515625 38.09375 38.625 
C 39.5 36.734375 40.09375 33.828125 40.09375 29.734375 
L 40.09375 12.28125 
L 40.09375 8.28125 
C 40.09375 4.296875 39 3.59375 32.5 3.59375 
L 32.09375 3.59375 
L 32.09375 0 
L 57.40625 0 
L 57.40625 3.59375 
L 57 3.59375 
C 50.59375 3.59375 49.5 4.296875 49.5 8.28125 
L 49.5 12.28125 
L 49.5 25.546875 
C 49.5 35.53125 54 41.921875 61 41.921875 
C 64.296875 41.921875 67 40.015625 68.296875 36.921875 
C 69.203125 34.734375 69.5 32.53125 69.5 28.640625 
L 69.5 12.28125 
L 69.5 8.28125 
C 69.5 4.296875 68.40625 3.59375 61.90625 3.59375 
L 61.5 3.59375 
L 61.5 0 
L 86.796875 0 
L 86.796875 3.59375 
L 86.40625 3.59375 
C 80 3.59375 78.90625 4.296875 78.90625 8.390625 
L 78.90625 12.28125 
L 78.90625 30.640625 
C 78.90625 36.828125 78.296875 38.921875 75.703125 42.3125 
C 72.796875 46.015625 68.703125 48 63.90625 48 
C 57.40625 48 52.59375 44.9375 48.296875 38.109375 
C 46.59375 44.046875 41.203125 48 34.5 48 
C 28.5 48 24 45.140625 20.09375 38.921875 
z
" id="Century_Schoolbook_L_Roman-109"/>
      <path d="M 46.5 23 
C 46.59375 37.8125 38.09375 48.28125 25.90625 48.28125 
C 13.09375 48.28125 3.5 37.25 3.5 22.34375 
C 3.5 8.4375 12.59375 -1 26.09375 -1 
C 35.59375 -1 42.40625 3.6875 46.5 13.1875 
L 43 15.09375 
C 38.90625 7.390625 34.703125 4.390625 28 4.390625 
C 22.90625 4.390625 19.203125 6.59375 16.59375 11 
C 14.796875 14 14 17.5 14.09375 23 
z
M 14.203125 27.296875 
C 14.203125 30.34375 14.59375 32.5 15.59375 35.25 
C 17.703125 41.140625 20.90625 44 25.703125 44 
C 31.796875 44 35.796875 38.78125 35.796875 30.921875 
C 35.796875 28.078125 34.90625 27.296875 31.703125 27.296875 
z
" id="Century_Schoolbook_L_Roman-101"/>
      <path d="M 27.90625 73.453125 
C 21.90625 69.765625 18.703125 67.171875 15.296875 63.171875 
C 7.703125 54.1875 3.59375 42.71875 3.59375 30.640625 
C 3.59375 19.265625 7.203125 8.578125 13.90625 -0.296875 
C 17.703125 -5.09375 21.09375 -8.078125 27.90625 -12.28125 
L 27.90625 -8.578125 
C 17.90625 0.203125 13.90625 11.484375 13.90625 30.640625 
C 13.90625 49.796875 17.90625 60.984375 27.90625 69.765625 
z
" id="Century_Schoolbook_L_Roman-40"/>
      <path d="M 39 48 
L 35.5 48 
L 32.59375 44.40625 
C 29 47.203125 25.40625 48.390625 20.40625 48.390625 
C 11.59375 48.390625 5.796875 42.625 5.796875 33.953125 
C 5.796875 30.078125 7.09375 26.78125 9.296875 24.8125 
C 11.59375 22.703125 13.90625 21.71875 19.90625 20.3125 
L 25.203125 19.125 
C 33.09375 17.234375 35.90625 15.234375 35.90625 11.265625 
C 35.90625 6.578125 31.796875 3.296875 25.90625 3.296875 
C 17.5 3.296875 11.5 8.765625 9.09375 18.875 
L 5.09375 18.875 
L 5.09375 0 
L 8.59375 0 
L 12.09375 3.90625 
C 16.203125 0.59375 20.796875 -1 25.796875 -1 
C 35.59375 -1 42.09375 5.078125 42.09375 14.34375 
C 42.09375 18.71875 40.703125 22.09375 37.90625 24.390625 
C 35.5 26.484375 33.5 27.28125 27.40625 28.5625 
L 22.40625 29.671875 
C 16.90625 30.859375 16.90625 30.859375 15.09375 31.859375 
C 12.90625 32.859375 11.59375 34.9375 11.59375 37.140625 
C 11.59375 41.109375 15.40625 44 20.90625 44 
C 24.703125 44 27.796875 42.703125 30.59375 40.015625 
C 32.796875 37.8125 33.90625 35.828125 35.5 31.234375 
L 39 31.234375 
z
" id="Century_Schoolbook_L_Roman-115"/>
      <path d="M 5.40625 -12.28125 
C 11.40625 -8.578125 14.59375 -5.984375 18 -1.890625 
C 25.59375 6.984375 29.703125 18.5625 29.703125 30.640625 
C 29.703125 42.015625 26.09375 52.703125 19.40625 61.484375 
C 15.59375 66.375 12.203125 69.359375 5.40625 73.453125 
L 5.40625 69.765625 
C 15.40625 60.984375 19.40625 49.796875 19.40625 30.640625 
C 19.40625 11.375 15.40625 0.203125 5.40625 -8.578125 
z
" id="Century_Schoolbook_L_Roman-41"/>
     </defs>
     <g transform="translate(209.793939 273.24577)scale(0.18 -0.18)">
      <use transform="translate(0 -0.29235)scale(0.996264)" xlink:href="#Century_Schoolbook_L_Roman-84"/>
      <use transform="translate(66.450031 -0.29235)scale(0.996264)" xlink:href="#Century_Schoolbook_L_Roman-105"/>
      <use transform="translate(97.831344 -0.29235)scale(0.996264)" xlink:href="#Century_Schoolbook_L_Roman-109"/>
      <use transform="translate(186.398251 -0.29235)scale(0.996264)" xlink:href="#Century_Schoolbook_L_Roman-101"/>
      <use transform="translate(263.906621 -0.29235)scale(0.996264)" xlink:href="#Century_Schoolbook_L_Roman-40"/>
      <use transform="translate(297.081851 -0.29235)scale(0.996264)" xlink:href="#Century_Schoolbook_L_Roman-115"/>
      <use transform="translate(343.207661 -0.29235)scale(0.996264)" xlink:href="#Century_Schoolbook_L_Roman-41"/>
     </g>
    </g>
   </g>
   <g id="matplotlib.axis_2">
    <g id="ytick_1">
     <g id="line2d_6">
      <defs>
       <path d="M 0 0 
L -3.5 0 
" id="mdaea3b942b" style="stroke:#000000;stroke-width:0.8;"/>
      </defs>
      <g>
       <use style="stroke:#000000;stroke-width:0.8;" x="74.04833" xlink:href="#mdaea3b942b" y="230.88"/>
      </g>
     </g>
     <g id="text_7">
      <!-- $0$ -->
      <g transform="translate(58.7932 237.548975)scale(0.18 -0.18)">
       <use transform="scale(0.996264)" xlink:href="#CMR17-48"/>
      </g>
     </g>
    </g>
    <g id="ytick_2">
     <g id="line2d_7">
      <g>
       <use style="stroke:#000000;stroke-width:0.8;" x="74.04833" xlink:href="#mdaea3b942b" y="166.706783"/>
      </g>
     </g>
     <g id="text_8">
      <!-- $1000$ -->
      <g transform="translate(34.02782 173.375758)scale(0.18 -0.18)">
       <use transform="scale(0.996264)" xlink:href="#CMR17-49"/>
       <use transform="translate(45.690477 0)scale(0.996264)" xlink:href="#CMR17-48"/>
       <use transform="translate(91.380954 0)scale(0.996264)" xlink:href="#CMR17-48"/>
       <use transform="translate(137.071431 0)scale(0.996264)" xlink:href="#CMR17-48"/>
      </g>
     </g>
    </g>
    <g id="ytick_3">
     <g id="line2d_8">
      <g>
       <use style="stroke:#000000;stroke-width:0.8;" x="74.04833" xlink:href="#mdaea3b942b" y="102.533567"/>
      </g>
     </g>
     <g id="text_9">
      <!-- $2000$ -->
      <g transform="translate(34.02782 109.202542)scale(0.18 -0.18)">
       <use transform="scale(0.996264)" xlink:href="#CMR17-50"/>
       <use transform="translate(45.690477 0)scale(0.996264)" xlink:href="#CMR17-48"/>
       <use transform="translate(91.380954 0)scale(0.996264)" xlink:href="#CMR17-48"/>
       <use transform="translate(137.071431 0)scale(0.996264)" xlink:href="#CMR17-48"/>
      </g>
     </g>
    </g>
    <g id="ytick_4">
     <g id="line2d_9">
      <g>
       <use style="stroke:#000000;stroke-width:0.8;" x="74.04833" xlink:href="#mdaea3b942b" y="38.36035"/>
      </g>
     </g>
     <g id="text_10">
      <!-- $3000$ -->
      <g transform="translate(34.02782 45.029325)scale(0.18 -0.18)">
       <use transform="scale(0.996264)" xlink:href="#CMR17-51"/>
       <use transform="translate(45.690477 0)scale(0.996264)" xlink:href="#CMR17-48"/>
       <use transform="translate(91.380954 0)scale(0.996264)" xlink:href="#CMR17-48"/>
       <use transform="translate(137.071431 0)scale(0.996264)" xlink:href="#CMR17-48"/>
      </g>
     </g>
    </g>
    <g id="text_11">
     <!-- Spindle Speed (RPM) -->
     <defs>
      <path d="M 54.59375 72 
L 50.90625 72 
L 46.90625 66.09375 
C 42.203125 70.59375 35.796875 73 28.703125 73 
C 15.59375 73 6.796875 64.609375 6.796875 52.15625 
C 6.796875 41.28125 12.203125 35.890625 26.90625 32.109375 
L 36.40625 29.703125 
C 43.796875 27.828125 44.5 27.625 46.59375 26.03125 
C 49.59375 23.734375 51.203125 20.4375 51.203125 16.546875 
C 51.203125 12.5625 49.703125 9.28125 46.703125 6.59375 
C 43.40625 3.6875 40.09375 2.59375 34.59375 2.59375 
C 27.203125 2.59375 21.90625 4.875 17.203125 10.03125 
C 13 14.703125 10.90625 19.375 9.40625 27 
L 5.09375 27 
L 5.5 -1.4375 
L 9.40625 -1.4375 
L 13.90625 5.46875 
C 20.59375 0 26.203125 -2 34.90625 -2 
C 49.59375 -2 59 6.59375 59 19.9375 
C 59 26.109375 56.90625 31.40625 53 35.203125 
C 50.296875 37.796875 46.40625 39.484375 38.40625 41.484375 
L 27.703125 44.171875 
C 18.796875 46.46875 14.59375 50.359375 14.59375 56.4375 
C 14.59375 63.40625 20.296875 68.203125 28.796875 68.203125 
C 35.796875 68.203125 41.5 65.1875 45.5 59.484375 
C 48.40625 55.375 50.203125 51.15625 51.5 46.046875 
L 55.796875 46.046875 
z
" id="Century_Schoolbook_L_Roman-83"/>
      <path d="M 20.09375 46 
L 2.796875 46 
L 2.796875 41.21875 
L 6.40625 41.21875 
C 10.09375 41.21875 10.703125 40.515625 10.703125 36.21875 
L 10.703125 -7.75 
L 10.703125 -11.71875 
C 10.703125 -15.71875 9.59375 -16.40625 3.203125 -16.40625 
L 2.796875 -16.40625 
L 2.796875 -20 
L 28.796875 -20 
L 28.796875 -16.40625 
L 27.703125 -16.40625 
C 21.203125 -16.40625 20.09375 -15.71875 20.09375 -11.734375 
L 20.09375 -7.75 
L 20.09375 6.6875 
C 23.40625 0.90625 27.203125 -1.390625 33.296875 -1.390625 
C 44.90625 -1.390625 53.5 9.265625 53.5 23.5 
C 53.5 37.265625 44.90625 48 33.90625 48 
C 27.703125 48 23.59375 45.4375 20.09375 39.515625 
z
M 32.09375 42.609375 
C 39 42.609375 43 35.75 43 24.09375 
C 43 11.265625 38.90625 4 31.796875 4 
C 24.703125 4 20 11.375 20 22.8125 
C 20 35.140625 24.5 42.609375 32.09375 42.609375 
z
" id="Century_Schoolbook_L_Roman-112"/>
      <path d="M 20 46 
L 2.703125 46 
L 2.703125 41.21875 
L 6.296875 41.21875 
C 10 41.21875 10.59375 40.515625 10.59375 36.203125 
L 10.59375 12.296875 
L 10.59375 8.296875 
C 10.59375 4.296875 9.5 3.59375 3.09375 3.59375 
L 2.703125 3.59375 
L 2.703125 0 
L 28 0 
L 28 3.59375 
L 27.59375 3.59375 
C 21.09375 3.59375 20 4.296875 20 8.28125 
L 20 12.28125 
L 20 22.65625 
C 20 27.546875 20.703125 32.03125 21.796875 34.328125 
C 23.90625 38.828125 28.40625 41.921875 32.703125 41.921875 
C 35.296875 41.921875 38.296875 40.421875 39.796875 38.421875 
C 41.296875 36.328125 42 33.234375 42 28.4375 
L 42 12.28125 
L 42 8.28125 
C 42 4.296875 40.90625 3.59375 34.40625 3.59375 
L 34 3.59375 
L 34 0 
L 59.296875 0 
L 59.296875 3.59375 
L 58.90625 3.59375 
C 52.5 3.59375 51.40625 4.296875 51.40625 8.28125 
L 51.40625 12.28125 
L 51.40625 27.953125 
C 51.40625 35.125 51.09375 36.921875 49.296875 40.328125 
C 46.796875 45.109375 41.703125 48 35.796875 48 
C 29.40625 48 24.40625 45.046875 20 38.515625 
z
" id="Century_Schoolbook_L_Roman-110"/>
      <path d="M 38 0 
L 55.40625 0 
L 55.40625 4.703125 
L 53.59375 4.703125 
C 48.203125 4.703125 47.40625 5.703125 47.40625 11.96875 
L 47.40625 73.78125 
L 27.796875 73.78125 
L 27.796875 69 
L 33.703125 69 
C 37.296875 69 38 68.28125 38 63.921875 
L 38 41 
C 34.296875 46.09375 30 48.390625 24.203125 48.390625 
C 12.90625 48.390625 4.296875 37.546875 4.296875 23.203125 
C 4.296875 9.0625 12.59375 -1 24.203125 -1 
C 30.5 -1 34.796875 1.671875 38 7.59375 
z
M 26.203125 43 
C 30.296875 43 34.203125 40.03125 36 35.4375 
C 37.203125 32.453125 37.90625 28.28125 37.90625 23.515625 
C 37.90625 11.96875 33.296875 4.390625 26.09375 4.390625 
C 19.09375 4.390625 14.796875 10.96875 14.796875 22.015625 
C 14.796875 27.890625 15.40625 32.359375 16.703125 35.734375 
C 18.40625 40.125 22.09375 43 26.203125 43 
z
" id="Century_Schoolbook_L_Roman-100"/>
      <path d="M 20.40625 73 
L 1.90625 73 
L 1.90625 68.21875 
L 6.796875 68.21875 
C 10.40625 68.21875 11 67.515625 11 63.21875 
L 11 12.28125 
L 11 8.28125 
C 11 4.296875 9.90625 3.59375 3.5 3.59375 
L 2.796875 3.59375 
L 2.796875 0 
L 28.703125 0 
L 28.703125 3.59375 
L 28 3.59375 
C 21.5 3.59375 20.40625 4.296875 20.40625 8.25 
L 20.40625 12.21875 
z
" id="Century_Schoolbook_L_Roman-108"/>
      <path d="M 24.59375 35 
L 30.40625 35 
C 34.296875 35 38.296875 33.796875 40.5 31.984375 
C 43.40625 29.6875 44.90625 26.078125 45.59375 19.46875 
L 46.09375 14.34375 
C 47.296875 3.015625 51 -1.59375 58.90625 -1.59375 
C 67.09375 -1.59375 71 3.921875 71.296875 15.921875 
L 67.09375 15.921875 
C 66.703125 9 65.5 6 62.796875 6 
C 60.5 6 59.5 7.703125 57.796875 14.625 
L 56.203125 20.9375 
C 54 30.171875 50.09375 34.375 42.296875 36.390625 
C 56.703125 38.390625 63.59375 44.140625 63.59375 54.1875 
C 63.59375 65.53125 54 72 37.203125 72 
L 2.59375 72 
L 2.59375 67.3125 
L 4.40625 67.3125 
C 12.5 67.3125 13.40625 66.8125 13.40625 62.609375 
L 13.40625 59.734375 
L 13.40625 12.171875 
L 13.40625 9.375 
C 13.40625 5.1875 12.5 4.6875 4.40625 4.6875 
L 2.59375 4.6875 
L 2.59375 0 
L 35.40625 0 
L 35.40625 4.6875 
L 33.59375 4.6875 
C 25.5 4.6875 24.59375 5.1875 24.59375 9.390625 
L 24.59375 12.1875 
z
M 24.59375 39.6875 
L 24.59375 61.625 
C 24.59375 65.625 24.703125 65.921875 25.703125 66.71875 
C 26.5 67.3125 27.203125 67.3125 31.5 67.3125 
L 36.90625 67.3125 
C 46.796875 67.3125 51.296875 63.125 51.296875 54.09375 
C 51.296875 49.015625 50 45.140625 47.40625 43.0625 
C 44.90625 40.984375 40.40625 39.6875 35.59375 39.6875 
z
" id="Century_Schoolbook_L_Roman-82"/>
      <path d="M 24.796875 32 
L 36.09375 32 
C 45.09375 32 49.796875 32.703125 53.796875 34.59375 
C 60.90625 38 64.90625 44.359375 64.90625 52.25 
C 64.90625 59.84375 61.40625 65.609375 54.796875 68.90625 
C 50.90625 70.90625 44.703125 72 37.796875 72 
L 2.796875 72 
L 2.796875 67.3125 
L 4.59375 67.3125 
C 12.703125 67.3125 13.59375 66.8125 13.59375 62.609375 
L 13.59375 59.734375 
L 13.59375 12.28125 
L 13.59375 9.375 
C 13.59375 5.1875 12.703125 4.6875 4.59375 4.6875 
L 2.796875 4.6875 
L 2.796875 0 
L 36.40625 0 
L 36.40625 4.6875 
L 33.796875 4.6875 
C 25.703125 4.6875 24.796875 5.1875 24.796875 9.375 
L 24.796875 12.265625 
z
M 24.796875 36.703125 
L 24.796875 62.21875 
C 24.796875 66.8125 25.40625 67.3125 30.90625 67.3125 
L 37.296875 67.3125 
C 47.703125 67.3125 52.59375 62.421875 52.59375 51.859375 
C 52.59375 41.59375 47.5 36.703125 36.90625 36.703125 
z
" id="Century_Schoolbook_L_Roman-80"/>
      <path d="M 28.703125 72 
L 2.90625 72 
L 2.90625 67.3125 
L 4.796875 67.3125 
C 12.90625 67.3125 13.796875 66.8125 13.796875 62.59375 
L 13.796875 59.703125 
L 13.796875 21.390625 
C 13.796875 7.78125 11.796875 4.890625 2.203125 4.890625 
L 2.203125 0 
L 30.703125 0 
L 30.703125 4.890625 
C 21.203125 4.890625 19.203125 7.78125 19.203125 21.40625 
L 19.203125 65.625 
L 43 0 
L 47 0 
L 69.296875 65.625 
L 69.296875 12.453125 
L 69.296875 9.5625 
C 69.296875 5.296875 68.40625 4.890625 60.296875 4.890625 
L 58.5 4.890625 
L 58.5 0 
L 91.296875 0 
L 91.296875 4.890625 
L 89.5 4.890625 
C 81.40625 4.890625 80.5 5.296875 80.5 9.5625 
L 80.5 12.453125 
L 80.5 59.75 
L 80.5 62.625 
C 80.5 66.8125 81.40625 67.3125 89.5 67.3125 
L 91.296875 67.3125 
L 91.296875 72 
L 66.203125 72 
L 47.90625 18.84375 
z
" id="Century_Schoolbook_L_Roman-77"/>
     </defs>
     <g transform="translate(25.33795 211.367235)rotate(-90)scale(0.18 -0.18)">
      <use transform="translate(0 -1.570628)scale(0.996264)" xlink:href="#Century_Schoolbook_L_Roman-83"/>
      <use transform="translate(62.763979 -1.570628)scale(0.996264)" xlink:href="#Century_Schoolbook_L_Roman-112"/>
      <use transform="translate(119.949466 -1.570628)scale(0.996264)" xlink:href="#Century_Schoolbook_L_Roman-105"/>
      <use transform="translate(151.330779 -1.570628)scale(0.996264)" xlink:href="#Century_Schoolbook_L_Roman-110"/>
      <use transform="translate(212.20241 -1.570628)scale(0.996264)" xlink:href="#Century_Schoolbook_L_Roman-100"/>
      <use transform="translate(269.387897 -1.570628)scale(0.996264)" xlink:href="#Century_Schoolbook_L_Roman-108"/>
      <use transform="translate(300.76921 -1.570628)scale(0.996264)" xlink:href="#Century_Schoolbook_L_Roman-101"/>
      <use transform="translate(378.27758 -1.570628)scale(0.996264)" xlink:href="#Century_Schoolbook_L_Roman-83"/>
      <use transform="translate(441.041559 -1.570628)scale(0.996264)" xlink:href="#Century_Schoolbook_L_Roman-112"/>
      <use transform="translate(498.227047 -1.570628)scale(0.996264)" xlink:href="#Century_Schoolbook_L_Roman-101"/>
      <use transform="translate(548.040247 -1.570628)scale(0.996264)" xlink:href="#Century_Schoolbook_L_Roman-101"/>
      <use transform="translate(597.853448 -1.570628)scale(0.996264)" xlink:href="#Century_Schoolbook_L_Roman-100"/>
      <use transform="translate(682.734104 -1.570628)scale(0.996264)" xlink:href="#Century_Schoolbook_L_Roman-40"/>
      <use transform="translate(715.909334 -1.570628)scale(0.996264)" xlink:href="#Century_Schoolbook_L_Roman-82"/>
      <use transform="translate(787.839319 -1.570628)scale(0.996264)" xlink:href="#Century_Schoolbook_L_Roman-80"/>
      <use transform="translate(854.28935 -1.570628)scale(0.996264)" xlink:href="#Century_Schoolbook_L_Roman-77"/>
      <use transform="translate(948.336119 -1.570628)scale(0.996264)" xlink:href="#Century_Schoolbook_L_Roman-41"/>
     </g>
    </g>
   </g>
   <g id="line2d_10">
    <path clip-path="url(#p114e24b37d)" d="M 74.04833 230.88 
L 74.986513 230.88 
L 75.101255 230.68748 
L 75.188999 230.68748 
L 75.303741 227.928032 
L 75.323989 227.928032 
L 75.445481 222.858348 
L 75.661465 222.858348 
L 75.776207 215.221735 
L 75.931446 215.221735 
L 76.046188 213.104019 
L 76.133932 213.104019 
L 76.255423 212.205594 
L 76.268922 212.205594 
L 76.383664 211.820555 
L 76.808884 211.884728 
L 76.923626 211.948901 
L 76.943874 211.948901 
L 77.058616 212.141421 
L 77.14636 212.141421 
L 77.261102 212.269767 
L 77.28135 212.269767 
L 77.396092 212.462287 
L 77.483836 212.462287 
L 77.598578 212.654806 
L 77.753817 212.71898 
L 77.868559 212.783153 
L 78.023798 212.847326 
L 78.145289 212.975673 
L 78.428769 213.039846 
L 78.543511 213.104019 
L 95.910028 213.104019 
L 96.031519 212.783153 
L 96.112514 212.783153 
L 96.227255 212.52646 
L 96.247504 212.52646 
L 96.362246 212.205594 
L 96.382494 212.205594 
L 96.503986 211.435515 
L 96.58498 211.435515 
L 96.706471 210.53709 
L 96.787466 210.53709 
L 96.902207 210.023705 
L 96.922456 210.023705 
L 97.043947 208.996933 
L 97.124942 208.996933 
L 97.246433 207.905988 
L 97.327427 207.905988 
L 97.448919 206.686697 
L 97.529913 206.686697 
L 97.644655 206.044965 
L 97.664903 206.044965 
L 97.786395 204.633154 
L 97.867389 204.633154 
L 97.98888 202.836304 
L 98.13737 202.836304 
L 98.258861 200.141029 
L 98.27236 200.141029 
L 98.387102 198.344179 
L 98.407351 198.344179 
L 98.528842 193.402841 
L 98.609836 193.402841 
L 98.724578 190.835913 
L 98.812322 190.835913 
L 98.927064 187.113866 
L 98.947312 187.113866 
L 99.068804 185.317016 
L 99.149798 185.317016 
L 99.271289 184.546938 
L 99.419779 184.546938 
L 99.534521 184.354418 
L 99.82475 184.354418 
L 99.939492 184.482764 
L 99.95974 184.482764 
L 100.074482 184.611111 
L 100.229721 184.675284 
L 100.344463 184.739457 
L 101.174654 184.675284 
L 101.289396 184.611111 
L 101.444635 184.546938 
L 101.559377 184.354418 
L 101.647121 184.354418 
L 101.768612 184.097725 
L 101.849606 184.097725 
L 101.964348 183.969379 
L 102.119587 183.905205 
L 102.241078 183.648513 
L 102.322073 183.648513 
L 102.443564 183.39182 
L 102.457063 183.39182 
L 102.571805 183.1993 
L 102.659549 183.1993 
L 102.78104 182.942607 
L 102.862034 182.942607 
L 102.983526 182.621741 
L 102.997025 182.621741 
L 103.111767 182.493395 
L 103.132015 182.493395 
L 103.253507 182.172529 
L 103.401996 182.172529 
L 103.523487 181.851662 
L 103.604482 181.851662 
L 103.725973 181.530796 
L 103.806967 181.530796 
L 103.928459 181.20993 
L 104.076948 181.20993 
L 104.198439 180.889064 
L 104.346929 180.824891 
L 104.46842 180.568198 
L 104.549415 180.568198 
L 104.664156 180.311505 
L 104.684405 180.311505 
L 104.7519 180.118986 
L 104.799147 180.183159 
L 104.886891 180.183159 
L 105.015131 179.79812 
L 105.156871 179.79812 
L 105.278363 179.284734 
L 105.426852 179.348907 
L 105.548344 178.771348 
L 105.696833 178.771348 
L 105.811575 178.322136 
L 105.966814 178.322136 
L 106.081556 178.001269 
L 106.101804 178.001269 
L 106.223296 177.423711 
L 106.371785 177.423711 
L 106.486527 177.231191 
L 106.641766 177.231191 
L 106.763257 176.396939 
L 106.911747 176.332766 
L 107.026489 176.0119 
L 107.046737 176.0119 
L 107.168229 175.434341 
L 107.384213 175.370168 
L 107.505705 174.728435 
L 107.586699 174.728435 
L 107.701441 174.471743 
L 107.789185 174.407569 
L 107.903926 174.21505 
L 107.924175 174.21505 
L 108.045666 173.509144 
L 108.194156 173.509144 
L 108.308898 173.188278 
L 108.329146 173.188278 
L 108.443888 172.867412 
L 108.464137 172.867412 
L 108.585628 172.22568 
L 108.734117 172.161507 
L 108.848859 171.776467 
L 108.936603 171.776467 
L 109.058094 171.134735 
L 109.071593 171.134735 
L 109.186335 171.006389 
L 109.206584 171.006389 
L 109.328075 170.23631 
L 109.40907 170.23631 
L 109.523811 169.979617 
L 109.54406 169.979617 
L 109.658802 169.787098 
L 109.67905 169.787098 
L 109.800542 169.017019 
L 109.881536 169.017019 
L 110.003027 168.567807 
L 110.084022 168.567807 
L 110.205513 167.797728 
L 110.219012 167.797728 
L 110.333754 167.476862 
L 110.421498 167.476862 
L 110.542989 166.83513 
L 110.556488 166.83513 
L 110.67123 166.385917 
L 110.691478 166.385917 
L 110.819719 165.808358 
L 110.961459 165.808358 
L 111.082951 164.974106 
L 111.23144 164.974106 
L 111.346182 164.268201 
L 111.366431 164.268201 
L 111.487922 163.433949 
L 111.568916 163.433949 
L 111.697157 162.599697 
L 111.838897 162.599697 
L 111.953639 162.150485 
L 111.973887 162.150485 
L 112.095379 161.380406 
L 112.108878 161.380406 
L 112.22362 160.867021 
L 112.243868 160.867021 
L 112.36536 160.032769 
L 112.378859 160.032769 
L 112.493601 159.519383 
L 112.581344 159.519383 
L 112.696086 158.941824 
L 112.851325 158.941824 
L 112.993065 157.016628 
L 113.053811 157.016628 
L 113.175302 155.86151 
L 113.323792 155.86151 
L 113.445283 154.834738 
L 113.593772 154.834738 
L 113.715264 153.615447 
L 113.728763 153.615447 
L 113.843505 153.037888 
L 113.863753 153.037888 
L 113.978495 152.396156 
L 113.998744 152.396156 
L 114.120235 151.112692 
L 114.133734 151.112692 
L 114.248476 150.406786 
L 114.268725 150.406786 
L 114.383466 149.700881 
L 114.403715 149.700881 
L 114.518457 149.059149 
L 114.538705 149.059149 
L 114.660197 147.583165 
L 114.673696 147.583165 
L 114.795187 145.978834 
L 114.943677 145.978834 
L 115.065168 144.438677 
L 115.213657 144.438677 
L 115.335149 142.706 
L 115.348648 142.706 
L 115.46339 141.743402 
L 115.483638 141.743402 
L 115.60513 139.882379 
L 115.618629 139.882379 
L 115.733371 138.919781 
L 115.821114 138.919781 
L 115.942606 136.802064 
L 115.956105 136.802064 
L 116.070847 135.71112 
L 116.15859 135.71112 
L 116.280082 133.465057 
L 116.293581 133.465057 
L 116.408323 132.181593 
L 116.496066 132.181593 
L 116.617558 129.678837 
L 116.631057 129.678837 
L 116.752548 126.919389 
L 116.833542 126.919389 
L 116.948284 125.507578 
L 116.968533 125.507578 
L 117.083275 123.967421 
L 117.103523 123.967421 
L 117.225015 120.75876 
L 117.373504 120.75876 
L 117.494995 117.229233 
L 117.508495 117.229233 
L 117.623236 115.304037 
L 117.643485 115.304037 
L 117.764976 111.261124 
L 117.845971 111.261124 
L 117.967462 106.961519 
L 118.115951 106.961519 
L 118.237443 102.469393 
L 118.250942 102.469393 
L 118.365684 100.159158 
L 118.385932 100.159158 
L 118.507424 95.731206 
L 118.655913 95.731206 
L 118.777404 91.303254 
L 118.790903 91.303254 
L 118.905645 89.249711 
L 118.925894 89.249711 
L 119.047385 85.206798 
L 119.12838 85.206798 
L 119.243121 83.217428 
L 119.26337 83.217428 
L 119.384861 79.302862 
L 119.465856 79.302862 
L 119.587347 75.452469 
L 119.870827 75.452469 
L 119.999068 69.997746 
L 120.005817 69.997746 
L 120.127309 66.404046 
L 120.208303 66.404046 
L 120.329794 62.874519 
L 120.478284 62.874519 
L 120.593026 61.206015 
L 120.613274 61.206015 
L 120.734765 57.804835 
L 120.748265 57.804835 
L 120.863006 56.200504 
L 120.883255 56.200504 
L 121.004746 52.863497 
L 121.018245 52.863497 
L 121.132987 51.259167 
L 121.220731 51.259167 
L 121.342222 48.114679 
L 121.423217 48.114679 
L 121.537958 46.574522 
L 121.558207 46.574522 
L 121.679698 43.494207 
L 121.760693 43.494207 
L 121.882184 40.542239 
L 121.895683 40.542239 
L 122.010425 39.066255 
L 122.098169 39.066255 
L 122.21966 36.306807 
L 122.233159 36.306807 
L 122.347901 35.344209 
L 122.368149 35.344209 
L 122.482891 34.638303 
L 122.50314 34.638303 
L 122.570635 34.189091 
L 122.577385 35.023343 
L 122.604383 35.023343 
L 122.705626 35.023343 
L 122.820367 37.012712 
L 122.840616 37.012712 
L 122.955358 39.002082 
L 122.975606 39.002082 
L 123.097098 42.852475 
L 123.178092 42.852475 
L 123.299583 46.702868 
L 123.380578 46.702868 
L 123.495319 48.692238 
L 123.650558 48.692238 
L 123.7653 54.852867 
L 123.920539 54.852867 
L 124.035281 61.141842 
L 124.19052 61.141842 
L 124.305262 65.441447 
L 124.393006 65.441447 
L 124.507748 67.68751 
L 124.595491 67.68751 
L 124.710233 74.489871 
L 124.865472 74.489871 
L 124.980214 79.110343 
L 125.000463 79.110343 
L 125.115204 81.484752 
L 125.202948 81.484752 
L 125.31769 86.361916 
L 125.337939 86.361916 
L 125.452681 88.928845 
L 125.607919 88.928845 
L 125.722661 96.629631 
L 125.8779 96.629631 
L 125.992642 104.779629 
L 126.147881 104.779629 
L 126.262623 110.555219 
L 126.350367 110.555219 
L 126.465109 113.57136 
L 126.552852 113.57136 
L 126.667594 119.731989 
L 126.755338 119.731989 
L 126.87008 122.94065 
L 126.957824 122.94065 
L 127.072566 133.144191 
L 127.092814 133.144191 
L 127.207556 136.737891 
L 127.2953 136.737891 
L 127.410042 148.160724 
L 127.632776 148.160724 
L 127.747518 160.931194 
L 127.902757 160.931194 
L 128.017498 174.471743 
L 128.172737 174.471743 
L 128.287479 179.733946 
L 128.375223 179.733946 
L 128.496714 183.070954 
L 128.510213 183.070954 
L 128.631705 185.18867 
L 128.780194 185.18867 
L 128.901686 186.407961 
L 128.98268 186.407961 
L 129.097422 186.98552 
L 129.11767 186.98552 
L 129.232412 187.113866 
L 129.522642 187.113866 
L 129.637383 186.921347 
L 129.725127 186.921347 
L 129.846619 186.536307 
L 129.927613 186.536307 
L 130.042355 186.343788 
L 130.062603 186.343788 
L 130.177345 185.958748 
L 130.265089 185.958748 
L 130.38658 185.573709 
L 130.602565 185.573709 
L 130.730806 185.060323 
L 130.805051 185.060323 
L 130.926542 184.675284 
L 131.007536 184.675284 
L 131.129028 184.354418 
L 131.277517 184.354418 
L 131.399008 184.033552 
L 131.412507 184.033552 
L 131.527249 183.905205 
L 131.547498 183.905205 
L 131.668989 183.584339 
L 131.817479 183.584339 
L 131.93897 183.263473 
L 132.019964 183.263473 
L 132.141456 182.942607 
L 132.154955 182.942607 
L 132.269697 182.814261 
L 132.35744 182.814261 
L 132.478932 182.493395 
L 132.559926 182.493395 
L 132.681417 182.172529 
L 132.762412 182.172529 
L 132.883903 181.851662 
L 132.897402 181.851662 
L 133.012144 181.659143 
L 133.099888 181.659143 
L 133.221379 181.40245 
L 133.302373 181.40245 
L 133.423865 181.081584 
L 133.504859 181.081584 
L 133.619601 180.953237 
L 133.842335 181.017411 
L 133.963826 180.439852 
L 134.044821 180.439852 
L 134.112316 180.311505 
L 134.152813 180.375678 
L 134.382297 180.375678 
L 134.503788 179.6056 
L 134.584782 179.6056 
L 134.652277 179.477253 
L 134.692774 179.541427 
L 134.787268 179.541427 
L 134.90201 179.348907 
L 134.922258 179.348907 
L 135.04375 178.514655 
L 135.327229 178.450482 
L 135.448721 177.680403 
L 135.59721 177.680403 
L 135.664705 177.423711 
L 135.711952 177.487884 
L 135.799696 177.487884 
L 135.927937 176.910325 
L 136.002182 176.910325 
L 136.116923 176.525285 
L 136.339658 176.461112 
L 136.461149 175.62686 
L 136.474648 175.62686 
L 136.58939 175.434341 
L 136.812124 175.434341 
L 136.940365 174.792609 
L 136.947114 174.792609 
L 137.061856 174.407569 
L 137.1496 174.407569 
L 137.264342 174.279223 
L 137.28459 174.279223 
L 137.406082 173.444971 
L 137.622067 173.380798 
L 137.784055 172.867412 
L 137.824552 172.867412 
L 137.939294 172.289853 
L 138.162028 172.22568 
L 138.27677 171.840641 
L 138.297019 171.840641 
L 138.41176 171.198908 
L 138.566999 171.134735 
L 138.688491 170.300483 
L 138.83698 170.300483 
L 138.951722 169.979617 
L 139.039466 169.979617 
L 139.154208 169.530405 
L 139.174456 169.530405 
L 139.289198 168.888673 
L 139.309447 168.888673 
L 139.424189 168.696153 
L 139.444437 168.696153 
L 139.565929 167.797728 
L 139.714418 167.797728 
L 139.835909 167.348515 
L 140.051894 167.348515 
L 140.180135 166.193398 
L 140.186884 166.193398 
L 140.301626 165.936705 
L 140.321875 165.936705 
L 140.443366 164.974106 
L 140.456865 164.974106 
L 140.571607 164.781587 
L 140.659351 164.781587 
L 140.774093 164.332374 
L 140.794341 164.332374 
L 140.915833 163.498122 
L 140.929332 163.498122 
L 141.044074 163.24143 
L 141.064322 163.24143 
L 141.185814 162.150485 
L 141.334303 162.150485 
L 141.489542 160.867021 
L 141.604284 160.867021 
L 141.719026 160.546155 
L 141.739274 160.546155 
L 141.854016 160.161115 
L 141.874265 160.161115 
L 141.995756 159.070171 
L 142.009255 159.070171 
L 142.123997 158.685131 
L 142.144245 158.685131 
L 142.265737 157.530013 
L 142.414226 157.530013 
L 142.535718 156.631588 
L 142.549217 156.631588 
L 142.663959 155.989856 
L 142.684207 155.989856 
L 142.805699 154.963085 
L 142.954188 154.963085 
L 143.06893 154.321353 
L 143.089178 154.321353 
L 143.21067 153.166235 
L 143.224169 153.166235 
L 143.34566 151.818597 
L 143.426654 151.818597 
L 143.548146 150.535133 
L 143.62914 150.535133 
L 143.750631 149.251668 
L 143.899121 149.251668 
L 144.020612 147.647338 
L 144.034111 147.647338 
L 144.148853 146.941433 
L 144.236597 146.941433 
L 144.358088 145.272929 
L 144.371587 145.272929 
L 144.486329 144.50285 
L 144.574073 144.50285 
L 144.695564 142.770174 
L 144.776559 142.770174 
L 144.89805 140.90915 
L 144.911549 140.90915 
L 145.026291 140.010725 
L 145.046539 140.010725 
L 145.168031 137.957182 
L 145.31652 137.957182 
L 145.438012 135.839466 
L 145.519006 135.839466 
L 145.640497 133.593404 
L 145.721492 133.593404 
L 145.842983 131.154821 
L 145.923977 131.154821 
L 146.045469 128.523719 
L 146.058968 128.523719 
L 146.173709 127.111909 
L 146.261453 127.111909 
L 146.382945 124.159941 
L 146.463939 124.159941 
L 146.58543 120.95128 
L 146.666424 120.95128 
L 146.781166 119.218603 
L 146.801415 119.218603 
L 146.916157 117.421753 
L 147.071396 117.421753 
L 147.206386 109.464274 
L 147.341377 109.464274 
L 147.462868 105.100495 
L 147.543862 105.100495 
L 147.665353 100.672543 
L 147.746348 100.672543 
L 147.86109 98.490654 
L 147.881338 98.490654 
L 148.00283 94.126875 
L 148.083824 94.126875 
L 148.198566 92.073332 
L 148.218814 92.073332 
L 148.340306 88.094593 
L 148.4213 88.094593 
L 148.542791 84.2442 
L 148.623785 84.2442 
L 148.745277 80.393807 
L 148.826271 80.393807 
L 148.947762 76.67176 
L 149.096252 76.67176 
L 149.217743 73.07806 
L 149.231242 73.07806 
L 149.345984 71.345383 
L 149.433728 71.345383 
L 149.54847 67.88003 
L 149.568718 67.88003 
L 149.68346 66.147353 
L 149.703709 66.147353 
L 149.818451 64.414676 
L 149.838699 64.414676 
L 149.960191 61.077669 
L 150.041185 61.077669 
L 150.155927 59.409165 
L 150.176175 59.409165 
L 150.297667 56.200504 
L 150.378661 56.200504 
L 150.500152 52.991843 
L 150.581146 52.991843 
L 150.695888 51.387513 
L 150.716137 51.387513 
L 150.837628 48.243025 
L 150.918623 48.243025 
L 151.040114 45.226884 
L 151.121108 45.226884 
L 151.2426 42.210743 
L 151.323594 42.210743 
L 151.438336 40.734759 
L 151.458584 40.734759 
L 151.580076 37.846964 
L 151.66107 37.846964 
L 151.782561 35.408382 
L 151.79606 35.408382 
L 151.910802 34.702477 
L 151.998546 34.702477 
L 152.133536 37.397752 
L 152.201031 37.397752 
L 152.322523 41.312318 
L 152.403517 41.312318 
L 152.525008 45.226884 
L 152.673498 45.226884 
L 152.794989 49.205624 
L 152.875984 49.205624 
L 152.990725 51.259167 
L 153.078469 51.259167 
L 153.193211 57.483969 
L 153.415945 57.483969 
L 153.530687 61.719401 
L 153.550936 61.719401 
L 153.665678 63.837117 
L 153.753421 63.837117 
L 153.868163 70.575305 
L 154.090897 70.575305 
L 154.205639 72.821367 
L 154.225888 72.821367 
L 154.34063 79.752075 
L 154.360878 79.752075 
L 154.47562 82.190657 
L 154.630859 82.190657 
L 154.745601 89.63475 
L 154.90084 89.63475 
L 155.015582 97.399709 
L 155.238316 97.399709 
L 155.353058 102.854433 
L 155.373306 102.854433 
L 155.488048 105.613881 
L 155.575792 105.613881 
L 155.690534 111.453644 
L 155.710782 111.453644 
L 155.825524 114.469785 
L 155.913268 114.469785 
L 156.02801 124.031594 
L 156.183249 124.031594 
L 156.297991 130.833955 
L 156.385734 130.833955 
L 156.500476 134.363482 
L 156.58822 134.363482 
L 156.702962 145.593795 
L 156.790706 145.593795 
L 156.905447 149.636708 
L 156.993191 149.636708 
L 157.114683 162.599697 
L 157.263172 162.599697 
L 157.377914 175.498514 
L 157.600648 175.498514 
L 157.71539 180.375678 
L 157.735639 180.375678 
L 157.85713 183.455993 
L 157.938124 183.455993 
L 158.059616 185.381189 
L 158.14061 185.381189 
L 158.262101 186.472134 
L 158.410591 186.472134 
L 158.532082 186.98552 
L 158.545581 186.98552 
L 158.660323 187.113866 
L 158.883057 187.049693 
L 159.018048 186.793 
L 159.085543 186.793 
L 159.207034 186.472134 
L 159.288028 186.472134 
L 159.40277 186.343788 
L 159.423019 186.343788 
L 159.54451 185.958748 
L 159.625504 185.958748 
L 159.746996 185.573709 
L 159.82799 185.573709 
L 159.949481 185.18867 
L 160.030476 185.18867 
L 160.145217 184.99615 
L 160.300456 184.99615 
L 160.428697 184.546938 
L 160.435447 184.546938 
L 160.550189 184.354418 
L 160.637933 184.354418 
L 160.759424 184.033552 
L 160.840418 184.033552 
L 160.96191 183.712686 
L 161.042904 183.712686 
L 161.157646 183.520166 
L 161.177894 183.520166 
L 161.299386 183.263473 
L 161.38038 183.263473 
L 161.501871 182.942607 
L 161.582865 182.942607 
L 161.704357 182.621741 
L 161.852846 182.621741 
L 161.974338 182.300875 
L 161.987837 182.300875 
L 162.102579 182.172529 
L 162.122827 182.172529 
L 162.244318 181.851662 
L 162.392808 181.851662 
L 162.514299 181.530796 
L 162.595294 181.530796 
L 162.710035 181.40245 
L 162.730284 181.40245 
L 162.845026 181.20993 
L 162.93277 181.145757 
L 163.047511 181.081584 
L 163.405236 181.017411 
L 163.533477 180.632371 
L 163.675217 180.632371 
L 163.789959 180.375678 
L 163.877702 180.375678 
L 163.999194 179.926466 
L 164.012693 179.926466 
L 164.127435 179.541427 
L 164.215179 179.541427 
L 164.32992 179.220561 
L 164.417664 179.220561 
L 164.545905 178.707175 
L 164.62015 178.707175 
L 164.734892 178.193789 
L 164.890131 178.193789 
L 165.011622 177.80875 
L 165.025121 177.80875 
L 165.139863 177.423711 
L 165.160111 177.423711 
L 165.274853 177.038671 
L 165.362597 177.038671 
L 165.484088 176.589459 
L 165.565083 176.589459 
L 165.679825 176.204419 
L 165.700073 176.204419 
L 165.821564 175.883553 
L 165.902559 175.883553 
L 166.017301 175.62686 
L 166.037549 175.62686 
L 166.159041 175.113475 
L 166.240035 175.113475 
L 166.354777 174.920955 
L 166.375025 174.920955 
L 166.503266 174.407569 
L 166.510016 174.407569 
L 166.624757 174.086703 
L 166.712501 174.086703 
L 166.833993 173.765837 
L 166.847492 173.765837 
L 166.962234 173.444971 
L 166.982482 173.444971 
L 167.103973 172.931585 
L 167.387453 172.931585 
L 167.502195 172.03316 
L 167.522444 172.03316 
L 167.643935 171.583948 
L 167.724929 171.583948 
L 167.846421 170.942216 
L 167.99491 170.942216 
L 168.116402 170.493003 
L 168.129901 170.493003 
L 168.244642 170.172137 
L 168.264891 170.172137 
L 168.379633 169.787098 
L 168.399881 169.787098 
L 168.521373 169.273712 
L 168.602367 169.273712 
L 168.723858 168.567807 
L 168.872348 168.567807 
L 168.993839 167.990248 
L 169.007338 167.990248 
L 169.12208 167.605208 
L 169.142329 167.605208 
L 169.257071 167.284342 
L 169.277319 167.284342 
L 169.392061 166.963476 
L 169.41231 166.963476 
L 169.533801 166.193398 
L 169.614795 166.193398 
L 169.736287 165.551665 
L 169.749786 165.551665 
L 169.864527 165.166626 
L 169.884776 165.166626 
L 170.006267 164.332374 
L 170.154757 164.332374 
L 170.276248 163.626469 
L 170.289747 163.626469 
L 170.404489 163.113083 
L 170.424738 163.113083 
L 170.546229 162.343005 
L 170.694719 162.343005 
L 170.81621 161.508753 
L 170.829709 161.508753 
L 170.944451 161.05954 
L 170.964699 161.05954 
L 171.086191 160.096942 
L 171.23468 160.096942 
L 171.356172 159.198517 
L 171.369671 159.198517 
L 171.484412 158.685131 
L 171.504661 158.685131 
L 171.626152 157.65836 
L 171.774642 157.65836 
L 171.889384 157.144974 
L 171.909632 157.144974 
L 172.031124 156.054029 
L 172.044623 156.054029 
L 172.159365 155.540644 
L 172.179613 155.540644 
L 172.301104 154.385526 
L 172.382099 154.385526 
L 172.50359 153.166235 
L 172.517089 153.166235 
L 172.631831 152.588676 
L 172.719575 152.588676 
L 172.841066 151.305211 
L 172.92206 151.305211 
L 173.043552 149.893401 
L 173.124546 149.893401 
L 173.239288 149.251668 
L 173.259536 149.251668 
L 173.381028 147.711511 
L 173.462022 147.711511 
L 173.583513 146.171354 
L 173.664508 146.171354 
L 173.77925 145.337102 
L 173.799498 145.337102 
L 173.920989 143.668599 
L 174.001984 143.668599 
L 174.123475 141.935922 
L 174.33946 141.935922 
L 174.454202 140.074898 
L 174.47445 140.074898 
L 174.595942 138.085529 
L 174.676936 138.085529 
L 174.798427 135.967813 
L 174.879421 135.967813 
L 174.994163 134.812695 
L 175.014412 134.812695 
L 175.135903 132.502459 
L 175.216897 132.502459 
L 175.338389 129.93553 
L 175.351888 129.93553 
L 175.46663 128.652066 
L 175.554373 128.652066 
L 175.675865 125.764271 
L 175.824354 125.764271 
L 175.945846 122.74813 
L 175.959345 122.74813 
L 176.080836 119.346949 
L 176.16183 119.346949 
L 176.283322 115.689076 
L 176.431811 115.689076 
L 176.553303 111.710337 
L 176.566802 111.710337 
L 176.681543 109.720967 
L 176.701792 109.720967 
L 176.823283 105.357188 
L 176.971773 105.357188 
L 177.093264 100.993409 
L 177.106763 100.993409 
L 177.221505 98.875693 
L 177.241754 98.875693 
L 177.356496 96.693804 
L 177.376744 96.693804 
L 177.491486 92.650891 
L 177.57923 92.650891 
L 177.700721 88.672152 
L 177.781715 88.672152 
L 177.903207 84.885932 
L 177.984201 84.885932 
L 178.098943 82.960736 
L 178.119191 82.960736 
L 178.240683 79.238689 
L 178.321677 79.238689 
L 178.436419 77.377666 
L 178.456667 77.377666 
L 178.578159 73.848139 
L 178.659153 73.848139 
L 178.780644 70.382785 
L 178.996629 70.382785 
L 179.111371 65.248928 
L 179.199115 65.248928 
L 179.320606 61.911921 
L 179.4016 61.911921 
L 179.516342 60.243417 
L 179.536591 60.243417 
L 179.651333 58.639086 
L 179.671581 58.639086 
L 179.793073 55.430426 
L 179.806572 55.430426 
L 179.921313 53.826095 
L 179.941562 53.826095 
L 180.063053 50.681608 
L 180.144048 50.681608 
L 180.25879 49.14145 
L 180.279038 49.14145 
L 180.39378 47.601293 
L 180.549019 47.601293 
L 180.67726 43.044995 
L 180.684009 43.044995 
L 180.798751 41.569011 
L 180.819 41.569011 
L 180.933742 40.093027 
L 180.95399 40.093027 
L 181.075482 37.205232 
L 181.156476 37.205232 
L 181.277967 35.087516 
L 181.358961 35.087516 
L 181.507451 37.526098 
L 181.561447 37.526098 
L 181.682938 41.376491 
L 181.763933 41.376491 
L 181.878674 43.365861 
L 181.898923 43.365861 
L 182.013665 45.355231 
L 182.101409 45.355231 
L 182.2229 49.398143 
L 182.236399 49.398143 
L 182.351141 51.387513 
L 182.37139 51.387513 
L 182.492881 55.558772 
L 182.64137 55.558772 
L 182.756112 61.911921 
L 182.911351 61.911921 
L 183.032843 66.275699 
L 183.113837 66.275699 
L 183.228579 68.521762 
L 183.316322 68.521762 
L 183.431064 75.324123 
L 183.653798 75.324123 
L 183.76854 82.44735 
L 183.923779 82.44735 
L 184.038521 87.388688 
L 184.05877 87.388688 
L 184.173512 89.891443 
L 184.396246 89.891443 
L 184.510988 97.720575 
L 184.666227 97.720575 
L 184.780968 105.99892 
L 184.936207 105.99892 
L 185.050949 111.838683 
L 185.071198 111.838683 
L 185.18594 114.854824 
L 185.273683 114.854824 
L 185.388425 121.143799 
L 185.408674 121.143799 
L 185.523416 124.480807 
L 185.61116 124.480807 
L 185.725901 134.812695 
L 185.948636 134.812695 
L 186.063377 146.171354 
L 186.218616 146.171354 
L 186.333358 154.321353 
L 186.353607 154.321353 
L 186.468349 158.620958 
L 186.623588 158.620958 
L 186.738329 172.674892 
L 186.893568 172.674892 
L 187.00831 180.568198 
L 187.163549 180.568198 
L 187.278291 184.611111 
L 187.568521 184.611111 
L 187.683262 186.793 
L 187.771006 186.793 
L 187.885748 186.98552 
L 188.040987 187.049693 
L 188.155729 187.113866 
L 188.243473 187.049693 
L 188.364964 186.793 
L 188.445958 186.793 
L 188.56745 186.472134 
L 188.715939 186.472134 
L 188.83743 186.151268 
L 188.918425 186.151268 
L 189.033167 185.766229 
L 189.053415 185.766229 
L 189.168157 185.573709 
L 189.255901 185.573709 
L 189.377392 185.18867 
L 189.458386 185.18867 
L 189.579878 184.867804 
L 189.660872 184.867804 
L 189.775614 184.675284 
L 189.795862 184.675284 
L 189.917354 184.354418 
L 189.998348 184.354418 
L 190.119839 184.033552 
L 190.200834 184.033552 
L 190.322325 183.712686 
L 190.403319 183.712686 
L 190.518061 183.520166 
L 190.605805 183.520166 
L 190.720547 183.263473 
L 190.740795 183.263473 
L 190.862287 182.942607 
L 190.943281 182.942607 
L 191.064772 182.621741 
L 191.213262 182.621741 
L 191.334753 182.300875 
L 191.348252 182.300875 
L 191.462994 182.172529 
L 191.483243 182.172529 
L 191.604734 181.851662 
L 191.955709 181.787489 
L 192.0772 181.40245 
L 192.22569 181.40245 
L 192.340432 181.530796 
L 192.495671 181.530796 
L 192.617162 181.274104 
L 192.698156 181.274104 
L 192.819648 181.017411 
L 192.833147 181.017411 
L 192.947889 180.889064 
L 193.035632 180.889064 
L 193.157124 180.439852 
L 193.238118 180.439852 
L 193.35286 179.926466 
L 193.440604 179.926466 
L 193.555346 179.733946 
L 193.575594 179.733946 
L 193.697085 179.220561 
L 193.77808 179.220561 
L 193.899571 178.707175 
L 193.980565 178.707175 
L 194.102057 178.193789 
L 194.250546 178.193789 
L 194.365288 177.937096 
L 194.453032 177.937096 
L 194.588022 177.231191 
L 194.655517 177.231191 
L 194.777009 176.781978 
L 194.858003 176.781978 
L 194.979494 176.332766 
L 195.060489 176.332766 
L 195.17523 176.076073 
L 195.195479 176.076073 
L 195.31697 175.62686 
L 195.330469 175.62686 
L 195.445211 175.370168 
L 195.532955 175.370168 
L 195.654446 174.856782 
L 195.735441 174.856782 
L 195.856932 174.407569 
L 195.870431 174.407569 
L 195.985173 174.150876 
L 196.005422 174.150876 
L 196.120163 173.894184 
L 196.140412 173.894184 
L 196.255154 173.637491 
L 196.275402 173.637491 
L 196.396894 173.124105 
L 196.410393 173.124105 
L 196.525135 172.867412 
L 196.612878 172.867412 
L 196.73437 172.354026 
L 196.815364 172.354026 
L 196.930106 172.097334 
L 196.950354 172.097334 
L 197.065096 171.776467 
L 197.760297 171.776467 
L 197.875039 169.530405 
L 197.895287 169.530405 
L 198.016779 168.952846 
L 198.030278 168.952846 
L 198.14502 168.567807 
L 198.232763 168.567807 
L 198.354255 167.926074 
L 198.367754 167.926074 
L 198.482496 167.605208 
L 198.502744 167.605208 
L 198.624236 166.899303 
L 198.772725 166.899303 
L 198.894216 166.193398 
L 198.907716 166.193398 
L 199.022457 165.872532 
L 199.110201 165.872532 
L 199.224943 165.102453 
L 199.245192 165.102453 
L 199.359933 164.717414 
L 199.380182 164.717414 
L 199.501673 163.947335 
L 199.582668 163.947335 
L 199.704159 163.177256 
L 199.920144 163.177256 
L 200.034885 162.343005 
L 200.055134 162.343005 
L 200.176625 161.44458 
L 200.25762 161.44458 
L 200.379111 160.546155 
L 200.39261 160.546155 
L 200.507352 160.096942 
L 200.730086 160.096942 
L 200.858327 158.620958 
L 200.865077 158.620958 
L 200.986568 157.65836 
L 201.135057 157.65836 
L 201.256549 156.631588 
L 201.337543 156.631588 
L 201.459034 155.540644 
L 201.607524 155.540644 
L 201.729015 154.385526 
L 201.742514 154.385526 
L 201.864006 153.166235 
L 202.012495 153.166235 
L 202.133986 151.946943 
L 202.147485 151.946943 
L 202.262227 151.241038 
L 202.349971 151.241038 
L 202.464713 149.957574 
L 202.484962 149.957574 
L 202.606453 148.48159 
L 202.687447 148.48159 
L 202.802189 147.711511 
L 202.822438 147.711511 
L 202.937179 146.941433 
L 203.024923 146.941433 
L 203.146415 145.337102 
L 203.159914 145.337102 
L 203.281405 143.668599 
L 203.429894 143.668599 
L 203.551386 141.935922 
L 203.564885 141.935922 
L 203.679627 140.973323 
L 203.699875 140.973323 
L 203.821367 139.1123 
L 203.834866 139.1123 
L 203.949608 138.085529 
L 204.037351 138.085529 
L 204.158843 135.967813 
L 204.239837 135.967813 
L 204.361328 133.72175 
L 204.509818 133.72175 
L 204.631309 131.218995 
L 204.644808 131.218995 
L 204.7663 128.652066 
L 204.914789 128.652066 
L 205.03628 125.828444 
L 205.049779 125.828444 
L 205.164521 124.288287 
L 205.18477 124.288287 
L 205.299512 122.74813 
L 205.31976 122.74813 
L 205.434502 121.079626 
L 205.454751 121.079626 
L 205.576242 117.550099 
L 205.657236 117.550099 
L 205.778728 113.76388 
L 205.859722 113.76388 
L 205.974464 111.77451 
L 205.994712 111.77451 
L 206.109454 109.720967 
L 206.129703 109.720967 
L 206.251194 105.421361 
L 206.264693 105.421361 
L 206.379435 103.239472 
L 206.399684 103.239472 
L 206.521175 98.875693 
L 206.602169 98.875693 
L 206.716911 96.757977 
L 206.73716 96.757977 
L 206.858651 92.586718 
L 206.939645 92.586718 
L 207.061137 88.672152 
L 207.142131 88.672152 
L 207.256873 86.746955 
L 207.277121 86.746955 
L 207.398613 82.960736 
L 207.479607 82.960736 
L 207.594349 81.099712 
L 207.817083 81.099712 
L 207.945324 75.580816 
L 207.952073 75.580816 
L 208.073565 72.115462 
L 208.154559 72.115462 
L 208.27605 68.650108 
L 208.289549 68.650108 
L 208.404291 66.853258 
L 208.42454 66.853258 
L 208.539282 65.184755 
L 208.55953 65.184755 
L 208.674272 63.516251 
L 208.694521 63.516251 
L 208.816012 60.243417 
L 208.829511 60.243417 
L 208.944253 58.639086 
L 209.031997 58.639086 
L 209.153488 55.366252 
L 209.166987 55.366252 
L 209.281729 53.761922 
L 209.369473 53.761922 
L 209.490964 50.617434 
L 209.504463 50.617434 
L 209.619205 49.077277 
L 209.639454 49.077277 
L 209.760945 45.996963 
L 209.909434 45.996963 
L 210.030926 42.980822 
L 210.11192 42.980822 
L 210.233411 40.028854 
L 210.314406 40.028854 
L 210.435897 37.141059 
L 210.516891 37.141059 
L 210.638383 35.023343 
L 210.651882 35.023343 
L 210.766624 35.408382 
L 210.854367 35.408382 
L 210.975859 39.451295 
L 210.989358 39.451295 
L 211.1041 41.312318 
L 211.124348 41.312318 
L 211.23909 43.301688 
L 211.259339 43.301688 
L 211.37408 45.291057 
L 211.394329 45.291057 
L 211.509071 47.280427 
L 211.529319 47.280427 
L 211.650811 51.387513 
L 211.7993 51.387513 
L 211.914042 55.558772 
L 211.934291 55.558772 
L 212.055782 59.730031 
L 212.136776 59.730031 
L 212.251518 61.911921 
L 212.271767 61.911921 
L 212.386509 64.029637 
L 212.541748 64.029637 
L 212.656489 70.703651 
L 212.676738 70.703651 
L 212.79148 73.013887 
L 212.811728 73.013887 
L 212.93322 77.634359 
L 213.081709 77.634359 
L 213.196451 82.383177 
L 213.2167 82.383177 
L 213.331441 84.821759 
L 213.35169 84.821759 
L 213.466432 87.324514 
L 213.48668 87.324514 
L 213.608172 92.458372 
L 213.756661 92.458372 
L 213.871403 97.720575 
L 213.891652 97.720575 
L 214.006394 100.415851 
L 214.094137 100.415851 
L 214.208879 105.99892 
L 214.229128 105.99892 
L 214.34387 108.886715 
L 214.431613 108.886715 
L 214.546355 117.999312 
L 214.769089 117.999312 
L 214.883831 121.143799 
L 214.971575 121.143799 
L 215.086317 134.941041 
L 215.174061 134.941041 
L 215.288803 138.534741 
L 215.444041 138.534741 
L 215.558783 150.214267 
L 215.714022 150.214267 
L 215.835514 163.369776 
L 216.051498 163.369776 
L 216.16624 172.803239 
L 216.186489 172.803239 
L 216.301231 175.947727 
L 216.321479 175.947727 
L 216.436221 180.696545 
L 216.45647 180.696545 
L 216.577961 183.584339 
L 216.59146 183.584339 
L 216.706202 184.611111 
L 216.793946 184.611111 
L 216.915437 186.022922 
L 216.996431 186.022922 
L 217.117923 186.793 
L 217.131422 186.793 
L 217.246164 187.049693 
L 217.603888 187.049693 
L 217.71863 186.921347 
L 217.738879 186.921347 
L 217.86037 186.664654 
L 217.941364 186.664654 
L 218.056106 186.472134 
L 218.076355 186.472134 
L 218.197846 186.151268 
L 218.211345 186.151268 
L 218.326087 185.958748 
L 218.346335 185.958748 
L 218.461077 185.702055 
L 218.548821 185.702055 
L 218.670312 185.381189 
L 218.683811 185.381189 
L 218.798553 185.18867 
L 218.818802 185.18867 
L 218.940293 184.80363 
L 219.021288 184.80363 
L 219.142779 184.482764 
L 219.291268 184.482764 
L 219.41276 184.161898 
L 219.426259 184.161898 
L 219.541001 184.033552 
L 219.561249 184.033552 
L 219.682741 183.712686 
L 219.763735 183.712686 
L 219.878477 183.584339 
L 219.898725 183.584339 
L 220.013467 183.39182 
L 220.033716 183.39182 
L 220.155207 183.070954 
L 220.168706 183.070954 
L 220.283448 182.942607 
L 220.303696 182.942607 
L 220.418438 182.750087 
L 220.438687 182.750087 
L 220.553429 182.621741 
L 220.573677 182.621741 
L 220.695169 182.300875 
L 220.911153 182.300875 
L 221.025895 182.172529 
L 221.046144 182.172529 
L 221.167635 181.787489 
L 221.181134 181.787489 
L 221.295876 181.659143 
L 221.316125 181.659143 
L 221.38362 181.466623 
L 221.430866 181.530796 
L 221.51861 181.530796 
L 221.586105 181.659143 
L 221.626603 181.59497 
L 221.788591 181.59497 
L 221.910082 181.274104 
L 222.058572 181.274104 
L 222.180063 181.017411 
L 222.261058 181.017411 
L 222.382549 180.632371 
L 222.531038 180.632371 
L 222.65253 180.247332 
L 222.666029 180.247332 
L 222.780771 179.990639 
L 222.801019 179.990639 
L 222.922511 179.477253 
L 223.071 179.477253 
L 223.185742 179.220561 
L 223.20599 179.220561 
L 223.327482 178.707175 
L 223.340981 178.707175 
L 223.462472 178.193789 
L 223.543466 178.193789 
L 223.658208 178.001269 
L 223.678457 178.001269 
L 223.793199 177.744577 
L 223.813447 177.744577 
L 223.934939 177.231191 
L 224.015933 177.231191 
L 224.137424 176.781978 
L 224.218419 176.781978 
L 224.33991 176.268593 
L 224.488399 176.268593 
L 224.609891 175.81938 
L 224.62339 175.81938 
L 224.738132 175.562687 
L 224.75838 175.562687 
L 224.879872 175.113475 
L 224.960866 175.113475 
L 225.075608 174.856782 
L 225.095856 174.856782 
L 225.217348 174.407569 
L 225.298342 174.407569 
L 225.419833 173.894184 
L 225.500828 173.894184 
L 225.615569 173.637491 
L 225.635818 173.637491 
L 225.75056 173.444971 
L 225.770808 173.444971 
L 225.8923 172.867412 
L 225.973294 172.867412 
L 226.094785 172.354026 
L 226.108284 172.354026 
L 226.223026 172.097334 
L 226.31077 172.097334 
L 226.432261 171.519775 
L 226.513256 171.519775 
L 226.634747 170.942216 
L 226.648246 170.942216 
L 226.762988 170.685523 
L 226.783236 170.685523 
L 226.897978 170.42883 
L 226.918227 170.42883 
L 227.032969 170.107964 
L 227.120713 170.107964 
L 227.235454 169.530405 
L 227.255703 169.530405 
L 227.377194 168.888673 
L 227.458189 168.888673 
L 227.57968 168.246941 
L 227.660674 168.246941 
L 227.775416 167.926074 
L 227.930655 167.926074 
L 228.058896 166.963476 
L 228.065645 166.963476 
L 228.187137 166.257571 
L 228.335626 166.257571 
L 228.457118 165.487492 
L 228.538112 165.487492 
L 228.659603 164.717414 
L 228.808093 164.717414 
L 228.929584 164.011508 
L 228.943083 164.011508 
L 229.057825 163.562296 
L 229.078074 163.562296 
L 229.199565 162.728044 
L 229.280559 162.728044 
L 229.402051 161.893792 
L 229.55054 161.893792 
L 229.672031 160.995367 
L 229.68553 160.995367 
L 229.800272 160.546155 
L 229.820521 160.546155 
L 229.942012 159.647729 
L 230.090502 159.647729 
L 230.205244 159.134344 
L 230.225492 159.134344 
L 230.346983 158.171746 
L 230.360482 158.171746 
L 230.481974 157.144974 
L 230.562968 157.144974 
L 230.684459 156.118203 
L 230.832949 156.118203 
L 230.95444 154.963085 
L 230.967939 154.963085 
L 231.082681 154.385526 
L 231.170425 154.385526 
L 231.291916 153.166235 
L 231.372911 153.166235 
L 231.494402 151.946943 
L 231.507901 151.946943 
L 231.622643 151.241038 
L 231.710387 151.241038 
L 231.831878 149.957574 
L 231.845377 149.957574 
L 231.960119 149.187495 
L 231.980367 149.187495 
L 232.095109 148.48159 
L 232.115358 148.48159 
L 232.236849 147.005606 
L 232.317844 147.005606 
L 232.439335 145.337102 
L 232.587824 145.337102 
L 232.709316 143.668599 
L 232.722815 143.668599 
L 232.837557 142.834347 
L 232.857805 142.834347 
L 232.979297 141.037497 
L 233.060291 141.037497 
L 233.175033 140.074898 
L 233.262776 140.074898 
L 233.384268 138.085529 
L 233.397767 138.085529 
L 233.512509 137.058757 
L 233.532757 137.058757 
L 233.654249 134.812695 
L 233.667748 134.812695 
L 233.78249 133.72175 
L 233.802738 133.72175 
L 233.91748 132.502459 
L 233.937729 132.502459 
L 234.05247 131.218995 
L 234.072719 131.218995 
L 234.19421 128.652066 
L 234.275205 128.652066 
L 234.389946 127.240255 
L 234.410195 127.240255 
L 234.531686 124.288287 
L 234.545185 124.288287 
L 234.659927 122.74813 
L 234.680176 122.74813 
L 234.794918 121.079626 
L 234.950157 121.079626 
L 235.078398 115.753249 
L 235.085147 115.753249 
L 235.206638 111.77451 
L 235.355128 111.77451 
L 235.476619 107.603251 
L 235.625109 107.603251 
L 235.7466 103.239472 
L 235.760099 103.239472 
L 235.874841 101.057583 
L 235.89509 101.057583 
L 236.016581 96.693804 
L 236.097575 96.693804 
L 236.219067 92.586718 
L 236.300061 92.586718 
L 236.414803 90.597348 
L 236.435051 90.597348 
L 236.556543 86.746955 
L 236.637537 86.746955 
L 236.752279 84.821759 
L 236.772527 84.821759 
L 236.894019 81.035539 
L 236.975013 81.035539 
L 237.089755 79.174516 
L 237.110003 79.174516 
L 237.231495 75.516642 
L 237.312489 75.516642 
L 237.43398 72.051289 
L 237.447479 72.051289 
L 237.562221 70.254439 
L 237.649965 70.254439 
L 237.771456 66.853258 
L 237.852451 66.853258 
L 237.973942 63.452078 
L 238.122431 63.452078 
L 238.243923 60.179244 
L 238.257422 60.179244 
L 238.378913 56.90641 
L 238.527403 56.90641 
L 238.648894 53.697749 
L 238.662393 53.697749 
L 238.777135 52.093418 
L 238.864879 52.093418 
L 238.979621 48.948931 
L 238.999869 48.948931 
L 239.121361 45.868616 
L 239.337345 45.868616 
L 239.452087 41.376491 
L 239.674821 41.376491 
L 239.789563 38.424523 
L 239.809812 38.424523 
L 239.931303 35.793421 
L 240.012297 35.793421 
L 240.079792 34.95917 
L 240.12029 35.408382 
L 240.147288 35.408382 
L 240.26203 37.461925 
L 240.417269 37.461925 
L 240.53201 43.301688 
L 240.619754 43.301688 
L 240.734496 45.226884 
L 240.754745 45.226884 
L 240.869486 47.280427 
L 241.024725 47.280427 
L 241.139467 49.33397 
L 241.227211 49.33397 
L 241.362201 57.612315 
L 241.429697 57.612315 
L 241.544438 59.730031 
L 241.632182 59.730031 
L 241.746924 66.211526 
L 241.834668 66.211526 
L 241.94941 68.457589 
L 241.969658 68.457589 
L 242.09115 72.949714 
L 242.239639 72.949714 
L 242.354381 77.634359 
L 242.37463 77.634359 
L 242.489371 80.008768 
L 242.50962 80.008768 
L 242.624362 82.383177 
L 242.64461 82.383177 
L 242.766102 87.324514 
L 242.914591 87.324514 
L 243.029333 95.0253 
L 243.252067 95.0253 
L 243.366809 100.415851 
L 243.387058 100.415851 
L 243.5018 103.111126 
L 243.522048 103.111126 
L 243.63679 108.886715 
L 243.657038 108.886715 
L 243.77178 111.838683 
L 243.927019 111.838683 
L 244.041761 121.143799 
L 244.197 121.143799 
L 244.311742 127.817814 
L 244.331991 127.817814 
L 244.446732 131.347341 
L 244.601971 131.347341 
L 244.716713 142.320961 
L 244.871952 142.320961 
L 244.986694 154.385526 
L 245.209428 154.385526 
L 245.33092 168.311114 
L 245.479409 168.311114 
L 245.594151 175.947727 
L 245.6144 175.947727 
L 245.729141 178.643002 
L 245.816885 178.643002 
L 245.931627 182.365048 
L 245.951876 182.365048 
L 246.073367 184.675284 
L 246.086866 184.675284 
L 246.201608 185.445363 
L 246.221856 185.445363 
L 246.343348 186.536307 
L 246.491837 186.536307 
L 246.613329 187.049693 
L 246.964304 187.049693 
L 247.079046 186.921347 
L 247.234285 186.857173 
L 247.355776 186.536307 
L 247.369275 186.536307 
L 247.484017 186.343788 
L 247.571761 186.343788 
L 247.693252 185.958748 
L 247.774246 185.958748 
L 247.895738 185.573709 
L 248.179217 185.573709 
L 248.307458 184.99615 
L 248.314208 184.99615 
L 248.435699 184.675284 
L 248.449198 184.675284 
L 248.56394 184.482764 
L 248.584189 184.482764 
L 248.70568 184.161898 
L 248.85417 184.161898 
L 248.975661 183.841032 
L 249.056655 183.841032 
L 249.178147 183.584339 
L 249.259141 183.584339 
L 249.373883 183.39182 
L 249.394131 183.39182 
L 249.508873 183.263473 
L 249.529122 183.263473 
L 249.650613 182.942607 
L 249.664112 182.942607 
L 249.778854 182.814261 
L 249.799102 182.814261 
L 249.920594 182.493395 
L 250.069083 182.493395 
L 250.190575 182.172529 
L 250.271569 182.172529 
L 250.39306 181.851662 
L 250.54155 181.851662 
L 250.663041 181.59497 
L 250.67654 181.59497 
L 250.791282 181.723316 
L 250.879026 181.723316 
L 251.000517 181.40245 
L 251.418987 181.338277 
L 251.533729 181.20993 
L 251.553978 181.20993 
L 251.675469 180.824891 
L 251.756463 180.824891 
L 251.884704 180.439852 
L 251.958949 180.439852 
L 252.073691 180.247332 
L 252.09394 180.247332 
L 252.215431 179.733946 
L 252.296425 179.733946 
L 252.411167 179.477253 
L 252.431416 179.477253 
L 252.552907 178.963868 
L 252.566406 178.963868 
L 252.681148 178.707175 
L 252.768892 178.707175 
L 252.890383 178.193789 
L 252.903882 178.193789 
L 253.018624 178.001269 
L 253.038872 178.001269 
L 253.160364 177.487884 
L 253.308853 177.487884 
L 253.430345 177.038671 
L 253.443844 177.038671 
L 253.558586 176.781978 
L 253.578834 176.781978 
L 253.693576 176.525285 
L 253.713825 176.525285 
L 253.835316 176.076073 
L 253.91631 176.076073 
L 254.037802 175.62686 
L 254.186291 175.62686 
L 254.307782 175.113475 
L 254.321281 175.113475 
L 254.442773 174.664262 
L 254.591262 174.664262 
L 254.712754 174.150876 
L 254.793748 174.150876 
L 254.915239 173.701664 
L 255.198719 173.701664 
L 255.313461 172.674892 
L 255.4687 172.674892 
L 255.590191 172.097334 
L 255.60369 172.097334 
L 255.718432 171.840641 
L 255.738681 171.840641 
L 255.860172 171.263082 
L 256.008662 171.263082 
L 256.130153 170.685523 
L 256.143652 170.685523 
L 256.258394 170.364657 
L 256.278642 170.364657 
L 256.393384 170.107964 
L 256.413633 170.107964 
L 256.535124 169.530405 
L 256.683614 169.530405 
L 256.805105 168.888673 
L 256.818604 168.888673 
L 256.940095 168.246941 
L 257.02109 168.246941 
L 257.142581 167.605208 
L 257.291071 167.605208 
L 257.412562 166.963476 
L 257.493556 166.963476 
L 257.615048 166.257571 
L 257.628547 166.257571 
L 257.743288 165.872532 
L 257.763537 165.872532 
L 257.878279 165.487492 
L 257.898527 165.487492 
L 258.013269 165.102453 
L 258.033518 165.102453 
L 258.155009 164.332374 
L 258.236003 164.332374 
L 258.350745 163.947335 
L 258.370994 163.947335 
L 258.492485 163.177256 
L 258.573479 163.177256 
L 258.694971 162.343005 
L 258.775965 162.343005 
L 258.897456 161.44458 
L 259.045946 161.44458 
L 259.167437 160.546155 
L 259.180936 160.546155 
L 259.295678 160.096942 
L 259.315927 160.096942 
L 259.437418 159.134344 
L 259.585908 159.134344 
L 259.707399 158.171746 
L 259.720898 158.171746 
L 259.83564 157.65836 
L 259.855888 157.65836 
L 259.97738 156.631588 
L 260.058374 156.631588 
L 260.173116 156.054029 
L 260.193364 156.054029 
L 260.308106 155.47647 
L 260.328355 155.47647 
L 260.443097 154.963085 
L 260.463345 154.963085 
L 260.584837 153.807967 
L 260.665831 153.807967 
L 260.787322 152.588676 
L 260.800821 152.588676 
L 260.915563 151.946943 
L 260.935812 151.946943 
L 261.050554 151.305211 
L 261.070802 151.305211 
L 261.192294 149.957574 
L 261.475773 149.957574 
L 261.590515 147.775684 
L 261.610764 147.775684 
L 261.732255 146.171354 
L 261.813249 146.171354 
L 261.927991 145.337102 
L 261.94824 145.337102 
L 262.069731 143.668599 
L 262.150726 143.668599 
L 262.272217 141.935922 
L 262.285716 141.935922 
L 262.400458 141.037497 
L 262.420706 141.037497 
L 262.535448 140.074898 
L 262.555697 140.074898 
L 262.670439 139.1123 
L 262.690687 139.1123 
L 262.812179 137.058757 
L 262.893173 137.058757 
L 263.007915 135.967813 
L 263.028163 135.967813 
L 263.149655 133.72175 
L 263.230649 133.72175 
L 263.35214 131.283168 
L 263.365639 131.283168 
L 263.480381 129.999703 
L 263.50063 129.999703 
L 263.615372 128.652066 
L 263.63562 128.652066 
L 263.757111 125.828444 
L 263.905601 125.828444 
L 264.027092 122.74813 
L 264.040591 122.74813 
L 264.155333 121.079626 
L 264.175582 121.079626 
L 264.297073 117.614273 
L 264.445563 117.614273 
L 264.567054 113.828053 
L 264.580553 113.828053 
L 264.695295 111.77451 
L 264.715543 111.77451 
L 264.837035 107.603251 
L 264.985524 107.603251 
L 265.107016 103.175299 
L 265.18801 103.175299 
L 265.309501 98.875693 
L 265.323 98.875693 
L 265.437742 96.693804 
L 265.457991 96.693804 
L 265.572733 94.576088 
L 265.592981 94.576088 
L 265.707723 92.586718 
L 265.727972 92.586718 
L 265.849463 88.672152 
L 265.862962 88.672152 
L 265.977704 86.746955 
L 265.997952 86.746955 
L 266.112694 84.821759 
L 266.132943 84.821759 
L 266.247685 82.896562 
L 266.267933 82.896562 
L 266.389425 79.174516 
L 266.402924 79.174516 
L 266.517665 77.313493 
L 266.605409 77.313493 
L 266.726901 73.783966 
L 266.7404 73.783966 
L 266.855142 72.051289 
L 266.87539 72.051289 
L 266.990132 70.254439 
L 267.010381 70.254439 
L 267.131872 66.789085 
L 267.212866 66.789085 
L 267.334358 63.452078 
L 267.482847 63.452078 
L 267.604338 60.11507 
L 267.617837 60.11507 
L 267.732579 58.51074 
L 267.752828 58.51074 
L 267.86757 56.842236 
L 267.887818 56.842236 
L 268.00931 53.697749 
L 268.090304 53.697749 
L 268.205046 52.093418 
L 268.360285 52.093418 
L 268.488526 47.408774 
L 268.495275 47.408774 
L 268.610017 45.868616 
L 268.630265 45.868616 
L 268.751757 42.852475 
L 268.900246 42.852475 
L 269.021738 39.836334 
L 269.035237 39.836334 
L 269.149979 38.424523 
L 269.170227 38.424523 
L 269.291719 35.793421 
L 269.305218 35.793421 
L 269.419959 34.95917 
L 269.507703 34.95917 
L 269.575198 34.381611 
L 269.581948 35.151689 
L 269.615696 35.151689 
L 269.642694 35.151689 
L 269.757435 37.141059 
L 269.912674 37.141059 
L 270.027416 42.916648 
L 270.11516 42.916648 
L 270.229902 44.906018 
L 270.25015 44.906018 
L 270.364892 46.831215 
L 270.385141 46.831215 
L 270.506632 50.874127 
L 270.722617 50.874127 
L 270.837359 57.163102 
L 270.992598 57.163102 
L 271.10734 61.334362 
L 271.127588 61.334362 
L 271.24233 63.516251 
L 271.397569 63.516251 
L 271.512311 70.190265 
L 271.66755 70.190265 
L 271.782292 77.0568 
L 271.937531 77.0568 
L 272.052273 81.805618 
L 272.140016 81.805618 
L 272.254758 84.2442 
L 272.275007 84.2442 
L 272.389749 89.249711 
L 272.409997 89.249711 
L 272.524739 91.816639 
L 272.679978 91.816639 
L 272.79472 99.774118 
L 272.949959 99.774118 
L 273.064701 108.18081 
L 273.287435 108.18081 
L 273.402177 114.148919 
L 273.422425 114.148919 
L 273.537167 117.229233 
L 273.624911 117.229233 
L 273.739653 127.047735 
L 273.962387 127.047735 
L 274.077129 137.700489 
L 274.232368 137.700489 
L 274.34711 145.272929 
L 274.367358 145.272929 
L 274.4821 149.251668 
L 274.637339 149.251668 
L 274.75883 162.343005 
L 274.90732 162.343005 
L 275.022062 175.370168 
L 275.312291 175.370168 
L 275.427033 178.129616 
L 275.447282 178.129616 
L 275.562023 184.546938 
L 275.649767 184.546938 
L 275.771259 186.022922 
L 275.852253 186.022922 
L 275.973744 187.242213 
L 276.122234 187.242213 
L 276.236975 190.3867 
L 276.257224 190.3867 
L 276.378715 195.77725 
L 276.527205 195.77725 
L 276.648696 202.066226 
L 276.797186 202.066226 
L 276.918677 207.713469 
L 276.932176 207.713469 
L 277.053667 212.141421 
L 277.134662 212.141421 
L 277.249404 213.745751 
L 277.269652 213.745751 
L 277.391144 215.863467 
L 277.472138 215.863467 
L 277.593629 216.761892 
L 277.944604 216.761892 
L 278.066096 216.376853 
L 278.14709 216.376853 
L 278.268581 215.927641 
L 278.28208 215.927641 
L 278.396822 215.606774 
L 278.484566 215.606774 
L 278.606057 215.093389 
L 278.619556 215.093389 
L 278.734298 214.836696 
L 278.754547 214.836696 
L 278.869289 214.451657 
L 278.957032 214.451657 
L 279.078524 214.066617 
L 279.227013 214.066617 
L 279.348505 213.809924 
L 279.496994 213.745751 
L 279.611736 213.553231 
L 279.83447 213.489058 
L 279.949212 213.424885 
L 280.036956 213.360712 
L 280.151698 213.296539 
L 280.711908 213.232365 
L 280.82665 213.168192 
L 287.326438 213.104019 
L 287.454679 212.71898 
L 287.528924 212.71898 
L 287.650415 211.499689 
L 287.731409 211.499689 
L 287.852901 208.804413 
L 287.8664 208.804413 
L 287.981142 206.815044 
L 288.068885 206.815044 
L 288.190377 201.36032 
L 288.271371 201.36032 
L 288.392862 195.135518 
L 288.473857 195.135518 
L 288.588599 192.311897 
L 288.608847 192.311897 
L 288.730338 187.883945 
L 288.811333 187.883945 
L 288.932824 185.445363 
L 289.148809 185.445363 
L 289.2703 184.226071 
L 289.55378 184.226071 
L 289.668522 184.354418 
L 289.68877 184.354418 
L 289.817011 184.739457 
L 289.891256 184.739457 
L 290.012747 185.124497 
L 290.093742 185.124497 
L 290.208484 185.317016 
L 290.228732 185.317016 
L 290.350223 185.766229 
L 290.431218 185.766229 
L 290.552709 186.022922 
L 290.566208 186.022922 
L 290.68095 186.151268 
L 290.768694 186.151268 
L 290.883436 186.343788 
L 291.038675 186.407961 
L 291.153416 186.472134 
L 291.24116 186.536307 
L 291.355902 186.60048 
L 292.996036 186.536307 
L 293.110777 186.472134 
L 293.535997 186.407961 
L 293.650739 186.343788 
L 294.075959 186.279614 
L 294.190701 186.215441 
L 294.750911 186.151268 
L 294.865653 186.087095 
L 295.425863 186.022922 
L 295.547354 185.894575 
L 296.235806 185.830402 
L 296.350547 185.766229 
L 296.640777 185.702055 
L 296.755519 185.637882 
L 297.180739 185.573709 
L 297.29548 185.509536 
L 297.788195 185.445363 
L 297.902937 185.381189 
L 298.260662 185.317016 
L 298.375404 185.252843 
L 298.935614 185.18867 
L 299.050356 185.124497 
L 299.543071 185.060323 
L 299.657813 184.99615 
L 300.083032 184.931977 
L 300.197774 184.867804 
L 300.555499 184.80363 
L 300.670241 184.739457 
L 300.96047 184.675284 
L 301.075212 184.611111 
L 301.567927 184.546938 
L 301.682669 184.482764 
L 302.107889 184.418591 
L 302.222631 184.354418 
L 302.51286 184.290245 
L 302.627602 184.226071 
L 303.052822 184.161898 
L 303.167563 184.097725 
L 303.525288 184.033552 
L 303.64003 183.969379 
L 304.132745 183.905205 
L 304.247487 183.841032 
L 304.537716 183.776859 
L 304.652458 183.712686 
L 305.077678 183.648513 
L 305.19242 183.584339 
L 305.550144 183.520166 
L 305.664886 183.455993 
L 306.090106 183.39182 
L 306.204848 183.327646 
L 306.495077 183.263473 
L 306.609819 183.1993 
L 307.035039 183.135127 
L 307.149781 183.070954 
L 307.507505 183.00678 
L 307.622247 182.942607 
L 307.844981 182.878434 
L 307.959723 182.814261 
L 308.452438 182.750087 
L 308.56718 182.685914 
L 308.789914 182.621741 
L 308.904656 182.557568 
L 309.397371 182.493395 
L 309.512113 182.429221 
L 309.734847 182.365048 
L 309.849589 182.300875 
L 310.139818 182.236702 
L 310.25456 182.172529 
L 310.747275 182.108355 
L 310.862017 182.044182 
L 311.152247 181.980009 
L 311.266988 181.915836 
L 311.827199 181.851662 
L 311.94869 181.723316 
L 312.434656 181.659143 
L 312.549397 181.59497 
L 312.839627 181.59497 
L 312.954369 181.466623 
L 313.379588 181.466623 
L 313.49433 181.338277 
L 313.91955 181.274104 
L 314.034292 181.145757 
L 314.527007 181.145757 
L 314.594502 181.017411 
L 314.634999 181.081584 
L 314.931978 181.081584 
L 315.04672 180.953237 
L 315.539435 180.889064 
L 315.667676 180.696545 
L 316.011902 180.632371 
L 316.126643 180.568198 
L 316.349378 180.504025 
L 316.464119 180.439852 
L 316.551863 180.439852 
L 316.666605 180.311505 
L 317.02433 180.247332 
L 317.145821 180.118986 
L 317.564291 180.054812 
L 317.679033 179.990639 
L 317.901767 179.926466 
L 318.016509 179.862293 
L 318.171748 179.79812 
L 318.28649 179.733946 
L 318.57672 179.669773 
L 318.691461 179.6056 
L 319.049186 179.541427 
L 319.170677 179.41308 
L 319.589148 179.348907 
L 319.710639 179.220561 
L 320.129109 179.156387 
L 320.250601 179.028041 
L 320.601576 178.963868 
L 320.716318 178.899694 
L 321.074042 178.835521 
L 321.195534 178.707175 
L 321.546509 178.643002 
L 321.668 178.514655 
L 322.08647 178.450482 
L 322.207962 178.322136 
L 322.626432 178.257962 
L 322.747923 178.129616 
L 323.098898 178.065443 
L 323.21364 178.001269 
L 323.571365 177.937096 
L 323.686107 177.80875 
L 324.043831 177.744577 
L 324.165323 177.61623 
L 324.583793 177.552057 
L 324.705284 177.423711 
L 325.056259 177.359537 
L 325.171001 177.295364 
L 325.393736 177.231191 
L 325.508477 177.167018 
L 325.731212 177.102844 
L 325.845953 177.038671 
L 326.068688 176.974498 
L 326.190179 176.846152 
L 326.608649 176.781978 
L 326.730141 176.653632 
L 327.081116 176.589459 
L 327.202607 176.461112 
L 327.418592 176.396939 
L 327.533334 176.332766 
L 327.823563 176.268593 
L 327.945054 176.140246 
L 328.228534 176.076073 
L 328.343276 176.0119 
L 328.498515 175.947727 
L 328.613257 175.883553 
L 328.903486 175.81938 
L 329.024978 175.691034 
L 329.578438 175.62686 
L 329.69318 175.434341 
L 329.915914 175.370168 
L 330.030656 175.305994 
L 330.253391 175.241821 
L 330.368132 175.177648 
L 330.523371 175.113475 
L 330.638113 175.049301 
L 330.928343 174.985128 
L 331.049834 174.856782 
L 331.265819 174.792609 
L 331.38056 174.728435 
L 331.535799 174.664262 
L 331.650541 174.600089 
L 331.873276 174.535916 
L 331.988017 174.471743 
L 332.075761 174.407569 
L 332.190503 174.343396 
L 332.548228 174.279223 
L 332.669719 174.150876 
L 332.953199 174.086703 
L 333.067941 173.958357 
L 333.290675 173.894184 
L 333.412166 173.765837 
L 333.763141 173.701664 
L 333.884633 173.573318 
L 334.100617 173.509144 
L 334.215359 173.444971 
L 334.370598 173.380798 
L 334.48534 173.316625 
L 334.640579 173.252451 
L 334.755321 173.188278 
L 334.91056 173.124105 
L 335.025302 173.059932 
L 335.248036 172.995759 
L 335.369527 172.867412 
L 335.787998 172.803239 
L 335.902739 172.610719 
L 336.192969 172.546546 
L 336.307711 172.4182 
L 336.59794 172.354026 
L 336.719431 172.22568 
L 336.867921 172.161507 
L 336.989412 172.03316 
L 337.272892 171.968987 
L 337.394384 171.840641 
L 337.610368 171.776467 
L 337.72511 171.712294 
L 338.015339 171.648121 
L 338.136831 171.519775 
L 338.217825 171.455601 
L 338.332567 171.391428 
L 338.487806 171.327255 
L 338.609297 171.198908 
L 338.825282 171.198908 
L 338.940024 171.070562 
L 339.095263 171.006389 
L 339.210005 170.942216 
L 339.297748 170.878042 
L 339.41249 170.813869 
L 339.567729 170.813869 
L 339.682471 170.685523 
L 339.83771 170.62135 
L 339.952452 170.557176 
L 340.040196 170.493003 
L 340.154938 170.42883 
L 340.310177 170.364657 
L 340.424918 170.300483 
L 340.512662 170.23631 
L 340.634154 170.107964 
L 340.985129 170.043791 
L 341.09987 169.851271 
L 341.322605 169.851271 
L 341.437347 169.722925 
L 341.52509 169.722925 
L 341.639832 169.594578 
L 341.795071 169.594578 
L 341.909813 169.402058 
L 342.132547 169.337885 
L 342.247289 169.273712 
L 342.267538 169.273712 
L 342.382279 169.145366 
L 342.740004 169.081192 
L 342.868245 168.888673 
L 343.009985 168.824499 
L 343.131476 168.696153 
L 343.279966 168.63198 
L 343.394708 168.567807 
L 343.549947 168.503633 
L 343.671438 168.375287 
L 343.887423 168.311114 
L 344.002164 168.246941 
L 344.022413 168.246941 
L 344.137155 168.118594 
L 344.292394 168.054421 
L 344.407136 167.926074 
L 344.562375 167.926074 
L 344.677116 167.797728 
L 344.76486 167.797728 
L 344.879602 167.605208 
L 345.102336 167.605208 
L 345.217078 167.412689 
L 345.372317 167.348515 
L 345.487059 167.284342 
L 345.574803 167.220169 
L 345.689545 167.155996 
L 345.844784 167.091823 
L 345.966275 166.963476 
L 346.047269 166.963476 
L 346.162011 166.770957 
L 346.384745 166.770957 
L 346.499487 166.578437 
L 346.654726 166.514264 
L 346.769468 166.45009 
L 346.857212 166.385917 
L 346.971954 166.257571 
L 347.127193 166.257571 
L 347.241934 166.129224 
L 347.329678 166.065051 
L 347.45117 165.936705 
L 347.667154 165.872532 
L 347.781896 165.744185 
L 348.00463 165.680012 
L 348.119372 165.487492 
L 348.342106 165.423319 
L 348.463598 165.294973 
L 348.477097 165.294973 
L 348.591839 165.166626 
L 348.747078 165.102453 
L 348.861819 165.03828 
L 348.882068 165.03828 
L 348.99681 164.909933 
L 349.084554 164.909933 
L 349.199295 164.717414 
L 349.42203 164.65324 
L 349.536771 164.524894 
L 349.759506 164.524894 
L 349.874248 164.268201 
L 349.894496 164.268201 
L 350.009238 164.139855 
L 350.164477 164.075681 
L 350.285968 163.947335 
L 350.366963 163.947335 
L 350.481704 163.818989 
L 350.569448 163.754815 
L 350.68419 163.690642 
L 350.771934 163.626469 
L 350.886676 163.498122 
L 350.974419 163.433949 
L 351.095911 163.305603 
L 351.2444 163.305603 
L 351.359142 163.113083 
L 351.514381 163.04891 
L 351.629123 162.920564 
L 351.784362 162.85639 
L 351.912603 162.663871 
L 352.054343 162.599697 
L 352.169085 162.535524 
L 352.189333 162.535524 
L 352.304075 162.343005 
L 352.526809 162.278831 
L 352.641551 162.086312 
L 352.79679 162.022139 
L 352.911532 161.893792 
L 353.066771 161.829619 
L 353.181513 161.637099 
L 353.336752 161.572926 
L 353.451494 161.44458 
L 353.606733 161.380406 
L 353.721474 161.187887 
L 353.876713 161.123713 
L 353.991455 160.995367 
L 354.146694 160.931194 
L 354.261436 160.867021 
L 354.34918 160.867021 
L 354.463922 160.674501 
L 354.48417 160.674501 
L 354.605662 160.417808 
L 354.821646 160.353635 
L 354.949887 160.161115 
L 355.091627 160.096942 
L 355.206369 159.904422 
L 355.361608 159.904422 
L 355.47635 159.711903 
L 355.564094 159.711903 
L 355.678835 159.519383 
L 356.03656 159.45521 
L 356.151302 159.134344 
L 356.17155 159.134344 
L 356.286292 158.941824 
L 356.441531 158.941824 
L 356.563023 158.685131 
L 356.711512 158.620958 
L 356.826254 158.492612 
L 356.846503 158.492612 
L 356.961244 158.300092 
L 357.116483 158.300092 
L 357.237975 158.043399 
L 357.386464 157.979226 
L 357.507956 157.722533 
L 357.656445 157.722533 
L 357.771187 157.594187 
L 357.858931 157.594187 
L 357.980422 157.337494 
L 358.128911 157.27332 
L 358.243653 157.080801 
L 358.331397 157.080801 
L 358.452888 156.824108 
L 358.668873 156.759935 
L 358.783615 156.631588 
L 358.803864 156.631588 
L 358.918605 156.439069 
L 358.938854 156.439069 
L 359.053596 156.310722 
L 359.073844 156.310722 
L 359.188586 156.182376 
L 359.208835 156.182376 
L 359.323577 156.054029 
L 359.41132 155.989856 
L 359.526062 155.797336 
L 359.681301 155.733163 
L 359.802793 155.47647 
L 359.883787 155.47647 
L 359.998529 155.283951 
L 360.086273 155.283951 
L 360.207764 155.027258 
L 360.221263 155.027258 
L 360.336005 154.898911 
L 360.491244 154.834738 
L 360.605986 154.642219 
L 360.626234 154.642219 
L 360.740976 154.449699 
L 360.82872 154.449699 
L 360.950211 154.193006 
L 361.031205 154.193006 
L 361.145947 154.06466 
L 361.166196 154.06466 
L 361.287687 153.807967 
L 361.301186 153.807967 
L 361.415928 153.67962 
L 361.571167 153.615447 
L 361.685909 153.422927 
L 362.313614 153.422927 
L 362.428356 152.524502 
L 362.448605 152.524502 
L 362.563347 152.331983 
L 362.65109 152.331983 
L 362.765832 152.203636 
L 362.988566 152.203636 
L 363.116807 151.818597 
L 363.123557 151.818597 
L 363.245048 151.497731 
L 363.326042 151.497731 
L 363.440784 151.369385 
L 363.461033 151.369385 
L 363.582524 151.112692 
L 363.731014 151.112692 
L 363.852505 150.855999 
L 363.866004 150.855999 
L 363.987496 150.535133 
L 364.06849 150.535133 
L 364.189981 150.27844 
L 364.270975 150.27844 
L 364.392467 150.021747 
L 364.540956 150.021747 
L 364.662448 149.700881 
L 364.743442 149.700881 
L 364.858184 149.572534 
L 364.878432 149.572534 
L 364.999924 149.251668 
L 365.013423 149.251668 
L 365.134914 148.994976 
L 365.283404 148.994976 
L 365.404895 148.674109 
L 365.418394 148.674109 
L 365.533136 148.545763 
L 365.553384 148.545763 
L 365.668126 148.417417 
L 365.688375 148.417417 
L 365.803117 148.224897 
L 365.823365 148.224897 
L 365.944857 147.968204 
L 366.025851 147.968204 
L 366.147342 147.647338 
L 366.160841 147.647338 
L 366.275583 147.454818 
L 366.363327 147.454818 
L 366.484818 147.198125 
L 366.565812 147.198125 
L 366.687304 146.877259 
L 366.768298 146.877259 
L 366.88304 146.68474 
L 366.903289 146.68474 
L 367.02478 146.363874 
L 367.105774 146.363874 
L 367.227266 146.043008 
L 367.30826 146.043008 
L 367.429751 145.722141 
L 367.578241 145.722141 
L 367.699732 145.401275 
L 367.713231 145.401275 
L 367.827973 145.208756 
L 367.848221 145.208756 
L 367.969713 144.88789 
L 368.118202 144.88789 
L 368.239694 144.50285 
L 368.388183 144.50285 
L 368.502925 144.181984 
L 368.523174 144.181984 
L 368.644665 143.861118 
L 368.725659 143.861118 
L 368.847151 143.476079 
L 368.86065 143.476079 
L 368.975391 143.347732 
L 369.063135 143.347732 
L 369.184627 142.962693 
L 369.265621 142.962693 
L 369.387112 142.577654 
L 369.468106 142.577654 
L 369.589598 142.192615 
L 369.738087 142.192615 
L 369.852829 142.000095 
L 369.940573 142.000095 
L 370.055315 141.807575 
L 370.075563 141.807575 
L 370.190305 141.29419 
L 370.210554 141.29419 
L 370.325296 141.10167 
L 370.345544 141.10167 
L 370.467036 140.652457 
L 370.54803 140.652457 
L 370.662772 140.459938 
L 370.750515 140.459938 
L 370.872007 140.074898 
L 370.885506 140.074898 
L 371.006997 139.689859 
L 371.087991 139.689859 
L 371.209483 139.240647 
L 371.290477 139.240647 
L 371.405219 139.048127 
L 371.425467 139.048127 
L 371.540209 138.855607 
L 371.560458 138.855607 
L 371.681949 138.470568 
L 371.695448 138.470568 
L 371.81019 138.213875 
L 371.897934 138.213875 
L 372.019425 137.828836 
L 372.10042 137.828836 
L 372.221911 137.379623 
L 372.23541 137.379623 
L 372.350152 137.12293 
L 372.437896 137.12293 
L 372.559387 136.737891 
L 372.572886 136.737891 
L 372.687628 136.481198 
L 372.707876 136.481198 
L 372.829368 136.031986 
L 372.977857 136.031986 
L 373.099349 135.582773 
L 373.180343 135.582773 
L 373.301834 135.133561 
L 373.382829 135.133561 
L 373.50432 134.620175 
L 373.585314 134.620175 
L 373.706806 134.170962 
L 373.7878 134.170962 
L 373.902542 133.91427 
L 373.92279 133.91427 
L 374.044282 133.400884 
L 374.125276 133.400884 
L 374.246767 132.887498 
L 374.260266 132.887498 
L 374.375008 132.694978 
L 374.462752 132.694978 
L 374.584243 132.181593 
L 374.665237 132.181593 
L 374.786729 131.668207 
L 374.800228 131.668207 
L 374.91497 131.411514 
L 374.935218 131.411514 
L 375.04996 131.090648 
L 375.070209 131.090648 
L 375.184951 130.898128 
L 375.205199 130.898128 
L 375.32669 130.320569 
L 375.34019 130.320569 
L 375.454931 130.063877 
L 375.542675 130.063877 
L 375.664167 129.486318 
L 375.745161 129.486318 
L 375.866652 128.908759 
L 375.947646 128.908759 
L 376.062388 128.652066 
L 376.217627 128.652066 
L 376.345868 127.753641 
L 376.352618 127.753641 
L 376.46736 127.496948 
L 376.487608 127.496948 
L 376.609099 126.855216 
L 376.690094 126.855216 
L 376.811585 126.277657 
L 376.960075 126.277657 
L 377.081566 125.700098 
L 377.095065 125.700098 
L 377.209807 125.379232 
L 377.297551 125.379232 
L 377.419042 124.7375 
L 377.500036 124.7375 
L 377.621528 124.095767 
L 377.635027 124.095767 
L 377.749768 123.774901 
L 377.837512 123.774901 
L 377.959004 123.133169 
L 378.039998 123.133169 
L 378.161489 122.427264 
L 378.174988 122.427264 
L 378.28973 122.042225 
L 378.309979 122.042225 
L 378.43147 121.400492 
L 378.512464 121.400492 
L 378.633956 120.694587 
L 378.782445 120.694587 
L 378.903937 119.988682 
L 378.984931 119.988682 
L 379.106422 119.218603 
L 379.254912 119.218603 
L 379.376403 118.448524 
L 379.389902 118.448524 
L 379.511393 117.678446 
L 379.592388 117.678446 
L 379.70713 117.35758 
L 379.727378 117.35758 
L 379.84212 116.97254 
L 379.862368 116.97254 
L 379.98386 116.138289 
L 379.997359 116.138289 
L 380.112101 115.753249 
L 380.132349 115.753249 
L 380.247091 115.304037 
L 380.26734 115.304037 
L 380.382082 114.918997 
L 380.40233 114.918997 
L 380.523822 114.084746 
L 380.604816 114.084746 
L 380.726307 113.250494 
L 380.874797 113.250494 
L 380.996288 112.352069 
L 381.009787 112.352069 
L 381.124529 111.902856 
L 381.144777 111.902856 
L 381.266269 111.004431 
L 381.347263 111.004431 
L 381.462005 110.555219 
L 381.549749 110.555219 
L 381.67124 109.656794 
L 381.684739 109.656794 
L 381.80623 108.630022 
L 381.887225 108.630022 
L 382.008716 107.667424 
L 382.08971 107.667424 
L 382.211202 106.640653 
L 382.359691 106.640653 
L 382.481183 105.613881 
L 382.494682 105.613881 
L 382.609423 105.100495 
L 382.629672 105.100495 
L 382.751163 104.073724 
L 382.899653 104.073724 
L 383.021144 102.918606 
L 383.304624 102.918606 
L 383.419366 100.672543 
L 383.50711 100.672543 
L 383.628601 99.453252 
L 383.777091 99.453252 
L 383.898582 98.233961 
L 383.979576 98.233961 
L 384.101068 97.01467 
L 384.182062 97.01467 
L 384.303553 95.731206 
L 384.317052 95.731206 
L 384.431794 95.089474 
L 384.452043 95.089474 
L 384.573534 93.741836 
L 384.722023 93.741836 
L 384.843515 92.330025 
L 384.857014 92.330025 
L 384.971756 91.62412 
L 385.0595 91.62412 
L 385.180991 90.212309 
L 385.19449 90.212309 
L 385.309232 89.44223 
L 385.32948 89.44223 
L 385.444222 88.672152 
L 385.464471 88.672152 
L 385.585962 87.131995 
L 385.666956 87.131995 
L 385.781698 86.361916 
L 385.801947 86.361916 
L 385.916689 85.591837 
L 385.936937 85.591837 
L 386.058429 83.923334 
L 386.071928 83.923334 
L 386.186669 83.089082 
L 386.274413 83.089082 
L 386.395905 81.356405 
L 386.409404 81.356405 
L 386.524146 80.45798 
L 386.544394 80.45798 
L 386.665885 78.596957 
L 386.74688 78.596957 
L 386.861622 77.698532 
L 386.88187 77.698532 
L 386.996612 76.735934 
L 387.016861 76.735934 
L 387.138352 74.810737 
L 387.151851 74.810737 
L 387.266593 73.783966 
L 387.286841 73.783966 
L 387.408333 71.730423 
L 387.489327 71.730423 
L 387.610818 69.548533 
L 387.759308 69.548533 
L 387.880799 67.302471 
L 387.894298 67.302471 
L 388.00904 66.147353 
L 388.029289 66.147353 
L 388.144031 64.992235 
L 388.164279 64.992235 
L 388.279021 63.772944 
L 388.29927 63.772944 
L 388.420761 61.270188 
L 388.501755 61.270188 
L 388.623246 58.767433 
L 388.636746 58.767433 
L 388.751487 57.419795 
L 388.839231 57.419795 
L 388.960723 54.788693 
L 388.974222 54.788693 
L 389.088963 53.441056 
L 389.109212 53.441056 
L 389.223954 51.965072 
L 389.244202 51.965072 
L 389.365694 49.077277 
L 389.379193 49.077277 
L 389.493935 47.601293 
L 389.581678 47.601293 
L 389.70317 44.585152 
L 389.784164 44.585152 
L 389.905655 41.569011 
L 390.189135 41.569011 
L 390.317376 37.397752 
L 390.324126 37.397752 
L 390.445617 35.600902 
L 390.459116 35.600902 
L 390.573858 35.087516 
L 390.661602 35.087516 
L 390.776344 34.509957 
L 391.269059 34.57413 
L 391.383801 34.76665 
L 391.404049 34.76665 
L 391.52554 35.023343 
L 391.67403 35.023343 
L 391.795521 35.344209 
L 391.876516 35.344209 
L 391.998007 35.665075 
L 392.011506 35.665075 
L 392.126248 35.793421 
L 392.146496 35.793421 
L 392.261238 35.985941 
L 392.348982 35.985941 
L 392.463724 36.114287 
L 392.551468 36.114287 
L 392.666209 36.242634 
L 392.686458 36.242634 
L 392.8012 36.37098 
L 392.956439 36.435153 
L 393.071181 36.499327 
L 393.428905 36.5635 
L 393.543647 36.627673 
L 394.306343 36.691846 
L 394.373838 36.75602 
L 394.414335 36.691846 
L 401.190854 36.691846 
L 401.305596 37.461925 
L 401.325845 37.461925 
L 401.447336 41.569011 
L 401.52833 41.569011 
L 401.643072 43.558381 
L 401.663321 43.558381 
L 401.778063 45.355231 
L 401.798311 45.355231 
L 401.919802 49.013104 
L 402.000797 49.013104 
L 402.115539 51.066647 
L 402.203282 51.066647 
L 402.318024 57.548142 
L 402.540758 57.548142 
L 402.6555 63.580424 
L 402.878234 63.580424 
L 402.992976 68.008376 
L 403.013225 68.008376 
L 403.127967 70.382785 
L 403.283206 70.382785 
L 403.404697 74.939083 
L 403.485691 74.939083 
L 403.600433 81.741444 
L 403.620682 81.741444 
L 403.735424 84.180027 
L 403.823167 84.180027 
L 403.937909 89.249711 
L 403.958158 89.249711 
L 404.0729 91.816639 
L 404.160643 91.816639 
L 404.275385 97.01467 
L 404.295634 97.01467 
L 404.410376 99.581599 
L 404.498119 99.581599 
L 404.612861 107.924117 
L 404.7681 107.924117 
L 404.882842 113.892226 
L 404.903091 113.892226 
L 405.017833 116.97254 
L 405.105576 116.97254 
L 405.220318 123.325689 
L 405.240567 123.325689 
L 405.355309 126.662696 
L 405.510548 126.662696 
L 405.625289 137.187104 
L 405.780528 137.187104 
L 405.89527 148.674109 
L 406.118004 148.674109 
L 406.232746 157.016628 
L 406.252995 157.016628 
L 406.367737 161.508753 
L 406.45548 161.508753 
L 406.570222 175.755207 
L 406.725461 175.755207 
L 406.840203 181.787489 
L 406.860452 181.787489 
L 406.975194 183.841032 
L 406.995442 183.841032 
L 407.116934 186.60048 
L 407.130433 186.60048 
L 407.245174 187.498906 
L 407.265423 187.498906 
L 407.386914 188.58985 
L 407.467909 188.58985 
L 407.58265 189.231582 
L 407.602899 189.231582 
L 407.717641 190.322527 
L 407.737889 190.322527 
L 407.859381 194.429613 
L 407.87288 194.429613 
L 407.987622 197.189061 
L 408.00787 197.189061 
L 408.129362 203.15717 
L 408.277851 203.15717 
L 408.399342 208.547721 
L 408.412842 208.547721 
L 408.527583 210.793783 
L 408.547832 210.793783 
L 408.662574 212.71898 
L 408.682822 212.71898 
L 408.797564 214.194964 
L 408.817813 214.194964 
L 408.939304 216.12016 
L 408.952803 216.12016 
L 409.067545 216.569373 
L 409.087794 216.569373 
L 409.202535 216.890239 
L 409.357774 216.890239 
L 409.479266 216.633546 
L 409.56026 216.633546 
L 409.681751 216.12016 
L 409.69525 216.12016 
L 409.809992 215.863467 
L 409.830241 215.863467 
L 409.951732 215.285908 
L 410.100222 215.285908 
L 410.214964 215.029215 
L 410.302707 215.029215 
L 410.430948 214.387483 
L 410.505193 214.387483 
L 410.626684 214.066617 
L 410.707679 214.066617 
L 410.82242 213.938271 
L 410.842669 213.938271 
L 410.96416 213.681578 
L 411.11265 213.617405 
L 411.227392 213.489058 
L 411.517621 213.424885 
L 411.639112 213.296539 
L 412.057583 213.232365 
L 412.172325 213.168192 
L 413.542477 213.168192 
L 413.542477 213.168192 
" style="fill:none;stroke:#e41a1c;stroke-linecap:square;stroke-width:2;"/>
   </g>
   <g id="patch_3">
    <path d="M 74.04833 230.88 
L 74.04833 14.52 
" style="fill:none;stroke:#000000;stroke-linecap:square;stroke-linejoin:miter;stroke-width:0.8;"/>
   </g>
   <g id="patch_4">
    <path d="M 413.542477 230.88 
L 413.542477 14.52 
" style="fill:none;"/>
   </g>
   <g id="patch_5">
    <path d="M 74.04833 230.88 
L 413.542477 230.88 
" style="fill:none;stroke:#000000;stroke-linecap:square;stroke-linejoin:miter;stroke-width:0.8;"/>
   </g>
   <g id="patch_6">
    <path d="M 74.04833 14.52 
L 413.542477 14.52 
" style="fill:none;"/>
   </g>
   <g id="legend_1">
    <g id="patch_7">
     <path d="M 165.595774 44.05585 
L 321.995034 44.05585 
Q 325.195034 44.05585 325.195034 40.85585 
L 325.195034 19.32 
Q 325.195034 16.12 321.995034 16.12 
L 165.595774 16.12 
Q 162.395774 16.12 162.395774 19.32 
L 162.395774 40.85585 
Q 162.395774 44.05585 165.595774 44.05585 
z
" style="fill:#ffffff;stroke:#000000;stroke-linejoin:miter;"/>
    </g>
    <g id="line2d_11">
     <path d="M 168.795774 28.77596 
L 200.795774 28.77596 
" style="fill:none;stroke:#e41a1c;stroke-linecap:square;stroke-width:2;"/>
    </g>
    <g id="line2d_12"/>
    <g id="text_12">
     <!-- Spindle Speed -->
     <g transform="translate(213.595774 34.37596)scale(0.16 -0.16)">
      <use transform="translate(0 -1.570628)scale(0.996264)" xlink:href="#Century_Schoolbook_L_Roman-83"/>
      <use transform="translate(62.763979 -1.570628)scale(0.996264)" xlink:href="#Century_Schoolbook_L_Roman-112"/>
      <use transform="translate(119.949466 -1.570628)scale(0.996264)" xlink:href="#Century_Schoolbook_L_Roman-105"/>
      <use transform="translate(151.330779 -1.570628)scale(0.996264)" xlink:href="#Century_Schoolbook_L_Roman-110"/>
      <use transform="translate(212.20241 -1.570628)scale(0.996264)" xlink:href="#Century_Schoolbook_L_Roman-100"/>
      <use transform="translate(269.387897 -1.570628)scale(0.996264)" xlink:href="#Century_Schoolbook_L_Roman-108"/>
      <use transform="translate(300.76921 -1.570628)scale(0.996264)" xlink:href="#Century_Schoolbook_L_Roman-101"/>
      <use transform="translate(378.27758 -1.570628)scale(0.996264)" xlink:href="#Century_Schoolbook_L_Roman-83"/>
      <use transform="translate(441.041559 -1.570628)scale(0.996264)" xlink:href="#Century_Schoolbook_L_Roman-112"/>
      <use transform="translate(498.227047 -1.570628)scale(0.996264)" xlink:href="#Century_Schoolbook_L_Roman-101"/>
      <use transform="translate(548.040247 -1.570628)scale(0.996264)" xlink:href="#Century_Schoolbook_L_Roman-101"/>
      <use transform="translate(597.853448 -1.570628)scale(0.996264)" xlink:href="#Century_Schoolbook_L_Roman-100"/>
     </g>
    </g>
   </g>
  </g>
 </g>
 <defs>
  <clipPath id="p114e24b37d">
   <rect height="216.36" width="339.494147" x="74.04833" y="14.52"/>
  </clipPath>
 </defs>
</svg>
