<?xml version="1.0" encoding="utf-8" standalone="no"?>
<!DOCTYPE svg PUBLIC "-//W3C//DTD SVG 1.1//EN"
  "http://www.w3.org/Graphics/SVG/1.1/DTD/svg11.dtd">
<!-- Created with matplotlib (https://matplotlib.org/) -->
<svg height="288pt" version="1.1" viewBox="0 0 432 288" width="432pt" xmlns="http://www.w3.org/2000/svg" xmlns:xlink="http://www.w3.org/1999/xlink">
 <defs>
  <style type="text/css">
*{stroke-linecap:butt;stroke-linejoin:round;}
  </style>
 </defs>
 <g id="figure_1">
  <g id="patch_1">
   <path d="M 0 288 
L 432 288 
L 432 0 
L 0 0 
z
" style="fill:#ffffff;"/>
  </g>
  <g id="axes_1">
   <g id="patch_2">
    <path d="M 65.7932 230.88 
L 413.542477 230.88 
L 413.542477 15.38288 
L 65.7932 15.38288 
z
" style="fill:#ffffff;"/>
   </g>
   <g id="matplotlib.axis_1">
    <g id="xtick_1">
     <g id="line2d_1">
      <defs>
       <path d="M 0 0 
L 0 3.5 
" id="mecc8b37e86" style="stroke:#000000;stroke-width:0.8;"/>
      </defs>
      <g>
       <use style="stroke:#000000;stroke-width:0.8;" x="134.92962" xlink:href="#mecc8b37e86" y="230.88"/>
      </g>
     </g>
     <g id="text_1">
      <!-- $10$ -->
      <defs>
       <path d="M 26.59375 63.40625 
C 26.59375 65.5 26.5 65.5 25.09375 65.5 
C 21.203125 61.1875 15.296875 59.796875 9.703125 59.796875 
C 9.40625 59.796875 8.90625 59.796875 8.796875 59.5 
C 8.703125 59.296875 8.703125 59.09375 8.703125 57 
C 11.796875 57 17 57.59375 21 59.984375 
L 21 7.203125 
C 21 3.6875 20.796875 2.5 12.203125 2.5 
L 9.203125 2.5 
L 9.203125 0 
C 14 0 19 0 23.796875 0 
C 28.59375 0 33.59375 0 38.40625 0 
L 38.40625 2.5 
L 35.40625 2.5 
C 26.796875 2.5 26.59375 3.59375 26.59375 7.15625 
z
" id="CMR17-49"/>
       <path d="M 42 31.640625 
C 42 37.75 41.90625 48.125 37.703125 56.109375 
C 34 63.109375 28.09375 65.59375 22.90625 65.59375 
C 18.09375 65.59375 12 63.40625 8.203125 56.203125 
C 4.203125 48.71875 3.796875 39.4375 3.796875 31.640625 
C 3.796875 25.953125 3.90625 17.28125 7 9.671875 
C 11.296875 -0.609375 19 -2 22.90625 -2 
C 27.5 -2 34.5 -0.109375 38.59375 9.375 
C 41.59375 16.28125 42 24.359375 42 31.640625 
z
M 22.90625 -0.40625 
C 16.5 -0.40625 12.703125 5.078125 11.296875 12.6875 
C 10.203125 18.5625 10.203125 27.15625 10.203125 32.75 
C 10.203125 40.4375 10.203125 46.828125 11.5 52.921875 
C 13.40625 61.390625 19 64 22.90625 64 
C 27 64 32.296875 61.296875 34.203125 53.125 
C 35.5 47.4375 35.59375 40.734375 35.59375 32.75 
C 35.59375 26.25 35.59375 18.265625 34.40625 12.375 
C 32.296875 1.484375 26.40625 -0.40625 22.90625 -0.40625 
z
" id="CMR17-48"/>
      </defs>
      <g transform="translate(126.674495 251.21795)scale(0.18 -0.18)">
       <use transform="scale(0.996264)" xlink:href="#CMR17-49"/>
       <use transform="translate(45.690477 0)scale(0.996264)" xlink:href="#CMR17-48"/>
      </g>
     </g>
    </g>
    <g id="xtick_2">
     <g id="line2d_2">
      <g>
       <use style="stroke:#000000;stroke-width:0.8;" x="204.066039" xlink:href="#mecc8b37e86" y="230.88"/>
      </g>
     </g>
     <g id="text_2">
      <!-- $20$ -->
      <defs>
       <path d="M 41.703125 15.453125 
L 39.90625 15.453125 
C 38.90625 8.375 38.09375 7.171875 37.703125 6.5625 
C 37.203125 5.765625 30 5.765625 28.59375 5.765625 
L 9.40625 5.765625 
C 13 9.671875 20 16.75 28.5 24.953125 
C 34.59375 30.734375 41.703125 37.53125 41.703125 47.421875 
C 41.703125 59.21875 32.296875 66 21.796875 66 
C 10.796875 66 4.09375 56.3125 4.09375 47.34375 
C 4.09375 43.4375 7 42.9375 8.203125 42.9375 
C 9.203125 42.9375 12.203125 43.546875 12.203125 47.03125 
C 12.203125 50.109375 9.59375 51 8.203125 51 
C 7.59375 51 7 50.90625 6.59375 50.703125 
C 8.5 59.21875 14.296875 63.40625 20.40625 63.40625 
C 29.09375 63.40625 34.796875 56.515625 34.796875 47.421875 
C 34.796875 38.734375 29.703125 31.25 24 24.75 
L 4.09375 2.28125 
L 4.09375 0 
L 39.296875 0 
z
" id="CMR17-50"/>
      </defs>
      <g transform="translate(195.810914 251.21795)scale(0.18 -0.18)">
       <use transform="scale(0.996264)" xlink:href="#CMR17-50"/>
       <use transform="translate(45.690477 0)scale(0.996264)" xlink:href="#CMR17-48"/>
      </g>
     </g>
    </g>
    <g id="xtick_3">
     <g id="line2d_3">
      <g>
       <use style="stroke:#000000;stroke-width:0.8;" x="273.202459" xlink:href="#mecc8b37e86" y="230.88"/>
      </g>
     </g>
     <g id="text_3">
      <!-- $30$ -->
      <defs>
       <path d="M 22.09375 33.703125 
C 31 33.703125 34.90625 25.96875 34.90625 17.03125 
C 34.90625 5 28.5 0.390625 22.703125 0.390625 
C 17.40625 0.390625 8.796875 3.03125 6.09375 10.828125 
C 6.59375 10.625 7.09375 10.625 7.59375 10.625 
C 10 10.625 11.796875 12.21875 11.796875 14.8125 
C 11.796875 17.703125 9.59375 19 7.59375 19 
C 5.90625 19 3.296875 18.203125 3.296875 14.46875 
C 3.296875 5.234375 12.296875 -2 22.90625 -2 
C 34 -2 42.5 6.71875 42.5 16.953125 
C 42.5 26.671875 34.5 33.703125 25 34.796875 
C 32.59375 36.375 39.90625 43.0625 39.90625 52.015625 
C 39.90625 59.6875 32 65.296875 23 65.296875 
C 13.90625 65.296875 5.90625 59.828125 5.90625 52.015625 
C 5.90625 48.59375 8.5 48 9.796875 48 
C 11.90625 48 13.703125 49.296875 13.703125 51.890625 
C 13.703125 54.46875 11.90625 55.765625 9.796875 55.765625 
C 9.40625 55.765625 8.90625 55.765625 8.5 55.578125 
C 11.40625 61.859375 19.296875 63 22.796875 63 
C 26.296875 63 32.90625 61.328125 32.90625 51.875 
C 32.90625 49.109375 32.5 44.1875 29.09375 39.84375 
C 26.09375 36 22.703125 36 19.40625 35.6875 
C 18.90625 35.6875 16.59375 35.453125 16.203125 35.453125 
C 15.5 35.359375 15.09375 35.265625 15.09375 34.5 
C 15.09375 33.796875 15.203125 33.703125 17.203125 33.703125 
z
" id="CMR17-51"/>
      </defs>
      <g transform="translate(264.947334 251.21795)scale(0.18 -0.18)">
       <use transform="scale(0.996264)" xlink:href="#CMR17-51"/>
       <use transform="translate(45.690477 0)scale(0.996264)" xlink:href="#CMR17-48"/>
      </g>
     </g>
    </g>
    <g id="xtick_4">
     <g id="line2d_4">
      <g>
       <use style="stroke:#000000;stroke-width:0.8;" x="342.338879" xlink:href="#mecc8b37e86" y="230.88"/>
      </g>
     </g>
     <g id="text_4">
      <!-- $40$ -->
      <defs>
       <path d="M 33.59375 64.40625 
C 33.59375 66.5 33.5 66.5 31.703125 66.5 
L 2 19.59375 
L 2 17 
L 27.796875 17 
L 27.796875 7.140625 
C 27.796875 3.5 27.59375 2.5 20.59375 2.5 
L 18.703125 2.5 
L 18.703125 0 
C 21.90625 0 27.296875 0 30.703125 0 
C 34.09375 0 39.5 0 42.703125 0 
L 42.703125 2.5 
L 40.796875 2.5 
C 33.796875 2.5 33.59375 3.5 33.59375 7.140625 
L 33.59375 17 
L 43.796875 17 
L 43.796875 19.59375 
L 33.59375 19.59375 
z
M 28.09375 57.859375 
L 28.09375 19.59375 
L 4 19.59375 
z
" id="CMR17-52"/>
      </defs>
      <g transform="translate(334.083754 251.21795)scale(0.18 -0.18)">
       <use transform="scale(0.996264)" xlink:href="#CMR17-52"/>
       <use transform="translate(45.690477 0)scale(0.996264)" xlink:href="#CMR17-48"/>
      </g>
     </g>
    </g>
    <g id="xtick_5">
     <g id="line2d_5">
      <g>
       <use style="stroke:#000000;stroke-width:0.8;" x="411.475298" xlink:href="#mecc8b37e86" y="230.88"/>
      </g>
     </g>
     <g id="text_5">
      <!-- $50$ -->
      <defs>
       <path d="M 11.40625 57.6875 
C 12.40625 57.28125 16.5 56 20.703125 56 
C 30 56 35.09375 61.109375 38 64.0625 
C 38 64.953125 38 65.5 37.40625 65.5 
C 37.296875 65.5 37.09375 65.5 36.296875 65.046875 
C 32.796875 63.40625 28.703125 62.078125 23.703125 62.078125 
C 20.703125 62.078125 16.203125 62.484375 11.296875 64.671875 
C 10.203125 65.171875 10 65.171875 9.90625 65.171875 
C 9.40625 65.171875 9.296875 65.0625 9.296875 63.078125 
L 9.296875 34.421875 
C 9.296875 32.640625 9.296875 32.140625 10.296875 32.140625 
C 10.796875 32.140625 11 32.34375 11.5 33.03125 
C 14.703125 37.515625 19.09375 39.40625 24.09375 39.40625 
C 27.59375 39.40625 35.09375 37.21875 35.09375 20.140625 
C 35.09375 16.953125 35.09375 11.171875 32.09375 6.578125 
C 29.59375 2.484375 25.703125 0.390625 21.40625 0.390625 
C 14.796875 0.390625 8.09375 5 6.296875 12.71875 
C 6.703125 12.609375 7.5 12.421875 7.90625 12.421875 
C 9.203125 12.421875 11.703125 13.125 11.703125 16.21875 
C 11.703125 18.90625 9.796875 20 7.90625 20 
C 5.59375 20 4.09375 18.59375 4.09375 15.796875 
C 4.09375 7.09375 11 -2 21.59375 -2 
C 31.90625 -2 41.703125 6.875 41.703125 19.75 
C 41.703125 31.71875 33.90625 41 24.203125 41 
C 19.09375 41 14.796875 39.109375 11.40625 35.53125 
z
" id="CMR17-53"/>
      </defs>
      <g transform="translate(403.220173 251.21795)scale(0.18 -0.18)">
       <use transform="scale(0.996264)" xlink:href="#CMR17-53"/>
       <use transform="translate(45.690477 0)scale(0.996264)" xlink:href="#CMR17-48"/>
      </g>
     </g>
    </g>
    <g id="text_6">
     <!-- Time (s) -->
     <defs>
      <path d="M 63.296875 72 
L 3.40625 72 
L 1.90625 44.265625 
L 6.203125 44.265625 
C 6.90625 49.25 7.796875 53.046875 8.90625 56.234375 
C 11.5 63.515625 16.296875 67.3125 23.09375 67.3125 
C 26.40625 67.3125 27.796875 66.203125 27.796875 63.71875 
L 27.796875 12.28125 
L 27.796875 9.375 
C 27.796875 5.1875 26.90625 4.6875 18.796875 4.6875 
L 16.203125 4.6875 
L 16.203125 0 
L 50.5 0 
L 50.5 4.6875 
L 47.90625 4.6875 
C 39.90625 4.6875 39 5.1875 39 9.375 
L 39 12.28125 
L 39 63.71875 
C 39 66.203125 40.40625 67.3125 43.703125 67.3125 
C 49.796875 67.3125 54.703125 63.90625 57.203125 57.921875 
C 58.703125 54.25 59.703125 49.953125 60.5 44.265625 
L 64.796875 44.265625 
z
" id="Century_Schoolbook_L_Roman-84"/>
      <path d="M 20.59375 46 
L 1.796875 46 
L 1.796875 41.21875 
L 6.90625 41.21875 
C 10.59375 41.21875 11.203125 40.515625 11.203125 36.203125 
L 11.203125 12.296875 
L 11.203125 8.296875 
C 11.203125 4.296875 10.09375 3.59375 3.703125 3.59375 
L 3 3.59375 
L 3 0 
L 28.90625 0 
L 28.90625 3.59375 
L 28.203125 3.59375 
C 21.703125 3.59375 20.59375 4.28125 20.59375 8.21875 
L 20.59375 12.171875 
z
M 15.90625 71.578125 
C 12.703125 71.578125 10.09375 68.984375 10.09375 65.796875 
C 10.09375 62.703125 12.703125 60 15.796875 60 
C 19.09375 60 21.703125 62.59375 21.703125 65.796875 
C 21.703125 68.984375 19.09375 71.578125 15.90625 71.578125 
z
" id="Century_Schoolbook_L_Roman-105"/>
      <path d="M 20.09375 46 
L 2.296875 46 
L 2.296875 41.21875 
L 6.40625 41.21875 
C 10.09375 41.21875 10.703125 40.515625 10.703125 36.203125 
L 10.703125 12.296875 
L 10.703125 8.40625 
C 10.703125 4.296875 9.59375 3.59375 3.203125 3.59375 
L 2.796875 3.59375 
L 2.796875 0 
L 28 0 
L 28 3.59375 
L 27.59375 3.59375 
C 21.203125 3.59375 20.09375 4.296875 20.09375 8.390625 
L 20.09375 12.28125 
L 20.09375 26.453125 
C 20.09375 35.328125 25 41.921875 31.5 41.921875 
C 34.09375 41.921875 36.90625 40.515625 38.09375 38.625 
C 39.5 36.734375 40.09375 33.828125 40.09375 29.734375 
L 40.09375 12.28125 
L 40.09375 8.28125 
C 40.09375 4.296875 39 3.59375 32.5 3.59375 
L 32.09375 3.59375 
L 32.09375 0 
L 57.40625 0 
L 57.40625 3.59375 
L 57 3.59375 
C 50.59375 3.59375 49.5 4.296875 49.5 8.28125 
L 49.5 12.28125 
L 49.5 25.546875 
C 49.5 35.53125 54 41.921875 61 41.921875 
C 64.296875 41.921875 67 40.015625 68.296875 36.921875 
C 69.203125 34.734375 69.5 32.53125 69.5 28.640625 
L 69.5 12.28125 
L 69.5 8.28125 
C 69.5 4.296875 68.40625 3.59375 61.90625 3.59375 
L 61.5 3.59375 
L 61.5 0 
L 86.796875 0 
L 86.796875 3.59375 
L 86.40625 3.59375 
C 80 3.59375 78.90625 4.296875 78.90625 8.390625 
L 78.90625 12.28125 
L 78.90625 30.640625 
C 78.90625 36.828125 78.296875 38.921875 75.703125 42.3125 
C 72.796875 46.015625 68.703125 48 63.90625 48 
C 57.40625 48 52.59375 44.9375 48.296875 38.109375 
C 46.59375 44.046875 41.203125 48 34.5 48 
C 28.5 48 24 45.140625 20.09375 38.921875 
z
" id="Century_Schoolbook_L_Roman-109"/>
      <path d="M 46.5 23 
C 46.59375 37.8125 38.09375 48.28125 25.90625 48.28125 
C 13.09375 48.28125 3.5 37.25 3.5 22.34375 
C 3.5 8.4375 12.59375 -1 26.09375 -1 
C 35.59375 -1 42.40625 3.6875 46.5 13.1875 
L 43 15.09375 
C 38.90625 7.390625 34.703125 4.390625 28 4.390625 
C 22.90625 4.390625 19.203125 6.59375 16.59375 11 
C 14.796875 14 14 17.5 14.09375 23 
z
M 14.203125 27.296875 
C 14.203125 30.34375 14.59375 32.5 15.59375 35.25 
C 17.703125 41.140625 20.90625 44 25.703125 44 
C 31.796875 44 35.796875 38.78125 35.796875 30.921875 
C 35.796875 28.078125 34.90625 27.296875 31.703125 27.296875 
z
" id="Century_Schoolbook_L_Roman-101"/>
      <path d="M 27.90625 73.453125 
C 21.90625 69.765625 18.703125 67.171875 15.296875 63.171875 
C 7.703125 54.1875 3.59375 42.71875 3.59375 30.640625 
C 3.59375 19.265625 7.203125 8.578125 13.90625 -0.296875 
C 17.703125 -5.09375 21.09375 -8.078125 27.90625 -12.28125 
L 27.90625 -8.578125 
C 17.90625 0.203125 13.90625 11.484375 13.90625 30.640625 
C 13.90625 49.796875 17.90625 60.984375 27.90625 69.765625 
z
" id="Century_Schoolbook_L_Roman-40"/>
      <path d="M 39 48 
L 35.5 48 
L 32.59375 44.40625 
C 29 47.203125 25.40625 48.390625 20.40625 48.390625 
C 11.59375 48.390625 5.796875 42.625 5.796875 33.953125 
C 5.796875 30.078125 7.09375 26.78125 9.296875 24.8125 
C 11.59375 22.703125 13.90625 21.71875 19.90625 20.3125 
L 25.203125 19.125 
C 33.09375 17.234375 35.90625 15.234375 35.90625 11.265625 
C 35.90625 6.578125 31.796875 3.296875 25.90625 3.296875 
C 17.5 3.296875 11.5 8.765625 9.09375 18.875 
L 5.09375 18.875 
L 5.09375 0 
L 8.59375 0 
L 12.09375 3.90625 
C 16.203125 0.59375 20.796875 -1 25.796875 -1 
C 35.59375 -1 42.09375 5.078125 42.09375 14.34375 
C 42.09375 18.71875 40.703125 22.09375 37.90625 24.390625 
C 35.5 26.484375 33.5 27.28125 27.40625 28.5625 
L 22.40625 29.671875 
C 16.90625 30.859375 16.90625 30.859375 15.09375 31.859375 
C 12.90625 32.859375 11.59375 34.9375 11.59375 37.140625 
C 11.59375 41.109375 15.40625 44 20.90625 44 
C 24.703125 44 27.796875 42.703125 30.59375 40.015625 
C 32.796875 37.8125 33.90625 35.828125 35.5 31.234375 
L 39 31.234375 
z
" id="Century_Schoolbook_L_Roman-115"/>
      <path d="M 5.40625 -12.28125 
C 11.40625 -8.578125 14.59375 -5.984375 18 -1.890625 
C 25.59375 6.984375 29.703125 18.5625 29.703125 30.640625 
C 29.703125 42.015625 26.09375 52.703125 19.40625 61.484375 
C 15.59375 66.375 12.203125 69.359375 5.40625 73.453125 
L 5.40625 69.765625 
C 15.40625 60.984375 19.40625 49.796875 19.40625 30.640625 
C 19.40625 11.375 15.40625 0.203125 5.40625 -8.578125 
z
" id="Century_Schoolbook_L_Roman-41"/>
     </defs>
     <g transform="translate(205.666374 273.24577)scale(0.18 -0.18)">
      <use transform="translate(0 -0.29235)scale(0.996264)" xlink:href="#Century_Schoolbook_L_Roman-84"/>
      <use transform="translate(66.450031 -0.29235)scale(0.996264)" xlink:href="#Century_Schoolbook_L_Roman-105"/>
      <use transform="translate(97.831344 -0.29235)scale(0.996264)" xlink:href="#Century_Schoolbook_L_Roman-109"/>
      <use transform="translate(186.398251 -0.29235)scale(0.996264)" xlink:href="#Century_Schoolbook_L_Roman-101"/>
      <use transform="translate(263.906621 -0.29235)scale(0.996264)" xlink:href="#Century_Schoolbook_L_Roman-40"/>
      <use transform="translate(297.081851 -0.29235)scale(0.996264)" xlink:href="#Century_Schoolbook_L_Roman-115"/>
      <use transform="translate(343.207661 -0.29235)scale(0.996264)" xlink:href="#Century_Schoolbook_L_Roman-41"/>
     </g>
    </g>
   </g>
   <g id="matplotlib.axis_2">
    <g id="ytick_1">
     <g id="line2d_6">
      <defs>
       <path d="M 0 0 
L -3.5 0 
" id="m17688ee718" style="stroke:#000000;stroke-width:0.8;"/>
      </defs>
      <g>
       <use style="stroke:#000000;stroke-width:0.8;" x="65.7932" xlink:href="#m17688ee718" y="230.88"/>
      </g>
     </g>
     <g id="text_7">
      <!-- $0$ -->
      <g transform="translate(50.53807 237.548975)scale(0.18 -0.18)">
       <use transform="scale(0.996264)" xlink:href="#CMR17-48"/>
      </g>
     </g>
    </g>
    <g id="ytick_2">
     <g id="line2d_7">
      <g>
       <use style="stroke:#000000;stroke-width:0.8;" x="65.7932" xlink:href="#m17688ee718" y="194.963813"/>
      </g>
     </g>
     <g id="text_8">
      <!-- $25$ -->
      <g transform="translate(42.28295 201.632788)scale(0.18 -0.18)">
       <use transform="scale(0.996264)" xlink:href="#CMR17-50"/>
       <use transform="translate(45.690477 0)scale(0.996264)" xlink:href="#CMR17-53"/>
      </g>
     </g>
    </g>
    <g id="ytick_3">
     <g id="line2d_8">
      <g>
       <use style="stroke:#000000;stroke-width:0.8;" x="65.7932" xlink:href="#m17688ee718" y="159.047627"/>
      </g>
     </g>
     <g id="text_9">
      <!-- $50$ -->
      <g transform="translate(42.28295 165.716602)scale(0.18 -0.18)">
       <use transform="scale(0.996264)" xlink:href="#CMR17-53"/>
       <use transform="translate(45.690477 0)scale(0.996264)" xlink:href="#CMR17-48"/>
      </g>
     </g>
    </g>
    <g id="ytick_4">
     <g id="line2d_9">
      <g>
       <use style="stroke:#000000;stroke-width:0.8;" x="65.7932" xlink:href="#m17688ee718" y="123.13144"/>
      </g>
     </g>
     <g id="text_10">
      <!-- $75$ -->
      <defs>
       <path d="M 45.09375 61.578125 
L 45.09375 63.765625 
L 21.59375 63.765625 
C 9.90625 63.765625 9.703125 65.078125 9.296875 67 
L 7.5 67 
L 4.59375 48.34375 
L 6.40625 48.34375 
C 6.703125 50.234375 7.40625 55.3125 8.59375 57.203125 
C 9.203125 58 16.59375 58 18.296875 58 
L 40.296875 58 
L 29.203125 41.578125 
C 21.796875 30.53125 16.703125 15.609375 16.703125 2.578125 
C 16.703125 1.390625 16.703125 -2 20.296875 -2 
C 23.90625 -2 23.90625 1.390625 23.90625 2.671875 
L 23.90625 7.265625 
C 23.90625 23.5625 26.703125 34.3125 31.296875 41.1875 
z
" id="CMR17-55"/>
      </defs>
      <g transform="translate(42.28295 129.800415)scale(0.18 -0.18)">
       <use transform="scale(0.996264)" xlink:href="#CMR17-55"/>
       <use transform="translate(45.690477 0)scale(0.996264)" xlink:href="#CMR17-53"/>
      </g>
     </g>
    </g>
    <g id="ytick_5">
     <g id="line2d_10">
      <g>
       <use style="stroke:#000000;stroke-width:0.8;" x="65.7932" xlink:href="#m17688ee718" y="87.215253"/>
      </g>
     </g>
     <g id="text_11">
      <!-- $100$ -->
      <g transform="translate(34.02782 93.884228)scale(0.18 -0.18)">
       <use transform="scale(0.996264)" xlink:href="#CMR17-49"/>
       <use transform="translate(45.690477 0)scale(0.996264)" xlink:href="#CMR17-48"/>
       <use transform="translate(91.380954 0)scale(0.996264)" xlink:href="#CMR17-48"/>
      </g>
     </g>
    </g>
    <g id="ytick_6">
     <g id="line2d_11">
      <g>
       <use style="stroke:#000000;stroke-width:0.8;" x="65.7932" xlink:href="#m17688ee718" y="51.299067"/>
      </g>
     </g>
     <g id="text_12">
      <!-- $125$ -->
      <g transform="translate(34.02782 57.968042)scale(0.18 -0.18)">
       <use transform="scale(0.996264)" xlink:href="#CMR17-49"/>
       <use transform="translate(45.690477 0)scale(0.996264)" xlink:href="#CMR17-50"/>
       <use transform="translate(91.380954 0)scale(0.996264)" xlink:href="#CMR17-53"/>
      </g>
     </g>
    </g>
    <g id="text_13">
     <!-- Spindle Current (Volts) -->
     <defs>
      <path d="M 54.59375 72 
L 50.90625 72 
L 46.90625 66.09375 
C 42.203125 70.59375 35.796875 73 28.703125 73 
C 15.59375 73 6.796875 64.609375 6.796875 52.15625 
C 6.796875 41.28125 12.203125 35.890625 26.90625 32.109375 
L 36.40625 29.703125 
C 43.796875 27.828125 44.5 27.625 46.59375 26.03125 
C 49.59375 23.734375 51.203125 20.4375 51.203125 16.546875 
C 51.203125 12.5625 49.703125 9.28125 46.703125 6.59375 
C 43.40625 3.6875 40.09375 2.59375 34.59375 2.59375 
C 27.203125 2.59375 21.90625 4.875 17.203125 10.03125 
C 13 14.703125 10.90625 19.375 9.40625 27 
L 5.09375 27 
L 5.5 -1.4375 
L 9.40625 -1.4375 
L 13.90625 5.46875 
C 20.59375 0 26.203125 -2 34.90625 -2 
C 49.59375 -2 59 6.59375 59 19.9375 
C 59 26.109375 56.90625 31.40625 53 35.203125 
C 50.296875 37.796875 46.40625 39.484375 38.40625 41.484375 
L 27.703125 44.171875 
C 18.796875 46.46875 14.59375 50.359375 14.59375 56.4375 
C 14.59375 63.40625 20.296875 68.203125 28.796875 68.203125 
C 35.796875 68.203125 41.5 65.1875 45.5 59.484375 
C 48.40625 55.375 50.203125 51.15625 51.5 46.046875 
L 55.796875 46.046875 
z
" id="Century_Schoolbook_L_Roman-83"/>
      <path d="M 20.09375 46 
L 2.796875 46 
L 2.796875 41.21875 
L 6.40625 41.21875 
C 10.09375 41.21875 10.703125 40.515625 10.703125 36.21875 
L 10.703125 -7.75 
L 10.703125 -11.71875 
C 10.703125 -15.71875 9.59375 -16.40625 3.203125 -16.40625 
L 2.796875 -16.40625 
L 2.796875 -20 
L 28.796875 -20 
L 28.796875 -16.40625 
L 27.703125 -16.40625 
C 21.203125 -16.40625 20.09375 -15.71875 20.09375 -11.734375 
L 20.09375 -7.75 
L 20.09375 6.6875 
C 23.40625 0.90625 27.203125 -1.390625 33.296875 -1.390625 
C 44.90625 -1.390625 53.5 9.265625 53.5 23.5 
C 53.5 37.265625 44.90625 48 33.90625 48 
C 27.703125 48 23.59375 45.4375 20.09375 39.515625 
z
M 32.09375 42.609375 
C 39 42.609375 43 35.75 43 24.09375 
C 43 11.265625 38.90625 4 31.796875 4 
C 24.703125 4 20 11.375 20 22.8125 
C 20 35.140625 24.5 42.609375 32.09375 42.609375 
z
" id="Century_Schoolbook_L_Roman-112"/>
      <path d="M 20 46 
L 2.703125 46 
L 2.703125 41.21875 
L 6.296875 41.21875 
C 10 41.21875 10.59375 40.515625 10.59375 36.203125 
L 10.59375 12.296875 
L 10.59375 8.296875 
C 10.59375 4.296875 9.5 3.59375 3.09375 3.59375 
L 2.703125 3.59375 
L 2.703125 0 
L 28 0 
L 28 3.59375 
L 27.59375 3.59375 
C 21.09375 3.59375 20 4.296875 20 8.28125 
L 20 12.28125 
L 20 22.65625 
C 20 27.546875 20.703125 32.03125 21.796875 34.328125 
C 23.90625 38.828125 28.40625 41.921875 32.703125 41.921875 
C 35.296875 41.921875 38.296875 40.421875 39.796875 38.421875 
C 41.296875 36.328125 42 33.234375 42 28.4375 
L 42 12.28125 
L 42 8.28125 
C 42 4.296875 40.90625 3.59375 34.40625 3.59375 
L 34 3.59375 
L 34 0 
L 59.296875 0 
L 59.296875 3.59375 
L 58.90625 3.59375 
C 52.5 3.59375 51.40625 4.296875 51.40625 8.28125 
L 51.40625 12.28125 
L 51.40625 27.953125 
C 51.40625 35.125 51.09375 36.921875 49.296875 40.328125 
C 46.796875 45.109375 41.703125 48 35.796875 48 
C 29.40625 48 24.40625 45.046875 20 38.515625 
z
" id="Century_Schoolbook_L_Roman-110"/>
      <path d="M 38 0 
L 55.40625 0 
L 55.40625 4.703125 
L 53.59375 4.703125 
C 48.203125 4.703125 47.40625 5.703125 47.40625 11.96875 
L 47.40625 73.78125 
L 27.796875 73.78125 
L 27.796875 69 
L 33.703125 69 
C 37.296875 69 38 68.28125 38 63.921875 
L 38 41 
C 34.296875 46.09375 30 48.390625 24.203125 48.390625 
C 12.90625 48.390625 4.296875 37.546875 4.296875 23.203125 
C 4.296875 9.0625 12.59375 -1 24.203125 -1 
C 30.5 -1 34.796875 1.671875 38 7.59375 
z
M 26.203125 43 
C 30.296875 43 34.203125 40.03125 36 35.4375 
C 37.203125 32.453125 37.90625 28.28125 37.90625 23.515625 
C 37.90625 11.96875 33.296875 4.390625 26.09375 4.390625 
C 19.09375 4.390625 14.796875 10.96875 14.796875 22.015625 
C 14.796875 27.890625 15.40625 32.359375 16.703125 35.734375 
C 18.40625 40.125 22.09375 43 26.203125 43 
z
" id="Century_Schoolbook_L_Roman-100"/>
      <path d="M 20.40625 73 
L 1.90625 73 
L 1.90625 68.21875 
L 6.796875 68.21875 
C 10.40625 68.21875 11 67.515625 11 63.21875 
L 11 12.28125 
L 11 8.28125 
C 11 4.296875 9.90625 3.59375 3.5 3.59375 
L 2.796875 3.59375 
L 2.796875 0 
L 28.703125 0 
L 28.703125 3.59375 
L 28 3.59375 
C 21.5 3.59375 20.40625 4.296875 20.40625 8.25 
L 20.40625 12.21875 
z
" id="Century_Schoolbook_L_Roman-108"/>
      <path d="M 63.90625 72 
L 60.09375 72 
L 56.09375 66.015625 
C 49 71.203125 45.09375 72.703125 38.40625 72.703125 
C 28.703125 72.703125 20.703125 68.8125 13.90625 60.78125 
C 7.5 53.234375 4.5 44.890625 4.5 34.65625 
C 4.5 13.296875 18.59375 -2 38.296875 -2 
C 54.296875 -2 64.5 7.34375 66.796875 24.015625 
L 62.09375 24.8125 
C 61.09375 19.546875 59.90625 15.984375 58.09375 13.015625 
C 54 6.171875 47.59375 2.6875 39.5 2.6875 
C 24.703125 2.6875 17.703125 12.90625 17.703125 34.265625 
C 17.703125 45.46875 19.203125 53.015625 22.59375 58.96875 
C 25.703125 64.53125 31.90625 68 38.296875 68 
C 45.296875 68 51.5 64.328125 55.296875 57.96875 
C 57.203125 54.6875 58.703125 50.8125 61 43.171875 
L 65.40625 43.171875 
z
" id="Century_Schoolbook_L_Roman-67"/>
      <path d="M 41.203125 0 
L 59.40625 0 
L 59.40625 4.703125 
L 56.90625 4.703125 
C 51.40625 4.703125 50.59375 5.59375 50.59375 11.953125 
L 50.59375 46.78125 
L 31.796875 46.78125 
L 31.796875 42 
L 36.90625 42 
C 40.59375 42 41.203125 41.296875 41.203125 36.953125 
L 41.203125 24.5625 
C 41.203125 18.8125 40.59375 15.484375 39.09375 12.15625 
C 37 7.71875 33 5.09375 28.09375 5.09375 
C 25 5.09375 22.40625 6.1875 21.09375 8.171875 
C 19.796875 10.046875 19.59375 11.046875 19.59375 16.5 
L 19.59375 46.78125 
L 2.09375 46.78125 
L 2.09375 42 
L 5.90625 42 
C 9.59375 42 10.203125 41.296875 10.203125 36.953125 
L 10.203125 15.21875 
C 10.203125 10.078125 10.59375 7.765625 12.09375 5.453125 
C 14.796875 1.3125 19.59375 -1 25.59375 -1 
C 32.203125 -1 36.796875 1.71875 41.203125 8.125 
z
" id="Century_Schoolbook_L_Roman-117"/>
      <path d="M 19.796875 46 
L 2.09375 46 
L 2.09375 41.21875 
L 6.203125 41.21875 
C 9.90625 41.21875 10.5 40.515625 10.5 36.203125 
L 10.5 12.296875 
L 10.5 8.296875 
C 10.5 4.296875 9.40625 3.59375 2.90625 3.59375 
L 2.5 3.59375 
L 2.5 0 
L 29.203125 0 
L 29.203125 3.59375 
L 27.296875 3.59375 
C 20.90625 3.59375 19.796875 4.296875 19.796875 8.296875 
L 19.796875 12.296875 
L 19.796875 13.296875 
C 19.796875 20.8125 21.203125 28.40625 23.703125 34.109375 
C 26.09375 39.703125 29.5 42.8125 33.703125 43.3125 
C 32.296875 41.703125 31.90625 40.6875 31.90625 38.765625 
C 31.90625 35.546875 34.203125 33.234375 37.40625 33.234375 
C 41 33.234375 43.5 35.9375 43.5 40.015625 
C 43.5 44.8125 40.09375 48 34.796875 48 
C 28.5 48 23 42.921875 19.796875 34.140625 
z
" id="Century_Schoolbook_L_Roman-114"/>
      <path d="M 19.40625 47 
L 19.40625 67 
L 15.296875 67 
C 14.296875 53.875 9.90625 47.1875 1.796875 46.59375 
L 1.796875 42.703125 
L 10 42.703125 
L 10 17.265625 
C 10 10.28125 10.203125 7.78125 11.203125 5.484375 
C 12.796875 1.296875 16.796875 -1 22.59375 -1 
C 26.5 -1 29.90625 0.203125 32.203125 2.390625 
C 35.5 5.59375 37.40625 10.875 37.40625 16.375 
C 37.40625 16.96875 37.40625 17.671875 37.296875 18.671875 
L 33.09375 18.671875 
C 32.796875 9.6875 30.203125 5.09375 25.296875 5.09375 
C 23 5.09375 21 6.28125 20.296875 7.984375 
C 19.703125 9.375 19.40625 11.875 19.40625 15.46875 
L 19.40625 42.703125 
L 34.09375 42.703125 
L 34.09375 47 
z
" id="Century_Schoolbook_L_Roman-116"/>
      <path d="M 39.296875 15.40625 
L 21 61.8125 
C 20.5 63.015625 20.203125 64.21875 20.203125 64.8125 
C 20.203125 66.609375 21.90625 67.3125 26.40625 67.3125 
L 30.40625 67.3125 
L 30.40625 72 
L -0.796875 72 
L -0.796875 67.3125 
L 1.203125 67.3125 
C 5.703125 67.3125 7 66.3125 8.90625 61.703125 
L 34.203125 -1.6875 
L 38.203125 -1.6875 
L 61.203125 57.515625 
C 64.203125 65.3125 66.40625 67.3125 72.09375 67.3125 
L 73.09375 67.3125 
L 73.09375 72 
L 46 72 
L 46 67.3125 
L 47.90625 67.3125 
C 53 67.3125 56 65.3125 56 62.109375 
C 56 60.71875 55.5 58.421875 54.796875 56.53125 
z
" id="Century_Schoolbook_L_Roman-86"/>
      <path d="M 25.203125 48.28125 
C 13 48.28125 3.40625 37.453125 3.40625 23.546875 
C 3.40625 9.9375 13 -1 25 -1 
C 37 -1 46.59375 9.9375 46.59375 23.640625 
C 46.59375 37.25 37 48.28125 25.203125 48.28125 
z
M 25.203125 44 
C 32.203125 44 36.09375 36.75 36.09375 23.640625 
C 36.09375 10.453125 32.203125 3.296875 25 3.296875 
C 17.796875 3.296875 13.90625 10.453125 13.90625 23.546875 
C 13.90625 37.046875 17.703125 44 25.203125 44 
z
" id="Century_Schoolbook_L_Roman-111"/>
     </defs>
     <g transform="translate(25.33795 220.11432)rotate(-90)scale(0.18 -0.18)">
      <use transform="translate(0 -1.570628)scale(0.996264)" xlink:href="#Century_Schoolbook_L_Roman-83"/>
      <use transform="translate(62.763979 -1.570628)scale(0.996264)" xlink:href="#Century_Schoolbook_L_Roman-112"/>
      <use transform="translate(119.949466 -1.570628)scale(0.996264)" xlink:href="#Century_Schoolbook_L_Roman-105"/>
      <use transform="translate(151.330779 -1.570628)scale(0.996264)" xlink:href="#Century_Schoolbook_L_Roman-110"/>
      <use transform="translate(212.20241 -1.570628)scale(0.996264)" xlink:href="#Century_Schoolbook_L_Roman-100"/>
      <use transform="translate(269.387897 -1.570628)scale(0.996264)" xlink:href="#Century_Schoolbook_L_Roman-108"/>
      <use transform="translate(300.76921 -1.570628)scale(0.996264)" xlink:href="#Century_Schoolbook_L_Roman-101"/>
      <use transform="translate(378.27758 -1.570628)scale(0.996264)" xlink:href="#Century_Schoolbook_L_Roman-67"/>
      <use transform="translate(450.207565 -1.570628)scale(0.996264)" xlink:href="#Century_Schoolbook_L_Roman-117"/>
      <use transform="translate(511.079196 -1.570628)scale(0.996264)" xlink:href="#Century_Schoolbook_L_Roman-114"/>
      <use transform="translate(555.312765 -1.570628)scale(0.996264)" xlink:href="#Century_Schoolbook_L_Roman-114"/>
      <use transform="translate(599.546333 -1.570628)scale(0.996264)" xlink:href="#Century_Schoolbook_L_Roman-101"/>
      <use transform="translate(649.359534 -1.570628)scale(0.996264)" xlink:href="#Century_Schoolbook_L_Roman-110"/>
      <use transform="translate(710.231164 -1.570628)scale(0.996264)" xlink:href="#Century_Schoolbook_L_Roman-116"/>
      <use transform="translate(776.68004 -1.570628)scale(0.996264)" xlink:href="#Century_Schoolbook_L_Roman-40"/>
      <use transform="translate(809.85527 -1.570628)scale(0.996264)" xlink:href="#Century_Schoolbook_L_Roman-86"/>
      <use transform="translate(874.31329 -1.570628)scale(0.996264)" xlink:href="#Century_Schoolbook_L_Roman-111"/>
      <use transform="translate(924.12649 -1.570628)scale(0.996264)" xlink:href="#Century_Schoolbook_L_Roman-108"/>
      <use transform="translate(955.507803 -1.570628)scale(0.996264)" xlink:href="#Century_Schoolbook_L_Roman-116"/>
      <use transform="translate(994.26151 -1.570628)scale(0.996264)" xlink:href="#Century_Schoolbook_L_Roman-115"/>
      <use transform="translate(1040.38732 -1.570628)scale(0.996264)" xlink:href="#Century_Schoolbook_L_Roman-41"/>
     </g>
    </g>
   </g>
   <g id="line2d_12">
    <path clip-path="url(#p8c31a237b5)" d="M 65.7932 230.88 
L 66.615923 230.88 
L 66.733455 207.550201 
L 66.899383 207.550201 
L 67.037656 205.720412 
L 67.175928 207.550201 
L 67.314201 205.720412 
L 67.459388 207.550201 
L 67.556179 207.550201 
L 67.625315 205.720412 
L 67.666797 207.550201 
L 67.694452 207.550201 
L 67.839638 205.720412 
L 67.901861 205.720412 
L 68.040134 207.550201 
L 68.10927 205.720412 
L 68.150752 207.550201 
L 68.212975 207.550201 
L 68.316679 205.720412 
L 68.33742 206.818285 
L 68.454952 207.550201 
L 68.593225 205.720412 
L 68.738411 207.550201 
L 69.008044 207.550201 
L 69.042612 205.720412 
L 69.118662 207.550201 
L 69.146316 207.550201 
L 69.284589 205.720412 
L 69.429776 207.550201 
L 69.526567 207.550201 
L 69.66484 205.720412 
L 69.810026 207.550201 
L 70.183363 207.550201 
L 70.287067 205.720412 
L 70.307808 206.818285 
L 70.390772 205.720412 
L 70.42534 207.550201 
L 70.459908 205.720412 
L 70.535958 207.550201 
L 70.598181 207.550201 
L 70.736454 205.720412 
L 70.874727 207.550201 
L 71.013 205.720412 
L 71.158186 207.550201 
L 71.220409 207.550201 
L 71.254977 205.720412 
L 71.331027 207.550201 
L 71.358682 207.550201 
L 71.427818 205.720412 
L 71.4693 207.550201 
L 71.531523 207.550201 
L 71.669796 205.720412 
L 71.814982 207.550201 
L 71.911773 207.550201 
L 72.015478 205.720412 
L 72.036219 206.818285 
L 72.084614 205.720412 
L 72.160664 207.550201 
L 72.188319 207.550201 
L 72.326592 205.720412 
L 72.36116 207.550201 
L 72.43721 205.720412 
L 72.464864 205.720412 
L 72.610051 207.550201 
L 72.672274 207.550201 
L 72.775978 205.720412 
L 72.796719 206.818285 
L 72.879683 207.550201 
L 72.845115 205.720412 
L 72.900424 206.452328 
L 72.983388 205.720412 
L 72.948819 207.550201 
L 73.004129 206.818285 
L 73.052524 205.720412 
L 73.128574 207.550201 
L 73.225365 207.550201 
L 73.294502 205.720412 
L 73.335983 207.550201 
L 73.529565 207.550201 
L 73.647097 206.992115 
L 85.21362 206.992115 
L 85.331152 87.215253 
L 87.287713 87.215253 
L 87.363763 105.265041 
L 87.398331 103.526742 
L 87.467468 101.696954 
L 87.488208 103.837806 
L 87.709445 121.458667 
L 87.716359 116.426749 
L 87.744013 96.299079 
L 87.833891 110.315257 
L 87.847718 116.060791 
L 87.930682 106.033552 
L 87.951423 101.696954 
L 87.985991 110.662916 
L 88.048213 104.24036 
L 88.055127 103.526742 
L 88.089695 108.924618 
L 88.124264 125.026754 
L 88.207227 113.919939 
L 88.262536 123.288455 
L 88.276364 113.22462 
L 88.297105 98.128867 
L 88.380068 110.699512 
L 88.400809 121.458667 
L 88.483773 109.601639 
L 88.504514 105.265041 
L 88.532168 118.219942 
L 88.539082 121.458667 
L 88.608218 105.265041 
L 88.615132 105.265041 
L 88.642787 105.265041 
L 88.677355 128.594841 
L 88.760319 110.351852 
L 88.815628 123.288455 
L 88.85711 112.474407 
L 88.919332 98.128867 
L 88.953901 117.89058 
L 88.988469 117.89058 
L 89.147483 107.094829 
L 89.16131 107.094829 
L 89.230446 125.026754 
L 89.306496 111.779087 
L 89.334151 108.924618 
L 89.354892 117.54292 
L 89.368719 123.288455 
L 89.437856 107.094829 
L 89.472424 103.526742 
L 89.486251 111.431427 
L 89.54156 125.026754 
L 89.596869 113.553982 
L 89.610697 110.662916 
L 89.645265 117.89058 
L 89.707488 112.492705 
L 89.714401 112.492705 
L 89.76971 119.665474 
L 89.818106 125.026754 
L 89.873415 117.853984 
L 89.92181 125.026754 
L 90.025515 103.526742 
L 90.094652 125.026754 
L 90.149961 113.57228 
L 90.163788 107.094829 
L 90.246752 118.219942 
L 90.405765 132.254417 
L 90.412679 129.381649 
L 90.571693 108.888022 
L 90.578606 107.094829 
L 90.633916 121.440369 
L 90.682311 128.594841 
L 90.703052 111.413129 
L 90.716879 99.958655 
L 90.73762 167.752308 
L 90.786016 212.948076 
L 90.827498 107.497383 
L 90.875893 87.215253 
L 90.903548 205.043391 
L 90.924289 209.379989 
L 90.979598 87.215253 
L 90.993425 212.948076 
L 91.034907 209.709351 
L 91.131698 212.948076 
L 91.138611 141.549741 
L 91.200834 202.152326 
L 91.256143 87.215253 
L 91.283798 87.215253 
L 91.290712 88.08333 
L 91.408243 212.948076 
L 91.498121 87.215253 
L 91.539603 192.125086 
L 91.546516 189.618276 
L 91.601825 87.215253 
L 91.615653 212.948076 
L 91.657135 155.199961 
L 91.684789 211.118288 
L 91.733185 87.215253 
L 91.774667 87.215253 
L 91.85763 212.948076 
L 91.899112 180.634016 
L 91.926767 166.288477 
L 91.954421 203.616156 
L 91.961335 212.948076 
L 91.995903 112.492705 
L 92.051212 193.936577 
L 92.065039 189.618276 
L 92.099608 212.948076 
L 92.21714 87.215253 
L 107.848884 87.215253 
L 107.862711 225.482125 
L 107.959502 87.215253 
L 108.194566 87.215253 
L 108.208393 230.88 
L 108.305184 87.215253 
L 108.436544 87.215253 
L 108.450371 225.482125 
L 108.547162 87.215253 
L 108.574816 87.215253 
L 108.65778 202.152326 
L 108.685435 87.215253 
L 108.747658 87.215253 
L 108.761485 214.777864 
L 108.858276 87.215253 
L 108.927412 87.215253 
L 109.038031 220.08425 
L 109.044944 219.73659 
L 109.09334 211.868501 
L 109.107167 207.550201 
L 109.210872 229.050212 
L 109.224699 87.215253 
L 109.266181 87.215253 
L 109.349144 216.516163 
L 109.480504 197.870621 
L 109.591122 212.948076 
L 109.521985 196.75445 
L 109.653345 205.409348 
L 109.667172 185.684232 
L 109.729395 110.662916 
L 109.763963 202.152326 
L 109.770877 202.152326 
L 109.798531 202.152326 
L 109.833099 212.948076 
L 109.895322 199.627218 
L 109.971372 144.788466 
L 110.026681 184.604657 
L 110.075077 212.948076 
L 110.144213 202.152326 
L 110.21335 137.560803 
L 110.268659 167.002095 
L 110.310141 180.652314 
L 110.427673 87.215253 
L 114.555117 87.215253 
L 114.603512 212.948076 
L 114.665735 87.215253 
L 114.69339 87.215253 
L 114.776353 218.345951 
L 114.804008 139.372293 
L 114.810922 119.628878 
L 114.886972 215.491481 
L 114.914626 218.345951 
L 115.059813 87.215253 
L 115.108208 87.215253 
L 115.122035 214.777864 
L 115.218826 87.215253 
L 115.246481 87.215253 
L 115.260308 218.345951 
L 115.370927 211.154883 
L 115.398581 203.982114 
L 115.45389 87.215253 
L 115.467718 220.08425 
L 115.509199 136.536121 
L 115.640559 212.948076 
L 115.709695 225.482125 
L 115.771918 87.215253 
L 115.799572 87.215253 
L 115.847968 214.777864 
L 115.9655 208.629776 
L 116.055377 214.777864 
L 116.138341 122.867604 
L 116.255873 87.215253 
L 116.587728 87.215253 
L 116.677605 212.948076 
L 116.739828 210.441266 
L 116.78131 214.777864 
L 116.815878 200.414027 
L 116.850446 211.118288 
L 116.885014 214.777864 
L 116.898841 205.445944 
L 116.93341 115.365472 
L 116.961064 87.215253 
L 116.988719 230.88 
L 117.016373 223.70723 
L 117.023287 221.914038 
L 117.078596 87.215253 
L 117.133905 210.441266 
L 117.230696 214.777864 
L 117.244524 135.108886 
L 117.299833 218.345951 
L 117.362055 87.215253 
L 117.368969 87.215253 
L 117.382796 117.524622 
L 117.472674 212.948076 
L 117.514156 202.920837 
L 117.610947 225.482125 
L 117.728478 87.215253 
L 117.735392 87.215253 
L 117.818356 212.948076 
L 117.852924 202.152326 
L 117.92206 218.345951 
L 117.970456 87.215253 
L 118.018851 87.215253 
L 118.12947 214.777864 
L 118.150211 171.686352 
L 118.240088 87.215253 
L 118.198606 214.777864 
L 118.253915 148.759106 
L 118.371447 218.345951 
L 118.28157 87.215253 
L 118.378361 217.266376 
L 118.406015 212.948076 
L 118.461325 87.215253 
L 118.50972 214.777864 
L 118.523547 89.181203 
L 118.558115 87.215253 
L 118.565029 88.08333 
L 118.613425 221.914038 
L 118.682561 202.152326 
L 118.800093 87.215253 
L 118.834661 87.215253 
L 118.959107 212.948076 
L 119.04207 87.215253 
L 119.069725 204.677433 
L 119.131948 218.345951 
L 119.201084 212.948076 
L 119.235652 87.215253 
L 119.270221 218.345951 
L 119.311702 204.311476 
L 119.339357 212.948076 
L 119.353184 187.111467 
L 119.443062 87.215253 
L 119.408493 223.743826 
L 119.470716 173.808907 
L 119.546766 144.788466 
L 119.581335 221.914038 
L 119.636644 87.215253 
L 119.691953 212.948076 
L 119.719607 212.948076 
L 119.761089 172.381672 
L 119.85788 221.914038 
L 119.885535 87.215253 
L 119.913189 87.215253 
L 119.961585 214.777864 
L 120.044549 208.300414 
L 120.065289 214.777864 
L 120.127512 202.920837 
L 120.134426 200.414027 
L 120.168994 212.948076 
L 120.23813 202.152326 
L 120.272699 214.777864 
L 120.376403 212.948076 
L 120.410972 212.948076 
L 120.480108 214.777864 
L 120.52159 142.24506 
L 120.563072 87.215253 
L 120.583813 221.914038 
L 120.625294 187.843382 
L 120.652949 87.215253 
L 120.722085 212.948076 
L 120.728999 212.948076 
L 120.756654 212.948076 
L 120.874186 87.215253 
L 120.82579 221.914038 
L 120.888013 158.420388 
L 120.998631 218.345951 
L 121.033199 169.856564 
L 121.109249 214.375311 
L 121.136904 220.08425 
L 121.185299 208.629776 
L 121.20604 202.152326 
L 121.26135 87.215253 
L 121.275177 212.948076 
L 121.316659 171.686352 
L 121.378881 202.152326 
L 121.441104 87.215253 
L 121.558636 127.628255 
L 140.868438 127.628255 
L 140.98597 87.215253 
L 143.011667 87.215253 
L 143.018581 212.948076 
L 143.122285 87.215253 
L 143.163767 87.215253 
L 143.295126 218.345951 
L 143.315867 211.868501 
L 143.364263 212.948076 
L 143.398831 200.414027 
L 143.467968 87.215253 
L 143.502536 212.948076 
L 143.537104 212.948076 
L 143.571672 221.914038 
L 143.60624 202.152326 
L 143.640809 200.414027 
L 143.716859 87.215253 
L 143.744513 212.948076 
L 143.751427 191.063809 
L 143.848218 212.948076 
L 143.8897 87.215253 
L 143.931182 87.215253 
L 144.069454 216.205099 
L 144.090195 218.345951 
L 144.124763 212.948076 
L 144.249209 87.215253 
L 144.276864 87.215253 
L 144.470446 230.88 
L 144.505014 212.948076 
L 144.629459 87.215253 
L 144.746991 221.914038 
L 144.753905 220.120845 
L 144.781559 212.948076 
L 144.885264 87.215253 
L 144.899091 111.047172 
L 144.988969 218.345951 
L 145.023537 212.948076 
L 145.078846 87.215253 
L 145.092673 214.777864 
L 145.134155 204.000412 
L 145.16181 218.345951 
L 145.203292 186.416147 
L 145.300083 212.948076 
L 145.362305 87.215253 
L 145.403787 212.948076 
L 145.514406 164.476987 
L 145.597369 87.215253 
L 145.611197 212.948076 
L 145.680333 218.345951 
L 145.714901 214.777864 
L 145.756383 177.047632 
L 145.784038 87.215253 
L 145.818606 221.914038 
L 145.853174 211.118288 
L 145.887742 214.777864 
L 145.936138 87.215253 
L 145.956879 218.345951 
L 145.99836 204.311476 
L 146.060583 195.016152 
L 146.095151 218.345951 
L 146.12972 87.215253 
L 146.20577 206.854881 
L 146.316388 87.215253 
L 146.267993 218.345951 
L 146.330215 146.233999 
L 146.406265 214.777864 
L 146.43392 135.804206 
L 146.50997 202.152326 
L 146.558365 87.215253 
L 146.579106 218.345951 
L 146.710466 212.948076 
L 146.717379 212.948076 
L 146.751947 200.414027 
L 146.855652 202.152326 
L 146.89022 212.948076 
L 146.924788 200.414027 
L 146.959357 89.162905 
L 146.993925 221.914038 
L 147.028493 218.345951 
L 147.063061 146.526765 
L 147.139111 213.314033 
L 147.166766 214.777864 
L 147.270471 87.215253 
L 147.235902 218.345951 
L 147.284298 133.663354 
L 147.408743 218.345951 
L 147.547016 87.215253 
L 147.560844 87.215253 
L 147.581584 220.08425 
L 147.671462 126.819946 
L 147.685289 87.215253 
L 147.719857 218.345951 
L 147.761339 211.905097 
L 147.788994 200.414027 
L 147.871957 87.215253 
L 147.892698 212.948076 
L 147.961835 218.345951 
L 147.996403 214.777864 
L 148.100108 202.152326 
L 148.065539 218.345951 
L 148.120849 207.531903 
L 148.169244 221.914038 
L 148.272949 218.345951 
L 148.314431 202.902539 
L 148.383567 87.215253 
L 148.418135 206.854881 
L 148.44579 218.345951 
L 148.480358 202.152326 
L 148.514926 212.948076 
L 148.563322 87.215253 
L 148.618631 221.914038 
L 148.653199 212.948076 
L 148.701594 87.215253 
L 148.763817 188.191042 
L 148.874436 87.215253 
L 148.82604 214.777864 
L 148.881349 102.831423 
L 148.998881 229.050212 
L 148.909004 87.215253 
L 149.005795 226.195742 
L 149.033449 214.777864 
L 149.144068 87.215253 
L 149.150981 94.176525 
L 149.171722 214.777864 
L 149.275427 212.948076 
L 149.330736 87.215253 
L 149.379131 221.914038 
L 149.420613 196.443386 
L 149.482836 87.215253 
L 149.524318 204.000412 
L 149.551972 218.345951 
L 149.586541 202.152326 
L 149.621109 214.777864 
L 149.738641 87.215253 
L 149.780123 87.215253 
L 149.79395 212.948076 
L 149.897655 202.152326 
L 149.925309 202.152326 
L 150.042841 141.380943 
L 156.216723 141.380943 
L 156.334255 87.215253 
L 169.933389 87.215253 
L 169.974871 141.915699 
L 170.126971 212.948076 
L 170.154626 212.948076 
L 170.251416 145.465488 
L 170.382776 87.215253 
L 170.444998 87.215253 
L 170.604012 212.948076 
L 170.742285 200.414027 
L 170.887472 212.948076 
L 170.915126 212.948076 
L 171.053399 200.414027 
L 171.191672 212.948076 
L 171.246981 204.695731 
L 171.295376 212.948076 
L 171.364513 200.414027 
L 171.399081 211.118288 
L 171.419822 187.459126 
L 171.613404 87.215253 
L 171.647972 87.215253 
L 171.786245 212.948076 
L 171.8139 212.948076 
L 171.883036 148.356553 
L 171.993654 87.215253 
L 172.000568 93.462907 
L 172.055877 212.948076 
L 172.125013 200.414027 
L 172.242545 87.215253 
L 172.256373 159.152303 
L 172.332423 212.948076 
L 172.366991 211.118288 
L 172.449955 87.215253 
L 172.477609 204.311476 
L 172.539832 212.948076 
L 172.622796 87.215253 
L 172.65045 204.311476 
L 172.678105 212.948076 
L 172.691932 185.684232 
L 172.767982 87.215253 
L 172.781809 212.948076 
L 172.788723 210.441266 
L 172.830205 159.499963 
L 172.906255 87.215253 
L 172.920082 212.948076 
L 172.954651 211.118288 
L 172.968478 215.436588 
L 172.989219 221.914038 
L 173.044528 204.695731 
L 173.058355 200.414027 
L 173.120578 87.215253 
L 173.16206 212.948076 
L 173.175887 91.669715 
L 173.224283 87.215253 
L 173.231196 112.492705 
L 173.300333 221.914038 
L 173.376383 215.473183 
L 173.438605 218.345951 
L 173.54231 187.788488 
L 173.576878 221.914038 
L 173.611446 168.118265 
L 173.666756 206.470626 
L 173.680583 202.152326 
L 173.728978 87.215253 
L 173.749719 221.914038 
L 173.784288 214.777864 
L 173.839597 206.470626 
L 173.853424 202.152326 
L 173.901819 87.215253 
L 173.92256 221.914038 
L 173.964042 175.620397 
L 174.060833 212.948076 
L 174.067747 169.527202 
L 174.12997 218.345951 
L 174.185279 87.215253 
L 174.268242 212.948076 
L 174.309724 204.311476 
L 174.337379 212.948076 
L 174.406515 218.345951 
L 174.468738 87.215253 
L 174.496393 87.215253 
L 174.503306 87.351415 
L 174.544788 214.777864 
L 174.627752 213.679991 
L 174.648493 214.777864 
L 174.655406 211.905097 
L 174.683061 200.414027 
L 174.717629 212.948076 
L 174.786766 202.152326 
L 174.855902 212.948076 
L 174.876643 200.048069 
L 174.994175 141.220379 
L 175.070225 148.393149 
L 175.09788 141.220379 
L 175.11862 160.597836 
L 175.270721 214.777864 
L 175.277634 212.252756 
L 175.374425 214.777864 
L 175.408993 200.414027 
L 175.47813 214.777864 
L 175.512698 202.152326 
L 175.55418 124.660796 
L 175.595662 87.215253 
L 175.616403 221.914038 
L 175.644057 219.059568 
L 175.650971 218.345951 
L 175.70628 87.215253 
L 175.761589 204.311476 
L 175.823812 212.948076 
L 175.85838 200.414027 
L 175.948257 87.215253 
L 175.955171 132.583779 
L 175.962085 221.914038 
L 175.989739 87.215253 
L 176.065789 212.948076 
L 176.204062 200.414027 
L 176.23863 212.948076 
L 176.273199 193.186363 
L 176.342335 221.914038 
L 176.390731 87.215253 
L 176.411471 214.777864 
L 176.529003 174.21146 
L 176.549744 218.345951 
L 176.570485 87.215253 
L 176.59814 87.215253 
L 176.605053 87.215253 
L 176.688017 212.948076 
L 176.715672 87.215253 
L 176.777895 87.215253 
L 176.819376 202.152326 
L 176.90234 147.100403 
L 413.542477 147.100403 
L 413.542477 147.100403 
" style="fill:none;stroke:#e41a1c;stroke-linecap:square;stroke-width:2;"/>
   </g>
   <g id="line2d_13">
    <path clip-path="url(#p8c31a237b5)" d="M 65.7932 230.88 
L 67.169015 230.88 
L 67.286547 118.821498 
L 67.929515 118.821498 
L 68.047047 87.215253 
L 68.551743 87.215253 
L 68.669275 205.020346 
L 69.173971 205.020346 
L 69.291503 225.13341 
L 70.556699 225.13341 
L 70.674231 229.443353 
L 71.178927 229.443353 
L 71.296459 230.88 
L 71.801155 230.88 
L 71.918687 229.443353 
L 83.070391 229.443353 
L 83.187923 230.88 
L 83.761755 230.88 
L 83.879287 229.443353 
L 88.393896 229.443353 
L 88.511428 228.006705 
L 89.08526 228.006705 
L 89.202792 206.456993 
L 89.707488 206.456993 
L 89.825019 192.090518 
L 90.467988 192.090518 
L 90.58552 177.724044 
L 91.159352 177.724044 
L 91.276884 123.13144 
L 91.78158 123.13144 
L 91.899112 130.314677 
L 92.334672 130.314677 
L 92.452203 223.696763 
L 93.026036 223.696763 
L 93.143568 229.443353 
L 93.786536 229.443353 
L 93.904068 228.006705 
L 94.408764 228.006705 
L 94.526296 222.260115 
L 95.100128 222.260115 
L 95.21766 219.38682 
L 95.65322 219.38682 
L 95.770752 217.950173 
L 96.344584 217.950173 
L 96.462116 216.513525 
L 97.035948 216.513525 
L 97.15348 215.076878 
L 97.727312 215.076878 
L 97.844844 209.330288 
L 98.34954 209.330288 
L 98.467072 203.583698 
L 99.179177 203.583698 
L 99.296709 202.147051 
L 99.663132 202.147051 
L 99.780664 200.710403 
L 101.04586 200.710403 
L 101.163392 199.273756 
L 101.668088 199.273756 
L 101.78562 197.837108 
L 102.359452 197.837108 
L 102.476984 196.400461 
L 103.050817 196.400461 
L 103.168348 194.963813 
L 103.673044 194.963813 
L 103.790576 193.527166 
L 104.295272 193.527166 
L 104.412804 190.653871 
L 104.986636 190.653871 
L 105.104168 187.780576 
L 105.678001 187.780576 
L 105.795532 183.470634 
L 106.369365 183.470634 
L 106.486897 179.160691 
L 106.991592 179.160691 
L 107.109124 169.104159 
L 107.682957 169.104159 
L 107.800489 157.610979 
L 108.305184 157.610979 
L 108.422716 141.807857 
L 108.996549 141.807857 
L 109.114081 120.258145 
L 109.618776 120.258145 
L 109.736308 87.215253 
L 122.201605 87.215253 
L 122.319137 164.794217 
L 122.892969 164.794217 
L 123.010501 222.260115 
L 123.722606 222.260115 
L 123.840138 213.64023 
L 124.967062 213.64023 
L 125.084594 215.076878 
L 125.589289 215.076878 
L 125.706821 216.513525 
L 127.041154 216.513525 
L 127.158686 215.076878 
L 127.594246 215.076878 
L 127.711777 206.456993 
L 128.216473 206.456993 
L 128.334005 196.400461 
L 128.907838 196.400461 
L 129.025369 192.090518 
L 129.599202 192.090518 
L 129.716734 194.963813 
L 130.221429 194.963813 
L 130.338961 193.527166 
L 130.912794 193.527166 
L 131.030326 192.090518 
L 132.226386 192.090518 
L 132.343918 189.217223 
L 133.539978 189.217223 
L 133.65751 184.907281 
L 134.231342 184.907281 
L 134.348874 182.033986 
L 134.85357 182.033986 
L 134.971102 180.597339 
L 135.544934 180.597339 
L 135.662466 176.287396 
L 136.167162 176.287396 
L 136.284694 171.977454 
L 136.858526 171.977454 
L 136.976058 161.920922 
L 137.480754 161.920922 
L 137.598285 150.427742 
L 138.241254 150.427742 
L 138.358786 137.497915 
L 138.863482 137.497915 
L 138.981014 118.821498 
L 139.48571 118.821498 
L 139.603242 90.088548 
L 140.177074 90.088548 
L 140.294606 87.215253 
L 152.206811 87.215253 
L 152.324343 128.87803 
L 152.759902 128.87803 
L 152.877434 217.950173 
L 153.451267 217.950173 
L 153.568798 215.076878 
L 154.211767 215.076878 
L 154.329299 212.203583 
L 154.764858 212.203583 
L 154.88239 215.076878 
L 155.456223 215.076878 
L 155.573755 216.513525 
L 156.769815 216.513525 
L 156.887347 215.076878 
L 157.392042 215.076878 
L 157.509574 205.020346 
L 158.152543 205.020346 
L 158.270075 183.470634 
L 158.843907 183.470634 
L 158.961439 177.724044 
L 159.396999 177.724044 
L 159.514531 179.160691 
L 162.093319 179.160691 
L 162.210851 177.724044 
L 162.715547 177.724044 
L 162.833079 176.287396 
L 163.476047 176.287396 
L 163.593579 173.414101 
L 164.029139 173.414101 
L 164.146671 170.540806 
L 164.789639 170.540806 
L 164.907171 169.104159 
L 165.411867 169.104159 
L 165.529399 166.230864 
L 166.103231 166.230864 
L 166.220763 161.920922 
L 166.656323 161.920922 
L 166.773855 154.737684 
L 167.416823 154.737684 
L 167.534355 143.244505 
L 168.039051 143.244505 
L 168.156583 131.751325 
L 168.730415 131.751325 
L 168.847947 115.948203 
L 169.421779 115.948203 
L 169.539311 90.088548 
L 170.113144 90.088548 
L 170.230676 87.215253 
L 182.695972 87.215253 
L 182.813504 202.147051 
L 183.3182 202.147051 
L 183.435732 219.38682 
L 184.009564 219.38682 
L 184.127096 212.203583 
L 184.631792 212.203583 
L 184.749324 213.64023 
L 185.323156 213.64023 
L 185.440688 215.076878 
L 185.945384 215.076878 
L 186.062916 216.513525 
L 186.636748 216.513525 
L 186.75428 215.076878 
L 187.328112 215.076878 
L 187.445644 203.583698 
L 187.881204 203.583698 
L 187.998735 179.160691 
L 188.641704 179.160691 
L 188.759236 170.540806 
L 189.955296 170.540806 
L 190.072828 171.977454 
L 190.577524 171.977454 
L 190.695056 173.414101 
L 192.651616 173.414101 
L 192.769148 171.977454 
L 193.273844 171.977454 
L 193.391376 170.540806 
L 193.896072 170.540806 
L 194.013604 169.104159 
L 194.725709 169.104159 
L 194.843241 167.667511 
L 195.209664 167.667511 
L 195.327196 164.794217 
L 195.970165 164.794217 
L 196.087697 161.920922 
L 196.592392 161.920922 
L 196.709924 156.174332 
L 197.21462 156.174332 
L 197.332152 146.117799 
L 197.975121 146.117799 
L 198.092653 134.62462 
L 198.597349 134.62462 
L 198.71488 120.258145 
L 199.219576 120.258145 
L 199.337108 100.145081 
L 199.910941 100.145081 
L 200.028472 87.215253 
L 212.562905 87.215253 
L 212.680437 174.850749 
L 213.185133 174.850749 
L 213.302665 223.696763 
L 213.876497 223.696763 
L 213.994029 213.64023 
L 215.190089 213.64023 
L 215.307621 215.076878 
L 215.881453 215.076878 
L 215.998985 216.513525 
L 217.195045 216.513525 
L 217.312577 209.330288 
L 217.88641 209.330288 
L 218.003942 187.780576 
L 218.577774 187.780576 
L 218.695306 171.977454 
L 219.200002 171.977454 
L 219.317534 170.540806 
L 219.891366 170.540806 
L 220.008898 171.977454 
L 220.513594 171.977454 
L 220.631126 173.414101 
L 221.204958 173.414101 
L 221.32249 174.850749 
L 221.827186 174.850749 
L 221.944717 173.414101 
L 223.140778 173.414101 
L 223.258309 171.977454 
L 223.832142 171.977454 
L 223.949674 169.104159 
L 224.45437 169.104159 
L 224.571901 167.667511 
L 225.145734 167.667511 
L 225.263266 166.230864 
L 225.837098 166.230864 
L 225.95463 163.357569 
L 226.459326 163.357569 
L 226.576858 159.047627 
L 227.081553 159.047627 
L 227.199085 148.991094 
L 227.772918 148.991094 
L 227.89045 138.934562 
L 228.464282 138.934562 
L 228.581814 126.004735 
L 229.155646 126.004735 
L 229.273178 108.764965 
L 229.777874 108.764965 
L 229.895406 87.215253 
L 242.429839 87.215253 
L 242.547371 134.62462 
L 243.052066 134.62462 
L 243.169598 217.950173 
L 243.743431 217.950173 
L 243.860963 215.076878 
L 244.365658 215.076878 
L 244.48319 212.203583 
L 245.057023 212.203583 
L 245.174554 215.076878 
L 245.67925 215.076878 
L 245.796782 216.513525 
L 246.992842 216.513525 
L 247.110374 213.64023 
L 247.684207 213.64023 
L 247.801738 193.527166 
L 248.375571 193.527166 
L 248.493103 174.850749 
L 248.997799 174.850749 
L 249.11533 170.540806 
L 249.689163 170.540806 
L 249.806695 171.977454 
L 250.380527 171.977454 
L 250.498059 173.414101 
L 253.007711 173.414101 
L 253.125243 171.977454 
L 253.699075 171.977454 
L 253.816607 170.540806 
L 254.321303 170.540806 
L 254.438835 169.104159 
L 255.012667 169.104159 
L 255.130199 167.667511 
L 255.634895 167.667511 
L 255.752427 164.794217 
L 256.326259 164.794217 
L 256.443791 160.484274 
L 257.017623 160.484274 
L 257.135155 153.301037 
L 257.778124 153.301037 
L 257.895656 143.244505 
L 258.331215 143.244505 
L 258.448747 130.314677 
L 259.022579 130.314677 
L 259.140111 114.511555 
L 259.644807 114.511555 
L 259.762339 90.088548 
L 260.336171 90.088548 
L 260.453703 87.215253 
L 272.919 87.215253 
L 273.036532 171.977454 
L 273.610364 171.977454 
L 273.727896 87.215253 
L 274.232592 87.215253 
L 274.350124 94.398491 
L 274.923956 94.398491 
L 275.041488 213.64023 
L 275.477047 213.64023 
L 275.594579 209.330288 
L 276.237548 209.330288 
L 276.35508 216.513525 
L 276.928912 216.513525 
L 277.046444 223.696763 
L 277.55114 223.696763 
L 277.668672 226.570058 
L 278.242504 226.570058 
L 278.360036 228.006705 
L 279.072141 228.006705 
L 279.189673 229.443353 
L 284.810464 229.443353 
L 284.927996 199.273756 
L 285.570965 199.273756 
L 285.688496 87.215253 
L 286.193192 87.215253 
L 286.310724 100.145081 
L 286.884556 100.145081 
L 287.002088 217.950173 
L 288.198148 217.950173 
L 288.31568 225.13341 
L 288.820376 225.13341 
L 288.937908 230.88 
L 289.51174 230.88 
L 289.629272 229.443353 
L 290.133968 229.443353 
L 290.2515 226.570058 
L 308.109437 226.570058 
L 308.226969 225.13341 
L 309.423029 225.13341 
L 309.540561 223.696763 
L 310.114393 223.696763 
L 310.231925 222.260115 
L 310.736621 222.260115 
L 310.854153 219.38682 
L 311.427985 219.38682 
L 311.545517 217.950173 
L 312.11935 217.950173 
L 312.236882 215.076878 
L 312.741577 215.076878 
L 312.859109 212.203583 
L 313.432942 212.203583 
L 313.550474 209.330288 
L 314.055169 209.330288 
L 314.172701 207.893641 
L 320.692266 207.893641 
L 320.809798 209.330288 
L 322.074994 209.330288 
L 322.192526 207.893641 
L 322.697222 207.893641 
L 322.814754 209.330288 
L 325.324406 209.330288 
L 325.441938 207.893641 
L 326.01577 207.893641 
L 326.133302 209.330288 
L 342.608511 209.330288 
L 342.726043 207.893641 
L 343.230739 207.893641 
L 343.34827 209.330288 
L 344.613467 209.330288 
L 344.730999 207.893641 
L 345.235695 207.893641 
L 345.353227 209.330288 
L 345.927059 209.330288 
L 346.044591 207.893641 
L 354.638248 207.893641 
L 354.75578 206.456993 
L 356.574068 206.456993 
L 356.691599 207.893641 
L 357.265432 207.893641 
L 357.382964 206.456993 
L 358.579024 206.456993 
L 358.696556 205.020346 
L 361.067935 205.020346 
L 361.185467 203.583698 
L 362.588936 203.583698 
L 362.706468 202.147051 
L 364.524756 202.147051 
L 364.642288 200.710403 
L 366.529712 200.710403 
L 366.647244 199.273756 
L 367.774168 199.273756 
L 367.891699 196.400461 
L 369.156896 196.400461 
L 369.274428 194.963813 
L 370.539624 194.963813 
L 370.657156 193.527166 
L 371.161852 193.527166 
L 371.279384 192.090518 
L 371.78408 192.090518 
L 371.901612 190.653871 
L 372.475444 190.653871 
L 372.592976 189.217223 
L 373.166808 189.217223 
L 373.28434 187.780576 
L 373.789036 187.780576 
L 373.906568 184.907281 
L 374.411264 184.907281 
L 374.528796 183.470634 
L 375.310037 183.470634 
L 375.427569 182.033986 
L 375.793992 182.033986 
L 375.911524 180.597339 
L 376.485356 180.597339 
L 376.602888 177.724044 
L 377.176721 177.724044 
L 377.294253 173.414101 
L 377.729812 173.414101 
L 377.847344 171.977454 
L 378.490313 171.977454 
L 378.607844 167.667511 
L 379.11254 167.667511 
L 379.230072 163.357569 
L 379.803905 163.357569 
L 379.921436 159.047627 
L 380.426132 159.047627 
L 380.543664 154.737684 
L 381.117497 154.737684 
L 381.235028 148.991094 
L 381.739724 148.991094 
L 381.857256 143.244505 
L 382.569361 143.244505 
L 382.686893 134.62462 
L 383.122453 134.62462 
L 383.239985 126.004735 
L 383.74468 126.004735 
L 383.862212 115.948203 
L 384.436045 115.948203 
L 384.553577 104.455023 
L 385.127409 104.455023 
L 385.244941 91.525196 
L 385.749637 91.525196 
L 385.867169 87.215253 
L 391.142277 87.215253 
L 391.259809 206.456993 
L 391.695369 206.456993 
L 391.812901 228.006705 
L 392.386733 228.006705 
L 392.504265 217.950173 
L 393.078097 217.950173 
L 393.195629 209.330288 
L 393.769461 209.330288 
L 393.886993 203.583698 
L 394.391689 203.583698 
L 394.509221 199.273756 
L 395.083053 199.273756 
L 395.200585 197.837108 
L 395.705281 197.837108 
L 395.822813 199.273756 
L 396.396645 199.273756 
L 396.514177 200.710403 
L 397.018873 200.710403 
L 397.136405 202.147051 
L 399.715193 202.147051 
L 399.832725 203.583698 
L 401.72015 203.583698 
L 401.837681 87.215253 
L 407.665882 87.215253 
L 407.783414 171.977454 
L 408.288109 171.977454 
L 408.405641 87.215253 
L 408.979474 87.215253 
L 409.097006 104.455023 
L 409.601701 104.455023 
L 409.719233 215.076878 
L 410.293066 215.076878 
L 410.410598 209.330288 
L 410.98443 209.330288 
L 411.101962 216.513525 
L 411.606658 216.513525 
L 411.72419 223.696763 
L 412.298022 223.696763 
L 412.415554 228.006705 
L 412.989386 228.006705 
L 413.106918 229.443353 
L 413.542477 229.443353 
L 413.542477 229.443353 
" style="fill:none;stroke:#377eb8;stroke-dasharray:7.4,3.2;stroke-dashoffset:0;stroke-linecap:round;stroke-width:2;"/>
   </g>
   <g id="patch_3">
    <path d="M 65.7932 230.88 
L 65.7932 15.38288 
" style="fill:none;stroke:#000000;stroke-linecap:square;stroke-linejoin:miter;stroke-width:0.8;"/>
   </g>
   <g id="patch_4">
    <path d="M 413.542477 230.88 
L 413.542477 15.38288 
" style="fill:none;"/>
   </g>
   <g id="patch_5">
    <path d="M 65.7932 230.88 
L 413.542477 230.88 
" style="fill:none;stroke:#000000;stroke-linecap:square;stroke-linejoin:miter;stroke-width:0.8;"/>
   </g>
   <g id="patch_6">
    <path d="M 65.7932 15.38288 
L 413.542477 15.38288 
" style="fill:none;"/>
   </g>
   <g id="legend_1">
    <g id="patch_7">
     <path d="M 237.255487 68.05458 
L 408.742477 68.05458 
Q 411.942477 68.05458 411.942477 64.85458 
L 411.942477 20.18288 
Q 411.942477 16.98288 408.742477 16.98288 
L 237.255487 16.98288 
Q 234.055487 16.98288 234.055487 20.18288 
L 234.055487 64.85458 
Q 234.055487 68.05458 237.255487 68.05458 
z
" style="fill:#ffffff;stroke:#000000;stroke-linejoin:miter;"/>
    </g>
    <g id="line2d_14">
     <path d="M 240.455487 29.63884 
L 272.455487 29.63884 
" style="fill:none;stroke:#e41a1c;stroke-linecap:square;stroke-width:2;"/>
    </g>
    <g id="line2d_15"/>
    <g id="text_14">
     <!-- Spindle Current -->
     <g transform="translate(285.255487 35.23884)scale(0.16 -0.16)">
      <use transform="translate(0 -1.570628)scale(0.996264)" xlink:href="#Century_Schoolbook_L_Roman-83"/>
      <use transform="translate(62.763979 -1.570628)scale(0.996264)" xlink:href="#Century_Schoolbook_L_Roman-112"/>
      <use transform="translate(119.949466 -1.570628)scale(0.996264)" xlink:href="#Century_Schoolbook_L_Roman-105"/>
      <use transform="translate(151.330779 -1.570628)scale(0.996264)" xlink:href="#Century_Schoolbook_L_Roman-110"/>
      <use transform="translate(212.20241 -1.570628)scale(0.996264)" xlink:href="#Century_Schoolbook_L_Roman-100"/>
      <use transform="translate(269.387897 -1.570628)scale(0.996264)" xlink:href="#Century_Schoolbook_L_Roman-108"/>
      <use transform="translate(300.76921 -1.570628)scale(0.996264)" xlink:href="#Century_Schoolbook_L_Roman-101"/>
      <use transform="translate(378.27758 -1.570628)scale(0.996264)" xlink:href="#Century_Schoolbook_L_Roman-67"/>
      <use transform="translate(450.207565 -1.570628)scale(0.996264)" xlink:href="#Century_Schoolbook_L_Roman-117"/>
      <use transform="translate(511.079196 -1.570628)scale(0.996264)" xlink:href="#Century_Schoolbook_L_Roman-114"/>
      <use transform="translate(555.312765 -1.570628)scale(0.996264)" xlink:href="#Century_Schoolbook_L_Roman-114"/>
      <use transform="translate(599.546333 -1.570628)scale(0.996264)" xlink:href="#Century_Schoolbook_L_Roman-101"/>
      <use transform="translate(649.359534 -1.570628)scale(0.996264)" xlink:href="#Century_Schoolbook_L_Roman-110"/>
      <use transform="translate(710.231164 -1.570628)scale(0.996264)" xlink:href="#Century_Schoolbook_L_Roman-116"/>
     </g>
    </g>
    <g id="line2d_16">
     <path d="M 240.455487 52.77469 
L 272.455487 52.77469 
" style="fill:none;stroke:#377eb8;stroke-dasharray:7.4,3.2;stroke-dashoffset:0;stroke-linecap:round;stroke-width:2;"/>
    </g>
    <g id="line2d_17"/>
    <g id="text_15">
     <!-- Spindle Load -->
     <defs>
      <path d="M 64.59375 27.328125 
L 60.203125 27.328125 
C 59.203125 20.546875 56.796875 13.765625 54.203125 10.484375 
C 51.09375 6.59375 45.296875 4.6875 36.90625 4.6875 
L 32.703125 4.6875 
C 29.703125 4.6875 27.203125 5.296875 26.296875 6.1875 
C 25.59375 6.78125 25.5 7.390625 25.5 9.484375 
L 25.5 59.734375 
L 25.5 62.609375 
C 25.5 66.8125 26.40625 67.3125 34.5 67.3125 
L 36.296875 67.3125 
L 36.296875 72 
L 3.5 72 
L 3.5 67.3125 
L 5.296875 67.3125 
C 13.40625 67.3125 14.296875 66.8125 14.296875 62.609375 
L 14.296875 59.734375 
L 14.296875 12.28125 
L 14.296875 9.375 
C 14.296875 5.1875 13.40625 4.6875 5.296875 4.6875 
L 3.5 4.6875 
L 3.5 0 
L 62.5 0 
z
" id="Century_Schoolbook_L_Roman-76"/>
      <path d="M 45.203125 32.578125 
C 45.203125 38.796875 44.09375 41.96875 41.203125 44.34375 
C 37.90625 46.90625 33 48.28125 26.59375 48.28125 
C 15.40625 48.28125 7.09375 43.046875 7.09375 35.921875 
C 7.09375 32.15625 9.40625 29.78125 12.90625 29.78125 
C 16 29.78125 18.296875 31.859375 18.296875 34.8125 
C 18.296875 36.109375 17.796875 37.484375 16.796875 38.875 
C 16.203125 39.546875 16.09375 39.84375 16.09375 40.15625 
C 16.09375 42.21875 20.203125 44 25 44 
C 28.09375 44 31.59375 43.015625 33.203125 41.53125 
C 35.09375 39.953125 35.796875 37.578125 35.796875 33.125 
L 35.796875 29.28125 
C 25.296875 27.484375 22.09375 26.6875 17.203125 24.8125 
C 8.59375 21.609375 4.40625 16.9375 4.40625 10.65625 
C 4.40625 3.578125 10.09375 -1 18.90625 -1 
C 25.796875 -1 32 1.859375 36.296875 7.0625 
C 37.90625 1.984375 40.40625 0 45.09375 0 
C 49.59375 0 54.296875 2.890625 54.296875 5.78125 
C 54.296875 6.46875 53.796875 6.96875 53.296875 6.96875 
C 52.90625 6.96875 52.5 6.875 51.796875 6.578125 
C 50.203125 6 49.796875 5.890625 49 5.890625 
C 46.203125 5.890625 45.203125 7.78125 45.203125 12.71875 
z
M 35.796875 20.46875 
C 35.796875 14.46875 35.5 13.078125 33.796875 10.484375 
C 31.296875 6.78125 26.703125 4.296875 22.40625 4.296875 
C 17.90625 4.296875 14.5 7.59375 14.5 12.078125 
C 14.5 16.265625 16.59375 19.265625 21 21.359375 
C 24.09375 22.75 28 23.75 35.796875 25.046875 
z
" id="Century_Schoolbook_L_Roman-97"/>
     </defs>
     <g transform="translate(285.255487 58.37469)scale(0.16 -0.16)">
      <use transform="translate(0 -1.570628)scale(0.996264)" xlink:href="#Century_Schoolbook_L_Roman-83"/>
      <use transform="translate(62.763979 -1.570628)scale(0.996264)" xlink:href="#Century_Schoolbook_L_Roman-112"/>
      <use transform="translate(119.949466 -1.570628)scale(0.996264)" xlink:href="#Century_Schoolbook_L_Roman-105"/>
      <use transform="translate(151.330779 -1.570628)scale(0.996264)" xlink:href="#Century_Schoolbook_L_Roman-110"/>
      <use transform="translate(212.20241 -1.570628)scale(0.996264)" xlink:href="#Century_Schoolbook_L_Roman-100"/>
      <use transform="translate(269.387897 -1.570628)scale(0.996264)" xlink:href="#Century_Schoolbook_L_Roman-108"/>
      <use transform="translate(300.76921 -1.570628)scale(0.996264)" xlink:href="#Century_Schoolbook_L_Roman-101"/>
      <use transform="translate(378.27758 -1.570628)scale(0.996264)" xlink:href="#Century_Schoolbook_L_Roman-76"/>
      <use transform="translate(444.727611 -1.570628)scale(0.996264)" xlink:href="#Century_Schoolbook_L_Roman-111"/>
      <use transform="translate(494.540812 -1.570628)scale(0.996264)" xlink:href="#Century_Schoolbook_L_Roman-97"/>
      <use transform="translate(549.932489 -1.570628)scale(0.996264)" xlink:href="#Century_Schoolbook_L_Roman-100"/>
     </g>
    </g>
   </g>
  </g>
 </g>
 <defs>
  <clipPath id="p8c31a237b5">
   <rect height="215.49712" width="347.749277" x="65.7932" y="15.38288"/>
  </clipPath>
 </defs>
</svg>
