<?xml version="1.0" encoding="utf-8" standalone="no"?>
<!DOCTYPE svg PUBLIC "-//W3C//DTD SVG 1.1//EN"
  "http://www.w3.org/Graphics/SVG/1.1/DTD/svg11.dtd">
<!-- Created with matplotlib (https://matplotlib.org/) -->
<svg height="288pt" version="1.1" viewBox="0 0 432 288" width="432pt" xmlns="http://www.w3.org/2000/svg" xmlns:xlink="http://www.w3.org/1999/xlink">
 <defs>
  <style type="text/css">
*{stroke-linecap:butt;stroke-linejoin:round;}
  </style>
 </defs>
 <g id="figure_1">
  <g id="patch_1">
   <path d="M 0 288 
L 432 288 
L 432 0 
L 0 0 
z
" style="fill:#ffffff;"/>
  </g>
  <g id="axes_1">
   <g id="patch_2">
    <path d="M 79.79325 230.88 
L 413.542477 230.88 
L 413.542477 14.52 
L 79.79325 14.52 
z
" style="fill:#ffffff;"/>
   </g>
   <g id="matplotlib.axis_1">
    <g id="xtick_1">
     <g id="line2d_1">
      <defs>
       <path d="M 0 0 
L 0 3.5 
" id="mca4a5ec8ae" style="stroke:#000000;stroke-width:0.8;"/>
      </defs>
      <g>
       <use style="stroke:#000000;stroke-width:0.8;" x="146.146304" xlink:href="#mca4a5ec8ae" y="230.88"/>
      </g>
     </g>
     <g id="text_1">
      <!-- $10$ -->
      <defs>
       <path d="M 26.59375 63.40625 
C 26.59375 65.5 26.5 65.5 25.09375 65.5 
C 21.203125 61.1875 15.296875 59.796875 9.703125 59.796875 
C 9.40625 59.796875 8.90625 59.796875 8.796875 59.5 
C 8.703125 59.296875 8.703125 59.09375 8.703125 57 
C 11.796875 57 17 57.59375 21 59.984375 
L 21 7.203125 
C 21 3.6875 20.796875 2.5 12.203125 2.5 
L 9.203125 2.5 
L 9.203125 0 
C 14 0 19 0 23.796875 0 
C 28.59375 0 33.59375 0 38.40625 0 
L 38.40625 2.5 
L 35.40625 2.5 
C 26.796875 2.5 26.59375 3.59375 26.59375 7.15625 
z
" id="CMR17-49"/>
       <path d="M 42 31.640625 
C 42 37.75 41.90625 48.125 37.703125 56.109375 
C 34 63.109375 28.09375 65.59375 22.90625 65.59375 
C 18.09375 65.59375 12 63.40625 8.203125 56.203125 
C 4.203125 48.71875 3.796875 39.4375 3.796875 31.640625 
C 3.796875 25.953125 3.90625 17.28125 7 9.671875 
C 11.296875 -0.609375 19 -2 22.90625 -2 
C 27.5 -2 34.5 -0.109375 38.59375 9.375 
C 41.59375 16.28125 42 24.359375 42 31.640625 
z
M 22.90625 -0.40625 
C 16.5 -0.40625 12.703125 5.078125 11.296875 12.6875 
C 10.203125 18.5625 10.203125 27.15625 10.203125 32.75 
C 10.203125 40.4375 10.203125 46.828125 11.5 52.921875 
C 13.40625 61.390625 19 64 22.90625 64 
C 27 64 32.296875 61.296875 34.203125 53.125 
C 35.5 47.4375 35.59375 40.734375 35.59375 32.75 
C 35.59375 26.25 35.59375 18.265625 34.40625 12.375 
C 32.296875 1.484375 26.40625 -0.40625 22.90625 -0.40625 
z
" id="CMR17-48"/>
      </defs>
      <g transform="translate(137.891179 251.21795)scale(0.18 -0.18)">
       <use transform="scale(0.996264)" xlink:href="#CMR17-49"/>
       <use transform="translate(45.690477 0)scale(0.996264)" xlink:href="#CMR17-48"/>
      </g>
     </g>
    </g>
    <g id="xtick_2">
     <g id="line2d_2">
      <g>
       <use style="stroke:#000000;stroke-width:0.8;" x="212.499358" xlink:href="#mca4a5ec8ae" y="230.88"/>
      </g>
     </g>
     <g id="text_2">
      <!-- $20$ -->
      <defs>
       <path d="M 41.703125 15.453125 
L 39.90625 15.453125 
C 38.90625 8.375 38.09375 7.171875 37.703125 6.5625 
C 37.203125 5.765625 30 5.765625 28.59375 5.765625 
L 9.40625 5.765625 
C 13 9.671875 20 16.75 28.5 24.953125 
C 34.59375 30.734375 41.703125 37.53125 41.703125 47.421875 
C 41.703125 59.21875 32.296875 66 21.796875 66 
C 10.796875 66 4.09375 56.3125 4.09375 47.34375 
C 4.09375 43.4375 7 42.9375 8.203125 42.9375 
C 9.203125 42.9375 12.203125 43.546875 12.203125 47.03125 
C 12.203125 50.109375 9.59375 51 8.203125 51 
C 7.59375 51 7 50.90625 6.59375 50.703125 
C 8.5 59.21875 14.296875 63.40625 20.40625 63.40625 
C 29.09375 63.40625 34.796875 56.515625 34.796875 47.421875 
C 34.796875 38.734375 29.703125 31.25 24 24.75 
L 4.09375 2.28125 
L 4.09375 0 
L 39.296875 0 
z
" id="CMR17-50"/>
      </defs>
      <g transform="translate(204.244233 251.21795)scale(0.18 -0.18)">
       <use transform="scale(0.996264)" xlink:href="#CMR17-50"/>
       <use transform="translate(45.690477 0)scale(0.996264)" xlink:href="#CMR17-48"/>
      </g>
     </g>
    </g>
    <g id="xtick_3">
     <g id="line2d_3">
      <g>
       <use style="stroke:#000000;stroke-width:0.8;" x="278.852413" xlink:href="#mca4a5ec8ae" y="230.88"/>
      </g>
     </g>
     <g id="text_3">
      <!-- $30$ -->
      <defs>
       <path d="M 22.09375 33.703125 
C 31 33.703125 34.90625 25.96875 34.90625 17.03125 
C 34.90625 5 28.5 0.390625 22.703125 0.390625 
C 17.40625 0.390625 8.796875 3.03125 6.09375 10.828125 
C 6.59375 10.625 7.09375 10.625 7.59375 10.625 
C 10 10.625 11.796875 12.21875 11.796875 14.8125 
C 11.796875 17.703125 9.59375 19 7.59375 19 
C 5.90625 19 3.296875 18.203125 3.296875 14.46875 
C 3.296875 5.234375 12.296875 -2 22.90625 -2 
C 34 -2 42.5 6.71875 42.5 16.953125 
C 42.5 26.671875 34.5 33.703125 25 34.796875 
C 32.59375 36.375 39.90625 43.0625 39.90625 52.015625 
C 39.90625 59.6875 32 65.296875 23 65.296875 
C 13.90625 65.296875 5.90625 59.828125 5.90625 52.015625 
C 5.90625 48.59375 8.5 48 9.796875 48 
C 11.90625 48 13.703125 49.296875 13.703125 51.890625 
C 13.703125 54.46875 11.90625 55.765625 9.796875 55.765625 
C 9.40625 55.765625 8.90625 55.765625 8.5 55.578125 
C 11.40625 61.859375 19.296875 63 22.796875 63 
C 26.296875 63 32.90625 61.328125 32.90625 51.875 
C 32.90625 49.109375 32.5 44.1875 29.09375 39.84375 
C 26.09375 36 22.703125 36 19.40625 35.6875 
C 18.90625 35.6875 16.59375 35.453125 16.203125 35.453125 
C 15.5 35.359375 15.09375 35.265625 15.09375 34.5 
C 15.09375 33.796875 15.203125 33.703125 17.203125 33.703125 
z
" id="CMR17-51"/>
      </defs>
      <g transform="translate(270.597288 251.21795)scale(0.18 -0.18)">
       <use transform="scale(0.996264)" xlink:href="#CMR17-51"/>
       <use transform="translate(45.690477 0)scale(0.996264)" xlink:href="#CMR17-48"/>
      </g>
     </g>
    </g>
    <g id="xtick_4">
     <g id="line2d_4">
      <g>
       <use style="stroke:#000000;stroke-width:0.8;" x="345.205467" xlink:href="#mca4a5ec8ae" y="230.88"/>
      </g>
     </g>
     <g id="text_4">
      <!-- $40$ -->
      <defs>
       <path d="M 33.59375 64.40625 
C 33.59375 66.5 33.5 66.5 31.703125 66.5 
L 2 19.59375 
L 2 17 
L 27.796875 17 
L 27.796875 7.140625 
C 27.796875 3.5 27.59375 2.5 20.59375 2.5 
L 18.703125 2.5 
L 18.703125 0 
C 21.90625 0 27.296875 0 30.703125 0 
C 34.09375 0 39.5 0 42.703125 0 
L 42.703125 2.5 
L 40.796875 2.5 
C 33.796875 2.5 33.59375 3.5 33.59375 7.140625 
L 33.59375 17 
L 43.796875 17 
L 43.796875 19.59375 
L 33.59375 19.59375 
z
M 28.09375 57.859375 
L 28.09375 19.59375 
L 4 19.59375 
z
" id="CMR17-52"/>
      </defs>
      <g transform="translate(336.950342 251.21795)scale(0.18 -0.18)">
       <use transform="scale(0.996264)" xlink:href="#CMR17-52"/>
       <use transform="translate(45.690477 0)scale(0.996264)" xlink:href="#CMR17-48"/>
      </g>
     </g>
    </g>
    <g id="xtick_5">
     <g id="line2d_5">
      <g>
       <use style="stroke:#000000;stroke-width:0.8;" x="411.558521" xlink:href="#mca4a5ec8ae" y="230.88"/>
      </g>
     </g>
     <g id="text_5">
      <!-- $50$ -->
      <defs>
       <path d="M 11.40625 57.6875 
C 12.40625 57.28125 16.5 56 20.703125 56 
C 30 56 35.09375 61.109375 38 64.0625 
C 38 64.953125 38 65.5 37.40625 65.5 
C 37.296875 65.5 37.09375 65.5 36.296875 65.046875 
C 32.796875 63.40625 28.703125 62.078125 23.703125 62.078125 
C 20.703125 62.078125 16.203125 62.484375 11.296875 64.671875 
C 10.203125 65.171875 10 65.171875 9.90625 65.171875 
C 9.40625 65.171875 9.296875 65.0625 9.296875 63.078125 
L 9.296875 34.421875 
C 9.296875 32.640625 9.296875 32.140625 10.296875 32.140625 
C 10.796875 32.140625 11 32.34375 11.5 33.03125 
C 14.703125 37.515625 19.09375 39.40625 24.09375 39.40625 
C 27.59375 39.40625 35.09375 37.21875 35.09375 20.140625 
C 35.09375 16.953125 35.09375 11.171875 32.09375 6.578125 
C 29.59375 2.484375 25.703125 0.390625 21.40625 0.390625 
C 14.796875 0.390625 8.09375 5 6.296875 12.71875 
C 6.703125 12.609375 7.5 12.421875 7.90625 12.421875 
C 9.203125 12.421875 11.703125 13.125 11.703125 16.21875 
C 11.703125 18.90625 9.796875 20 7.90625 20 
C 5.59375 20 4.09375 18.59375 4.09375 15.796875 
C 4.09375 7.09375 11 -2 21.59375 -2 
C 31.90625 -2 41.703125 6.875 41.703125 19.75 
C 41.703125 31.71875 33.90625 41 24.203125 41 
C 19.09375 41 14.796875 39.109375 11.40625 35.53125 
z
" id="CMR17-53"/>
      </defs>
      <g transform="translate(403.303396 251.21795)scale(0.18 -0.18)">
       <use transform="scale(0.996264)" xlink:href="#CMR17-53"/>
       <use transform="translate(45.690477 0)scale(0.996264)" xlink:href="#CMR17-48"/>
      </g>
     </g>
    </g>
    <g id="text_6">
     <!-- Time (s) -->
     <defs>
      <path d="M 63.296875 72 
L 3.40625 72 
L 1.90625 44.265625 
L 6.203125 44.265625 
C 6.90625 49.25 7.796875 53.046875 8.90625 56.234375 
C 11.5 63.515625 16.296875 67.3125 23.09375 67.3125 
C 26.40625 67.3125 27.796875 66.203125 27.796875 63.71875 
L 27.796875 12.28125 
L 27.796875 9.375 
C 27.796875 5.1875 26.90625 4.6875 18.796875 4.6875 
L 16.203125 4.6875 
L 16.203125 0 
L 50.5 0 
L 50.5 4.6875 
L 47.90625 4.6875 
C 39.90625 4.6875 39 5.1875 39 9.375 
L 39 12.28125 
L 39 63.71875 
C 39 66.203125 40.40625 67.3125 43.703125 67.3125 
C 49.796875 67.3125 54.703125 63.90625 57.203125 57.921875 
C 58.703125 54.25 59.703125 49.953125 60.5 44.265625 
L 64.796875 44.265625 
z
" id="Century_Schoolbook_L_Roman-84"/>
      <path d="M 20.59375 46 
L 1.796875 46 
L 1.796875 41.21875 
L 6.90625 41.21875 
C 10.59375 41.21875 11.203125 40.515625 11.203125 36.203125 
L 11.203125 12.296875 
L 11.203125 8.296875 
C 11.203125 4.296875 10.09375 3.59375 3.703125 3.59375 
L 3 3.59375 
L 3 0 
L 28.90625 0 
L 28.90625 3.59375 
L 28.203125 3.59375 
C 21.703125 3.59375 20.59375 4.28125 20.59375 8.21875 
L 20.59375 12.171875 
z
M 15.90625 71.578125 
C 12.703125 71.578125 10.09375 68.984375 10.09375 65.796875 
C 10.09375 62.703125 12.703125 60 15.796875 60 
C 19.09375 60 21.703125 62.59375 21.703125 65.796875 
C 21.703125 68.984375 19.09375 71.578125 15.90625 71.578125 
z
" id="Century_Schoolbook_L_Roman-105"/>
      <path d="M 20.09375 46 
L 2.296875 46 
L 2.296875 41.21875 
L 6.40625 41.21875 
C 10.09375 41.21875 10.703125 40.515625 10.703125 36.203125 
L 10.703125 12.296875 
L 10.703125 8.40625 
C 10.703125 4.296875 9.59375 3.59375 3.203125 3.59375 
L 2.796875 3.59375 
L 2.796875 0 
L 28 0 
L 28 3.59375 
L 27.59375 3.59375 
C 21.203125 3.59375 20.09375 4.296875 20.09375 8.390625 
L 20.09375 12.28125 
L 20.09375 26.453125 
C 20.09375 35.328125 25 41.921875 31.5 41.921875 
C 34.09375 41.921875 36.90625 40.515625 38.09375 38.625 
C 39.5 36.734375 40.09375 33.828125 40.09375 29.734375 
L 40.09375 12.28125 
L 40.09375 8.28125 
C 40.09375 4.296875 39 3.59375 32.5 3.59375 
L 32.09375 3.59375 
L 32.09375 0 
L 57.40625 0 
L 57.40625 3.59375 
L 57 3.59375 
C 50.59375 3.59375 49.5 4.296875 49.5 8.28125 
L 49.5 12.28125 
L 49.5 25.546875 
C 49.5 35.53125 54 41.921875 61 41.921875 
C 64.296875 41.921875 67 40.015625 68.296875 36.921875 
C 69.203125 34.734375 69.5 32.53125 69.5 28.640625 
L 69.5 12.28125 
L 69.5 8.28125 
C 69.5 4.296875 68.40625 3.59375 61.90625 3.59375 
L 61.5 3.59375 
L 61.5 0 
L 86.796875 0 
L 86.796875 3.59375 
L 86.40625 3.59375 
C 80 3.59375 78.90625 4.296875 78.90625 8.390625 
L 78.90625 12.28125 
L 78.90625 30.640625 
C 78.90625 36.828125 78.296875 38.921875 75.703125 42.3125 
C 72.796875 46.015625 68.703125 48 63.90625 48 
C 57.40625 48 52.59375 44.9375 48.296875 38.109375 
C 46.59375 44.046875 41.203125 48 34.5 48 
C 28.5 48 24 45.140625 20.09375 38.921875 
z
" id="Century_Schoolbook_L_Roman-109"/>
      <path d="M 46.5 23 
C 46.59375 37.8125 38.09375 48.28125 25.90625 48.28125 
C 13.09375 48.28125 3.5 37.25 3.5 22.34375 
C 3.5 8.4375 12.59375 -1 26.09375 -1 
C 35.59375 -1 42.40625 3.6875 46.5 13.1875 
L 43 15.09375 
C 38.90625 7.390625 34.703125 4.390625 28 4.390625 
C 22.90625 4.390625 19.203125 6.59375 16.59375 11 
C 14.796875 14 14 17.5 14.09375 23 
z
M 14.203125 27.296875 
C 14.203125 30.34375 14.59375 32.5 15.59375 35.25 
C 17.703125 41.140625 20.90625 44 25.703125 44 
C 31.796875 44 35.796875 38.78125 35.796875 30.921875 
C 35.796875 28.078125 34.90625 27.296875 31.703125 27.296875 
z
" id="Century_Schoolbook_L_Roman-101"/>
      <path d="M 27.90625 73.453125 
C 21.90625 69.765625 18.703125 67.171875 15.296875 63.171875 
C 7.703125 54.1875 3.59375 42.71875 3.59375 30.640625 
C 3.59375 19.265625 7.203125 8.578125 13.90625 -0.296875 
C 17.703125 -5.09375 21.09375 -8.078125 27.90625 -12.28125 
L 27.90625 -8.578125 
C 17.90625 0.203125 13.90625 11.484375 13.90625 30.640625 
C 13.90625 49.796875 17.90625 60.984375 27.90625 69.765625 
z
" id="Century_Schoolbook_L_Roman-40"/>
      <path d="M 39 48 
L 35.5 48 
L 32.59375 44.40625 
C 29 47.203125 25.40625 48.390625 20.40625 48.390625 
C 11.59375 48.390625 5.796875 42.625 5.796875 33.953125 
C 5.796875 30.078125 7.09375 26.78125 9.296875 24.8125 
C 11.59375 22.703125 13.90625 21.71875 19.90625 20.3125 
L 25.203125 19.125 
C 33.09375 17.234375 35.90625 15.234375 35.90625 11.265625 
C 35.90625 6.578125 31.796875 3.296875 25.90625 3.296875 
C 17.5 3.296875 11.5 8.765625 9.09375 18.875 
L 5.09375 18.875 
L 5.09375 0 
L 8.59375 0 
L 12.09375 3.90625 
C 16.203125 0.59375 20.796875 -1 25.796875 -1 
C 35.59375 -1 42.09375 5.078125 42.09375 14.34375 
C 42.09375 18.71875 40.703125 22.09375 37.90625 24.390625 
C 35.5 26.484375 33.5 27.28125 27.40625 28.5625 
L 22.40625 29.671875 
C 16.90625 30.859375 16.90625 30.859375 15.09375 31.859375 
C 12.90625 32.859375 11.59375 34.9375 11.59375 37.140625 
C 11.59375 41.109375 15.40625 44 20.90625 44 
C 24.703125 44 27.796875 42.703125 30.59375 40.015625 
C 32.796875 37.8125 33.90625 35.828125 35.5 31.234375 
L 39 31.234375 
z
" id="Century_Schoolbook_L_Roman-115"/>
      <path d="M 5.40625 -12.28125 
C 11.40625 -8.578125 14.59375 -5.984375 18 -1.890625 
C 25.59375 6.984375 29.703125 18.5625 29.703125 30.640625 
C 29.703125 42.015625 26.09375 52.703125 19.40625 61.484375 
C 15.59375 66.375 12.203125 69.359375 5.40625 73.453125 
L 5.40625 69.765625 
C 15.40625 60.984375 19.40625 49.796875 19.40625 30.640625 
C 19.40625 11.375 15.40625 0.203125 5.40625 -8.578125 
z
" id="Century_Schoolbook_L_Roman-41"/>
     </defs>
     <g transform="translate(212.666399 273.24577)scale(0.18 -0.18)">
      <use transform="translate(0 -0.29235)scale(0.996264)" xlink:href="#Century_Schoolbook_L_Roman-84"/>
      <use transform="translate(66.450031 -0.29235)scale(0.996264)" xlink:href="#Century_Schoolbook_L_Roman-105"/>
      <use transform="translate(97.831344 -0.29235)scale(0.996264)" xlink:href="#Century_Schoolbook_L_Roman-109"/>
      <use transform="translate(186.398251 -0.29235)scale(0.996264)" xlink:href="#Century_Schoolbook_L_Roman-101"/>
      <use transform="translate(263.906621 -0.29235)scale(0.996264)" xlink:href="#Century_Schoolbook_L_Roman-40"/>
      <use transform="translate(297.081851 -0.29235)scale(0.996264)" xlink:href="#Century_Schoolbook_L_Roman-115"/>
      <use transform="translate(343.207661 -0.29235)scale(0.996264)" xlink:href="#Century_Schoolbook_L_Roman-41"/>
     </g>
    </g>
   </g>
   <g id="matplotlib.axis_2">
    <g id="ytick_1">
     <g id="line2d_6">
      <defs>
       <path d="M 0 0 
L -3.5 0 
" id="m3b4207b271" style="stroke:#000000;stroke-width:0.8;"/>
      </defs>
      <g>
       <use style="stroke:#000000;stroke-width:0.8;" x="79.79325" xlink:href="#m3b4207b271" y="230.88"/>
      </g>
     </g>
     <g id="text_7">
      <!-- $-200$ -->
      <defs>
       <path d="M 65.90625 23 
C 67.59375 23 69.40625 23 69.40625 25 
C 69.40625 27 67.59375 27 65.90625 27 
L 11.796875 27 
C 10.09375 27 8.296875 27 8.296875 25 
C 8.296875 23 10.09375 23 11.796875 23 
z
" id="CMSY10-0"/>
      </defs>
      <g transform="translate(34.02782 237.548975)scale(0.18 -0.18)">
       <use transform="translate(0 -0.031134)scale(0.996264)" xlink:href="#CMSY10-0"/>
       <use transform="translate(77.487468 -0.031134)scale(0.996264)" xlink:href="#CMR17-50"/>
       <use transform="translate(123.177945 -0.031134)scale(0.996264)" xlink:href="#CMR17-48"/>
       <use transform="translate(168.868422 -0.031134)scale(0.996264)" xlink:href="#CMR17-48"/>
      </g>
     </g>
    </g>
    <g id="ytick_2">
     <g id="line2d_7">
      <g>
       <use style="stroke:#000000;stroke-width:0.8;" x="79.79325" xlink:href="#m3b4207b271" y="183.270233"/>
      </g>
     </g>
     <g id="text_8">
      <!-- $0$ -->
      <g transform="translate(64.53812 189.939208)scale(0.18 -0.18)">
       <use transform="scale(0.996264)" xlink:href="#CMR17-48"/>
      </g>
     </g>
    </g>
    <g id="ytick_3">
     <g id="line2d_8">
      <g>
       <use style="stroke:#000000;stroke-width:0.8;" x="79.79325" xlink:href="#m3b4207b271" y="135.660467"/>
      </g>
     </g>
     <g id="text_9">
      <!-- $200$ -->
      <g transform="translate(48.02787 142.329442)scale(0.18 -0.18)">
       <use transform="scale(0.996264)" xlink:href="#CMR17-50"/>
       <use transform="translate(45.690477 0)scale(0.996264)" xlink:href="#CMR17-48"/>
       <use transform="translate(91.380954 0)scale(0.996264)" xlink:href="#CMR17-48"/>
      </g>
     </g>
    </g>
    <g id="ytick_4">
     <g id="line2d_9">
      <g>
       <use style="stroke:#000000;stroke-width:0.8;" x="79.79325" xlink:href="#m3b4207b271" y="88.0507"/>
      </g>
     </g>
     <g id="text_10">
      <!-- $400$ -->
      <g transform="translate(48.02787 94.719675)scale(0.18 -0.18)">
       <use transform="scale(0.996264)" xlink:href="#CMR17-52"/>
       <use transform="translate(45.690477 0)scale(0.996264)" xlink:href="#CMR17-48"/>
       <use transform="translate(91.380954 0)scale(0.996264)" xlink:href="#CMR17-48"/>
      </g>
     </g>
    </g>
    <g id="ytick_5">
     <g id="line2d_10">
      <g>
       <use style="stroke:#000000;stroke-width:0.8;" x="79.79325" xlink:href="#m3b4207b271" y="40.440934"/>
      </g>
     </g>
     <g id="text_11">
      <!-- $600$ -->
      <defs>
       <path d="M 10.59375 34 
C 10.59375 57.65625 21.796875 63 28.296875 63 
C 30.40625 63 35.5 62.640625 37.5 59 
C 35.90625 59 32.90625 59 32.90625 55.515625 
C 32.90625 52.828125 35.09375 51.921875 36.5 51.921875 
C 37.40625 51.921875 40.09375 52.3125 40.09375 55.625 
C 40.09375 61.78125 35.09375 65.296875 28.203125 65.296875 
C 16.296875 65.296875 3.796875 52.96875 3.796875 31 
C 3.796875 3.953125 15.09375 -2 23.09375 -2 
C 32.796875 -2 42 6.671875 42 20.046875 
C 42 32.515625 33.90625 41.59375 23.703125 41.59375 
C 17.59375 41.59375 13.09375 37.609375 10.59375 30.625 
z
M 23.09375 0.390625 
C 10.796875 0.390625 10.796875 18.75 10.796875 22.4375 
C 10.796875 29.625 14.203125 40 23.5 40 
C 25.203125 40 30.09375 40 33.40625 33.125 
C 35.203125 29.21875 35.203125 25.140625 35.203125 20.140625 
C 35.203125 14.75 35.203125 10.78125 33.09375 6.78125 
C 30.90625 2.671875 27.703125 0.390625 23.09375 0.390625 
z
" id="CMR17-54"/>
      </defs>
      <g transform="translate(48.02787 47.109909)scale(0.18 -0.18)">
       <use transform="scale(0.996264)" xlink:href="#CMR17-54"/>
       <use transform="translate(45.690477 0)scale(0.996264)" xlink:href="#CMR17-48"/>
       <use transform="translate(91.380954 0)scale(0.996264)" xlink:href="#CMR17-48"/>
      </g>
     </g>
    </g>
    <g id="text_12">
     <!-- Surface Speed -->
     <defs>
      <path d="M 54.59375 72 
L 50.90625 72 
L 46.90625 66.09375 
C 42.203125 70.59375 35.796875 73 28.703125 73 
C 15.59375 73 6.796875 64.609375 6.796875 52.15625 
C 6.796875 41.28125 12.203125 35.890625 26.90625 32.109375 
L 36.40625 29.703125 
C 43.796875 27.828125 44.5 27.625 46.59375 26.03125 
C 49.59375 23.734375 51.203125 20.4375 51.203125 16.546875 
C 51.203125 12.5625 49.703125 9.28125 46.703125 6.59375 
C 43.40625 3.6875 40.09375 2.59375 34.59375 2.59375 
C 27.203125 2.59375 21.90625 4.875 17.203125 10.03125 
C 13 14.703125 10.90625 19.375 9.40625 27 
L 5.09375 27 
L 5.5 -1.4375 
L 9.40625 -1.4375 
L 13.90625 5.46875 
C 20.59375 0 26.203125 -2 34.90625 -2 
C 49.59375 -2 59 6.59375 59 19.9375 
C 59 26.109375 56.90625 31.40625 53 35.203125 
C 50.296875 37.796875 46.40625 39.484375 38.40625 41.484375 
L 27.703125 44.171875 
C 18.796875 46.46875 14.59375 50.359375 14.59375 56.4375 
C 14.59375 63.40625 20.296875 68.203125 28.796875 68.203125 
C 35.796875 68.203125 41.5 65.1875 45.5 59.484375 
C 48.40625 55.375 50.203125 51.15625 51.5 46.046875 
L 55.796875 46.046875 
z
" id="Century_Schoolbook_L_Roman-83"/>
      <path d="M 41.203125 0 
L 59.40625 0 
L 59.40625 4.703125 
L 56.90625 4.703125 
C 51.40625 4.703125 50.59375 5.59375 50.59375 11.953125 
L 50.59375 46.78125 
L 31.796875 46.78125 
L 31.796875 42 
L 36.90625 42 
C 40.59375 42 41.203125 41.296875 41.203125 36.953125 
L 41.203125 24.5625 
C 41.203125 18.8125 40.59375 15.484375 39.09375 12.15625 
C 37 7.71875 33 5.09375 28.09375 5.09375 
C 25 5.09375 22.40625 6.1875 21.09375 8.171875 
C 19.796875 10.046875 19.59375 11.046875 19.59375 16.5 
L 19.59375 46.78125 
L 2.09375 46.78125 
L 2.09375 42 
L 5.90625 42 
C 9.59375 42 10.203125 41.296875 10.203125 36.953125 
L 10.203125 15.21875 
C 10.203125 10.078125 10.59375 7.765625 12.09375 5.453125 
C 14.796875 1.3125 19.59375 -1 25.59375 -1 
C 32.203125 -1 36.796875 1.71875 41.203125 8.125 
z
" id="Century_Schoolbook_L_Roman-117"/>
      <path d="M 19.796875 46 
L 2.09375 46 
L 2.09375 41.21875 
L 6.203125 41.21875 
C 9.90625 41.21875 10.5 40.515625 10.5 36.203125 
L 10.5 12.296875 
L 10.5 8.296875 
C 10.5 4.296875 9.40625 3.59375 2.90625 3.59375 
L 2.5 3.59375 
L 2.5 0 
L 29.203125 0 
L 29.203125 3.59375 
L 27.296875 3.59375 
C 20.90625 3.59375 19.796875 4.296875 19.796875 8.296875 
L 19.796875 12.296875 
L 19.796875 13.296875 
C 19.796875 20.8125 21.203125 28.40625 23.703125 34.109375 
C 26.09375 39.703125 29.5 42.8125 33.703125 43.3125 
C 32.296875 41.703125 31.90625 40.6875 31.90625 38.765625 
C 31.90625 35.546875 34.203125 33.234375 37.40625 33.234375 
C 41 33.234375 43.5 35.9375 43.5 40.015625 
C 43.5 44.8125 40.09375 48 34.796875 48 
C 28.5 48 23 42.921875 19.796875 34.140625 
z
" id="Century_Schoolbook_L_Roman-114"/>
      <path d="M 20.09375 46.296875 
L 20.09375 52.140625 
C 20.09375 57.265625 20.40625 60.65625 21.203125 62.71875 
C 22.796875 67.234375 26.296875 70 30.296875 70 
C 32.40625 70 33.703125 69.390625 33.703125 68.25 
C 33.703125 67.921875 33.59375 67.734375 33.09375 66.90625 
C 32.5 65.890625 32.203125 64.75 32.203125 63.625 
C 32.203125 60.546875 34.59375 58.203125 37.703125 58.203125 
C 41 58.203125 43.296875 60.734375 43.296875 64.40625 
C 43.296875 70.328125 38.296875 74 30.203125 74 
C 23.296875 74 18.296875 71.53125 14.703125 66.4375 
C 11.703125 62.140625 10.703125 57.734375 10.703125 49.46875 
L 10.703125 46.296875 
L 1.90625 46.296875 
L 1.90625 42 
L 10.703125 42 
L 10.703125 12.234375 
L 10.703125 8.25 
C 10.703125 4.296875 9.59375 3.59375 3.203125 3.59375 
L 2.796875 3.59375 
L 2.796875 0 
L 29.5 0 
L 29.5 3.59375 
L 27.703125 3.59375 
C 21.203125 3.59375 20.09375 4.296875 20.09375 8.25 
L 20.09375 12.234375 
L 20.09375 42 
L 31.09375 42 
L 31.09375 46.296875 
z
" id="Century_Schoolbook_L_Roman-102"/>
      <path d="M 45.203125 32.578125 
C 45.203125 38.796875 44.09375 41.96875 41.203125 44.34375 
C 37.90625 46.90625 33 48.28125 26.59375 48.28125 
C 15.40625 48.28125 7.09375 43.046875 7.09375 35.921875 
C 7.09375 32.15625 9.40625 29.78125 12.90625 29.78125 
C 16 29.78125 18.296875 31.859375 18.296875 34.8125 
C 18.296875 36.109375 17.796875 37.484375 16.796875 38.875 
C 16.203125 39.546875 16.09375 39.84375 16.09375 40.15625 
C 16.09375 42.21875 20.203125 44 25 44 
C 28.09375 44 31.59375 43.015625 33.203125 41.53125 
C 35.09375 39.953125 35.796875 37.578125 35.796875 33.125 
L 35.796875 29.28125 
C 25.296875 27.484375 22.09375 26.6875 17.203125 24.8125 
C 8.59375 21.609375 4.40625 16.9375 4.40625 10.65625 
C 4.40625 3.578125 10.09375 -1 18.90625 -1 
C 25.796875 -1 32 1.859375 36.296875 7.0625 
C 37.90625 1.984375 40.40625 0 45.09375 0 
C 49.59375 0 54.296875 2.890625 54.296875 5.78125 
C 54.296875 6.46875 53.796875 6.96875 53.296875 6.96875 
C 52.90625 6.96875 52.5 6.875 51.796875 6.578125 
C 50.203125 6 49.796875 5.890625 49 5.890625 
C 46.203125 5.890625 45.203125 7.78125 45.203125 12.71875 
z
M 35.796875 20.46875 
C 35.796875 14.46875 35.5 13.078125 33.796875 10.484375 
C 31.296875 6.78125 26.703125 4.296875 22.40625 4.296875 
C 17.90625 4.296875 14.5 7.59375 14.5 12.078125 
C 14.5 16.265625 16.59375 19.265625 21 21.359375 
C 24.09375 22.75 28 23.75 35.796875 25.046875 
z
" id="Century_Schoolbook_L_Roman-97"/>
      <path d="M 38.703125 15.125 
C 35.5 7.96875 32.09375 5.09375 26.90625 5.09375 
C 18.90625 5.09375 13.90625 12.328125 13.90625 23.9375 
C 13.90625 35.953125 18.796875 44 26.203125 44 
C 29.203125 44 31.796875 42.59375 31.796875 41.015625 
C 31.796875 40.71875 31.59375 40.421875 31.203125 39.8125 
C 29.59375 37.9375 29.203125 36.9375 29.203125 35.265625 
C 29.203125 31.984375 31.703125 29.703125 35.203125 29.703125 
C 38.703125 29.703125 41.296875 32.484375 41.296875 36.453125 
C 41.296875 43.109375 34.59375 48.28125 25.703125 48.28125 
C 12.703125 48.28125 3.40625 37.65625 3.40625 22.84375 
C 3.40625 8.734375 11.90625 -1 24.296875 -1 
C 33.203125 -1 38.296875 3.078125 42.59375 13.625 
z
" id="Century_Schoolbook_L_Roman-99"/>
      <path d="M 20.09375 46 
L 2.796875 46 
L 2.796875 41.21875 
L 6.40625 41.21875 
C 10.09375 41.21875 10.703125 40.515625 10.703125 36.21875 
L 10.703125 -7.75 
L 10.703125 -11.71875 
C 10.703125 -15.71875 9.59375 -16.40625 3.203125 -16.40625 
L 2.796875 -16.40625 
L 2.796875 -20 
L 28.796875 -20 
L 28.796875 -16.40625 
L 27.703125 -16.40625 
C 21.203125 -16.40625 20.09375 -15.71875 20.09375 -11.734375 
L 20.09375 -7.75 
L 20.09375 6.6875 
C 23.40625 0.90625 27.203125 -1.390625 33.296875 -1.390625 
C 44.90625 -1.390625 53.5 9.265625 53.5 23.5 
C 53.5 37.265625 44.90625 48 33.90625 48 
C 27.703125 48 23.59375 45.4375 20.09375 39.515625 
z
M 32.09375 42.609375 
C 39 42.609375 43 35.75 43 24.09375 
C 43 11.265625 38.90625 4 31.796875 4 
C 24.703125 4 20 11.375 20 22.8125 
C 20 35.140625 24.5 42.609375 32.09375 42.609375 
z
" id="Century_Schoolbook_L_Roman-112"/>
      <path d="M 38 0 
L 55.40625 0 
L 55.40625 4.703125 
L 53.59375 4.703125 
C 48.203125 4.703125 47.40625 5.703125 47.40625 11.96875 
L 47.40625 73.78125 
L 27.796875 73.78125 
L 27.796875 69 
L 33.703125 69 
C 37.296875 69 38 68.28125 38 63.921875 
L 38 41 
C 34.296875 46.09375 30 48.390625 24.203125 48.390625 
C 12.90625 48.390625 4.296875 37.546875 4.296875 23.203125 
C 4.296875 9.0625 12.59375 -1 24.203125 -1 
C 30.5 -1 34.796875 1.671875 38 7.59375 
z
M 26.203125 43 
C 30.296875 43 34.203125 40.03125 36 35.4375 
C 37.203125 32.453125 37.90625 28.28125 37.90625 23.515625 
C 37.90625 11.96875 33.296875 4.390625 26.09375 4.390625 
C 19.09375 4.390625 14.796875 10.96875 14.796875 22.015625 
C 14.796875 27.890625 15.40625 32.359375 16.703125 35.734375 
C 18.40625 40.125 22.09375 43 26.203125 43 
z
" id="Century_Schoolbook_L_Roman-100"/>
     </defs>
     <g transform="translate(25.33795 181.86556)rotate(-90)scale(0.18 -0.18)">
      <use transform="translate(0 -1.570628)scale(0.996264)" xlink:href="#Century_Schoolbook_L_Roman-83"/>
      <use transform="translate(62.763979 -1.570628)scale(0.996264)" xlink:href="#Century_Schoolbook_L_Roman-117"/>
      <use transform="translate(123.63561 -1.570628)scale(0.996264)" xlink:href="#Century_Schoolbook_L_Roman-114"/>
      <use transform="translate(167.869178 -1.570628)scale(0.996264)" xlink:href="#Century_Schoolbook_L_Roman-102"/>
      <use transform="translate(201.044408 -1.570628)scale(0.996264)" xlink:href="#Century_Schoolbook_L_Roman-97"/>
      <use transform="translate(256.436085 -1.570628)scale(0.996264)" xlink:href="#Century_Schoolbook_L_Roman-99"/>
      <use transform="translate(300.669654 -1.570628)scale(0.996264)" xlink:href="#Century_Schoolbook_L_Roman-101"/>
      <use transform="translate(378.178024 -1.570628)scale(0.996264)" xlink:href="#Century_Schoolbook_L_Roman-83"/>
      <use transform="translate(440.942003 -1.570628)scale(0.996264)" xlink:href="#Century_Schoolbook_L_Roman-112"/>
      <use transform="translate(498.12749 -1.570628)scale(0.996264)" xlink:href="#Century_Schoolbook_L_Roman-101"/>
      <use transform="translate(547.940691 -1.570628)scale(0.996264)" xlink:href="#Century_Schoolbook_L_Roman-101"/>
      <use transform="translate(597.753891 -1.570628)scale(0.996264)" xlink:href="#Century_Schoolbook_L_Roman-100"/>
     </g>
    </g>
   </g>
   <g id="line2d_11">
    <path clip-path="url(#p3c646ac416)" d="M 79.79325 183.270233 
L 80.715557 183.270233 
L 80.828358 182.87954 
L 80.914617 182.87954 
L 81.027417 177.279606 
L 81.047323 177.279606 
L 81.173394 166.991355 
L 81.379088 166.991355 
L 81.498523 151.493863 
L 81.6445 151.493863 
L 81.7573 147.196239 
L 81.843559 147.196239 
L 81.962995 145.373004 
L 81.976265 145.373004 
L 82.095701 144.591618 
L 82.440737 144.591618 
L 82.560172 144.85208 
L 82.639796 144.85208 
L 82.759232 145.242773 
L 82.838855 145.242773 
L 82.951655 145.503235 
L 82.971561 145.503235 
L 83.090997 145.893928 
L 83.17062 145.893928 
L 83.290056 146.284621 
L 83.36968 146.284621 
L 83.489115 146.545083 
L 83.568739 146.545083 
L 83.681539 146.675315 
L 83.701445 146.675315 
L 83.82088 146.935777 
L 83.966857 146.935777 
L 84.079657 147.066008 
L 84.099563 147.066008 
L 84.212363 147.196239 
L 84.630388 147.196239 
L 84.743188 147.32647 
L 87.682628 147.32647 
L 87.795428 147.196239 
L 87.815334 147.196239 
L 87.928134 147.32647 
L 88.1471 147.32647 
L 88.2599 147.196239 
L 88.545218 147.196239 
L 88.658018 147.32647 
L 88.81063 147.32647 
L 88.92343 147.196239 
L 89.076042 147.196239 
L 89.142395 147.32647 
L 89.182207 147.196239 
L 90.137691 147.196239 
L 90.250491 147.32647 
L 90.270397 147.32647 
L 90.33675 147.196239 
L 90.376562 147.32647 
L 90.602163 147.32647 
L 90.668516 147.196239 
L 90.708327 147.32647 
L 90.801222 147.32647 
L 90.914022 147.196239 
L 91.066634 147.196239 
L 91.179434 147.32647 
L 91.464752 147.32647 
L 91.577552 147.196239 
L 91.597458 147.196239 
L 91.710259 147.32647 
L 91.995577 147.32647 
L 92.108377 147.196239 
L 92.924519 147.196239 
L 93.03732 147.32647 
L 93.322638 147.32647 
L 93.435438 147.196239 
L 93.455344 147.196239 
L 93.568144 147.32647 
L 93.654403 147.32647 
L 93.767203 147.196239 
L 93.986168 147.196239 
L 94.052521 147.32647 
L 94.092333 147.196239 
L 94.384287 147.196239 
L 94.497087 147.32647 
L 94.649699 147.32647 
L 94.762499 147.196239 
L 94.981464 147.196239 
L 95.094264 147.32647 
L 95.180523 147.32647 
L 95.293323 147.196239 
L 95.97676 147.196239 
L 96.08956 147.32647 
L 96.64029 147.32647 
L 96.706644 147.196239 
L 96.746455 147.32647 
L 97.900998 147.32647 
L 98.013799 147.196239 
L 98.299117 147.196239 
L 98.411917 147.32647 
L 98.431823 147.32647 
L 98.544623 147.196239 
L 98.763588 147.196239 
L 98.876388 147.32647 
L 99.161707 147.32647 
L 99.274507 147.196239 
L 99.294413 147.196239 
L 99.407213 147.32647 
L 99.559825 147.32647 
L 99.672625 147.196239 
L 99.758884 147.196239 
L 99.871684 147.32647 
L 99.89159 147.32647 
L 100.00439 147.196239 
L 100.090649 147.196239 
L 100.203449 147.32647 
L 100.953239 147.436485 
L 101.072674 148.521617 
L 101.152298 148.521617 
L 101.271734 149.847203 
L 101.351357 149.939723 
L 101.470793 150.593412 
L 101.484063 150.593412 
L 101.596864 150.472129 
L 101.61677 150.472129 
L 101.749476 150.943335 
L 101.815829 150.987338 
L 101.822464 150.697718 
L 101.882182 150.697718 
L 101.948535 151.060276 
L 101.994982 151.058022 
L 102.014888 151.058022 
L 102.127688 150.70996 
L 102.213947 150.665773 
L 102.333383 151.155301 
L 102.346653 151.155301 
L 102.413006 150.692744 
L 102.452818 151.100517 
L 102.545712 151.181004 
L 102.612065 150.781858 
L 102.618701 151.210228 
L 102.651877 151.210228 
L 102.744771 151.282253 
L 102.857572 150.861751 
L 102.877478 150.861751 
L 103.010184 151.854101 
L 103.076537 151.754658 
L 103.195972 153.330598 
L 103.275596 153.291553 
L 103.401667 155.289284 
L 103.474655 155.289284 
L 103.541008 156.254913 
L 103.587455 155.847316 
L 103.607361 155.847316 
L 103.673714 155.660094 
L 103.68035 156.065038 
L 103.706891 156.065038 
L 103.740067 156.065038 
L 103.859503 152.2853 
L 103.939126 152.2853 
L 104.005479 150.221377 
L 104.051927 150.254043 
L 104.138186 150.254043 
L 104.250986 147.33314 
L 104.270892 147.33314 
L 104.390327 145.978249 
L 104.469951 146.018603 
L 104.589386 145.519126 
L 105.000775 145.550406 
L 105.113575 145.78626 
L 105.133481 145.78626 
L 105.246282 146.030245 
L 105.266188 146.030245 
L 105.385623 146.283698 
L 105.5316 146.386688 
L 105.651035 146.592237 
L 105.664306 146.592237 
L 105.783741 146.797894 
L 105.863365 146.848905 
L 105.9828 147.003011 
L 106.19513 147.106107 
L 106.314566 147.261681 
L 106.526896 147.368571 
L 106.639696 147.420874 
L 106.858661 147.483324 
L 106.925014 147.535917 
L 106.971461 147.490077 
L 107.323132 147.564242 
L 107.442568 147.627519 
L 109.44643 147.61943 
L 109.55923 147.755662 
L 110.043607 147.858656 
L 110.10996 147.921282 
L 110.156408 147.894574 
L 110.441726 147.811861 
L 110.508079 147.743394 
L 110.514714 147.916094 
L 110.541255 147.916094 
L 110.707138 147.86974 
L 110.819938 147.782181 
L 111.038903 147.810057 
L 111.151703 147.944193 
L 111.171609 147.944193 
L 111.237962 147.796312 
L 111.28441 147.864098 
L 111.370668 147.786888 
L 111.437022 147.684826 
L 111.483469 147.753975 
L 111.503375 147.753975 
L 111.569728 147.892895 
L 111.616175 147.834884 
L 111.83514 147.834884 
L 111.94794 147.713701 
L 112.034199 147.785448 
L 112.100552 147.88795 
L 112.107187 147.752712 
L 112.140364 147.752712 
L 113.029495 147.817823 
L 113.095848 147.896405 
L 113.13566 147.813607 
L 113.162201 147.813607 
L 113.275001 147.694418 
L 113.36126 147.773979 
L 113.487331 147.898167 
L 113.626672 147.865043 
L 113.693025 147.713079 
L 113.739473 147.722884 
L 113.825732 147.806275 
L 113.892085 147.850957 
L 113.89872 147.788138 
L 113.931896 147.788138 
L 114.290203 147.844954 
L 114.356556 147.932172 
L 114.363191 147.830479 
L 114.396368 147.830479 
L 115.152793 147.882047 
L 115.219146 148.071576 
L 115.265593 147.949792 
L 115.285499 147.949792 
L 115.351852 147.829184 
L 115.398299 147.843239 
L 116.015382 147.925585 
L 116.081735 148.028717 
L 116.128182 147.993883 
L 117.27609 147.994493 
L 117.342443 148.114431 
L 117.382255 148.008753 
L 117.541503 148.050636 
L 117.654303 148.174546 
L 117.674209 148.174546 
L 117.787009 148.01625 
L 118.005974 148.081249 
L 118.125409 148.252055 
L 118.205033 148.14301 
L 118.324469 148.111816 
L 118.337739 148.111816 
L 118.404092 148.249072 
L 118.450539 148.147601 
L 118.536798 148.188916 
L 118.649599 148.329822 
L 119.266682 148.288157 
L 119.333035 148.445709 
L 119.372847 148.30011 
L 119.532094 148.348814 
L 119.644894 148.515822 
L 119.6648 148.515822 
L 119.731153 148.38768 
L 119.7776 148.407101 
L 119.797506 148.407101 
L 119.910307 148.235267 
L 119.930212 148.235267 
L 119.996566 148.585518 
L 120.043013 148.449628 
L 120.195625 148.498275 
L 120.308425 148.692608 
L 120.394684 148.740467 
L 120.461037 148.556715 
L 120.467672 148.750965 
L 120.500849 148.750965 
L 120.593743 148.772981 
L 120.660096 148.629417 
L 120.706543 148.673427 
L 120.792802 148.673427 
L 120.859155 148.879189 
L 120.898967 148.705425 
L 121.058214 148.766106 
L 121.171015 148.987919 
L 121.257274 149.045887 
L 121.323627 148.865649 
L 121.370074 148.883941 
L 121.38998 148.883941 
L 121.50278 149.122032 
L 121.589039 149.186897 
L 121.655392 148.997935 
L 121.701839 149.050649 
L 121.788098 149.102918 
L 121.854451 149.36703 
L 121.900898 149.17677 
L 122.05351 149.231639 
L 122.16631 149.579531 
L 122.186216 149.579531 
L 122.299017 149.376605 
L 122.318922 149.376605 
L 122.438358 149.755769 
L 122.451629 149.755769 
L 122.517982 149.531278 
L 122.564429 149.606257 
L 122.584335 149.606257 
L 122.70377 150.053321 
L 122.717041 150.053321 
L 122.783394 149.803154 
L 122.790029 150.153047 
L 122.823206 150.153047 
L 122.849747 150.153047 
L 122.9161 150.291688 
L 122.922735 150.073191 
L 122.955912 150.073191 
L 122.982453 150.073191 
L 123.095253 150.450102 
L 123.115159 150.450102 
L 123.181512 150.633004 
L 123.221324 150.453024 
L 123.247865 150.453024 
L 123.373936 151.110254 
L 123.380571 151.110254 
L 123.446924 151.420776 
L 123.493371 151.342294 
L 123.513277 151.342294 
L 123.626078 151.789587 
L 123.645984 151.789587 
L 123.712337 152.187067 
L 123.758784 152.168414 
L 123.77869 152.168414 
L 123.898125 153.173176 
L 123.977749 153.237448 
L 124.097184 154.368166 
L 124.110455 154.368166 
L 124.223255 155.036928 
L 124.243161 155.036928 
L 124.409044 156.512389 
L 124.44222 156.512389 
L 124.581562 157.582396 
L 124.840338 157.582396 
L 124.97968 161.426757 
L 125.039398 161.426757 
L 125.158833 163.153986 
L 125.172104 163.153986 
L 125.291539 164.768289 
L 125.371163 164.768289 
L 125.497234 166.680503 
L 125.570222 166.680503 
L 125.716199 169.859342 
L 125.769281 169.859342 
L 125.895352 171.995963 
L 125.901987 171.995963 
L 126.028058 174.124872 
L 126.101047 174.124872 
L 126.227117 176.436319 
L 126.233753 176.436319 
L 126.353188 177.998771 
L 126.366459 177.998771 
L 126.479259 179.606032 
L 126.499165 179.606032 
L 126.6186 182.09102 
L 126.631871 182.09102 
L 126.751306 183.930512 
L 126.764577 183.930512 
L 126.890648 180.366538 
L 126.963636 180.366538 
L 127.129519 150.110479 
L 127.162695 150.110479 
L 127.275496 140.230026 
L 127.295402 140.230026 
L 127.414837 104.718664 
L 127.428108 104.718664 
L 127.547543 69.572482 
L 127.560814 69.572482 
L 127.686885 45.419085 
L 127.759873 45.419085 
L 127.872673 40.867787 
L 127.892579 40.867787 
L 127.958932 31.606584 
L 128.005379 32.019929 
L 128.025285 32.019929 
L 128.091638 30.845442 
L 128.138085 31.403833 
L 128.157991 31.403833 
L 128.270791 33.026673 
L 128.290697 33.026673 
L 128.403498 34.649513 
L 128.55611 34.649513 
L 128.675545 39.675082 
L 128.821522 39.675082 
L 128.940957 44.80535 
L 129.086934 44.80535 
L 129.199734 48.312778 
L 129.285993 48.312778 
L 129.398793 50.145016 
L 129.485052 50.145016 
L 129.604488 55.694081 
L 129.750465 55.694081 
L 129.863265 59.463258 
L 129.883171 59.463258 
L 129.995971 61.400196 
L 130.08223 61.400196 
L 130.19503 65.378771 
L 130.214936 65.378771 
L 130.327736 67.472758 
L 130.480348 67.472758 
L 130.593148 73.754719 
L 130.74576 73.754719 
L 130.865196 80.403127 
L 131.011173 80.403127 
L 131.123973 85.114597 
L 131.210232 85.114597 
L 131.323032 87.575032 
L 131.409291 87.575032 
L 131.522091 92.600601 
L 131.60835 92.600601 
L 131.72115 95.218084 
L 131.807409 95.218084 
L 131.920209 103.541682 
L 131.940115 103.541682 
L 132.052915 106.473264 
L 132.139174 106.473264 
L 132.25861 115.791506 
L 132.47094 115.791506 
L 132.590375 126.20909 
L 132.736352 126.20909 
L 132.855787 137.254871 
L 133.001764 137.254871 
L 133.114564 141.547544 
L 133.200823 141.547544 
L 133.320259 144.269727 
L 133.333529 144.269727 
L 133.452965 146.047851 
L 133.598942 146.097371 
L 133.718377 147.23342 
L 133.798001 147.2811 
L 133.917436 147.888651 
L 133.930707 147.888651 
L 134.043507 148.131346 
L 134.196119 148.228705 
L 134.32219 148.316489 
L 134.594237 148.244629 
L 134.707038 148.186986 
L 134.85965 148.178956 
L 134.97245 148.021628 
L 135.456827 147.918382 
L 135.52318 147.821255 
L 135.569627 147.872516 
L 135.655886 147.774726 
L 135.722239 147.729592 
L 135.762051 147.781822 
L 136.120358 147.703824 
L 136.186711 147.65907 
L 136.233158 147.668253 
L 138.509068 147.722214 
L 138.628503 147.949601 
L 138.641774 147.949601 
L 138.708127 147.785196 
L 138.754574 147.846917 
L 138.840833 147.880536 
L 138.960268 148.048455 
L 139.039892 148.048455 
L 139.106245 148.172642 
L 139.11288 147.967924 
L 139.146057 147.967924 
L 139.172598 147.967924 
L 139.238951 147.828095 
L 139.285398 147.892031 
L 139.371657 147.931667 
L 139.484458 148.039203 
L 139.63707 148.100456 
L 139.756505 147.730023 
L 139.836129 147.79654 
L 139.948929 147.886264 
L 140.101541 147.93897 
L 140.167894 147.706912 
L 140.214341 147.775729 
L 140.433306 147.854477 
L 140.546106 147.935345 
L 140.566012 147.935345 
L 140.632365 147.752512 
L 140.678813 147.823583 
L 140.964131 147.743532 
L 141.030484 147.959153 
L 141.076931 147.855565 
L 141.096837 147.855565 
L 141.16319 147.639329 
L 141.209637 147.663793 
L 141.362249 147.663793 
L 141.475049 147.887359 
L 141.561308 147.839715 
L 141.680744 147.616457 
L 141.760367 147.616457 
L 141.879803 147.844781 
L 142.02578 147.840208 
L 142.13858 147.641237 
L 142.158486 147.641237 
L 142.277921 147.841315 
L 142.490251 147.850846 
L 142.556604 147.659698 
L 142.603051 147.747437 
L 142.68931 147.830738 
L 142.80211 147.959388 
L 142.822016 147.959388 
L 142.888369 147.812215 
L 142.934816 147.896842 
L 143.021075 147.799625 
L 143.087428 147.771075 
L 143.094064 147.905574 
L 143.107334 147.905574 
L 143.286488 147.852845 
L 143.399288 147.766159 
L 143.485547 147.855112 
L 143.611618 147.937222 
L 144.149077 147.872079 
L 144.21543 147.810805 
L 144.222066 147.907108 
L 144.255242 147.907108 
L 144.878961 147.974864 
L 144.945314 148.077792 
L 144.951949 147.86866 
L 144.97849 147.86866 
L 145.210726 147.979487 
L 145.277079 148.085016 
L 145.283714 147.953691 
L 145.316891 147.953691 
L 145.608844 148.03685 
L 145.675198 148.147992 
L 145.721645 148.074652 
L 145.741551 148.074652 
L 145.807904 147.923509 
L 145.847715 148.038846 
L 145.94061 148.038846 
L 146.006963 148.170675 
L 146.013598 148.025748 
L 146.046775 148.025748 
L 146.206022 148.089138 
L 146.318822 148.168061 
L 146.537787 148.148766 
L 146.60414 148.053205 
L 146.650587 148.116774 
L 146.670493 148.116774 
L 146.736846 148.242974 
L 146.743482 148.091662 
L 146.776658 148.091662 
L 146.869552 148.073179 
L 146.982353 148.203963 
L 147.267671 148.279315 
L 147.334024 148.315366 
L 147.340659 148.21716 
L 147.3672 148.21716 
L 147.400377 148.21716 
L 147.513177 148.357828 
L 147.665789 148.347319 
L 147.732142 148.228586 
L 147.738778 148.405451 
L 147.771954 148.405451 
L 147.798495 148.405451 
L 147.864848 148.238636 
L 147.911295 148.254166 
L 147.931201 148.254166 
L 147.997554 148.406189 
L 148.044002 148.305563 
L 148.130261 148.30837 
L 148.196614 148.46567 
L 148.236425 148.319506 
L 148.395673 148.392931 
L 148.462026 148.555598 
L 148.508473 148.504357 
L 148.528379 148.504357 
L 148.594732 148.375755 
L 148.641179 148.420222 
L 148.727438 148.420222 
L 148.793791 148.592383 
L 148.840238 148.5712 
L 148.860144 148.5712 
L 148.926497 148.434808 
L 148.972944 148.482819 
L 148.99285 148.482819 
L 149.10565 148.665015 
L 149.125556 148.665015 
L 149.191909 148.464614 
L 149.198545 148.722472 
L 149.231721 148.722472 
L 149.324615 148.722472 
L 149.390969 148.563133 
L 149.437416 148.579921 
L 149.523675 148.632741 
L 149.590028 148.835002 
L 149.62984 148.65045 
L 149.722734 148.681632 
L 149.835534 148.892796 
L 149.921793 148.965566 
L 150.034593 148.762798 
L 150.187205 148.858825 
L 150.253558 149.090109 
L 150.29337 148.898209 
L 150.386264 148.953892 
L 150.452617 149.196784 
L 150.492429 148.984862 
L 150.585324 149.056443 
L 150.698124 149.105727 
L 150.71803 149.105727 
L 150.83083 149.428025 
L 150.850736 149.428025 
L 150.917089 149.229505 
L 150.923724 149.508089 
L 150.956901 149.508089 
L 151.049795 149.573659 
L 151.162595 149.367963 
L 151.248854 149.437388 
L 151.36829 149.831716 
L 151.580619 149.831716 
L 151.646972 149.607111 
L 151.653608 149.932906 
L 151.686784 149.932906 
L 151.779679 149.932906 
L 151.846032 150.293715 
L 151.892479 150.072727 
L 151.912385 150.072727 
L 152.038455 150.64173 
L 152.045091 150.64173 
L 152.111444 150.457433 
L 152.118079 150.719126 
L 152.151256 150.719126 
L 152.177797 150.719126 
L 152.297232 151.452664 
L 152.443209 151.367392 
L 152.562645 152.214316 
L 152.575915 152.214316 
L 152.688715 152.687796 
L 152.774974 152.730241 
L 152.89441 153.784654 
L 152.90768 153.784654 
L 153.020481 154.546293 
L 153.10674 154.546293 
L 153.226175 155.971921 
L 153.239446 155.971921 
L 153.358881 156.758159 
L 153.372152 156.758159 
L 153.491587 158.166691 
L 153.571211 158.166691 
L 153.730458 160.354212 
L 153.836623 160.354212 
L 153.975965 163.06667 
L 154.035682 163.06667 
L 154.148483 163.510378 
L 154.168388 163.510378 
L 154.287824 165.320068 
L 154.301095 165.320068 
L 154.440436 167.752346 
L 154.500154 167.752346 
L 154.612954 169.03062 
L 154.63286 169.03062 
L 154.772201 171.71993 
L 154.831919 171.71993 
L 154.951354 174.571728 
L 155.030978 174.571728 
L 155.150414 176.059994 
L 155.163684 176.059994 
L 155.28312 179.164573 
L 155.362743 179.164573 
L 155.488814 181.595656 
L 155.49545 181.595656 
L 155.62152 183.924455 
L 155.694509 183.929839 
L 155.840485 176.848593 
L 155.893568 176.848593 
L 156.039545 150.372957 
L 156.092627 150.372957 
L 156.212063 117.175264 
L 156.225333 117.175264 
L 156.338133 92.552127 
L 156.358039 92.552127 
L 156.48411 60.075954 
L 156.490745 60.075954 
L 156.610181 45.692871 
L 156.623451 45.692871 
L 156.742887 31.965127 
L 156.822511 31.965127 
L 156.888864 32.329657 
L 156.895499 31.822631 
L 156.928676 31.822631 
L 157.087923 31.822631 
L 157.207358 35.068311 
L 157.286982 35.068311 
L 157.399782 36.7435 
L 157.486041 36.7435 
L 157.605477 41.821418 
L 157.817806 41.821418 
L 157.930607 45.276497 
L 157.950513 45.276497 
L 158.063313 47.004036 
L 158.149572 47.004036 
L 158.269007 52.500751 
L 158.481337 52.500751 
L 158.594137 54.33299 
L 158.614043 54.33299 
L 158.726843 59.986755 
L 158.746749 59.986755 
L 158.859549 61.976042 
L 159.012161 61.976042 
L 159.131597 68.048604 
L 159.277574 68.048604 
L 159.397009 74.382915 
L 159.609339 74.382915 
L 159.722139 78.832637 
L 159.742045 78.832637 
L 159.854845 81.083673 
L 159.941104 81.083673 
L 160.053904 85.847493 
L 160.07381 85.847493 
L 160.18661 88.307927 
L 160.272869 88.307927 
L 160.392305 96.108029 
L 160.538282 96.108029 
L 160.651082 101.657094 
L 160.737341 101.657094 
L 160.850141 104.536326 
L 160.9364 104.536326 
L 161.0492 113.697519 
L 161.135459 113.697519 
L 161.248259 116.995548 
L 161.334518 116.995548 
L 161.453954 127.570182 
L 161.599931 127.570182 
L 161.719366 138.092466 
L 161.931696 138.092466 
L 162.044496 142.071041 
L 162.064402 142.071041 
L 162.183837 144.583825 
L 162.263461 144.583825 
L 162.382897 146.204157 
L 162.46252 146.253998 
L 162.581956 147.284904 
L 162.727932 147.332515 
L 162.847368 147.88814 
L 162.860639 147.88814 
L 162.973439 148.084423 
L 163.059698 148.130326 
L 163.179133 148.265237 
L 163.457816 148.19372 
L 163.524169 148.136214 
L 163.570616 148.183826 
L 163.789581 148.075741 
L 163.855934 148.022152 
L 163.895746 148.070837 
L 163.98864 147.969402 
L 164.054994 147.918547 
L 164.094805 147.968178 
L 164.1877 147.868541 
L 164.3005 147.819382 
L 164.718524 147.735618 
L 164.784877 147.692611 
L 164.824689 147.745203 
L 165.116642 147.713117 
L 165.182995 147.620713 
L 165.229443 147.630629 
L 166.908175 147.684566 
L 166.974528 147.743955 
L 167.020975 147.724961 
L 167.173587 147.798432 
L 167.293023 147.933146 
L 167.372646 147.94804 
L 167.485446 148.113629 
L 167.571705 148.173404 
L 167.638058 148.24846 
L 167.684506 148.218901 
L 168.235236 148.16805 
L 168.301589 148.030229 
L 168.348036 148.094245 
L 168.699707 148.067579 
L 168.76606 147.981678 
L 168.812508 148.047951 
L 168.832413 148.047951 
L 168.945214 147.902748 
L 169.363238 147.867977 
L 169.429591 147.767459 
L 169.476038 147.823174 
L 169.761356 147.812137 
L 169.827709 147.705299 
L 169.874156 147.777936 
L 171.818301 147.809382 
L 171.884654 147.895068 
L 171.931101 147.875943 
L 173.278068 147.971732 
L 173.397504 147.98913 
L 174.538776 148.056075 
L 174.605129 148.114687 
L 174.611764 147.996961 
L 174.638306 147.996961 
L 174.737835 147.996961 
L 174.850635 148.112268 
L 175.799484 148.104901 
L 175.912284 148.254472 
L 175.998543 148.254472 
L 176.064896 148.113563 
L 176.071532 148.277907 
L 176.104708 148.277907 
L 176.728427 148.262213 
L 176.841227 148.428752 
L 176.861133 148.428752 
L 176.927486 148.299426 
L 176.934121 148.453364 
L 176.967298 148.453364 
L 177.060192 148.457918 
L 177.126545 148.311315 
L 177.133181 148.470816 
L 177.166357 148.470816 
L 177.325604 148.51945 
L 177.391957 148.355814 
L 177.438405 148.36486 
L 177.45831 148.36486 
L 177.571111 148.554234 
L 177.591017 148.554234 
L 177.703817 148.410467 
L 177.790076 148.421046 
L 177.856429 148.599489 
L 177.896241 148.442554 
L 177.989135 148.474092 
L 178.055488 148.660081 
L 178.0953 148.516773 
L 178.3209 148.545659 
L 178.440336 148.814876 
L 178.586312 148.859216 
L 178.652665 148.683988 
L 178.659301 148.893778 
L 178.692477 148.893778 
L 178.785372 148.942 
L 178.851725 148.761837 
L 178.85836 149.203161 
L 178.884901 149.203161 
L 178.918078 149.203161 
L 179.030878 149.013578 
L 179.050784 149.013578 
L 179.117137 148.831672 
L 179.163584 148.891403 
L 179.18349 148.891403 
L 179.29629 149.166447 
L 179.316196 149.166447 
L 179.382549 148.974286 
L 179.428996 149.044543 
L 179.448902 149.044543 
L 179.561702 149.300679 
L 179.647961 149.354515 
L 179.714314 149.139776 
L 179.72095 149.682443 
L 179.747491 149.682443 
L 179.84702 149.682443 
L 179.913373 149.489068 
L 179.959821 149.571799 
L 180.04608 149.640428 
L 180.112433 149.412588 
L 180.119068 149.716733 
L 180.152244 149.716733 
L 180.245139 149.803507 
L 180.311492 149.576115 
L 180.318127 149.900974 
L 180.351304 149.900974 
L 180.444198 149.900974 
L 180.510551 150.013403 
L 180.517186 149.776071 
L 180.543728 149.776071 
L 180.576904 149.776071 
L 180.716245 150.436335 
L 180.775963 150.436335 
L 180.842316 150.23876 
L 180.848952 150.624939 
L 180.875493 150.624939 
L 180.975022 150.624939 
L 181.041375 150.853686 
L 181.087823 150.710035 
L 181.107728 150.710035 
L 181.233799 151.451364 
L 181.240435 151.451364 
L 181.353235 151.804265 
L 181.373141 151.804265 
L 181.485941 152.238353 
L 181.505847 152.238353 
L 181.618647 152.730432 
L 181.638553 152.730432 
L 181.757988 153.7846 
L 181.771259 153.7846 
L 181.950412 155.065015 
L 181.970318 155.065015 
L 182.083118 155.758387 
L 182.103024 155.758387 
L 182.262272 157.294523 
L 182.302083 157.294523 
L 182.414884 158.122396 
L 182.43479 158.122396 
L 182.580766 159.932307 
L 182.633849 159.932307 
L 182.753284 161.283928 
L 182.832908 161.283928 
L 182.945708 161.912375 
L 182.965614 161.912375 
L 183.085049 164.525991 
L 183.09832 164.525991 
L 183.217756 165.692177 
L 183.231026 165.692177 
L 183.350462 167.596233 
L 183.363732 167.596233 
L 183.476532 168.857298 
L 183.496438 168.857298 
L 183.609239 169.442385 
L 183.629145 169.442385 
L 183.74858 172.151543 
L 183.761851 172.151543 
L 183.881286 174.33191 
L 183.894557 174.33191 
L 184.020628 176.527231 
L 184.027263 176.527231 
L 184.153334 178.873435 
L 184.226322 178.873435 
L 184.345758 180.470112 
L 184.491734 180.470112 
L 184.61117 183.926923 
L 184.62444 183.926923 
L 184.737241 180.404425 
L 184.757146 180.404425 
L 184.883217 172.086706 
L 184.889853 172.086706 
L 185.009288 150.263591 
L 185.022559 150.263591 
L 185.168535 92.73018 
L 185.287971 92.73018 
L 185.414042 61.410626 
L 185.420677 61.410626 
L 185.540112 47.153062 
L 185.553383 47.153062 
L 185.672819 34.377136 
L 185.686089 34.377136 
L 185.798889 32.432899 
L 185.818795 32.432899 
L 185.931596 32.874304 
L 186.017854 32.874304 
L 186.163831 36.848199 
L 186.283267 36.848199 
L 186.402702 40.250928 
L 186.548679 40.250928 
L 186.668114 45.433546 
L 186.814091 45.433546 
L 186.933527 48.993323 
L 187.01315 48.993323 
L 187.12595 50.825562 
L 187.212209 50.825562 
L 187.331645 56.374627 
L 187.543975 56.374627 
L 187.66341 62.185441 
L 187.809387 62.185441 
L 187.922187 66.216366 
L 187.942093 66.216366 
L 188.054893 68.258003 
L 188.273858 68.258003 
L 188.386659 74.644663 
L 188.539271 74.644663 
L 188.658706 81.397771 
L 188.804683 81.397771 
L 188.917483 86.161591 
L 188.937389 86.161591 
L 189.050189 88.622026 
L 189.136448 88.622026 
L 189.249248 93.752293 
L 189.269154 93.752293 
L 189.381954 96.474476 
L 189.468213 96.474476 
L 189.587649 104.902774 
L 189.799979 104.902774 
L 189.912779 114.168666 
L 190.065391 114.168666 
L 190.178191 120.817074 
L 190.198097 120.817074 
L 190.310897 124.324502 
L 190.463509 124.324502 
L 190.582945 135.78908 
L 190.728921 135.78908 
L 190.848357 142.22809 
L 190.994334 142.22809 
L 191.113769 145.52612 
L 191.392452 145.52612 
L 191.505252 147.639448 
L 191.591511 147.639448 
L 191.704311 147.934689 
L 191.856923 148.032831 
L 191.976359 148.223662 
L 192.520454 148.184861 
L 192.633254 148.076262 
L 192.852219 147.970454 
L 192.918572 147.919075 
L 192.958384 147.969234 
L 193.117631 147.869071 
L 193.183984 147.820447 
L 193.223796 147.871032 
L 193.449397 147.82781 
L 193.562197 147.731207 
L 194.17928 147.631728 
L 194.298716 147.594992 
L 195.439988 147.656267 
L 195.552788 147.714545 
L 195.639047 147.784716 
L 195.7054 147.843071 
L 195.751848 147.822457 
L 195.970813 147.92097 
L 196.083613 148.071327 
L 196.169872 148.071327 
L 196.236225 148.248457 
L 196.282672 148.216763 
L 196.435284 148.304462 
L 196.501637 148.333969 
L 196.548084 148.304243 
L 196.966108 148.328922 
L 197.078909 148.161519 
L 197.563286 148.082093 
L 197.629639 147.974382 
L 197.676086 148.040655 
L 197.762345 148.00052 
L 197.828698 147.894766 
L 197.875145 147.962304 
L 198.359523 147.872396 
L 198.425876 147.773386 
L 198.472323 147.788461 
L 199.686584 147.740651 
L 199.752937 147.658247 
L 199.759572 147.816301 
L 199.786113 147.816301 
L 201.743528 147.837025 
L 201.856329 147.931426 
L 203.136942 147.935775 
L 203.203296 148.044976 
L 203.243107 147.952168 
L 203.468708 147.971863 
L 203.535061 148.083109 
L 203.574873 147.990572 
L 203.601414 147.990572 
L 203.714214 148.105837 
L 203.73412 148.105837 
L 203.800473 147.993381 
L 203.807108 148.110711 
L 203.840285 148.110711 
L 204.663063 148.098075 
L 204.775863 148.247598 
L 205.525652 148.218887 
L 205.645088 148.404544 
L 205.658359 148.404544 
L 205.771159 148.263799 
L 205.857418 148.263799 
L 205.923771 148.417861 
L 205.970218 148.331472 
L 205.990124 148.331472 
L 206.056477 148.490846 
L 206.096289 148.349173 
L 206.189183 148.349092 
L 206.255536 148.514254 
L 206.295348 148.357106 
L 206.454595 148.375225 
L 206.567395 148.546408 
L 206.98542 148.65195 
L 207.051773 148.698384 
L 207.058408 148.537367 
L 207.078314 148.537367 
L 207.184479 148.553325 
L 207.250832 148.750301 
L 207.297279 148.60535 
L 207.516244 148.675337 
L 207.582597 148.885127 
L 207.622409 148.718954 
L 207.715303 148.752988 
L 207.781656 148.973097 
L 207.821468 148.802635 
L 207.914362 148.845346 
L 208.027163 149.076325 
L 208.113422 149.118401 
L 208.179775 148.91442 
L 208.226222 148.986684 
L 208.312481 149.035013 
L 208.425281 149.291148 
L 208.445187 149.291148 
L 208.51154 149.082764 
L 208.557987 149.150818 
L 208.644246 149.200882 
L 208.710599 149.479131 
L 208.757046 149.275669 
L 208.976011 149.33461 
L 209.095447 149.477292 
L 209.108717 149.477292 
L 209.17507 149.79162 
L 209.221518 149.584152 
L 209.307776 149.665371 
L 209.37413 150.002484 
L 209.420577 149.781615 
L 209.506836 149.781615 
L 209.619636 149.915846 
L 209.639542 149.915846 
L 209.772248 150.62847 
L 209.838601 150.457944 
L 209.845236 150.856588 
L 209.871777 150.856588 
L 209.904954 150.856588 
L 209.971307 151.12553 
L 210.017754 151.009862 
L 210.03766 151.009862 
L 210.157096 151.803683 
L 210.303072 151.757747 
L 210.422508 152.676812 
L 210.435778 152.676812 
L 210.548579 153.275827 
L 210.634838 153.275827 
L 210.754273 154.383155 
L 210.767544 154.383155 
L 210.940062 155.742872 
L 210.966603 155.742872 
L 211.079403 156.489216 
L 211.298368 156.489216 
L 211.517333 160.270559 
L 211.56378 160.270559 
L 211.689851 161.886996 
L 211.696486 161.886996 
L 211.835828 164.030876 
L 211.895546 164.030876 
L 212.008346 165.171392 
L 212.028252 165.171392 
L 212.154323 166.352471 
L 212.160958 166.352471 
L 212.280393 168.131481 
L 212.293664 168.131481 
L 212.406464 169.426327 
L 212.42637 169.426327 
L 212.552441 171.493195 
L 212.559076 171.493195 
L 212.685147 173.550515 
L 212.758135 173.550515 
L 212.884206 175.786844 
L 212.890841 175.786844 
L 213.010277 178.054078 
L 213.023548 178.054078 
L 213.149618 180.456312 
L 213.156254 180.456312 
L 213.275689 182.095997 
L 213.355313 182.095997 
L 213.468113 183.927147 
L 213.554372 183.927147 
L 213.72689 172.082944 
L 213.753431 172.082944 
L 213.872867 150.252655 
L 213.886137 150.252655 
L 214.025479 104.872788 
L 214.085196 104.872788 
L 214.197997 80.730205 
L 214.217903 80.730205 
L 214.343973 52.953643 
L 214.350609 52.953643 
L 214.476679 37.865783 
L 214.483315 37.865783 
L 214.60275 32.381278 
L 214.682374 32.381278 
L 214.748727 32.822282 
L 214.755362 31.87498 
L 214.781903 31.87498 
L 214.81508 31.87498 
L 214.92788 33.49782 
L 214.947786 33.49782 
L 215.067222 36.848199 
L 215.213198 36.848199 
L 215.325999 40.250928 
L 215.345904 40.250928 
L 215.46534 43.653657 
L 215.544964 43.653657 
L 215.657764 45.433546 
L 215.67767 45.433546 
L 215.79047 47.161085 
L 215.943082 47.161085 
L 216.062517 52.605451 
L 216.075788 52.605451 
L 216.188588 54.490039 
L 216.208494 54.490039 
L 216.32793 58.259215 
L 216.473906 58.259215 
L 216.586707 62.133091 
L 216.606612 62.133091 
L 216.719413 64.122379 
L 216.739319 64.122379 
L 216.852119 66.164016 
L 216.872025 66.164016 
L 216.99146 70.35199 
L 217.137437 70.35199 
L 217.250237 74.644663 
L 217.270143 74.644663 
L 217.382943 76.843349 
L 217.469202 76.843349 
L 217.582002 81.397771 
L 217.601908 81.397771 
L 217.714708 83.753506 
L 217.800967 83.753506 
L 217.920403 91.187159 
L 218.132733 91.187159 
L 218.245533 93.752293 
L 218.331792 93.752293 
L 218.451227 105.007473 
L 218.530851 105.007473 
L 218.643651 107.939055 
L 218.796263 107.939055 
L 218.915699 117.466695 
L 219.061675 117.466695 
L 219.181111 128.198378 
L 219.393441 128.198378 
L 219.506241 135.89378 
L 219.526147 135.89378 
L 219.638947 138.458914 
L 219.658853 138.458914 
L 219.771653 142.33279 
L 219.791559 142.33279 
L 219.910995 144.688525 
L 219.924265 144.688525 
L 220.037065 145.52612 
L 220.123324 145.52612 
L 220.24276 146.824182 
L 220.322383 146.824182 
L 220.441819 147.638934 
L 220.45509 147.638934 
L 220.56789 147.985838 
L 220.720502 148.083913 
L 220.839937 148.223152 
L 221.450385 148.128392 
L 221.569821 148.022152 
L 221.914857 147.918547 
L 222.034292 147.819915 
L 222.379328 147.782361 
L 222.445681 147.686942 
L 222.492128 147.738849 
L 223.175565 147.696796 
L 223.241918 147.60678 
L 223.288365 147.661567 
L 224.635332 147.670833 
L 224.754768 147.893622 
L 224.768038 147.893622 
L 224.880838 148.115951 
L 225.166156 148.125255 
L 225.285592 148.303884 
L 226.095099 148.218406 
L 226.207899 148.106584 
L 226.625924 147.999298 
L 226.692277 147.894152 
L 226.738724 147.96169 
L 227.090395 147.901766 
L 227.203195 147.801123 
L 230.341695 147.831028 
L 230.46113 147.958435 
L 230.474401 147.958435 
L 230.540754 147.830929 
L 230.587201 147.924122 
L 231.668756 148.010402 
L 231.735109 148.04722 
L 231.741744 147.912841 
L 231.76165 147.912841 
L 231.934168 148.019244 
L 232.000521 148.028917 
L 232.007156 147.967315 
L 232.027062 147.967315 
L 232.19958 148.060429 
L 232.265933 148.081531 
L 232.272569 147.960831 
L 232.279204 147.960831 
L 232.332286 147.960831 
L 232.451722 148.103189 
L 232.464992 148.103189 
L 232.577793 147.987657 
L 232.597699 147.987657 
L 232.710499 148.108284 
L 233.592994 148.112691 
L 233.659347 148.24502 
L 233.699159 148.135271 
L 233.858407 148.16329 
L 233.92476 148.299205 
L 233.971207 148.274945 
L 234.455584 148.363791 
L 234.57502 148.419553 
L 234.58829 148.419553 
L 234.70109 148.261943 
L 234.720996 148.261943 
L 234.833796 148.448562 
L 234.920055 148.48896 
L 235.032856 148.319815 
L 235.119115 148.346211 
L 235.185468 148.511373 
L 235.225279 148.382108 
L 235.318174 148.398971 
L 235.384527 148.571001 
L 235.424339 148.399608 
L 235.583586 148.41008 
L 235.696386 148.613678 
L 235.716292 148.613678 
L 235.782645 148.463929 
L 235.829092 148.506512 
L 235.848998 148.506512 
L 235.961798 148.728087 
L 235.981704 148.728087 
L 236.094504 148.574964 
L 236.180763 148.602175 
L 236.293564 148.803235 
L 236.31347 148.803235 
L 236.379823 148.643191 
L 236.386458 148.882965 
L 236.419634 148.882965 
L 236.446176 148.882965 
L 236.512529 148.715674 
L 236.519164 148.931066 
L 236.552341 148.931066 
L 236.645235 148.969779 
L 236.711588 148.777356 
L 236.758035 148.841949 
L 236.844294 148.841949 
L 236.957094 149.116108 
L 236.977 149.116108 
L 237.043353 148.910936 
L 237.049988 149.153671 
L 237.083165 149.153671 
L 237.176059 149.23239 
L 237.288859 149.287574 
L 237.308765 149.287574 
L 237.375118 149.07914 
L 237.381754 149.341229 
L 237.41493 149.341229 
L 237.507825 149.417701 
L 237.574178 149.197155 
L 237.620625 149.271888 
L 237.640531 149.271888 
L 237.753331 149.626353 
L 237.972296 149.626353 
L 238.038649 149.41648 
L 238.045284 149.904806 
L 238.071825 149.904806 
L 238.105002 149.904806 
L 238.171355 149.661276 
L 238.217802 149.777451 
L 238.237708 149.777451 
L 238.350508 150.125843 
L 238.370414 150.125843 
L 238.436767 149.910198 
L 238.483214 150.064093 
L 238.50312 150.064093 
L 238.615921 150.436179 
L 238.635826 150.436179 
L 238.70218 150.624084 
L 238.741991 150.451994 
L 238.768533 150.451994 
L 238.881333 151.120991 
L 238.901239 151.120991 
L 238.967592 151.005247 
L 238.974227 151.342956 
L 238.994133 151.342956 
L 239.033945 151.342956 
L 239.100298 151.783936 
L 239.146745 151.752984 
L 239.166651 151.752984 
L 239.286086 152.671977 
L 239.432063 152.710814 
L 239.551499 153.870853 
L 239.631122 153.870853 
L 239.750558 155.032192 
L 239.763828 155.032192 
L 239.929711 156.47425 
L 239.962888 156.47425 
L 240.075688 157.262315 
L 240.095594 157.262315 
L 240.248206 158.972641 
L 240.294653 158.972641 
L 240.414088 160.873922 
L 240.427359 160.873922 
L 240.540159 161.247627 
L 240.560065 161.247627 
L 240.686136 162.936664 
L 240.692771 162.936664 
L 240.818842 164.030876 
L 240.825477 164.030876 
L 240.944913 165.663082 
L 241.024536 165.663082 
L 241.150607 167.574521 
L 241.157243 167.574521 
L 241.276678 170.146051 
L 241.289949 170.146051 
L 241.409384 171.492904 
L 241.489008 171.492904 
L 241.608443 173.549058 
L 241.621714 173.549058 
L 241.734514 175.009089 
L 241.75442 175.009089 
L 241.893761 178.862417 
L 241.953479 178.862417 
L 242.07955 181.267255 
L 242.086185 181.267255 
L 242.198985 182.10165 
L 242.285244 182.10165 
L 242.351597 183.927596 
L 242.398045 182.755674 
L 242.484304 182.755674 
L 242.597104 180.401511 
L 242.61701 180.401511 
L 242.736445 158.839309 
L 242.749716 158.839309 
L 242.869151 129.423061 
L 242.948775 129.423061 
L 243.06821 80.730205 
L 243.081481 80.730205 
L 243.194281 61.370181 
L 243.214187 61.370181 
L 243.326987 52.953643 
L 243.346893 52.953643 
L 243.466329 33.552959 
L 243.479599 33.552959 
L 243.599035 31.822631 
L 243.678659 31.822631 
L 243.791459 33.49782 
L 243.944071 33.49782 
L 244.056871 35.17301 
L 244.14313 35.17301 
L 244.275836 41.926118 
L 244.342189 41.926118 
L 244.454989 43.653657 
L 244.541248 43.653657 
L 244.660684 48.940974 
L 244.740307 48.940974 
L 244.853108 50.773212 
L 244.873014 50.773212 
L 244.992449 54.437689 
L 245.138426 54.437689 
L 245.251226 58.259215 
L 245.271132 58.259215 
L 245.383932 60.196153 
L 245.403838 60.196153 
L 245.516638 62.133091 
L 245.536544 62.133091 
L 245.65598 66.164016 
L 245.801956 66.164016 
L 245.921392 72.445977 
L 246.133722 72.445977 
L 246.246522 76.843349 
L 246.266428 76.843349 
L 246.379228 79.042035 
L 246.399134 79.042035 
L 246.511934 83.753506 
L 246.53184 83.753506 
L 246.64464 86.161591 
L 246.797252 86.161591 
L 246.916688 93.752293 
L 247.062664 93.752293 
L 247.175465 99.196659 
L 247.19537 99.196659 
L 247.308171 102.075891 
L 247.460783 102.075891 
L 247.580218 111.027685 
L 247.726195 111.027685 
L 247.84563 120.869424 
L 248.05796 120.869424 
L 248.177396 132.229303 
L 248.323372 132.229303 
L 248.436173 138.458914 
L 248.456078 138.458914 
L 248.568879 140.6576 
L 248.655138 140.6576 
L 248.767938 143.693881 
L 248.787844 143.693881 
L 248.907279 145.578469 
L 248.92055 145.578469 
L 249.03335 146.305678 
L 249.053256 146.305678 
L 249.172691 147.336906 
L 249.318668 147.383932 
L 249.438104 147.939357 
L 249.451374 147.939357 
L 249.564174 148.083913 
L 249.650433 148.083913 
L 249.716787 148.223152 
L 249.763234 148.218245 
L 250.380317 148.178437 
L 250.499753 148.021628 
L 251.043848 147.918382 
L 251.163283 147.777305 
L 251.441966 147.692611 
L 251.554766 147.651014 
L 253.432558 147.703567 
L 253.545358 147.85462 
L 253.565264 147.85462 
L 253.631617 148.030486 
L 253.678064 147.997634 
L 253.963382 147.978053 
L 254.082817 148.274422 
L 254.892325 148.26682 
L 255.005125 148.154034 
L 255.22409 148.124234 
L 255.343526 147.972558 
L 255.821267 147.890423 
L 255.934068 147.831456 
L 259.868804 147.865549 
L 259.935157 147.962883 
L 259.974969 147.881668 
L 260.067863 147.901251 
L 260.134216 148.000318 
L 260.180663 147.988674 
L 261.328571 147.988175 
L 261.394924 148.102391 
L 261.434736 147.986853 
L 261.593983 147.990953 
L 261.713419 148.150077 
L 261.793042 148.131996 
L 261.859395 148.028831 
L 261.866031 148.150913 
L 261.899207 148.150913 
L 262.589279 148.134405 
L 262.702079 148.268315 
L 262.788338 148.268315 
L 262.854691 148.136106 
L 262.861327 148.274066 
L 262.894503 148.274066 
L 263.25281 148.36013 
L 263.319163 148.391711 
L 263.325798 148.252176 
L 263.339069 148.252176 
L 263.451869 148.266857 
L 263.564669 148.443163 
L 263.650928 148.443163 
L 263.717281 148.318414 
L 263.763728 148.3277 
L 263.982693 148.3277 
L 264.049046 148.487074 
L 264.095493 148.380171 
L 264.115399 148.380171 
L 264.228199 148.569046 
L 264.248105 148.569046 
L 264.314458 148.398621 
L 264.321094 148.749065 
L 264.347635 148.749065 
L 264.380811 148.749065 
L 264.493612 148.587526 
L 264.513518 148.587526 
L 264.579871 148.456359 
L 264.626318 148.461896 
L 264.646224 148.461896 
L 264.765659 148.69428 
L 264.77893 148.69428 
L 264.845283 148.533221 
L 264.89173 148.57287 
L 265.177048 148.641052 
L 265.289848 148.880802 
L 265.309754 148.880802 
L 265.376107 148.713488 
L 265.382743 148.92888 
L 265.415919 148.92888 
L 265.575166 148.968673 
L 265.64152 148.79816 
L 265.687967 148.840817 
L 265.707873 148.840817 
L 265.820673 149.113815 
L 265.840579 149.113815 
L 265.906932 148.930739 
L 265.953379 148.981982 
L 265.973285 148.981982 
L 266.039638 149.230038 
L 266.07945 149.030247 
L 266.238697 149.097897 
L 266.351497 149.145921 
L 266.371403 149.145921 
L 266.484203 149.47292 
L 266.504109 149.47292 
L 266.570462 149.269368 
L 266.616909 149.328212 
L 266.636815 149.328212 
L 266.756251 149.719152 
L 266.769521 149.719152 
L 266.835874 149.489827 
L 266.84251 149.803978 
L 266.875686 149.803978 
L 267.034934 149.902123 
L 267.101287 149.676964 
L 267.147734 149.774675 
L 267.16764 149.774675 
L 267.287075 150.26742 
L 267.300346 150.26742 
L 267.366699 150.059783 
L 267.373334 150.433305 
L 267.399875 150.433305 
L 267.499405 150.433305 
L 267.565758 150.62116 
L 267.60557 150.432518 
L 267.632111 150.432518 
L 267.751547 151.117965 
L 267.764817 151.117965 
L 267.83117 151.428289 
L 267.877617 151.339828 
L 267.897523 151.339828 
L 268.016959 152.190843 
L 268.162936 152.201383 
L 268.282371 153.188178 
L 268.361995 153.267541 
L 268.48143 154.374756 
L 268.494701 154.374756 
L 268.607501 155.028788 
L 268.627407 155.028788 
L 268.79329 156.472503 
L 268.826466 156.472503 
L 268.945902 157.514153 
L 269.025525 157.514153 
L 269.151596 158.970831 
L 269.158231 158.970831 
L 269.290937 160.255709 
L 269.357291 160.255709 
L 269.476726 161.874705 
L 269.489997 161.874705 
L 269.609432 163.36362 
L 269.622703 163.36362 
L 269.748774 165.16245 
L 269.755409 165.16245 
L 269.88148 166.344033 
L 269.954468 166.344033 
L 270.073904 168.830536 
L 270.087174 168.830536 
L 270.20661 170.141163 
L 270.21988 170.141163 
L 270.33268 171.486532 
L 270.352586 171.486532 
L 270.472022 173.549058 
L 270.485292 173.549058 
L 270.611363 175.788324 
L 270.817058 175.788324 
L 270.98294 182.103806 
L 271.08247 182.103806 
L 271.201905 183.927596 
L 271.347882 183.927596 
L 271.5204 171.988901 
L 271.546941 171.988901 
L 271.699553 129.423061 
L 271.746001 129.423061 
L 271.858801 117.023372 
L 271.878707 117.023372 
L 272.004777 80.191583 
L 272.011413 80.191583 
L 272.137484 52.737458 
L 272.144119 52.737458 
L 272.256919 45.510347 
L 272.343178 45.510347 
L 272.409531 31.709025 
L 272.455978 32.071551 
L 272.542237 32.071551 
L 272.655037 31.560882 
L 272.674943 31.560882 
L 272.787743 33.131373 
L 272.807649 33.131373 
L 272.927085 36.429402 
L 273.139415 36.429402 
L 273.25885 41.55967 
L 273.404827 41.55967 
L 273.517627 44.962399 
L 273.537533 44.962399 
L 273.650333 46.742287 
L 273.802945 46.742287 
L 273.922381 52.186653 
L 274.068357 52.186653 
L 274.187793 57.788068 
L 274.33377 57.788068 
L 274.44657 61.661944 
L 274.532829 61.661944 
L 274.645629 63.651232 
L 274.665535 63.651232 
L 274.778335 67.734506 
L 274.798241 67.734506 
L 274.911041 69.828493 
L 275.063653 69.828493 
L 275.183089 76.319852 
L 275.329065 76.319852 
L 275.448501 83.17766 
L 275.660831 83.17766 
L 275.773631 88.046179 
L 275.793537 88.046179 
L 275.906337 90.558963 
L 275.992596 90.558963 
L 276.112031 98.568463 
L 276.324361 98.568463 
L 276.443797 107.258509 
L 276.589773 107.258509 
L 276.702574 113.43577 
L 276.72248 113.43577 
L 276.83528 116.68145 
L 276.987892 116.68145 
L 277.107327 127.360783 
L 277.253304 127.360783 
L 277.37274 137.987767 
L 277.651422 137.987767 
L 277.764223 140.238803 
L 277.784128 140.238803 
L 277.896929 145.185977 
L 277.916835 145.185977 
L 278.042905 143.328204 
L 278.049541 143.328204 
L 278.175611 140.826684 
L 278.182247 140.826684 
L 278.301682 135.475132 
L 278.381306 135.475132 
L 278.507377 128.854144 
L 278.514012 128.854144 
L 278.580365 126.337529 
L 278.626812 127.401063 
L 278.713071 127.37173 
L 278.825871 125.190132 
L 278.845777 125.190132 
L 278.978483 130.760393 
L 279.091284 129.506569 
L 279.11119 129.506569 
L 279.230625 137.162597 
L 279.243896 137.162597 
L 279.363331 145.275092 
L 279.442955 145.242773 
L 279.555755 148.498549 
L 279.575661 148.498549 
L 279.695096 152.796173 
L 279.77472 152.796173 
L 279.894156 154.619407 
L 279.973779 154.619407 
L 280.040132 154.749638 
L 280.079944 154.619407 
L 280.239191 154.619407 
L 280.358627 153.838021 
L 280.438251 153.838021 
L 280.564321 152.926404 
L 280.570957 152.926404 
L 280.683757 152.275249 
L 280.770016 152.275249 
L 280.889451 151.2334 
L 280.902722 151.2334 
L 281.015522 150.712476 
L 281.035428 150.712476 
L 281.148228 149.93109 
L 281.234487 149.93109 
L 281.353923 149.149704 
L 281.499899 149.149704 
L 281.619335 148.62878 
L 281.698959 148.62878 
L 281.825029 148.238087 
L 281.831665 148.238087 
L 281.944465 148.107856 
L 282.030724 148.107856 
L 282.150159 147.847394 
L 282.229783 147.847394 
L 282.349219 147.586932 
L 282.495195 147.586932 
L 282.607995 147.456701 
L 282.959667 147.456701 
L 283.072467 147.32647 
L 283.68955 147.32647 
L 283.755903 147.196239 
L 283.795715 147.32647 
L 284.353081 147.32647 
L 284.465881 147.196239 
L 284.485787 147.196239 
L 284.598587 147.32647 
L 284.684846 147.32647 
L 284.797646 147.196239 
L 286.011907 147.196239 
L 286.124707 147.32647 
L 286.144613 147.32647 
L 286.257413 147.196239 
L 286.542732 147.196239 
L 286.655532 147.32647 
L 286.675438 147.32647 
L 286.788238 147.196239 
L 287.670734 147.196239 
L 287.737087 147.32647 
L 287.776898 147.196239 
L 288.267911 147.196239 
L 288.380711 147.32647 
L 288.931442 147.32647 
L 288.997795 147.196239 
L 289.00443 147.52748 
L 289.030971 147.52748 
L 289.064148 147.52748 
L 289.21676 149.636786 
L 289.263207 149.636786 
L 289.395913 152.164854 
L 289.462266 152.164854 
L 289.588337 154.876521 
L 289.594972 154.876521 
L 289.714408 156.395061 
L 289.727678 156.395061 
L 289.847114 158.992558 
L 289.860384 158.992558 
L 289.926737 160.098055 
L 289.973184 159.594995 
L 290.125797 159.705309 
L 290.19215 160.603012 
L 290.198785 159.071663 
L 290.231961 159.071663 
L 290.258503 159.071663 
L 290.324856 157.668506 
L 290.371303 158.219614 
L 290.391209 158.219614 
L 290.510644 153.694912 
L 290.590268 153.694912 
L 290.703068 151.358621 
L 290.722974 151.358621 
L 290.84241 147.694892 
L 290.922033 147.703911 
L 291.041469 145.716897 
L 291.253798 145.716897 
L 291.373234 144.782507 
L 291.651917 144.824371 
L 291.764717 144.951283 
L 291.784623 144.951283 
L 291.910694 145.299054 
L 291.983682 145.309808 
L 292.103118 145.656979 
L 292.182741 145.656979 
L 292.295541 145.844974 
L 292.315447 145.844974 
L 292.434883 146.243923 
L 292.514506 146.253386 
L 292.633942 146.493282 
L 292.647213 146.493282 
L 292.760013 146.618317 
L 292.846272 146.627699 
L 292.965707 146.814479 
L 293.111684 146.895514 
L 293.231119 146.96715 
L 293.310743 147.038732 
L 293.430179 147.110258 
L 293.775215 147.209553 
L 293.89465 147.247683 
L 301.405816 147.338015 
L 301.472169 147.35884 
L 301.511981 147.318703 
L 313.88019 147.412847 
L 313.946543 147.448317 
L 313.99299 147.424978 
L 323.700442 147.340713 
L 323.766795 147.310264 
L 323.813242 147.337214 
L 356.943322 147.441065 
L 357.009675 147.457953 
L 357.056122 147.428655 
L 371.01017 147.507466 
L 371.129605 147.549256 
L 378.309006 147.608889 
L 378.421806 147.663809 
L 381.958424 147.705642 
L 382.071224 147.775753 
L 384.28078 147.873383 
L 384.347133 147.887047 
L 384.353769 147.800053 
L 384.367039 147.800053 
L 384.612546 147.820333 
L 384.678899 147.995056 
L 384.725346 147.913731 
L 386.138666 148.01252 
L 386.264737 148.027423 
L 387.664786 148.065049 
L 387.731139 148.185878 
L 387.770951 148.078187 
L 387.863845 148.094484 
L 387.930198 148.216893 
L 387.97001 148.101723 
L 388.129258 148.114223 
L 388.242058 148.260735 
L 388.261964 148.260735 
L 388.328317 148.141381 
L 388.374764 148.156319 
L 388.39467 148.156319 
L 388.50747 148.31027 
L 388.593729 148.31027 
L 388.660082 148.189629 
L 388.666717 148.325948 
L 388.699894 148.325948 
L 389.389966 148.357734 
L 389.502766 148.549601 
L 389.92079 148.534634 
L 389.987143 148.699096 
L 390.026955 148.572272 
L 390.119849 148.631678 
L 390.186202 148.801017 
L 390.232649 148.698604 
L 390.318908 148.76361 
L 390.431709 148.937897 
L 390.650674 149.035256 
L 390.770109 149.45046 
L 390.849733 149.503174 
L 390.962533 149.784035 
L 390.982439 149.784035 
L 391.101874 150.090831 
L 391.115145 150.090831 
L 391.234581 150.618935 
L 391.247851 150.618935 
L 391.373922 151.169113 
L 391.380557 151.169113 
L 391.506628 151.740265 
L 391.579616 151.740265 
L 391.705687 152.339127 
L 391.712323 152.339127 
L 391.838393 152.918936 
L 391.845029 152.918936 
L 391.964464 153.308568 
L 392.044088 153.308568 
L 392.163523 154.098233 
L 392.243147 154.098233 
L 392.362582 154.701195 
L 392.375853 154.701195 
L 392.495289 155.272432 
L 392.508559 155.272432 
L 392.627995 155.85197 
L 392.707618 155.85197 
L 392.820419 156.237723 
L 392.840324 156.237723 
L 392.979666 157.171904 
L 393.039384 157.171904 
L 393.152184 157.37272 
L 393.17209 157.37272 
L 393.291525 158.113179 
L 393.304796 158.113179 
L 393.417596 158.488452 
L 393.503855 158.488452 
L 393.62329 159.228066 
L 393.702914 159.228066 
L 393.82235 160.150561 
L 393.901973 160.150561 
L 394.014773 160.331661 
L 394.034679 160.331661 
L 394.154115 161.070188 
L 394.233739 161.070188 
L 394.353174 161.801138 
L 394.432798 161.801138 
L 394.552233 162.348784 
L 394.565504 162.348784 
L 394.684939 162.903163 
L 394.69821 162.903163 
L 394.817645 163.444077 
L 394.897269 163.444077 
L 395.016705 163.991723 
L 395.096328 163.991723 
L 395.215764 164.728802 
L 395.229034 164.728802 
L 395.355105 165.270319 
L 395.36174 165.270319 
L 395.481176 165.64049 
L 395.494447 165.64049 
L 395.607247 166.001269 
L 395.627153 166.001269 
L 395.753224 166.554441 
L 395.759859 166.554441 
L 395.88593 167.096561 
L 395.958918 167.096561 
L 396.078353 167.825248 
L 396.091624 167.825248 
L 396.204424 168.008551 
L 396.290683 168.008551 
L 396.410119 168.922804 
L 396.423389 168.922804 
L 396.53619 169.103844 
L 396.688802 169.103844 
L 396.801602 169.287147 
L 396.887861 169.287147 
L 397.007296 170.930086 
L 397.020567 170.930086 
L 397.140002 171.296692 
L 397.219626 171.296692 
L 397.339062 172.025379 
L 397.352332 172.025379 
L 397.465132 172.391985 
L 397.551391 172.391985 
L 397.670827 173.303975 
L 397.684097 173.303975 
L 397.796898 173.487278 
L 397.883157 173.487278 
L 398.002592 174.218227 
L 398.015863 174.218227 
L 398.128663 174.58257 
L 398.214922 174.58257 
L 398.340993 175.49456 
L 398.413981 175.49456 
L 398.533416 176.22551 
L 398.546687 176.22551 
L 398.659487 176.592116 
L 398.745746 176.592116 
L 398.865182 177.320802 
L 398.878452 177.320802 
L 399.004523 177.868449 
L 399.143865 177.868449 
L 399.2633 178.599398 
L 399.276571 178.599398 
L 399.389371 178.966004 
L 399.409277 178.966004 
L 399.522077 179.330348 
L 399.541983 179.330348 
L 399.654783 179.877994 
L 399.741042 179.877994 
L 399.853842 180.608944 
L 399.873748 180.608944 
L 399.986548 180.792247 
L 400.006454 180.792247 
L 400.12589 181.704236 
L 400.13916 181.704236 
L 400.258596 182.06858 
L 400.271866 182.06858 
L 400.384667 182.435186 
L 400.470926 182.435186 
L 400.610267 183.270233 
L 400.736338 183.270233 
L 400.849138 182.064054 
L 400.869044 182.064054 
L 400.988479 165.177536 
L 401.00175 165.177536 
L 401.11455 149.497198 
L 401.200809 149.497198 
L 401.320245 104.861755 
L 401.333515 104.861755 
L 401.459586 70.311908 
L 401.466221 70.311908 
L 401.592292 46.529664 
L 401.598928 46.529664 
L 401.718363 37.400825 
L 401.731634 37.400825 
L 401.844434 31.939418 
L 401.86434 31.939418 
L 401.990411 29.920956 
L 401.997046 29.920956 
L 402.116481 32.791848 
L 402.196105 32.791848 
L 402.308905 34.490968 
L 402.395164 34.490968 
L 402.5146 39.853818 
L 402.72693 39.853818 
L 402.846365 44.844986 
L 403.058695 44.844986 
L 403.171495 48.508715 
L 403.191401 48.508715 
L 403.304201 50.473323 
L 403.456813 50.473323 
L 403.576249 54.243248 
L 403.655872 54.243248 
L 403.768672 59.871585 
L 403.788578 59.871585 
L 403.901379 61.889291 
L 403.987638 61.889291 
L 404.100438 66.083996 
L 404.120344 66.083996 
L 404.233144 68.207897 
L 404.319403 68.207897 
L 404.432203 72.508796 
L 404.452109 72.508796 
L 404.564909 74.632697 
L 404.651168 74.632697 
L 404.770604 81.535376 
L 404.91658 81.535376 
L 405.02938 86.473445 
L 405.049286 86.473445 
L 405.162087 89.022127 
L 405.248346 89.022127 
L 405.361146 94.278782 
L 405.381052 94.278782 
L 405.493852 97.039853 
L 405.646464 97.039853 
L 405.765899 105.747847 
L 405.911876 105.747847 
L 406.031312 115.252304 
L 406.243641 115.252304 
L 406.356442 122.154982 
L 406.376347 122.154982 
L 406.489148 125.871809 
L 406.575407 125.871809 
L 406.694842 137.659459 
L 406.840819 137.659459 
L 406.953619 142.650627 
L 406.973525 142.650627 
L 407.086325 144.349748 
L 407.106231 144.349748 
L 407.225667 146.357903 
L 407.238937 146.357903 
L 407.365008 144.681734 
L 407.371643 144.681734 
L 407.491079 140.923898 
L 407.504349 140.923898 
L 407.63042 134.581721 
L 407.703409 134.581721 
L 407.829479 130.815868 
L 407.836115 130.815868 
L 407.902468 128.230958 
L 407.948915 129.331644 
L 408.035174 129.227311 
L 408.101527 127.133455 
L 408.147974 128.422249 
L 408.16788 128.422249 
L 408.28068 132.425443 
L 408.300586 132.425443 
L 408.366939 131.219092 
L 408.373574 134.817608 
L 408.39348 134.817608 
L 408.433292 134.817608 
L 408.552728 142.933709 
L 408.565998 142.933709 
L 408.632351 142.68348 
L 408.745152 146.460144 
L 408.765057 146.460144 
L 408.877858 149.410166 
L 408.897764 149.410166 
L 409.017199 153.317097 
L 409.03047 153.317097 
L 409.14327 154.228714 
L 409.163176 154.228714 
L 409.275976 154.879869 
L 409.428588 154.879869 
L 409.548023 154.358945 
L 409.627647 154.358945 
L 409.747083 153.317097 
L 409.760353 153.317097 
L 409.873153 152.796173 
L 409.893059 152.796173 
L 410.012495 151.624094 
L 410.158472 151.624094 
L 410.271272 151.103169 
L 410.357531 151.103169 
L 410.490237 149.800859 
L 410.55659 149.800859 
L 410.676025 149.149704 
L 410.755649 149.149704 
L 410.868449 148.889242 
L 410.888355 148.889242 
L 411.007791 148.368318 
L 411.087414 148.368318 
L 411.213485 147.977625 
L 411.352827 147.977625 
L 411.465627 147.847394 
L 411.551886 147.847394 
L 411.671321 147.586932 
L 411.684592 147.586932 
L 411.797392 147.456701 
L 412.08271 147.456701 
L 412.19551 147.32647 
L 413.542477 147.32647 
L 413.542477 147.32647 
" style="fill:none;stroke:#e41a1c;stroke-linecap:square;stroke-width:2;"/>
   </g>
   <g id="patch_3">
    <path d="M 79.79325 230.88 
L 79.79325 14.52 
" style="fill:none;stroke:#000000;stroke-linecap:square;stroke-linejoin:miter;stroke-width:0.8;"/>
   </g>
   <g id="patch_4">
    <path d="M 413.542477 230.88 
L 413.542477 14.52 
" style="fill:none;"/>
   </g>
   <g id="patch_5">
    <path d="M 79.79325 230.88 
L 413.542477 230.88 
" style="fill:none;stroke:#000000;stroke-linecap:square;stroke-linejoin:miter;stroke-width:0.8;"/>
   </g>
   <g id="patch_6">
    <path d="M 79.79325 14.52 
L 413.542477 14.52 
" style="fill:none;"/>
   </g>
   <g id="legend_1">
    <g id="patch_7">
     <path d="M 84.59325 229.28 
L 240.97652 229.28 
Q 244.17652 229.28 244.17652 226.08 
L 244.17652 204.54415 
Q 244.17652 201.34415 240.97652 201.34415 
L 84.59325 201.34415 
Q 81.39325 201.34415 81.39325 204.54415 
L 81.39325 226.08 
Q 81.39325 229.28 84.59325 229.28 
z
" style="fill:#ffffff;stroke:#000000;stroke-linejoin:miter;"/>
    </g>
    <g id="line2d_12">
     <path d="M 87.79325 214.00011 
L 119.79325 214.00011 
" style="fill:none;stroke:#e41a1c;stroke-linecap:square;stroke-width:2;"/>
    </g>
    <g id="line2d_13"/>
    <g id="text_13">
     <!-- Surface Speed -->
     <g transform="translate(132.59325 219.60011)scale(0.16 -0.16)">
      <use transform="translate(0 -1.570628)scale(0.996264)" xlink:href="#Century_Schoolbook_L_Roman-83"/>
      <use transform="translate(62.763979 -1.570628)scale(0.996264)" xlink:href="#Century_Schoolbook_L_Roman-117"/>
      <use transform="translate(123.63561 -1.570628)scale(0.996264)" xlink:href="#Century_Schoolbook_L_Roman-114"/>
      <use transform="translate(167.869178 -1.570628)scale(0.996264)" xlink:href="#Century_Schoolbook_L_Roman-102"/>
      <use transform="translate(201.044408 -1.570628)scale(0.996264)" xlink:href="#Century_Schoolbook_L_Roman-97"/>
      <use transform="translate(256.436085 -1.570628)scale(0.996264)" xlink:href="#Century_Schoolbook_L_Roman-99"/>
      <use transform="translate(300.669654 -1.570628)scale(0.996264)" xlink:href="#Century_Schoolbook_L_Roman-101"/>
      <use transform="translate(378.178024 -1.570628)scale(0.996264)" xlink:href="#Century_Schoolbook_L_Roman-83"/>
      <use transform="translate(440.942003 -1.570628)scale(0.996264)" xlink:href="#Century_Schoolbook_L_Roman-112"/>
      <use transform="translate(498.12749 -1.570628)scale(0.996264)" xlink:href="#Century_Schoolbook_L_Roman-101"/>
      <use transform="translate(547.940691 -1.570628)scale(0.996264)" xlink:href="#Century_Schoolbook_L_Roman-101"/>
      <use transform="translate(597.753891 -1.570628)scale(0.996264)" xlink:href="#Century_Schoolbook_L_Roman-100"/>
     </g>
    </g>
   </g>
  </g>
 </g>
 <defs>
  <clipPath id="p3c646ac416">
   <rect height="216.36" width="333.749227" x="79.79325" y="14.52"/>
  </clipPath>
 </defs>
</svg>
