<?xml version="1.0" encoding="utf-8" standalone="no"?>
<!DOCTYPE svg PUBLIC "-//W3C//DTD SVG 1.1//EN"
  "http://www.w3.org/Graphics/SVG/1.1/DTD/svg11.dtd">
<!-- Created with matplotlib (https://matplotlib.org/) -->
<svg height="288pt" version="1.1" viewBox="0 0 432 288" width="432pt" xmlns="http://www.w3.org/2000/svg" xmlns:xlink="http://www.w3.org/1999/xlink">
 <defs>
  <style type="text/css">
*{stroke-linecap:butt;stroke-linejoin:round;}
  </style>
 </defs>
 <g id="figure_1">
  <g id="patch_1">
   <path d="M 0 288 
L 432 288 
L 432 0 
L 0 0 
z
" style="fill:#ffffff;"/>
  </g>
  <g id="axes_1">
   <g id="patch_2">
    <path d="M 65.32538 230.88 
L 413.542477 230.88 
L 413.542477 14.52 
L 65.32538 14.52 
z
" style="fill:#ffffff;"/>
   </g>
   <g id="matplotlib.axis_1">
    <g id="xtick_1">
     <g id="line2d_1">
      <defs>
       <path d="M 0 0 
L 0 3.5 
" id="me76877fe1c" style="stroke:#000000;stroke-width:0.8;"/>
      </defs>
      <g>
       <use style="stroke:#000000;stroke-width:0.8;" x="134.554807" xlink:href="#me76877fe1c" y="230.88"/>
      </g>
     </g>
     <g id="text_1">
      <!-- $10$ -->
      <defs>
       <path d="M 26.59375 63.40625 
C 26.59375 65.5 26.5 65.5 25.09375 65.5 
C 21.203125 61.1875 15.296875 59.796875 9.703125 59.796875 
C 9.40625 59.796875 8.90625 59.796875 8.796875 59.5 
C 8.703125 59.296875 8.703125 59.09375 8.703125 57 
C 11.796875 57 17 57.59375 21 59.984375 
L 21 7.203125 
C 21 3.6875 20.796875 2.5 12.203125 2.5 
L 9.203125 2.5 
L 9.203125 0 
C 14 0 19 0 23.796875 0 
C 28.59375 0 33.59375 0 38.40625 0 
L 38.40625 2.5 
L 35.40625 2.5 
C 26.796875 2.5 26.59375 3.59375 26.59375 7.15625 
z
" id="CMR17-49"/>
       <path d="M 42 31.640625 
C 42 37.75 41.90625 48.125 37.703125 56.109375 
C 34 63.109375 28.09375 65.59375 22.90625 65.59375 
C 18.09375 65.59375 12 63.40625 8.203125 56.203125 
C 4.203125 48.71875 3.796875 39.4375 3.796875 31.640625 
C 3.796875 25.953125 3.90625 17.28125 7 9.671875 
C 11.296875 -0.609375 19 -2 22.90625 -2 
C 27.5 -2 34.5 -0.109375 38.59375 9.375 
C 41.59375 16.28125 42 24.359375 42 31.640625 
z
M 22.90625 -0.40625 
C 16.5 -0.40625 12.703125 5.078125 11.296875 12.6875 
C 10.203125 18.5625 10.203125 27.15625 10.203125 32.75 
C 10.203125 40.4375 10.203125 46.828125 11.5 52.921875 
C 13.40625 61.390625 19 64 22.90625 64 
C 27 64 32.296875 61.296875 34.203125 53.125 
C 35.5 47.4375 35.59375 40.734375 35.59375 32.75 
C 35.59375 26.25 35.59375 18.265625 34.40625 12.375 
C 32.296875 1.484375 26.40625 -0.40625 22.90625 -0.40625 
z
" id="CMR17-48"/>
      </defs>
      <g transform="translate(126.299682 251.21795)scale(0.18 -0.18)">
       <use transform="scale(0.996264)" xlink:href="#CMR17-49"/>
       <use transform="translate(45.690477 0)scale(0.996264)" xlink:href="#CMR17-48"/>
      </g>
     </g>
    </g>
    <g id="xtick_2">
     <g id="line2d_2">
      <g>
       <use style="stroke:#000000;stroke-width:0.8;" x="203.784235" xlink:href="#me76877fe1c" y="230.88"/>
      </g>
     </g>
     <g id="text_2">
      <!-- $20$ -->
      <defs>
       <path d="M 41.703125 15.453125 
L 39.90625 15.453125 
C 38.90625 8.375 38.09375 7.171875 37.703125 6.5625 
C 37.203125 5.765625 30 5.765625 28.59375 5.765625 
L 9.40625 5.765625 
C 13 9.671875 20 16.75 28.5 24.953125 
C 34.59375 30.734375 41.703125 37.53125 41.703125 47.421875 
C 41.703125 59.21875 32.296875 66 21.796875 66 
C 10.796875 66 4.09375 56.3125 4.09375 47.34375 
C 4.09375 43.4375 7 42.9375 8.203125 42.9375 
C 9.203125 42.9375 12.203125 43.546875 12.203125 47.03125 
C 12.203125 50.109375 9.59375 51 8.203125 51 
C 7.59375 51 7 50.90625 6.59375 50.703125 
C 8.5 59.21875 14.296875 63.40625 20.40625 63.40625 
C 29.09375 63.40625 34.796875 56.515625 34.796875 47.421875 
C 34.796875 38.734375 29.703125 31.25 24 24.75 
L 4.09375 2.28125 
L 4.09375 0 
L 39.296875 0 
z
" id="CMR17-50"/>
      </defs>
      <g transform="translate(195.52911 251.21795)scale(0.18 -0.18)">
       <use transform="scale(0.996264)" xlink:href="#CMR17-50"/>
       <use transform="translate(45.690477 0)scale(0.996264)" xlink:href="#CMR17-48"/>
      </g>
     </g>
    </g>
    <g id="xtick_3">
     <g id="line2d_3">
      <g>
       <use style="stroke:#000000;stroke-width:0.8;" x="273.013662" xlink:href="#me76877fe1c" y="230.88"/>
      </g>
     </g>
     <g id="text_3">
      <!-- $30$ -->
      <defs>
       <path d="M 22.09375 33.703125 
C 31 33.703125 34.90625 25.96875 34.90625 17.03125 
C 34.90625 5 28.5 0.390625 22.703125 0.390625 
C 17.40625 0.390625 8.796875 3.03125 6.09375 10.828125 
C 6.59375 10.625 7.09375 10.625 7.59375 10.625 
C 10 10.625 11.796875 12.21875 11.796875 14.8125 
C 11.796875 17.703125 9.59375 19 7.59375 19 
C 5.90625 19 3.296875 18.203125 3.296875 14.46875 
C 3.296875 5.234375 12.296875 -2 22.90625 -2 
C 34 -2 42.5 6.71875 42.5 16.953125 
C 42.5 26.671875 34.5 33.703125 25 34.796875 
C 32.59375 36.375 39.90625 43.0625 39.90625 52.015625 
C 39.90625 59.6875 32 65.296875 23 65.296875 
C 13.90625 65.296875 5.90625 59.828125 5.90625 52.015625 
C 5.90625 48.59375 8.5 48 9.796875 48 
C 11.90625 48 13.703125 49.296875 13.703125 51.890625 
C 13.703125 54.46875 11.90625 55.765625 9.796875 55.765625 
C 9.40625 55.765625 8.90625 55.765625 8.5 55.578125 
C 11.40625 61.859375 19.296875 63 22.796875 63 
C 26.296875 63 32.90625 61.328125 32.90625 51.875 
C 32.90625 49.109375 32.5 44.1875 29.09375 39.84375 
C 26.09375 36 22.703125 36 19.40625 35.6875 
C 18.90625 35.6875 16.59375 35.453125 16.203125 35.453125 
C 15.5 35.359375 15.09375 35.265625 15.09375 34.5 
C 15.09375 33.796875 15.203125 33.703125 17.203125 33.703125 
z
" id="CMR17-51"/>
      </defs>
      <g transform="translate(264.758537 251.21795)scale(0.18 -0.18)">
       <use transform="scale(0.996264)" xlink:href="#CMR17-51"/>
       <use transform="translate(45.690477 0)scale(0.996264)" xlink:href="#CMR17-48"/>
      </g>
     </g>
    </g>
    <g id="xtick_4">
     <g id="line2d_4">
      <g>
       <use style="stroke:#000000;stroke-width:0.8;" x="342.24309" xlink:href="#me76877fe1c" y="230.88"/>
      </g>
     </g>
     <g id="text_4">
      <!-- $40$ -->
      <defs>
       <path d="M 33.59375 64.40625 
C 33.59375 66.5 33.5 66.5 31.703125 66.5 
L 2 19.59375 
L 2 17 
L 27.796875 17 
L 27.796875 7.140625 
C 27.796875 3.5 27.59375 2.5 20.59375 2.5 
L 18.703125 2.5 
L 18.703125 0 
C 21.90625 0 27.296875 0 30.703125 0 
C 34.09375 0 39.5 0 42.703125 0 
L 42.703125 2.5 
L 40.796875 2.5 
C 33.796875 2.5 33.59375 3.5 33.59375 7.140625 
L 33.59375 17 
L 43.796875 17 
L 43.796875 19.59375 
L 33.59375 19.59375 
z
M 28.09375 57.859375 
L 28.09375 19.59375 
L 4 19.59375 
z
" id="CMR17-52"/>
      </defs>
      <g transform="translate(333.987965 251.21795)scale(0.18 -0.18)">
       <use transform="scale(0.996264)" xlink:href="#CMR17-52"/>
       <use transform="translate(45.690477 0)scale(0.996264)" xlink:href="#CMR17-48"/>
      </g>
     </g>
    </g>
    <g id="xtick_5">
     <g id="line2d_5">
      <g>
       <use style="stroke:#000000;stroke-width:0.8;" x="411.472517" xlink:href="#me76877fe1c" y="230.88"/>
      </g>
     </g>
     <g id="text_5">
      <!-- $50$ -->
      <defs>
       <path d="M 11.40625 57.6875 
C 12.40625 57.28125 16.5 56 20.703125 56 
C 30 56 35.09375 61.109375 38 64.0625 
C 38 64.953125 38 65.5 37.40625 65.5 
C 37.296875 65.5 37.09375 65.5 36.296875 65.046875 
C 32.796875 63.40625 28.703125 62.078125 23.703125 62.078125 
C 20.703125 62.078125 16.203125 62.484375 11.296875 64.671875 
C 10.203125 65.171875 10 65.171875 9.90625 65.171875 
C 9.40625 65.171875 9.296875 65.0625 9.296875 63.078125 
L 9.296875 34.421875 
C 9.296875 32.640625 9.296875 32.140625 10.296875 32.140625 
C 10.796875 32.140625 11 32.34375 11.5 33.03125 
C 14.703125 37.515625 19.09375 39.40625 24.09375 39.40625 
C 27.59375 39.40625 35.09375 37.21875 35.09375 20.140625 
C 35.09375 16.953125 35.09375 11.171875 32.09375 6.578125 
C 29.59375 2.484375 25.703125 0.390625 21.40625 0.390625 
C 14.796875 0.390625 8.09375 5 6.296875 12.71875 
C 6.703125 12.609375 7.5 12.421875 7.90625 12.421875 
C 9.203125 12.421875 11.703125 13.125 11.703125 16.21875 
C 11.703125 18.90625 9.796875 20 7.90625 20 
C 5.59375 20 4.09375 18.59375 4.09375 15.796875 
C 4.09375 7.09375 11 -2 21.59375 -2 
C 31.90625 -2 41.703125 6.875 41.703125 19.75 
C 41.703125 31.71875 33.90625 41 24.203125 41 
C 19.09375 41 14.796875 39.109375 11.40625 35.53125 
z
" id="CMR17-53"/>
      </defs>
      <g transform="translate(403.217392 251.21795)scale(0.18 -0.18)">
       <use transform="scale(0.996264)" xlink:href="#CMR17-53"/>
       <use transform="translate(45.690477 0)scale(0.996264)" xlink:href="#CMR17-48"/>
      </g>
     </g>
    </g>
    <g id="text_6">
     <!-- Time (s) -->
     <defs>
      <path d="M 63.296875 72 
L 3.40625 72 
L 1.90625 44.265625 
L 6.203125 44.265625 
C 6.90625 49.25 7.796875 53.046875 8.90625 56.234375 
C 11.5 63.515625 16.296875 67.3125 23.09375 67.3125 
C 26.40625 67.3125 27.796875 66.203125 27.796875 63.71875 
L 27.796875 12.28125 
L 27.796875 9.375 
C 27.796875 5.1875 26.90625 4.6875 18.796875 4.6875 
L 16.203125 4.6875 
L 16.203125 0 
L 50.5 0 
L 50.5 4.6875 
L 47.90625 4.6875 
C 39.90625 4.6875 39 5.1875 39 9.375 
L 39 12.28125 
L 39 63.71875 
C 39 66.203125 40.40625 67.3125 43.703125 67.3125 
C 49.796875 67.3125 54.703125 63.90625 57.203125 57.921875 
C 58.703125 54.25 59.703125 49.953125 60.5 44.265625 
L 64.796875 44.265625 
z
" id="Century_Schoolbook_L_Roman-84"/>
      <path d="M 20.59375 46 
L 1.796875 46 
L 1.796875 41.21875 
L 6.90625 41.21875 
C 10.59375 41.21875 11.203125 40.515625 11.203125 36.203125 
L 11.203125 12.296875 
L 11.203125 8.296875 
C 11.203125 4.296875 10.09375 3.59375 3.703125 3.59375 
L 3 3.59375 
L 3 0 
L 28.90625 0 
L 28.90625 3.59375 
L 28.203125 3.59375 
C 21.703125 3.59375 20.59375 4.28125 20.59375 8.21875 
L 20.59375 12.171875 
z
M 15.90625 71.578125 
C 12.703125 71.578125 10.09375 68.984375 10.09375 65.796875 
C 10.09375 62.703125 12.703125 60 15.796875 60 
C 19.09375 60 21.703125 62.59375 21.703125 65.796875 
C 21.703125 68.984375 19.09375 71.578125 15.90625 71.578125 
z
" id="Century_Schoolbook_L_Roman-105"/>
      <path d="M 20.09375 46 
L 2.296875 46 
L 2.296875 41.21875 
L 6.40625 41.21875 
C 10.09375 41.21875 10.703125 40.515625 10.703125 36.203125 
L 10.703125 12.296875 
L 10.703125 8.40625 
C 10.703125 4.296875 9.59375 3.59375 3.203125 3.59375 
L 2.796875 3.59375 
L 2.796875 0 
L 28 0 
L 28 3.59375 
L 27.59375 3.59375 
C 21.203125 3.59375 20.09375 4.296875 20.09375 8.390625 
L 20.09375 12.28125 
L 20.09375 26.453125 
C 20.09375 35.328125 25 41.921875 31.5 41.921875 
C 34.09375 41.921875 36.90625 40.515625 38.09375 38.625 
C 39.5 36.734375 40.09375 33.828125 40.09375 29.734375 
L 40.09375 12.28125 
L 40.09375 8.28125 
C 40.09375 4.296875 39 3.59375 32.5 3.59375 
L 32.09375 3.59375 
L 32.09375 0 
L 57.40625 0 
L 57.40625 3.59375 
L 57 3.59375 
C 50.59375 3.59375 49.5 4.296875 49.5 8.28125 
L 49.5 12.28125 
L 49.5 25.546875 
C 49.5 35.53125 54 41.921875 61 41.921875 
C 64.296875 41.921875 67 40.015625 68.296875 36.921875 
C 69.203125 34.734375 69.5 32.53125 69.5 28.640625 
L 69.5 12.28125 
L 69.5 8.28125 
C 69.5 4.296875 68.40625 3.59375 61.90625 3.59375 
L 61.5 3.59375 
L 61.5 0 
L 86.796875 0 
L 86.796875 3.59375 
L 86.40625 3.59375 
C 80 3.59375 78.90625 4.296875 78.90625 8.390625 
L 78.90625 12.28125 
L 78.90625 30.640625 
C 78.90625 36.828125 78.296875 38.921875 75.703125 42.3125 
C 72.796875 46.015625 68.703125 48 63.90625 48 
C 57.40625 48 52.59375 44.9375 48.296875 38.109375 
C 46.59375 44.046875 41.203125 48 34.5 48 
C 28.5 48 24 45.140625 20.09375 38.921875 
z
" id="Century_Schoolbook_L_Roman-109"/>
      <path d="M 46.5 23 
C 46.59375 37.8125 38.09375 48.28125 25.90625 48.28125 
C 13.09375 48.28125 3.5 37.25 3.5 22.34375 
C 3.5 8.4375 12.59375 -1 26.09375 -1 
C 35.59375 -1 42.40625 3.6875 46.5 13.1875 
L 43 15.09375 
C 38.90625 7.390625 34.703125 4.390625 28 4.390625 
C 22.90625 4.390625 19.203125 6.59375 16.59375 11 
C 14.796875 14 14 17.5 14.09375 23 
z
M 14.203125 27.296875 
C 14.203125 30.34375 14.59375 32.5 15.59375 35.25 
C 17.703125 41.140625 20.90625 44 25.703125 44 
C 31.796875 44 35.796875 38.78125 35.796875 30.921875 
C 35.796875 28.078125 34.90625 27.296875 31.703125 27.296875 
z
" id="Century_Schoolbook_L_Roman-101"/>
      <path d="M 27.90625 73.453125 
C 21.90625 69.765625 18.703125 67.171875 15.296875 63.171875 
C 7.703125 54.1875 3.59375 42.71875 3.59375 30.640625 
C 3.59375 19.265625 7.203125 8.578125 13.90625 -0.296875 
C 17.703125 -5.09375 21.09375 -8.078125 27.90625 -12.28125 
L 27.90625 -8.578125 
C 17.90625 0.203125 13.90625 11.484375 13.90625 30.640625 
C 13.90625 49.796875 17.90625 60.984375 27.90625 69.765625 
z
" id="Century_Schoolbook_L_Roman-40"/>
      <path d="M 39 48 
L 35.5 48 
L 32.59375 44.40625 
C 29 47.203125 25.40625 48.390625 20.40625 48.390625 
C 11.59375 48.390625 5.796875 42.625 5.796875 33.953125 
C 5.796875 30.078125 7.09375 26.78125 9.296875 24.8125 
C 11.59375 22.703125 13.90625 21.71875 19.90625 20.3125 
L 25.203125 19.125 
C 33.09375 17.234375 35.90625 15.234375 35.90625 11.265625 
C 35.90625 6.578125 31.796875 3.296875 25.90625 3.296875 
C 17.5 3.296875 11.5 8.765625 9.09375 18.875 
L 5.09375 18.875 
L 5.09375 0 
L 8.59375 0 
L 12.09375 3.90625 
C 16.203125 0.59375 20.796875 -1 25.796875 -1 
C 35.59375 -1 42.09375 5.078125 42.09375 14.34375 
C 42.09375 18.71875 40.703125 22.09375 37.90625 24.390625 
C 35.5 26.484375 33.5 27.28125 27.40625 28.5625 
L 22.40625 29.671875 
C 16.90625 30.859375 16.90625 30.859375 15.09375 31.859375 
C 12.90625 32.859375 11.59375 34.9375 11.59375 37.140625 
C 11.59375 41.109375 15.40625 44 20.90625 44 
C 24.703125 44 27.796875 42.703125 30.59375 40.015625 
C 32.796875 37.8125 33.90625 35.828125 35.5 31.234375 
L 39 31.234375 
z
" id="Century_Schoolbook_L_Roman-115"/>
      <path d="M 5.40625 -12.28125 
C 11.40625 -8.578125 14.59375 -5.984375 18 -1.890625 
C 25.59375 6.984375 29.703125 18.5625 29.703125 30.640625 
C 29.703125 42.015625 26.09375 52.703125 19.40625 61.484375 
C 15.59375 66.375 12.203125 69.359375 5.40625 73.453125 
L 5.40625 69.765625 
C 15.40625 60.984375 19.40625 49.796875 19.40625 30.640625 
C 19.40625 11.375 15.40625 0.203125 5.40625 -8.578125 
z
" id="Century_Schoolbook_L_Roman-41"/>
     </defs>
     <g transform="translate(205.432464 273.24577)scale(0.18 -0.18)">
      <use transform="translate(0 -0.29235)scale(0.996264)" xlink:href="#Century_Schoolbook_L_Roman-84"/>
      <use transform="translate(66.450031 -0.29235)scale(0.996264)" xlink:href="#Century_Schoolbook_L_Roman-105"/>
      <use transform="translate(97.831344 -0.29235)scale(0.996264)" xlink:href="#Century_Schoolbook_L_Roman-109"/>
      <use transform="translate(186.398251 -0.29235)scale(0.996264)" xlink:href="#Century_Schoolbook_L_Roman-101"/>
      <use transform="translate(263.906621 -0.29235)scale(0.996264)" xlink:href="#Century_Schoolbook_L_Roman-40"/>
      <use transform="translate(297.081851 -0.29235)scale(0.996264)" xlink:href="#Century_Schoolbook_L_Roman-115"/>
      <use transform="translate(343.207661 -0.29235)scale(0.996264)" xlink:href="#Century_Schoolbook_L_Roman-41"/>
     </g>
    </g>
   </g>
   <g id="matplotlib.axis_2">
    <g id="ytick_1">
     <g id="line2d_6">
      <defs>
       <path d="M 0 0 
L -3.5 0 
" id="m4a0b5d9d8c" style="stroke:#000000;stroke-width:0.8;"/>
      </defs>
      <g>
       <use style="stroke:#000000;stroke-width:0.8;" x="65.32538" xlink:href="#m4a0b5d9d8c" y="230.88"/>
      </g>
     </g>
     <g id="text_7">
      <!-- $0$ -->
      <g transform="translate(50.07025 237.548975)scale(0.18 -0.18)">
       <use transform="scale(0.996264)" xlink:href="#CMR17-48"/>
      </g>
     </g>
    </g>
    <g id="ytick_2">
     <g id="line2d_7">
      <g>
       <use style="stroke:#000000;stroke-width:0.8;" x="65.32538" xlink:href="#m4a0b5d9d8c" y="182.671444"/>
      </g>
     </g>
     <g id="text_8">
      <!-- $50$ -->
      <g transform="translate(41.81513 189.340419)scale(0.18 -0.18)">
       <use transform="scale(0.996264)" xlink:href="#CMR17-53"/>
       <use transform="translate(45.690477 0)scale(0.996264)" xlink:href="#CMR17-48"/>
      </g>
     </g>
    </g>
    <g id="ytick_3">
     <g id="line2d_8">
      <g>
       <use style="stroke:#000000;stroke-width:0.8;" x="65.32538" xlink:href="#m4a0b5d9d8c" y="134.462888"/>
      </g>
     </g>
     <g id="text_9">
      <!-- $100$ -->
      <g transform="translate(33.56 141.131863)scale(0.18 -0.18)">
       <use transform="scale(0.996264)" xlink:href="#CMR17-49"/>
       <use transform="translate(45.690477 0)scale(0.996264)" xlink:href="#CMR17-48"/>
       <use transform="translate(91.380954 0)scale(0.996264)" xlink:href="#CMR17-48"/>
      </g>
     </g>
    </g>
    <g id="ytick_4">
     <g id="line2d_9">
      <g>
       <use style="stroke:#000000;stroke-width:0.8;" x="65.32538" xlink:href="#m4a0b5d9d8c" y="86.254332"/>
      </g>
     </g>
     <g id="text_10">
      <!-- $150$ -->
      <g transform="translate(33.56 92.923307)scale(0.18 -0.18)">
       <use transform="scale(0.996264)" xlink:href="#CMR17-49"/>
       <use transform="translate(45.690477 0)scale(0.996264)" xlink:href="#CMR17-53"/>
       <use transform="translate(91.380954 0)scale(0.996264)" xlink:href="#CMR17-48"/>
      </g>
     </g>
    </g>
    <g id="ytick_5">
     <g id="line2d_10">
      <g>
       <use style="stroke:#000000;stroke-width:0.8;" x="65.32538" xlink:href="#m4a0b5d9d8c" y="38.045775"/>
      </g>
     </g>
     <g id="text_11">
      <!-- $200$ -->
      <g transform="translate(33.56 44.71475)scale(0.18 -0.18)">
       <use transform="scale(0.996264)" xlink:href="#CMR17-50"/>
       <use transform="translate(45.690477 0)scale(0.996264)" xlink:href="#CMR17-48"/>
       <use transform="translate(91.380954 0)scale(0.996264)" xlink:href="#CMR17-48"/>
      </g>
     </g>
    </g>
    <g id="text_12">
     <!-- X Load -->
     <defs>
      <path d="M 38.90625 39.890625 
L 52.203125 57.9375 
C 57.796875 65.40625 60.59375 67.3125 65.90625 67.3125 
L 67.5 67.3125 
L 67.5 72 
L 40 72 
L 40 67.3125 
L 41.40625 67.3125 
C 46.203125 67.3125 48.296875 66.109375 48.296875 63.40625 
C 48.296875 62.3125 48 61.609375 46.90625 60.03125 
L 36.09375 44.375 
L 22.796875 63.515625 
C 22.09375 64.515625 21.703125 65.515625 21.703125 66.015625 
C 21.703125 67 22.703125 67.3125 26.5 67.3125 
L 30.296875 67.3125 
L 30.296875 72 
L -0.59375 72 
L -0.59375 67.3125 
L 1.09375 67.3125 
C 6 67.3125 7.203125 66.8125 9.5 63.515625 
L 29.203125 35.109375 
L 13 12.671875 
C 9.09375 7.09375 5 4.6875 -0.09375 4.6875 
L -0.5 4.6875 
L -0.5 0 
L 27.90625 0 
L 27.90625 4.6875 
L 25.40625 4.6875 
C 21.40625 4.6875 18.90625 6.484375 18.90625 9.484375 
C 18.90625 10.78125 19.5 12.359375 20.5 13.859375 
L 32.09375 30.609375 
L 47 9.40625 
C 47.796875 8.203125 48.296875 7.09375 48.296875 6.296875 
C 48.296875 4.6875 47.90625 4.6875 41.59375 4.6875 
L 38.796875 4.6875 
L 38.796875 0 
L 71.59375 0 
L 71.59375 4.6875 
L 70.40625 4.6875 
C 64 4.6875 63.296875 4.984375 59.90625 9.875 
z
" id="Century_Schoolbook_L_Roman-88"/>
      <path d="M 64.59375 27.328125 
L 60.203125 27.328125 
C 59.203125 20.546875 56.796875 13.765625 54.203125 10.484375 
C 51.09375 6.59375 45.296875 4.6875 36.90625 4.6875 
L 32.703125 4.6875 
C 29.703125 4.6875 27.203125 5.296875 26.296875 6.1875 
C 25.59375 6.78125 25.5 7.390625 25.5 9.484375 
L 25.5 59.734375 
L 25.5 62.609375 
C 25.5 66.8125 26.40625 67.3125 34.5 67.3125 
L 36.296875 67.3125 
L 36.296875 72 
L 3.5 72 
L 3.5 67.3125 
L 5.296875 67.3125 
C 13.40625 67.3125 14.296875 66.8125 14.296875 62.609375 
L 14.296875 59.734375 
L 14.296875 12.28125 
L 14.296875 9.375 
C 14.296875 5.1875 13.40625 4.6875 5.296875 4.6875 
L 3.5 4.6875 
L 3.5 0 
L 62.5 0 
z
" id="Century_Schoolbook_L_Roman-76"/>
      <path d="M 25.203125 48.28125 
C 13 48.28125 3.40625 37.453125 3.40625 23.546875 
C 3.40625 9.9375 13 -1 25 -1 
C 37 -1 46.59375 9.9375 46.59375 23.640625 
C 46.59375 37.25 37 48.28125 25.203125 48.28125 
z
M 25.203125 44 
C 32.203125 44 36.09375 36.75 36.09375 23.640625 
C 36.09375 10.453125 32.203125 3.296875 25 3.296875 
C 17.796875 3.296875 13.90625 10.453125 13.90625 23.546875 
C 13.90625 37.046875 17.703125 44 25.203125 44 
z
" id="Century_Schoolbook_L_Roman-111"/>
      <path d="M 45.203125 32.578125 
C 45.203125 38.796875 44.09375 41.96875 41.203125 44.34375 
C 37.90625 46.90625 33 48.28125 26.59375 48.28125 
C 15.40625 48.28125 7.09375 43.046875 7.09375 35.921875 
C 7.09375 32.15625 9.40625 29.78125 12.90625 29.78125 
C 16 29.78125 18.296875 31.859375 18.296875 34.8125 
C 18.296875 36.109375 17.796875 37.484375 16.796875 38.875 
C 16.203125 39.546875 16.09375 39.84375 16.09375 40.15625 
C 16.09375 42.21875 20.203125 44 25 44 
C 28.09375 44 31.59375 43.015625 33.203125 41.53125 
C 35.09375 39.953125 35.796875 37.578125 35.796875 33.125 
L 35.796875 29.28125 
C 25.296875 27.484375 22.09375 26.6875 17.203125 24.8125 
C 8.59375 21.609375 4.40625 16.9375 4.40625 10.65625 
C 4.40625 3.578125 10.09375 -1 18.90625 -1 
C 25.796875 -1 32 1.859375 36.296875 7.0625 
C 37.90625 1.984375 40.40625 0 45.09375 0 
C 49.59375 0 54.296875 2.890625 54.296875 5.78125 
C 54.296875 6.46875 53.796875 6.96875 53.296875 6.96875 
C 52.90625 6.96875 52.5 6.875 51.796875 6.578125 
C 50.203125 6 49.796875 5.890625 49 5.890625 
C 46.203125 5.890625 45.203125 7.78125 45.203125 12.71875 
z
M 35.796875 20.46875 
C 35.796875 14.46875 35.5 13.078125 33.796875 10.484375 
C 31.296875 6.78125 26.703125 4.296875 22.40625 4.296875 
C 17.90625 4.296875 14.5 7.59375 14.5 12.078125 
C 14.5 16.265625 16.59375 19.265625 21 21.359375 
C 24.09375 22.75 28 23.75 35.796875 25.046875 
z
" id="Century_Schoolbook_L_Roman-97"/>
      <path d="M 38 0 
L 55.40625 0 
L 55.40625 4.703125 
L 53.59375 4.703125 
C 48.203125 4.703125 47.40625 5.703125 47.40625 11.96875 
L 47.40625 73.78125 
L 27.796875 73.78125 
L 27.796875 69 
L 33.703125 69 
C 37.296875 69 38 68.28125 38 63.921875 
L 38 41 
C 34.296875 46.09375 30 48.390625 24.203125 48.390625 
C 12.90625 48.390625 4.296875 37.546875 4.296875 23.203125 
C 4.296875 9.0625 12.59375 -1 24.203125 -1 
C 30.5 -1 34.796875 1.671875 38 7.59375 
z
M 26.203125 43 
C 30.296875 43 34.203125 40.03125 36 35.4375 
C 37.203125 32.453125 37.90625 28.28125 37.90625 23.515625 
C 37.90625 11.96875 33.296875 4.390625 26.09375 4.390625 
C 19.09375 4.390625 14.796875 10.96875 14.796875 22.015625 
C 14.796875 27.890625 15.40625 32.359375 16.703125 35.734375 
C 18.40625 40.125 22.09375 43 26.203125 43 
z
" id="Century_Schoolbook_L_Roman-100"/>
     </defs>
     <g transform="translate(24.87013 152.2107)rotate(-90)scale(0.18 -0.18)">
      <use transform="translate(0 0.343476)scale(0.996264)" xlink:href="#Century_Schoolbook_L_Roman-88"/>
      <use transform="translate(97.831344 0.343476)scale(0.996264)" xlink:href="#Century_Schoolbook_L_Roman-76"/>
      <use transform="translate(164.281375 0.343476)scale(0.996264)" xlink:href="#Century_Schoolbook_L_Roman-111"/>
      <use transform="translate(214.094576 0.343476)scale(0.996264)" xlink:href="#Century_Schoolbook_L_Roman-97"/>
      <use transform="translate(269.486253 0.343476)scale(0.996264)" xlink:href="#Century_Schoolbook_L_Roman-100"/>
     </g>
    </g>
   </g>
   <g id="line2d_11">
    <path clip-path="url(#pfc59b6365c)" d="M 65.32538 230.88 
L 87.95648 230.88 
L 88.07417 188.456471 
L 88.648774 188.456471 
L 88.766464 220.274118 
L 89.271839 220.274118 
L 89.389529 228.951658 
L 90.033363 228.951658 
L 90.151053 210.632406 
L 90.725657 210.632406 
L 90.843347 213.52492 
L 91.348722 213.52492 
L 91.466412 146.032941 
L 91.902557 146.032941 
L 92.020247 226.059144 
L 92.594851 226.059144 
L 92.712542 227.987487 
L 94.671734 227.987487 
L 94.789424 228.951658 
L 96.610158 228.951658 
L 96.727848 229.915829 
L 98.756271 229.915829 
L 98.873961 228.951658 
L 99.933171 228.951658 
L 100.050861 229.915829 
L 100.625465 229.915829 
L 100.743155 228.951658 
L 101.24853 228.951658 
L 101.36622 227.987487 
L 101.940824 227.987487 
L 102.058514 229.915829 
L 102.633118 229.915829 
L 102.750809 230.88 
L 103.256183 230.88 
L 103.373873 229.915829 
L 103.879248 229.915829 
L 103.996938 230.88 
L 105.263837 230.88 
L 105.381527 228.951658 
L 105.956131 228.951658 
L 106.073821 229.915829 
L 106.579196 229.915829 
L 106.696886 227.987487 
L 107.27149 227.987487 
L 107.38918 227.023316 
L 107.894555 227.023316 
L 108.012245 228.951658 
L 109.902208 228.951658 
L 110.019898 229.915829 
L 111.217567 229.915829 
L 111.335258 230.88 
L 111.909862 230.88 
L 112.027552 228.951658 
L 112.532927 228.951658 
L 112.650617 227.023316 
L 113.917515 227.023316 
L 114.035205 228.951658 
L 114.609809 228.951658 
L 114.727499 230.88 
L 115.232874 230.88 
L 115.350564 83.361818 
L 115.925169 83.361818 
L 116.042859 200.990695 
L 116.548233 200.990695 
L 116.665923 170.137219 
L 117.240528 170.137219 
L 117.358218 208.704064 
L 118.555887 208.704064 
L 118.673577 209.668235 
L 121.80967 209.668235 
L 121.92736 218.345775 
L 122.501964 218.345775 
L 122.619654 227.023316 
L 123.194258 227.023316 
L 123.311948 229.915829 
L 125.201912 229.915829 
L 125.319602 230.88 
L 127.209565 230.88 
L 127.327255 229.915829 
L 127.83263 229.915829 
L 127.95032 230.88 
L 129.840283 230.88 
L 129.957974 229.915829 
L 131.847937 229.915829 
L 131.965627 230.88 
L 133.85559 230.88 
L 133.97328 229.915829 
L 134.478655 229.915829 
L 134.596345 230.88 
L 135.170949 230.88 
L 135.288639 229.915829 
L 135.794014 229.915829 
L 135.911704 228.951658 
L 136.486309 228.951658 
L 136.603999 229.915829 
L 137.870897 229.915829 
L 137.988587 230.88 
L 138.493962 230.88 
L 138.611652 229.915829 
L 139.117027 229.915829 
L 139.234717 230.88 
L 139.809321 230.88 
L 139.927011 229.915829 
L 140.501615 229.915829 
L 140.619305 227.987487 
L 141.12468 227.987487 
L 141.24237 228.951658 
L 141.816974 228.951658 
L 141.934664 229.915829 
L 143.132334 229.915829 
L 143.250024 227.987487 
L 143.824628 227.987487 
L 143.942318 229.915829 
L 144.447693 229.915829 
L 144.565383 230.88 
L 145.070758 230.88 
L 145.188448 168.208877 
L 145.763052 168.208877 
L 145.880742 66.970909 
L 146.455346 66.970909 
L 146.573036 118.071979 
L 147.14764 118.071979 
L 147.26533 211.596578 
L 147.978393 211.596578 
L 148.096084 209.668235 
L 151.855241 209.668235 
L 151.972931 210.632406 
L 152.409077 210.632406 
L 152.526767 227.023316 
L 153.101371 227.023316 
L 153.219061 228.951658 
L 153.862895 228.951658 
L 153.980585 229.915829 
L 155.109025 229.915829 
L 155.226715 230.88 
L 157.047448 230.88 
L 157.165139 228.951658 
L 157.808972 228.951658 
L 157.926662 229.915829 
L 158.501266 229.915829 
L 158.618956 228.951658 
L 159.055102 228.951658 
L 159.172792 229.915829 
L 162.378114 229.915829 
L 162.495804 227.987487 
L 163.139638 227.987487 
L 163.257328 227.023316 
L 164.454997 227.023316 
L 164.572687 227.987487 
L 165.770356 227.987487 
L 165.888046 228.951658 
L 167.085715 228.951658 
L 167.203405 229.915829 
L 168.401075 229.915829 
L 168.518765 230.88 
L 169.093369 230.88 
L 169.211059 229.915829 
L 171.031793 229.915829 
L 171.149483 227.987487 
L 171.724087 227.987487 
L 171.841777 228.951658 
L 172.416381 228.951658 
L 172.534071 230.88 
L 173.039446 230.88 
L 173.157136 229.915829 
L 173.731741 229.915829 
L 173.849431 230.88 
L 174.562494 230.88 
L 174.680184 229.915829 
L 175.0471 229.915829 
L 175.16479 226.059144 
L 175.670164 226.059144 
L 175.787855 34.189091 
L 176.431688 34.189091 
L 176.549378 161.459679 
L 177.054753 161.459679 
L 177.172443 216.417433 
L 177.747047 216.417433 
L 177.864737 208.704064 
L 178.508571 208.704064 
L 178.626261 209.668235 
L 182.385419 209.668235 
L 182.503109 228.951658 
L 183.008484 228.951658 
L 183.126174 225.094973 
L 183.700778 225.094973 
L 183.818468 228.951658 
L 184.323843 228.951658 
L 184.441533 229.915829 
L 185.639202 229.915829 
L 185.756892 230.88 
L 187.023791 230.88 
L 187.141481 227.987487 
L 190.277574 227.987487 
L 190.395264 228.951658 
L 192.354457 228.951658 
L 192.472147 227.987487 
L 192.977521 227.987487 
L 193.095211 227.023316 
L 194.431339 227.023316 
L 194.549029 227.987487 
L 196.300534 227.987487 
L 196.418224 228.951658 
L 198.308187 228.951658 
L 198.425877 229.915829 
L 200.938906 229.915829 
L 201.056596 227.987487 
L 202.531182 227.987487 
L 202.648872 230.88 
L 203.569624 230.88 
L 203.687314 228.951658 
L 204.261918 228.951658 
L 204.379608 229.915829 
L 204.954212 229.915829 
L 205.071902 230.88 
L 205.646507 230.88 
L 205.764197 111.322781 
L 206.338801 111.322781 
L 206.456491 166.280535 
L 206.961866 166.280535 
L 207.079556 154.710481 
L 207.65416 154.710481 
L 207.77185 208.704064 
L 208.346454 208.704064 
L 208.464144 209.668235 
L 212.292532 209.668235 
L 212.410222 218.345775 
L 212.915596 218.345775 
L 213.033286 223.166631 
L 213.607891 223.166631 
L 213.725581 227.023316 
L 214.300185 227.023316 
L 214.417875 228.951658 
L 214.92325 228.951658 
L 215.04094 229.915829 
L 216.930903 229.915829 
L 217.048593 228.951658 
L 217.623198 228.951658 
L 217.740888 227.987487 
L 220.253916 227.987487 
L 220.371606 228.951658 
L 222.330799 228.951658 
L 222.448489 227.987487 
L 222.884634 227.987487 
L 223.002324 226.059144 
L 224.199993 226.059144 
L 224.317683 227.987487 
L 226.830711 227.987487 
L 226.948401 228.951658 
L 228.907594 228.951658 
L 229.025284 229.915829 
L 229.530659 229.915829 
L 229.648349 228.951658 
L 231.538312 228.951658 
L 231.656002 227.987487 
L 232.230607 227.987487 
L 232.348297 230.88 
L 233.615195 230.88 
L 233.732885 228.951658 
L 234.169031 228.951658 
L 234.286721 229.915829 
L 235.553619 229.915829 
L 235.671309 189.420642 
L 236.176684 189.420642 
L 236.294374 44.794973 
L 236.868978 44.794973 
L 236.986668 111.322781 
L 237.561273 111.322781 
L 237.678963 214.489091 
L 238.253567 214.489091 
L 238.371257 208.704064 
L 238.876632 208.704064 
L 238.994322 209.668235 
L 242.199644 209.668235 
L 242.317334 210.632406 
L 242.822709 210.632406 
L 242.940399 224.130802 
L 243.515003 224.130802 
L 243.632693 226.059144 
L 244.138068 226.059144 
L 244.255758 228.951658 
L 244.830363 228.951658 
L 244.948053 229.915829 
L 245.453427 229.915829 
L 245.571117 230.88 
L 246.768787 230.88 
L 246.886477 228.951658 
L 247.461081 228.951658 
L 247.578771 227.987487 
L 248.153375 227.987487 
L 248.271065 227.023316 
L 248.77644 227.023316 
L 248.89413 227.987487 
L 250.784093 227.987487 
L 250.901783 228.951658 
L 252.099452 228.951658 
L 252.217142 227.987487 
L 252.791747 227.987487 
L 252.909437 227.023316 
L 255.422465 227.023316 
L 255.540155 227.987487 
L 256.807053 227.987487 
L 256.924744 228.951658 
L 258.814707 228.951658 
L 258.932397 229.915829 
L 260.130066 229.915829 
L 260.247756 228.951658 
L 261.445425 228.951658 
L 261.563115 227.987487 
L 262.06849 227.987487 
L 262.18618 229.915829 
L 262.830014 229.915829 
L 262.947704 230.88 
L 263.453079 230.88 
L 263.570769 229.915829 
L 265.460732 229.915829 
L 265.578422 227.023316 
L 266.222256 227.023316 
L 266.339946 47.687487 
L 266.776091 47.687487 
L 266.893781 192.313155 
L 267.468385 192.313155 
L 267.586075 202.919037 
L 268.09145 202.919037 
L 268.20914 208.704064 
L 268.783744 208.704064 
L 268.901434 209.668235 
L 272.729822 209.668235 
L 272.847512 108.430267 
L 273.422116 108.430267 
L 273.539806 93.967701 
L 274.045181 93.967701 
L 274.162871 120.964492 
L 274.737475 120.964492 
L 274.855165 228.951658 
L 275.291311 228.951658 
L 275.409001 207.739893 
L 276.052834 207.739893 
L 276.170524 209.668235 
L 279.375847 209.668235 
L 279.493537 208.704064 
L 280.691206 208.704064 
L 280.808896 209.668235 
L 284.083448 209.668235 
L 284.201138 229.915829 
L 284.637283 229.915829 
L 284.754973 57.329198 
L 285.398807 57.329198 
L 285.516497 153.74631 
L 286.021872 153.74631 
L 286.139562 136.39123 
L 286.714166 136.39123 
L 286.831856 226.059144 
L 287.337231 226.059144 
L 287.454921 227.023316 
L 288.029525 227.023316 
L 288.147215 227.987487 
L 288.65259 227.987487 
L 288.77028 229.915829 
L 289.344884 229.915829 
L 289.462574 230.88 
L 290.660244 230.88 
L 290.777934 229.915829 
L 291.975603 229.915829 
L 292.093293 228.951658 
L 294.052485 228.951658 
L 294.170176 227.987487 
L 305.959947 227.987487 
L 306.077637 228.951658 
L 306.721471 228.951658 
L 306.839161 227.987487 
L 307.9676 227.987487 
L 308.08529 228.951658 
L 308.659895 228.951658 
L 308.777585 227.987487 
L 311.982907 227.987487 
L 312.100597 227.023316 
L 319.875062 227.023316 
L 319.992752 227.987487 
L 320.567356 227.987487 
L 320.685046 227.023316 
L 321.25965 227.023316 
L 321.377341 227.987487 
L 323.890369 227.987487 
L 324.008059 227.023316 
L 324.582663 227.023316 
L 324.700353 227.987487 
L 330.536394 227.987487 
L 330.654084 228.951658 
L 331.228688 228.951658 
L 331.346378 227.987487 
L 337.182419 227.987487 
L 337.300109 227.023316 
L 339.190072 227.023316 
L 339.307762 226.059144 
L 339.813137 226.059144 
L 339.930827 227.023316 
L 341.197726 227.023316 
L 341.315416 226.059144 
L 349.15911 226.059144 
L 349.2768 227.023316 
L 351.166763 227.023316 
L 351.284453 226.059144 
L 351.789828 226.059144 
L 351.907518 227.023316 
L 355.805135 227.023316 
L 355.922825 227.987487 
L 356.497429 227.987487 
L 356.615119 227.023316 
L 357.189723 227.023316 
L 357.307413 227.987487 
L 363.766519 227.987487 
L 363.884209 228.951658 
L 364.458813 228.951658 
L 364.576503 227.987487 
L 365.151108 227.987487 
L 365.268798 228.951658 
L 365.774172 228.951658 
L 365.891862 227.987487 
L 366.466467 227.987487 
L 366.584157 228.951658 
L 377.127798 228.951658 
L 377.245489 227.987487 
L 380.381582 227.987487 
L 380.499272 228.951658 
L 381.073876 228.951658 
L 381.191566 227.987487 
L 381.696941 227.987487 
L 381.814631 228.951658 
L 382.527694 228.951658 
L 382.645384 227.987487 
L 383.081529 227.987487 
L 383.199219 228.951658 
L 384.396888 228.951658 
L 384.514578 229.915829 
L 386.404542 229.915829 
L 386.522232 228.951658 
L 387.096836 228.951658 
L 387.214526 229.915829 
L 387.719901 229.915829 
L 387.837591 230.88 
L 391.112143 230.88 
L 391.229833 229.915829 
L 391.665978 229.915829 
L 391.783668 230.88 
L 392.358273 230.88 
L 392.475963 229.915829 
L 393.050567 229.915829 
L 393.168257 230.88 
L 394.365926 230.88 
L 394.483616 229.915829 
L 398.312003 229.915829 
L 398.429693 230.88 
L 401.011951 230.88 
L 401.129641 96.860214 
L 401.704245 96.860214 
L 401.821935 200.026524 
L 402.32731 200.026524 
L 402.445 170.137219 
L 403.227293 170.137219 
L 403.344983 207.739893 
L 404.334963 207.739893 
L 404.452654 208.704064 
L 407.657976 208.704064 
L 407.775666 108.430267 
L 408.281041 108.430267 
L 408.398731 94.931872 
L 408.973335 94.931872 
L 409.091025 119.03615 
L 409.5964 119.03615 
L 409.71409 227.987487 
L 410.288694 227.987487 
L 410.406384 207.739893 
L 410.980989 207.739893 
L 411.098679 209.668235 
L 413.542477 209.668235 
L 413.542477 209.668235 
" style="fill:none;stroke:#e41a1c;stroke-linecap:square;stroke-width:2;"/>
   </g>
   <g id="patch_3">
    <path d="M 65.32538 230.88 
L 65.32538 14.52 
" style="fill:none;stroke:#000000;stroke-linecap:square;stroke-linejoin:miter;stroke-width:0.8;"/>
   </g>
   <g id="patch_4">
    <path d="M 413.542477 230.88 
L 413.542477 14.52 
" style="fill:none;"/>
   </g>
   <g id="patch_5">
    <path d="M 65.32538 230.88 
L 413.542477 230.88 
" style="fill:none;stroke:#000000;stroke-linecap:square;stroke-linejoin:miter;stroke-width:0.8;"/>
   </g>
   <g id="patch_6">
    <path d="M 65.32538 14.52 
L 413.542477 14.52 
" style="fill:none;"/>
   </g>
   <g id="legend_1">
    <g id="patch_7">
     <path d="M 305.078987 44.05585 
L 408.742477 44.05585 
Q 411.942477 44.05585 411.942477 40.85585 
L 411.942477 19.32 
Q 411.942477 16.12 408.742477 16.12 
L 305.078987 16.12 
Q 301.878987 16.12 301.878987 19.32 
L 301.878987 40.85585 
Q 301.878987 44.05585 305.078987 44.05585 
z
" style="fill:#ffffff;stroke:#000000;stroke-linejoin:miter;"/>
    </g>
    <g id="line2d_12">
     <path d="M 308.278987 28.77596 
L 340.278987 28.77596 
" style="fill:none;stroke:#e41a1c;stroke-linecap:square;stroke-width:2;"/>
    </g>
    <g id="line2d_13"/>
    <g id="text_13">
     <!-- X Load -->
     <g transform="translate(353.078987 34.37596)scale(0.16 -0.16)">
      <use transform="translate(0 0.343476)scale(0.996264)" xlink:href="#Century_Schoolbook_L_Roman-88"/>
      <use transform="translate(97.831344 0.343476)scale(0.996264)" xlink:href="#Century_Schoolbook_L_Roman-76"/>
      <use transform="translate(164.281375 0.343476)scale(0.996264)" xlink:href="#Century_Schoolbook_L_Roman-111"/>
      <use transform="translate(214.094576 0.343476)scale(0.996264)" xlink:href="#Century_Schoolbook_L_Roman-97"/>
      <use transform="translate(269.486253 0.343476)scale(0.996264)" xlink:href="#Century_Schoolbook_L_Roman-100"/>
     </g>
    </g>
   </g>
  </g>
 </g>
 <defs>
  <clipPath id="pfc59b6365c">
   <rect height="216.36" width="348.217097" x="65.32538" y="14.52"/>
  </clipPath>
 </defs>
</svg>
